<svg id="レイヤー_1" xmlns="http://www.w3.org/2000/svg" viewBox="0 0 50 27"><style>.st0{fill:#3db6d1}.st1{fill:none}</style><g id="XMLID_1_"><path class="st0" d="M18.4 20.1c4.2-.2 6.1-2.1 6.1-4.4 0-2-1.4-3.7-4.5-4.2V9.4H0c0 4.4 0 10.8 4 13.8-2.4.2-4 .5-4 .8 0 .6 4.5 1 10 1s10-.5 10-1c0-.3-1.6-.6-4-.8 1-.8 1.8-1.8 2.4-3.1zm1.4-6.6c1.8.4 2.1 1.2 2 2.3 0 1.2-.4 2.1-2.8 2.4.5-1.5.7-3.1.8-4.7zM2.4 10.9h3.1c-1.4 4.1 1 10.5 1 10.5-5.1-3.8-4.1-10.5-4.1-10.5zm0 0M11.6 6.8C12 3.2 19.9 5 18.3.4c-.3-.7-1.4-.4-1.2.3.7 2-2 2.3-3.4 2.7-1.7.6-3.1 1.5-3.3 3.4-.1.7 1.1.7 1.2 0zm0 0"/><path id="XMLID_15_" class="st1" d="M0 0h24.5v25.4H0z"/><path class="st0" d="M17.2 4.3c-1.5.4-3 1-3.4 2.6-.2.7.9 1 1.1.3.5-1.8 2.9-1.8 4.4-2.2 1.6-.5 2.5-1.6 2.3-3.3-.1-.7-1.3-.7-1.2 0 .3 2.1-1.6 2.2-3.2 2.6zm0 0"/><g><path class="st0" d="M39.4 9.9c-5.9.1-10.6 2.8-10.6 6.2v.9s.1 3 .1 4.3c0 3.3 5 5.6 10.5 5.7 5.5-.1 10.5-2.4 10.5-5.7 0-1.3.1-4.3.1-4.3v-.9c0-3.4-4.7-6.2-10.6-6.2zm6 5.8l1.1-.8c.2-.1.5-.1.6.1.1.2.1.5-.1.6l-1 .8c-.1.1-.2.1-.3.1-.1 0-.3-.1-.4-.2-.1-.2-.1-.4.1-.6zM42 12.1l1.1-.8c.2-.1.5-.1.6.1.1.2.1.5-.1.6l-1.1.8c-.1.1-.2.1-.3.1-.1 0-.3-.1-.4-.2-.1-.1 0-.4.2-.6zm-2.6 1.2c2.1 0 3.8.8 3.8 1.7 0 .9-1.7 1.7-3.8 1.7-2.1 0-3.8-.8-3.8-1.7 0-.9 1.7-1.6 3.8-1.7zm2.8 5.3l-1.1.8c-.1.1-.2.1-.3.1-.1 0-.3-.1-.4-.2-.1-.2-.1-.5.1-.6l1.1-.8c.2-.1.5-.1.6.1.2.2.2.4 0 .6zm-7-6.5l1.1-.8c.2-.1.5-.1.6.1.1.2.1.5-.1.6l-1.1.8c-.1.1-.2.1-.3.1-.1 0-.3-.1-.4-.2-.1-.1 0-.4.2-.6zm-1.1 5.5l1.1-.8c.2-.1.5-.1.6.1.1.2.1.5-.1.6l-1.1.8c-.1.1-.2.1-.3.1-.1 0-.3-.1-.4-.2-.1-.2 0-.5.2-.6zm-2.3-1.5l1.1-.8c.2-.1.5-.1.6.1.1.2.1.5-.1.6l-1.1.8c-.1.1-.2.1-.3.1-.1 0-.3-.1-.4-.2 0-.2 0-.4.2-.6zm16.6 5.3c0 2.5-4.4 4.1-9 4.3-4.6-.1-9-1.8-9-4.3v-2.2l.3.3c.5.4 1.1.8 1.8 1.2v.7c0 .5.4.9.9.9.3 0 .5-.1.7-.3v1.4c0 .5.4.9.9.9s.9-.4.9-.9v-1.6h.2v.4c0 .5.4.9.9.9.4 0 .7-.2.8-.6v1.8c0 .5.4.9.9.9s.9-.4.9-.9v-2.1c.5 0 .9 0 1.4-.1v.1c0 .5.4.9.9.9s.9-.4.9-.9v-.4c.6-.1 1.2-.3 1.8-.5 0 .5.4.9.9.9s.9-.4.9-.9v-.7c.7-.4 1.3-.7 1.8-1.2l.3-.3-.1 2.3zm0 0"/><path id="XMLID_2_" class="st1" d="M28.8 9.9H50V27H28.8z"/></g></g></svg>