<svg id="レイヤー_1" xmlns="http://www.w3.org/2000/svg" viewBox="0 0 56 27"><style>.st0{fill:#3db6d1}</style><path class="st0" d="M7.6 19.1c0 .3-.2.5-.5.5H7c-.3 0-.5-.2-.5-.5s.2-.5.5-.5h.1c.3.1.5.3.5.5zm-2.9-4.3h-.2c-.3 0-.5.2-.5.5s.2.5.5.5h.1c.3 0 .5-.2.5-.5.1-.3-.2-.5-.4-.5zM9.3 11h-.1c-.3 0-.5.2-.5.5s.2.5.5.5h.1c.3 0 .5-.2.5-.5s-.2-.5-.5-.5zm3-6.2h-.1c-.3 0-.5.2-.5.5s.2.5.5.5h.1c.3 0 .5-.2.5-.5s-.2-.5-.5-.5zm6 5.3c0-.8.7-1.5 1.5-1.5.9 0 1.5.7 1.5 1.5s-.7 1.5-1.5 1.5-1.5-.7-1.5-1.5zm1 0c0 .3.3.6.6.6s.6-.3.6-.6-.3-.6-.6-.6c-.4 0-.6.2-.6.6zM8.9 8.7c0 .8-.7 1.5-1.5 1.5-.9 0-1.5-.7-1.5-1.5s.7-1.5 1.5-1.5 1.5.7 1.5 1.5zm-1 0c0-.3-.3-.6-.6-.6-.3.1-.6.3-.6.6s.3.6.6.6.6-.2.6-.6zM5.2 11h-.1c-.3 0-.5.2-.5.5s.2.5.5.5h.1c.3 0 .5-.2.5-.5s-.2-.5-.5-.5zm9.5-5.3h.1c.3 0 .5-.2.5-.5s-.2-.5-.5-.5h-.1c-.3 0-.5.2-.5.5s.2.5.5.5zm10.3 13c.1 0 .1.1.2.1.2 0 .3-.1.4-.3l.1-.1c.1-.2 0-.5-.2-.6-.2-.1-.5 0-.7.2-.1.3 0 .5.2.7zm-4.6 5.4c.1.2.1.5-.1.6-2 1.1-4.4 1.8-6.7 1.8-2.4 0-4.7-.6-6.7-1.8C2.7 22.4 0 18.1 0 13.2 0 8.4 2.7 4.1 6.7 1.8 8.7.7 11 0 13.4 0c2.4 0 4.7.6 6.7 1.8 4 2.3 6.7 6.6 6.7 11.4 0 .3-.2.5-.5.5H14.1l.6 1 5.7 9.4zm-1.1 0l-6.2-10.7c-.1-.1-.1-.3 0-.5.1-.1.2-.2.4-.2H24c-.1-2.8-1.4-5.5-3.6-7.4-.2-.2-.2-.5 0-.7.2-.2.5-.2.7 0 2.4 2 3.9 5 4 8.1h1c-.2-4.2-2.5-7.8-5.8-9.9l-5.2 8.9c-.1.2-.4.3-.7.2-.2-.1-.3-.4-.2-.6L18.4 4c-1.5-.8-3.2-1.2-4.9-1.2-1.3 0-2.5.2-3.7.6-.3.1-.5 0-.6-.3-.1-.1.1-.4.3-.5 1.3-.5 2.6-.7 4-.7 1.9 0 3.7.4 5.3 1.3l.5-.9C17.6 1.4 15.6.9 13.5.9c-2.1 0-4.1.5-5.8 1.4l5.2 8.9c.1.2.1.5-.2.6-.2.1-.5.1-.7-.2L7.8 4.5c-2.5 1.6-4.3 4.2-4.7 7.1-.1.3-.3.4-.6.4s-.4-.3-.4-.5c.5-3.2 2.4-6 5.2-7.8l-.5-.9C3.4 4.9 1.1 8.6 1 12.8h10.5c.3 0 .5.2.5.5s-.2.5-.5.5H3c.1 2.9 1.5 5.6 3.7 7.4.2.2.2.5.1.7-.2.1-.5.1-.7 0-2.5-2.1-3.9-5-4.1-8.2H1c.2 4.2 2.5 7.8 5.8 9.9l5.2-8.9c.1-.2.4-.3.7-.2.2.1.3.4.2.6l-4.3 7.2c1.5.8 3.2 1.2 4.9 1.2 1.3 0 2.5-.2 3.7-.6.3-.1.5 0 .6.3.1.2 0 .5-.3.6-1.3.5-2.6.7-4 .7-1.9 0-3.7-.4-5.3-1.3l-.5.9c1.7.9 3.7 1.4 5.8 1.4 2 0 4-.4 5.8-1.4zm4.6-3.2c.1 0 .1.1.2.1.2 0 .3-.1.4-.3l.1-.1c.1-.2 0-.5-.2-.6-.2-.1-.5 0-.6.2l-.1.1c-.2.1-.1.4.2.6zm-1.8-2.3c.1 0 .1.1.2.1.2 0 .3-.1.4-.3l.1-.1c.1-.2 0-.5-.2-.6-.2-.1-.5 0-.7.2l-.1.1c0 .2 0 .5.3.6zm8.9-3.1c0 2.4-.6 4.7-1.9 6.7-1.2 2-2.9 3.6-4.9 4.8-.1 0-.2.1-.4 0-.1 0-.2-.1-.3-.2L17 15.7c-.1-.1-.1-.3 0-.5.1-.1.2-.2.4-.2h13c.4 0 .6.2.6.5zm-1 .4H18.3l4.8 8.3c2.5-1.6 4.2-4 4.7-6.9 0-.3.3-.4.6-.4s.4.3.4.6c-.6 3.1-2.5 5.8-5.2 7.5l.5.9c3.5-2.2 5.7-5.9 5.9-10zm-14.8 5.4h.1c.3 0 .5-.2.5-.5s-.2-.5-.5-.5h-.1c-.3 0-.5.2-.5.5.1.3.3.5.5.5zm-1.4-.3c0 .8-.7 1.5-1.5 1.5-.9 0-1.5-.7-1.5-1.5s.7-1.5 1.5-1.5 1.5.7 1.5 1.5zm-1 0c0-.3-.3-.6-.6-.6s-.6.3-.6.6.3.6.6.6.6-.3.6-.6zm.1-3.8c0 .3.2.5.5.5h.1c.3 0 .5-.2.5-.5s-.2-.5-.5-.5h-.1c-.3 0-.5.3-.5.5zm.5-8.9h.1c.3 0 .5-.2.5-.5s-.2-.5-.5-.5h-.1c-.3 0-.5.2-.5.5.1.3.3.5.5.5zM9.6 16c0 .8-.7 1.5-1.5 1.5-.9 0-1.5-.7-1.5-1.5s.7-1.5 1.5-1.5 1.5.7 1.5 1.5zm-1 0c0-.3-.3-.6-.6-.6s-.6.3-.6.6.3.6.6.6c.4 0 .6-.2.6-.6zm0 0M52 11.3h-1.2c-.2 0-.5 0-.7.1V8.6v-.4c.8-.6 1.3-1.5 1.3-2.6 0-2-1.8-3.5-3.9-3.1-.7-.7-1.6-1.1-2.6-1C44.2.6 43.1 0 42 0c-.9 0-1.8.4-2.4 1-.2-.1-.3-.1-.5-.2h-1.5c-1.4.1-2.7 1-3.1 2.1-1.4.3-2.5 1.5-2.5 3 0 1 .5 1.9 1.3 2.5v16.5c0 1.2 1 2.2 2.2 2.2h12.4c1.2 0 2.2-1 2.2-2.2v-3.3c.2 0 .5.1.7.1H52c2.2 0 4-1.8 4-4v-2.4c0-2.3-1.8-4-4-4zm-3.5 13.5c0 .4-.3.7-.7.7H35.4c-.4 0-.7-.3-.7-.7V8.6c0-.4.3-.7.7-.7h12.4c.4 0 .7.3.7.7v16.2zM49.2 7c-.4-.3-.9-.5-1.4-.5H35.4c-.6 0-1.1.2-1.5.6-.3-.3-.6-.7-.6-1.2 0-.9.7-1.6 1.6-1.6h.6l.1-.6c.1-.7.9-1.4 2-1.5h.8c.3 0 .6.1.9.3l.7.4.4-.6c.4-.5 1-.8 1.6-.8.7 0 1.4.4 1.7 1.1l.3.4.6-.1c.8-.1 1.6.2 2 .8l.3.5.5-.2c.2-.1.4-.1.6-.1 1 0 1.8.8 1.8 1.8 0 .5-.2.9-.6 1.3zm4.6 10.6c0 1-.8 1.8-1.8 1.8h-1.2c-.3 0-.5-.1-.7-.2v-5.7c.2-.1.5-.1.7-.1H52c1 0 1.8.8 1.8 1.8v2.4zm0 0"/><path id="XMLID_1_" class="st0" d="M35.4 10.5h12.4v14.3H35.4z"/></svg>