<svg width="60" height="66" viewBox="0 0 60 66" xmlns="http://www.w3.org/2000/svg"><title>Artboard</title><g fill="none" fill-rule="evenodd"><path d="M58.258 3.655c-.37-.092-.97-.136-3.392-.136-.782 0-1.67.004-2.616.008-1.066.005-2.205.01-3.34.01-1.828 0-4.386-.012-6.207-.116C39.787 1.302 36.428.172 32.71.06c-8.053-.247-15.185 3.234-19.046 9.216-1.305 1.24-3.76 2.62-4.425 2.767-1.114.248-1.835 1.222-1.714 2.317.086.79.647 1.676 1.9 2.088a5.99 5.99 0 0 0-.41.445c-.85 1.022-1.204 2.185-1 3.273.04.218.098.427.17.625a20.314 20.314 0 0 0-2.8 10.317c0 .92.06 1.837.184 2.745-.29-.05-.58-.076-.87-.076-1.396 0-2.69.605-3.55 1.66C.2 36.604-.135 38.164.21 39.83c.704 3.393 5.848 9.115 9.95 10.1.404.096.79.145 1.147.145 1.097 0 2.004-.463 2.553-1.302.174-.267.3-.55.388-.84a20.216 20.216 0 0 0 9.463 3.472c.744 2.422 2.738 2.826 3.983 2.826 1.876 0 3.496-.76 4.652-2.166l.314.002c.792 0 1.778-.054 2.905-.228-3.61 4.048-8.823 6.378-12.662 6.378-1.62 0-3.793-.412-4.96-2.376-1.547-2.598-4.024-4.212-6.466-4.212-2.565 0-4.347 1.81-4.434 4.503-.047 1.46.717 3.045 2.21 4.586 2.513 2.594 7.385 5.21 12.607 5.21 1.154 0 2.284-.128 3.36-.383 9.254-2.19 17.545-9.595 19.957-17.74 8.832-6.744 8.132-25.284 5.205-33.55a27.77 27.77 0 0 0-.658-1.685c.356.04.71.062 1.055.062.808 0 1.596-.114 2.342-.337 4.59-1.377 6.665-4.783 6.622-6.652-.023-.985-.606-1.765-1.486-1.985" fill="#000"/><path d="M10.294 41.757c-.46-.846-.96-1.718-1.452-2.5.42.872.906 1.708 1.452 2.5M43.152 25.335c-2.85-2.553-4.813-4.122-7.638-4.706-1.9-.394-4.166.11-6.165.552-1.516.336-2.825.627-3.843.52-1.564-.165-2.804-.988-3.157-2.097-.25-.78-.18-2.033 1.56-3.564.723-.636 1.59-1.168 2.54-1.6-1.37.002-2.724-.262-4.025-.952-1.68 2.332-5.944 4.022-7.256 3.44a3.04 3.04 0 0 1-.92-.662c-.027.022-.053.046-.082.068.346.324.6.778.708 1.31.22 1.074-.156 2.225-1.008 3.076-.742.742-1.677 1.168-2.564 1.168-.62 0-1.15-.216-1.547-.593a18.677 18.677 0 0 0-2.775 9.812c0 1.676.224 3.298.636 4.844 1.762 1.452 4.663 7.218 5.296 8.664.035.08.074.18.114.295a18.754 18.754 0 0 0 11.305 4.942c-.055-.72-.03-1.485-.005-2.242.03-.927.062-1.887-.06-2.674-.1-.65-.265-1.344-.442-2.08-.657-2.746-1.402-5.858 1.225-7.608a2.892 2.892 0 0 1 1.627-.506c2.36 0 4.506 2.845 5.613 5.007 1.507-2.44 3.984-3.986 6.93-4.284 1.492-.152 2.98.042 4.208.496.433-1.574.655-3.204.655-4.855a18.25 18.25 0 0 0-.93-5.772" fill="#005683"/><path d="M30.93 20.846c-.538.105-1.068.222-1.58.336-1.516.336-2.825.627-3.843.52-1.564-.165-2.804-.988-3.157-2.097-.25-.78-.18-2.033 1.56-3.564.024-.02.053-.04.078-.063-1.12-.365-2.3-.598-3.52-.68-1.932 1.303-4.364 2.045-5.3 1.63-.29-.13-.615-.35-.916-.66a3.893 3.893 0 0 1-.083.068c.345.324.597.777.706 1.308.22 1.075-.156 2.226-1.008 3.077-.742.742-1.677 1.168-2.564 1.168-.62 0-1.15-.216-1.548-.593a18.683 18.683 0 0 0-2.774 9.812c0 1.674.22 3.297.633 4.84 1.18.972 2.876 3.886 4.056 6.14a14.476 14.476 0 0 0 7.798 2.268c1.586 0 3.11-.257 4.54-.726-.058-.254-.118-.51-.182-.774-.657-2.746-1.402-5.858 1.225-7.608a2.892 2.892 0 0 1 1.627-.506c1.815 0 3.5 1.683 4.687 3.443a14.472 14.472 0 0 0 2.66-8.38c0-3.38-1.157-6.49-3.095-8.96" fill="#00709C"/><path d="M18.215 40.973a7.914 7.914 0 0 1-2.264-.16c-.24-2.41-.397-5.417.817-10.66 2.205 5.707 4.634 9.893 4.652 9.916-.414.196-1.67.795-3.205.903m-3.698-.608c-6.31-2.866-7.468-9.66-5.35-14.888.08 5.175 1.53 9.21 5.35 14.888m8.54-1.278c1-4.31 2.664-8.432 3.643-12.75.19-.834.353-2.132.058-3.58 2.916 4.552 2.58 11.623-3.7 16.33M10.053 23.742c2.848-4.38 8.294-7.945 14.272-3.57-.04 0-3.832.173-1.076 4.248 1.49 2.202 1.585 3.97.406 7.562-.425 1.77-.554 2.306-.933 4.13-1.82-4.345-3.304-8.044-4.476-12.774 1.03-.15 2.198-.322 1.598-.985-.075-.083-5.504.455-5.556.464-.418.07-.49.56-.492.566-.043.387.027.383 1.203.312.31 1.67.453 2.432 1.22 4.87-.554 2.3-1.127 4.68-1.205 8.363-2.474-4.922-3.464-8.34-3.653-12.613.35-.213.82-.13 1.13-.447.212-.217.315-.706.05-.762-.935-.202-1.65.46-2.488.636m8.596-6.476c-9.36.773-15.437 14.87-7.16 22.245 8.39 7.477 18.755-2.182 18.397-11.145-.278-6.948-6.035-11.348-11.237-11.1" fill="#FFF"/><path d="M31.813 42.527c-.006-.022-.01-.044-.017-.067a16.99 16.99 0 0 0-.17-.627c-.527-1.897-3.034-5.67-4.95-5.67-.293 0-.568.086-.838.266-1.677 1.117-1.338 3.14-.63 6.096.175.73.356 1.487.465 2.194.14.918.107 1.945.074 2.937-.05 1.54-.104 3.134.56 3.82.29.3.744.448 1.386.448a4.2 4.2 0 0 0 .53-.036c.05-.007.1-.016.15-.025a3.794 3.794 0 0 0 .485-.11c.114-.036.224-.076.33-.12.03-.013.062-.024.092-.038.135-.06.264-.13.384-.204l.035-.023c.105-.068.206-.14.302-.217l.082-.068a3.78 3.78 0 0 0 .224-.206l.072-.073c.08-.084.154-.17.225-.257l.025-.03c.078-.1.15-.2.217-.302l.045-.07a5.09 5.09 0 0 0 .286-.516l.054-.114c.024-.053.045-.104.067-.155a5.605 5.605 0 0 0 .186-.513 4.55 4.55 0 0 0 .123-.477.662.662 0 0 1 .02-.092c.533-1.683.747-3.1.313-5.183a15.4 15.4 0 0 0-.13-.57" fill="#FFD200"/><path d="M48.89 5.67c-2.12 0-5.156-.02-7.04-.172a2.66 2.66 0 0 0-.402-.005c.14.227.48.624 1.023 1.077l.14.116c3.698 3.153 6.483 3.815 8.168 3.815.602 0 1.184-.082 1.732-.247 2.6-.78 4.196-2.39 4.823-3.635.234-.466.282-.772.282-.916-.354-.036-1.274-.054-2.74-.054-.782 0-1.67.005-2.615.01-1.075.005-2.223.01-3.37.01" fill="#F80"/><path d="M2.8 36.78c-.537.66-.716 1.59-.503 2.617.543 2.62 5.203 7.704 8.36 8.462.24.056.46.086.65.086.492 0 .675-.193.77-.338.385-.59.167-1.87-.138-2.567-.876-1.995-3.645-7.23-5.045-8.306-.705-.543-1.464-.83-2.195-.83-.764 0-1.44.312-1.9.877M10.11 19.773c.163.868.74 1.05 1.194 1.05.598 0 1.275-.32 1.81-.856.6-.597.867-1.386.72-2.11-.094-.45-.34-.795-.658-.922a.576.576 0 0 0-.208-.032c-.574 0-1.62.516-2.313 1.35-.253.305-.66.907-.545 1.52" fill="#FFD200"/><path d="M42.852 48.065a21.488 21.488 0 0 1-3.11 1.538c-3.284 6.007-10.42 10.622-16.61 10.74-3.198.052-5.675-1.153-7.02-3.415-1.51-2.538-3.817-3.475-5.318-3.09-1.005.26-1.58 1.098-1.622 2.362-.036 1.108.943 2.587 2.62 3.956 3.012 2.462 8.182 4.44 12.938 3.315 8.22-1.945 15.606-8.296 18.122-15.405M9.702 14.122c-.05.01-.065.028-.066.028.005-.002.037.057.155.137.217.146 1.096.556 3.48-.08-.075-.553-.047-1.242.193-2.06-1.392.968-2.962 1.797-3.76 1.975" fill="#F80"/><path d="M11.304 21.888c-1.16 0-2.02-.735-2.242-1.92-.144-.77.13-1.62.773-2.395.835-1.005 2.152-1.734 3.133-1.734.22 0 .424.035.603.106.653.26 1.14.895 1.306 1.697.22 1.075-.156 2.226-1.008 3.077-.742.742-1.677 1.168-2.564 1.168zm1.664-4.985c-.574 0-1.62.516-2.313 1.35-.253.305-.66.907-.545 1.52.163.868.74 1.05 1.194 1.05.598 0 1.275-.32 1.81-.856.6-.597.867-1.386.72-2.11-.094-.45-.34-.795-.658-.922a.576.576 0 0 0-.208-.032z" fill="#000"/><path d="M48.374 14.963a24.02 24.02 0 0 0-2.174-4.588c-1.273-.62-2.705-1.535-4.283-2.88l-.127-.108c-1.745-1.452-1.504-2.116-1.426-2.334a.82.82 0 0 1 .33-.414c-2.365-1.515-5.08-2.362-8.047-2.452-7.37-.223-13.832 2.912-17.285 8.386-.944 1.497-1.27 2.858-.943 3.935.238.784.785 1.268 1.18 1.444.672.3 4.942-1.182 6.182-3.436a.534.534 0 0 1 .746-.197c2.913 1.792 6.187.973 9.026.065a.533.533 0 0 1 .62.777c1.876-.05 3.76.237 5.42.89a.532.532 0 1 1-.393.99c-4.08-1.61-9.61-.82-12.587 1.798-1.02.898-1.464 1.765-1.25 2.442.223.695 1.13 1.243 2.255 1.36.847.09 2.135-.196 3.5-.5 2.104-.466 4.49-.995 6.612-.556 3.44.712 5.723 2.775 9.177 5.897l.42.38a.532.532 0 0 1-.356.927.53.53 0 0 1-.338-.126 19.388 19.388 0 0 1-.225 9.75c.55.31 1.01.683 1.34 1.11a.532.532 0 1 1-.843.65c-.92-1.19-3.262-1.882-5.577-1.65-1.685.172-4.756.98-6.496 4.434.067.178.122.342.162.486.913 3.126.697 5.022.007 7.22-.07.37-.2.813-.397 1.274 2.344.006 6.48-.508 10.882-3.538 8.335-5.735 7.602-23.776 4.89-31.437" fill="#FFD200"/><path d="M58 4.688c-.258-.064-.87-.104-3.126-.104-.783 0-1.673.004-2.62.01-1.073.004-2.22.01-3.363.01-1.96 0-4.708-.015-6.566-.138-2.753-2.072-6.022-3.233-9.645-3.342C24.953.887 18.164 4.188 14.5 9.947c-1.41 1.39-4.12 2.933-5.03 3.136-.42.093-.738.376-.85.755-.113.385.008.805.324 1.125.29.292.89.656 2.096.656.648 0 1.473-.11 2.514-.387.392.886 1.066 1.45 1.615 1.694 1.31.583 5.575-1.107 7.255-3.44 1.3.69 2.654.955 4.024.952-.95.432-1.817.964-2.54 1.6-1.74 1.532-1.81 2.784-1.56 3.565.353 1.11 1.593 1.932 3.157 2.097 1.018.107 2.327-.184 3.842-.52 1.998-.443 4.265-.946 6.164-.553 2.825.583 4.79 2.152 7.638 4.705a18.25 18.25 0 0 1 .93 5.772c0 1.65-.22 3.28-.654 4.855-1.227-.454-2.716-.648-4.208-.496-2.946.298-5.423 1.845-6.93 4.283-1.107-2.163-3.253-5.008-5.613-5.008-.576 0-1.123.17-1.626.506-2.626 1.75-1.88 4.862-1.224 7.608.177.736.343 1.43.443 2.08.12.787.088 1.747.058 2.674-.06 1.836-.125 3.735.96 4.855.563.583 1.373.88 2.405.88 2.134 0 3.514-1.112 4.34-2.355.19.007.39.012.607.012 1.374 0 3.31-.172 5.54-.85-3.33 5.172-9.597 9.023-15.068 9.127-1.963.04-4.622-.436-6.086-2.896-1.777-2.988-4.615-4.062-6.497-3.576-1.484.382-2.366 1.606-2.423 3.357-.047 1.46 1.05 3.214 3.01 4.815 2.576 2.105 6.638 3.877 10.78 3.877 1.028 0 2.06-.11 3.078-.35 9.033-2.138 17.102-9.414 19.274-17.346 4.884-3.487 6.44-10.42 6.88-15.655.56-6.67-.476-13.294-1.752-16.897a25.98 25.98 0 0 0-1.572-3.57c1.186.398 2.186.528 2.972.528a7.1 7.1 0 0 0 2.038-.293c4.155-1.246 5.893-4.316 5.863-5.607-.012-.51-.267-.875-.68-.978zm-44.73 9.518c-2.384.637-3.263.227-3.48.08-.117-.08-.15-.138-.154-.136 0 0 .016-.017.066-.028.8-.178 2.37-1.007 3.76-1.975-.24.818-.267 1.507-.193 2.06zM31.63 48.28a.662.662 0 0 0-.02.093c-.027.144-.67 3.552-3.917 3.552-.642 0-1.095-.147-1.386-.447-.664-.687-.61-2.28-.56-3.82.033-.993.067-2.02-.074-2.938-.11-.707-.29-1.463-.465-2.194-.708-2.957-1.047-4.98.63-6.097.27-.18.545-.268.84-.268 1.914 0 4.42 3.774 4.948 5.67.824 2.825.638 4.446.005 6.45zm-6.9 15.19c-4.756 1.127-9.926-.852-12.94-3.314-1.675-1.37-2.654-2.848-2.618-3.956.04-1.264.617-2.102 1.622-2.36 1.5-.387 3.807.55 5.317 3.088 1.347 2.262 3.824 3.467 7.022 3.415 6.19-.118 13.326-4.733 16.61-10.74 1.002-.396 2.045-.902 3.11-1.538-2.516 7.11-9.9 13.46-18.122 15.406zm23.644-48.507c2.713 7.66 3.446 25.702-4.89 31.437-4.4 3.03-8.537 3.544-10.88 3.538.196-.46.327-.903.395-1.274.69-2.198.905-4.094-.008-7.22a6.004 6.004 0 0 0-.16-.486c1.74-3.455 4.81-4.262 6.495-4.433 2.315-.233 4.658.46 5.577 1.65a.532.532 0 1 0 .843-.65c-.33-.428-.79-.8-1.34-1.11a19.388 19.388 0 0 0 .225-9.75.53.53 0 0 0 .734-.05.532.532 0 0 0-.038-.752l-.42-.38c-3.455-3.122-5.738-5.185-9.178-5.897-2.123-.44-4.508.09-6.612.557-1.365.303-2.653.588-3.5.5-1.126-.118-2.032-.666-2.254-1.36-.215-.678.228-1.545 1.25-2.443 2.975-2.618 8.505-3.407 12.587-1.797a.532.532 0 1 0 .393-.99c-1.66-.654-3.543-.94-5.42-.89a.53.53 0 0 0-.62-.778c-2.838.908-6.112 1.727-9.025-.064a.534.534 0 0 0-.746.198c-1.24 2.254-5.51 3.735-6.18 3.436-.397-.176-.944-.66-1.183-1.445-.33-1.078-.002-2.44.942-3.936 3.453-5.474 9.914-8.61 17.285-8.386 2.966.09 5.682.937 8.048 2.45a.82.82 0 0 0-.33.415c-.08.218-.32.882 1.425 2.334l.127.11c1.578 1.343 3.01 2.258 4.283 2.878a24.02 24.02 0 0 1 2.174 4.588zm8.96-8.345c-.628 1.246-2.225 2.856-4.824 3.635a6.022 6.022 0 0 1-1.732.248c-1.685 0-4.47-.66-8.17-3.814l-.137-.116c-.542-.453-.883-.85-1.022-1.077a2.66 2.66 0 0 1 .403.005c1.884.153 4.92.17 7.04.17 1.147 0 2.295-.005 3.37-.01.944-.005 1.833-.01 2.614-.01 1.467 0 2.387.018 2.74.054 0 .144-.047.45-.28.916z" fill="#000"/><path d="M21.302 9.7c-.847.634-.59 1.42.355 1.537.947.118 1.02.18 1.894-.474.947-.71 1.066-1.892 0-1.774-1.064.118-1.774.354-2.248.71M18.817 10.172a1.065 1.065 0 1 1-2.13 0 1.065 1.065 0 0 1 2.13 0M31.125 7.215a1.065 1.065 0 1 1-2.13 0 1.065 1.065 0 0 1 2.13 0M11.307 49.01a3.89 3.89 0 0 1-.898-.116c-3.603-.864-8.533-6.27-9.156-9.28-.28-1.347-.023-2.592.72-3.505.658-.807 1.65-1.27 2.726-1.27.968 0 1.95.364 2.844 1.05 1.754 1.348 4.728 7.258 5.37 8.724.267.61.797 2.44.055 3.577-.246.375-.733.82-1.663.82zM4.7 35.905c-.764 0-1.44.31-1.9.876-.537.66-.716 1.59-.503 2.617.543 2.62 5.203 7.704 8.36 8.462.24.056.46.086.65.086.492 0 .675-.193.77-.338.385-.59.167-1.87-.138-2.567-.876-1.995-3.645-7.23-5.045-8.306-.705-.543-1.464-.83-2.195-.83z" fill="#000"/></g></svg>