<!DOCTYPE svg PUBLIC "-//W3C//DTD SVG 1.1//EN" "http://www.w3.org/Graphics/SVG/1.1/DTD/svg11.dtd" [
	<!ENTITY ns_flows "http://ns.adobe.com/Flows/1.0/">
]><svg xmlns="http://www.w3.org/2000/svg" xmlns:xlink="http://www.w3.org/1999/xlink" width="127" height="147" viewBox="-0.433 85.019 127 147"><path fill="none" stroke="#000" stroke-width="4.775" d="M30.333 116.38c-2.31-1.115-8.197-1.124-7.946 5.106.257 6.23 6.522 9.48 10.55 10.602 2.2.612 2.446-2.023 3.525-2.962 3.05-2.656-3.89-11.667-6.13-12.746z"/><defs><path id="a" d="M85.12 133.522H22.794s-6.99 12.346-4.59 32.35c2.397 20.008 10.823 27.97 10.823 27.97s6.94 8.355 24.79 8.355c17.845 0 25.072-8.355 25.072-8.355s9.065-7.747 10.824-27.987c1.76-20.244-4.59-32.333-4.59-32.333z"/></defs><clipPath id="b"><use xlink:href="#a" overflow="visible"/></clipPath><path clip-path="url(#b)" fill="none" stroke="#000" stroke-width="4.775" d="M38.092 141.9s-4.532 33.81 5.477 56.474M26.193 140.39c-6.99 13.788-2.644 42.685 9.254 56.66M68.69 141.9s4.532 33.81-5.48 56.474M80.588 140.39c6.986 13.788 2.643 42.685-9.256 56.66M53.39 198.94v-54.96"/><ellipse clip-path="url(#b)" fill="none" stroke="#000" stroke-width="4.775" cx="53.955" cy="137.623" rx="33.855" ry="15.258"/><g clip-path="url(#b)"><path fill="none" stroke="#000" stroke-width="4.775" d="M86.924 180.952c-1.9 8.532-16.486 16.652-32.967 16.652-17.093 0-31.2-8.556-32.12-17.41-2.553 2.136-4.002 4.555-4.002 7.123 0 8.6 16.174 15.574 36.122 15.574s36.122-6.973 36.122-15.573c0-2.27-1.134-4.42-3.156-6.365z"/><path fill="none" stroke="#000" stroke-width="4.775" d="M86.924 180.952c-1.9 8.532-16.486 16.652-32.967 16.652-17.093 0-31.2-8.556-32.12-17.41-2.553 2.136-4.002 4.555-4.002 7.123 0 8.6 16.174 15.574 36.122 15.574s36.122-6.973 36.122-15.573c0-2.27-1.134-4.42-3.156-6.365z"/><path fill="none" stroke="#000" stroke-width="4.775" d="M86.924 180.952c-1.9 8.532-16.486 16.652-32.967 16.652-17.093 0-31.2-8.556-32.12-17.41-2.553 2.136-4.002 4.555-4.002 7.123 0 8.6 16.174 15.574 36.122 15.574s36.122-6.973 36.122-15.573c0-2.27-1.134-4.42-3.156-6.365z"/></g><path fill="none" stroke="#000" stroke-width="4.775" d="M40.282 153.886c-14.72-2.418-25.816 15.607-13.713 29.36 12.27 13.932 29.56 3.92 30.017-9.13.35-10.122-8.145-18.632-16.305-20.23m-14.17 6.092c4.946-5.242 13.864-8.324 22.713.234-.063-.02-6.01-1.195-2.165 5.718 2.08 3.73 2.03 6.316-.22 11.046-.863 2.397-1.127 3.118-1.928 5.604-2.352-6.95-4.253-12.837-5.548-20.095 1.623.17 3.47.362 2.61-.815-.11-.152-8.657-1.42-8.736-1.427-.662-.055-.83.624-.835.632-.11.54 0 .56 1.846.9.298 2.523.43 3.675 1.353 7.48-1.128 3.104-2.294 6.316-2.83 11.594-3.312-8.026-4.473-13.323-4.28-19.553.57-.174 1.295.123 1.814-.22.357-.233.572-.895.17-1.08-1.443-.642-2.634.044-3.965-.02m18.586 27.02c2.052-5.84 5.12-11.153 7.14-17.003.39-1.134.793-2.945.495-5.143 4.042 7.663 2.717 17.727-7.635 22.146m-13.495-1.382c-9.538-6.507-10.575-16.732-6.677-23.472-.46 7.49 1.35 13.847 6.677 23.472m5.714 2.27c-1.266-.23-2.284-.544-3.52-1.083-.106-3.562-.008-7.957 2.482-15.057 2.8 9.06 6.123 16.007 6.147 16.045-.668.128-2.7.52-5.11.096M85.12 133.522c0 7.758-13.952 14.045-31.163 14.045-17.213 0-31.164-6.287-31.164-14.045 0-7.753 13.95-14.042 31.164-14.042 17.21 0 31.164 6.29 31.164 14.042z"/><defs><path id="c" d="M81.33 134.71c0 6.14-12.255 11.114-27.373 11.114-15.117 0-27.372-4.976-27.372-11.113 0-6.14 12.255-11.114 27.372-11.114 15.118 0 27.372 4.974 27.372 11.115z"/></defs><clipPath id="d"><use xlink:href="#c" overflow="visible"/></clipPath><g clip-path="url(#d)" fill="none" stroke="#000" stroke-width="4.775"><path d="M26.004 135.562l28.518-13.035M30.727 140.658l36.828-16.43M39.79 145.007l37.776-16.813M53.39 146.894l29.465-13.032"/></g><defs><path id="e" d="M85.12 133.522H22.794s-6.99 12.346-4.59 32.35c2.397 20.008 10.823 27.97 10.823 27.97s6.94 8.355 24.79 8.355c17.845 0 25.072-8.355 25.072-8.355s9.065-7.747 10.824-27.987c1.76-20.244-4.59-32.333-4.59-32.333z"/></defs><clipPath id="f"><use xlink:href="#e" overflow="visible"/></clipPath><path clip-path="url(#f)" fill="none" stroke="#000" stroke-width="4.775" d="M38.092 141.9s-4.532 33.81 5.477 56.474M26.193 140.39c-6.99 13.788-2.644 42.685 9.254 56.66M68.69 141.9s4.532 33.81-5.48 56.474M80.588 140.39c6.986 13.788 2.643 42.685-9.256 56.66M53.39 198.94v-54.96"/><ellipse clip-path="url(#f)" fill="none" stroke="#000" stroke-width="4.775" cx="53.955" cy="137.623" rx="33.855" ry="15.258"/><g clip-path="url(#f)"><path fill="none" stroke="#000" stroke-width="4.775" d="M86.924 180.952c-1.9 8.532-16.486 16.652-32.967 16.652-17.093 0-31.2-8.556-32.12-17.41-2.553 2.136-4.002 4.555-4.002 7.123 0 8.6 16.174 15.574 36.122 15.574s36.122-6.973 36.122-15.573c0-2.27-1.134-4.42-3.156-6.365z"/><path fill="none" stroke="#000" stroke-width="4.775" d="M86.924 180.952c-1.9 8.532-16.486 16.652-32.967 16.652-17.093 0-31.2-8.556-32.12-17.41-2.553 2.136-4.002 4.555-4.002 7.123 0 8.6 16.174 15.574 36.122 15.574s36.122-6.973 36.122-15.573c0-2.27-1.134-4.42-3.156-6.365z"/><path fill="none" stroke="#000" stroke-width="4.775" d="M86.924 180.952c-1.9 8.532-16.486 16.652-32.967 16.652-17.093 0-31.2-8.556-32.12-17.41-2.553 2.136-4.002 4.555-4.002 7.123 0 8.6 16.174 15.574 36.122 15.574s36.122-6.973 36.122-15.573c0-2.27-1.134-4.42-3.156-6.365z"/></g><path fill="none" stroke="#000" stroke-width="4.775" d="M40.282 153.886c-14.72-2.418-25.816 15.607-13.713 29.36 12.27 13.932 29.56 3.92 30.017-9.13.35-10.122-8.145-18.632-16.305-20.23m-14.17 6.092c4.946-5.242 13.864-8.324 22.713.234-.063-.02-6.01-1.195-2.165 5.718 2.08 3.73 2.03 6.316-.22 11.046-.863 2.397-1.127 3.118-1.928 5.604-2.352-6.95-4.253-12.837-5.548-20.095 1.623.17 3.47.362 2.61-.815-.11-.152-8.657-1.42-8.736-1.427-.662-.055-.83.624-.835.632-.11.54 0 .56 1.846.9.298 2.523.43 3.675 1.353 7.48-1.128 3.104-2.294 6.316-2.83 11.594-3.312-8.026-4.473-13.323-4.28-19.553.57-.174 1.295.123 1.814-.22.357-.233.572-.895.17-1.08-1.443-.642-2.634.044-3.965-.02m18.586 27.02c2.052-5.84 5.12-11.153 7.14-17.003.39-1.134.793-2.945.495-5.143 4.042 7.663 2.717 17.727-7.635 22.146m-13.495-1.382c-9.538-6.507-10.575-16.732-6.677-23.472-.46 7.49 1.35 13.847 6.677 23.472m5.714 2.27c-1.266-.23-2.284-.544-3.52-1.083-.106-3.562-.008-7.957 2.482-15.057 2.8 9.06 6.123 16.007 6.147 16.045-.668.128-2.7.52-5.11.096M85.12 133.522c0 7.758-13.952 14.045-31.163 14.045-17.213 0-31.164-6.287-31.164-14.045 0-7.753 13.95-14.042 31.164-14.042 17.21 0 31.164 6.29 31.164 14.042z"/><defs><path id="g" d="M81.33 134.71c0 6.14-12.255 11.114-27.373 11.114-15.117 0-27.372-4.976-27.372-11.113 0-6.14 12.255-11.114 27.372-11.114 15.118 0 27.372 4.974 27.372 11.115z"/></defs><clipPath id="h"><use xlink:href="#g" overflow="visible"/></clipPath><g clip-path="url(#h)" fill="none" stroke="#000" stroke-width="4.775"><path d="M26.004 135.562l28.518-13.035M30.727 140.658l36.828-16.43M39.79 145.007l37.776-16.813M53.39 146.894l29.465-13.032"/></g><defs><path id="i" d="M85.12 133.522H22.794s-6.99 12.346-4.59 32.35c2.397 20.008 10.823 27.97 10.823 27.97s6.94 8.355 24.79 8.355c17.845 0 25.072-8.355 25.072-8.355s9.065-7.747 10.824-27.987c1.76-20.244-4.59-32.333-4.59-32.333z"/></defs><clipPath id="j"><use xlink:href="#i" overflow="visible"/></clipPath><path clip-path="url(#j)" fill="none" stroke="#000" stroke-width="4.775" d="M38.092 141.9s-4.532 33.81 5.477 56.474M26.193 140.39c-6.99 13.788-2.644 42.685 9.254 56.66M68.69 141.9s4.532 33.81-5.48 56.474M80.588 140.39c6.986 13.788 2.643 42.685-9.256 56.66M53.39 198.94v-54.96"/><ellipse clip-path="url(#j)" fill="none" stroke="#000" stroke-width="4.775" cx="53.955" cy="137.623" rx="33.855" ry="15.258"/><g clip-path="url(#j)"><path fill="none" stroke="#000" stroke-width="4.775" d="M86.924 180.952c-1.9 8.532-16.486 16.652-32.967 16.652-17.093 0-31.2-8.556-32.12-17.41-2.553 2.136-4.002 4.555-4.002 7.123 0 8.6 16.174 15.574 36.122 15.574s36.122-6.973 36.122-15.573c0-2.27-1.134-4.42-3.156-6.365z"/><path fill="none" stroke="#000" stroke-width="4.775" d="M86.924 180.952c-1.9 8.532-16.486 16.652-32.967 16.652-17.093 0-31.2-8.556-32.12-17.41-2.553 2.136-4.002 4.555-4.002 7.123 0 8.6 16.174 15.574 36.122 15.574s36.122-6.973 36.122-15.573c0-2.27-1.134-4.42-3.156-6.365z"/><path fill="none" stroke="#000" stroke-width="4.775" d="M86.924 180.952c-1.9 8.532-16.486 16.652-32.967 16.652-17.093 0-31.2-8.556-32.12-17.41-2.553 2.136-4.002 4.555-4.002 7.123 0 8.6 16.174 15.574 36.122 15.574s36.122-6.973 36.122-15.573c0-2.27-1.134-4.42-3.156-6.365z"/></g><path fill="none" stroke="#000" stroke-width="4.775" d="M40.282 153.886c-14.72-2.418-25.816 15.607-13.713 29.36 12.27 13.932 29.56 3.92 30.017-9.13.35-10.122-8.145-18.632-16.305-20.23m-14.17 6.092c4.946-5.242 13.864-8.324 22.713.234-.063-.02-6.01-1.195-2.165 5.718 2.08 3.73 2.03 6.316-.22 11.046-.863 2.397-1.127 3.118-1.928 5.604-2.352-6.95-4.253-12.837-5.548-20.095 1.623.17 3.47.362 2.61-.815-.11-.152-8.657-1.42-8.736-1.427-.662-.055-.83.624-.835.632-.11.54 0 .56 1.846.9.298 2.523.43 3.675 1.353 7.48-1.128 3.104-2.294 6.316-2.83 11.594-3.312-8.026-4.473-13.323-4.28-19.553.57-.174 1.295.123 1.814-.22.357-.233.572-.895.17-1.08-1.443-.642-2.634.044-3.965-.02m18.586 27.02c2.052-5.84 5.12-11.153 7.14-17.003.39-1.134.793-2.945.495-5.143 4.042 7.663 2.717 17.727-7.635 22.146m-13.495-1.382c-9.538-6.507-10.575-16.732-6.677-23.472-.46 7.49 1.35 13.847 6.677 23.472m5.714 2.27c-1.266-.23-2.284-.544-3.52-1.083-.106-3.562-.008-7.957 2.482-15.057 2.8 9.06 6.123 16.007 6.147 16.045-.668.128-2.7.52-5.11.096M85.12 133.522c0 7.758-13.952 14.045-31.163 14.045-17.213 0-31.164-6.287-31.164-14.045 0-7.753 13.95-14.042 31.164-14.042 17.21 0 31.164 6.29 31.164 14.042z"/><defs><path id="k" d="M81.33 134.71c0 6.14-12.255 11.114-27.373 11.114-15.117 0-27.372-4.976-27.372-11.113 0-6.14 12.255-11.114 27.372-11.114 15.118 0 27.372 4.974 27.372 11.115z"/></defs><clipPath id="l"><use xlink:href="#k" overflow="visible"/></clipPath><g clip-path="url(#l)" fill="none" stroke="#000" stroke-width="4.775"><path d="M26.004 135.562l28.518-13.035M30.727 140.658l36.828-16.43M39.79 145.007l37.776-16.813M53.39 146.894l29.465-13.032"/></g><path fill="none" stroke="#000" stroke-width="4.775" d="M88.098 195.89c-5.116 15.18-22.067 28.825-40.434 31.86-15.806 2.603-32.245-10.59-31.5-17.95.847-8.285 11.244-7.11 15.867 2.05 7.086 14.035 35.162 6.49 46.684-11.59l9.384-4.37zM33.535 129.943c-.11.07-.22.146-.33.222.16-.05.32-.09.48-.136-.05-.033-.1-.053-.15-.087zM44.093 129.06c-.16-.01-.316-.033-.478-.044a29.31 29.31 0 0 0-9.93 1.014c3.78 2.215 7.29.96 10.408-.97z"/><path fill="none" stroke="#000" stroke-width="4.775" d="M61.76 201.44c5.766.92 15.373.503 25.473-5.467 18.22-10.776 19.08-47.9 14.68-63.742-4.404-15.836-15.098-27.09-30.758-28.652-15.663-1.556-29.222 4.436-36.875 14.9-5.16 7.058-1.98 11.33.097 12.43 2.073 1.103 11.356-1.843 14.306-6.42 5.918 4.23 12.928 3.045 19.006 1.556l11.187 4.12c-8.795-4.197-20.356-2.844-26.665 1.975-6.308 4.82-2.525 8.91 1.962 9.695 4.485.787 13.557-2.65 20.362-.744 6.796 1.904 8.74 4.578 15.653 11.747 0 0 1.784 15.642-2.688 21.566-6.73-4.53-18.584-.014-22.947 8.356l-2.795 18.68z"/><path fill="none" stroke="#000" stroke-width="4.775" d="M87.915 175.545a1.073 1.073 0 0 1-.927-1.447 36.934 36.934 0 0 0 2.244-10.393c.275-3.977-.09-7.93-1.072-11.753a1.07 1.07 0 0 1 .77-1.306 1.07 1.07 0 0 1 1.307.77 38.846 38.846 0 0 1 1.135 12.436 38.97 38.97 0 0 1-2.376 10.996c-.172.46-.62.725-1.08.695z"/><path fill="none" stroke="#000" stroke-width="4.775" d="M65.795 183.238a1.074 1.074 0 0 1-.856-1.61c3.274-5.66 8.947-9.026 15.557-9.24 5.453-.172 10.73 1.904 12.833 5.045.33.498.195 1.163-.297 1.49-.497.328-1.164.198-1.486-.294-1.688-2.524-6.294-4.243-10.983-4.1-3.437.117-9.8 1.32-13.767 8.174a1.08 1.08 0 0 1-1.002.534z"/><path fill="none" stroke="#000" stroke-width="4.775" d="M65.12 202.718a28.572 28.572 0 0 1-2.66-.303 1.07 1.07 0 0 1-.893-1.222 1.08 1.08 0 0 1 1.23-.89c3.732.584 13.607 1.255 24.756-5.337 17.546-10.37 18.58-46.75 14.193-62.527-4.525-16.277-15.402-26.44-29.834-27.876-14.78-1.473-28.2 3.938-35.903 14.463-2.104 2.88-2.946 5.57-2.44 7.785.367 1.61 1.405 2.658 2.178 3.065 1.303.696 10.09-1.69 12.897-6.05.16-.25.41-.418.695-.473.295-.055.59.007.826.178 5.605 4.01 12.305 2.818 18.132 1.39a1.07 1.07 0 0 1 .51 2.08c-6.426 1.578-13.162 2.51-19.012-1.135-3.696 4.458-12.5 7.26-15.055 5.904-1.227-.65-2.73-2.163-3.264-4.48-.454-1.98-.338-5.238 2.804-9.526 8.154-11.15 22.298-16.885 37.845-15.33 15.36 1.53 26.914 12.253 31.683 29.43 2.067 7.422 3.225 20.88 1.173 34.218-1.628 10.576-5.784 24.5-16.336 30.736-9.686 5.728-18.508 6.246-23.523 5.9z"/><path fill="none" stroke="#000" stroke-width="4.775" d="M90.113 111.438c-4.253-.64-1.152 2.788.192 4.08 1.344 1.285 10.93 11.268 20.644 9.07 9.71-2.196 13.105-9.845 11.233-10.453-1.87-.61-23.32-1.374-32.07-2.697z"/><path fill="none" stroke="#000" stroke-width="4.775" d="M89.14 112.435c.253.475.876 1.32 1.905 2.307l.26.25c7 6.857 12.503 8.573 15.892 8.807 1.21.083 2.388-.004 3.517-.255 5.33-1.204 8.758-4.224 10.19-6.64.537-.908.68-1.517.7-1.802-.71-.126-2.556-.286-5.503-.49-1.57-.11-3.354-.222-5.256-.348-2.157-.138-4.466-.287-6.768-.445-4.26-.294-10.365-.75-14.124-1.316a4.536 4.536 0 0 0-.81-.07zm17.91 13.503c-3.747-.26-9.778-2.106-17.245-9.414l-.24-.23c-3.305-3.168-2.73-4.47-2.54-4.895.358-.82 1.23-1.19 2.563-1.098.21.015.432.04.683.077 3.688.554 9.73 1.006 13.955 1.3 2.296.156 4.598.304 6.756.447 1.91.12 3.698.234 5.27.34 4.53.315 5.758.48 6.265.648.816.267 1.277 1.037 1.23 2.057-.116 2.604-4.036 8.535-12.56 10.46-1.332.304-2.72.405-4.136.306zM48.072 118.093c-1.793 1.16-1.384 2.77.5 3.14 1.886.374 2.024.504 3.87-.688 2.003-1.294 2.402-3.654.246-3.567-2.156.092-3.618.464-4.616 1.115zM43.01 118.696a2.138 2.138 0 0 1-2.282 1.993 2.14 2.14 0 0 1-1.994-2.29 2.14 2.14 0 0 1 2.29-1.987 2.14 2.14 0 0 1 1.986 2.283zM68.158 114.46a2.144 2.144 0 0 1-2.29 1.993 2.14 2.14 0 0 1-1.992-2.288 2.14 2.14 0 0 1 2.29-1.988 2.145 2.145 0 0 1 1.992 2.284zM41.604 229.08c-8.322-.572-16.245-4.7-21.127-9.295-3.712-3.487-5.673-7.167-5.38-10.1.36-3.51 2.302-5.85 5.334-6.41 3.853-.714 9.41 1.838 12.558 8.09 2.603 5.15 7.882 6.482 11.832 6.667 11.77.587 25.95-7.297 32.99-18.347a1.073 1.073 0 1 1 1.81 1.154c-7.42 11.647-22.43 19.962-34.91 19.337-6.43-.338-11.24-3.108-13.632-7.842-2.682-5.315-7.19-7.517-10.26-6.95-2.055.38-3.33 1.986-3.584 4.52-.23 2.23 1.534 5.332 4.71 8.323 5.713 5.368 15.827 10.062 25.543 8.464C65.347 223.744 82 210.646 87.08 195.55c.19-.562.795-.867 1.36-.678.56.19.863.8.674 1.36-5.32 15.81-22.68 29.504-41.277 32.575-2.074.34-4.17.418-6.233.274zM93.26 155.748a1.104 1.104 0 0 1-.7-.328l-.795-.824c-6.484-6.733-10.4-10.805-16.653-12.554-3.762-1.053-8.385-.355-12.462.256-3.1.47-5.763.872-7.796.513-3.12-.546-5.5-2.374-6.052-4.65-.394-1.607-.082-4.116 3.625-6.95 6.928-5.298 19.132-6.218 27.78-2.1a1.073 1.073 0 1 1-.93 1.937c-7.978-3.807-19.2-2.987-25.543 1.866-2.176 1.66-3.188 3.345-2.85 4.736.352 1.43 2.096 2.653 4.34 3.047 1.692.296 4.322-.102 7.103-.52 4.293-.648 9.164-1.382 13.367-.2 6.813 1.91 11.115 6.372 17.62 13.133l.796.823a1.07 1.07 0 0 1-.03 1.513 1.08 1.08 0 0 1-.82.302zM16.074 169.646c-5.502-4.867-12.333-1.33-11.388 5.667.783 5.746 9.632 16.934 16.368 19.05 5.85 1.837 5.087-4.656 4.297-6.868-1.398-3.92-6.35-15.257-9.276-17.85z"/><path fill="none" stroke="#000" stroke-width="4.775" d="M11.067 168.48c-1.536-.107-2.937.426-3.942 1.495-1.166 1.252-1.66 3.097-1.376 5.193.727 5.347 9.386 16.21 15.623 18.174.482.15.915.236 1.296.262.99.07 1.384-.29 1.594-.57.858-1.127.595-3.734.08-5.177-1.477-4.138-6.323-15.044-8.978-17.41-1.345-1.182-2.83-1.866-4.3-1.968zm11.454 27.268a7.947 7.947 0 0 1-1.785-.36c-7.12-2.24-16.273-13.79-17.11-19.933-.37-2.743.32-5.21 1.938-6.943 1.436-1.527 3.49-2.32 5.655-2.173 1.943.134 3.87 1.002 5.568 2.506 3.334 2.956 8.49 15.247 9.58 18.285.45 1.263 1.26 5.02-.39 7.203-.543.715-1.583 1.545-3.455 1.415zM64.8 197.63s-2.003 8.223-9.856 7.68c-7.844-.542-3.86-9.826-4.38-16.073-.525-6.248-3.77-14.598 2.196-18.007 5.974-3.41 12.096 8.243 12.992 12.603 1.27 5.824.787 9.376-.953 13.796z"/><path fill="none" stroke="#000" stroke-width="4.775" d="M55.197 172.046c-.594-.043-1.155.098-1.723.425-3.528 2.01-3.13 6.126-2.115 12.172.25 1.492.507 3.036.628 4.472.16 1.87-.053 3.93-.258 5.915-.318 3.097-.645 6.288.597 7.764.54.643 1.435 1.003 2.715 1.09 6.528.45 8.298-6.31 8.37-6.6.014-.056.03-.12.053-.178 1.55-3.943 2.156-7.176.89-12.965-.794-3.892-5.314-11.828-9.158-12.094zm-.35 34.69c-2.07-.142-3.66-.848-4.71-2.102-2.022-2.4-1.632-6.212-1.257-9.895.193-1.86.39-3.784.257-5.39-.11-1.314-.347-2.736-.596-4.24-.94-5.61-2.007-11.973 3.516-15.13 1.06-.603 2.18-.864 3.34-.786 6.2.43 10.983 10.567 11.757 14.352 1.396 6.415.702 10.192-.99 14.517-.833 3.274-4.225 9.164-11.317 8.674zM33.535 128.79c-.11.07-.22.147-.33.222.16-.047.32-.088.48-.135-.05-.032-.1-.054-.15-.087zM26.577 131.5c-.115.088-.234.186-.352.274.176-.064.352-.122.53-.187-.06-.033-.117-.052-.178-.086zM6.756 96.49c-7.993 9.64-2.974 21.044-.89 24.395 1.457 2.346 1.535 4.63.396 6.38-.664 1.02-.193 2.38.99 2.663l8.638 2.086a1.734 1.734 0 0 0 2.14-1.84c-.153-1.662.362-3.894 3.186-5.978 5.41-4 11.684-8.944 10.043-22.172L6.755 96.49z"/><path fill="none" stroke="#000" stroke-width="4.775" d="M7.935 98.807c-4.637 5.688-3.814 21.007 4.428 23.438 8.24 2.433 16.476-5.35 16.932-17.418.455-12.07-21.36-6.02-21.36-6.02z"/><path fill="none" stroke="#000" stroke-width="4.775" d="M25.71 92.12c-17.887-6.66-19.72-3.228-20.322.82-.606 4.053 6.67 11.855 12.86 5.463 4.566 6.545 16.862 9.65 17.476 2.522 5.765 1.52 8.782-.784 6.225-3.823-2.56-3.038-16.24-4.982-16.24-4.982zM50.975 93.164c-2.568.12-2.564 5.257 1.225 4.52 3.787-.737 1.342-4.644-1.225-4.52z"/><path fill="#FFD200" stroke="#000" stroke-width="2.777" stroke-linecap="round" stroke-linejoin="round" stroke-miterlimit="10" d="M30.333 116.38c-2.31-1.115-8.197-1.124-7.946 5.106.257 6.23 6.522 9.48 10.55 10.602 2.2.612 2.446-2.023 3.525-2.962 3.05-2.656-3.89-11.667-6.13-12.746z"/><defs><path id="m" d="M85.12 133.522H22.794s-6.99 12.346-4.59 32.35c2.397 20.008 10.823 27.97 10.823 27.97s6.94 8.355 24.79 8.355c17.845 0 25.072-8.355 25.072-8.355s9.065-7.747 10.824-27.987c1.76-20.244-4.59-32.333-4.59-32.333z"/></defs><defs><path id="n" d="M81.33 134.71c0 6.14-12.255 11.114-27.373 11.114-15.117 0-27.372-4.976-27.372-11.113 0-6.14 12.255-11.114 27.372-11.114 15.118 0 27.372 4.974 27.372 11.115z"/></defs><defs><path id="o" d="M85.12 133.522H22.794s-6.99 12.346-4.59 32.35c2.397 20.008 10.823 27.97 10.823 27.97s6.94 8.355 24.79 8.355c17.845 0 25.072-8.355 25.072-8.355s9.065-7.747 10.824-27.987c1.76-20.244-4.59-32.333-4.59-32.333z"/></defs><use xlink:href="#o" overflow="visible" fill="#A06323"/><clipPath id="p"><use xlink:href="#o" overflow="visible"/></clipPath><path clip-path="url(#p)" fill="none" stroke="#7E4D18" stroke-width="2.03" stroke-linecap="round" stroke-linejoin="round" stroke-miterlimit="10" d="M38.092 141.9s-4.532 33.81 5.477 56.474M26.193 140.39c-6.99 13.788-2.644 42.685 9.254 56.66M68.69 141.9s4.532 33.81-5.48 56.474M80.588 140.39c6.986 13.788 2.643 42.685-9.256 56.66"/><path clip-path="url(#p)" fill="#A06323" stroke="#7E4D18" stroke-width="2.03" stroke-linecap="round" stroke-linejoin="round" stroke-miterlimit="10" d="M53.39 198.94v-54.96"/><ellipse clip-path="url(#p)" fill="#7E4D18" stroke="#000" stroke-width="2.03" stroke-linecap="round" stroke-linejoin="round" stroke-miterlimit="10" cx="53.955" cy="137.623" rx="33.855" ry="15.258"/><g clip-path="url(#p)"><path fill="#7E4D18" d="M86.924 180.952c-1.9 8.532-16.486 16.652-32.967 16.652-17.093 0-31.2-8.556-32.12-17.41-2.553 2.136-4.002 4.555-4.002 7.123 0 8.6 16.174 15.574 36.122 15.574s36.122-6.973 36.122-15.573c0-2.27-1.134-4.42-3.156-6.365z"/><path fill="none" stroke="#000" stroke-width="2.208" stroke-linecap="round" stroke-linejoin="round" stroke-miterlimit="10" d="M86.924 180.952c-1.9 8.532-16.486 16.652-32.967 16.652-17.093 0-31.2-8.556-32.12-17.41-2.553 2.136-4.002 4.555-4.002 7.123 0 8.6 16.174 15.574 36.122 15.574s36.122-6.973 36.122-15.573c0-2.27-1.134-4.42-3.156-6.365z"/></g><use xlink:href="#o" overflow="visible" fill="none" stroke="#000" stroke-width="3.183" stroke-linecap="round" stroke-linejoin="round" stroke-miterlimit="10"/><path fill="#FFF" d="M40.282 153.886c-14.72-2.418-25.816 15.607-13.713 29.36 12.27 13.932 29.56 3.92 30.017-9.13.35-10.122-8.145-18.632-16.305-20.23m-14.17 6.092c4.946-5.242 13.864-8.324 22.713.234-.063-.02-6.01-1.195-2.165 5.718 2.08 3.73 2.03 6.316-.22 11.046-.863 2.397-1.127 3.118-1.928 5.604-2.352-6.95-4.253-12.837-5.548-20.095 1.623.17 3.47.362 2.61-.815-.11-.152-8.657-1.42-8.736-1.427-.662-.055-.83.624-.835.632-.11.54 0 .56 1.846.9.298 2.523.43 3.675 1.353 7.48-1.128 3.104-2.294 6.316-2.83 11.594-3.312-8.026-4.473-13.323-4.28-19.553.57-.174 1.295.123 1.814-.22.357-.233.572-.895.17-1.08-1.443-.642-2.634.044-3.965-.02m18.586 27.02c2.052-5.84 5.12-11.153 7.14-17.003.39-1.134.793-2.945.495-5.143 4.042 7.663 2.717 17.727-7.635 22.146m-13.495-1.382c-9.538-6.507-10.575-16.732-6.677-23.472-.46 7.49 1.35 13.847 6.677 23.472m5.714 2.27c-1.266-.23-2.284-.544-3.52-1.083-.106-3.562-.008-7.957 2.482-15.057 2.8 9.06 6.123 16.007 6.147 16.045-.668.128-2.7.52-5.11.096"/><path fill="#A06323" stroke="#000" stroke-width="3.183" stroke-linecap="round" stroke-linejoin="round" stroke-miterlimit="10" d="M85.12 133.522c0 7.758-13.952 14.045-31.163 14.045-17.213 0-31.164-6.287-31.164-14.045 0-7.753 13.95-14.042 31.164-14.042 17.21 0 31.164 6.29 31.164 14.042z"/><g><defs><path id="q" d="M81.33 134.71c0 6.14-12.255 11.114-27.373 11.114-15.117 0-27.372-4.976-27.372-11.113 0-6.14 12.255-11.114 27.372-11.114 15.118 0 27.372 4.974 27.372 11.115z"/></defs><use xlink:href="#q" overflow="visible" fill="#7E4D18"/><clipPath id="r"><use xlink:href="#q" overflow="visible"/></clipPath><g clip-path="url(#r)" fill="none" stroke="#A06323" stroke-width="2.03" stroke-linecap="round" stroke-linejoin="round" stroke-miterlimit="10"><path d="M26.004 135.562l28.518-13.035M30.727 140.658l36.828-16.43M39.79 145.007l37.776-16.813M53.39 146.894l29.465-13.032"/></g></g><g><defs><path id="s" d="M85.12 133.522H22.794s-6.99 12.346-4.59 32.35c2.397 20.008 10.823 27.97 10.823 27.97s6.94 8.355 24.79 8.355c17.845 0 25.072-8.355 25.072-8.355s9.065-7.747 10.824-27.987c1.76-20.244-4.59-32.333-4.59-32.333z"/></defs></g><g><defs><path id="t" d="M81.33 134.71c0 6.14-12.255 11.114-27.373 11.114-15.117 0-27.372-4.976-27.372-11.113 0-6.14 12.255-11.114 27.372-11.114 15.118 0 27.372 4.974 27.372 11.115z"/></defs></g><path fill="#F80" d="M88.098 195.89c-5.116 15.18-22.067 28.825-40.434 31.86-15.806 2.603-32.245-10.59-31.5-17.95.847-8.285 11.244-7.11 15.867 2.05 7.086 14.035 35.162 6.49 46.684-11.59l9.384-4.37z"/><path fill="#57A1BE" d="M33.535 129.943c-.11.07-.22.146-.33.222.16-.05.32-.09.48-.136-.05-.033-.1-.053-.15-.087zM44.093 129.06c-.16-.01-.316-.033-.478-.044a29.31 29.31 0 0 0-9.93 1.014c3.78 2.215 7.29.96 10.408-.97z"/><path fill="#FFD200" d="M61.76 201.44c5.766.92 15.373.503 25.473-5.467 18.22-10.776 19.08-47.9 14.68-63.742-4.404-15.836-15.098-27.09-30.758-28.652-15.663-1.556-29.222 4.436-36.875 14.9-5.16 7.058-1.98 11.33.097 12.43 2.073 1.103 11.356-1.843 14.306-6.42 5.918 4.23 12.928 3.045 19.006 1.556l11.187 4.12c-8.795-4.197-20.356-2.844-26.665 1.975-6.308 4.82-2.525 8.91 1.962 9.695 4.485.787 13.557-2.65 20.362-.744 6.796 1.904 8.74 4.578 15.653 11.747 0 0 1.784 15.642-2.688 21.566-6.73-4.53-18.584-.014-22.947 8.356l-2.795 18.68z"/><path d="M87.915 175.545a1.073 1.073 0 0 1-.927-1.447 36.934 36.934 0 0 0 2.244-10.393c.275-3.977-.09-7.93-1.072-11.753a1.07 1.07 0 0 1 .77-1.306 1.07 1.07 0 0 1 1.307.77 38.846 38.846 0 0 1 1.135 12.436 38.97 38.97 0 0 1-2.376 10.996c-.172.46-.62.725-1.08.695z"/><path d="M65.795 183.238a1.074 1.074 0 0 1-.856-1.61c3.274-5.66 8.947-9.026 15.557-9.24 5.453-.172 10.73 1.904 12.833 5.045.33.498.195 1.163-.297 1.49-.497.328-1.164.198-1.486-.294-1.688-2.524-6.294-4.243-10.983-4.1-3.437.117-9.8 1.32-13.767 8.174a1.08 1.08 0 0 1-1.002.534z"/><path d="M65.12 202.718a28.572 28.572 0 0 1-2.66-.303 1.07 1.07 0 0 1-.893-1.222 1.08 1.08 0 0 1 1.23-.89c3.732.584 13.607 1.255 24.756-5.337 17.546-10.37 18.58-46.75 14.193-62.527-4.525-16.277-15.402-26.44-29.834-27.876-14.78-1.473-28.2 3.938-35.903 14.463-2.104 2.88-2.946 5.57-2.44 7.785.367 1.61 1.405 2.658 2.178 3.065 1.303.696 10.09-1.69 12.897-6.05.16-.25.41-.418.695-.473.295-.055.59.007.826.178 5.605 4.01 12.305 2.818 18.132 1.39a1.07 1.07 0 0 1 .51 2.08c-6.426 1.578-13.162 2.51-19.012-1.135-3.696 4.458-12.5 7.26-15.055 5.904-1.227-.65-2.73-2.163-3.264-4.48-.454-1.98-.338-5.238 2.804-9.526 8.154-11.15 22.298-16.885 37.845-15.33 15.36 1.53 26.914 12.253 31.683 29.43 2.067 7.422 3.225 20.88 1.173 34.218-1.628 10.576-5.784 24.5-16.336 30.736-9.686 5.728-18.508 6.246-23.523 5.9z"/><path fill="#F80" d="M90.113 111.438c-4.253-.64-1.152 2.788.192 4.08 1.344 1.285 10.93 11.268 20.644 9.07 9.71-2.196 13.105-9.845 11.233-10.453-1.87-.61-23.32-1.374-32.07-2.697z"/><path d="M89.14 112.435c.253.475.876 1.32 1.905 2.307l.26.25c7 6.857 12.503 8.573 15.892 8.807 1.21.083 2.388-.004 3.517-.255 5.33-1.204 8.758-4.224 10.19-6.64.537-.908.68-1.517.7-1.802-.71-.126-2.556-.286-5.503-.49-1.57-.11-3.354-.222-5.256-.348-2.157-.138-4.466-.287-6.768-.445-4.26-.294-10.365-.75-14.124-1.316a4.536 4.536 0 0 0-.81-.07zm17.91 13.503c-3.747-.26-9.778-2.106-17.245-9.414l-.24-.23c-3.305-3.168-2.73-4.47-2.54-4.895.358-.82 1.23-1.19 2.563-1.098.21.015.432.04.683.077 3.688.554 9.73 1.006 13.955 1.3 2.296.156 4.598.304 6.756.447 1.91.12 3.698.234 5.27.34 4.53.315 5.758.48 6.265.648.816.267 1.277 1.037 1.23 2.057-.116 2.604-4.036 8.535-12.56 10.46-1.332.304-2.72.405-4.136.306zM48.072 118.093c-1.793 1.16-1.384 2.77.5 3.14 1.886.374 2.024.504 3.87-.688 2.003-1.294 2.402-3.654.246-3.567-2.156.092-3.618.464-4.616 1.115zM43.01 118.696a2.138 2.138 0 0 1-2.282 1.993 2.14 2.14 0 0 1-1.994-2.29 2.14 2.14 0 0 1 2.29-1.987 2.14 2.14 0 0 1 1.986 2.283zM68.158 114.46a2.144 2.144 0 0 1-2.29 1.993 2.14 2.14 0 0 1-1.992-2.288 2.14 2.14 0 0 1 2.29-1.988 2.145 2.145 0 0 1 1.992 2.284zM41.604 229.08c-8.322-.572-16.245-4.7-21.127-9.295-3.712-3.487-5.673-7.167-5.38-10.1.36-3.51 2.302-5.85 5.334-6.41 3.853-.714 9.41 1.838 12.558 8.09 2.603 5.15 7.882 6.482 11.832 6.667 11.77.587 25.95-7.297 32.99-18.347a1.073 1.073 0 1 1 1.81 1.154c-7.42 11.647-22.43 19.962-34.91 19.337-6.43-.338-11.24-3.108-13.632-7.842-2.682-5.315-7.19-7.517-10.26-6.95-2.055.38-3.33 1.986-3.584 4.52-.23 2.23 1.534 5.332 4.71 8.323 5.713 5.368 15.827 10.062 25.543 8.464C65.347 223.744 82 210.646 87.08 195.55c.19-.562.795-.867 1.36-.678.56.19.863.8.674 1.36-5.32 15.81-22.68 29.504-41.277 32.575-2.074.34-4.17.418-6.233.274zM93.26 155.748a1.104 1.104 0 0 1-.7-.328l-.795-.824c-6.484-6.733-10.4-10.805-16.653-12.554-3.762-1.053-8.385-.355-12.462.256-3.1.47-5.763.872-7.796.513-3.12-.546-5.5-2.374-6.052-4.65-.394-1.607-.082-4.116 3.625-6.95 6.928-5.298 19.132-6.218 27.78-2.1a1.073 1.073 0 1 1-.93 1.937c-7.978-3.807-19.2-2.987-25.543 1.866-2.176 1.66-3.188 3.345-2.85 4.736.352 1.43 2.096 2.653 4.34 3.047 1.692.296 4.322-.102 7.103-.52 4.293-.648 9.164-1.382 13.367-.2 6.813 1.91 11.115 6.372 17.62 13.133l.796.823a1.07 1.07 0 0 1-.03 1.513 1.08 1.08 0 0 1-.82.302z"/><path fill="#FFD200" d="M16.074 169.646c-5.502-4.867-12.333-1.33-11.388 5.667.783 5.746 9.632 16.934 16.368 19.05 5.85 1.837 5.087-4.656 4.297-6.868-1.398-3.92-6.35-15.257-9.276-17.85z"/><path d="M11.067 168.48c-1.536-.107-2.937.426-3.942 1.495-1.166 1.252-1.66 3.097-1.376 5.193.727 5.347 9.386 16.21 15.623 18.174.482.15.915.236 1.296.262.99.07 1.384-.29 1.594-.57.858-1.127.595-3.734.08-5.177-1.477-4.138-6.323-15.044-8.978-17.41-1.345-1.182-2.83-1.866-4.3-1.968zm11.454 27.268a7.947 7.947 0 0 1-1.785-.36c-7.12-2.24-16.273-13.79-17.11-19.933-.37-2.743.32-5.21 1.938-6.943 1.436-1.527 3.49-2.32 5.655-2.173 1.943.134 3.87 1.002 5.568 2.506 3.334 2.956 8.49 15.247 9.58 18.285.45 1.263 1.26 5.02-.39 7.203-.543.715-1.583 1.545-3.455 1.415z"/><path fill="#FFD200" d="M64.8 197.63s-2.003 8.223-9.856 7.68c-7.844-.542-3.86-9.826-4.38-16.073-.525-6.248-3.77-14.598 2.196-18.007 5.974-3.41 12.096 8.243 12.992 12.603 1.27 5.824.787 9.376-.953 13.796z"/><path d="M55.197 172.046c-.594-.043-1.155.098-1.723.425-3.528 2.01-3.13 6.126-2.115 12.172.25 1.492.507 3.036.628 4.472.16 1.87-.053 3.93-.258 5.915-.318 3.097-.645 6.288.597 7.764.54.643 1.435 1.003 2.715 1.09 6.528.45 8.298-6.31 8.37-6.6.014-.056.03-.12.053-.178 1.55-3.943 2.156-7.176.89-12.965-.794-3.892-5.314-11.828-9.158-12.094zm-.35 34.69c-2.07-.142-3.66-.848-4.71-2.102-2.022-2.4-1.632-6.212-1.257-9.895.193-1.86.39-3.784.257-5.39-.11-1.314-.347-2.736-.596-4.24-.94-5.61-2.007-11.973 3.516-15.13 1.06-.603 2.18-.864 3.34-.786 6.2.43 10.983 10.567 11.757 14.352 1.396 6.415.702 10.192-.99 14.517-.833 3.274-4.225 9.164-11.317 8.674z"/><path fill="#FFF" stroke="#000" stroke-width="1.852" stroke-linecap="round" stroke-linejoin="round" stroke-miterlimit="10" d="M6.756 96.49c-7.993 9.64-2.974 21.044-.89 24.395 1.457 2.346 1.535 4.63.396 6.38-.664 1.02-.193 2.38.99 2.663l8.638 2.086a1.734 1.734 0 0 0 2.14-1.84c-.153-1.662.362-3.894 3.186-5.978 5.41-4 11.684-8.944 10.043-22.172L6.755 96.49z"/><path fill="#FFD200" d="M7.935 98.807c-4.637 5.688-3.814 21.007 4.428 23.438 8.24 2.433 16.476-5.35 16.932-17.418.455-12.07-21.36-6.02-21.36-6.02z"/><path fill="#FFF" stroke="#000" stroke-width="1.852" stroke-linecap="round" stroke-linejoin="round" stroke-miterlimit="10" d="M25.71 92.12c-17.887-6.66-19.72-3.228-20.322.82-.606 4.053 6.67 11.855 12.86 5.463 4.566 6.545 16.862 9.65 17.476 2.522 5.765 1.52 8.782-.784 6.225-3.823-2.56-3.038-16.24-4.982-16.24-4.982zM50.975 93.164c-2.568.12-2.564 5.257 1.225 4.52 3.787-.737 1.342-4.644-1.225-4.52z"/><g><defs><path id="u" d="M85.12 133.522H22.794s-6.99 12.346-4.59 32.35c2.397 20.008 10.823 27.97 10.823 27.97s6.94 8.355 24.79 8.355c17.845 0 25.072-8.355 25.072-8.355s9.065-7.747 10.824-27.987c1.76-20.244-4.59-32.333-4.59-32.333z"/></defs></g><g><defs><path id="v" d="M81.33 134.71c0 6.14-12.255 11.114-27.373 11.114-15.117 0-27.372-4.976-27.372-11.113 0-6.14 12.255-11.114 27.372-11.114 15.118 0 27.372 4.974 27.372 11.115z"/></defs></g><g><defs><path id="w" d="M85.12 133.522H22.794s-6.99 12.346-4.59 32.35c2.397 20.008 10.823 27.97 10.823 27.97s6.94 8.355 24.79 8.355c17.845 0 25.072-8.355 25.072-8.355s9.065-7.747 10.824-27.987c1.76-20.244-4.59-32.333-4.59-32.333z"/></defs></g><g><defs><path id="x" d="M81.33 134.71c0 6.14-12.255 11.114-27.373 11.114-15.117 0-27.372-4.976-27.372-11.113 0-6.14 12.255-11.114 27.372-11.114 15.118 0 27.372 4.974 27.372 11.115z"/></defs></g><g><defs><path id="y" d="M85.12 133.522H22.794s-6.99 12.346-4.59 32.35c2.397 20.008 10.823 27.97 10.823 27.97s6.94 8.355 24.79 8.355c17.845 0 25.072-8.355 25.072-8.355s9.065-7.747 10.824-27.987c1.76-20.244-4.59-32.333-4.59-32.333z"/></defs></g><g><defs><path id="z" d="M81.33 134.71c0 6.14-12.255 11.114-27.373 11.114-15.117 0-27.372-4.976-27.372-11.113 0-6.14 12.255-11.114 27.372-11.114 15.118 0 27.372 4.974 27.372 11.115z"/></defs></g></svg>