<svg xmlns="http://www.w3.org/2000/svg" xmlns:xlink="http://www.w3.org/1999/xlink" width="127" height="147" viewBox="-0.433 85.019 127 147"><path fill="none" stroke="#000" stroke-width="4.775" d="M30.333 116.38c-2.31-1.115-8.197-1.124-7.946 5.106.257 6.23 6.522 9.479 10.551 10.602 2.2.612 2.445-2.023 3.524-2.962 3.051-2.656-3.889-11.667-6.129-12.746z"/><defs><path id="a" d="M85.121 133.522H22.793s-6.989 12.346-4.591 32.35c2.398 20.008 10.824 27.97 10.824 27.97s6.941 8.355 24.789 8.355c17.846 0 25.073-8.355 25.073-8.355s9.065-7.747 10.824-27.987c1.761-20.244-4.591-32.333-4.591-32.333z"/></defs><clipPath id="b"><use xlink:href="#a" overflow="visible"/></clipPath><path clip-path="url(#b)" fill="none" stroke="#000" stroke-width="4.775" d="M38.092 141.9s-4.532 33.811 5.477 56.474M26.193 140.391c-6.989 13.787-2.644 42.684 9.254 56.66M68.689 141.9s4.533 33.811-5.478 56.474M80.588 140.391c6.986 13.787 2.643 42.684-9.256 56.66M53.39 198.94v-54.961"/><ellipse clip-path="url(#b)" fill="none" stroke="#000" stroke-width="4.775" cx="53.955" cy="137.623" rx="33.855" ry="15.258"/><g clip-path="url(#b)"><path fill="none" stroke="#000" stroke-width="4.775" d="M86.924 180.952c-1.899 8.532-16.486 16.652-32.967 16.652-17.093 0-31.2-8.556-32.12-17.411-2.553 2.137-4.002 4.556-4.002 7.124 0 8.601 16.174 15.574 36.122 15.574s36.122-6.974 36.122-15.574c0-2.27-1.133-4.42-3.155-6.365z"/><path fill="none" stroke="#000" stroke-width="4.775" d="M86.924 180.952c-1.899 8.532-16.486 16.652-32.967 16.652-17.093 0-31.2-8.556-32.12-17.411-2.553 2.137-4.002 4.556-4.002 7.124 0 8.601 16.174 15.574 36.122 15.574s36.122-6.974 36.122-15.574c0-2.27-1.133-4.42-3.155-6.365z"/><path fill="none" stroke="#000" stroke-width="4.775" d="M86.924 180.952c-1.899 8.532-16.486 16.652-32.967 16.652-17.093 0-31.2-8.556-32.12-17.411-2.553 2.137-4.002 4.556-4.002 7.124 0 8.601 16.174 15.574 36.122 15.574s36.122-6.974 36.122-15.574c0-2.27-1.133-4.42-3.155-6.365z"/></g><path fill="none" stroke="#000" stroke-width="4.775" d="M40.282 153.886c-14.72-2.418-25.816 15.607-13.713 29.359 12.271 13.933 29.562 3.921 30.018-9.13.351-10.121-8.145-18.631-16.305-20.229m-14.17 6.092c4.946-5.242 13.864-8.324 22.713.234-.063-.02-6.011-1.195-2.165 5.718 2.079 3.731 2.029 6.316-.22 11.046-.863 2.397-1.127 3.118-1.928 5.604-2.352-6.95-4.253-12.837-5.548-20.095 1.623.169 3.47.362 2.61-.815-.109-.152-8.657-1.419-8.736-1.427-.662-.055-.831.624-.835.632-.111.54.001.559 1.846.901.299 2.522.431 3.674 1.354 7.479-1.128 3.104-2.294 6.316-2.831 11.594-3.311-8.025-4.472-13.322-4.279-19.552.57-.174 1.295.123 1.814-.221.357-.232.572-.894.169-1.079-1.442-.642-2.633.044-3.964-.019m18.586 27.018c2.052-5.838 5.119-11.152 7.139-17.002.39-1.134.794-2.945.496-5.143 4.042 7.662 2.717 17.726-7.635 22.145m-13.495-1.382c-9.538-6.507-10.575-16.732-6.677-23.472-.46 7.49 1.35 13.847 6.677 23.472m5.714 2.27c-1.266-.229-2.284-.544-3.521-1.083-.105-3.563-.007-7.958 2.483-15.058 2.802 9.059 6.124 16.007 6.148 16.045-.668.128-2.701.519-5.11.096M85.121 133.522c0 7.758-13.953 14.045-31.164 14.045-17.213 0-31.164-6.287-31.164-14.045 0-7.753 13.951-14.042 31.164-14.042 17.21 0 31.164 6.29 31.164 14.042z"/><defs><path id="c" d="M81.329 134.711c0 6.138-12.254 11.113-27.372 11.113-15.117 0-27.372-4.976-27.372-11.113 0-6.141 12.255-11.115 27.372-11.115 15.118 0 27.372 4.974 27.372 11.115z"/></defs><clipPath id="d"><use xlink:href="#c" overflow="visible"/></clipPath><g clip-path="url(#d)" fill="none" stroke="#000" stroke-width="4.775"><path d="M26.004 135.562l28.518-13.035M30.727 140.658l36.828-16.429M39.791 145.007l37.775-16.813M53.39 146.894l29.465-13.032"/></g><defs><path id="e" d="M85.121 133.522H22.793s-6.989 12.346-4.591 32.35c2.398 20.008 10.824 27.97 10.824 27.97s6.941 8.355 24.789 8.355c17.846 0 25.073-8.355 25.073-8.355s9.065-7.747 10.824-27.987c1.761-20.244-4.591-32.333-4.591-32.333z"/></defs><clipPath id="f"><use xlink:href="#e" overflow="visible"/></clipPath><path clip-path="url(#f)" fill="none" stroke="#000" stroke-width="4.775" d="M38.092 141.9s-4.532 33.811 5.477 56.474M26.193 140.391c-6.989 13.787-2.644 42.684 9.254 56.66M68.689 141.9s4.533 33.811-5.478 56.474M80.588 140.391c6.986 13.787 2.643 42.684-9.256 56.66M53.39 198.94v-54.961"/><ellipse clip-path="url(#f)" fill="none" stroke="#000" stroke-width="4.775" cx="53.955" cy="137.623" rx="33.855" ry="15.258"/><g clip-path="url(#f)"><path fill="none" stroke="#000" stroke-width="4.775" d="M86.924 180.952c-1.899 8.532-16.486 16.652-32.967 16.652-17.093 0-31.2-8.556-32.12-17.411-2.553 2.137-4.002 4.556-4.002 7.124 0 8.601 16.174 15.574 36.122 15.574s36.122-6.974 36.122-15.574c0-2.27-1.133-4.42-3.155-6.365z"/><path fill="none" stroke="#000" stroke-width="4.775" d="M86.924 180.952c-1.899 8.532-16.486 16.652-32.967 16.652-17.093 0-31.2-8.556-32.12-17.411-2.553 2.137-4.002 4.556-4.002 7.124 0 8.601 16.174 15.574 36.122 15.574s36.122-6.974 36.122-15.574c0-2.27-1.133-4.42-3.155-6.365z"/><path fill="none" stroke="#000" stroke-width="4.775" d="M86.924 180.952c-1.899 8.532-16.486 16.652-32.967 16.652-17.093 0-31.2-8.556-32.12-17.411-2.553 2.137-4.002 4.556-4.002 7.124 0 8.601 16.174 15.574 36.122 15.574s36.122-6.974 36.122-15.574c0-2.27-1.133-4.42-3.155-6.365z"/></g><path fill="none" stroke="#000" stroke-width="4.775" d="M40.282 153.886c-14.72-2.418-25.816 15.607-13.713 29.359 12.271 13.933 29.562 3.921 30.018-9.13.351-10.121-8.145-18.631-16.305-20.229m-14.17 6.092c4.946-5.242 13.864-8.324 22.713.234-.063-.02-6.011-1.195-2.165 5.718 2.079 3.731 2.029 6.316-.22 11.046-.863 2.397-1.127 3.118-1.928 5.604-2.352-6.95-4.253-12.837-5.548-20.095 1.623.169 3.47.362 2.61-.815-.109-.152-8.657-1.419-8.736-1.427-.662-.055-.831.624-.835.632-.111.54.001.559 1.846.901.299 2.522.431 3.674 1.354 7.479-1.128 3.104-2.294 6.316-2.831 11.594-3.311-8.025-4.472-13.322-4.279-19.552.57-.174 1.295.123 1.814-.221.357-.232.572-.894.169-1.079-1.442-.642-2.633.044-3.964-.019m18.586 27.018c2.052-5.838 5.119-11.152 7.139-17.002.39-1.134.794-2.945.496-5.143 4.042 7.662 2.717 17.726-7.635 22.145m-13.495-1.382c-9.538-6.507-10.575-16.732-6.677-23.472-.46 7.49 1.35 13.847 6.677 23.472m5.714 2.27c-1.266-.229-2.284-.544-3.521-1.083-.105-3.563-.007-7.958 2.483-15.058 2.802 9.059 6.124 16.007 6.148 16.045-.668.128-2.701.519-5.11.096M85.121 133.522c0 7.758-13.953 14.045-31.164 14.045-17.213 0-31.164-6.287-31.164-14.045 0-7.753 13.951-14.042 31.164-14.042 17.21 0 31.164 6.29 31.164 14.042z"/><defs><path id="g" d="M81.329 134.711c0 6.138-12.254 11.113-27.372 11.113-15.117 0-27.372-4.976-27.372-11.113 0-6.141 12.255-11.115 27.372-11.115 15.118 0 27.372 4.974 27.372 11.115z"/></defs><clipPath id="h"><use xlink:href="#g" overflow="visible"/></clipPath><g clip-path="url(#h)" fill="none" stroke="#000" stroke-width="4.775"><path d="M26.004 135.562l28.518-13.035M30.727 140.658l36.828-16.429M39.791 145.007l37.775-16.813M53.39 146.894l29.465-13.032"/></g><defs><path id="i" d="M85.121 133.522H22.793s-6.989 12.346-4.591 32.35c2.398 20.008 10.824 27.97 10.824 27.97s6.941 8.355 24.789 8.355c17.846 0 25.073-8.355 25.073-8.355s9.065-7.747 10.824-27.987c1.761-20.244-4.591-32.333-4.591-32.333z"/></defs><clipPath id="j"><use xlink:href="#i" overflow="visible"/></clipPath><path clip-path="url(#j)" fill="none" stroke="#000" stroke-width="4.775" d="M38.092 141.9s-4.532 33.811 5.477 56.474M26.193 140.391c-6.989 13.787-2.644 42.684 9.254 56.66M68.689 141.9s4.533 33.811-5.478 56.474M80.588 140.391c6.986 13.787 2.643 42.684-9.256 56.66M53.39 198.94v-54.961"/><ellipse clip-path="url(#j)" fill="none" stroke="#000" stroke-width="4.775" cx="53.955" cy="137.623" rx="33.855" ry="15.258"/><g clip-path="url(#j)"><path fill="none" stroke="#000" stroke-width="4.775" d="M86.924 180.952c-1.899 8.532-16.486 16.652-32.967 16.652-17.093 0-31.2-8.556-32.12-17.411-2.553 2.137-4.002 4.556-4.002 7.124 0 8.601 16.174 15.574 36.122 15.574s36.122-6.974 36.122-15.574c0-2.27-1.133-4.42-3.155-6.365z"/><path fill="none" stroke="#000" stroke-width="4.775" d="M86.924 180.952c-1.899 8.532-16.486 16.652-32.967 16.652-17.093 0-31.2-8.556-32.12-17.411-2.553 2.137-4.002 4.556-4.002 7.124 0 8.601 16.174 15.574 36.122 15.574s36.122-6.974 36.122-15.574c0-2.27-1.133-4.42-3.155-6.365z"/><path fill="none" stroke="#000" stroke-width="4.775" d="M86.924 180.952c-1.899 8.532-16.486 16.652-32.967 16.652-17.093 0-31.2-8.556-32.12-17.411-2.553 2.137-4.002 4.556-4.002 7.124 0 8.601 16.174 15.574 36.122 15.574s36.122-6.974 36.122-15.574c0-2.27-1.133-4.42-3.155-6.365z"/></g><path fill="none" stroke="#000" stroke-width="4.775" d="M40.282 153.886c-14.72-2.418-25.816 15.607-13.713 29.359 12.271 13.933 29.562 3.921 30.018-9.13.351-10.121-8.145-18.631-16.305-20.229m-14.17 6.092c4.946-5.242 13.864-8.324 22.713.234-.063-.02-6.011-1.195-2.165 5.718 2.079 3.731 2.029 6.316-.22 11.046-.863 2.397-1.127 3.118-1.928 5.604-2.352-6.95-4.253-12.837-5.548-20.095 1.623.169 3.47.362 2.61-.815-.109-.152-8.657-1.419-8.736-1.427-.662-.055-.831.624-.835.632-.111.54.001.559 1.846.901.299 2.522.431 3.674 1.354 7.479-1.128 3.104-2.294 6.316-2.831 11.594-3.311-8.025-4.472-13.322-4.279-19.552.57-.174 1.295.123 1.814-.221.357-.232.572-.894.169-1.079-1.442-.642-2.633.044-3.964-.019m18.586 27.018c2.052-5.838 5.119-11.152 7.139-17.002.39-1.134.794-2.945.496-5.143 4.042 7.662 2.717 17.726-7.635 22.145m-13.495-1.382c-9.538-6.507-10.575-16.732-6.677-23.472-.46 7.49 1.35 13.847 6.677 23.472m5.714 2.27c-1.266-.229-2.284-.544-3.521-1.083-.105-3.563-.007-7.958 2.483-15.058 2.802 9.059 6.124 16.007 6.148 16.045-.668.128-2.701.519-5.11.096M85.121 133.522c0 7.758-13.953 14.045-31.164 14.045-17.213 0-31.164-6.287-31.164-14.045 0-7.753 13.951-14.042 31.164-14.042 17.21 0 31.164 6.29 31.164 14.042z"/><defs><path id="k" d="M81.329 134.711c0 6.138-12.254 11.113-27.372 11.113-15.117 0-27.372-4.976-27.372-11.113 0-6.141 12.255-11.115 27.372-11.115 15.118 0 27.372 4.974 27.372 11.115z"/></defs><clipPath id="l"><use xlink:href="#k" overflow="visible"/></clipPath><g clip-path="url(#l)" fill="none" stroke="#000" stroke-width="4.775"><path d="M26.004 135.562l28.518-13.035M30.727 140.658l36.828-16.429M39.791 145.007l37.775-16.813M53.39 146.894l29.465-13.032"/></g><path fill="none" stroke="#000" stroke-width="4.775" d="M88.098 195.89c-5.116 15.18-22.067 28.825-40.434 31.859-15.806 2.604-32.245-10.59-31.499-17.948.846-8.286 11.243-7.111 15.866 2.05 7.085 14.034 35.161 6.49 46.683-11.591l9.384-4.37zM33.535 129.943c-.11.069-.219.146-.329.222.158-.049.32-.089.479-.136-.049-.032-.101-.052-.15-.086zM44.093 129.059c-.161-.01-.316-.032-.478-.043a29.309 29.309 0 0 0-9.931 1.014c3.78 2.215 7.291.96 10.409-.971z"/><path fill="none" stroke="#000" stroke-width="4.775" d="M61.76 201.441c5.766.918 15.373.502 25.473-5.468 18.22-10.776 19.081-47.901 14.681-63.742-4.405-15.837-15.099-27.09-30.759-28.653-15.663-1.556-29.222 4.436-36.875 14.901-5.159 7.057-1.979 11.33.097 12.428 2.073 1.104 11.356-1.842 14.306-6.419 5.918 4.231 12.928 3.045 19.006 1.556l11.188 4.119c-8.795-4.196-20.356-2.843-26.665 1.976-6.308 4.822-2.525 8.912 1.962 9.696 4.485.787 13.557-2.649 20.362-.744 6.796 1.903 8.739 4.577 15.653 11.746 0 0 1.785 15.642-2.687 21.566-6.729-4.53-18.584-.014-22.947 8.356l-2.795 18.682z"/><path fill="none" stroke="#000" stroke-width="4.775" d="M87.915 175.545a1.073 1.073 0 0 1-.927-1.447 36.934 36.934 0 0 0 2.244-10.392 36.887 36.887 0 0 0-1.072-11.753 1.069 1.069 0 0 1 .771-1.306 1.07 1.07 0 0 1 1.306.769 38.846 38.846 0 0 1 1.135 12.437 38.97 38.97 0 0 1-2.376 10.996c-.172.46-.62.726-1.081.696z"/><path fill="none" stroke="#000" stroke-width="4.775" d="M65.795 183.238a1.074 1.074 0 0 1-.856-1.609c3.275-5.661 8.948-9.027 15.558-9.24 5.453-.173 10.73 1.903 12.833 5.044.33.498.195 1.163-.297 1.489a1.068 1.068 0 0 1-1.486-.293c-1.688-2.523-6.294-4.242-10.983-4.098-3.437.116-9.801 1.318-13.767 8.173a1.079 1.079 0 0 1-1.002.534z"/><path fill="none" stroke="#000" stroke-width="4.775" d="M65.121 202.718a28.572 28.572 0 0 1-2.66-.303 1.071 1.071 0 0 1-.894-1.222c.093-.59.658-.984 1.231-.891 3.731.585 13.606 1.256 24.755-5.336 17.546-10.369 18.58-46.751 14.193-62.527-4.525-16.276-15.402-26.438-29.834-27.875-14.78-1.473-28.2 3.938-35.903 14.463-2.103 2.881-2.945 5.569-2.438 7.785.366 1.61 1.404 2.658 2.177 3.065 1.303.696 10.091-1.691 12.897-6.051.16-.25.41-.417.695-.472.295-.055.591.007.826.178 5.605 4.01 12.305 2.818 18.132 1.389a1.07 1.07 0 1 1 .511 2.081c-6.427 1.578-13.163 2.509-19.013-1.135-3.696 4.458-12.5 7.261-15.055 5.904-1.228-.65-2.731-2.164-3.265-4.48-.454-1.982-.338-5.239 2.804-9.527 8.154-11.149 22.298-16.885 37.845-15.331 15.359 1.53 26.914 12.254 31.683 29.431 2.067 7.422 3.225 20.88 1.173 34.218-1.629 10.576-5.785 24.499-16.337 30.736-9.686 5.728-18.508 6.246-23.523 5.9z"/><path fill="none" stroke="#000" stroke-width="4.775" d="M90.113 111.438c-4.253-.641-1.152 2.788.192 4.079 1.344 1.286 10.931 11.269 20.644 9.072 9.712-2.197 13.106-9.846 11.234-10.454-1.87-.61-23.319-1.374-32.07-2.697z"/><path fill="none" stroke="#000" stroke-width="4.775" d="M89.141 112.435c.252.475.875 1.32 1.904 2.307l.26.249c7 6.858 12.503 8.574 15.892 8.808 1.21.084 2.388-.003 3.517-.254 5.33-1.204 8.758-4.224 10.19-6.641.537-.907.679-1.516.699-1.801-.709-.126-2.555-.286-5.502-.491-1.57-.11-3.355-.221-5.257-.347-2.157-.138-4.466-.287-6.768-.445-4.26-.294-10.365-.751-14.124-1.316a4.536 4.536 0 0 0-.811-.069zm17.908 13.503c-3.746-.259-9.777-2.106-17.244-9.414l-.241-.229c-3.304-3.169-2.729-4.47-2.538-4.896.357-.82 1.228-1.188 2.562-1.097.209.015.432.04.683.077 3.687.555 9.728 1.007 13.954 1.301 2.296.156 4.598.304 6.756.447 1.908.12 3.697.234 5.269.341 4.53.314 5.758.479 6.265.647.816.267 1.277 1.037 1.229 2.057-.115 2.604-4.035 8.535-12.56 10.461-1.331.303-2.72.404-4.135.305zM48.072 118.093c-1.793 1.16-1.384 2.771.499 3.141 1.887.373 2.025.503 3.87-.689 2.004-1.294 2.403-3.654.247-3.567-2.156.092-3.618.464-4.616 1.115zM43.01 118.696a2.138 2.138 0 0 1-2.282 1.993 2.14 2.14 0 0 1-1.994-2.288 2.14 2.14 0 0 1 2.289-1.988 2.14 2.14 0 0 1 1.987 2.283zM68.158 114.461a2.144 2.144 0 0 1-2.289 1.992 2.14 2.14 0 0 1-1.993-2.288 2.14 2.14 0 0 1 2.289-1.988 2.145 2.145 0 0 1 1.993 2.284zM41.604 229.081c-8.322-.573-16.245-4.701-21.127-9.296-3.712-3.487-5.673-7.167-5.379-10.099.358-3.511 2.301-5.851 5.333-6.411 3.852-.714 9.408 1.838 12.557 8.091 2.603 5.148 7.882 6.481 11.832 6.666 11.77.587 25.95-7.297 32.99-18.347a1.073 1.073 0 0 1 1.809 1.154c-7.419 11.648-22.43 19.963-34.91 19.338-6.429-.338-11.238-3.108-13.631-7.842-2.682-5.315-7.189-7.517-10.259-6.949-2.056.38-3.33 1.985-3.585 4.52-.229 2.229 1.534 5.331 4.711 8.322 5.712 5.368 15.826 10.062 25.542 8.464 17.86-2.948 34.514-16.046 39.592-31.143.19-.561.796-.866 1.36-.677.56.189.864.801.675 1.36-5.32 15.809-22.681 29.504-41.277 32.575a26.893 26.893 0 0 1-6.233.274zM93.261 155.748a1.104 1.104 0 0 1-.702-.328l-.794-.824c-6.484-6.733-10.401-10.805-16.653-12.554-3.762-1.053-8.385-.355-12.462.256-3.099.469-5.763.872-7.796.513-3.12-.547-5.499-2.375-6.052-4.652-.394-1.606-.082-4.115 3.625-6.948 6.928-5.299 19.132-6.219 27.779-2.1a1.073 1.073 0 0 1-.928 1.936c-7.979-3.807-19.2-2.987-25.544 1.866-2.176 1.661-3.188 3.345-2.85 4.736.352 1.431 2.096 2.654 4.339 3.048 1.693.296 4.323-.102 7.104-.521 4.293-.647 9.164-1.381 13.367-.199 6.813 1.911 11.115 6.372 17.621 13.133l.795.823a1.069 1.069 0 0 1-.031 1.513 1.08 1.08 0 0 1-.818.302zM16.074 169.646c-5.502-4.867-12.333-1.329-11.388 5.667.783 5.746 9.632 16.934 16.368 19.049 5.849 1.838 5.087-4.655 4.297-6.867-1.399-3.921-6.352-15.257-9.277-17.849z"/><path fill="none" stroke="#000" stroke-width="4.775" d="M11.067 168.479c-1.536-.106-2.937.427-3.942 1.496-1.166 1.252-1.659 3.097-1.376 5.193.728 5.347 9.387 16.211 15.624 18.174.482.15.915.236 1.296.262.99.07 1.385-.29 1.595-.571.858-1.126.595-3.733.081-5.176-1.478-4.138-6.324-15.044-8.979-17.411-1.345-1.181-2.829-1.865-4.299-1.967zm11.454 27.269a7.947 7.947 0 0 1-1.786-.359c-7.12-2.24-16.273-13.792-17.11-19.934-.369-2.743.32-5.21 1.938-6.943 1.436-1.527 3.49-2.32 5.655-2.173 1.943.135 3.87 1.003 5.568 2.507 3.334 2.956 8.489 15.247 9.581 18.285.45 1.262 1.259 5.019-.39 7.202-.544.715-1.584 1.545-3.456 1.415zM64.799 197.629s-2.002 8.224-9.855 7.682c-7.844-.543-3.859-9.827-4.38-16.074-.525-6.248-3.771-14.598 2.196-18.007 5.974-3.411 12.096 8.243 12.992 12.603 1.27 5.824.787 9.376-.953 13.796z"/><path fill="none" stroke="#000" stroke-width="4.775" d="M55.197 172.046c-.594-.043-1.155.098-1.723.425-3.528 2.01-3.13 6.125-2.115 12.171.252 1.492.508 3.036.629 4.472.16 1.87-.053 3.931-.258 5.915-.318 3.098-.645 6.289.597 7.765.54.643 1.435 1.003 2.715 1.09 6.528.45 8.298-6.31 8.37-6.6a1.48 1.48 0 0 1 .053-.178c1.549-3.943 2.156-7.176.889-12.965-.793-3.893-5.313-11.829-9.157-12.095zm-.351 34.691c-2.069-.143-3.658-.849-4.71-2.103-2.021-2.399-1.631-6.212-1.256-9.895.193-1.86.39-3.783.257-5.388-.109-1.315-.347-2.737-.596-4.241-.941-5.611-2.008-11.973 3.515-15.13 1.061-.603 2.181-.864 3.34-.786 6.199.429 10.983 10.567 11.757 14.352 1.396 6.415.702 10.192-.989 14.517-.834 3.274-4.226 9.164-11.318 8.674zM33.535 128.79c-.11.071-.219.147-.329.222.158-.047.32-.088.479-.135-.049-.032-.101-.054-.15-.087zM26.577 131.501c-.115.087-.234.185-.352.273.176-.064.352-.122.531-.187-.06-.033-.118-.052-.179-.086zM6.756 96.489c-7.993 9.642-2.974 21.045-.891 24.396 1.458 2.346 1.536 4.629.397 6.379-.664 1.02-.193 2.38.991 2.664l8.637 2.086a1.734 1.734 0 0 0 2.139-1.841c-.152-1.661.363-3.893 3.187-5.977 5.41-4 11.684-8.944 10.043-22.172L6.756 96.489z"/><path fill="none" stroke="#000" stroke-width="4.775" d="M7.935 98.807c-4.637 5.688-3.814 21.007 4.428 23.438 8.24 2.433 16.476-5.35 16.932-17.418.455-12.071-21.36-6.02-21.36-6.02z"/><path fill="none" stroke="#000" stroke-width="4.775" d="M25.71 92.12c-17.887-6.661-19.72-3.228-20.322.821-.606 4.052 6.671 11.854 12.861 5.462 4.565 6.545 16.861 9.649 17.475 2.522 5.765 1.521 8.782-.784 6.225-3.823-2.56-3.038-16.239-4.982-16.239-4.982zM50.975 93.164c-2.568.121-2.564 5.257 1.225 4.52 3.787-.737 1.342-4.644-1.225-4.52z"/><path fill="#FFD200" stroke="#000" stroke-width="2.777" stroke-linecap="round" stroke-linejoin="round" stroke-miterlimit="10" d="M30.333 116.38c-2.31-1.115-8.197-1.124-7.946 5.106.257 6.23 6.522 9.479 10.551 10.602 2.2.612 2.445-2.023 3.524-2.962 3.051-2.656-3.889-11.667-6.129-12.746z"/><defs><path id="m" d="M85.121 133.522H22.793s-6.989 12.346-4.591 32.35c2.398 20.008 10.824 27.97 10.824 27.97s6.941 8.355 24.789 8.355c17.846 0 25.073-8.355 25.073-8.355s9.065-7.747 10.824-27.987c1.761-20.244-4.591-32.333-4.591-32.333z"/></defs><defs><path id="n" d="M81.329 134.711c0 6.138-12.254 11.113-27.372 11.113-15.117 0-27.372-4.976-27.372-11.113 0-6.141 12.255-11.115 27.372-11.115 15.118 0 27.372 4.974 27.372 11.115z"/></defs><defs><path id="o" d="M85.121 133.522H22.793s-6.989 12.346-4.591 32.35c2.398 20.008 10.824 27.97 10.824 27.97s6.941 8.355 24.789 8.355c17.846 0 25.073-8.355 25.073-8.355s9.065-7.747 10.824-27.987c1.761-20.244-4.591-32.333-4.591-32.333z"/></defs><use xlink:href="#o" overflow="visible" fill="#A06323"/><clipPath id="p"><use xlink:href="#o" overflow="visible"/></clipPath><path clip-path="url(#p)" fill="none" stroke="#7E4D18" stroke-width="2.03" stroke-linecap="round" stroke-linejoin="round" stroke-miterlimit="10" d="M38.092 141.9s-4.532 33.811 5.477 56.474M26.193 140.391c-6.989 13.787-2.644 42.684 9.254 56.66M68.689 141.9s4.533 33.811-5.478 56.474M80.588 140.391c6.986 13.787 2.643 42.684-9.256 56.66"/><path clip-path="url(#p)" fill="#A06323" stroke="#7E4D18" stroke-width="2.03" stroke-linecap="round" stroke-linejoin="round" stroke-miterlimit="10" d="M53.39 198.94v-54.961"/><ellipse clip-path="url(#p)" fill="#7E4D18" stroke="#000" stroke-width="2.03" stroke-linecap="round" stroke-linejoin="round" stroke-miterlimit="10" cx="53.955" cy="137.623" rx="33.855" ry="15.258"/><g clip-path="url(#p)"><path fill="#7E4D18" d="M86.924 180.952c-1.899 8.532-16.486 16.652-32.967 16.652-17.093 0-31.2-8.556-32.12-17.411-2.553 2.137-4.002 4.556-4.002 7.124 0 8.601 16.174 15.574 36.122 15.574s36.122-6.974 36.122-15.574c0-2.27-1.133-4.42-3.155-6.365z"/><path fill="none" stroke="#000" stroke-width="2.208" stroke-linecap="round" stroke-linejoin="round" stroke-miterlimit="10" d="M86.924 180.952c-1.899 8.532-16.486 16.652-32.967 16.652-17.093 0-31.2-8.556-32.12-17.411-2.553 2.137-4.002 4.556-4.002 7.124 0 8.601 16.174 15.574 36.122 15.574s36.122-6.974 36.122-15.574c0-2.27-1.133-4.42-3.155-6.365z"/></g><use xlink:href="#o" overflow="visible" fill="none" stroke="#000" stroke-width="3.183" stroke-linecap="round" stroke-linejoin="round" stroke-miterlimit="10"/><path fill="#FFF" d="M40.282 153.886c-14.72-2.418-25.816 15.607-13.713 29.359 12.271 13.933 29.562 3.921 30.018-9.13.351-10.121-8.145-18.631-16.305-20.229m-14.17 6.092c4.946-5.242 13.864-8.324 22.713.234-.063-.02-6.011-1.195-2.165 5.718 2.079 3.731 2.029 6.316-.22 11.046-.863 2.397-1.127 3.118-1.928 5.604-2.352-6.95-4.253-12.837-5.548-20.095 1.623.169 3.47.362 2.61-.815-.109-.152-8.657-1.419-8.736-1.427-.662-.055-.831.624-.835.632-.111.54.001.559 1.846.901.299 2.522.431 3.674 1.354 7.479-1.128 3.104-2.294 6.316-2.831 11.594-3.311-8.025-4.472-13.322-4.279-19.552.57-.174 1.295.123 1.814-.221.357-.232.572-.894.169-1.079-1.442-.642-2.633.044-3.964-.019m18.586 27.018c2.052-5.838 5.119-11.152 7.139-17.002.39-1.134.794-2.945.496-5.143 4.042 7.662 2.717 17.726-7.635 22.145m-13.495-1.382c-9.538-6.507-10.575-16.732-6.677-23.472-.46 7.49 1.35 13.847 6.677 23.472m5.714 2.27c-1.266-.229-2.284-.544-3.521-1.083-.105-3.563-.007-7.958 2.483-15.058 2.802 9.059 6.124 16.007 6.148 16.045-.668.128-2.701.519-5.11.096"/><path fill="#A06323" stroke="#000" stroke-width="3.183" stroke-linecap="round" stroke-linejoin="round" stroke-miterlimit="10" d="M85.121 133.522c0 7.758-13.953 14.045-31.164 14.045-17.213 0-31.164-6.287-31.164-14.045 0-7.753 13.951-14.042 31.164-14.042 17.21 0 31.164 6.29 31.164 14.042z"/><g><defs><path id="q" d="M81.329 134.711c0 6.138-12.254 11.113-27.372 11.113-15.117 0-27.372-4.976-27.372-11.113 0-6.141 12.255-11.115 27.372-11.115 15.118 0 27.372 4.974 27.372 11.115z"/></defs><use xlink:href="#q" overflow="visible" fill="#7E4D18"/><clipPath id="r"><use xlink:href="#q" overflow="visible"/></clipPath><g clip-path="url(#r)" fill="none" stroke="#A06323" stroke-width="2.03" stroke-linecap="round" stroke-linejoin="round" stroke-miterlimit="10"><path d="M26.004 135.562l28.518-13.035M30.727 140.658l36.828-16.429M39.791 145.007l37.775-16.813M53.39 146.894l29.465-13.032"/></g></g><g><defs><path id="s" d="M85.121 133.522H22.793s-6.989 12.346-4.591 32.35c2.398 20.008 10.824 27.97 10.824 27.97s6.941 8.355 24.789 8.355c17.846 0 25.073-8.355 25.073-8.355s9.065-7.747 10.824-27.987c1.761-20.244-4.591-32.333-4.591-32.333z"/></defs></g><g><defs><path id="t" d="M81.329 134.711c0 6.138-12.254 11.113-27.372 11.113-15.117 0-27.372-4.976-27.372-11.113 0-6.141 12.255-11.115 27.372-11.115 15.118 0 27.372 4.974 27.372 11.115z"/></defs></g><path fill="#F80" d="M88.098 195.89c-5.116 15.18-22.067 28.825-40.434 31.859-15.806 2.604-32.245-10.59-31.499-17.948.846-8.286 11.243-7.111 15.866 2.05 7.085 14.034 35.161 6.49 46.683-11.591l9.384-4.37z"/><path fill="#57A1BE" d="M33.535 129.943c-.11.069-.219.146-.329.222.158-.049.32-.089.479-.136-.049-.032-.101-.052-.15-.086zM44.093 129.059c-.161-.01-.316-.032-.478-.043a29.309 29.309 0 0 0-9.931 1.014c3.78 2.215 7.291.96 10.409-.971z"/><path fill="#FFD200" d="M61.76 201.441c5.766.918 15.373.502 25.473-5.468 18.22-10.776 19.081-47.901 14.681-63.742-4.405-15.837-15.099-27.09-30.759-28.653-15.663-1.556-29.222 4.436-36.875 14.901-5.159 7.057-1.979 11.33.097 12.428 2.073 1.104 11.356-1.842 14.306-6.419 5.918 4.231 12.928 3.045 19.006 1.556l11.188 4.119c-8.795-4.196-20.356-2.843-26.665 1.976-6.308 4.822-2.525 8.912 1.962 9.696 4.485.787 13.557-2.649 20.362-.744 6.796 1.903 8.739 4.577 15.653 11.746 0 0 1.785 15.642-2.687 21.566-6.729-4.53-18.584-.014-22.947 8.356l-2.795 18.682z"/><path d="M87.915 175.545a1.073 1.073 0 0 1-.927-1.447 36.934 36.934 0 0 0 2.244-10.392 36.887 36.887 0 0 0-1.072-11.753 1.069 1.069 0 0 1 .771-1.306 1.07 1.07 0 0 1 1.306.769 38.846 38.846 0 0 1 1.135 12.437 38.97 38.97 0 0 1-2.376 10.996c-.172.46-.62.726-1.081.696z"/><path d="M65.795 183.238a1.074 1.074 0 0 1-.856-1.609c3.275-5.661 8.948-9.027 15.558-9.24 5.453-.173 10.73 1.903 12.833 5.044.33.498.195 1.163-.297 1.489a1.068 1.068 0 0 1-1.486-.293c-1.688-2.523-6.294-4.242-10.983-4.098-3.437.116-9.801 1.318-13.767 8.173a1.079 1.079 0 0 1-1.002.534z"/><path d="M65.121 202.718a28.572 28.572 0 0 1-2.66-.303 1.071 1.071 0 0 1-.894-1.222c.093-.59.658-.984 1.231-.891 3.731.585 13.606 1.256 24.755-5.336 17.546-10.369 18.58-46.751 14.193-62.527-4.525-16.276-15.402-26.438-29.834-27.875-14.78-1.473-28.2 3.938-35.903 14.463-2.103 2.881-2.945 5.569-2.438 7.785.366 1.61 1.404 2.658 2.177 3.065 1.303.696 10.091-1.691 12.897-6.051.16-.25.41-.417.695-.472.295-.055.591.007.826.178 5.605 4.01 12.305 2.818 18.132 1.389a1.07 1.07 0 1 1 .511 2.081c-6.427 1.578-13.163 2.509-19.013-1.135-3.696 4.458-12.5 7.261-15.055 5.904-1.228-.65-2.731-2.164-3.265-4.48-.454-1.982-.338-5.239 2.804-9.527 8.154-11.149 22.298-16.885 37.845-15.331 15.359 1.53 26.914 12.254 31.683 29.431 2.067 7.422 3.225 20.88 1.173 34.218-1.629 10.576-5.785 24.499-16.337 30.736-9.686 5.728-18.508 6.246-23.523 5.9z"/><path fill="#F80" d="M90.113 111.438c-4.253-.641-1.152 2.788.192 4.079 1.344 1.286 10.931 11.269 20.644 9.072 9.712-2.197 13.106-9.846 11.234-10.454-1.87-.61-23.319-1.374-32.07-2.697z"/><path d="M89.141 112.435c.252.475.875 1.32 1.904 2.307l.26.249c7 6.858 12.503 8.574 15.892 8.808 1.21.084 2.388-.003 3.517-.254 5.33-1.204 8.758-4.224 10.19-6.641.537-.907.679-1.516.699-1.801-.709-.126-2.555-.286-5.502-.491-1.57-.11-3.355-.221-5.257-.347-2.157-.138-4.466-.287-6.768-.445-4.26-.294-10.365-.751-14.124-1.316a4.536 4.536 0 0 0-.811-.069zm17.908 13.503c-3.746-.259-9.777-2.106-17.244-9.414l-.241-.229c-3.304-3.169-2.729-4.47-2.538-4.896.357-.82 1.228-1.188 2.562-1.097.209.015.432.04.683.077 3.687.555 9.728 1.007 13.954 1.301 2.296.156 4.598.304 6.756.447 1.908.12 3.697.234 5.269.341 4.53.314 5.758.479 6.265.647.816.267 1.277 1.037 1.229 2.057-.115 2.604-4.035 8.535-12.56 10.461-1.331.303-2.72.404-4.135.305zM48.072 118.093c-1.793 1.16-1.384 2.771.499 3.141 1.887.373 2.025.503 3.87-.689 2.004-1.294 2.403-3.654.247-3.567-2.156.092-3.618.464-4.616 1.115zM43.01 118.696a2.138 2.138 0 0 1-2.282 1.993 2.14 2.14 0 0 1-1.994-2.288 2.14 2.14 0 0 1 2.289-1.988 2.14 2.14 0 0 1 1.987 2.283zM68.158 114.461a2.144 2.144 0 0 1-2.289 1.992 2.14 2.14 0 0 1-1.993-2.288 2.14 2.14 0 0 1 2.289-1.988 2.145 2.145 0 0 1 1.993 2.284zM41.604 229.081c-8.322-.573-16.245-4.701-21.127-9.296-3.712-3.487-5.673-7.167-5.379-10.099.358-3.511 2.301-5.851 5.333-6.411 3.852-.714 9.408 1.838 12.557 8.091 2.603 5.148 7.882 6.481 11.832 6.666 11.77.587 25.95-7.297 32.99-18.347a1.073 1.073 0 0 1 1.809 1.154c-7.419 11.648-22.43 19.963-34.91 19.338-6.429-.338-11.238-3.108-13.631-7.842-2.682-5.315-7.189-7.517-10.259-6.949-2.056.38-3.33 1.985-3.585 4.52-.229 2.229 1.534 5.331 4.711 8.322 5.712 5.368 15.826 10.062 25.542 8.464 17.86-2.948 34.514-16.046 39.592-31.143.19-.561.796-.866 1.36-.677.56.189.864.801.675 1.36-5.32 15.809-22.681 29.504-41.277 32.575a26.893 26.893 0 0 1-6.233.274zM93.261 155.748a1.104 1.104 0 0 1-.702-.328l-.794-.824c-6.484-6.733-10.401-10.805-16.653-12.554-3.762-1.053-8.385-.355-12.462.256-3.099.469-5.763.872-7.796.513-3.12-.547-5.499-2.375-6.052-4.652-.394-1.606-.082-4.115 3.625-6.948 6.928-5.299 19.132-6.219 27.779-2.1a1.073 1.073 0 0 1-.928 1.936c-7.979-3.807-19.2-2.987-25.544 1.866-2.176 1.661-3.188 3.345-2.85 4.736.352 1.431 2.096 2.654 4.339 3.048 1.693.296 4.323-.102 7.104-.521 4.293-.647 9.164-1.381 13.367-.199 6.813 1.911 11.115 6.372 17.621 13.133l.795.823a1.069 1.069 0 0 1-.031 1.513 1.08 1.08 0 0 1-.818.302z"/><path fill="#FFD200" d="M16.074 169.646c-5.502-4.867-12.333-1.329-11.388 5.667.783 5.746 9.632 16.934 16.368 19.049 5.849 1.838 5.087-4.655 4.297-6.867-1.399-3.921-6.352-15.257-9.277-17.849z"/><path d="M11.067 168.479c-1.536-.106-2.937.427-3.942 1.496-1.166 1.252-1.659 3.097-1.376 5.193.728 5.347 9.387 16.211 15.624 18.174.482.15.915.236 1.296.262.99.07 1.385-.29 1.595-.571.858-1.126.595-3.733.081-5.176-1.478-4.138-6.324-15.044-8.979-17.411-1.345-1.181-2.829-1.865-4.299-1.967zm11.454 27.269a7.947 7.947 0 0 1-1.786-.359c-7.12-2.24-16.273-13.792-17.11-19.934-.369-2.743.32-5.21 1.938-6.943 1.436-1.527 3.49-2.32 5.655-2.173 1.943.135 3.87 1.003 5.568 2.507 3.334 2.956 8.489 15.247 9.581 18.285.45 1.262 1.259 5.019-.39 7.202-.544.715-1.584 1.545-3.456 1.415z"/><path fill="#FFD200" d="M64.799 197.629s-2.002 8.224-9.855 7.682c-7.844-.543-3.859-9.827-4.38-16.074-.525-6.248-3.771-14.598 2.196-18.007 5.974-3.411 12.096 8.243 12.992 12.603 1.27 5.824.787 9.376-.953 13.796z"/><path d="M55.197 172.046c-.594-.043-1.155.098-1.723.425-3.528 2.01-3.13 6.125-2.115 12.171.252 1.492.508 3.036.629 4.472.16 1.87-.053 3.931-.258 5.915-.318 3.098-.645 6.289.597 7.765.54.643 1.435 1.003 2.715 1.09 6.528.45 8.298-6.31 8.37-6.6a1.48 1.48 0 0 1 .053-.178c1.549-3.943 2.156-7.176.889-12.965-.793-3.893-5.313-11.829-9.157-12.095zm-.351 34.691c-2.069-.143-3.658-.849-4.71-2.103-2.021-2.399-1.631-6.212-1.256-9.895.193-1.86.39-3.783.257-5.388-.109-1.315-.347-2.737-.596-4.241-.941-5.611-2.008-11.973 3.515-15.13 1.061-.603 2.181-.864 3.34-.786 6.199.429 10.983 10.567 11.757 14.352 1.396 6.415.702 10.192-.989 14.517-.834 3.274-4.226 9.164-11.318 8.674z"/><path fill="#FFF" stroke="#000" stroke-width="1.852" stroke-linecap="round" stroke-linejoin="round" stroke-miterlimit="10" d="M6.756 96.489c-7.993 9.642-2.974 21.045-.891 24.396 1.458 2.346 1.536 4.629.397 6.379-.664 1.02-.193 2.38.991 2.664l8.637 2.086a1.734 1.734 0 0 0 2.139-1.841c-.152-1.661.363-3.893 3.187-5.977 5.41-4 11.684-8.944 10.043-22.172L6.756 96.489z"/><path fill="#FFD200" d="M7.935 98.807c-4.637 5.688-3.814 21.007 4.428 23.438 8.24 2.433 16.476-5.35 16.932-17.418.455-12.071-21.36-6.02-21.36-6.02z"/><path fill="#FFF" stroke="#000" stroke-width="1.852" stroke-linecap="round" stroke-linejoin="round" stroke-miterlimit="10" d="M25.71 92.12c-17.887-6.661-19.72-3.228-20.322.821-.606 4.052 6.671 11.854 12.861 5.462 4.565 6.545 16.861 9.649 17.475 2.522 5.765 1.521 8.782-.784 6.225-3.823-2.56-3.038-16.239-4.982-16.239-4.982zM50.975 93.164c-2.568.121-2.564 5.257 1.225 4.52 3.787-.737 1.342-4.644-1.225-4.52z"/><g><defs><path id="u" d="M85.121 133.522H22.793s-6.989 12.346-4.591 32.35c2.398 20.008 10.824 27.97 10.824 27.97s6.941 8.355 24.789 8.355c17.846 0 25.073-8.355 25.073-8.355s9.065-7.747 10.824-27.987c1.761-20.244-4.591-32.333-4.591-32.333z"/></defs></g><g><defs><path id="v" d="M81.329 134.711c0 6.138-12.254 11.113-27.372 11.113-15.117 0-27.372-4.976-27.372-11.113 0-6.141 12.255-11.115 27.372-11.115 15.118 0 27.372 4.974 27.372 11.115z"/></defs></g><g><defs><path id="w" d="M85.121 133.522H22.793s-6.989 12.346-4.591 32.35c2.398 20.008 10.824 27.97 10.824 27.97s6.941 8.355 24.789 8.355c17.846 0 25.073-8.355 25.073-8.355s9.065-7.747 10.824-27.987c1.761-20.244-4.591-32.333-4.591-32.333z"/></defs></g><g><defs><path id="x" d="M81.329 134.711c0 6.138-12.254 11.113-27.372 11.113-15.117 0-27.372-4.976-27.372-11.113 0-6.141 12.255-11.115 27.372-11.115 15.118 0 27.372 4.974 27.372 11.115z"/></defs></g><g><defs><path id="y" d="M85.121 133.522H22.793s-6.989 12.346-4.591 32.35c2.398 20.008 10.824 27.97 10.824 27.97s6.941 8.355 24.789 8.355c17.846 0 25.073-8.355 25.073-8.355s9.065-7.747 10.824-27.987c1.761-20.244-4.591-32.333-4.591-32.333z"/></defs></g><g><defs><path id="z" d="M81.329 134.711c0 6.138-12.254 11.113-27.372 11.113-15.117 0-27.372-4.976-27.372-11.113 0-6.141 12.255-11.115 27.372-11.115 15.118 0 27.372 4.974 27.372 11.115z"/></defs></g></svg>