<svg width="127" height="146" viewBox="0 0 127 146" xmlns="http://www.w3.org/2000/svg" xmlns:xlink="http://www.w3.org/1999/xlink"><title>wapuu</title><defs><path id="a" d="M67.6.8H5.2s-7 12.3-4.6 32.3c2.4 20 10.8 28 10.8 28s6.9 8.4 24.8 8.4c17.8 0 25.1-8.4 25.1-8.4s9.1-7.7 10.8-28C73.9 12.8 67.6.8 67.6.8z"/><path id="c" d="M54.8 11.9C54.8 18 42.5 23 27.4 23 12.3 23 0 18 0 11.9S12.3.8 27.4.8c15.1 0 27.4 5 27.4 11.1z"/></defs><g fill="none" fill-rule="evenodd"><g fill="#231815"><path d="M54.4 59.413c-16.016 0-28.813-5.748-28.813-11.613 0-5.928 12.72-11.613 28.813-11.613 16.03-.093 28.813 5.65 28.813 11.613 0 5.928-12.72 11.613-28.813 11.613zm-.014-28c-18.42 0-33.573 6.77-33.573 16.387 0 9.547 15.23 16.387 33.587 16.387 18.435 0 33.587-6.77 33.587-16.387 0-9.648-15.243-16.494-33.6-16.387zM5.833 82.594c-1.706 1.848-2.392 4.376-1.996 7.144.855 6.475 10.43 17.94 17.23 20.134l.733-2.272-.887 2.217c.485.194.798.264 1.4.362.13.02.18.03.208.036l.17.042.172.018c1.733.173 3.045-.483 3.824-1.652L24.7 107.3l1.848 1.512c1.46-1.783 1.38-4.88.517-7.467-2.446-6.69-7.018-16.064-9.68-18.43-1.652-1.526-3.657-2.46-5.726-2.597-2.24-.15-4.342.644-5.827 2.276zm8.348 3.86c1.863 1.657 6.253 10.66 8.378 16.466.17.518.313 1.31.33 1.99.01.334-.013.618-.057.823-.02.098-.052.146-.052.146l-.064.096c.18-.27.557-.458.624-.452L23.1 107.9l.58-2.316a6.57 6.57 0 0 0-.602-.118c-.272-.045-.327-.057-.39-.083l-.155-.055c-5.048-1.63-13.35-11.57-13.966-16.24-.204-1.43.09-2.513.787-3.27.49-.536 1.163-.79 1.987-.736.928.062 1.923.525 2.84 1.372zm7.775 20.88c-5.987-1.83-14.757-12.373-15.488-17.944-.3-2.035.188-3.803 1.272-4.954.91-.976 2.325-1.52 3.852-1.45 1.308.068 2.808.74 4.128 1.904 2.227 2.025 6.988 11.837 8.93 17.308.62 1.615.707 3.977-.04 4.942l1.89 1.46-1.813-1.554c-.337.394-.794.612-1.555.57l-.132-.003c-.097 0-.51-.1-1.045-.278zM23 110l-.132 2.384c2.326.13 4.184-.76 5.445-2.23l.076-.094c2.02-2.614 1.874-6.564.738-9.517-2.196-6.19-7.164-16.43-10.222-19.21-2.118-1.868-4.62-2.988-7.08-3.117-2.91-.132-5.687.936-7.57 2.955-2.123 2.255-3.02 5.495-2.518 8.88.967 7.372 11.03 19.47 18.764 21.833.95.317 1.73.504 2.498.504V110zM47.7 139.646c-6.63 1.09-14.028-.855-20.237-4.886-5.358-3.478-8.727-7.922-8.486-10.432.247-2.57 1.62-3.65 3.822-3.383 2.704.33 5.71 2.63 7.58 6.25 8.078 15.93 38.376 8.195 50.835-11.415l-.994.878 9.3-4.4-3.283-2.917C81.4 123.757 65.065 136.706 47.7 139.647zm44.847-34.102l-5.068 2.398-9.3 4.4-.625.295-.37.583c-10.787 16.978-36.59 23.566-42.556 11.8-2.57-4.973-6.893-8.284-11.254-8.815-4.843-.59-8.645 2.4-9.152 7.666-.455 4.746 3.944 10.548 10.638 14.895 7.146 4.64 15.714 6.893 23.626 5.59 19.048-3.226 36.855-17.342 42.275-33.496l1.784-5.316z"/><path d="M88.92 112.253c9.06-5.377 14.662-16.784 16.964-31.663 1.878-12.134 1.295-25.83-1.184-34.73-4.836-17.367-16.684-28.787-32.858-30.435-16.132-1.644-30.64 4.373-39.067 15.863-5.113 6.98-3.83 13.44.917 15.927 3.736 1.956 14.238-2.182 17.428-7.242l-3.405.672c5.684 4.046 11.534 4.136 20.92 1.982l-1.356-.085 11.2 4.1 1.848-4.397C71.058 37.82 58.45 38.94 51.153 44.5c-3.685 2.81-5.096 6.1-3.804 9.175 1.05 2.5 3.74 4.226 6.832 4.776 2.016.36 3.404.226 8.833-.57 2.15-.313 3.475-.48 4.856-.585 2.62-.2 4.733-.086 6.488.404 2.933.82 4.822 1.767 6.786 3.35.947.765 1.944 1.696 3.335 3.1.635.64 3.622 3.716 4.52 4.626l-.672-1.402a58.872 58.872 0 0 1 .168 1.928c.222 3.147.253 6.466-.026 9.538-.348 3.842-1.157 6.797-2.38 8.428l3.24-.55c-7.947-5.338-21.422-.344-26.355 9.294l-.175.34-.06.38-2.9 18.6-.367 2.36 2.36.367c8.207 1.273 17.915-.36 27.086-5.807zm-24.36 3.815l2.9-18.6-.235.72c3.723-7.272 14.078-11.11 19.444-7.506l1.88 1.263 1.36-1.813c1.88-2.505 2.894-6.212 3.316-10.86.304-3.364.27-6.923.033-10.305a63.623 63.623 0 0 0-.188-2.14l-.095-.818-.577-.586c-.878-.89-3.873-3.975-4.53-4.638-1.506-1.517-2.618-2.556-3.728-3.45-2.483-2.005-4.957-3.245-8.5-4.235-2.373-.663-5.008-.804-8.135-.566-1.518.116-2.933.293-5.183.623-4.716.69-6.042.817-7.306.592-1.638-.292-2.93-1.12-3.267-1.925-.32-.763.17-1.906 2.297-3.526 5.852-4.46 16.548-5.41 24.225-1.745l1.85-4.397-11.2-4.1-.666-.243-.69.158c-8.154 1.872-12.843 1.8-17.08-1.218l-2.06-1.465-1.346 2.137c-1.007 1.598-3.41 3.248-6.305 4.39-1.292.508-2.576.87-3.63 1.035a6.38 6.38 0 0 1-1.16.092c-2.17-1.055-2.787-4.153.64-8.833C44.023 24.026 56.868 18.7 71.36 20.176 85.438 21.61 95.76 31.56 100.1 47.14c2.29 8.22 2.843 21.233 1.066 32.72-2.106 13.61-7.106 23.79-14.684 28.287-8.18 4.86-16.768 6.303-23.916 5.194l1.993 2.728z"/><path d="M63.238 114.237c.712.118 1.24.81 1.117 1.555-.12.728-.796 1.215-1.623 1.05 7.713 1.25 16.96.026 26.48-5.585 8.76-5.207 14.205-16.377 16.46-30.954 1.852-11.976 1.287-25.468-1.173-34.247-4.735-17.146-16.38-28.02-31.853-29.63-15.63-1.585-29.863 4.16-38.08 15.47-2.448 3.384-3.474 6.748-2.795 9.733.536 2.147 1.886 3.918 3.46 4.705 3.023 1.63 13.01-2.283 15.982-6.953L49.2 38.1l1.688 1.688c.01-.03-.1.032-.233.077a1.607 1.607 0 0 1-1.643-.377l.3.255c5.446 3.89 11.112 3.935 20.048 1.778l-.56-2.32.392 2.355c-.58.097-1.307-.325-1.447-1.163-.097-.58.325-1.307 1.163-1.447-7.866 1.96-13.012 1.92-17.35-.773l-1.775-1.103-1.327 1.614c-1.423 1.73-4.046 3.383-6.935 4.435-2.472.9-4.698 1.142-5.188.878-.88-.515-1.76-1.616-2.122-3-.457-1.828.132-4.32 2.427-7.502 7.665-10.562 20.916-15.94 35.72-14.42 14.32 1.394 25.08 11.407 29.644 27.67 2.277 8.02 2.92 21.354 1.14 33.2-2.04 13.5-6.93 24.142-15.154 28.998-7.782 4.606-15.432 6.117-22.196 5.576a52.568 52.568 0 0 1-2.552-.283zm27.178-1.182c9.77-5.77 15.213-17.61 17.445-32.4 1.88-12.494 1.204-26.514-1.263-35.207-5.07-18.064-17.392-29.53-33.766-31.124-16.425-1.685-31.354 4.373-40.062 16.374-3.083 4.276-4.007 8.188-3.184 11.48.7 2.684 2.4 4.81 4.413 5.984 4.06 2.188 14.034-1.443 18.147-6.446l-3.103.512c5.71 3.544 12.022 3.592 20.84 1.388L69.3 41.3l.392 2.355c1.986-.33 3.07-2.204 2.763-4.047-.33-1.986-2.204-3.07-4.047-2.763-7.86 1.89-12.34 1.854-16.32-.988L50.7 37.8l1.688-1.688a3.16 3.16 0 0 0-3.243-.777c-.71.237-1.08.525-1.633 1.077l-.326.406c-.936 1.47-3.14 2.952-5.87 4.022-1.163.455-2.332.797-3.282.974-.404.075-.74.114-.968.118.022.017.17.06.366.166-.35-.177-.82-.79-1.016-1.577-.32-1.407.305-3.454 2.018-5.82 7.172-9.874 19.73-14.943 33.725-13.525 13.413 1.398 23.503 10.82 27.74 26.16 2.27 8.102 2.806 20.91 1.053 32.237-2.06 13.31-6.907 23.258-14.173 27.576-8.464 4.988-16.597 6.066-23.198 4.995-1.778-.357-3.622.975-3.937 2.865-.32 1.926.985 3.634 2.863 3.947.8.115 1.738.22 2.876.323 7.724.618 16.353-1.087 25.032-6.223z"/><path d="M89.812 30.688l.167.167.196.13.3.2L91.8 29.2l-1.676 1.7c6.383 6.293 12.267 9.18 17.436 9.483 1.42.12 2.9-.006 4.268-.38L111.2 37.7l.527 2.33c5.352-1.213 9.722-4.276 11.735-7.727.67-1.205 1.025-2.152 1.025-3.003v-2.07l-2.05-.293c-.978-.14-3.115-.342-5.673-.52-1.51-.093-3.24-.19-5.34-.3-.902-.042-1.558-.082-3.33-.2-1.66-.11-2.5-.16-3.49-.202-5.316-.372-10.722-.854-13.884-1.28L90.4 26.8l.755-2.265c-.557-.186-.962-.222-1.555-.222h-4.217l2.17 3.615c.473.79 1.245 1.746 2.26 2.76zM89.6 26.7v2.387c.107 0 .258.05.258.05l.222.03c3.29.444 8.78.933 14.254 1.315 1.005.044 1.82.093 3.446.2 1.806.12 2.48.16 3.412.203 2.065.11 3.782.206 5.26.298 2.435.168 4.47.36 5.31.48l.338-2.363h-2.387c0-.182.006-.208-.01-.163-.075.196-.205.47-.39.804-1.302 2.23-4.546 4.504-8.64 5.43l-.1.027c-.82.223-1.74.302-2.675.224-4-.235-8.823-2.6-14.422-8.12l-.162-.16-.19-.126-.3-.2L91.5 29l1.688-1.688c-.753-.753-1.283-1.41-1.54-1.84L89.6 26.7zm2.377 2.4l-.29-.288c-1.236-1.2-1.82-2.037-1.967-2.512.006.02-.027.252-.085.368a.57.57 0 0 1-.246.23c.036-.018.21-.04.54-.017l.17.007a.28.28 0 0 1 .128.04l.19.03c1.99.322 4.65.602 8.094.878 1.715.138 2.333.182 6.122.447 1.892.165 3.234.238 6.858.403 2.065.11 3.782.206 5.26.298 2.01.134 3.5.256 4.548.366.74.077 1.17.138 1.432.19l.468-2.34-.838 2.235c-.172-.064-.34-.34-.34-.35l-.008.123c-.01.266-.178.788-.515 1.412-.433.798-1.077 1.648-1.896 2.462-2.022 2.01-4.85 3.58-8.345 4.393-1.25.33-2.377.43-3.59.344-4.518-.368-9.8-2.907-15.693-8.72zm20.438 13.007c8.166-1.898 14.185-7.88 14.37-12.715L124.4 29.3l2.378.216c.19-2.102-.87-3.85-2.74-4.55l-.18-.07-.19-.037c-.963-.194-2.83-.39-6.61-.642a549 549 0 0 0-5.333-.302c-3.572-.163-4.875-.234-6.718-.394-3.81-.267-4.422-.31-6.113-.446-3.325-.267-5.88-.536-7.712-.833L90.8 24.6l.755-2.265c-.54-.18-.92-.222-1.455-.222V24.5l.17-2.38c-2.24-.16-4.01.62-4.905 2.412-1.04 2.08-.294 4.514 2.973 7.682l.274.274c6.68 6.59 13.003 9.63 18.695 10.092 1.753.125 3.41-.02 5.108-.473zM22.534 132.26c-3.224-3.05-4.866-6.113-4.66-8.114.29-2.525 1.484-3.985 3.318-4.29 3.293-.592 7.59 1.925 10.08 6.825 2.68 5.262 7.823 7.698 13.806 8.004 12.64.643 27.552-7.652 35.128-19.39a1.266 1.266 0 0 1-1.734.453c-.71-.426-.854-1.217-.52-1.775-6.952 10.897-21.172 18.79-32.72 18.144-5.573-.26-9.605-2.584-11.606-6.502-2.935-5.762-8.28-9.048-12.88-8.158-3.168.604-5.096 3.053-5.516 6.56-.292 3.193 1.797 6.913 5.437 10.326 7.03 6.66 17.92 10.697 27.522 9.114 18.7-3.03 36.067-16.69 41.472-32.692-.214.642-.966 1.018-1.617.8a1.31 1.31 0 0 1-.81-1.62c-5.023 14.785-21.635 27.847-39.315 30.7-1.946.37-3.82.458-5.694.28-7.213-.523-14.708-3.986-19.692-8.665zm26.213 13.085c19.3-3.11 37.396-17.342 43.014-33.877.622-1.864-.354-3.816-2.205-4.433a3.467 3.467 0 0 0-4.42 2.21c-4.813 14.25-20.695 26.74-37.717 29.498-8.023 1.324-17.458-2.175-23.476-7.876-2.684-2.516-4.086-5.014-3.964-6.35.182-1.514.714-2.19 1.67-2.372 2.307-.446 5.682 1.63 7.725 5.64 2.825 5.533 8.433 8.763 15.615 9.1 13.312.745 29.14-8.04 37.025-20.4.99-1.65.594-3.825-1.085-4.832-1.593-.956-3.768-.56-4.775 1.12-6.64 10.283-19.964 17.695-30.832 17.143-4.444-.228-8.02-1.922-9.793-5.4-3.388-6.67-9.67-10.35-15.15-9.366-4.06.677-6.73 3.94-7.25 8.48-.392 3.798 1.93 8.13 6.132 12.104 5.765 5.414 14.28 9.348 22.568 9.947a24.51 24.51 0 0 0 6.92-.335zM94.688 70.012l-.8-.8c-4.812-5.035-6.558-6.76-8.94-8.644-2.838-2.245-5.598-3.702-8.826-4.573-3.605-1.044-7.148-.837-13.524.252l.402-.034c-4.68.602-5.958.7-7.232.446-2.286-.372-3.91-1.633-4.258-2.963-.287-1.15.294-2.55 2.73-4.393 6.17-4.738 17.412-5.582 25.342-1.844L80.6 45.3l-1.228 2.047c-.488-.292-.8-1.073-.32-1.875.293-.488 1.074-.8 1.876-.32l-.204-.11c-8.81-4.183-20.968-3.288-27.99 2.173-2.916 2.254-4.367 4.66-3.63 7.24.702 2.457 3.276 4.302 6.273 4.71 1.684.3 3.024.175 7.76-.502.257-.035 1.198-.168 1.182-.166 2.2-.31 3.486-.463 4.854-.558 2.548-.176 4.614-.046 6.37.456 3.08.86 5.69 2.324 8.565 4.718 2.05 1.706 3.553 3.19 7.976 7.748l.826.826a1.302 1.302 0 0 1 0-1.876l-.12.12-.102.136c.18-.242.61-.455 1.01-.455.37 0 .765.176.988.4zm1.822 2.92L94.6 71.5l1.688 1.688c1.333-1.332 1.333-3.544 0-4.876l-.8-.8c-4.53-4.67-6.092-6.21-8.324-8.068-3.365-2.8-6.56-4.592-10.322-5.643-2.353-.672-4.942-.835-7.997-.624-1.51.104-2.883.27-5.19.593.012-.003-.925.13-1.185.165-4.042.578-5.32.696-6.355.514-1.355-.188-2.292-.86-2.42-1.306 0-.003.016-.085.174-.348.3-.498.898-1.118 1.79-1.807 5.55-4.317 15.78-5.07 23.016-1.633L79.7 47.2l-1.228 2.047c1.742 1.045 3.735.248 4.675-1.32 1.045-1.74.248-3.734-1.32-4.674l-.21-.113c-9.496-4.475-22.648-3.49-30.27 2.367-3.876 2.932-5.247 6.236-4.463 9.372.87 3.34 4.093 5.84 8.036 6.477 1.944.39 3.35.282 8.396-.39l-.316.02c6.066-1 9.122-1.18 11.836-.394 2.61.705 4.798 1.86 7.15 3.72 2.14 1.693 3.81 3.34 8.488 8.237l.838.838c.643.643 1.444 1 2.388 1 1.1 0 2.09-.494 2.81-1.456z"/><g><path d="M.59 25.497c.472 4.12 1.965 8.083 3.68 10.858.985 1.514 1.046 2.83.393 3.9L6.7 41.5l-1.956-1.37c-1.66 2.37-.45 5.68 2.377 6.386l8.614 2.103c2.77.692 5.294-1.586 5.044-4.336-.147-1.252.437-2.51 2.254-3.874 4.234-3.136 6.368-5.118 8.276-8.292 2.557-4.25 3.51-9.476 2.66-16.12l-.21-1.652-1.624-.373-24.4-5.6-1.43-.328-.938 1.127C1.334 14.01-.082 19.624.59 25.497zm6.076-12.47l24.4 5.6-1.834-2.024c.718 5.62-.037 9.765-2.015 13.054-1.495 2.484-3.268 4.132-7.038 6.925-3.152 2.362-4.496 5.264-4.15 8.197-.05-.525.38-.913.85-.796L8.265 41.88c.452.114.64.63.39.99l.08-.125c1.646-2.692 1.495-5.988-.436-8.95-1.333-2.158-2.58-5.467-2.966-8.842-.53-4.642.556-8.95 3.7-12.725l-2.368.8z"/><path d="M12.13 38.69c10.12 2.963 19.52-6.4 19.956-19.61.294-7.054-5.026-10.017-13.047-9.967-2.465.016-5.07.31-7.674.79a53.07 53.07 0 0 0-2.58.54c-.475.112-.822.2-1.02.255l-.74.204-.484.6C.447 19.05 2.715 35.935 12.13 38.69zM9.033 15.303c.143-.04.434-.114.85-.213a48.32 48.32 0 0 1 2.347-.492c2.35-.433 4.69-.697 6.84-.71 5.664-.035 8.392 1.484 8.245 5.013-.345 10.424-7.124 17.176-13.844 15.21-5.678-1.663-7.393-14.43-3.212-19.61l-1.224.802z"/><path d="M3.438 6.854c-.454 3.104 1.747 6.92 4.95 9.028 3.847 2.533 8.398 2.225 12.027-1.52l-3.664-.283c2.578 3.64 7.26 6.47 11.76 7.316 5.32 1 9.647-1.004 10.07-5.995L35.6 17.51c3.342.866 6.274.722 8.167-.533 2.524-1.674 2.555-4.693.434-7.14-1.463-1.746-4.57-2.987-9.165-4.132a86.783 86.783 0 0 0-5.914-1.236 96.637 96.637 0 0 0-2.698-.435l.513.13C10.616-1.98 4.564-.834 3.44 6.856zm22.07 1.874l.264.037c.12.016.352.05.682.1.556.087 1.177.19 1.846.307 1.91.335 3.816.725 5.584 1.166 3.55.885 6.108 1.907 6.687 2.596.307.354.386.53.386.512.003-.216.118-.41.175-.448-.557.37-2.175.448-4.332-.11l-2.74-.708-.237 2.82c-.134 1.595-1.54 2.246-4.43 1.704-3.32-.625-6.908-2.793-8.74-5.383l-1.663-2.347-2.002 2.066c-1.97 2.034-3.974 2.17-5.972.853-1.78-1.172-3.005-3.293-2.85-4.347.257-1.763.57-2.22 1.78-2.45 2.47-.467 7.392.556 15.316 3.538l.248.094zM47.23 10.28c.344 2.775 2.752 4.61 5.862 3.956 3.13-.576 4.64-3.173 3.502-5.826-.856-2-3.03-3.482-5.286-3.396-2.787.108-4.398 2.68-4.077 5.267zm4.976.01c-.042-.097-.043-.337.11-.602a.694.694 0 0 1 .214-.24 1.308 1.308 0 0 1-.363.104c-.304.063-.326.06-.275.098.068.053.082.078.077.044a.463.463 0 0 1 .01-.17.655.655 0 0 1-.488.262c.21-.008.61.266.714.504z"/></g></g><path d="M30.8 30.6c-2.3-1.1-8.2-1.1-7.9 5.1.3 6.2 6.5 9.5 10.6 10.6 2.2.6 2.4-2 3.5-3 2.9-2.6-4-11.6-6.2-12.7z" fill="#FFD200"/><path d="M25.047 28.173c-2.983 1.103-4.717 3.813-4.532 7.642.316 6.524 5.743 11.014 12.366 12.79 1.418.387 2.753.112 3.798-.767.646-.543.98-1.047 1.52-2.054l.055-.106c.234-.436.34-.6.353-.61 2.522-2.263 1.733-5.802-.75-9.914-1.783-2.955-4.33-5.86-5.988-6.69-1.924-.92-4.633-1.1-6.82-.29zm4.685 4.562c.652.326 2.68 2.64 4.037 4.886.756 1.256 1.27 2.406 1.464 3.273.078.352.094.613.07.76 0 0 .035-.07.102-.13-.573.52-.864.972-1.36 1.9l-.057.104c-.252.467-.366.64-.386.657.173-.146.46-.205.524-.187-4.858-1.304-8.65-4.442-8.843-8.412-.086-1.777.416-2.563 1.418-2.933.943-.35 2.315-.258 3.067.102l-.038-.02z" fill="#231815"/><path d="M85.6 47.8H23.2s-7 12.3-4.6 32.3c2.4 20 10.8 28 10.8 28s6.9 8.4 24.8 8.4c17.8 0 25.1-8.4 25.1-8.4s9.1-7.7 10.8-28c1.8-20.3-4.5-32.3-4.5-32.3z" fill="#A06323"/><g transform="translate(18 47)"><mask id="b" fill="#fff"><use xlink:href="#a"/></mask><g mask="url(#b)"><path d="M35.8 66.2v-55" stroke="#7E4D18" stroke-width="2.03" fill="#A06323"/><path d="M19.45 9.324c-.036.29-.075.628-.117 1.014-.12 1.1-.238 2.365-.35 3.774-.855 10.824-.752 22.484.97 33.453 1.08 6.888 2.76 13.09 5.118 18.444l1.86-.82c-2.282-5.176-3.917-11.214-4.972-17.94-1.693-10.787-1.795-22.3-.95-32.98.11-1.387.226-2.63.343-3.713a78.946 78.946 0 0 1 .156-1.323l-2.012-.268-.045.358zM17.127 64.957l1.546-1.314C7.167 50.106 2.613 21.648 9.505 8.06l-1.81-.92C.415 21.49 5.11 50.82 17.127 64.958zM50.136 9.568c.034.28.072.61.113.99.116 1.08.233 2.325.343 3.713.844 10.68.742 22.193-.95 32.98-1.056 6.726-2.69 12.764-4.972 17.94l1.86.82c2.357-5.354 4.037-11.557 5.118-18.445 1.72-10.97 1.824-22.63.97-33.453-.113-1.41-.232-2.673-.35-3.774a80.962 80.962 0 0 0-.162-1.372l-2.012.268.042.334zM52.927 63.643l1.546 1.314C66.49 50.82 71.183 21.49 63.905 7.14l-1.81.92c6.893 13.588 2.338 42.046-9.168 55.583z" fill="#7E4D18"/></g><ellipse fill="#7E4D18" mask="url(#b)" cx="36.4" cy="4.9" rx="33.9" ry="15.3"/><path d="M71.315 4.9c0-9.23-15.696-16.315-34.915-16.315C17.18-11.415 1.485-4.33 1.485 4.9c0 9.23 15.696 16.315 34.915 16.315 19.22 0 34.915-7.084 34.915-16.315zm-67.8 0c0-7.67 14.66-14.285 32.885-14.285 18.226 0 32.885 6.616 32.885 14.285 0 7.67-14.66 14.285-32.885 14.285-18.226 0-32.885-6.616-32.885-14.285z" fill="#000" mask="url(#b)"/><path d="M69.4 48.2c-1.9 8.5-16.5 16.7-33 16.7-17.1 0-31.2-8.6-32.1-17.4-2.6 2.1-4 4.6-4 7.1 0 8.6 16.2 15.6 36.1 15.6 19.9 0 36.1-7 36.1-15.6 0-2.3-1.1-4.5-3.1-6.4z" fill="#7E4D18" mask="url(#b)"/><path d="M36.4 63.796c-16.013 0-30.136-7.948-31.002-16.408L5.19 45.36l-1.584 1.28C.77 48.933-.804 51.73-.804 54.6c0 9.463 16.757 16.704 37.204 16.704s37.204-7.24 37.204-16.704c0-2.598-1.213-5.08-3.444-7.2l-1.412-1.343-.426 1.902C66.488 56.167 51.905 63.795 36.4 63.795zM68.64 49c1.816 1.726 2.756 3.65 2.756 5.6 0 7.737-15.642 14.496-34.996 14.496-19.354 0-34.996-6.76-34.996-14.496 0-2.14 1.237-4.34 3.59-6.24l-1.792-.748C4.21 57.458 19.394 66.004 36.4 66.004c16.42 0 31.97-8.134 34.078-17.563L68.64 49z" fill="#000" mask="url(#b)"/></g><path d="M23.2 46.208h-.926l-.457.805c-.185.325-.488.92-.868 1.776a44.46 44.46 0 0 0-1.82 4.905c-2.352 7.602-3.317 16.542-2.11 26.595.915 7.63 2.74 14.11 5.216 19.512 1.297 2.83 2.69 5.187 4.094 7.1.86 1.17 1.55 1.947 1.972 2.35.142.192.656.72 1.425 1.373 1.244 1.058 2.778 2.107 4.615 3.08 5.183 2.748 11.767 4.387 19.858 4.387 8.044 0 14.67-1.637 19.958-4.38 1.872-.97 3.445-2.015 4.73-3.068.795-.65 1.328-1.17 1.613-1.5l-.172.17c.42-.354 1.094-1.035 1.936-2.068 1.37-1.68 2.73-3.765 3.994-6.28 2.8-5.57 4.734-12.447 5.428-20.733.887-10.005-.043-18.825-2.142-26.283a47.848 47.848 0 0 0-1.716-5.067c-.36-.88-.645-1.49-.82-1.823l-.446-.852H23.2zm60.99 2.332c.027.05.087.17.175.36.154.33.327.724.515 1.185a44.684 44.684 0 0 1 1.6 4.727c1.998 7.098 2.887 15.534 2.035 25.147-.66 7.888-2.484 14.37-5.1 19.577-1.16 2.304-2.393 4.194-3.62 5.698-.42.517-.807.947-1.15 1.293a7.06 7.06 0 0 1-.373.357l-.173.17a5.74 5.74 0 0 1-.262.27c-.26.253-.58.542-.965.856-1.12.917-2.51 1.84-4.18 2.707-4.838 2.508-10.962 4.02-18.493 4.02-7.57 0-13.644-1.51-18.367-4.013-1.63-.864-2.972-1.783-4.044-2.694a13.387 13.387 0 0 1-.918-.85 5.25 5.25 0 0 1-.242-.26c-.19-.197-.326-.338-.53-.57-.36-.403-.764-.904-1.203-1.503-1.277-1.74-2.562-3.91-3.767-6.54-2.337-5.102-4.074-11.265-4.95-18.567-1.15-9.59-.234-18.083 1.99-25.275a41.296 41.296 0 0 1 1.687-4.552c.198-.446.38-.83.543-1.147.093-.184.156-.3.183-.35l-1.383.806h62.4l-1.41-.852z" fill="#000"/><path d="M40.7 68.1C26 65.7 14.9 83.7 27 97.5c12.3 13.9 29.6 3.9 30-9.1.4-10.2-8.1-18.7-16.3-20.3m-14.2 6.1c4.9-5.2 13.9-8.3 22.7.2-.1 0-6-1.2-2.2 5.7 2.1 3.7 2 6.3-.2 11-.9 2.4-1.1 3.1-1.9 5.6-2.4-7-4.3-12.8-5.5-20.1 1.6.2 3.5.4 2.6-.8-.1-.2-8.7-1.4-8.7-1.4-.7-.1-.8.6-.8.6-.1.5 0 .6 1.8.9.3 2.5.4 3.7 1.4 7.5-1.1 3.1-2.3 6.3-2.8 11.6-3.3-8-4.5-13.3-4.3-19.6.6-.2 1.3.1 1.8-.2.4-.2.6-.9.2-1.1-1.5-.5-2.7.2-4.1.1m18.6 27c2.1-5.8 5.1-11.2 7.1-17 .4-1.1.8-2.9.5-5.1 4.1 7.6 2.8 17.7-7.6 22.1m-13.5-1.4c-9.5-6.5-10.6-16.7-6.7-23.5-.4 7.6 1.4 13.9 6.7 23.5m5.8 2.3c-1.3-.2-2.3-.5-3.5-1.1-.1-3.6 0-8 2.5-15.1 2.8 9.1 6.1 16 6.1 16-.7.2-2.7.6-5.1.2" fill="#FFF"/><g><path d="M85.6 47.8c0 7.8-14 14-31.2 14s-31.2-6.3-31.2-14c0-7.8 14-14 31.2-14 17.2-.1 31.2 6.2 31.2 14z" fill="#A06323"/><path d="M81.8 48.9C81.8 55 69.5 60 54.4 60 39.3 60 27 55 27 48.9s12.3-11.1 27.4-11.1c15.1 0 27.4 5 27.4 11.1z" fill="#7E4D18"/><g transform="translate(27 37)"><mask id="d" fill="#fff"><use xlink:href="#c"/></mask><path d="M28.42.724l-.84-1.848-28.6 13 .84 1.848 28.6-13zM41.413 2.427L40.587.573l-36.8 16.4.826 1.854 36.8-16.4zM51.412 6.327l-.824-1.854-37.8 16.8.824 1.854 37.8-16.8zM56.71 12.03l-.82-1.86-29.5 13 .82 1.86 29.5-13z" fill="#A06323" mask="url(#d)"/></g><path d="M54.4 60.208c-16.406 0-29.608-5.93-29.608-12.408 0-6.542 13.126-12.408 29.608-12.408 16.415-.096 29.608 5.83 29.608 12.408 0 6.542-13.126 12.408-29.608 12.408zm-.01-28c-18.034 0-32.782 6.59-32.782 15.592 0 8.933 14.826 15.592 32.792 15.592 18.044 0 32.792-6.59 32.792-15.592 0-9.034-14.834-15.696-32.8-15.592z" fill="#000"/></g><g><path d="M88.5 110.1c-5.1 15.2-22.1 28.8-40.4 31.9-15.8 2.6-32.2-10.6-31.5-17.9.8-8.3 11.2-7.1 15.9 2 7.1 14 35.2 6.5 46.7-11.6l9.3-4.4z" fill="#F80"/><path fill="#57A1BE" d="M34 44.2c-.1.1-.2.1-.3.2.2 0 .3-.1.5-.1-.1-.1-.2-.1-.2-.1z"/><path d="M44.5 43.3H44c-3.4-.2-6.8.1-9.9 1 3.8 2.2 7.3.9 10.4-1z" fill="#57A1BE"/><path d="M87.7 110.2c18.2-10.8 19.1-47.9 14.7-63.7C98 30.7 87.3 19.4 71.6 17.8c-15.7-1.6-29.2 4.4-36.9 14.9-5.2 7.1-2 11.3.1 12.4 2.1 1.1 11.4-1.8 14.3-6.4 5.9 4.2 12.9 3 19 1.6l11.2 4.1c-8.8-4.2-20.4-2.8-26.7 2-6.3 4.8-2.5 8.9 2 9.7 4.5.8 13.6-2.6 20.4-.7 6.8 1.9 8.7 4.6 15.7 11.7 0 0 1.8 15.6-2.7 21.6-6.7-4.5-18.6 0-22.9 8.4l-2.9 18.6c5.8.9 15.4.5 25.5-5.5z" fill="#FFD200"/><path d="M88.3 89.8c-.1 0-.2 0-.3-.1-.6-.2-.8-.8-.6-1.4 1.2-3.3 2-6.8 2.2-10.4.3-4-.1-7.9-1.1-11.8-.1-.6.2-1.2.8-1.3.6-.2 1.2.2 1.3.8 1 4 1.4 8.2 1.1 12.4-.3 3.8-1.1 7.5-2.4 11 0 .5-.5.8-1 .8z" fill="#000"/><path d="M66.2 97.5c-.2 0-.3-.1-.5-.1-.5-.3-.7-1-.4-1.5 3.3-5.7 8.9-9 15.6-9.2 5.5-.2 10.7 1.9 12.8 5 .3.5.2 1.2-.3 1.5-.5.3-1.2.2-1.5-.3-1.7-2.5-6.3-4.2-11-4.1-3.4.1-9.8 1.3-13.8 8.2-.1.3-.5.5-.9.5z" fill="#000"/><path d="M65.6 116.9c-1.1-.1-2-.2-2.7-.3-.6-.1-1-.6-.9-1.2.1-.6.7-1 1.2-.9 3.7.6 13.6 1.3 24.8-5.3 17.5-10.4 18.6-46.8 14.2-62.5-4.5-16.3-15.4-26.4-29.8-27.9-14.8-1.5-28.2 3.9-35.9 14.5-2.1 2.9-2.9 5.6-2.4 7.8.4 1.6 1.4 2.7 2.2 3.1 1.3.7 10.1-1.7 12.9-6.1.2-.2.4-.4.7-.5.3-.1.6 0 .8.2 5.6 4 12.3 2.8 18.1 1.4.6-.1 1.2.2 1.3.8.1.6-.2 1.2-.8 1.3-6.4 1.6-13.2 2.5-19-1.1-3.7 4.5-12.5 7.3-15.1 5.9-1.2-.7-2.7-2.2-3.3-4.5-.5-2-.3-5.2 2.8-9.5 8.2-11.3 22.3-17 37.9-15.4C88 18.2 99.5 29 104.3 46.1c2.1 7.4 3.2 20.9 1.2 34.2-1.6 10.6-5.8 24.5-16.3 30.7-9.8 5.8-18.6 6.3-23.6 5.9z" fill="#000"/><path d="M90.5 25.7c-4.3-.6-1.2 2.8.2 4.1 1.3 1.3 10.9 11.3 20.6 9.1 9.7-2.2 13.1-9.8 11.2-10.5-1.8-.6-23.2-1.4-32-2.7z" fill="#F80"/><path d="M89.6 26.7c.3.5.9 1.3 1.9 2.3l.3.2c7 6.9 12.5 8.6 15.9 8.8 1.2.1 2.4 0 3.5-.3 5.3-1.2 8.8-4.2 10.2-6.6.5-.9.7-1.5.7-1.8-.7-.1-2.6-.3-5.5-.5-1.6-.1-3.4-.2-5.3-.3-2.2-.1-4.5-.3-6.8-.4-4.3-.3-10.4-.8-14.1-1.3-.3-.1-.6-.1-.8-.1zm17.9 13.5c-3.7-.3-9.8-2.1-17.2-9.4l-.3-.3c-3.3-3.2-2.7-4.5-2.5-4.9.4-.8 1.2-1.2 2.6-1.1.2 0 .4 0 .7.1 3.7.6 9.7 1 14 1.3 2.3.2 4.6.3 6.8.4 1.9.1 3.7.2 5.3.3 4.5.3 5.8.5 6.3.6.8.3 1.3 1 1.2 2.1-.1 2.6-4 8.5-12.6 10.5-1.5.4-2.9.5-4.3.4zM48.5 32.3c-1.8 1.2-1.4 2.8.5 3.1 1.9.4 2 .5 3.9-.7 2-1.3 2.4-3.7.2-3.6-2.1.2-3.6.6-4.6 1.2zM43.4 32.9c-.1 1.2-1.1 2.1-2.3 2-1.2-.1-2.1-1.1-2-2.3.1-1.2 1.1-2.1 2.3-2 1.2.1 2.1 1.1 2 2.3zM68.6 28.7c-.1 1.2-1.1 2.1-2.3 2-1.2-.1-2.1-1.1-2-2.3.1-1.2 1.1-2.1 2.3-2 1.2.1 2.1 1.1 2 2.3zM42 143.3c-8.3-.6-16.2-4.7-21.1-9.3-3.7-3.5-5.7-7.2-5.4-10.1.4-3.5 2.3-5.9 5.3-6.4 3.9-.7 9.4 1.8 12.6 8.1 2.6 5.1 7.9 6.5 11.8 6.7 11.8.6 25.9-7.3 33-18.3.3-.5 1-.6 1.5-.3s.6 1 .3 1.5c-7.4 11.6-22.4 20-34.9 19.3-6.4-.3-11.2-3.1-13.6-7.8-2.7-5.3-7.2-7.5-10.3-6.9-2.1.4-3.3 2-3.6 4.5-.2 2.2 1.5 5.3 4.7 8.3 5.7 5.4 15.8 10.1 25.5 8.5 17.9-2.9 34.5-16 39.6-31.1.2-.6.8-.9 1.4-.7.6.2.9.8.7 1.4-5.3 15.6-22.6 29.3-41.2 32.3-2.1.4-4.2.5-6.3.3zM93.7 70c-.3 0-.5-.1-.7-.3l-.8-.8C85.7 62.1 81.8 58 75.5 56.3c-3.8-1.1-8.4-.4-12.5.3-3 .4-5.7.8-7.7.4-3.1-.5-5.5-2.4-6.1-4.7-.4-1.6-.1-4.1 3.6-6.9 6.9-5.3 19.1-6.2 27.8-2.1.5.3.8.9.5 1.4-.3.5-.9.8-1.4.5-8-3.8-19.2-3-25.5 1.9-2.2 1.7-3.2 3.3-2.8 4.7.4 1.4 2.1 2.7 4.3 3 1.7.3 4.3-.1 7.1-.5 4.3-.6 9.2-1.4 13.4-.2C83 56 87.3 60.5 93.8 67.2l.8.8c.4.4.4 1.1 0 1.5-.3.4-.6.5-.9.5z" fill="#000"/><path d="M16.5 83.9C11 79 4.2 82.5 5.1 89.5c.8 5.7 9.6 16.9 16.4 19 5.8 1.8 5.1-4.7 4.3-6.9-1.4-3.8-6.4-15.1-9.3-17.7z" fill="#FFD200"/><path d="M11.5 82.7c-1.5-.1-2.9.4-3.9 1.5-1.2 1.3-1.7 3.1-1.4 5.2.7 5.3 9.4 16.2 15.6 18.2.5.2.9.2 1.3.3 1 .1 1.4-.3 1.6-.6.9-1.1.6-3.7.1-5.2-1.5-4.1-6.3-15-9-17.4-1.3-1.2-2.8-1.9-4.3-2zM23 110c-.5 0-1.2-.2-1.8-.4C14 107.4 4.9 95.8 4.1 89.7c-.4-2.7.3-5.2 1.9-6.9 1.4-1.5 3.5-2.3 5.7-2.2 1.9.1 3.9 1 5.6 2.5 3.3 3 8.5 15.2 9.6 18.3.5 1.3 1.3 5-.4 7.2-.6.7-1.7 1.5-3.5 1.4z" fill="#000"/><path d="M65.2 111.9s-2 8.2-9.9 7.7c-7.8-.5-3.9-9.8-4.4-16.1-.5-6.2-3.8-14.6 2.2-18 6-3.4 12.1 8.2 13 12.6 1.4 5.8.9 9.3-.9 13.8z" fill="#FFD200"/><path d="M55.6 86.3c-.6 0-1.2.1-1.7.4-3.5 2-3.1 6.1-2.1 12.2.3 1.5.5 3 .6 4.5.2 1.9-.1 3.9-.3 5.9-.3 3.1-.6 6.3.6 7.8.5.6 1.4 1 2.7 1.1 6.5.5 8.3-6.3 8.4-6.6 0-.1 0-.1.1-.2 1.5-3.9 2.2-7.2.9-13-.8-3.9-5.3-11.9-9.2-12.1zm-.3 34.7c-2.1-.1-3.7-.8-4.7-2.1-2-2.4-1.6-6.2-1.3-9.9.2-1.9.4-3.8.3-5.4-.1-1.3-.3-2.7-.6-4.2-.9-5.6-2-12 3.5-15.1 1.1-.6 2.2-.9 3.3-.8 6.2.4 11 10.6 11.8 14.4 1.4 6.4.7 10.2-1 14.5-.8 3.2-4.2 9.1-11.3 8.6z" fill="#000"/></g><g><path d="M7.2 10.7c-8 9.6-3 21-.9 24.4 1.5 2.3 1.5 4.6.4 6.4-.7 1-.2 2.4 1 2.7l8.6 2.1c1.2.3 2.2-.7 2.1-1.8-.2-1.7.4-3.9 3.2-6 5.4-4 11.7-8.9 10-22.2L7.2 10.7z" fill="#FFF"/><path d="M2.043 25.33c.445 3.892 1.863 7.655 3.47 10.257 1.265 1.94 1.354 3.865.397 5.43-1.043 1.487-.26 3.625 1.565 4.08L16.08 47.2c1.784.445 3.403-1.017 3.242-2.784-.205-1.747.61-3.51 2.833-5.175 4.096-3.033 6.12-4.913 7.9-7.875 2.38-3.957 3.273-8.85 2.463-15.182l-.082-.64-.63-.145-24.4-5.6-.553-.128-.364.437C2.727 14.62 1.412 19.834 2.042 25.33zm4.95-13.728l24.4 5.6-.71-.785c.757 5.934-.058 10.41-2.214 13.993-1.622 2.696-3.505 4.446-7.42 7.346-2.74 2.054-3.852 4.453-3.57 6.852a.765.765 0 0 1-.955.794l-8.605-2.1a.818.818 0 0 1-.462-1.27c1.374-2.245 1.25-4.935-.383-7.438-1.458-2.362-2.78-5.872-3.193-9.474-.575-5.02.613-9.728 4.03-13.827l-.92.31z" fill="#000"/><path d="M8.4 13c-4.6 5.7-3.8 21 4.4 23.4C21 38.8 29.3 31.1 29.7 19c.5-12-21.3-6-21.3-6z" fill="#FFD200"/><path d="M26.1 6.4C8.3-.3 6.4 3.1 5.8 7.2c-.6 4.1 6.7 11.9 12.9 5.5 4.6 6.5 16.9 9.6 17.5 2.5 5.8 1.5 8.8-.8 6.2-3.8-2.6-3.1-16.3-5-16.3-5z" fill="#FFF"/><path d="M4.884 7.066c-.362 2.476 1.54 5.773 4.307 7.595 3.283 2.162 7.053 1.906 10.175-1.316l-1.42-.11c2.348 3.32 6.696 5.948 10.834 6.726 4.574.86 8.01-.73 8.343-4.682l-1.155.818c2.98.77 5.51.647 6.994-.337 1.71-1.135 1.73-3.13.138-4.966-1.2-1.432-4.138-2.605-8.415-3.67a85.363 85.363 0 0 0-5.812-1.216 95.182 95.182 0 0 0-2.646-.425l.2.05C10.842-.33 5.826.618 4.883 7.067zm21.09.25c.125.02.365.054.703.106.566.087 1.197.19 1.876.31 1.94.34 3.88.738 5.685 1.188 3.87.964 6.596 2.053 7.453 3.075.933 1.076.926 1.772.248 2.22-.966.642-2.986.74-5.506.09l-1.062-.276-.093 1.092c-.222 2.635-2.524 3.7-6.156 3.018-3.68-.692-7.604-3.063-9.664-5.975l-.645-.91-.775.8c-2.48 2.56-5.26 2.748-7.826 1.06-2.217-1.46-3.74-4.1-3.494-5.78.338-2.314 1.02-3.31 2.956-3.675 2.81-.532 7.94.535 16.102 3.606l.2.05z" fill="#000"/><path d="M51.4 7.4c-2.6.1-2.6 5.3 1.2 4.5 3.8-.7 1.4-4.6-1.2-4.5z" fill="#FFF"/></g></g></svg>