<svg xmlns="http://www.w3.org/2000/svg" xmlns:xlink="http://www.w3.org/1999/xlink" viewBox="0 0 127 146"><path fill="none" stroke="#231815" stroke-width="4.775" d="M30.8 30.6c-2.3-1.1-8.2-1.1-7.9 5.1.3 6.2 6.5 9.5 10.6 10.6 2.2.6 2.4-2 3.5-3 2.9-2.6-4-11.6-6.2-12.7z"/><defs><path id="a" d="M85.6 47.8H23.2s-7 12.3-4.6 32.3c2.4 20 10.8 28 10.8 28s6.9 8.4 24.8 8.4c17.8 0 25.1-8.4 25.1-8.4s9.1-7.7 10.8-28c1.8-20.3-4.5-32.3-4.5-32.3z"/></defs><clipPath id="b"><use xlink:href="#a" overflow="visible"/></clipPath><path clip-path="url(#b)" fill="none" stroke="#231815" stroke-width="4.775" d="M38.5 56.1S34 89.9 44 112.6M26.6 54.6c-7 13.8-2.6 42.7 9.3 56.7M69.1 56.1s4.5 33.8-5.5 56.5M81 54.6c7 13.8 2.6 42.7-9.3 56.7M53.8 113.2v-55"/><ellipse clip-path="url(#b)" fill="none" stroke="#231815" stroke-width="4.775" cx="54.4" cy="51.9" rx="33.9" ry="15.3"/><g clip-path="url(#b)"><path fill="none" stroke="#231815" stroke-width="4.775" d="M87.4 95.2c-1.9 8.5-16.5 16.7-33 16.7-17.1 0-31.2-8.6-32.1-17.4-2.6 2.1-4 4.6-4 7.1 0 8.6 16.2 15.6 36.1 15.6 19.9 0 36.1-7 36.1-15.6 0-2.3-1.1-4.5-3.1-6.4z"/><path fill="none" stroke="#231815" stroke-width="4.775" d="M87.4 95.2c-1.9 8.5-16.5 16.7-33 16.7-17.1 0-31.2-8.6-32.1-17.4-2.6 2.1-4 4.6-4 7.1 0 8.6 16.2 15.6 36.1 15.6 19.9 0 36.1-7 36.1-15.6 0-2.3-1.1-4.5-3.1-6.4z"/><path fill="none" stroke="#231815" stroke-width="4.775" d="M87.4 95.2c-1.9 8.5-16.5 16.7-33 16.7-17.1 0-31.2-8.6-32.1-17.4-2.6 2.1-4 4.6-4 7.1 0 8.6 16.2 15.6 36.1 15.6 19.9 0 36.1-7 36.1-15.6 0-2.3-1.1-4.5-3.1-6.4z"/></g><path fill="none" stroke="#231815" stroke-width="4.775" d="M40.7 68.1C26 65.7 14.9 83.7 27 97.5c12.3 13.9 29.6 3.9 30-9.1.4-10.2-8.1-18.7-16.3-20.3m-14.2 6.1c4.9-5.2 13.9-8.3 22.7.2-.1 0-6-1.2-2.2 5.7 2.1 3.7 2 6.3-.2 11-.9 2.4-1.1 3.1-1.9 5.6-2.4-7-4.3-12.8-5.5-20.1 1.6.2 3.5.4 2.6-.8-.1-.2-8.7-1.4-8.7-1.4-.7-.1-.8.6-.8.6-.1.5 0 .6 1.8.9.3 2.5.4 3.7 1.4 7.5-1.1 3.1-2.3 6.3-2.8 11.6-3.3-8-4.5-13.3-4.3-19.6.6-.2 1.3.1 1.8-.2.4-.2.6-.9.2-1.1-1.5-.5-2.7.2-4.1.1m18.6 27c2.1-5.8 5.1-11.2 7.1-17 .4-1.1.8-2.9.5-5.1 4.1 7.6 2.8 17.7-7.6 22.1m-13.5-1.4c-9.5-6.5-10.6-16.7-6.7-23.5-.4 7.6 1.4 13.9 6.7 23.5m5.8 2.3c-1.3-.2-2.3-.5-3.5-1.1-.1-3.6 0-8 2.5-15.1 2.8 9.1 6.1 16 6.1 16-.7.2-2.7.6-5.1.2M85.6 47.8c0 7.8-14 14-31.2 14s-31.2-6.3-31.2-14c0-7.8 14-14 31.2-14 17.2-.1 31.2 6.2 31.2 14z"/><defs><path id="c" d="M81.8 48.9C81.8 55 69.5 60 54.4 60 39.3 60 27 55 27 48.9s12.3-11.1 27.4-11.1c15.1 0 27.4 5 27.4 11.1z"/></defs><clipPath id="d"><use xlink:href="#c" overflow="visible"/></clipPath><g clip-path="url(#d)" fill="none" stroke="#231815" stroke-width="4.775"><path d="M26.4 49.8l28.6-13M31.2 54.9L68 38.5M40.2 59.2L78 42.4M53.8 61.1l29.5-13"/></g><defs><path id="e" d="M85.6 47.8H23.2s-7 12.3-4.6 32.3c2.4 20 10.8 28 10.8 28s6.9 8.4 24.8 8.4c17.8 0 25.1-8.4 25.1-8.4s9.1-7.7 10.8-28c1.8-20.3-4.5-32.3-4.5-32.3z"/></defs><clipPath id="f"><use xlink:href="#e" overflow="visible"/></clipPath><path clip-path="url(#f)" fill="none" stroke="#231815" stroke-width="4.775" d="M38.5 56.1S34 89.9 44 112.6M26.6 54.6c-7 13.8-2.6 42.7 9.3 56.7M69.1 56.1s4.5 33.8-5.5 56.5M81 54.6c7 13.8 2.6 42.7-9.3 56.7M53.8 113.2v-55"/><ellipse clip-path="url(#f)" fill="none" stroke="#231815" stroke-width="4.775" cx="54.4" cy="51.9" rx="33.9" ry="15.3"/><g clip-path="url(#f)"><path fill="none" stroke="#231815" stroke-width="4.775" d="M87.4 95.2c-1.9 8.5-16.5 16.7-33 16.7-17.1 0-31.2-8.6-32.1-17.4-2.6 2.1-4 4.6-4 7.1 0 8.6 16.2 15.6 36.1 15.6 19.9 0 36.1-7 36.1-15.6 0-2.3-1.1-4.5-3.1-6.4z"/><path fill="none" stroke="#231815" stroke-width="4.775" d="M87.4 95.2c-1.9 8.5-16.5 16.7-33 16.7-17.1 0-31.2-8.6-32.1-17.4-2.6 2.1-4 4.6-4 7.1 0 8.6 16.2 15.6 36.1 15.6 19.9 0 36.1-7 36.1-15.6 0-2.3-1.1-4.5-3.1-6.4z"/><path fill="none" stroke="#231815" stroke-width="4.775" d="M87.4 95.2c-1.9 8.5-16.5 16.7-33 16.7-17.1 0-31.2-8.6-32.1-17.4-2.6 2.1-4 4.6-4 7.1 0 8.6 16.2 15.6 36.1 15.6 19.9 0 36.1-7 36.1-15.6 0-2.3-1.1-4.5-3.1-6.4z"/></g><path fill="none" stroke="#231815" stroke-width="4.775" d="M40.7 68.1C26 65.7 14.9 83.7 27 97.5c12.3 13.9 29.6 3.9 30-9.1.4-10.2-8.1-18.7-16.3-20.3m-14.2 6.1c4.9-5.2 13.9-8.3 22.7.2-.1 0-6-1.2-2.2 5.7 2.1 3.7 2 6.3-.2 11-.9 2.4-1.1 3.1-1.9 5.6-2.4-7-4.3-12.8-5.5-20.1 1.6.2 3.5.4 2.6-.8-.1-.2-8.7-1.4-8.7-1.4-.7-.1-.8.6-.8.6-.1.5 0 .6 1.8.9.3 2.5.4 3.7 1.4 7.5-1.1 3.1-2.3 6.3-2.8 11.6-3.3-8-4.5-13.3-4.3-19.6.6-.2 1.3.1 1.8-.2.4-.2.6-.9.2-1.1-1.5-.5-2.7.2-4.1.1m18.6 27c2.1-5.8 5.1-11.2 7.1-17 .4-1.1.8-2.9.5-5.1 4.1 7.6 2.8 17.7-7.6 22.1m-13.5-1.4c-9.5-6.5-10.6-16.7-6.7-23.5-.4 7.6 1.4 13.9 6.7 23.5m5.8 2.3c-1.3-.2-2.3-.5-3.5-1.1-.1-3.6 0-8 2.5-15.1 2.8 9.1 6.1 16 6.1 16-.7.2-2.7.6-5.1.2M85.6 47.8c0 7.8-14 14-31.2 14s-31.2-6.3-31.2-14c0-7.8 14-14 31.2-14 17.2-.1 31.2 6.2 31.2 14z"/><g><defs><path id="g" d="M81.8 48.9C81.8 55 69.5 60 54.4 60 39.3 60 27 55 27 48.9s12.3-11.1 27.4-11.1c15.1 0 27.4 5 27.4 11.1z"/></defs><clipPath id="h"><use xlink:href="#g" overflow="visible"/></clipPath><g clip-path="url(#h)" fill="none" stroke="#231815" stroke-width="4.775"><path d="M26.4 49.8l28.6-13M31.2 54.9L68 38.5M40.2 59.2L78 42.4M53.8 61.1l29.5-13"/></g></g><g><defs><path id="i" d="M85.6 47.8H23.2s-7 12.3-4.6 32.3c2.4 20 10.8 28 10.8 28s6.9 8.4 24.8 8.4c17.8 0 25.1-8.4 25.1-8.4s9.1-7.7 10.8-28c1.8-20.3-4.5-32.3-4.5-32.3z"/></defs><clipPath id="j"><use xlink:href="#i" overflow="visible"/></clipPath><path clip-path="url(#j)" fill="none" stroke="#231815" stroke-width="4.775" d="M38.5 56.1S34 89.9 44 112.6M26.6 54.6c-7 13.8-2.6 42.7 9.3 56.7M69.1 56.1s4.5 33.8-5.5 56.5M81 54.6c7 13.8 2.6 42.7-9.3 56.7M53.8 113.2v-55"/><ellipse clip-path="url(#j)" fill="none" stroke="#231815" stroke-width="4.775" cx="54.4" cy="51.9" rx="33.9" ry="15.3"/><g clip-path="url(#j)"><path fill="none" stroke="#231815" stroke-width="4.775" d="M87.4 95.2c-1.9 8.5-16.5 16.7-33 16.7-17.1 0-31.2-8.6-32.1-17.4-2.6 2.1-4 4.6-4 7.1 0 8.6 16.2 15.6 36.1 15.6 19.9 0 36.1-7 36.1-15.6 0-2.3-1.1-4.5-3.1-6.4z"/><path fill="none" stroke="#231815" stroke-width="4.775" d="M87.4 95.2c-1.9 8.5-16.5 16.7-33 16.7-17.1 0-31.2-8.6-32.1-17.4-2.6 2.1-4 4.6-4 7.1 0 8.6 16.2 15.6 36.1 15.6 19.9 0 36.1-7 36.1-15.6 0-2.3-1.1-4.5-3.1-6.4z"/><path fill="none" stroke="#231815" stroke-width="4.775" d="M87.4 95.2c-1.9 8.5-16.5 16.7-33 16.7-17.1 0-31.2-8.6-32.1-17.4-2.6 2.1-4 4.6-4 7.1 0 8.6 16.2 15.6 36.1 15.6 19.9 0 36.1-7 36.1-15.6 0-2.3-1.1-4.5-3.1-6.4z"/></g><path fill="none" stroke="#231815" stroke-width="4.775" d="M40.7 68.1C26 65.7 14.9 83.7 27 97.5c12.3 13.9 29.6 3.9 30-9.1.4-10.2-8.1-18.7-16.3-20.3m-14.2 6.1c4.9-5.2 13.9-8.3 22.7.2-.1 0-6-1.2-2.2 5.7 2.1 3.7 2 6.3-.2 11-.9 2.4-1.1 3.1-1.9 5.6-2.4-7-4.3-12.8-5.5-20.1 1.6.2 3.5.4 2.6-.8-.1-.2-8.7-1.4-8.7-1.4-.7-.1-.8.6-.8.6-.1.5 0 .6 1.8.9.3 2.5.4 3.7 1.4 7.5-1.1 3.1-2.3 6.3-2.8 11.6-3.3-8-4.5-13.3-4.3-19.6.6-.2 1.3.1 1.8-.2.4-.2.6-.9.2-1.1-1.5-.5-2.7.2-4.1.1m18.6 27c2.1-5.8 5.1-11.2 7.1-17 .4-1.1.8-2.9.5-5.1 4.1 7.6 2.8 17.7-7.6 22.1m-13.5-1.4c-9.5-6.5-10.6-16.7-6.7-23.5-.4 7.6 1.4 13.9 6.7 23.5m5.8 2.3c-1.3-.2-2.3-.5-3.5-1.1-.1-3.6 0-8 2.5-15.1 2.8 9.1 6.1 16 6.1 16-.7.2-2.7.6-5.1.2M85.6 47.8c0 7.8-14 14-31.2 14s-31.2-6.3-31.2-14c0-7.8 14-14 31.2-14 17.2-.1 31.2 6.2 31.2 14z"/><g><defs><path id="k" d="M81.8 48.9C81.8 55 69.5 60 54.4 60 39.3 60 27 55 27 48.9s12.3-11.1 27.4-11.1c15.1 0 27.4 5 27.4 11.1z"/></defs><clipPath id="l"><use xlink:href="#k" overflow="visible"/></clipPath><g clip-path="url(#l)" fill="none" stroke="#231815" stroke-width="4.775"><path d="M26.4 49.8l28.6-13M31.2 54.9L68 38.5M40.2 59.2L78 42.4M53.8 61.1l29.5-13"/></g></g></g><g><path fill="none" stroke="#231815" stroke-width="4.775" d="M88.5 110.1c-5.1 15.2-22.1 28.8-40.4 31.9-15.8 2.6-32.2-10.6-31.5-17.9.8-8.3 11.2-7.1 15.9 2 7.1 14 35.2 6.5 46.7-11.6l9.3-4.4z"/></g><g><path fill="none" stroke="#231815" stroke-width="4.775" d="M34 44.2c-.1.1-.2.1-.3.2.2 0 .3-.1.5-.1-.1-.1-.2-.1-.2-.1z"/></g><g><path fill="none" stroke="#231815" stroke-width="4.775" d="M44.5 43.3H44c-3.4-.2-6.8.1-9.9 1 3.8 2.2 7.3.9 10.4-1z"/></g><g><path fill="none" stroke="#231815" stroke-width="4.775" d="M62.2 115.7c5.8.9 15.4.5 25.5-5.5 18.2-10.8 19.1-47.9 14.7-63.7C98 30.7 87.3 19.4 71.6 17.8c-15.7-1.6-29.2 4.4-36.9 14.9-5.2 7.1-2 11.3.1 12.4 2.1 1.1 11.4-1.8 14.3-6.4 5.9 4.2 12.9 3 19 1.6l11.2 4.1c-8.8-4.2-20.4-2.8-26.7 2-6.3 4.8-2.5 8.9 2 9.7 4.5.8 13.6-2.6 20.4-.7 6.8 1.9 8.7 4.6 15.7 11.7 0 0 1.8 15.6-2.7 21.6-6.7-4.5-18.6 0-22.9 8.4l-2.9 18.6z"/></g><g><path fill="none" stroke="#231815" stroke-width="4.775" d="M88.3 89.8c-.1 0-.2 0-.3-.1-.6-.2-.8-.8-.6-1.4 1.2-3.3 2-6.8 2.2-10.4.3-4-.1-7.9-1.1-11.8-.1-.6.2-1.2.8-1.3.6-.2 1.2.2 1.3.8 1 4 1.4 8.2 1.1 12.4-.3 3.8-1.1 7.5-2.4 11 0 .5-.5.8-1 .8z"/></g><g><path fill="none" stroke="#231815" stroke-width="4.775" d="M66.2 97.5c-.2 0-.3-.1-.5-.1-.5-.3-.7-1-.4-1.5 3.3-5.7 8.9-9 15.6-9.2 5.5-.2 10.7 1.9 12.8 5 .3.5.2 1.2-.3 1.5-.5.3-1.2.2-1.5-.3-1.7-2.5-6.3-4.2-11-4.1-3.4.1-9.8 1.3-13.8 8.2-.1.3-.5.5-.9.5z"/></g><g><path fill="none" stroke="#231815" stroke-width="4.775" d="M65.6 116.9c-1.1-.1-2-.2-2.7-.3-.6-.1-1-.6-.9-1.2.1-.6.7-1 1.2-.9 3.7.6 13.6 1.3 24.8-5.3 17.5-10.4 18.6-46.8 14.2-62.5-4.5-16.3-15.4-26.4-29.8-27.9-14.8-1.5-28.2 3.9-35.9 14.5-2.1 2.9-2.9 5.6-2.4 7.8.4 1.6 1.4 2.7 2.2 3.1 1.3.7 10.1-1.7 12.9-6.1.2-.2.4-.4.7-.5.3-.1.6 0 .8.2 5.6 4 12.3 2.8 18.1 1.4.6-.1 1.2.2 1.3.8.1.6-.2 1.2-.8 1.3-6.4 1.6-13.2 2.5-19-1.1-3.7 4.5-12.5 7.3-15.1 5.9-1.2-.7-2.7-2.2-3.3-4.5-.5-2-.3-5.2 2.8-9.5 8.2-11.3 22.3-17 37.9-15.4C88 18.2 99.5 29 104.3 46.1c2.1 7.4 3.2 20.9 1.2 34.2-1.6 10.6-5.8 24.5-16.3 30.7-9.8 5.8-18.6 6.3-23.6 5.9z"/></g><g><path fill="none" stroke="#231815" stroke-width="4.775" d="M90.5 25.7c-4.3-.6-1.2 2.8.2 4.1 1.3 1.3 10.9 11.3 20.6 9.1 9.7-2.2 13.1-9.8 11.2-10.5-1.8-.6-23.2-1.4-32-2.7z"/></g><g><path fill="none" stroke="#231815" stroke-width="4.775" d="M89.6 26.7c.3.5.9 1.3 1.9 2.3l.3.2c7 6.9 12.5 8.6 15.9 8.8 1.2.1 2.4 0 3.5-.3 5.3-1.2 8.8-4.2 10.2-6.6.5-.9.7-1.5.7-1.8-.7-.1-2.6-.3-5.5-.5-1.6-.1-3.4-.2-5.3-.3-2.2-.1-4.5-.3-6.8-.4-4.3-.3-10.4-.8-14.1-1.3-.3-.1-.6-.1-.8-.1zm17.9 13.5c-3.7-.3-9.8-2.1-17.2-9.4l-.3-.3c-3.3-3.2-2.7-4.5-2.5-4.9.4-.8 1.2-1.2 2.6-1.1.2 0 .4 0 .7.1 3.7.6 9.7 1 14 1.3 2.3.2 4.6.3 6.8.4 1.9.1 3.7.2 5.3.3 4.5.3 5.8.5 6.3.6.8.3 1.3 1 1.2 2.1-.1 2.6-4 8.5-12.6 10.5-1.5.4-2.9.5-4.3.4z"/></g><g><path fill="none" stroke="#231815" stroke-width="4.775" d="M48.5 32.3c-1.8 1.2-1.4 2.8.5 3.1 1.9.4 2 .5 3.9-.7 2-1.3 2.4-3.7.2-3.6-2.1.2-3.6.6-4.6 1.2z"/></g><g><path fill="none" stroke="#231815" stroke-width="4.775" d="M43.4 32.9c-.1 1.2-1.1 2.1-2.3 2-1.2-.1-2.1-1.1-2-2.3.1-1.2 1.1-2.1 2.3-2 1.2.1 2.1 1.1 2 2.3z"/></g><g><path fill="none" stroke="#231815" stroke-width="4.775" d="M68.6 28.7c-.1 1.2-1.1 2.1-2.3 2-1.2-.1-2.1-1.1-2-2.3.1-1.2 1.1-2.1 2.3-2 1.2.1 2.1 1.1 2 2.3z"/></g><g><path fill="none" stroke="#231815" stroke-width="4.775" d="M42 143.3c-8.3-.6-16.2-4.7-21.1-9.3-3.7-3.5-5.7-7.2-5.4-10.1.4-3.5 2.3-5.9 5.3-6.4 3.9-.7 9.4 1.8 12.6 8.1 2.6 5.1 7.9 6.5 11.8 6.7 11.8.6 25.9-7.3 33-18.3.3-.5 1-.6 1.5-.3s.6 1 .3 1.5c-7.4 11.6-22.4 20-34.9 19.3-6.4-.3-11.2-3.1-13.6-7.8-2.7-5.3-7.2-7.5-10.3-6.9-2.1.4-3.3 2-3.6 4.5-.2 2.2 1.5 5.3 4.7 8.3 5.7 5.4 15.8 10.1 25.5 8.5 17.9-2.9 34.5-16 39.6-31.1.2-.6.8-.9 1.4-.7.6.2.9.8.7 1.4-5.3 15.6-22.6 29.3-41.2 32.3-2.1.4-4.2.5-6.3.3z"/></g><g><path fill="none" stroke="#231815" stroke-width="4.775" d="M93.7 70c-.3 0-.5-.1-.7-.3l-.8-.8C85.7 62.1 81.8 58 75.5 56.3c-3.8-1.1-8.4-.4-12.5.3-3 .4-5.7.8-7.7.4-3.1-.5-5.5-2.4-6.1-4.7-.4-1.6-.1-4.1 3.6-6.9 6.9-5.3 19.1-6.2 27.8-2.1.5.3.8.9.5 1.4-.3.5-.9.8-1.4.5-8-3.8-19.2-3-25.5 1.9-2.2 1.7-3.2 3.3-2.8 4.7.4 1.4 2.1 2.7 4.3 3 1.7.3 4.3-.1 7.1-.5 4.3-.6 9.2-1.4 13.4-.2C83 56 87.3 60.5 93.8 67.2l.8.8c.4.4.4 1.1 0 1.5-.3.4-.6.5-.9.5z"/></g><g><path fill="none" stroke="#231815" stroke-width="4.775" d="M16.5 83.9C11 79 4.2 82.5 5.1 89.5c.8 5.7 9.6 16.9 16.4 19 5.8 1.8 5.1-4.7 4.3-6.9-1.4-3.8-6.4-15.1-9.3-17.7z"/></g><g><path fill="none" stroke="#231815" stroke-width="4.775" d="M11.5 82.7c-1.5-.1-2.9.4-3.9 1.5-1.2 1.3-1.7 3.1-1.4 5.2.7 5.3 9.4 16.2 15.6 18.2.5.2.9.2 1.3.3 1 .1 1.4-.3 1.6-.6.9-1.1.6-3.7.1-5.2-1.5-4.1-6.3-15-9-17.4-1.3-1.2-2.8-1.9-4.3-2zM23 110c-.5 0-1.2-.2-1.8-.4C14 107.4 4.9 95.8 4.1 89.7c-.4-2.7.3-5.2 1.9-6.9 1.4-1.5 3.5-2.3 5.7-2.2 1.9.1 3.9 1 5.6 2.5 3.3 3 8.5 15.2 9.6 18.3.5 1.3 1.3 5-.4 7.2-.6.7-1.7 1.5-3.5 1.4z"/></g><g><path fill="none" stroke="#231815" stroke-width="4.775" d="M65.2 111.9s-2 8.2-9.9 7.7c-7.8-.5-3.9-9.8-4.4-16.1-.5-6.2-3.8-14.6 2.2-18 6-3.4 12.1 8.2 13 12.6 1.4 5.8.9 9.3-.9 13.8z"/></g><g><path fill="none" stroke="#231815" stroke-width="4.775" d="M55.6 86.3c-.6 0-1.2.1-1.7.4-3.5 2-3.1 6.1-2.1 12.2.3 1.5.5 3 .6 4.5.2 1.9-.1 3.9-.3 5.9-.3 3.1-.6 6.3.6 7.8.5.6 1.4 1 2.7 1.1 6.5.5 8.3-6.3 8.4-6.6 0-.1 0-.1.1-.2 1.5-3.9 2.2-7.2.9-13-.8-3.9-5.3-11.9-9.2-12.1zm-.3 34.7c-2.1-.1-3.7-.8-4.7-2.1-2-2.4-1.6-6.2-1.3-9.9.2-1.9.4-3.8.3-5.4-.1-1.3-.3-2.7-.6-4.2-.9-5.6-2-12 3.5-15.1 1.1-.6 2.2-.9 3.3-.8 6.2.4 11 10.6 11.8 14.4 1.4 6.4.7 10.2-1 14.5-.8 3.2-4.2 9.1-11.3 8.6z"/></g><path fill="none" stroke="#231815" stroke-width="4.775" d="M34 43c-.1.1-.2.1-.3.2.2 0 .3-.1.5-.1-.1 0-.2 0-.2-.1zM27 45.7c-.1.1-.2.2-.4.3.2-.1.4-.1.5-.2l-.1-.1z"/><g fill="none" stroke="#231815" stroke-width="4.775"><path d="M7.2 10.7c-8 9.6-3 21-.9 24.4 1.5 2.3 1.5 4.6.4 6.4-.7 1-.2 2.4 1 2.7l8.6 2.1c1.2.3 2.2-.7 2.1-1.8-.2-1.7.4-3.9 3.2-6 5.4-4 11.7-8.9 10-22.2L7.2 10.7z"/><path d="M8.4 13c-4.6 5.7-3.8 21 4.4 23.4C21 38.8 29.3 31.1 29.7 19c.5-12-21.3-6-21.3-6z"/><path d="M26.1 6.4C8.3-.3 6.4 3.1 5.8 7.2c-.6 4.1 6.7 11.9 12.9 5.5 4.6 6.5 16.9 9.6 17.5 2.5 5.8 1.5 8.8-.8 6.2-3.8-2.6-3.1-16.3-5-16.3-5zM51.4 7.4c-2.6.1-2.6 5.3 1.2 4.5 3.8-.7 1.4-4.6-1.2-4.5z"/></g><g><path fill="#FFD200" stroke="#000" stroke-width="2.777" stroke-linecap="round" stroke-linejoin="round" stroke-miterlimit="10" d="M30.8 30.6c-2.3-1.1-8.2-1.1-7.9 5.1.3 6.2 6.5 9.5 10.6 10.6 2.2.6 2.4-2 3.5-3 2.9-2.6-4-11.6-6.2-12.7z"/><defs><path id="m" d="M85.6 47.8H23.2s-7 12.3-4.6 32.3c2.4 20 10.8 28 10.8 28s6.9 8.4 24.8 8.4c17.8 0 25.1-8.4 25.1-8.4s9.1-7.7 10.8-28c1.8-20.3-4.5-32.3-4.5-32.3z"/></defs><defs><path id="n" d="M81.8 48.9C81.8 55 69.5 60 54.4 60 39.3 60 27 55 27 48.9s12.3-11.1 27.4-11.1c15.1 0 27.4 5 27.4 11.1z"/></defs><defs><path id="o" d="M85.6 47.8H23.2s-7 12.3-4.6 32.3c2.4 20 10.8 28 10.8 28s6.9 8.4 24.8 8.4c17.8 0 25.1-8.4 25.1-8.4s9.1-7.7 10.8-28c1.8-20.3-4.5-32.3-4.5-32.3z"/></defs><use xlink:href="#o" overflow="visible" fill="#A06323"/><clipPath id="p"><use xlink:href="#o" overflow="visible"/></clipPath><path clip-path="url(#p)" fill="none" stroke="#7E4D18" stroke-width="2.03" stroke-linecap="round" stroke-linejoin="round" stroke-miterlimit="10" d="M38.5 56.1S34 89.9 44 112.6M26.6 54.6c-7 13.8-2.6 42.7 9.3 56.7M69.1 56.1s4.5 33.8-5.5 56.5M81 54.6c7 13.8 2.6 42.7-9.3 56.7"/><path clip-path="url(#p)" fill="#A06323" stroke="#7E4D18" stroke-width="2.03" stroke-linecap="round" stroke-linejoin="round" stroke-miterlimit="10" d="M53.8 113.2v-55"/><ellipse clip-path="url(#p)" fill="#7E4D18" stroke="#000" stroke-width="2.03" stroke-linecap="round" stroke-linejoin="round" stroke-miterlimit="10" cx="54.4" cy="51.9" rx="33.9" ry="15.3"/><g clip-path="url(#p)"><path fill="#7E4D18" d="M87.4 95.2c-1.9 8.5-16.5 16.7-33 16.7-17.1 0-31.2-8.6-32.1-17.4-2.6 2.1-4 4.6-4 7.1 0 8.6 16.2 15.6 36.1 15.6 19.9 0 36.1-7 36.1-15.6 0-2.3-1.1-4.5-3.1-6.4z"/><path fill="none" stroke="#000" stroke-width="2.208" stroke-linecap="round" stroke-linejoin="round" stroke-miterlimit="10" d="M87.4 95.2c-1.9 8.5-16.5 16.7-33 16.7-17.1 0-31.2-8.6-32.1-17.4-2.6 2.1-4 4.6-4 7.1 0 8.6 16.2 15.6 36.1 15.6 19.9 0 36.1-7 36.1-15.6 0-2.3-1.1-4.5-3.1-6.4z"/></g><use xlink:href="#o" overflow="visible" fill="none" stroke="#000" stroke-width="3.183" stroke-linecap="round" stroke-linejoin="round" stroke-miterlimit="10"/><path fill="#FFF" d="M40.7 68.1C26 65.7 14.9 83.7 27 97.5c12.3 13.9 29.6 3.9 30-9.1.4-10.2-8.1-18.7-16.3-20.3m-14.2 6.1c4.9-5.2 13.9-8.3 22.7.2-.1 0-6-1.2-2.2 5.7 2.1 3.7 2 6.3-.2 11-.9 2.4-1.1 3.1-1.9 5.6-2.4-7-4.3-12.8-5.5-20.1 1.6.2 3.5.4 2.6-.8-.1-.2-8.7-1.4-8.7-1.4-.7-.1-.8.6-.8.6-.1.5 0 .6 1.8.9.3 2.5.4 3.7 1.4 7.5-1.1 3.1-2.3 6.3-2.8 11.6-3.3-8-4.5-13.3-4.3-19.6.6-.2 1.3.1 1.8-.2.4-.2.6-.9.2-1.1-1.5-.5-2.7.2-4.1.1m18.6 27c2.1-5.8 5.1-11.2 7.1-17 .4-1.1.8-2.9.5-5.1 4.1 7.6 2.8 17.7-7.6 22.1m-13.5-1.4c-9.5-6.5-10.6-16.7-6.7-23.5-.4 7.6 1.4 13.9 6.7 23.5m5.8 2.3c-1.3-.2-2.3-.5-3.5-1.1-.1-3.6 0-8 2.5-15.1 2.8 9.1 6.1 16 6.1 16-.7.2-2.7.6-5.1.2"/><path fill="#A06323" stroke="#000" stroke-width="3.183" stroke-linecap="round" stroke-linejoin="round" stroke-miterlimit="10" d="M85.6 47.8c0 7.8-14 14-31.2 14s-31.2-6.3-31.2-14c0-7.8 14-14 31.2-14 17.2-.1 31.2 6.2 31.2 14z"/><defs><path id="q" d="M81.8 48.9C81.8 55 69.5 60 54.4 60 39.3 60 27 55 27 48.9s12.3-11.1 27.4-11.1c15.1 0 27.4 5 27.4 11.1z"/></defs><use xlink:href="#q" overflow="visible" fill="#7E4D18"/><clipPath id="r"><use xlink:href="#q" overflow="visible"/></clipPath><g clip-path="url(#r)" fill="none" stroke="#A06323" stroke-width="2.03" stroke-linecap="round" stroke-linejoin="round" stroke-miterlimit="10"><path d="M26.4 49.8l28.6-13M31.2 54.9L68 38.5M40.2 59.2L78 42.4M53.8 61.1l29.5-13"/></g><g><defs><path id="s" d="M85.6 47.8H23.2s-7 12.3-4.6 32.3c2.4 20 10.8 28 10.8 28s6.9 8.4 24.8 8.4c17.8 0 25.1-8.4 25.1-8.4s9.1-7.7 10.8-28c1.8-20.3-4.5-32.3-4.5-32.3z"/></defs><defs><path id="t" d="M81.8 48.9C81.8 55 69.5 60 54.4 60 39.3 60 27 55 27 48.9s12.3-11.1 27.4-11.1c15.1 0 27.4 5 27.4 11.1z"/></defs></g><g><path fill="#F80" d="M88.5 110.1c-5.1 15.2-22.1 28.8-40.4 31.9-15.8 2.6-32.2-10.6-31.5-17.9.8-8.3 11.2-7.1 15.9 2 7.1 14 35.2 6.5 46.7-11.6l9.3-4.4z"/></g><g><path fill="#57A1BE" d="M34 44.2c-.1.1-.2.1-.3.2.2 0 .3-.1.5-.1-.1-.1-.2-.1-.2-.1z"/></g><g><path fill="#57A1BE" d="M44.5 43.3H44c-3.4-.2-6.8.1-9.9 1 3.8 2.2 7.3.9 10.4-1z"/></g><g><path fill="#FFD200" d="M62.2 115.7c5.8.9 15.4.5 25.5-5.5 18.2-10.8 19.1-47.9 14.7-63.7C98 30.7 87.3 19.4 71.6 17.8c-15.7-1.6-29.2 4.4-36.9 14.9-5.2 7.1-2 11.3.1 12.4 2.1 1.1 11.4-1.8 14.3-6.4 5.9 4.2 12.9 3 19 1.6l11.2 4.1c-8.8-4.2-20.4-2.8-26.7 2-6.3 4.8-2.5 8.9 2 9.7 4.5.8 13.6-2.6 20.4-.7 6.8 1.9 8.7 4.6 15.7 11.7 0 0 1.8 15.6-2.7 21.6-6.7-4.5-18.6 0-22.9 8.4l-2.9 18.6z"/></g><g><path d="M88.3 89.8c-.1 0-.2 0-.3-.1-.6-.2-.8-.8-.6-1.4 1.2-3.3 2-6.8 2.2-10.4.3-4-.1-7.9-1.1-11.8-.1-.6.2-1.2.8-1.3.6-.2 1.2.2 1.3.8 1 4 1.4 8.2 1.1 12.4-.3 3.8-1.1 7.5-2.4 11 0 .5-.5.8-1 .8z"/></g><g><path d="M66.2 97.5c-.2 0-.3-.1-.5-.1-.5-.3-.7-1-.4-1.5 3.3-5.7 8.9-9 15.6-9.2 5.5-.2 10.7 1.9 12.8 5 .3.5.2 1.2-.3 1.5-.5.3-1.2.2-1.5-.3-1.7-2.5-6.3-4.2-11-4.1-3.4.1-9.8 1.3-13.8 8.2-.1.3-.5.5-.9.5z"/></g><g><path d="M65.6 116.9c-1.1-.1-2-.2-2.7-.3-.6-.1-1-.6-.9-1.2.1-.6.7-1 1.2-.9 3.7.6 13.6 1.3 24.8-5.3 17.5-10.4 18.6-46.8 14.2-62.5-4.5-16.3-15.4-26.4-29.8-27.9-14.8-1.5-28.2 3.9-35.9 14.5-2.1 2.9-2.9 5.6-2.4 7.8.4 1.6 1.4 2.7 2.2 3.1 1.3.7 10.1-1.7 12.9-6.1.2-.2.4-.4.7-.5.3-.1.6 0 .8.2 5.6 4 12.3 2.8 18.1 1.4.6-.1 1.2.2 1.3.8.1.6-.2 1.2-.8 1.3-6.4 1.6-13.2 2.5-19-1.1-3.7 4.5-12.5 7.3-15.1 5.9-1.2-.7-2.7-2.2-3.3-4.5-.5-2-.3-5.2 2.8-9.5 8.2-11.3 22.3-17 37.9-15.4C88 18.2 99.5 29 104.3 46.1c2.1 7.4 3.2 20.9 1.2 34.2-1.6 10.6-5.8 24.5-16.3 30.7-9.8 5.8-18.6 6.3-23.6 5.9z"/></g><g><path fill="#F80" d="M90.5 25.7c-4.3-.6-1.2 2.8.2 4.1 1.3 1.3 10.9 11.3 20.6 9.1 9.7-2.2 13.1-9.8 11.2-10.5-1.8-.6-23.2-1.4-32-2.7z"/></g><g><path d="M89.6 26.7c.3.5.9 1.3 1.9 2.3l.3.2c7 6.9 12.5 8.6 15.9 8.8 1.2.1 2.4 0 3.5-.3 5.3-1.2 8.8-4.2 10.2-6.6.5-.9.7-1.5.7-1.8-.7-.1-2.6-.3-5.5-.5-1.6-.1-3.4-.2-5.3-.3-2.2-.1-4.5-.3-6.8-.4-4.3-.3-10.4-.8-14.1-1.3-.3-.1-.6-.1-.8-.1zm17.9 13.5c-3.7-.3-9.8-2.1-17.2-9.4l-.3-.3c-3.3-3.2-2.7-4.5-2.5-4.9.4-.8 1.2-1.2 2.6-1.1.2 0 .4 0 .7.1 3.7.6 9.7 1 14 1.3 2.3.2 4.6.3 6.8.4 1.9.1 3.7.2 5.3.3 4.5.3 5.8.5 6.3.6.8.3 1.3 1 1.2 2.1-.1 2.6-4 8.5-12.6 10.5-1.5.4-2.9.5-4.3.4z"/></g><g><path d="M48.5 32.3c-1.8 1.2-1.4 2.8.5 3.1 1.9.4 2 .5 3.9-.7 2-1.3 2.4-3.7.2-3.6-2.1.2-3.6.6-4.6 1.2z"/></g><g><path d="M43.4 32.9c-.1 1.2-1.1 2.1-2.3 2-1.2-.1-2.1-1.1-2-2.3.1-1.2 1.1-2.1 2.3-2 1.2.1 2.1 1.1 2 2.3z"/></g><g><path d="M68.6 28.7c-.1 1.2-1.1 2.1-2.3 2-1.2-.1-2.1-1.1-2-2.3.1-1.2 1.1-2.1 2.3-2 1.2.1 2.1 1.1 2 2.3z"/></g><g><path d="M42 143.3c-8.3-.6-16.2-4.7-21.1-9.3-3.7-3.5-5.7-7.2-5.4-10.1.4-3.5 2.3-5.9 5.3-6.4 3.9-.7 9.4 1.8 12.6 8.1 2.6 5.1 7.9 6.5 11.8 6.7 11.8.6 25.9-7.3 33-18.3.3-.5 1-.6 1.5-.3s.6 1 .3 1.5c-7.4 11.6-22.4 20-34.9 19.3-6.4-.3-11.2-3.1-13.6-7.8-2.7-5.3-7.2-7.5-10.3-6.9-2.1.4-3.3 2-3.6 4.5-.2 2.2 1.5 5.3 4.7 8.3 5.7 5.4 15.8 10.1 25.5 8.5 17.9-2.9 34.5-16 39.6-31.1.2-.6.8-.9 1.4-.7.6.2.9.8.7 1.4-5.3 15.6-22.6 29.3-41.2 32.3-2.1.4-4.2.5-6.3.3z"/></g><g><path d="M93.7 70c-.3 0-.5-.1-.7-.3l-.8-.8C85.7 62.1 81.8 58 75.5 56.3c-3.8-1.1-8.4-.4-12.5.3-3 .4-5.7.8-7.7.4-3.1-.5-5.5-2.4-6.1-4.7-.4-1.6-.1-4.1 3.6-6.9 6.9-5.3 19.1-6.2 27.8-2.1.5.3.8.9.5 1.4-.3.5-.9.8-1.4.5-8-3.8-19.2-3-25.5 1.9-2.2 1.7-3.2 3.3-2.8 4.7.4 1.4 2.1 2.7 4.3 3 1.7.3 4.3-.1 7.1-.5 4.3-.6 9.2-1.4 13.4-.2C83 56 87.3 60.5 93.8 67.2l.8.8c.4.4.4 1.1 0 1.5-.3.4-.6.5-.9.5z"/></g><g><path fill="#FFD200" d="M16.5 83.9C11 79 4.2 82.5 5.1 89.5c.8 5.7 9.6 16.9 16.4 19 5.8 1.8 5.1-4.7 4.3-6.9-1.4-3.8-6.4-15.1-9.3-17.7z"/></g><g><path d="M11.5 82.7c-1.5-.1-2.9.4-3.9 1.5-1.2 1.3-1.7 3.1-1.4 5.2.7 5.3 9.4 16.2 15.6 18.2.5.2.9.2 1.3.3 1 .1 1.4-.3 1.6-.6.9-1.1.6-3.7.1-5.2-1.5-4.1-6.3-15-9-17.4-1.3-1.2-2.8-1.9-4.3-2zM23 110c-.5 0-1.2-.2-1.8-.4C14 107.4 4.9 95.8 4.1 89.7c-.4-2.7.3-5.2 1.9-6.9 1.4-1.5 3.5-2.3 5.7-2.2 1.9.1 3.9 1 5.6 2.5 3.3 3 8.5 15.2 9.6 18.3.5 1.3 1.3 5-.4 7.2-.6.7-1.7 1.5-3.5 1.4z"/></g><g><path fill="#FFD200" d="M65.2 111.9s-2 8.2-9.9 7.7c-7.8-.5-3.9-9.8-4.4-16.1-.5-6.2-3.8-14.6 2.2-18 6-3.4 12.1 8.2 13 12.6 1.4 5.8.9 9.3-.9 13.8z"/></g><g><path d="M55.6 86.3c-.6 0-1.2.1-1.7.4-3.5 2-3.1 6.1-2.1 12.2.3 1.5.5 3 .6 4.5.2 1.9-.1 3.9-.3 5.9-.3 3.1-.6 6.3.6 7.8.5.6 1.4 1 2.7 1.1 6.5.5 8.3-6.3 8.4-6.6 0-.1 0-.1.1-.2 1.5-3.9 2.2-7.2.9-13-.8-3.9-5.3-11.9-9.2-12.1zm-.3 34.7c-2.1-.1-3.7-.8-4.7-2.1-2-2.4-1.6-6.2-1.3-9.9.2-1.9.4-3.8.3-5.4-.1-1.3-.3-2.7-.6-4.2-.9-5.6-2-12 3.5-15.1 1.1-.6 2.2-.9 3.3-.8 6.2.4 11 10.6 11.8 14.4 1.4 6.4.7 10.2-1 14.5-.8 3.2-4.2 9.1-11.3 8.6z"/></g><g><path fill="#FFF" stroke="#000" stroke-width="1.852" stroke-linecap="round" stroke-linejoin="round" stroke-miterlimit="10" d="M7.2 10.7c-8 9.6-3 21-.9 24.4 1.5 2.3 1.5 4.6.4 6.4-.7 1-.2 2.4 1 2.7l8.6 2.1c1.2.3 2.2-.7 2.1-1.8-.2-1.7.4-3.9 3.2-6 5.4-4 11.7-8.9 10-22.2L7.2 10.7z"/><path fill="#FFD200" d="M8.4 13c-4.6 5.7-3.8 21 4.4 23.4C21 38.8 29.3 31.1 29.7 19c.5-12-21.3-6-21.3-6z"/><path fill="#FFF" stroke="#000" stroke-width="1.852" stroke-linecap="round" stroke-linejoin="round" stroke-miterlimit="10" d="M26.1 6.4C8.3-.3 6.4 3.1 5.8 7.2c-.6 4.1 6.7 11.9 12.9 5.5 4.6 6.5 16.9 9.6 17.5 2.5 5.8 1.5 8.8-.8 6.2-3.8-2.6-3.1-16.3-5-16.3-5zM51.4 7.4c-2.6.1-2.6 5.3 1.2 4.5 3.8-.7 1.4-4.6-1.2-4.5z"/></g></g><g><defs><path id="u" d="M85.6 47.8H23.2s-7 12.3-4.6 32.3c2.4 20 10.8 28 10.8 28s6.9 8.4 24.8 8.4c17.8 0 25.1-8.4 25.1-8.4s9.1-7.7 10.8-28c1.8-20.3-4.5-32.3-4.5-32.3z"/></defs><defs><path id="v" d="M81.8 48.9C81.8 55 69.5 60 54.4 60 39.3 60 27 55 27 48.9s12.3-11.1 27.4-11.1c15.1 0 27.4 5 27.4 11.1z"/></defs><defs><path id="w" d="M85.6 47.8H23.2s-7 12.3-4.6 32.3c2.4 20 10.8 28 10.8 28s6.9 8.4 24.8 8.4c17.8 0 25.1-8.4 25.1-8.4s9.1-7.7 10.8-28c1.8-20.3-4.5-32.3-4.5-32.3z"/></defs><defs><path id="x" d="M81.8 48.9C81.8 55 69.5 60 54.4 60 39.3 60 27 55 27 48.9s12.3-11.1 27.4-11.1c15.1 0 27.4 5 27.4 11.1z"/></defs><g><defs><path id="y" d="M85.6 47.8H23.2s-7 12.3-4.6 32.3c2.4 20 10.8 28 10.8 28s6.9 8.4 24.8 8.4c17.8 0 25.1-8.4 25.1-8.4s9.1-7.7 10.8-28c1.8-20.3-4.5-32.3-4.5-32.3z"/></defs><defs><path id="z" d="M81.8 48.9C81.8 55 69.5 60 54.4 60 39.3 60 27 55 27 48.9s12.3-11.1 27.4-11.1c15.1 0 27.4 5 27.4 11.1z"/></defs></g></g></svg>