<svg id="レイヤー_1" xmlns="http://www.w3.org/2000/svg" viewBox="0 0 80 80"><style>.st0{fill:#fff}</style><path class="st0" d="M57.1 30h-1.7v-1.7c.7-1.1 1-2.4 1-3.7 0-3.7-2.7-6.7-6.3-7.1-.7-3.3-3.6-5.8-7-5.8-2 0-3.9.8-5.3 2.3-.7-.2-1.4-.3-2.1-.3-2.7 0-5.1 1.5-6.4 3.8-.4-.1-.8-.1-1.2-.1-4 0-7.2 3.2-7.2 7.2 0 1.4.4 2.6 1 3.7v27.1c0 4.9 4 8.9 8.9 8.9h15.6c4.5 0 8.2-3.4 8.8-7.8H57c3.3 0 5.9-2.6 5.9-5.9V35.9c.1-3.3-2.5-5.9-5.8-5.9zm-28.9-9.6c.5 0 1 .1 1.5.3.4.2.8.1 1.2-.1.4-.2.6-.5.8-.9.5-1.8 2.2-3.1 4.1-3.1.7 0 1.3.2 1.9.5.7.3 1.5.1 1.9-.5.8-1.2 2.1-1.9 3.5-1.9 2.3 0 4.2 1.9 4.2 4.2 0 .4.2.8.5 1.1.3.3.7.4 1.1.4h.3c2.3 0 4.2 1.9 4.2 4.2s-1.9 4.2-4.2 4.2H36.7c-.8 0-1.5.7-1.5 1.5v5.4c0 .8-.7 1.5-1.5 1.5s-1.5-.7-1.5-1.5v-5.4c0-.8-.7-1.5-1.5-1.5h-2.6c-2.3 0-4.2-1.9-4.2-4.2s2-4.2 4.3-4.2zm24.2 35c0 3.3-2.6 5.9-5.9 5.9H30.9c-3.3 0-5.9-2.6-5.9-5.9V31c1 .5 2.1.8 3.2.8h1.2v3.9c0 2.4 2 4.4 4.4 4.4 2.4 0 4.4-2 4.4-4.4v-3.9h11.1c1.1 0 2.2-.3 3.2-.8v24.4zm7.6-4.7c0 1.6-1.3 2.9-2.9 2.9h-1.7V32.9h1.7c1.6 0 2.9 1.3 2.9 2.9v14.9zm0 0"/><path class="st0" d="M50.5 37.5l-3 16.7c-.1.3-.2.6-.4.9-.2.2-.5.4-.8.5-.3.1-.7 0-1-.1-.3-.1-.5-.3-.7-.6L38.7 45l-5.9 9.7c-.1.2-.3.4-.6.6-.2.1-.5.2-.8.2-.4 0-.7-.1-1-.4-.3-.2-.5-.6-.5-1l-3-16.7h3.3l2.1 11.8 5.1-8.1c.1-.2.3-.4.6-.6.2-.1.5-.2.8-.2.3 0 .5.1.8.2.2.1.4.3.6.6l5.1 8.1 2.1-11.8h3.1z"/></svg>