<svg id="レイヤー_1" xmlns="http://www.w3.org/2000/svg" viewBox="0 0 80 80"><style>.st0{fill:#fff}</style><g id="XMLID_2_"><path id="XMLID_39_" class="st0" d="M56.4 18H23.6c-2.5 0-4.6 2-4.6 4.5v32.9c0 2.5 2.1 4.6 4.6 4.6h32.9c2.5 0 4.6-2.1 4.6-4.6V22.5C61 20 58.9 18 56.4 18zm1.2 38.1H22.4V27.4h35.1v28.7zm0 0"/><path id="XMLID_36_" class="st0" d="M34 33.7c0 1.9-1.5 3.4-3.4 3.4s-3.4-1.5-3.4-3.4 1.5-3.4 3.4-3.4 3.4 1.5 3.4 3.4zm0 0"/><path id="XMLID_35_" class="st0" d="M36.8 32.2h15v2.9h-15z"/><path id="XMLID_1_" class="st0" d="M34 42c0 1.9-1.5 3.4-3.4 3.4s-3.4-1.5-3.4-3.4 1.5-3.4 3.4-3.4S34 40.1 34 42zm0 0"/><path id="XMLID_7_" class="st0" d="M36.8 40.6h15v2.8h-15z"/><path id="XMLID_4_" class="st0" d="M34 50.4c0 1.9-1.5 3.4-3.4 3.4s-3.4-1.5-3.4-3.4 1.5-3.4 3.4-3.4 3.4 1.5 3.4 3.4zm0 0"/><path id="XMLID_3_" class="st0" d="M36.8 48.9h15v2.8h-15z"/></g></svg>