<svg id="レイヤー_1" xmlns="http://www.w3.org/2000/svg" viewBox="0 0 80 80"><style>.st0{fill:#fff}</style><g id="XMLID_2_"><path id="XMLID_4_" class="st0" d="M35.5 25.1c3.6 0 6.6 2.9 6.6 6.6v6.1c1 .1 1.9.4 2.7.8 1.5-2 2.4-4.4 2.4-7C47.2 25.2 42 20 35.5 20c-6.4 0-11.7 5.2-11.7 11.7 0 4 2 7.5 5.1 9.6v-9.6c.1-3.6 3-6.6 6.6-6.6z"/><path id="XMLID_3_" class="st0" d="M56.9 58.1V49c0-1.7-1.4-3.1-3.1-3.1-1.5 0-2.8 1.2-3 2.6v-2.6c0-1.6-1.4-3.1-3.1-3.1-1.5 0-2.8 1.2-3 2.6v-1.1c0-1.7-1.4-3.1-3.1-3.1-1.5 0-2.8 1.2-3 2.6V31.7c0-1.7-1.4-3.1-3.1-3.1-1.7 0-3.1 1.4-3.1 3.1v18.1c-2.1-3.7-5.5-5.4-7.1-5.4-.6 0-1.2.2-1.6.7-1.6 1.6.1 4.2 3.4 9.3.8 1.2 1.5 3.4 2.2 5.7h27.4c.2-.7.2-1.3.2-2z"/></g></svg>