<svg id="レイヤー_1" xmlns="http://www.w3.org/2000/svg" viewBox="0 0 80 80"><style>.st0{fill:#fff}</style><path id="XMLID_2_" class="st0" d="M59.9 20.1c-5.5-5.5-14.4-5.5-19.9 0-2.7 2.7-4.1 6.2-4.1 9.9 0 1.1.1 2.1.3 3.1l-16.1 16c-2.9 2.9-2.9 7.7 0 10.6 2.9 2.9 7.7 2.9 10.6 0l16.1-16.1c4.5 1 9.5-.2 13-3.8 5.6-5.3 5.6-14.2.1-19.7zM29.3 52.2l-.8.8c-.4.4-1.1.4-1.5 0-.4-.4-.4-1.1 0-1.5l.7-.7c.4-.4 1.1-.4 1.5 0 .5.4.5 1 .1 1.4zm5.7-5.6l-3.2 3.2c-.4.4-1.1.4-1.5 0-.4-.4-.4-1.1 0-1.5l3.2-3.2c.4-.4 1.1-.4 1.5 0 .4.4.4 1 0 1.5zm23.7-10.1L43.5 21.3c2.9-2.2 6.7-2.7 10-1.5l-2 2c-.6.6-.6 1.6 0 2.3.6.6 1.6.6 2.3 0l2.7-2.7c.4.3.8.7 1.2 1 .4.4.7.8 1 1.2L56 26.2c-.6.6-.6 1.6 0 2.3.6.6 1.6.6 2.3 0l2-2c1 3.3.5 7.1-1.6 10zm0 0"/></svg>