<svg id="レイヤー_1" xmlns="http://www.w3.org/2000/svg" viewBox="0 0 80 80"><style>.st0{fill:#FFF}</style><g id="XMLID_2_"><path id="XMLID_7_" class="st0" d="M67.8 36.4c-.2-.4-.5-.6-1-.6h-3.1C61.8 25.1 52.4 17 41.1 17c-12.7 0-23 10.3-23 23s10.3 23 23 23c8.2 0 15.8-4.4 19.9-11.5.6-1 .2-2.3-.8-2.9-1-.6-2.3-.2-2.9.8-3.4 5.8-9.6 9.4-16.3 9.4-10.4 0-18.8-8.4-18.8-18.8S30.6 21.2 41 21.2c8.9 0 16.4 6.3 18.3 14.6h-3.1c-.4 0-.8.2-.9.6-.2.4-.1.8.1 1.1l5.2 6.3c.2.2.5.4.8.4.3 0 .6-.1.8-.4l5.2-6.3c.5-.3.6-.7.4-1.1zm0 0"/><path id="XMLID_3_" class="st0" d="M41.1 22.2c-1.2 0-2.1.9-2.1 2.1V37c-.9.7-1.6 1.8-1.6 3 0 2 1.6 3.7 3.7 3.7.6 0 1.1-.1 1.5-.4l7.3 4.2c.3.2.7.3 1 .3.7 0 1.4-.4 1.8-1.1.6-1 .2-2.3-.8-2.9l-7.3-4.2c-.1-1.1-.7-2.1-1.5-2.7V24.3c.1-1.1-.8-2.1-2-2.1zm0 19.4c-.9 0-1.6-.7-1.6-1.6 0-.9.7-1.6 1.6-1.6.9 0 1.6.7 1.6 1.6 0 .9-.7 1.6-1.6 1.6zm0 0"/></g></svg>