<svg xmlns="http://www.w3.org/2000/svg" viewBox="0 0 150 150"><path fill="#205997" d="M83.1 121H68c-5.6 7.7-9.9 20.5-12.1 29h39.3c-2.2-8.5-6.5-21.4-12.1-29z"/><linearGradient id="a" gradientUnits="userSpaceOnUse" x1="68.818" y1="128.776" x2="83.41" y2="128.776"><stop offset="0" stop-color="#fbdccb"/><stop offset="1" stop-color="#fac5a0"/></linearGradient><ellipse fill="url(#a)" cx="76.1" cy="128.8" rx="7.3" ry="4.1"/><path fill="#824E2A" d="M129.7 77.7c.2 27.2-25.2 49.6-54.1 49.6-28.8 0-51.8-22.6-53.2-49.8-1-18.7 9.8-35.2 21.9-38.9 7.1-7.2 19.6-9.8 31.3-9.9 34.7-.1 53.9 20.5 54.1 49z"/><linearGradient id="b" gradientUnits="userSpaceOnUse" x1="28.733" y1="104.785" x2="40.337" y2="104.785"><stop offset="0" stop-color="#fbdccb"/><stop offset="1" stop-color="#fac5a0"/></linearGradient><path fill="url(#b)" d="M35.4 96.3c-1.8-.7-5-1-6.1 2-1.2 3-.3 9.4 3.2 12.9 2.5 2.5 5 3.2 8 2"/><linearGradient id="c" gradientUnits="userSpaceOnUse" x1="382.093" y1="104.785" x2="393.697" y2="104.785" gradientTransform="matrix(-1 0 0 1 504.508 0)"><stop offset="0" stop-color="#fbdccb"/><stop offset="1" stop-color="#fac5a0"/></linearGradient><path fill="url(#c)" d="M115.8 96.3c1.8-.7 5-1 6.1 2 1.2 3 .3 9.4-3.1 12.9-2.5 2.5-5 3.2-8 2"/><path fill="#FBDCCB" d="M77 53.7h-1.4-.1H74c-26.8.4-44.4 6.8-40.8 38.1 3.8 33.5 18.9 38.1 42.2 38.1 23.3 0 38.4-4.6 42.2-38.1 3.8-31.3-13.8-37.7-40.6-38.1z"/><g fill="#5E2D1F"><ellipse cx="51.2" cy="100.8" rx="5.4" ry="6.5"/><ellipse cx="99.9" cy="100.8" rx="5.4" ry="6.5"/></g><path fill="none" stroke="#942300" stroke-width="1.429" stroke-linecap="round" stroke-linejoin="round" d="M81.1 121.8c0 1.2-2.5 2.2-5.6 2.2-3.1 0-5.6-1-5.6-2.2"/><path d="M117.8 89.7c-1.4-.3-4.3-.9-5.9-1.2-1.6-.3-6.8-1.2-8.5-1.2-1.7 0-8.9-.1-10.9.3-2 .3-5.6.8-7.4 1.5-1.8.6-5.3 1.5-6.6 1.6-1.3.1-2.4.1-2.9.1s-1.7 0-2.9-.1c-1.3-.1-4.8-1-6.6-1.6-1.8-.6-5.4-1.1-7.4-1.5-2-.3-9.2-.3-10.9-.3-1.7 0-6.9.9-8.5 1.2-1.6.3-4.5.9-5.9 1.2-.5.1-.5.7-.4 1.5.1.8 0 2.4.2 2.9s-.1.5.6.8c.7.3 2 1 2.2 2.6.3 1.5 1.9 7.9 2.6 10.1.8 2.2 2.1 5 5 6.4 2.9 1.4 8.4 1.8 10.1 1.7 3.2-.2 6.4-.9 9.3-2.4 3.1-1.6 4.4-2.5 6.3-5.9 1.2-2.2 1.5-3.4 2.3-6 1-3.1.8-4.8 2-5.6 1-.6 1.5-.6 2-.6.6 0 1 0 2 .6 1.3.8 1 2.5 2 5.6.8 2.6 1.1 3.8 2.3 6 1.9 3.4 3.2 4.3 6.3 5.9 2.8 1.5 6.1 2.2 9.3 2.4 1.7.1 7.2-.3 10.1-1.7 2.9-1.4 4.2-4.1 5-6.4.8-2.2 2.4-8.6 2.7-10.1.3-1.5 1.5-2.2 2.2-2.6.7-.3.4-.3.6-.8.2-.5.1-2.2.2-2.9 0-.8-.1-1.4-.5-1.5zm-49.1 12.7c-1 4.5-1.5 6.2-6.2 9.3-1.9 1.2-4 1.8-6.3 2.2-2.3.4-7.2.3-10.5-.7s-4.3-3.2-5.2-5.4c-.9-2.2-1.3-7.7-1.4-10.1-.1-2.4.3-4.9 1.3-5.9 2.7-2.8 8.1-2.9 13.1-2.9C59 89 64 90.3 66.9 92c3.5 2.1 2.7 6.5 1.8 10.4zm43.3-4.7c-.1 2.4-.5 7.8-1.4 10.1-.9 2.2-1.9 4.5-5.2 5.4-3.3 1-8.2 1.1-10.5.7-2.3-.4-4.5-1-6.3-2.2-4.7-3.1-5.2-4.8-6.2-9.3-.9-3.9-1.6-8.3 1.8-10.4 2.9-1.7 7.9-3 13.4-3.1 5-.1 10.4.1 13.1 2.9 1 1 1.4 3.5 1.3 5.9z"/><path fill="#824E2A" d="M120.3 88c-.8-1.1-.6-3.6-1.3-4.8.4-2.4.4-5.7.5-8.6.2-4.1-1.7-10.1-4.3-14.6-2.7-4.5-14.9-10.6-24-12.9-9.1-2.3-21.2-2.2-38 .5-16.7 2.7-19.9 9.9-22.4 14.8-3.1 5.9-2.6 11.6-2.3 15.2-.2 4.2.9 8.8 3.6 10 .7-3.1 1.9-6.2 3.6-8.8.5 1.5 1.3 3 2.5 4.3.1-3 1.2-7.1 3-10.5.3 5 2.8 8.8 4.5 10 .2-4.4 1.1-7.7 2.3-10.2.9 4.6 3.4 7.5 5.5 9.1-.4-3.8 0-7.9 1.7-13.1v.6c0 5.6 2.8 12.4 9.9 14-1.2-3.3-1.8-8.4-1-12.7 1.1 7.1 4.9 10.8 9.4 11.8-1.5-4-1.9-7.2-1.8-9.9 1.8 5.2 5.1 6.9 8.5 8-1-2.7-1.7-5.7-1.9-9.4 1.3 4.8 5.1 8.5 9.4 10-2-5.2-2.1-8.8-1.5-11.6.8 7 4.8 10.8 9.2 12.6-.6-2-1-4.1-1.2-6.5 1.8 5.6 6.3 8.9 8.7 9.4-1-3.2-1.5-6.3-1.6-9.2 1.5 5.2 4.8 8 7.3 9.4-.6-2.4-1-4.9-1-7.8 3.4 8.1 9 10.4 12.7 10.9z"/></svg>