<svg xmlns="http://www.w3.org/2000/svg" viewBox="0 0 150 150"><path fill="#683500" d="M130.7 105.6c.2-4.6 1.6-13.4 1.1-23.7-.2-5.7-1-11.8-2.9-17.9-1.2-6.8-8-18.1-14.4-23.4C106 33.5 97.3 30 89.3 29c-1.6-.2-3.2-.3-4.7-.2-1.5 0-3 .1-4.5.4-1.4.2-2.9.5-4.2.9-1.4-.4-2.8-.7-4.2-.9-1.5-.2-2.9-.3-4.5-.4-1.5 0-3.1.1-4.7.2-8 .9-16.7 4.5-25.2 11.6C30.8 45.9 24 57.1 22.8 64c-1.9 6.1-2.6 12.2-2.9 17.9-.4 10.3.9 19.2 1.1 23.7.7 13.7-3.9 16.5-3.7 25.2.4 5.4 2.8 9.9 11.1 12.7l.9.3c-2.8-3.2-3.2-7.5-2.1-10.9-.4 4.1 1.2 11.9 13.1 13 4.1.4 8.9.7 14.5.7h42.3c5.6 0 10.4-.2 14.5-.7 11.8-1.1 13.5-9 13.1-13 1.1 3.4.8 7.7-2.1 10.9l.9-.3c8.2-2.8 10.7-7.3 11.1-12.7 0-8.7-4.6-11.4-3.9-25.2z"/><linearGradient id="a" gradientUnits="userSpaceOnUse" x1="30.275" y1="107.628" x2="44.319" y2="107.628"><stop offset="0" stop-color="#fbdccb"/><stop offset="1" stop-color="#fac5a0"/></linearGradient><path fill="url(#a)" d="M37.6 99.5c-3.3-.6-9.2 1.8-6.8 9.8 1.4 4.9 5.3 6.6 9.9 6.6 3.8.5 6.9-14.5-3.1-16.4z"/><linearGradient id="b" gradientUnits="userSpaceOnUse" x1="107.377" y1="107.628" x2="121.42" y2="107.628"><stop offset="0" stop-color="#fac5a0"/><stop offset="1" stop-color="#fbdccb"/></linearGradient><path fill="url(#b)" d="M114.1 99.5c3.3-.6 9.2 1.8 6.8 9.8-1.4 4.9-5.3 6.6-9.9 6.6-3.8.5-6.9-14.5 3.1-16.4z"/><path fill="#FF868D" d="M75.8 116.8c-8.8 0-16.2 22.2-19 33.2h37.9c-2.6-10.9-10.1-33.2-18.9-33.2z"/><g fill="#FFF"><path d="M76.2 134.2c0 2.2-1.8 4-4 4s-4-1.8-4-4 1.8-4 4-4 4 1.8 4 4z"/><circle cx="79.5" cy="134.2" r="4"/></g><g fill="#FFF"><circle cx="82.9" cy="128.9" r="4"/><circle cx="68.8" cy="128.9" r="4"/></g><linearGradient id="c" gradientUnits="userSpaceOnUse" x1="75.849" y1="133.227" x2="75.849" y2="127.564"><stop offset="0" stop-color="#fbdccb"/><stop offset="1" stop-color="#fac5a0"/></linearGradient><ellipse fill="url(#c)" cx="75.8" cy="128.9" rx="4.3" ry="3.4"/><path fill="#FBDCCB" d="M118.6 89c.2-1.9.4-3.8.4-5.5-.6-22.1-15.2-28.1-36.8-29.1-1.8-.1-3.7-.1-5.5-.1h-1.8c-1.9 0-3.7.1-5.5.1-21.6.9-36.2 6.9-36.8 29.1.1 1.7.2 3.6.4 5.5 3.8 33.3 16.2 41 42.8 41.6 26.6-.6 39-8.3 42.8-41.6z"/><g fill="#5E2D1F"><ellipse cx="47.5" cy="100.1" rx="5.4" ry="6.6"/><ellipse cx="104.2" cy="100.1" rx="5.4" ry="6.6"/></g><path fill="none" stroke="#942300" stroke-width="1.429" stroke-linecap="round" stroke-linejoin="round" d="M81.4 120c0 1.2-2.5 2.2-5.6 2.2-3.1 0-5.6-1-5.6-2.2"/><path fill="#683500" d="M123.3 61.7C118 42.3 98 31.8 81.5 31.4c-25.1-.5-50.5 12-53.6 30.4-3.1 18.3 1.2 28.8 5.5 31.1.8-4.1 2.5-10.9 5.4-17.5.8 4.1 3 8.1 7.3 12-.5-7.1 1.4-17.4 4.6-23.8.4 9.8 4 21.7 19 24.6-3.3-5.1-5.7-17.9-4.3-27.9 4.5 20.3 14.8 25.6 25.4 28.3-2.3-4.9-5.9-13.1-5.1-23.4 5.1 19.5 13.8 21.1 19.9 22.2-.4-2.5-2.9-6.4-2.5-17.6 2 8.4 6 19.5 15.4 23 4.8-7.1 9.5-13.6 4.8-31.1z"/><path fill="none" d="M9.8 17.5h132.4V150H9.8z"/></svg>