<svg xmlns="http://www.w3.org/2000/svg" viewBox="0 0 150 150"><path fill="#3F1C12" d="M43.7 110.4c-2.2-.5-6.6-3.1-10.8-8.8-3.2-4.3-6.1-9.3-8.8-16.9-2.1-6-2.7-10.8-2.3-13.4.7-4.5 2.8-7.3 4.3-9.5 1.3-1.8 7.3-2.4 10.6 13.1 3.3 15.6 7 28.5 7 35.5zM94.7 33.3c3.2-.9 8 .4 14.1 3.7 6.1 3.3 10.4 7.1 12.1 9.4 1.7 2.2 5.5 5.8 6.5 12.8 1 7 1.2 13.3-1.2 24-1.3 5.9-5.8 22.5-19.4 27.2-5.3-7.8-21.6-38.3-21.9-51.9-.3-13.6 2-23.3 9.8-25.2z"/><path fill="#79CAE6" d="M84.4 121H66.5c-5.6 7.7-9.1 20.5-10.6 29H95c-1.4-8.5-5-21.4-10.6-29z"/><linearGradient id="a" gradientUnits="userSpaceOnUse" x1="67.358" y1="125.999" x2="83.608" y2="125.999"><stop offset="0" stop-color="#fbdccb"/><stop offset="1" stop-color="#fac5a0"/></linearGradient><path fill="url(#a)" d="M67.4 118.4h16.2v15.2H67.4z"/><path fill="#FFF" d="M87.8 125.6c-.2-.3-4.3-6.4-4.4-6.1-1.9 6.1-4.8 10.8-8 13.4-3.2-2.6-6.1-7.3-8-13.4-.1-.3-4.1 5.8-4.4 6.1.5 3.7 2.4 9.9 7.3 16.3.8-1.4 3.6-5.8 5-7.7 1.4 1.9 4.3 6.3 5 7.7 5.1-6.4 7-12.5 7.5-16.3z"/><linearGradient id="b" gradientUnits="userSpaceOnUse" x1="29.57" y1="98.536" x2="41.173" y2="98.536" gradientTransform="rotate(3.084 -96.41 87.54)"><stop offset="0" stop-color="#fbdccb"/><stop offset="1" stop-color="#fac5a0"/></linearGradient><path fill="url(#b)" d="M35.9 97.2c-1.8-.8-4.9-1.3-6.2 1.7-1.3 2.9-.8 9.4 2.5 13.1 2.4 2.6 4.8 3.4 7.8 2.4"/><linearGradient id="c" gradientUnits="userSpaceOnUse" x1="-59.086" y1="103.313" x2="-47.484" y2="103.313" gradientTransform="scale(-1 1) rotate(3.084 -127.497 -1067.343)"><stop offset="0" stop-color="#fbdccb"/><stop offset="1" stop-color="#fac5a0"/></linearGradient><path fill="url(#c)" d="M115.1 97.2c1.8-.8 4.9-1.3 6.2 1.7 1.3 2.9.8 9.4-2.5 13.1-2.3 2.6-4.8 3.4-7.8 2.4"/><path fill="#FBDCCB" d="M117.4 92.1c.6-3.2 1-6.1 1-8.8-.3-11.9-4.6-19.1-11.8-23.4-7.5-4.3-18.1-5.7-30-5.9h-2.2c-11.9.2-22.5 1.6-30 5.9-7.2 4.3-11.5 11.6-11.8 23.4.1 2.7.4 5.6 1 8.8 2 10.3 3.3 15.9 6.9 23.9.7 1.6 1.5 2.9 2.4 4.2 6.8 7.7 16.6 9.7 28.9 10h7.4c12.3-.3 22.1-2.3 28.9-10 .9-1.2 1.7-2.6 2.4-4.2 3.6-8 4.9-13.6 6.9-23.9z"/><path fill="none" stroke="#770800" stroke-width="1.429" stroke-linecap="round" stroke-linejoin="round" d="M81 118.5c0 1.2-2.5 2.2-5.6 2.2-3.1 0-5.6-1-5.6-2.2"/><g fill="#3F1C12"><ellipse cx="50.2" cy="101.2" rx="5.4" ry="6.5"/><path d="M55.2 90.8c-1.8-1.8-7.9-5.2-10.3-5.9-.2.8.3 2.9.3 2.9 2.3.4 8.2 3.4 9.1 3.9 1.2.8 1.9.3.9-.9z"/><g><ellipse cx="100.7" cy="101.2" rx="5.4" ry="6.5"/><path d="M95.7 90.8c1.8-1.8 7.9-5.2 10.3-5.9.2.8-.3 2.9-.3 2.9-2.3.4-8.2 3.4-9.1 3.9-1.2.8-1.9.3-.9-.9z"/></g></g><path fill="#3F1C12" d="M122.9 67.8c-2.8-14-13.8-21.9-22.7-24.9-7.2-2.4-21.4-4.6-31-4-9.6.7-21.2 3.8-28.7 8.8-7.5 5-12.4 11.6-13.9 19.4-1.1 5.5-.3 13.6 5 18.2-.3-2.5 0-4.4 1-7.3.3.7 1 3 3.2 3.6.1-1.6-.6-7 .8-9 .1 1 .8 2.3 1.4 3 .3-1.2 1.4-5.3 2.4-6 .2 2.4 2 4.5 3.2 5.3.5-4.9 3-9 6.5-10.3-.3 1.4.3 3.8 1.2 4.7.6-1.9 1.7-4.5 3.7-5.9.5 1.7 1.2 4.2 4.2 5.2-.3-2.1-.4-5.4.7-7.2.7 2.3 2.5 6.2 6.1 7.9-.6-2.2-.6-6.1.3-9 1.3 4.8 5.3 11.8 12.1 13.5-.9-3.4-1.2-8.3-.3-13.7.6 4.3 3.3 13.6 12.3 15.1-.8-1.8-1.7-5.4-1.6-8.9 1.3 3.1 3.7 6.1 7.5 7.5-.1-1.8-.4-4.4 0-7.2 1 5 3.4 11.9 9.9 13.9-.6-1.7-.8-4.5-.5-7.5 1.1 3.3 3.5 5.7 6.2 8-.3-1.6.1-4.7.8-7.1.2 4.7 3.2 11.8 6.6 15.1.3-.6.6-1.3.9-2 0 .1.1.2.1.3 2.3-4.1 4.3-11.3 2.6-19.5z"/><path fill="#3F1C12" d="M99 35.4c3.1-2 6.1-1.7 7.2-1.2-.9-3-9.2-4.2-13.6-2.5 2.2-1.9 4.9-1.8 5.2-1.8-3.9-3.2-10.1-3-13.7-1.1 1.3-1.9 3.1-2.9 3.9-3-3-1.8-7.3-.5-10 1.7.5-1.4 1.1-2.5 1.6-2.7-5.2-1.3-8.9 1.9-11 4.8.4-2.1 2.1-5.1 2.7-5.5-5.3-1.6-10 2.8-11.9 6.3.4-2.5 2-5 2.6-5.8-6.8-1.5-11.9 3.5-13.1 9-.4-2.1.2-4.5.7-5.6-4.7-.5-8.1 3.1-7.7 10.2-3.2-1-7.5-.9-9.8 1.5 1.7-.2 4.5 1.4 5.4 2.5-5.1-1.7-11.2.5-14.2 4.6 2.7.2 5.5.8 7.5 1.8-2.8-.1-6.9.5-9.4 4.1 2.1.1 4.5.8 6.5 1.6-2.5.4-5.9 1.6-7.7 5.2 1.3-.1 3.2.2 5.1.6-1.9.6-4.6 2.2-5.6 5.9 1.4-.7 4-1 6.6-.5.7 1.4.4 3 3.1 2.7 3.3-.4 4-2.1 8.8-9 4.8-7 13.1-11.4 19.7-12.7 6.6-1.3 17.3-2 21.4-1.5 9 1.2 15.8 4.1 19.8 5.1 2.6.7 5.6-1.5 3-4.6-2.2-2.6-3.4-3.3-4-5.2-.7-1.9-.9-3.7.9-4.9z"/><path fill="none" d="M9.8 17.5h132.4V150H9.8z"/></svg>