<svg id="レイヤー_1" xmlns="http://www.w3.org/2000/svg" viewBox="0 0 67 159"><style>.st0{fill:#c7d9f0}.st1{fill:#f8d6c0}.st2{fill:url(#XMLID_27_)}.st3{fill:#666}.st4{opacity:.53;fill:#FFF}.st5{fill:#a43f00}.st6{fill:url(#XMLID_28_)}</style><g id="XMLID_60_"><path id="XMLID_87_" class="st0" d="M21.7 58.1C16.5 60.6 11.4 69 9 72.8c-2.4 3.8 1.5 6.8 4 9.8 2.5 3.1 17.3 11.2 22.5 8.5 5.1-2.8 10.5-6 10.1-10.9-.6-6.5-.8-10.1-3.3-16.4-2.6-6.2-16.4-7.6-20.6-5.7z"/><path id="XMLID_86_" class="st1" d="M37.9 110.8c-1.4 1.8-2.9 3.5-3.2 4.2-.4 1.1 1.2 1.7 1.7 1.6.5-.2.7-.4 1.3-.9.6-.6 1.1-1.3 1.1-1.3-.8 2.4-.7 5.2.4 5.3 1.2.2 1.2-.7 1.4-1.1.5-.9.7-2.7.7-2.7.4 1.1 1.8 3.9 3 3.4s.5-2.5.1-4.1c.5.5 1.4 1.9 2.6 2.5.7.4 2.2.3 1.5-1.2-.7-1.5-1.4-2.2-1.9-3.1 1.3 1.3 2.3 2.5 3.3 1.7.9-.7-1.2-3.6-2.5-5.1-1.2-1.5-1.3-2.6-1.3-2.6-1.9.4-6.5 1.1-7.2.7 0 0-.5 2-1 2.7z"/><path id="XMLID_85_" class="st0" d="M43 65.5c1.5 4.1 6.6 20.5 7 26.2.3 5.7-1.1 17.6-1.1 17.6-3.6 1.9-9.9 2.3-11.8 1.1-.3-8.8-2.4-20.7-4.1-25.8-1.7-5.1-3.1-14.6-1.5-18.3"/><path id="XMLID_84_" d="M66.8 25.9c.9-5.7-.8-13-4.8-16.9C58 5.1 48.4.1 43.4.1c-4.9 0-8.8-.9-12.6 3.5 3.6 3.7 14.4 8.8 17.3 10C51 14.8 62.8 23.2 63.9 24c1.2.9 2.5 2 2.9 1.9z"/><path id="XMLID_83_" d="M33.1 2.1c-2.7-1.1-7-.9-12.2 2.1-5.2 3-7.2 5.5-9.6 10.1C8.9 19 7.2 25.9 8.9 30.7c.9 2.3 2.7 7.6 5 5.6C16.2 34.2 28 23.9 30.5 19c2.6-4.9 9.7-15.1 2.6-16.9z"/><linearGradient id="XMLID_27_" gradientUnits="userSpaceOnUse" x1="-609.159" y1="188.259" x2="-610.406" y2="185.142" gradientTransform="rotate(173.183 -296.437 -41.872)"><stop offset="0" stop-color="#fbdccb"/><stop offset="1" stop-color="#fac5a0"/></linearGradient><path id="XMLID_82_" class="st2" d="M28.5 64.1c.6 2.4 2.4 4 4 4s2.1-1.3 2.2-2.2c.5-1.6 1.4-3.7 1.4-3.7l-5.4-2.3c0-.1-1.9 3.9-2.2 4.2z"/><path id="XMLID_81_" d="M9.6 137.6c.4-3.4-.1-5.3-.3-7.1 1.3.6 10.1 3.7 13.5 1.7.2 3 .5 6.9.7 8 .8 4.7.7 7.2 3.1 9.3 2.3 2 3.1 6.1 1.7 7.2-1.3 1.1-7.4 3.9-10.8 1.1-2.7-2.2-7.3-5.9-8.6-8.6-.9-1.9-.9-4.8-.2-7.1.2-.9.6-2.4.9-4.5z"/><path id="XMLID_80_" class="st3" d="M5.4 103.7c.4 2.2 2.7 38.3 2.7 38.3 3.5 3.4 13.1 6.8 16.9 2.1-.4-11.5 0-35.6.4-41.5"/><path id="XMLID_79_" d="M27.7 136.1c.4-3.4-.1-5.3-.3-7.1 1.3.6 10.1 3.7 13.5 1.7.2 3 .5 6.9.7 8 .8 4.7.7 7.2 3.1 9.3 2.3 2 3.1 6.1 1.7 7.2-1.3 1.1-7.4 3.9-10.8 1.1-2.7-2.2-7.3-5.9-8.6-8.6-.9-1.9-.9-4.8-.2-7.1.3-.9.7-2.4.9-4.5z"/><path id="XMLID_78_" class="st3" d="M23 107.2c.4 2.2 3.2 33.3 3.2 33.3 3.5 3.4 13.1 6.8 16.9 2.1-.4-11.5-1.2-37.3-.8-43.2"/><path id="XMLID_77_" class="st1" d="M65.6 31.9c-.3 3.1-3.1 16.9-5.1 22.1-2 5.3-8.4 10.8-17.6 11.1-9.1.3-20.9-3.5-24-7.7-5.3-7.3-7.7-18.4-6.8-26.2.9-7.8 3.4-19.8 11.5-24.5C31.8 2 56.2 8.4 60.2 14c4.1 5.6 6.1 12.2 5.4 17.9z"/><path id="XMLID_76_" d="M39.4 1.2c4.7.5 23.1 7.5 25.8 15.6 2.7 8 1.2 12.1.2 14.2.1-2.2-2.4-6-2.7-6.9.9 2.5.2 6.3-.1 7.4-.9-4.5-7.4-10.6-9.1-12 1.8 3.2 1 8.8.6 10.5-1.7-6-6.7-10.3-7.3-11.5.2 3.6-.7 7.1-1.2 7.9-.6-3.5-2.5-5.9-3.4-7.1-.2 3.6-3.3 8.8-4 9.6-.9-4.7-3.5-7.9-4.3-9.4-.2 3-1.8 6.4-2.7 7.5-.1-4.6-2.7-6-3.2-7.4-.2 3-2.9 6.7-3.6 7.8-.1-2.6-1.4-5.6-1.8-6.6-.4 3.2-2.2 6.4-2.9 7.1-.1-2.8-1.5-2.6-2.1-4.3-1.2 3.5-3.4 4.8-5.5 6.4-1.2-4.8 2.1-15.2 4.1-18.6C18.4 7.9 29.3 0 39.4 1.2z"/><path id="XMLID_75_" class="st4" d="M64 38c-1.2-.4-5.8-1.5-8.4-1.6s-4.9 0-5.8.9c-.9.9-1.5 3.8-1.9 5.2-.4 1.4-.1 6.3 2.2 7.6 2.3 1.3 6.4 1.8 9.2 1.5 2.2-.3 4.9-3 5.5-6.1.4-2.5 1.3-6.8-.8-7.5z"/><path id="XMLID_74_" class="st4" d="M43 37c.4 1.7-1.1 6.8-1.9 8.3-.8 1.5-1.6 4-5.4 4.1-3.7.1-7-.5-9-1.5-2.1-1-3.7-1.5-3.6-5.7.1-4 1.7-8.3 3.6-8.8 1.9-.4 7.5-.4 10.7.3 1.3.2 5.1 1 5.6 3.3z"/><path id="XMLID_73_" d="M23.6 37.6h-.2c-1.7-.6-9-2.9-9.5-3-.3-.1-.5-.4-.5-.7.1-.3.4-.5.7-.5.7.1 8.1 2.5 9.6 3.1.3.1.5.5.4.8-.1.1-.3.3-.5.3z"/><path id="XMLID_72_" d="M47.9 42.2h-.2c-1.5-.5-3-1-4.9-.8-.3 0-.6-.2-.7-.5 0-.3.2-.6.5-.7 2.1-.3 3.9.3 5.4.8.3.1.5.5.4.8 0 .2-.3.4-.5.4z"/><path id="XMLID_71_" class="st5" d="M42.3 60c.3 0 .6-.3.6-.6 0-.4-.2-.7-.6-.8-1.9-.2-6.6-1.1-7.9-1.7-.4-.1-.8 0-.9.4-.2.4 0 .8.4.9 1.6.7 6.5 1.6 8.3 1.8h.1z"/><path id="XMLID_70_" class="st1" d="M3.2 112.8C1.8 114.6.3 116.3 0 117c-.4 1.1 1.2 1.7 1.7 1.6.5-.2.7-.4 1.2-.9.6-.6 1.1-1.3 1.1-1.3-.8 2.4-.7 5.2.4 5.3 1.2.2 1.2-.7 1.4-1.1.5-.9.7-2.7.7-2.7.4 1.1 1.8 3.9 3 3.4s.5-2.5.1-4.1c.5.5 1.4 1.9 2.5 2.5.7.4 2.2.3 1.5-1.2-.7-1.5-1.4-2.2-1.9-3.1 1.3 1.3 2.3 2.5 3.3 1.7.9-.7-1.2-3.6-2.5-5.1-1.2-1.5-1.3-2.6-1.3-2.6-1.9.4-6.5 1.1-7.2.7.2.1-.3 2-.8 2.7z"/><path id="XMLID_69_" class="st0" d="M17.9 64.8c-2.9 1.6-7 4.9-9.3 8.9C6.3 77.8 2.9 88.1 2 95c-.9 6.9-1.1 15.8-.9 16.5 2.2 1 10.2 2.9 12.8 1.1 2.2-5.6 4.6-19.2 6.3-22.3 1.7-3.1 7.7-9.1 8.4-12.4.7-3.3-6.7-15.3-10.7-13.1z"/><path id="XMLID_68_" class="st0" d="M40.6 78.4c.2 2.1 3.1 26.3 3.3 29.3-1.8 1.5-9.6 3.3-15.6 3.5-6 .2-15.9-.7-18.2-2.2.8-12.5 1.7-25.8 5.2-32.1"/><linearGradient id="XMLID_28_" gradientUnits="userSpaceOnUse" x1="-577.884" y1="117.03" x2="-580.453" y2="111.002" gradientTransform="rotate(175.888 -287.274 -24.198)"><stop offset="0" stop-color="#fbdccb"/><stop offset="1" stop-color="#fac5a0"/></linearGradient><path id="XMLID_67_" class="st6" d="M13.7 34.4c-.8-3.4-3.2-4.1-4.7-1.6-1.5 2.6-.2 11.5 1.4 13 1.5 1.5 2.5 2.3 4.1 2.6"/><path id="XMLID_64_" d="M57.5 52.3c-2.9 0-5.9-.7-7.7-1.7-2.7-1.5-2.9-6.8-2.5-8.3.1-.2.2-.5.2-.9.6-2.1 1.1-3.8 1.9-4.6.7-.8 2.2-1.1 4.8-1.1h1.4c2.6.1 7.4 1.2 8.6 1.6 2.4.9 1.7 5 1.2 7.7l-.1.5c-.6 3.6-3.6 6.4-6 6.6-.5.2-1.1.2-1.8.2zM54.2 37c-2.1 0-3.5.3-4 .7-.6.6-1.2 2.7-1.6 4.1-.1.3-.2.6-.2.9-.4 1.2-.1 5.8 1.9 6.9 1.6.9 4.4 1.5 7.1 1.5.6 0 1.2 0 1.7-.1 1.9-.2 4.4-2.7 4.9-5.6l.1-.5c.4-2 1-5.8-.4-6.3-1.1-.4-5.7-1.5-8.2-1.5-.4-.1-.8-.1-1.3-.1z"/><path id="XMLID_61_" d="M35.2 50c-3.5 0-6.7-.6-8.8-1.6l-.4-.2c-2-1-3.7-1.8-3.6-6.1.1-4.1 1.8-8.8 4.1-9.3.8-.2 2.3-.3 4.1-.3 2.6 0 5.1.2 6.8.6h.2c1.6.3 5.3 1.2 5.9 3.7.5 2-1.2 7.2-2 8.7-.1.2-.2.3-.3.5-.8 1.5-1.9 3.8-5.6 3.9l-.4.1zm-4.5-16.3c-1.7 0-3.1.1-3.8.3-1.4.3-3 4-3.1 8.2-.1 3.5 1 4.1 2.9 5l.4.2c1.9.9 4.9 1.5 8.2 1.5h.5c3 0 3.8-1.7 4.6-3.2.1-.2.2-.4.3-.5.8-1.5 2.2-6.4 1.9-7.9-.4-1.8-3.7-2.6-5-2.8h-.2c-1.8-.6-4.2-.8-6.7-.8z"/></g></svg>