<svg id="レイヤー_1" xmlns="http://www.w3.org/2000/svg" viewBox="0 0 96 170"><style>.st0{fill:#542f1d}.st1{fill:#adadad}.st2{fill:url(#XMLID_105_)}.st3{fill:url(#XMLID_106_)}.st4{fill:#3a3939}.st5{fill:#383838}.st6{fill:#f8d6c0}.st7{fill:url(#XMLID_107_)}.st8{fill:#777}.st9{fill:#d40038}.st10{fill:url(#XMLID_108_)}.st11{fill:url(#XMLID_109_)}.st12{fill:url(#XMLID_110_)}.st13{fill:#dc0045}.st14{fill:none}.st15,.st16{fill:#fff}.st16{opacity:.3}.st17{fill:#595959}.st18{fill:#484848}.st19{fill:#333}.st20{fill:#8dff1f}.st21{fill:#eb60ff}.st22{fill:#0fd2eb}</style><path id="XMLID_78_" class="st0" d="M26.1 142.4c0-3 .7-4.4 1.1-5.9-1.1.3-9 2-11.7-.1-.5 2.5-1.2 5.7-1.4 6.7-1.2 3.9-1.4 6-3.7 7.5-2.2 1.4-3.3 4.8-2.3 5.9 1 1.1 5.9 4.1 9.1 2.1 2.6-1.6 6.9-4.2 8.3-6.3.9-1.5 1.3-3.9 1-5.9-.2-1-.4-2.3-.4-4z"/><path id="XMLID_77_" d="M35.8 105.3c-.6 1.8-8.8 42.3-8.8 42.3-3.4 2.5-11.9 4.3-14.6-.1 1.6-9.7 7.1-40.3 7.4-45.4"/><path id="XMLID_76_" class="st0" d="M42.7 140.5c-.2-3-.8-4.4-1.3-5.9 1.2.3 9.1 1.6 11.7-.5.6 2.5 1.4 5.7 1.7 6.6 1.4 3.8 1.7 6 4 7.3 2.2 1.4 3.5 4.6 2.5 5.8-1 1.1-5.7 4.3-9 2.5-2.6-1.5-7.1-3.9-8.5-5.9-1-1.4-1.5-3.9-1.2-5.9 0-1 .2-2.3.1-4z"/><path id="XMLID_75_" d="M34.5 102.3c.6 1.8 7.5 42 7.5 42 3.5 2.3 12.1 3.8 14.6-.7-2-9.6-4.6-41-5.1-46"/><path id="XMLID_74_" d="M88.7 162.9s.6.6 1.6.8c1.1.2 1.8-.8 1.8-.8v-39.3h-3.5l.1 39.3z"/><path id="XMLID_73_" d="M18.4 169.2s.4.7 1.8.8c1.3.1 2-.8 2-.8v-39.3h-3.8v39.3z"/><path id="XMLID_72_" d="M2.9 153.7s.6.8 1.7.8 1.9-.8 1.9-.8l-.1-44.8H2.8l.1 44.8z"/><path id="XMLID_71_" d="M74.4 152.5s.3.8 1.6.8 1.8-.8 1.8-.8v-44.8h-3.5l.1 44.8z"/><path id="XMLID_70_" class="st1" d="M29.3 57.9c5-.1 12.2-1.1 17.3.2 2.2.6 3.5 2 4.5 4.7 1.1 2.8 2.5 15.7 2.9 22.2.5 7.4.5 11.4.6 17.1-6.5 5-24.8 6.1-36 1.3 1.6-20.5 3-35.3 5.5-41 1.6-3.4.6-4.4 5.2-4.5z"/><linearGradient id="XMLID_105_" gradientUnits="userSpaceOnUse" x1="-2234.127" y1="102.365" x2="-2342.081" y2="114.66" gradientTransform="matrix(-1 0 0 1 -2254.14 0)"><stop offset="0" stop-color="#0b0b0b"/><stop offset="1" stop-color="#585858"/></linearGradient><path id="XMLID_69_" class="st2" d="M15.1 127.1l41.8-2.9 39.1-5-19-26.5-77 4.9z"/><linearGradient id="XMLID_106_" gradientUnits="userSpaceOnUse" x1="-2240.466" y1="97.731" x2="-2336.291" y2="108.644" gradientTransform="matrix(-1 0 0 1 -2254.14 0)"><stop offset="0"/><stop offset="1" stop-color="#464646"/></linearGradient><path id="XMLID_68_" class="st3" d="M17.3 118.6l34.9-2 37.2-4.6L74 90.3 4.1 93.5z"/><path id="XMLID_67_" d="M16 106.3c.2 5.8 6.6 9.8 14.1 9.6 7.5-.2 13.5-4.8 13.3-10.6-.1-5.8-6.4-10.5-13.9-10.3-7.5.2-13.7 5.5-13.5 11.3z"/><path id="XMLID_66_" d="M51.2 104c.2 5.8 6.6 9.7 14.1 9.5 7.5-.2 13.5-4.6 13.3-10.4-.2-5.8-6.4-10.7-13.9-10.5-7.4.2-13.6 5.6-13.5 11.4z"/><ellipse id="XMLID_65_" transform="rotate(-178.225 58.521 35.138) scale(.99998)" class="st4" cx="58.5" cy="35.1" rx="5" ry="10.7"/><ellipse id="XMLID_64_" transform="rotate(-178.225 57.42 35.438) scale(.99998)" cx="57.4" cy="35.4" rx="5" ry="10.7"/><path id="XMLID_63_" class="st4" d="M57.8 37.9c.2 1.1.3 1.4.2 2.3-.2 1 .1 1.6-.2 2.2-.4.6-.3 1.1-.6 1.8-.3.8 0 1.2-.8 1.2s-.8 1-1.9-.2c-1.1-1.2-1.2-1.5-1.5-4.1-.3-2.6-.2-3.8.5-4.9.7-1.1 1.7-2.1 2.9-1.5 1.2.6 1.1 1.7 1.4 3.2z"/><path id="XMLID_62_" class="st5" d="M17.1 22.7c-1.5 3-2.4 7.3-2.5 8.5.7.1 1.4-.1 1.9-.1.1-.9.5-2.3 1.1-4.3"/><path id="XMLID_61_" d="M16.8 22.9c-1.5 3-2.4 7.3-2.5 8.5.7.1 1.4-.1 1.9 0 .2-.9.5-2.3 1.1-4.3"/><path id="XMLID_60_" d="M60.3 30.9c2.4-6.1 3.8-11.2 1.9-16.1-1.9-4.9-4.3-8.7-8.5-10.7-4.3-2-9.9-5-12.7-1.4-2.8 3.5-5.4 5-4.6 8.4.8 3.4 2.7 5.9 6.8 6.4s8.9 15.2 9.9 16.1c1.1.9 5.8.3 7.2-2.7z"/><path id="XMLID_59_" d="M44.4 1.1C43 .7 36.7-.7 33.3.4 29.9 1.6 23 4.1 19.5 9.1c-3.5 4.9-3.4 7.3-3.4 13.1 0 5.9 2.2 12.8 3.2 14.3 3.4-3.6 19.6-7.8 24.6-12 3.7-3.1 6.4-6.7 6.1-11.6-.3-5-1.1-10.4-5.6-11.8z"/><path id="XMLID_58_" class="st6" d="M69 28.3c-.8-1.8-1.7-3.5-1.8-4.1-.1-1 1.3-1.2 1.7-.9.4.2.5.5.9 1 .4.6.7 1.3.7 1.3-.2-2.1.4-4.4 1.4-4.3 1 .1.8.8.9 1.2.3.9 0 2.4 0 2.4.6-.8 2.3-2.9 3.2-2.2.9.6-.1 2.2-.7 3.4.5-.3 1.5-1.3 2.6-1.5.7-.2 1.9.2 1.1 1.3-.9 1.1-1.6 1.6-2.2 2.2 1.4-.8 2.4-1.6 3.1-.8.6.8-1.8 2.7-3.1 3.7s-1.6 1.9-1.6 1.9c-1.5-.7-5.2-2.3-5.8-2 0-.3-.1-2-.4-2.6z"/><path id="XMLID_57_" class="st1" d="M79.2 31.9c-2.1-1.8-9.4-4.3-11.4-3.6-2.1 6.7-8.4 18.4-8.4 18.4-4.1 4.6-18.4 11.7-19.8 12.6-2.1 1-5.7 6.2-1.3 12.7 4.4 6.5 6.2 6.4 6.2 6.4 6.7-3.4 20.8-14.3 23.4-16.5 2.6-2.2 3.2-3.6 4.9-6.3 1.8-2.8 5.5-18 6.4-23.7z"/><linearGradient id="XMLID_107_" gradientUnits="userSpaceOnUse" x1="-2285.094" y1="96.034" x2="-2282.286" y2="114.092" gradientTransform="matrix(-1 0 0 1 -2254.14 0)"><stop offset="0"/><stop offset=".394" stop-color="#464646"/><stop offset="1"/></linearGradient><path id="XMLID_56_" class="st7" d="M16 105c.2 5.8 6.4 10.3 13.9 10 7.5-.2 13.5-5.1 13.3-10.8-.2-5.8-6.4-10.3-13.9-10-7.5.2-13.4 5.1-13.3 10.8z"/><path class="st8" d="M29.5 112.6c-5.6 0-10.1-3.4-10.2-7.7-.1-2.1 1-4.2 2.9-5.7 1.9-1.6 4.5-2.4 7.2-2.5h.4c5.6 0 10.1 3.4 10.2 7.7.1 2.1-1 4.2-2.9 5.7-1.9 1.6-4.5 2.5-7.2 2.5h-.4zm.3-15.6h-.4c-2.7.1-5.2 1-7.1 2.5-1.8 1.5-2.8 3.5-2.8 5.5.1 4.1 4.5 7.4 9.9 7.4h.4c2.7-.1 5.2-1 7.1-2.5 1.8-1.5 2.8-3.5 2.8-5.5-.2-4.2-4.5-7.4-9.9-7.4z"/><path class="st8" d="M29.5 110.2c-3.9 0-7-2.4-7.1-5.4 0-1.5.7-2.9 2-4s3.1-1.7 5.1-1.8h.3c3.9 0 7 2.4 7.1 5.4.1 3.1-3.1 5.7-7.1 5.8h-.3zm.2-10.9h-.3c-1.9.1-3.6.7-4.9 1.7-1.3 1-1.9 2.4-1.9 3.8.1 2.9 3.1 5.1 6.8 5.1h.3c3.8-.1 6.9-2.6 6.8-5.5 0-2.8-3-5.1-6.8-5.1z"/><path id="XMLID_51_" d="M26.9 104.3c0 1.3 1.5 2.4 3.2 2.3 1.7 0 3.1-1.2 3.1-2.5s-1.5-2.4-3.2-2.3c-1.8.1-3.2 1.2-3.1 2.5z"/><ellipse id="XMLID_50_" transform="rotate(178.379 30.005 104.222)" class="st9" cx="30" cy="104.2" rx="2.3" ry="1.8"/><linearGradient id="XMLID_108_" gradientUnits="userSpaceOnUse" x1="-2320.477" y1="93.023" x2="-2317.669" y2="110.681" gradientTransform="matrix(-1 0 0 1 -2254.14 0)"><stop offset="0"/><stop offset=".394" stop-color="#464646"/><stop offset="1"/></linearGradient><path id="XMLID_49_" class="st10" d="M51.3 102.6c.2 5.8 6.4 10.3 13.9 10 7.5-.2 13.5-5.1 13.3-10.8-.2-5.8-6.4-10.3-13.9-10-7.5.2-13.5 5.1-13.3 10.8z"/><path class="st8" d="M64.7 109.8c-5.3 0-9.5-3.2-9.6-7.3-.1-2 .9-4 2.7-5.4 1.8-1.5 4.2-2.3 6.9-2.4h.4c5.3 0 9.5 3.2 9.6 7.3.1 4.2-4.2 7.7-9.6 7.8h-.4zM65 95h-.4c-2.5.1-4.9.9-6.7 2.3-1.7 1.4-2.7 3.3-2.6 5.2.1 3.9 4.2 7 9.3 7h.4c5.2-.1 9.4-3.5 9.3-7.5 0-4-4.1-7-9.3-7z"/><path class="st8" d="M64.8 107.8c-3.9 0-7.1-2.4-7.1-5.4 0-1.5.7-2.9 2-4s3.1-1.7 5.1-1.8h.3c3.9 0 7.1 2.4 7.1 5.4 0 1.5-.7 2.9-2 4s-3.1 1.7-5.1 1.8h-.3zm.2-10.9h-.3c-1.9.1-3.6.7-4.9 1.7-1.3 1-2 2.4-1.9 3.8.1 2.9 3.1 5.1 6.8 5.1h.3c1.9-.1 3.6-.7 4.9-1.7 1.3-1 2-2.4 1.9-3.8-.1-2.8-3.1-5.1-6.8-5.1z"/><ellipse id="XMLID_44_" transform="scale(-1) rotate(-1.606 -7266.49 4657.59)" cx="65.3" cy="101.8" rx="3.1" ry="2.4"/><ellipse id="XMLID_43_" transform="rotate(178.379 65.263 101.819)" class="st9" cx="65.3" cy="101.8" rx="2.3" ry="1.8"/><path id="XMLID_42_" d="M0 103.5l15 28.6.1-5L0 97.6z"/><path id="XMLID_41_" d="M4.1 99.3l13.1 24.4.1-5.1L4.1 93.5z"/><linearGradient id="XMLID_109_" gradientUnits="userSpaceOnUse" x1="-2290.919" y1="61.674" x2="-2292.529" y2="57.649" gradientTransform="matrix(-1 0 0 1 -2254.14 0)"><stop offset="0" stop-color="#fbdccb"/><stop offset="1" stop-color="#fac5a0"/></linearGradient><path id="XMLID_40_" class="st11" d="M34.1 53.3c0 1.5-.3 2.8-.3 3.4-.1 1.4-.5 2.8-1.4 3.5.2 1.2 2.5 2.7 3.5 3.2 1.9.9 6-.4 6.9-2-.9-.6-1.1-2-1.5-3.1-.3-1.5.1-2.4.1-3.3-1.3-.1-6.5-1.2-7.3-1.7z"/><linearGradient id="XMLID_110_" gradientUnits="userSpaceOnUse" x1="-2272.564" y1="42.949" x2="-2274.265" y2="38.959" gradientTransform="matrix(-1 0 0 1 -2254.14 0)"><stop offset="0" stop-color="#fbdccb"/><stop offset="1" stop-color="#fac5a0"/></linearGradient><path id="XMLID_39_" class="st12" d="M21 33.7c-1.1-2.5-2.9-2.7-3.8-.6-.8 2.1 1.3 8.7 2.7 9.6 1.4.9 2.2 1.4 3.4 1.4"/><path id="XMLID_38_" class="st6" d="M60.3 29c-1 4.5-2.7 11.2-3.1 13.6-.6 3.4-3.7 8.9-6.5 11.1-2.8 2.1-5.5 2.7-8.5 3.4-2.9.6-5.4.1-7.8-1.2-2.5-1.3-5.7-2.8-8.5-6.8-2.6-3.6-4.6-7.3-4.7-13.3-.1-6-.3-7.1-.2-8.6.3-4-.9-8.6 5.8-13.1s18.8-5.7 23.9-2.9c5.1 2.8 9 6.4 9.8 10 .9 3.6.3 5.7-.2 7.8z"/><path id="XMLID_37_" d="M48.4 37.6c.2 0 .4-.1.5-.3.5-1 1.3-1.5 2.3-1.7 1.5-.2 2.9.7 3.3 1.1.2.2.6.3.8 0 .2-.2.3-.6 0-.8-.7-.7-2.5-1.7-4.4-1.5-1.4.2-2.5.9-3.2 2.3-.2.3-.1.7.2.8.3.1.4.1.5.1z"/><path id="XMLID_36_" d="M29.1 39.1c.2 0 .4-.1.5-.3.5-1 1.3-1.5 2.3-1.7 1.5-.2 2.9.7 3.3 1.1.2.2.6.3.8 0 .2-.2.3-.6 0-.8-.7-.7-2.5-1.7-4.4-1.5-1.4.2-2.5.9-3.2 2.3-.2.3-.1.7.2.8.3.1.4.1.5.1z"/><path id="XMLID_35_" class="st13" d="M47.5 47.7c-1.7-.3-10.8.8-12 1.4 1.6 3 8.7 4.7 12-1.4z"/><path id="XMLID_34_" class="st14" d="M41.2 45.6c3.7-.3 6.7.3 6.8 1.5 0 .4-.3.9-1 1.3.1-.2.3-.4.4-.7-1.7-.3-10.8.8-12 1.4l.1.1c-.5-.2-.8-.6-.8-.9 0-1.1 2.9-2.3 6.5-2.7z"/><path id="XMLID_33_" class="st15" d="M47.5 47.7c-.1.2-.3.5-.4.7-1.1.7-3.2 1.2-5.5 1.4-2.6.2-4.8 0-6-.6l-.1-.1c1.2-.7 10.4-1.8 12-1.4z"/><path id="XMLID_32_" d="M31.6 55.1c.2 0 .4-.1.5-.2l.6-.7c.2-.3.2-.6-.1-.8-.3-.2-.5-.1-.7.2l-.7.6c-.2.3-.2.6.1.8.1.1.2.1.3.1z"/><path id="XMLID_31_" d="M32.7 56.2c.2 0 .5-.2.6-.4l.3-1.1c.1-.3.1-.7-.2-.8-.3-.1-.7.1-.8.4l-.4 1.2c-.1.3.1.7.4.8 0-.1.1-.1.1-.1z"/><path id="XMLID_30_" d="M33.4 56.8c.2 0 .4-.1.5-.3l.2-.7c.2-.3.2-.7-.1-.9-.3-.2-.7 0-.8.2l-.4.8c-.2.3 0 .7.2.8.2 0 .3.1.4.1z"/><path id="XMLID_29_" d="M34.6 56.7c.3 0 .5-.2.6-.5l.2-1.1c.1-.3-.2-.6-.5-.7-.3-.1-.5.1-.6.5L34 56c-.1.3.2.6.5.7h.1z"/><path id="XMLID_28_" d="M35.6 57c.2 0 .5-.1.6-.4l.4-1c.1-.3 0-.6-.3-.7-.3-.1-.6.2-.7.5l-.5.9c-.1.3 0 .7.3.8.1-.1.2-.1.2-.1z"/><path id="XMLID_27_" d="M36.7 58.1c.2 0 .5-.1.5-.4l.6-1.3c.1-.3 0-.7-.3-.8-.3-.1-.6.1-.7.4l-.6 1.1c-.1.3 0 .7.3.8 0 .2.1.2.2.2z"/><path id="XMLID_26_" d="M39.2 58.3c.3 0 .5-.2.6-.4l.4-1.2c.1-.3-.1-.7-.4-.7-.3-.1-.6.2-.7.5l-.4 1.1c-.1.3.1.7.4.7h.1z"/><path id="XMLID_25_" d="M41 58.4h.2c.3-.1.5-.4.4-.8l-.4-1.1c-.1-.3-.4-.5-.7-.4-.3.1-.4.4-.3.7l.3 1.1c0 .4.3.5.5.5z"/><path id="XMLID_24_" d="M43.3 57.9c.3 0 .6-.2.6-.6v-1c0-.3-.2-.5-.5-.6-.3 0-.6.2-.6.5l-.1.9c0 .5.3.8.6.8z"/><path id="XMLID_23_" d="M44.6 57.3h.2c.3-.1.5-.4.4-.8l-.4-.7c-.1-.3-.4-.4-.7-.3-.3.1-.3.4-.2.7l.3.8c0 .2.2.3.4.3z"/><path id="XMLID_22_" d="M46.1 56.9h.1c.3-.1.4-.4.4-.7l-.2-.8c-.1-.3-.4-.5-.7-.4-.2.1-.3.3-.3.6l.1.9c-.1-.4 0 .4.6.4z"/><path id="XMLID_21_" d="M41.8 58.1h.2c.3-.1.5-.4.4-.7l-.3-1c-.1-.3-.4-.4-.7-.4-.4.1-.4.4-.4.7l.2 1c.1.2.4.4.6.4z"/><path id="XMLID_20_" d="M37.6 58c.3 0 .5-.2.6-.4l.3-1c.1-.3-.1-.6-.4-.7-.3-.1-.7.1-.8.4l-.3 1c-.1.3.1.7.4.8.1-.1.2-.1.2-.1z"/><path id="XMLID_19_" d="M23.6 9.4c2.1-2.3 9.8-5 13.5-5.7 3.7-.7 7.4 0 11 .9 1.5.4 3.1.9 4.9 1.9 2.2 1 4.4 3.1 5.2 4.1.3.2.5.5.6.7 1.3 1.6 3.1 6.1 3.3 7.7.8 3.7-.1 6.6-1.8 10.6.1-1.1.1-.3 0-4.2-.1-3.2-1.4-5.4-2.1-6.7.4 2.3.6 5.4-.2 7.9-.4-4.5-1.4-8.5-2.7-11.4 1 3.7.6 7.6-.1 8.4-.3-3.7-.9-5.4-1.7-6.9-.9-.7-1.8-1.8-2.1-1.9-.2-.1-.5-.3-.9-.6.6 2.9.7 6.4-.1 7.9-.1-3.6-.8-6-2-8.7 0 0-1.4-.3-2-.4 1.3 3 1.8 6.7.9 9-.4-3.9-.9-5.8-2.1-8.1 1 3.9 1.4 9.6-.1 10.9.1-5.7-1.7-9.8-2.7-12-.4 1-1.4 2-2 2.6.5 2.2.9 4.6.4 5.9-.4-2.6-1.5-5.1-2.6-7.4 0 2.3-.7 5.5-1.6 6.9.3-2.1 0-4.3-.5-6.1-.4 2.2-1.6 6-3.2 6.9.5-2 .4-3.5.3-4.7-.5 2.1-2.5 3.7-4.2 4.8-2.4 1.6-4.7 1.5-6.3 2.3-1.4.6-1.1 7.6-1.4 10-.4-.6-.4-2.3-.8-3.2-3.9-10.5 1-19.1 3.1-21.4z"/><path id="XMLID_18_" class="st16" d="M59.9 34.4c-.1.7-.5 3-1 3.6-.9 1.3-3 2.2-4.5 2.4-1.5.2-5.5 0-6.5-.8-1.3-.9-1.7-2.1-1.8-3.8-.1-1.7.3-3.1 2.1-3.8.7-.3 2.1-.9 3.9-1 1.6-.1 3.7.1 5 .4 1.7.4 2 .5 2.6 1.6.1.2.2 1 .2 1.4z"/><path id="XMLID_17_" class="st16" d="M39.1 34.2c.4.3.5 2.3.1 3.9-.2 1.1-1.3 2.4-2 2.7-.8.3-3.3 1.3-5.7 1.1-2.4-.2-4.2-.4-5-1.5-.9-1.2-1.3-3.8-.7-5.3.6-1.5 3.1-2.2 4.6-2.4 1.5-.2 3.7-.3 5-.1 1.3.3 2.6.7 3.7 1.6z"/><path id="XMLID_16_" class="st1" d="M46.8 65.9c-.4 2-6.2 5.4-9.3 5.1-3.1-.3-7.7-3.8-7.9-4.7-.2-1 1.4-4.9 2.6-6.5 3.2 3.4 5.5 2.4 7.1 2.3 1.6-.1 3.3-1.8 3.7-2.6"/><path id="XMLID_15_" d="M39.6 36.7c.2-1.4.3-2.3-.4-2.8-.5-.4-1.7-1.1-3.3-1.4-1.2-.2-2.7-.3-4.9-.1-1.3.1-3.3.8-4.1 1.1-.8.4-1.8 1.6-1.7 3.1 0 .3 0 .7.2.7s.2-.2.2-.6c0-1.8 1-2.3 1.4-2.5.7-.3 2.5-.9 3.7-1 2.1-.2 4-.2 5.1 0 1.3.2 2.6 1 2.9 1.2.4.4.3 1.2.3 1.9 0 .5-.2.8.1.9.4.1.4-.2.5-.5z"/><path id="XMLID_14_" d="M46.3 36.1c0-.5-.1-.9 0-1.4.1-1.3 1-2.1 2.9-2.7 2.1-.6 3.3-.6 5.6-.5l1.9.2c1 .1 1.7.4 2.3.7.3.1.5.8.6 1.2 0 .6-.1.7.2.8.3.1.3-.2.3-.6 0-.9 0-1.8-.9-2.1-.7-.3-1.3-.5-2.4-.7l-1.6-.2c-2.6-.2-4.6-.2-6.7.7-2.3 1-2.6 1.4-2.8 3.1-.1.5.1 1.4.1 1.6 0 .3.1.4.3.3.2 0 .3-.1.2-.4z"/><path id="XMLID_13_" d="M46.1 33.7c-.6-.1-1.6-.3-2.9-.2-1.3.1-3.1.6-3.8 1 0 .5.1 1 .1 1.3.8-.8 2.4-1.5 3.6-1.6 1.2-.2 2.5.6 2.9 1 0-.5 0-1.1.1-1.5z"/><path id="XMLID_12_" d="M15.2 30.8c.6-.2 2.1-.3 3-.3 1 0 1.8.4 2.1.6.3.2.2 0 .8.6.5.6.6.9 1.3 1.7.7.8.9.7 1.1 1.3.2.6.4.6.7 1.4.3.8.2 1.4.3 2.1.1.7.1.5.3 1.2.2.8.2 1.5 0 2-.2.6-.2.9-.1 1.9 0 1 .1 1.4-.1 1.8-.3.4-.1.7-.3 1.4-.3.8-.1.9-.4 1.7-.3.8-.5.9-.6 1.3-.2.4 0 .6-.5 1.1-.5.5-.8 1-1.2 1.3-.4.3-3.2 1.2-4.1 1.3-3.1-2.1-8.1-7.9-6.2-13.9 1.6-6.4 1.8-7.2 3.9-8.5z"/><path id="XMLID_11_" class="st4" d="M14.7 31.3c-2.3 1-3.4 5.5-3.3 10.7.2 5.3 1.6 9.9 4 10.6.3.1 1.1 0 1.3-.1 2.8-.1 4.9-4.9 4.7-10.8-.2-5.9-2.6-10.6-5.3-10.5-.3-.1-1.1-.1-1.4.1z"/><ellipse id="XMLID_10_" transform="rotate(178.379 15.569 41.845)" class="st17" cx="15.6" cy="41.8" rx="5" ry="10.7"/><path id="XMLID_9_" d="M14.1 38.8c-.4.5-.4 1.6-.3 2.7 0 1.2.1 2.6.6 3 .2.1.7 0 .8-.1.8 0 1.4-1.4 1.3-3 0-1.6-.7-3-1.5-2.9-.2 0-.8 0-.9.3z"/><ellipse id="XMLID_8_" transform="scale(-1) rotate(-1.626 -2927.13 1015.805)" class="st4" cx="14.4" cy="41.5" rx="1.4" ry="3"/><g><path id="XMLID_7_" class="st6" d="M17.3 47.7c1.8-.8 3.6-1.6 4-2.1.7-.7-.3-1.8-.7-1.8-.5-.1-.7 0-1.3.2-.7.2-1.3.6-1.3.6 1.5-1.5 2.5-3.7 1.7-4.3-.8-.6-1.2.1-1.5.3-.7.5-1.5 1.8-1.5 1.8.1-1 .1-3.7-1-3.7-1.1-.1-1.3 1.7-1.6 3.1-.2-.5-.4-2-1-2.9-.4-.6-1.6-1.1-1.6.3 0 1.4.3 2.2.3 3.1-.5-1.5-.9-2.8-1.9-2.6-1 .2-.4 3.2 0 4.8.4 1.6.1 2.5.1 2.5 1.6.4 5.5 1.6 5.8 2.2-.3.1.8-1.2 1.5-1.5z"/><path id="XMLID_6_" class="st1" d="M18.7 48.2c-.5-.6-7.8-4.3-9.9-4.1-1.8 5.2-4.9 19-4.8 21 .1 2-.1 3.2 3.9 4.7 3.9 1.5 13.2 4 16 4.4 4.9-3.4 7.5-13.3 7.1-16-4.9.1-13.7-1.4-13.7-1.4.1-1.7.4-5.2 1.4-8.6z"/></g><path id="XMLID_5_" class="st18" d="M15 132.1l80.9-7.9.1-5-80.9 7.9z"/><path id="XMLID_4_" class="st19" d="M17.2 123.7l72.1-6.7.1-5-72.1 6.6z"/><g><path id="XMLID_3_" class="st20" d="M49.6 93.3l2.2 2.2-2.3.1-2.3-2.2z"/><path id="XMLID_2_" class="st21" d="M46 93.5l2.3 2.2-2.3.2-2.3-2.3z"/><path id="XMLID_1_" class="st22" d="M42.4 93.7l2.3 2.3-2.3.1-2.3-2.3z"/></g></svg>