<svg id="レイヤー_1" xmlns="http://www.w3.org/2000/svg" viewBox="0 0 80 164"><style>.st0{fill:#18517c}.st1{fill:#d29e34}.st2{fill:#ca8d27}.st3{fill:#bb731b}.st4{fill:url(#XMLID_59_)}.st5{fill:url(#XMLID_60_)}.st6{fill:#f8d6c0}.st7{fill:url(#XMLID_61_)}.st8{fill:#a43f00}.st9{fill:#FFF}.st10{fill:#125b9f}</style><path id="XMLID_32_" d="M44.1 2.1c3.1-.2 7.5.1 10 2 3 2.3 6.6 6.4 7.8 10.1.8 2.3 1.7 7.8 1.1 9.8-.3-1.4-.7-2.2-.7-2.2 1.1 3.8 0 5.5-.2 6.1.3-1.3-.3-3.9-.3-3.9.2 2 .1 6.5-1.3 7.5-3.4-2.1-20.1-4.2-21.8-6.6-1.7-2.3-3.2-9-3.7-11.1-.5-2 .1-11.8 9.1-11.7z"/><path id="XMLID_31_" d="M18.1 29.6c-.2.8-.1.9.1 2.2-.6-.8-2.1-2.5-2.1-5.8-.1.3-.3 1-.1 2.4-.7-1-1.7-2.8-1.3-6.6 0 0-.4.5-.7 2.2-1.1-8.2 3.4-14.8 11.3-20.2C29 1.2 34.5-.2 38.5 0c3.5.2 5.9 1.5 6.5 2.4.9 1.4 4.1 4.5-1.1 9.7-5.1 5.2-15.4 5.3-17.8 7.3-2.4 2.1-7.1 5.9-8 10.2z"/><path id="XMLID_30_" d="M11.6 139.2c-1.7 2-7 7.6-8.4 9.3-1.5 1.7-2.6 2.9.4 5 2.9 2.1 8.4 1.8 11.9-.3 4.1-2.5 5.9-3.2 6.5-4.8.9-1.7 1.9-3.1 1.5-6.1-4.3.1-9.7-2.1-11.9-3.1z"/><path id="XMLID_29_" class="st0" d="M43.6 95.4c-.8 1-4.8 2.4-7.1 3.2-2.8 1.1-8.1 2.2-12.6 5.1-1 .6-6.7 3.5-8.2 6.8-1.5 3.3-6.2 28.3-6.4 30.8 3.5 3.1 10.5 5.1 14.5 3.9 2.3-8.2 8.2-25.8 8.2-25.8 2.4-7.5 4.3-10 7.4-14.5 2-1.4 6.2-3.8 7.6-3.8-2-1.5-3-3.7-3.4-5.7z"/><path id="XMLID_28_" class="st1" d="M48.7 164L29 157.1v-44.5l19.7 6.9z"/><path id="XMLID_27_" class="st2" d="M74.4 148.3L48.7 164v-44.5l25.7-15.8z"/><path id="XMLID_26_" class="st3" d="M48.7 119.5L29 112.6l26.7-15.4 20.2 5.9z"/><linearGradient id="XMLID_59_" gradientUnits="userSpaceOnUse" x1="19.234" y1="42.709" x2="21.048" y2="37.796"><stop offset="0" stop-color="#fbdccb"/><stop offset="1" stop-color="#fac5a0"/></linearGradient><path id="XMLID_25_" class="st4" d="M20.6 34.3c-1.7-.7-2.3-.3-2.2 2 .1 2.3 1.7 6.9 4.3 6.8"/><linearGradient id="XMLID_60_" gradientUnits="userSpaceOnUse" x1="60.694" y1="38.262" x2="58.728" y2="33.651"><stop offset="0" stop-color="#fbdccb"/><stop offset="1" stop-color="#fac5a0"/></linearGradient><path id="XMLID_24_" class="st5" d="M56.6 28.4c.4-2.7 2.2-3.3 3.5-1.4 1.3 1.9.8 8.8-.3 10-1.1 1.2-1.8 1.9-3 2.2"/><path id="XMLID_23_" class="st6" d="M10.9 65.9c.3-1.9.7-3.9.6-4.5-.2-1-1.6-.8-1.9-.4-.3.3-.4.6-.6 1.2-.2.7-.3 1.5-.3 1.5-.4-2.1-1.6-4.2-2.6-3.8-.9.4-.6 1-.6 1.4 0 .9.6 2.3.6 2.3-.8-.6-3-2.1-3.7-1.3-.7.8.6 2.1 1.6 3.1-.6-.2-1.8-.8-2.9-.8-.7 0-1.8.7-.7 1.5s2 1.1 2.7 1.5c-1.5-.4-2.8-.9-3.2.1-.4.9 2.4 2.2 4 2.8 1.5.6 2.1 1.4 2.1 1.4 1.2-1.1 4.4-3.6 5.1-3.5.1-.1-.4-1.8-.2-2.5z"/><path id="XMLID_22_" d="M49.2 70.8c-.8 2.6-3.9 6.4-6 9.1-1.4 1.3-7.7 9.3-9.5 11.3-1.8 2-2.9 3.7-4.7 4.8-1.8 1.1-4.8-.7-6.5-2-1.7-1.3-6.8-5.6-10.4-10.3-1.2-1.6-5.9-7.8-7.4-9.9.3-1.3 5.6-5.7 6.9-7.1 2.4 2.7 8.8 9 10.4 10.4s3.2 2.3 3.6 2.4c1.3-2.2 6.4-10.4 7.4-12.1 1-1.7 4.7-6.9 6-8.5 2.6-3 4.2-5.1 8.3-5.3.2 2.9 2.2 7.8 1.9 17.2z"/><path id="XMLID_21_" d="M60.5 146.4c-.2 2.6-1.2 10.3-1.4 12.5-.2 2.2-.4 3.8 3.2 3.8s7.9-3.5 9.4-7.3c1.9-4.5 2.9-6.1 2.5-7.7-.3-1.9-.3-3.6-2.3-5.8-3.4 2.6-9.1 3.9-11.4 4.5z"/><path id="XMLID_20_" class="st0" d="M52.3 107.7c-.6 1-4 6.5-3.6 10.1.4 3.6 9.2 27.8 10.6 29.6 4.6.8 11.2-1 14-4-2.2-8.3-5.8-23.8-5.8-23.8 5.8-5 9-11.1 11.2-15.9-6-7.5-13.6-7.5-18.2-6.9-1.8 2.4-5.8 6-8.2 10.9z"/><path id="XMLID_19_" class="st0" d="M34.4 109.4c5.4 0 17.1 1.6 18.5 2 2.6-1.8 7.1-6.7 7.1-7.7s-9.6-7.8-11.6-8.2c-2-.4-10 8.7-14 13.9z"/><linearGradient id="XMLID_61_" gradientUnits="userSpaceOnUse" x1="50.803" y1="58.561" x2="49.141" y2="54.404"><stop offset="0" stop-color="#fbdccb"/><stop offset="1" stop-color="#fac5a0"/></linearGradient><path id="XMLID_18_" class="st7" d="M51 49.6c.6 1.4 1.5 3 1.8 3.3.6 1 1.5 2.3 2.5 2.7.2 1.2-1.7 3.2-2.6 4-1.6 1.4-5.9 1.2-7.2-.1.7-.8.9-2 .9-3.1-.4-1.6-.8-2.4-1.1-3.1 1.4-.4 5.4-2.7 5.7-3.7z"/><path id="XMLID_17_" class="st6" d="M18.4 30.1c1.4 3.4 3.8 11.4 4.3 13.4s3.7 7.1 6.6 8.9c3 1.8 6.8 3.7 9.7 4 3 .3 5.4-.4 7.7-1.9s5.4-3.4 7.8-7.6c2.2-3.9 3.8-7.8 3.3-13.8-.5-6-.4-7.1-.7-8.6-.7-4 0-8.7-7.1-12.5-7.1-4-19.2-4-24-.6-4.8 3.3-8.3 7.3-8.8 11-.5 3.6.3 5.6 1.2 7.7z"/><path id="XMLID_16_" d="M22.3 31.2c1 .4 6.5 3.7 6.9 4 .2.2.1.6-.1.6-.7-.4-5.9-3.2-6.2-3.4-.4-.1-1.4-1.3-.6-1.2z"/><path id="XMLID_15_" d="M51.1 28.5c-1 .4-6.5 3.7-6.9 4-.2.2-.1.6.1.6.7-.4 5.9-3.2 6.2-3.3.4-.1 1.4-1.4.6-1.3z"/><path id="XMLID_14_" d="M29 39.5c0 .9-.4 1.6-1.2 1.6-.9 0-1.9-.7-1.9-1.6s.5-1.8 1.3-1.8c.9 0 1.8.9 1.8 1.8z"/><path id="XMLID_13_" d="M44.4 36.8c0 .9.4 1.6 1.2 1.6.9 0 1.9-.7 1.9-1.6 0-.9-.5-1.8-1.3-1.8-.9 0-1.8.9-1.8 1.8z"/><path id="XMLID_12_" class="st8" d="M39.5 49.5c-.4 0-.6-.1-.8-.2-.2-.1-.5-.2-.4-.5.1-.2.4-.1.6 0 .3.1 1 .1 2.8-.2.5-.1 1.1-.1 1.5-.1.9-.1 1.2-.1 1.8-.6.2-.2.4-.3.6-.1.2.2-.1.3-.3.5-.8.6-1.4.8-2.3.9-.4 0-.8.1-1.2.1-1 .2-1.8.2-2.3.2z"/><path id="XMLID_11_" class="st9" d="M46 57.5c.4.8 2.3 1.9 3.5 1.5 1.2-.4 3.5-1 4.7-2.6.9 3.6 5.2 16.9 6.1 18.7C61.1 77 62.4 86 63 89c.6 3 .8 11.2.5 13.2-.3 2-1 3.4-1 3.4-1.3-.3-10.1-1.4-12.9-2.8-2.8-1.4-8-4.5-8.5-5.4 3.5-4 4.7-9.1 4.7-11.2 0-2.1-1-12.1-1.3-15.6-.3-3.6-.6-9-.4-10.2.3-1.2 1.5-2.2 1.9-2.9z"/><path id="XMLID_10_" class="st10" d="M50.5 66.8c-1.9 0-7.1-.2-9.2-1.3l.6-3.6c1.2.6 7.1 1.3 9 1.2 2-.1 4.8-.9 6.3-1.7l.7 3.6c-2 1-4.3 1.6-6.8 1.7-.1.1-.3.1-.6.1z"/><path id="XMLID_9_" class="st10" d="M51.2 75.4c-2.2 0-5.2-.3-7.2-1.2l.3-3.5c1.6.7 6 1.2 8.1 1.1h.2c2-.1 6.2-.6 8.7-1.8l.7 3.5c-3.1 1.5-6.9 1.7-9.2 1.9H51.2z"/><path id="XMLID_8_" class="st10" d="M52.4 83.8c-2.1 0-4.5-.5-6.7-1.1l.2-3.8c1.6.4 6 1.7 8.2 1.1 1.2-.3 2.6-.4 4.1-.5 1.9-.1 4.9-.6 6.1-1.3l.8 3.6c-1.9.9-4.4 1.1-6.6 1.3-1.3.1-2.6.2-3.4.4-.9.2-1.8.3-2.7.3z"/><path id="XMLID_7_" class="st10" d="M63.8 92.2c-2.1-.5-6.6-.7-9.7-.7-3.2 0-5.5-.7-8.5-1.9l.2-3.9c2.6 1.1 5.7 2.2 8.3 2.2 1.2 0 7.4 0 10.6.8l-.9 3.5z"/><path id="XMLID_6_" class="st10" d="M58.2 101.3c-1.4-.5-2.7-.7-4-.9-.9-.2-1.8-.3-2.7-.6-2.3-.6-6.4-2.9-8.3-4.3l2.1-2.9c1.8 1.3 5.4 3.3 7.1 3.7.7.2 1.5.3 2.4.5 1.3.2 2.7.5 4.4 1l-1 3.5z"/><path id="XMLID_5_" d="M46.4 56.3c.1 2.6-.1 5.5.1 9s.3 8.4.4 12.1c.1 3.7.4 6.4.1 9.2-.3 2.8.5 5.3-1.1 7.3s-1.2 2.3-2.8 3.3c-1.6 1-1.4.7-2.8.9-1.4.2-2.6-.2-3 .1 1.2-.9 1.6-.7 2.8-2 1.2-1.3 3.8-5.6 3.9-6.3.1-.8-.2-4.3-.6-5.7-.5-1.4-2.1-6-2.5-7.4-.4-1.4-1.5-7.6-1.5-8.7 0-1.1.9-8.4.9-8.4 1.4-1.2 6.1-3.4 6.1-3.4z"/><path id="XMLID_4_" d="M52.8 52.6c-.4 1.3 1.8 13.2 2.6 15.3 1.1 3.2 4.8 10.1 5.2 13.8.4 3.7 1.9 12.8 1.5 16.2-.4 3.4-.6 7.1-.8 8.5-.3 1.7-1 4.6-1.4 6.7 1.9.8 11.9 3.4 12.9 3.9 1.1.5 6.4 2.1 6.8 2.3 1.1-3.1-.5-20.3-1-23.9s-2.1-21.5-5.9-26.9c-3.7-5.6-7.7-12-10.1-13.7-2.4-1.6-7.3-2.4-9.8-2.2z"/><g><path id="XMLID_3_" class="st6" d="M49.5 102.7c-2-.1-3.9-.4-4.5-.2-1 .3-.6 1.7-.3 2 .4.3.6.3 1.2.5.7.2 1.5.2 1.5.2-2 .6-4 2-3.5 2.9.5.9 1.1.5 1.5.5.9-.1 2.2-.8 2.2-.8-.5.8-1.8 3.2-.9 3.8.9.6 2-.8 2.9-1.9-.1.6-.6 1.9-.5 3 .1.7.9 1.7 1.6.5.7-1.2.9-2.1 1.3-2.9-.3 1.6-.6 2.9.4 3.2 1 .3 1.9-2.6 2.4-4.2s1.2-2.2 1.2-2.2c-1.2-1.1-4-4.1-4-4.8-.2-.1-1.9.4-2.5.4z"/><path id="XMLID_2_" d="M63 76.1c.9 3.9 1.4 10.3 1.6 14.2-1.6 1.6-7.5 5.3-9.2 6.3-1.7 1-4.3 2.7-7.5 5.1 1 3.2 4.7 7.1 7.5 7.8.5-.1 3.3-1.8 5.4-2.8 2.1-1 11.1-7.8 13.4-10 2.3-2.2 2.3-2.4 2.3-5.1 0-5.9-.4-15-.8-16.8-2.7-11.6-9.4-18.3-12-20.8-2-1.9-8.7-1.3-10.7-1.5-.6 4 1.8 10.9 3.2 13.6 1.4 2.7 6.4 8.3 6.8 10z"/></g><path id="XMLID_1_" d="M24.7 18.8c0 1.2.3 2.7.6 3.1 1.1-3.1 3.5-6.6 4.5-7.5 1.2 2.2 4.8 5.9 8.3 6.7-.9-1.8-1.3-3.9-1.4-5.1 1.8 1.8 2.5 2.3 3.3 2.7-.6-1.6-.3-3.1-.2-3.6 1.4 2.7 5.9 6.5 9.4 6.9-1.1-2.1-1.3-2.8-1.3-4 1.1 1.7 3.4 4.7 6.3 5.9-.8-1.8-.6-2.3-.7-2.8.8 1.2 2.1 3.4 3.9 4.1.4-3.6 0-7.5-1.2-9.9-1.2-2.4-9-7.7-16.5-8.3-5.8-.5-10-1.4-16.5 3.5-2.7 2-6.2 6.3-6.7 10.2-.3 2.4-.4 5.7.6 8.1.8 1.9 1.4 2.7 2.2 3.2-.8-3 .6-6.5 1.4-7.8.1 1 .3 1.3.6 2 .2-2 .6-3.8 1-4.6-.1 1 0 1.2.4 2.3.1-2.2 1-4.4 2-5.1z"/></svg>