<svg id="レイヤー_1" xmlns="http://www.w3.org/2000/svg" viewBox="0 0 102 158"><style>.st0{fill:#424141}.st1{fill:#deac5b}.st2{fill:#6e412c}.st3{fill:#d20000}.st4{fill:#f8d6c0}.st5{fill:#fff}.st6{fill:url(#XMLID_91_)}.st7{fill:#777}.st8{fill:#424242}.st9{fill:url(#XMLID_92_)}.st10{fill:url(#XMLID_93_)}.st11{fill:#3d3d3d}</style><path id="XMLID_64_" class="st0" d="M13.2 116.4c-.5.5-3.2 4.5-3.2 6.2 0 1.7.2 1.2.8 2.1.6.9 3.2 2.7 3.5 2.8.2.1 1.3-.6 1.7-1.2.4-.6 3.8-5.3 4.1-6.4.2-1.1-4.8-5.6-6.9-3.5z"/><path id="XMLID_63_" d="M16.8 120c-.6.4-2.5 3.1-2.9 4.2-.4 1.1-.5 3.1.7 3.6 1.1.5 2.8.1 3.7-1.2.9-1.3 2.5-3.5 2.5-4.6 0-1.1-.8-2.1-1.3-2.4-.5-.3-1.4-.4-2.7.4z"/><path id="XMLID_62_" class="st0" d="M46.9 143.8c-.5.5-3.2 4.5-3.2 6.2 0 1.7.2 1.2.8 2.1.6.9 3.2 2.7 3.5 2.8.2.1 1.3-.6 1.7-1.2.4-.6 3.8-5.3 4.1-6.4.2-1.1-4.8-5.6-6.9-3.5z"/><path id="XMLID_61_" d="M50.5 147.4c-.6.4-2.5 3.1-2.9 4.2-.4 1.1-.5 3.1.7 3.6 1.1.5 2.8.1 3.7-1.2.9-1.3 2.5-3.5 2.5-4.6 0-1.1-.8-2.1-1.3-2.4-.5-.3-1.4-.5-2.7.4z"/><path id="XMLID_60_" class="st1" d="M4.8 95.9c-1.1.9-2.6 4.5-3 6.9-.3 1.6.5 2.9 1.8 4.8 1.8 2.6 5.6 6.6 8.3 8.7 2.7 2.1 10.4 8.1 13 9.8 2.6 1.7 21 17.1 24.3 19.7 3.3 2.6 10.6 8.6 13 10.1 2.4 1.5 4.2 2.6 8.1 2 3.9-.6 5.9-1.7 8.3-2.6 1.1-.4 1.4-.5 2.3-1.2 1.1-.9 1.1-2 1.4-4 .2-1.4-.9-2.3-2.2-2.8-2.5-1-5.7-2.2-9.3-3.7-4.2-1.8-8.1-4.1-14.3-8.5-6.2-4.4-30.6-22-33.8-26.2-3.2-4.2-6.5-8.9-7.4-11.6-.9-2.7-2.7-3.9-5-4.2-2.2-.3-3.8 1.4-5.5 2.8z"/><path id="XMLID_59_" d="M24 122.6c3.5 2.3 12.4 9.6 14.3 11.1 2 1.5 11.6 9.6 13.6 11 2 1.4 10.4 8.1 11.9 9 1.5.9 4.2 2 6.8 1.2 2.6-.8 4.5-1.3 6.2-2 1.7-.8 3.5-1.3 4-2 .3-.5.9-1.6 1-2.7-.4-.4-1-.8-1.6-1-2.5-1-5.7-2.2-9.3-3.7-4.2-1.8-8.1-4.1-14.3-8.5-6.2-4.4-30.6-22-33.8-26.2-3.2-4.2-6.5-8.9-7.4-11.6-.9-2.7-2.7-3.9-5-4.2-2.3-.3-3.9 1.4-5.6 2.7-.8.8-1.8 2.9-2.4 5 1.3 2.9 3.7 6.6 5.6 8.4 2.4 2.2 12.5 11.3 16 13.5z"/><path id="XMLID_58_" class="st2" d="M19.2 90.9c-2.6.1-10.3 0-12.5.1-2.2.1-3.8.1-3.4 3.6.4 3.6 4.4 7.4 8.3 8.5 4.6 1.3 6.4 2.1 7.9 1.6 1.8-.5 3.6-.7 5.5-3-2.9-3.1-5-8.6-5.8-10.8z"/><path id="XMLID_57_" d="M69.4 101.1c-2.9.8-4.2.1-8.4-.9-3.4-.9-7.8-3.2-10.7-3.8-2.1-.4-5-2-11-3-5.1 3.6-14.7 9.9-15.2 10.2-3.1-2-10.1-10.2-9-13.6 7.6-5.3 16.2-11.9 18.9-14 2.7-2.2 6.4-3.4 11.4-1.2 5.7 2.4 18.1 5.5 20.7 6.8.6 4.6 3.3 19.5 3.3 19.5z"/><path id="XMLID_56_" class="st2" d="M63.2 134.9c.3 2.6.7 10.3.9 12.5.2 2.2.3 3.8 3.9 3.2 3.6-.7 7.1-4.9 8-8.8 1-4.7 1.8-6.5 1.1-8-.6-1.8-1-3.5-3.4-5.2-2.9 2.9-8.3 5.3-10.5 6.3z"/><path id="XMLID_55_" d="M87.3 90.7c0 3 .8 7.2-1.5 9.9s-6.9 7.4-8.4 9c-1.5 1.7-5 6.3-5 6.3 2.1 5.9 5 15.6 5.1 16.2-2.7 2.4-12.5 6.9-15.5 5-3-8.7-7.1-18.8-8.4-22-1.4-3.2-1.8-7.5 2.3-11.1C60 100.4 67.1 91.1 69 89c4.6.7 18.3 1.7 18.3 1.7z"/><path id="XMLID_54_" class="st3" d="M60 45.3c1.4.5 8.1 1.7 10.1 2.3 2 .6 6.7 1.7 8.4 3.2 1.7 8.4-1.8 15.7-2.8 16.8-1.1 1.1-6.3 3.3-10.3 2.4-3.9-.9-12.4-4.1-14.2-6.9-1.8-2.9-2.7-14.4-2.7-15.2 0-.8 3.5-2.7 4.8-3 1.4-.3 3.4-.5 6.7.4z"/><path id="XMLID_53_" class="st4" d="M8 54.7c-1.3 1.4-2.6 2.9-3.2 3.2-.9.4-1.6-.8-1.5-1.3.1-.5.3-.7.6-1.2.4-.6 1-1.1 1-1.1-1.9.9-4.3 1.2-4.6.3-.3-1 .5-1.1.8-1.3.7-.6 2.2-.9 2.2-.9-1-.3-3.5-1.1-3.2-2.1.3-1.1 2-.7 3.4-.6-.5-.3-1.7-1-2.4-1.9-.4-.6-.5-1.9.8-1.5 1.3.4 2 .9 2.9 1.2-1.3-1-2.4-1.7-1.9-2.6.5-.9 3.2.6 4.6 1.5 1.4.9 2.3.8 2.3.8-.1 1.8-.2 5.8.3 6.3 0 0-1.6.7-2.1 1.2z"/><path id="XMLID_52_" class="st3" d="M6.9 43.8c4.4-.1 7.8-1.1 11.5-.9 3.6.2 6.3.3 8.1.3 1.8 0 4.1 0 7.5.6 3.5.6 16.1 3.6 16.6 3.9.5.3 4.5 14.7 4.4 16.1-.2 1.4-1.4 5.1-2.4 4.5-1.1-.6-1.4-2.1-4.5-3.2-3.2-1.1-11-5-13-6.2-2-1.2-7.1-2-8.1-2.4-5.9.2-15.5.6-16.9.9-3.6-2-5.6-7.6-3.2-13.6z"/><path id="XMLID_51_" class="st4" d="M91.4 93.2c-1.2 1.6-2.5 3.1-2.6 3.7-.3 1 1 1.4 1.5 1.3.5-.1.6-.4 1.1-.8.5-.5.9-1.1.9-1.1-.6 2-.5 4.4.5 4.5 1 .1 1-.6 1.2-1 .4-.8.5-2.3.5-2.3.4.9 1.6 3.3 2.6 2.8 1-.4.4-2.1 0-3.5.4.4 1.2 1.6 2.3 2.1.6.3 1.9.2 1.3-1-.6-1.3-1.3-1.9-1.7-2.6 1.2 1.1 2.1 2.1 2.9 1.4.8-.7-1.2-3-2.2-4.3-1.1-1.2-1.2-2.2-1.2-2.2-1.6.4-5.6 1.1-6.2.7-.1.1-.5 1.8-.9 2.3z"/><path id="XMLID_50_" class="st3" d="M75.2 49.1c5.8 2 18.9 13.2 20.1 14.6.8.9 3 4.4 3.7 9 .8 4.7 2.3 18.4 2.3 19.1-2.6-.1-11 .6-12.2 1.8-.3-4.5-2.1-17.9-2.4-19.1-4.2-3.2-8.3-4.5-10.7-5.3-4.5-2.7-7.8-6.8-7.5-11.1.3-4.4.8-5.9 2.1-6.9s1.3-3.2 4.6-2.1z"/><path id="XMLID_49_" class="st3" d="M50.2 65.2c.4 2.8.9 6.6 2.1 9.2 1.2 2.6 2.6 4.8 1.8 7.1s-1.1 3 0 4.5 2.4 4.8 6.6 4.7c4.2-.2 6.2-.9 9.5 1.2s3 3.6 6.8 3.5c3.8-.1 10.4-.3 11.2-.9-.2-5.4-1.5-14.6-2.3-16.8-.8-2.3-2.1-7.4-3.9-10.5-1.8-3.2-1.5-5.9-7.2-9.3-6.4-3.9-15.4-4.5-16.7-4.5-1.4-.3-9.1 2.1-7.9 11.8z"/><path class="st5" d="M66 67.2c-.1 0-.2 0-.5-.1l-.9-.1h-.4c0-.1.1-.2.1-.4l.2-1.7v-.5c.1 0 .2 0 .4.1l.9.1h.4l-.1.6c-.1 0-.2 0-.4-.1L65 65l-.1.5.6.1h.4l-.1.6c-.1 0-.2 0-.4-.1l-.5-.1-.1.5.8.1h.5l-.1.6zM67.5 67.4c0-.1-.1-.2-.1-.3l-.2-.3-.2.2c-.1.1-.1.2-.2.3l-.7-.1.3-.3.6-.6-.4-.7s-.1-.1-.2-.3l.7.1c0 .1.1.2.1.3l.1.2.2-.2c.1-.1.1-.2.2-.2l.7.1-.2.2-.5.6.4.7c.1.1.1.2.2.3h-.8zM72 65.3c0 .1-.1.2-.1.5l-.1 1.1c-.1.7-.5 1.1-1.3 1-.4 0-.7-.2-.8-.4-.2-.2-.2-.5-.2-.8l.1-1.1v-.5l.6.1c0 .1 0 .2-.1.5l-.1 1.1c0 .4.1.6.5.6s.5-.1.6-.5l.1-1.1v-.5h.8zM72 67.9c0-.1.1-.3.1-.5l.1-.9V66l.6.1v.2c.2-.2.4-.2.6-.2.2 0 .4.1.5.2.1.1.1.3.1.5l-.1.8v.5l-.6-.1c0-.1.1-.3.1-.5l.1-.6v-.2c0-.1-.1-.1-.2-.1-.2 0-.3.1-.5.3l-.1.6v.5l-.7-.1zM75 66.3c0 .1-.1.2-.1.5l-.1.9v.5l-.6-.1c0-.1.1-.3.1-.5l.1-.9v-.5l.6.1zM75.6 66.3v-.4l.6.1c0 .1-.1.3-.1.4v.1h.4v.5h-.4l-.1.7v.2H76.3v.5h-.4c-.2 0-.3-.1-.4-.2-.1-.1-.1-.2-.1-.4l.1-.9h-.4l.1-.5h.3l.1-.1z"/><circle id="XMLID_42_" class="st5" cx="74.8" cy="65.7" r=".4"/><linearGradient id="XMLID_91_" gradientUnits="userSpaceOnUse" x1="59.344" y1="54.299" x2="58.084" y2="51.148"><stop offset="0" stop-color="#fbdccb"/><stop offset="1" stop-color="#fac5a0"/></linearGradient><path id="XMLID_41_" class="st6" d="M54.2 50.8c.4 1.2 1.8 2.9 1.8 4.5 1.5.9 2.2.9 4.1.3 2.3-.8 2.3-4.4 1.5-5-.6-.6-1.4-2-2.3-3-1.4 1.4-2.7 3.3-5.1 3.2z"/><path id="XMLID_40_" class="st7" d="M61.6 10.4c.7.9 4.1 8.6 3.3 10.8-.8 2.2-1.4 4.4-2.7 4.9-1.3.5-6.2-2.7-6.5-4.4-.3-1.7-.7-7.4-.3-9C55.8 11 57 8.2 57 8.2s2.8-.3 4.6 2.2z"/><path id="XMLID_39_" class="st8" d="M61.7 12.3c1.1 2.5 1.7 6.4 1.8 7.8-.4.2-.8.9-1.5.1-1.4-1.6-3.3-5.7-3.3-6.1-.1-.6 2.8-2.4 3-1.8z"/><path id="XMLID_38_" class="st8" d="M21 31.7c.2 1.2.5 2.8 1.6 3.9 1.2 1.1 2.6 3.1 3.6 4.3 1.1 1.2 2.3.5 1.7-.8-.6-1.3-2.9-7.2-3.4-8.7-.5-1.6-1.2-5.4-1.3-6-.1-.6-2.9 1.9-2.2 7"/><linearGradient id="XMLID_92_" gradientUnits="userSpaceOnUse" x1="66.351" y1="32.352" x2="64.156" y2="27.203"><stop offset="0" stop-color="#fbdccb"/><stop offset="1" stop-color="#fac5a0"/></linearGradient><path id="XMLID_37_" class="st9" d="M60.6 20.1c1.8-1.4 3.7-1.9 4.9.6 1.2 2.5 3 11.7-2.9 12.2"/><linearGradient id="XMLID_93_" gradientUnits="userSpaceOnUse" x1="32.793" y1="50.949" x2="30.614" y2="45.836"><stop offset="0" stop-color="#fbdccb"/><stop offset="1" stop-color="#fac5a0"/></linearGradient><path id="XMLID_36_" class="st10" d="M27.8 38.5c-2.2.3-3.9 1.5-2.8 4s6.6 10.1 11 6.1"/><path id="XMLID_35_" class="st4" d="M59.1 14.6c1.3 2.4 2.5 4 3.2 8.2 1 5.3 2 10.4 2.3 14.7.4 4.9-2.9 9-4.7 12-2 3.4-5.6 6.1-8.1 6.6-2.5.4-6.1.3-11.1-1.4-4.3-1.5-5.4-4.2-6.9-5.4-1.4-1.3-6.3-8.6-8.8-13.1-2.4-4.3-5.6-11-4.6-14.9.9-3.9 9.5-12 14-13.7C39.1 6 46 3.4 49.6 4.9c3.6 1.5 7.8 6.6 9.5 9.7z"/><path id="XMLID_34_" class="st8" d="M26.1 22.1c-.4 1.4-1.8 3.7-1.7 6.4.1 2.7.1 4.8.7 6.7.6 1.9 1.2 3.3 1.2 3.3-.3 0-.5 0-.8-.4-.3-.4-.7-1-1.1-1.6-1.3-2.1-3.4-6.3-3.2-8.9.3-2.6.5-5.1 1.4-6.2.9-1.1 3.9-.8 3.6.4"/><path id="XMLID_33_" class="st8" d="M51.2 13.5c3.7.5 4.8 1.9 5.2 2.1 1 .6 1.7 1 2.5 1.7.7.5 2.1 1.7 2.2 2.5-.2-3.9-.1-5.2-.8-6.1-.6-.8-1.9-1.6-3.4-2.1s-5.4-2.3-5.7 1.9z"/><path id="XMLID_32_" class="st8" d="M58.3 15.7c1.5 1.2 3.8 6.3 4.2 8.2.3-1.8 0-5.1-.3-6.5-.3-1.4-.6-4.1-1.9-5-1.3-.9-3.1-1.3-4.3-.7-1.2.6.8 2.8 2.3 4z"/><path id="XMLID_31_" class="st7" d="M23.1 32.2c1-3.2 3-9 5.3-10.9 2.3-2 6.8-4 8.3-3.9 1.5.1 4.2-1.5 7.1-2.4 3.3-1 7.7-1.3 9.5-1.4 2.2-.1 8.3 2.7 10.3 4.7-.1-.9-.4-5.5-1.8-7.8s-3-5.1-4.7-6.1c-1.7-1-3.5-2.8-5.3-3.7-1.9-.8-5.1-.6-6.5-.4-1.5.3-1.8.9-5.8.8-4.1-.1-7.1 1.3-9.3 2-2.2.7-5.6 2.5-7.3 4.6-2 2-1.5.3-4.1 4.3-2.5 4-2.7 8.2-2.2 11 .5 2.7 1.6 5.4 1.9 8 .3 2.6 1.1 2.9 2.4 3.5 1.4.7 1.2.7 2.2-2.3z"/><g><path id="XMLID_30_" class="st11" d="M50.6 10.2c-.8-1.1-4.2-5-4.9-5.6-.2-.2-.9-.9-.7-1.1.2-.2 1.1.4 1.4.6 1.1.8 4.7 3.9 5.4 5.3.5 1 .3 1-.2 1.1-.5.1-.6.2-1-.3z"/><path id="XMLID_29_" class="st11" d="M24.9 18c-.1-1.2-.5-4.6-.2-5.9.1-.3.6-2.1.8-1.8.3.4.3 1.4.2 1.7-.1 1.1.2 4 .5 5.3.3 2 .4 2-.4 2.4-.6.5-.7 0-.9-1.7z"/><path id="XMLID_28_" class="st11" d="M40.4 10.8c-.8-1.6-3.8-4.9-4.3-5.4-.3-.3-1-.9-.8-1.2.2-.3 1.3.5 1.6.8 1.1 1 2.1 1.4 4.8 5.2.3.4.9 1.2 1 1.4.2.3.7 1 .6 1.2-.2.4-.7.5-1.1.5-.4-.2-1-1-1.8-2.5z"/></g><path id="XMLID_27_" class="st8" d="M27 35.7c-.1-.1.1-.6.2-.9.9-2 3.2-4.9 4.3-5.4.7-.3 1.1-.4 1.5-.4.4 0 .6.2.9.4.5.4.2.7-.2.7-.7.1-1.8.4-2.7 1.1-.7.5-2.4 2.3-3 3.2-.3.5-.7 1.5-1 1.3z"/><path id="XMLID_26_" class="st8" d="M56.7 23.3c0-.1-.5-.3-.8-.4-2.1-.5-6.3-.2-7.4.4-.7.4-1.2.9-1.4 1.2-.2.3-.2.7-.2 1 0 .6.4.5.7.2.5-.5 1.6-1.3 2.7-1.7.8-.3 3.2-.6 4.4-.6.5 0 2 .2 2-.1z"/><g><path id="XMLID_25_" d="M37.4 36.6c0 .9-.5 1.2-1.3 1.3-1.1.2-1.7-.9-1.7-1.8s.7-1.5 1.6-1.5c.8.1 1.4 1.1 1.4 2z"/><path id="XMLID_24_" d="M29.3 38.5c.1-.7.6-1.8 1.1-2.3.5-.6 2.3-1.8 3.6-2.1 1.4-.2 2.4 0 2.6.1.2.1.6.6.5.7-.1.1 0 .4-.5.2s-2.3 0-3.2.3c-.8.3-2.3 1.2-2.6 1.6-.3.4-.8 1.2-.9 1.5-.1.2-.7.5-.6 0z"/></g><g><path id="XMLID_23_" d="M54.8 30.2c.7.5 1.3.4 1.9-.2.8-.8.3-1.9-.4-2.4s-1.7-.4-2.2.3c-.5.7 0 1.8.7 2.3z"/><path id="XMLID_22_" d="M48.7 30.9c.1-.7.6-1.8 1.1-2.3.5-.6 2.3-1.8 3.6-2.1 1.4-.2 2.4 0 2.6.1.2.1.6.6.5.7-.1.2 0 .4-.5.2-.5-.1-2.3 0-3.2.3-.8.3-2.3 1.2-2.6 1.6-.3.4-.8 1.2-.9 1.5-.1.2-.7.5-.6 0z"/></g><g><path id="XMLID_21_" class="st8" d="M44.7 44.4c-.2.1-.1.4-.3 1.4-.2 1-.2 1.4.2 1.6.5.2 1-.3.9-.9-.1-.6.2-1.6.1-1.8-.3-.2-.5-.7-.9-.3z"/><path id="XMLID_20_" class="st8" d="M42 45.5c-.2.1-.1.4-.2 1.4-.1 1-.1 1.4.3 1.5.5.1.9-.3.8-.9-.1-.6.1-1.6-.1-1.8-.1-.1-.3-.7-.8-.2z"/><path id="XMLID_19_" class="st8" d="M43.2 45.7c-.1.2-.1.4-.1 1.6 0 1.1 0 1.5.4 1.6.6.2.9-.4.7-1-.2-.6 0-1.7-.2-1.9-.1-.3-.4-.8-.8-.3z"/><path id="XMLID_18_" class="st8" d="M54.4 40.2c0 .2.2.4.7 1.2.5.8.7 1.1 1.2.9.5-.2.6-.9.1-1.2-.5-.4-.9-1.2-1.1-1.3-.3 0-.9-.2-.9.4z"/><path id="XMLID_17_" class="st8" d="M52.1 41.1c.2 0 .4.2 1.3.9s1.1.9 1 1.4c-.2.5-.9.5-1.3-.1-.4-.5-1.3-1.1-1.3-1.4-.1-.2-.3-.8.3-.8z"/><path id="XMLID_16_" class="st8" d="M46.3 44.1c-.1.2-.5 1.8-.5 2.2 0 .4.1.6.6.6.4 0 .5-.1.7-.8.2-.7.3-2 .2-2.3-.1-.3-.6-.4-.7-.4-.2.3-.2.4-.3.7z"/><path id="XMLID_15_" class="st8" d="M48.9 43.2c.1.1 1 1 1.3 1.2.3.1.5.1.7-.3.2-.3.2-.5-.2-.9s-1.2-1-1.5-1c-.3 0-.6.3-.6.5.1.3.1.3.3.5z"/><path id="XMLID_14_" class="st8" d="M47.5 43.6c0 .2.3 1.4.4 1.7.2.3.3.4.7.1.3-.2.4-.3.3-.9-.1-.6-.5-1.5-.7-1.6-.2-.1-.7 0-.7.1-.1.2 0 .3 0 .6z"/><path id="XMLID_13_" class="st8" d="M52.9 41.2c.1.1 1.2 1 1.6 1.1.3.1.5.1.7-.3.1-.4.2-.5-.3-.9s-1.4-.9-1.7-.9c-.3 0-.6.4-.5.5-.1.2-.1.3.2.5z"/><path id="XMLID_12_" class="st8" d="M55.2 39.8c.1.1 1 .9 1.3 1 .3.1.5.1.6-.4.1-.4.2-.5-.3-.9-.4-.4-1.2-.8-1.5-.8-.3 0-.5.4-.5.5.2.4.2.4.4.6z"/><path id="XMLID_11_" class="st8" d="M51 41.9c.2.1 1.4.9 1.7 1.2.2.3.3.5-.1.8-.3.2-.4.3-1 0-.6-.4-1.4-1.1-1.5-1.4-.1-.3.2-.7.3-.7.2-.1.3-.1.6.1z"/></g><g><path id="XMLID_10_" class="st8" d="M48.3 54.5c-.1.2-.1.4-.1 1.5-.1 1 0 1.4.4 1.5.5.2.9-.4.7-1-.2-.6 0-1.6-.2-1.8-.1-.2-.4-.7-.8-.2z"/><path id="XMLID_9_" class="st8" d="M49.6 54.7c-.1.1-.1.4-.2 1.3s0 1.1.4 1.3c.5.2.9-.4.7-.9-.1-.5 0-1.4-.2-1.6 0 0-.3-.5-.7-.1z"/><path id="XMLID_8_" class="st8" d="M50.8 54.5c-.1.2 0 .5.1 1.6s.2 1.4.7 1.6c.5.1.9-.5.6-1.1-.2-.6-.2-1.7-.4-1.8-.3-.3-.6-.8-1-.3z"/><path id="XMLID_7_" class="st8" d="M56.5 51.2c.2 0 .4.2 1.3.9s1.1.9 1 1.4c-.2.5-.9.5-1.3-.1-.4-.5-1.3-1.1-1.3-1.4-.1-.2-.4-.7.3-.8z"/><path id="XMLID_6_" class="st8" d="M53.8 53.2c.2.1.4.4 1.1 1.5.7 1.1.9 1.4.6 1.8-.3.4-1.2 0-1.4-.7-.2-.7-1-1.7-1-1.9 0-.3 0-1 .7-.7z"/><path id="XMLID_5_" class="st8" d="M55.5 51.7c.2 0 .4.3 1.2 1 .8.7 1 1 .8 1.5-.2.4-1 .4-1.3-.2-.3-.6-1.2-1.2-1.2-1.5 0-.3-.1-.9.5-.8z"/><path id="XMLID_4_" class="st8" d="M47.3 54.8c-.1.1-.1.3-.2 1.2-.1.8-.1 1.1.4 1.2.5.2.9-.3.8-.8-.1-.5 0-1.3-.1-1.4-.2-.2-.5-.6-.9-.2z"/><path id="XMLID_3_" class="st8" d="M57.4 50.9c.1.1.9 1.2 1.2 1.3.3.2.5.2.7-.2.2-.3.2-.5-.1-.9-.4-.5-1.2-1.1-1.5-1.1-.3 0-.6.3-.6.4 0 .2.1.3.3.5z"/><path id="XMLID_2_" class="st8" d="M54.3 53.8c.1.2 1.2 1.4 1.5 1.6.3.2.5.2.7-.2.2-.3.3-.3-.1-.9-.5-.6-1.4-1.4-1.7-1.5-.3-.1-.7.2-.7.4 0 .3.1.3.3.6z"/><path id="XMLID_1_" class="st8" d="M52.2 54.5c-.1.3-.1.7-.1 1.1 0 .6.1 1.1.2 1.3.1.3.2.5.6.4.4-.1.7-.3.6-.8-.1-.5-.1-1.1-.2-1.7-.2-.7-.3-1.1-.6-1.1-.4.1-.4.2-.5.8z"/></g></svg>