<svg id="レイヤー_1" xmlns="http://www.w3.org/2000/svg" viewBox="0 0 57 163"><style>.st0{fill:#005892}.st1{fill:url(#XMLID_27_)}.st2{fill:url(#XMLID_28_)}.st3{fill:#542f1d}.st4{fill:url(#XMLID_29_)}.st5{fill:#f8d6c0}.st6{fill:#dc0045}.st7{fill:#666464}.st8{fill:#fff}</style><g id="XMLID_125_"><path id="XMLID_153_" class="st0" d="M24.3 54.9c-2-.7-5.7-3.3-10.8 1.1-5.3 4.6-7.6 8-9.5 11.1 3.4 4.1 21.3 9.5 27.4 9.2 6.1-.4 11.8-3.6 13.4-4.6-2.4-10.2-4.9-13-6.4-14.8-.6-.7-2.2-1.9-3.4-1.9-2.6-.1-3.4.5-6.4.8-2.1.2-2.9-.4-4.3-.9z"/><linearGradient id="XMLID_27_" gradientUnits="userSpaceOnUse" x1="52.625" y1="40.561" x2="50.925" y2="36.574"><stop offset="0" stop-color="#fbdccb"/><stop offset="1" stop-color="#fac5a0"/></linearGradient><path id="XMLID_152_" class="st1" d="M50.8 30.7c1.6-2.6 3.7-2.5 4.3 0 .6 2.5-3 9.4-4.7 10.2-1.7.8-2.6 1.2-4 1"/><linearGradient id="XMLID_28_" gradientUnits="userSpaceOnUse" x1="12.852" y1="39.516" x2="10.389" y2="33.738"><stop offset="0" stop-color="#fbdccb"/><stop offset="1" stop-color="#fac5a0"/></linearGradient><path id="XMLID_151_" class="st2" d="M11.2 27.2c-.7-2.9-2.7-3.6-4.1-1.4-1.4 2.2-.3 9.8 1 11.1 1.3 1.3 2.1 2 3.5 2.3"/><path id="XMLID_150_" class="st3" d="M8.8 144.4c-1.5 2.1-6.3 8.2-7.6 10-1.3 1.8-2.3 3.1.8 4.9 3.1 1.8 8.6 1 11.8-1.4 3.9-2.9 5.6-3.8 6.1-5.3.7-1.7 1.6-3.3.9-6.2-4.1.5-9.7-1.3-12-2z"/><path id="XMLID_149_" d="M8.8 98.7c-.5 6-.6 17.3-1 22.7-.4 5.4-1.6 25-1.6 25 2.7 2.2 12.9 5.4 15.6 3.7 1.3-15.9 2.2-24.9 2.5-28.9.2-3.9 2.5-15.8 3.2-23"/><path id="XMLID_148_" class="st3" d="M46.6 147.4c1.8 1.9 7.3 7.3 8.8 8.9 1.5 1.6 2.7 2.8-.2 5-2.8 2.2-8.3 2.1-11.9.1-4.2-2.4-6.1-3-6.7-4.5-.9-1.6-2-3-1.7-6 4.2 0 9.6-2.4 11.7-3.5z"/><path id="XMLID_147_" d="M40.8 102.1c1.3 5.9 2.8 17 3.9 22.4 1.1 5.3 4.9 24.6 4.9 24.6-2.4 2.5-12.1 7.1-15 5.7-3.3-15.6-5.4-24.4-6.2-28.3-.7-3.9-4.5-15.3-6.1-22.4"/><path id="XMLID_146_" class="st0" d="M38.2 61.2c1.2 4 2.8 11 3.2 18.3.4 6.5 1.4 15.8 2.2 28.3-1.3 1.1-10.5 2-17.5 2.4-7 .4-16.1-3.6-18.9-5.4 0-3.3 1.9-15.2 2.4-20.6.5-5.4 3.5-16.1 4.3-23.6.2-1.8 5.7-2.4 7.5-2.2 1.8.2 15.5-1.6 16.8 2.8z"/><linearGradient id="XMLID_29_" gradientUnits="userSpaceOnUse" x1="28.609" y1="59.659" x2="26.987" y2="55.604"><stop offset="0" stop-color="#fbdccb"/><stop offset="1" stop-color="#fac5a0"/></linearGradient><path id="XMLID_145_" class="st4" d="M31.7 52.2c-.2 1.5-.2 3.3-.1 3.8 0 1.1.1 2.7.8 3.6-.5 1.1-3.1 1.9-4.2 2.1-2.1.4-5.7-2-6.2-3.8 1-.4 1.8-1.2 2.4-2.2.4-1.6.5-2.5.6-3.2 1.3.3 5.9.4 6.7-.3z"/><g id="XMLID_142_"><path id="XMLID_144_" class="st5" d="M21 65.8c2.6-4.7 4.7-3.7 7.6-2.7 2.9 1 4.7 4.4 4.8 5.9.1 1.5 0 3.7 0 3.7s-1.9 2.7-6.7.2c-4.9-2.5-5.1-5.3-5.7-7.1z"/><path id="XMLID_143_" class="st0" d="M5.5 64.7C4.3 66.4.6 72 .3 74.4c-.4 2.4-.3 7.4 3 9.6 2.9 1.8 4.6 3.3 9.2.6 4.6-2.7 7.8-4.4 10.2-6.5 2.4-2.1 4.1-3.5 5.4-5-1.9-4.2-4.3-8.8-5.9-9.9-5.2 2-11.1 5.8-11.1 5.8-2-1.6-5.6-4.3-5.6-4.3z"/></g><path id="XMLID_141_" class="st0" d="M44.1 69.1c.6 2 1.8 7.7 1.8 10.1 0 2.1-1.1 6.7-5.9 8.8-3.7 1.7-4.9 2.5-10.4-.8-4.7-2.8-6.3-3.9-8.8-5.9-2.4-1.9-4.2-3.2-5.9-4.9 2.9-3.5 7-8.8 8.9-9.4 5.2 3.5 9.8 4.9 9.8 4.9 2.2-.9 10.5-2.8 10.5-2.8z"/><path id="XMLID_140_" class="st5" d="M9.1 24.5c.8 4 .7 8.3.8 10.6.1 2.3 1.9 10.6 4.7 13.3 2.9 2.7 2.1 2.7 6.1 5.3 2.8 1.8 6.7 4 10.7 2.1 2.8-1.3 8.3-3.3 11.9-7.3 3.3-3.7 5.6-7.6 7.4-14.1 1.5-5.4 2.9-7.5 2.9-11.8 0-4.5.9-11.6-6.1-17.4C40.6-.6 28.3-.7 22.2 1.6c-6.7 2.5-10 6.5-11.4 10.4-1.4 3.7-2.2 10.1-1.7 12.5z"/><path id="XMLID_139_" d="M20.2 36.2c-.2 0-.5-.1-.6-.4-.5-1.3-1.3-2-2.2-2.2-1.1-.2-2.3.5-2.8 1.1-.2.3-.6.3-.8.1-.3-.2-.3-.6-.1-.9.6-.7 2.2-1.8 3.9-1.5 1 .1 2.3.8 3.2 2.9.1.3 0 .7-.3.8-.1.1-.2.1-.3.1z"/><path id="XMLID_138_" d="M41.4 38.4c-.2 0-.5-.1-.6-.4-.5-1.3-1.3-2-2.2-2.2-1.1-.2-2.3.5-2.8 1.1-.2.3-.6.3-.9.1-.3-.2-.3-.6-.1-.9.6-.7 2.2-1.8 3.9-1.5 1 .1 2.3.8 3.2 2.9.1.3 0 .7-.3.8 0 .1-.1.1-.2.1z"/><path id="XMLID_137_" class="st6" d="M33.2 48.3c-2.5-1.3-9.9-1.7-12-1.7 2.6 3.7 7.8 4.5 12 1.7z"/><path id="XMLID_134_" d="M18.8 40.9c-2.4 0-4.6-.3-6.1-.9-2.2-.8-3.6-1.4-3.9-3.6-.3-2.4-.3-5.8.1-7.5.4-1.5 2.6-2.3 4.5-2.3 2.6-.1 4.8 0 7.2.5 2.5.5 4.9 2.2 4.9 4.9 0 2.2-.2 3.1-.5 4.6v.3c-.8 3.6-3.9 4-6.2 4zm-3.9-13.1h-1.5c-1.7.1-3.2.7-3.4 1.4-.3 1.3-.4 4.4-.1 7 .2 1.4.8 1.8 3.1 2.6 1.4.5 3.4.8 5.6.8v.6-.6c3.1 0 4.5-.9 4.9-3v-.3c.3-1.5.4-2.4.5-4.4 0-2-1.9-3.3-3.9-3.7-1.6-.2-3.4-.4-5.2-.4z"/><path id="XMLID_131_" d="M39.9 43.7c-2.6 0-4.6-.5-7.3-1.7-1.1-.5-3.8-1.7-3.3-5.2 0-.3.1-.7.1-1 .1-1.3.3-2.5.8-4.2.7-2.6 2.5-2.9 4.4-2.9h.9c3.1.2 5.9.7 7.8 1.5 1.3.6 4.4 1.9 3.9 4.8l-.2.7c-.2 1.4-.6 3.5-1.5 5.6-.7 1.6-2.6 2.4-5.6 2.4zM34.5 30c-2 0-2.8.5-3.2 2-.5 1.7-.6 2.8-.7 4 0 .3-.1.7-.1 1-.3 2.2.9 3.2 2.6 4 2.5 1.1 4.4 1.6 6.8 1.6 2.5 0 4-.6 4.5-1.8.9-1.9 1.2-4 1.4-5.3l.1-.6c.2-1.4-.7-2.4-3.2-3.5-1.7-.7-4.4-1.2-7.4-1.4h-.8z"/><path id="XMLID_130_" class="st7" d="M47.5 5C40.6-.8 28.3-.9 22.1 1.4 15.4 3.9 12 7.9 10.6 11.8c-.7 2.1-1.4 5.3-1.5 7.4 1.8-6.9 4.3-10.1 6.6-11.1 2.5-1.1 5.5-.2 11.4.8 5.9.9 14.7.7 18.1 3.1 1.1.8 3.2 4.7 3.2 8.6 0 3.9.6 6.5.6 7.7 0 .7.9 1.2 1.4 1.3.5.1.7 1.4 1 2.2 1.2-3.1 2.2-6.2 2.2-9.5 0-4.4.8-11.4-6.1-17.3z"/><path id="XMLID_129_" d="M11.9 25.5c1.2-.4 6.8-1.6 10.2.1-.1-.9-2.5-1.5-5.5-1.7-3-.2-5.1.4-5.5.9-.4.5.4.8.8.7z"/><path id="XMLID_128_" d="M44.9 29.3c-1.1-.6-6.3-3.1-9.9-2.3 0-1 2.5-1 5.5-.6 3 .5 5.1 1.8 5.4 2.3.2.7-.6.8-1 .6z"/><path id="XMLID_127_" d="M29.5 34.6c-.3-.3-2.4-.9-3.7-.6-.2.1-.5.2-.5.3l-1.2-.3c.1-.5.6-1.3 2.4-1.3 1.2 0 3.8.5 4.1 1.5l-1.1.4z"/><path id="XMLID_126_" class="st8" d="M27.4 48.6c2.2.2 4.3 0 5.4-.5-2.3-1-8.8-1.6-11.2-1.5.8.9 3.1 1.8 5.8 2z"/></g></svg>