<svg id="レイヤー_1" xmlns="http://www.w3.org/2000/svg" viewBox="0 0 78 146"><style>.st0{fill:#683500}.st1{fill:#fce3ca}.st2{fill:#4e210a}.st3{fill:#572f0a}.st4{fill:#f4aeb2}.st5{fill:#fff}.st6{fill:url(#XMLID_27_)}.st7{fill:#ffe249}.st8{fill:#fffac4}.st9{fill:#a43f00}.st10{fill:#ea551c}.st11{fill:#231815}.st12{fill:#f7b65d}.st13{fill:#b77f30}</style><g id="XMLID_88_"><path id="XMLID_124_" class="st0" d="M77.9 46.3c1.3-6.4-6.7-13.3-10.3-16.8-3.6-3.4-13.4-19-20.5-25.6C40-2.7 25.3.6 21.3 3.3c-12.5 8.4 7.2 40.6 12.9 48 10.3 13.5 22 12.1 29.7 10.6 6.2-2.7 5.3-10.2 4.2-14.6 2.1 3.4 2.6 6.7 2.3 8.5 3.3-2.7 2.6-7.4 1-10.9 1.7 2.1 2.8 4.6 3.3 5.9 3.1-4.9-1.8-11.1-5.3-14.8 4.5 3.4 7.1 7.8 8.5 10.3z"/><path id="XMLID_123_" class="st0" d="M47.1 44.7c-1.4-9.2-9.8-43.4-24.8-42.1-5.3.4-18 13-18.4 22.8-.6 14.1 4.2 20 4.2 25S6 66.6 11.5 70.1c-.8-2.4-.7-6.4.4-10.8.4 4.7 1.6 12.7 7.6 13.5-.7-1.1-1.8-3.8-2.1-6.4 1.4 4 5 8.8 9.9 7.8-1.7-1-4.2-4-5.4-8.3 2.4 3.8 7.6 9.8 14 7.2C41 69.5 49.7 62 47.1 44.7z"/><g id="XMLID_120_"><path id="XMLID_122_" class="st1" d="M45.9 108.3c-.4 1.9-2 15.5-2.3 16.7-1.6 1.5-10.3 2.4-10.7 1.5.4-4 1.1-20.1 1.3-22.3 2.2 1.6 8.6 4.1 11.7 4.1z"/><path id="XMLID_121_" class="st2" d="M44.1 127.1c-.3-3 .1-4.5.4-6-1.1.5-8.7 3-11.7 1.3-.2 2.5-.5 5.9-.7 6.8-.8 4-.7 6.2-2.8 7.9-2 1.7-2.7 5.1-1.6 6.1s6.3 3.4 9.2 1.1c2.4-1.9 6.4-4.9 7.5-7.2.8-1.6.9-4.1.3-6-.2-1-.5-2.2-.6-4z"/></g><g id="XMLID_117_"><path id="XMLID_119_" class="st1" d="M59.9 109.1c-.4 1.9-2 15.5-2.3 16.7-1.6 1.5-10.3 2.4-10.7 1.5.4-4 1.1-20.1 1.3-22.3 2.3 1.6 8.6 4.1 11.7 4.1z"/><path id="XMLID_118_" class="st2" d="M58.1 127.9c-.3-3 .1-4.5.4-6-1.1.5-8.7 3-11.7 1.3-.2 2.5-.5 5.9-.7 6.8-.8 4-.7 6.2-2.8 7.9-2 1.7-2.7 5.1-1.6 6.1s6.3 3.4 9.2 1.1c2.4-1.9 6.4-4.9 7.5-7.2.8-1.6.9-4.1.3-6-.1-1-.5-2.2-.6-4z"/></g><path id="XMLID_116_" class="st3" d="M62.1 77.8c2.3 2.7 12.2 25 13.7 30.2.3 1.1-.8 2.1-1.8 2.9-1.1.8-2 .3-2.7 2.4-.8 2.1-1.5 2.9-5.1 3.8-3.6.9-3.2 3.5-7.4 2.6s-3-2.9-5.9-1.7c-2.9 1.2-4.1 3.2-7.4 1.7-3.3-1.5-2.6-3-5.9-2.1-3.3.9-1.8-.6-4.5-1.7s-3.6 1.4-6.3-.3c-2.7-1.7-2.4-.8-1.8-4.5.6-3.8 3.8-16.4 4.8-20.2 1.1-3.8 3.8-10.9 5.4-13.6 1.8-2.8 24.9.5 24.9.5z"/><path id="XMLID_115_" class="st4" d="M34.3 56.7c-1.2 1.2-6 7.4-8.3 10.9-2.3 3.5 3.3 15.5 3.9 16.4.6.9 6.6 2.3 8.7.5 2.1-1.8 5.7-16.9 5.3-19-.4-2.1-2.1-10.6-3.3-11.2-1.2-.6-3.1-.6-6.3 2.4z"/><path id="XMLID_114_" class="st5" d="M47.7 50.5c2.5.3 7.4 2 8.9 3.3 1.5 1.4 7.7 14.5 8 16.1.3 1.7 1.5 8.4-1.8 10.3-3.3 1.8-17.1 8.1-21 6.8-3.9-1.4-8.3-10.9-8.7-12.1-.4-1.2 1.1-14 2-16.3.9-2.3 5.9-7.8 7.2-8 1.2-.1 2.7-.4 5.4-.1z"/><linearGradient id="XMLID_27_" gradientUnits="userSpaceOnUse" x1="45.573" y1="61.073" x2="43.503" y2="55.898"><stop offset="0" stop-color="#fbdccb"/><stop offset="1" stop-color="#fac5a0"/></linearGradient><path id="XMLID_113_" class="st6" d="M46.1 49.9c.4 1.4 1 3.2 1.3 3.6.4 1 1.1 2.5 2.1 3 .8 1.3.9 4.4-1.4 6.2-7 2.3-8.5-1.3-8.8-3.8.8-.7 1.2-1.8 1.4-2.9-.2-1.6-.5-2.5-.7-3.2 1.3-.3 5.6-2 6.1-2.9z"/><path id="XMLID_112_" class="st5" d="M39 57c.6 1.5 3.3 3 5.7 1.8 2.4-1.2 4.2-2.7 5.1-4.5 2.1 2.1 2.7 14.2-1.2 14.8-3.9.6-11.7.3-12.3-3.6-.7-3.9 1.8-6.1 2.7-8.5z"/><path id="XMLID_111_" class="st0" d="M9.6 22.9c-.6 3 1.2 8.2 2.8 8.2 1.6 0 4-1.2 4.8-3.8.8-2.6 5.2-6.4 5.2-6.4 2.4-.6 7.4-2.4 9.2-2.6 1.8-.2 4.2-.8 7.4-2s7.4-2.2 3.8-5.6c-3.6-3.4-17.4-1.2-21-.2-3.6 1-10.8 6-12.2 12.4z"/><path id="XMLID_110_" class="st7" d="M49.8 91.7c2.8 1.8 7.8 6.7 10.3 9.5 2.5 2.9 3.3 6.3 1.1 7-2.2.6-8.1-3.3-9.8-7.1 3.3 4.9 3.8 8.9 1.7 9.4-3.1-2.4-5.4-4.7-5.4-8.9"/><path id="XMLID_109_" class="st7" d="M45.8 101.1c-.5 2.3-.9 4.8-.1 6.7.8 1.8 3.7 3.2 3.8-2.8.1-3.9-.8-4.7-1.3-6.1"/><path id="XMLID_108_" class="st8" d="M9.8 85c-.4 1.2-3 13 1.7 17.4 4.7 4.4 11.6 7.6 18.6 7.4 7-.1 17-4.9 18.9-9.1 1.9-4.2 3.6-11-.2-15.9-3.8-4.9-22.8-9.8-27.4-9-4.6.8-9.2 1.5-11.6 9.2z"/><path id="XMLID_107_" class="st1" d="M53.9 95.8c0 2 .1 3.9-.1 4.5-.4 1-1.7.5-2 .1-.3-.4-.3-.7-.4-1.3-.1-.7-.1-1.5-.1-1.5-.7 2-2.2 3.9-3.1 3.3-.9-.5-.4-1.1-.4-1.5.1-.9 1-2.2 1-2.2-.8.7-3.2 1.8-3.8.9-.5-.9 1-1.9 2.1-2.8-.6.1-1.9.5-3 .3-.7-.1-1.7-1-.4-1.6 1.2-.6 2.1-.7 2.9-1.1-1.6.2-2.9.4-3.1-.6-.2-1 2.7-1.7 4.4-2.1 1.6-.3 2.2-1 2.2-1 1 1.3 3.8 4.3 4.5 4.3-.1 0-.8 1.6-.7 2.3z"/><path id="XMLID_106_" class="st5" d="M55 52.9c3.3 2.3 8.5 10.1 11.3 13.9 2.8 3.8 2.8 8.8 1.4 12.6-.7 1.8-7.1 11.3-11.1 15.8-2.4.4-8.8-5-9.3-5.8 2.6-3.3 7.5-11 9.6-15.2-1.2-1.1-3.9-4.8-5-5.9-1.1-1.1-2.4-3.2-2.4-3.2 2.1-3.5 5.5-12.2 5.5-12.2z"/><path id="XMLID_105_" class="st1" d="M47.6 52.2c6.1-6.4 7.3-9.3 7.6-13 .3-3.7-2.8-15.1-4.3-19C48.7 14.5 46.1 6 35.5 7c-5 .5-9.7 1.3-12.3 2.4-2.4 1-4.9 2.6-10.2 7.3-8 7-4.2 15.3-1.6 20.8 1.8 3.8 8.4 13.4 11.3 15.7 2.9 2.3 6 3.4 14.8 3 3.7 0 7.8-1.5 10.1-4z"/><path id="XMLID_104_" d="M25.7 43.5c.4 1-.1 2-1 2.4-.9.4-2-.1-2.4-1-.4-1 .1-2 1-2.4 1-.4 2.1 0 2.4 1z"/><path id="XMLID_103_" d="M47.2 35c.4 1-.1 2.2-1.1 2.6-1 .4-2.2-.1-2.6-1.1-.4-1 .1-2.2 1.1-2.6 1-.5 2.2 0 2.6 1.1z"/><path id="XMLID_102_" class="st9" d="M37.5 52.3c-.3 0-.7-.1-1.1-.6-.2-.2-.6-.6-.4-.9.2-.2.5-.2.7 0 .4.6 1 .5 2.6 0 1.4-.4 3.7-1.4 3.6-3.3 0-.3.2-.6.4-.7.3-.1.3.7.2 1.1-.3 2.1-1 3.2-4 4.1-1 .3-.6.4-1.3.2l-.7.1z"/><path id="XMLID_101_" class="st0" d="M54.8 28.2c-.4-5.7-5.1-19.3-11.4-21.5C38.5 5 30 4.9 19.4 9.8 8.9 14.7 6.8 24 6.4 28.4c-.4 4.4 6.4 16 8.7 17.6-.3-.8-.6-2.2-1-3.7 1.2 1.8 2.5 3.1 3.9 3.5-2.1-3-2.1-7.4-1.6-11 1.4 2.9 3.6 5.6 6.4 6.3-1.1-1.9-2.4-9.1-1.9-15.2 2 5 6.1 10.8 11 7.9-1.2-.9-3.6-5.8-4-10.9 2.2 4 7 9.9 13.7 7.9-2.1-.6-4.3-4-5.8-7.5 2.7 3.2 6.8 6.3 11.5 5.5-2.1-1.7-5-6-5.8-10.4 2.2 4 7.1 10.6 13.3 9.8z"/><path id="XMLID_100_" class="st0" d="M49.8 22.3c.6 4.8 3.2 18.9 6.6 24.9 3.5 6 4.1 13.9 3.5 16.7 3.4-2.1 5.4-6.8 4.4-10.6-1.1-3.8-4.8-14.9-5.1-18.3-.3-3.3.3-7.8-.8-11"/><g id="XMLID_90_"><path id="XMLID_99_" class="st8" d="M2.3 71.5c-.2-3.7.7-10.6 5.1-14.1 4.8-3.8 8.4-4.2 12.9-4 4.5.2 9.6 3.1 12.5 6.6 2.9 3.6 6.4 13.9.8 21.5-5.8 7.5-30.1 14-31.3-10z"/><path id="XMLID_98_" class="st10" d="M29.9 77.3c-.5 2.3-2.9 3.8-5.2 3.2-2.3-.5-3.8-2.9-3.2-5.2.5-2.3 2.9-3.8 5.2-3.2 2.3.6 3.7 2.9 3.2 5.2z"/><path id="XMLID_97_" class="st11" d="M18.8 73.3c-.3 1.2-1.5 2-2.8 1.7-1.2-.3-2-1.5-1.7-2.8.3-1.2 1.5-2 2.8-1.7 1.2.3 2 1.6 1.7 2.8z"/><path id="XMLID_96_" class="st12" d="M2.9 72.5c-1.1.6-2.8 4-2.8 5.6-.1 1.6.4.9 1.3.7.9-.2 1.9.7 2.6 1.4.7.8 1.5.7 2.2-.2.6-1 1.8-3.2 1.1-4.8-.7-1.6-2.2-4-4.4-2.7z"/><path id="XMLID_95_" class="st13" d="M2.2 79.2h-.1c-.3 0-.6-.3-.6-.6s.3-.6.6-.6c.2 0 .5 0 .9-.1.9-.1 1.9-.2 2.5 0 .3.1.5.5.4.8-.1.3-.5.5-.8.4-.4-.1-1.3 0-1.9 0-.5.1-.8.1-1 .1z"/><g id="XMLID_91_"><path id="XMLID_94_" class="st7" d="M22.6 53.6c4.1-.1 6 .5 8-.6s3.3-1.1 2 .9c-1.4 1.9-2.6 3.6-7.2 2.4"/><path id="XMLID_93_" class="st7" d="M26.5 55.8c2 .2 5.6.3 8-.8 2.4-1.1 4.4-1 2.4 1-1.9 2-2.2 4.7-9.7 2.2"/><path id="XMLID_92_" class="st7" d="M22.9 53.7c-1-.1-9.3-1.3-11.7 2.2-.6 1.1.7 3.1 4.3 2.9 3.5-.2 11.6 1 14.7 2.1 4.7 1.5 4.9 2.2 6.8 1.5 1.8-.7 2-2.8.3-2.5-1.7.3-6.9-1.5-8.1-1.9"/></g></g><path id="XMLID_89_" class="st7" d="M41.8 86.9c3.8 4.1 9 3.6 10.7 2.7 3.6-1.9 2.2-3.4.2-4 4.2-1.1 4.6-5.2.9-4.9 10.1-3.6 1.7-7.4-6.1-8.4S35 75.4 33.2 79.1c-.8 1.6-1.2 2.5.7 3.7 2 1 7.2 3.3 7.9 4.1z"/></g></svg>