<svg id="レイヤー_1" xmlns="http://www.w3.org/2000/svg" viewBox="0 0 64 137"><style>.st0{fill:#3d0000}.st1{fill:#f8d6c0}.st2{fill:#4e210a}.st3{fill:url(#XMLID_77_)}.st4{fill:#f5268d}.st5{fill:#1d0000}.st6{fill:#dc0045}.st7{fill:#FFF}.st8{fill:#fbefbf}.st9{fill:#d92f15}</style><path id="XMLID_50_" class="st0" d="M18.5 49.3c0 2.1-.7 3-1.7 4.1-1.1 1.1-2.5 1.8-4.2 1.8 1-1 2.4-3.8 1.5-5.5.3 3.3-1.7 5.3-4.2 5 1.2-1 1.6-2.2 1.6-3.7-.3 2.1-1.8 2.9-3.6 2 1.1-.4 2-2.3 1.9-3.9-.1-3-4.5-3.9-5.3-11.5C3.8 30.3 4 24 8.8 14.9 13.6 6 23.4.1 33.5 0 43.6-.1 47 3.8 48.7 6.3c5.2 14.1.5 38.1-5.5 43.3-8.8 7.7-21.7 14.2-28 7.7 1.6-.1 3.6-4.2 3.3-8z"/><path id="XMLID_49_" class="st0" d="M47.3 5c2 .9 3.6 1.6 5.1 2.8 5.4 4.3 6.9 11 7.5 19C60.6 37 56 48.2 53.5 52c-3.2 4.8-6.9 3.1-8.2 5.5-.8 1.4-.6 3.5.2 4.3-2 .1-3.1-1.3-2.5-3.3-.6 1.4-.7 2.7 0 4.1-2.4-.7-3.4-3.4-1.8-6.3-1.5 1.3-1.4 4.4-.9 5.7-1.5-.7-2.6-1.9-3.1-3.4s-.4-3.8.5-5.8"/><path id="XMLID_48_" d="M21.5 51c-1 .1-3.9-.5-8.5 4.9s-6.4 16.3-.3 17.6C16 70 26.9 60.8 27.2 58c.3-2.8-.1-7.6-5.7-7z"/><path id="XMLID_47_" class="st1" d="M30.5 102c.6 1.8 4.1 15.1 4.5 16.2 1.8 1.3 10.5 1 10.8 0-.9-3.9-3.8-19.8-4.3-21.9-2 2-8 5.3-11 5.7z"/><path id="XMLID_46_" class="st2" d="M34.8 120.4c-.1-3-.7-4.4-1.2-5.9 1.2.3 9.1 1.8 11.8-.3.5 2.5 1.3 5.7 1.6 6.6 1.3 3.9 1.6 6 3.8 7.4 2.2 1.4 3.4 4.7 2.4 5.8-1 1.1-5.8 4.2-9 2.3-2.6-1.5-7-4-8.4-6.1-1-1.5-1.4-3.9-1.1-5.9 0-.8.1-2.1.1-3.9z"/><path id="XMLID_45_" class="st1" d="M25.9 102c-.6 1.8-4.1 15.1-4.5 16.2-1.8 1.3-10.5 1-10.8 0 .9-3.9 3.8-19.8 4.3-21.9 1.9 2 7.9 5.3 11 5.7z"/><path id="XMLID_44_" class="st2" d="M21.5 120.4c.1-3 .7-4.4 1.2-5.9-1.2.3-9.1 1.8-11.8-.3-.5 2.5-1.3 5.7-1.6 6.6-1.3 3.9-1.6 6-3.8 7.4-2.2 1.4-3.4 4.7-2.4 5.8 1 1.1 5.8 4.2 9 2.3 2.6-1.5 7-4 8.4-6.1 1-1.5 1.4-3.9 1.1-5.9 0-.8-.1-2.1-.1-3.9z"/><linearGradient id="XMLID_77_" gradientUnits="userSpaceOnUse" x1="875.907" y1="-58.261" x2="874.247" y2="-62.41" gradientTransform="rotate(164.306 451.44 -.343)"><stop offset="0" stop-color="#fbdccb"/><stop offset="1" stop-color="#fac5a0"/></linearGradient><path id="XMLID_43_" class="st3" d="M24.3 49.5c-.2 1.5-.6 3.3-.8 3.7-.3 1.1-.8 2.6-1.7 3.3.2 1.2 2.5 2.6 3.5 3.2 1.9.9 6-.5 6.9-2-.9-.6-1.4-1.6-1.8-2.7 0-1.6.1-2.5.2-3.3-1.2-.1-5.7-1.3-6.3-2.2z"/><path id="XMLID_42_" class="st4" d="M8.7 77.6c-1.7 1.8-4.1 7.2-5.1 10-.9 2.4-1.4 4.5-2 7.6.1.9 1.6.5 2.7.6 1.1.1 3.7 1.7 4.8 2.6 1.1.9 4.1 3 7 2.8 2.9-.2 5.1 1.3 7.9 2.1 2.8.9 4.2 1.2 6.3 0 2.1-1.1 1.2-1.4 3.6-.8 2.4.6 4.7 1.6 7.1-1.6 2.4-3.1 2.5-3.1 4.6-3.3 2.1-.1 3.4.2 4.3-.9.9-1.1 1-.9.3-3.3s-4.6-12-7.4-16.5c-2.3-3.8-8.3-4.6-11.9-4.5-3.5-.1-15.5-2-22.2 5.2z"/><path id="XMLID_41_" class="st1" d="M26.3 54.6c1.5.2 2.2.1 3.7-.1 8-1.1 11.5-4 13.7-6.7 2.2-2.6 5.8-12.7 6.7-16.5 1.3-5.5 3.9-13.2-4.6-18-4-2.3-7.9-4.1-10.5-4.7-2.4-.5-5-.6-11.5.1-9.7 1-10.5 9.1-11.5 14.6-.7 3.8-1.4 14.5-.4 17.8 1 3.3 3.2 7.2 10.1 11.4 2.1 1.3 3 1.9 4.3 2.1z"/><path id="XMLID_40_" class="st5" d="M22.2 33.5c-.2 0-.5-.1-.6-.4-.6-1.4-1.4-2.1-2.5-2.2-1.5-.2-3.3 1.1-3.8 1.8-.2.3-.6.3-.8.1-.3-.2-.3-.6-.1-.8.6-.9 2.7-2.5 4.9-2.3 1 .1 2.5.7 3.5 2.9.1.3 0 .7-.3.8-.1.1-.2.1-.3.1z"/><path id="XMLID_39_" class="st5" d="M44.4 39.2c-.3 0-.5-.2-.6-.5-.2-.9-1.3-2.7-2.7-3.2-1-.3-2.1 0-3.2 1-.2.2-.6.2-.8 0-.2-.2-.2-.6 0-.9 1.8-1.7 3.4-1.6 4.3-1.3 2 .7 3.3 3 3.5 4.1.1.3-.1.6-.5.7.1.1 0 .1 0 .1z"/><path id="XMLID_38_" class="st6" d="M27.8 44.5c2.3.4 4.4.7 5.1 1.1.7.4.1 1.2-1.3 1.9-1.4.7-3 1.4-4.6 1-1.6-.3-2.9-1.7-3.9-3-1-1.2-1.2-2.1-.4-2.1.8 0 3.1.8 5.1 1.1z"/><path id="XMLID_37_" class="st0" d="M50.7 12.9c-1.9-2.1-11.1-6.5-17.2-7.6-6-1.1-10.8 0-15.5 2.7-4.8 2.7-6.9 12.5-7.1 16.9 1.9-.4 4.5-1.2 7.4-2.3-1.7 1.5-3.5 2.9-4.6 3.4 1.7.5 7.3.1 14-6.4-2.9 3.8-6.7 6.8-8.7 7.8 7.2.7 12.4-4.1 15.3-8.1-2.2 5-5.3 8.6-7.2 10.2 9.3-.8 14.3-9.3 16-13.2-.5 8.7 1.4 12.9 3.2 17-.3-1.5.5-7.7 1-10.1-.3 8.4.2 11.6 1 15.5 1-2.4 2.4-3.1 4.3-12 1.9-9 0-11.7-1.9-13.8z"/><path id="XMLID_36_" class="st7" d="M33.1 45.8c0-.1-.3-.2-.4-.3-.7-.4-2.8-.7-5-1.1-2-.3-4.1-1-4.9-1-.1 0-.2.1-.3.1.7.7 2.5 1.9 4.3 2.2 2 .4 4.5.8 6.3.1z"/><path id="XMLID_35_" d="M22.3 55c.2.8 2.3 3.8 5.7 3.6-2.7 3.5-6.5 6.6-6.5 6.6-1.2-2.3-3.8-6.9-3.8-6.9 1.5-1 3.9-2.6 4.6-3.3z"/><path id="XMLID_34_" class="st8" d="M41.4 83.6c2.9-5.5 9.5-22 11.1-26.4 1.7-4.5 4.6-9.1 6.5-12-1.2-1.1-2.4-2.2-3.5-3.2l.1-.1c-.3-.3-.7-.5-1.1-.8-.4-.3-.7-.6-1.1-.9l-.1.1c-1.2-.8-2.6-1.6-4-2.5-2.2 2.6-5.9 6.7-9.8 9.5-3.8 2.8-17.8 13.6-22.4 17.9C12.6 69.5 4.2 76.7.4 88c-.4 1.7-.7 2.6-.1 3.8.5 1.1 4.5 5.6 9 8.9 4.5 3.5 9.9 6.1 11 6.3 1.3.2 2.1-.3 3.6-1.1 9.9-6.7 14.6-16.8 17.5-22.3z"/><path id="XMLID_33_" class="st9" d="M59.5 44.9c.3-.4 3.3-4.6 3.8-5.2.5-.7.9-1.3.4-2.2-.4-.6-1.1-1.4-1.9-2.1-.5-.5-1.2-1-1.8-1.5-.6-.5-1.3-1-1.9-1.3-1-.6-1.9-1.1-2.6-1.3-1-.3-1.5.2-2 .9s-3.7 4.7-4 5.1c-.3.4-1 1.4-1 1.4.7.3 2.6 1.5 4.2 2.7.3.2.6.4 1 .7 0 0 .1 0 .1.1 0 0 .1 0 .1.1.4.3.7.5.9.7 1.5 1.2 3.3 2.8 3.7 3.4 0-.2.8-1.2 1-1.5z"/><path id="XMLID_32_" class="st9" d="M19.8 79.6c-.5-.5-.5-1-.4-1.4.2-.6.7-1.2 1.1-1.3.4-.1.8-.1 1.1.1.2.1.4.3.4.5l-.6.2-.1-.1c-.2-.1-.4-.1-.6 0-.2.1-.6.4-.7.9-.1.3 0 .6.3.8l-.5.3z"/><path id="XMLID_31_" class="st9" d="M27.6 85.1c-.2 0-.5-.1-.8-.2l.3-.5c.3.2.6.2.9 0 .4-.2.6-.7.6-.9 0-.2-.1-.5-.2-.6l-.1-.1v-.6c.2 0 .4.1.6.3.2.3.4.7.4 1 0 .4-.4 1.1-.9 1.4-.3.1-.5.2-.8.2z"/><path id="XMLID_30_" class="st8" d="M22 81.4c-.3-.2-1.8-3.1-2-3.6-.2-.4-.3-.9-.4-1.2-.1-.4-.6-.1-.7.1-.2-.7-.9-1-1.5-.5s-.9.9 0 2.4c.7 1.2 1.9 3.9 2 4.2"/><path id="XMLID_29_" class="st9" d="M19.4 83.1c-.1 0-.2-.1-.3-.2-.1-.2-1.3-3-2-4.1-.9-1.5-.7-2.1.1-2.8.3-.3.7-.4 1.1-.3.3.1.5.3.7.5.1-.1.3-.1.5-.1s.4.2.4.4c0 .1.1.3.1.4.1.3.1.5.3.8l.1.2c1.4 2.7 1.7 3.2 1.8 3.3.1.1.1.3 0 .4-.1.1-.3.1-.4 0-.1-.1-.5-.6-1.9-3.4l-.1-.2c-.2-.3-.3-.6-.3-.9 0-.1-.1-.2-.1-.3l-.2.2h-.4c-.1 0-.2-.1-.2-.2-.1-.2-.2-.4-.4-.5-.2-.1-.4 0-.6.1-.5.4-.8.7.1 2 .7 1.2 1.9 4 2 4.2 0 .3-.1.5-.3.5z"/><path id="XMLID_28_" class="st8" d="M24.5 83.3c.3.2 3.5.9 4 1 .5.1.9 0 1.3.1.4 0 .2.5.1.7.7 0 1.2.6.9 1.3-.3.7-.6 1.2-2.3.7-1.3-.4-4.3-.8-4.5-.8"/><path id="XMLID_27_" class="st9" d="M29.6 87.6c-.3 0-.7-.1-1.3-.2-1.3-.4-4.3-.8-4.5-.8-.2 0-.3-.2-.3-.3 0-.2.1-.3.3-.3.3 0 3.2.4 4.6.8 1.5.4 1.7.1 2-.5.1-.2.1-.4 0-.6-.1-.2-.3-.3-.6-.3-.1 0-.2-.1-.3-.2-.1-.1 0-.2 0-.3.1-.1.1-.3.1-.3-.1.1-.3 0-.5 0s-.5 0-.8-.1h-.2c-3.1-.7-3.7-.9-3.8-.9-.1-.1-.2-.3-.1-.4.1-.1.3-.2.4-.1.1.1.7.2 3.7.9h.2c.3.1.6.1.8.1h.4c.2 0 .4.1.5.3.1.2.1.3 0 .5.3.1.5.3.7.5.2.3.2.8 0 1.2-.2.6-.6 1-1.3 1z"/><path id="XMLID_26_" class="st8" d="M14.9 93.4c-.4-.3-1.8-1.9-1.8-2.4s.6-.2.8-.3c.2-.1.4-.2.5-.6.1-.4.5-1.6.9-2.3.4-.9 1.3-2.4 1.7-2.4.4 0 .6.8.7.9.2.1 1.3 1.9 1.3 1.9"/><path id="XMLID_25_" class="st9" d="M14.9 93.7c-.1 0-.1 0-.2-.1-.2-.2-2-1.9-1.9-2.6.1-.6.6-.6.9-.6h.2c.2-.1.3-.2.3-.4.1-.4.5-1.6.9-2.4.6-1.1 1.4-2.5 1.9-2.6.5-.1.7.5.9.9 0 .1 0 .1.1.1.1.1.8 1.1 1.3 1.9.1.1 0 .3-.1.4-.1.1-.3 0-.4-.1-.5-.8-1.1-1.7-1.2-1.8-.1-.1-.1-.2-.2-.3 0-.1-.2-.4-.3-.5-.1.1-.8 1-1.4 2.3-.4.7-.8 1.8-.8 2.2-.1.5-.4.7-.6.8-.3.1-.5.1-.6.1h-.2c0 .4 1.3 1.8 1.7 2.1.1.1.2.3.1.4-.2.1-.3.2-.4.2z"/><path id="XMLID_24_" class="st8" d="M14.9 93.4c.4.3 2.3 1.3 2.7 1.1.5-.2 0-.7.1-.9.1-.2.1-.4.5-.6.4-.2 1.4-.9 2-1.4.7-.7 1.9-1.9 1.9-2.3-.1-.4-.9-.3-1-.4-.2-.1-2.2-.7-2.2-.7"/><path id="XMLID_23_" class="st9" d="M17.6 94.8c-.8 0-2.6-1-2.8-1.2-.1-.1-.2-.3-.1-.4.1-.1.3-.2.4-.1.4.3 2.1 1.1 2.5 1v-.2c-.1-.1-.1-.3-.1-.5.1-.3.1-.6.6-.8.4-.2 1.3-.9 1.9-1.4 1.1-1 1.7-1.8 1.8-2-.1 0-.4-.1-.5-.1-.2 0-.3 0-.4-.1-.1-.1-1.2-.4-2.1-.7-.2 0-.3-.2-.2-.4 0-.2.2-.3.4-.2.9.3 2.1.6 2.3.8h.1c.4 0 1 .1 1.1.6.1.5-1 1.7-2 2.5-.6.6-1.6 1.3-2 1.5-.2.1-.3.2-.3.4v.2c.1.2.3.8-.3 1-.2.1-.3.1-.3.1z"/><path id="XMLID_22_" class="st9" d="M15.2 93.6l-.5-.4 4.3-5.7c.1-.1.3-.2.4-.1.1.1.2.3.1.4l-4.3 5.8z"/><path id="XMLID_21_" class="st8" d="M23.8 89s.1 0 0 0l.4-.4c0-.1.1-.1.1-.2 1.3-1.8 1.5-4.9 1.4-5.4 0-.3.1-1.4-1-2.4l-.1-.1-.1-.1c-1.2-.8-2.3-.3-2.5-.3-.5.1-3.4 1.1-4.8 2.9 0 .1-.1.1-.1.2-.1.1-.2.2-.2.4 0 0 0 .1-.1.1-.9 1.7-.4 3.7 1.6 5.3 2 1.5 4 1.4 5.4 0z"/><path class="st9" d="M21.3 90.4c-1 0-2.1-.4-3.2-1.2-2.1-1.6-2.7-3.8-1.7-5.7l.1-.1c.1-.1.2-.3.3-.4l.1-.1c1.5-1.8 4.5-2.9 5.1-3h.1c.2-.1.5-.1 1-.1.6 0 1.1.2 1.6.5l.3.2c1.1.9 1.1 2 1.1 2.4v.1c.1.6-.2 3.8-1.5 5.6l-.1.2c-.1.1-.2.2-.3.4H24c-.7.8-1.7 1.2-2.7 1.2zM23 80.3c-.3 0-.6.1-.8.1H22c-.5.1-3.3 1.1-4.6 2.7l-.1.1c-.1.1-.2.2-.2.4-.9 1.7-.4 3.5 1.5 5 .9.7 1.9 1.1 2.8 1.1.9 0 1.6-.3 2.3-1 .2-.2.2-.3.3-.4l.1-.2c1.2-1.7 1.5-4.7 1.4-5.2v-.2c0-.4 0-1.3-.8-2l.1-.3-.2.2-.2-.1c-.5-.1-.9-.2-1.4-.2z"/><path id="XMLID_18_" class="st9" d="M20.6 86.4v-.3l-.2.1V86h-.3v.2h-.2v.3h.2l.1.2h.3l-.1-.2z"/><path id="XMLID_17_" class="st8" d="M23.2 82.4c.4.2.4.3.7.3.3 0 .7.1 1.5.5s2.9-.4 3.2-.8c1.5 1 2.5-1 2.6-1.2 0-.2.1-.8-.4-.9 2.3-2.7.7-5.6-.8-6.9-1.4-1.3-4.9-1.8-6.8 1.1-.3-.4-.8-.2-1-.1-.2.1-1.9 1.6-.5 2.8-.3.5-.5 2.6.1 3.3.6.7.7 1 .9 1.3.2.3.2.4.5.6z"/><path class="st9" d="M26 83.6c-.3 0-.5 0-.7-.1-.8-.4-1.1-.4-1.4-.5-.4-.1-.5-.1-.8-.3-.4-.3-.5-.4-.6-.7v-.1c-.1-.3-.3-.6-.8-1.2-.6-.7-.5-2.6-.2-3.4-.5-.5-.5-1-.5-1.3.1-.9 1-1.7 1.2-1.8.2-.1.8-.2 1.1-.1 1-1.3 2.4-2 4-2 1.2 0 2.4.4 3.1 1.1 1.4 1.3 3.2 4.2 1 7.1.2.2.3.6.2 1.1-.1.3-.8 1.8-2 1.8-.3 0-.5-.1-.8-.2-.6.2-1.9.6-2.8.6zm-3.3-9.1c-.2 0-.3.1-.4.1-.1.1-.8.7-.9 1.4 0 .3.1.6.4.9l.2.2v.2c-.2.4-.4 2.4.1 3 .6.7.8 1 .9 1.4l.1.1c.1.2.1.2.3.4l.6.3c.4.1.8.2 1.6.5.1 0 .3.1.4.1.9 0 2.2-.6 2.4-.8l.2-.2.2.1c.2.2.5.2.7.2.8 0 1.4-1.1 1.4-1.3 0-.1.1-.5-.2-.6l-.4-.1.3-.3c2.2-2.6.6-5.3-.7-6.5-.7-.6-1.7-1-2.7-1-1.5 0-2.8.7-3.7 2l-.3.4-.2-.4c-.1-.1-.1-.1-.3-.1z"/><g><path id="XMLID_14_" class="st8" d="M29.6 74.8c-.3-.1-.3-.2-.7-.5-.4-.3-.4-.9-.3-1.3.1-.3.4-.6.6-.6.2 0 1.3-.1 1.5-.2.1-.1.3 0 .3.3s0 1.1.1 1.3c.2.2 0 .6-.2.8-.1.3-.8.5-1.3.2z"/><path class="st9" d="M30.1 75.2c-.3 0-.5-.1-.7-.2-.3-.2-.4-.2-.8-.5-.5-.4-.5-1.1-.4-1.6.1-.4.5-.8.9-.8h.5c.3 0 .8-.1 1-.1.2-.1.5-.1.6.1.1.1.2.2.1.5 0 .3 0 1 .1 1.1.2.4.1.9-.2 1.2-.2.2-.6.3-1.1.3zm.6-2.7c-.2 0-.5.1-1 .1h-.4c-.1 0-.3.2-.4.4-.1.3-.1.8.2 1 .3.3.4.3.6.4.5.3 1 0 1.1-.1.1-.1.2-.4.1-.5-.3-.1-.3-1-.2-1.3z"/></g><path class="st9" d="M23.9 78.9c-.3 0-.5-.1-.8-.3-.6-.4-.7-1.2-.2-1.8.4-.5 1.2-.7 1.8-.2.3.2.4.5.5.8 0 .3 0 .7-.2.9-.3.4-.7.6-1.1.6zm0-1.9c-.2 0-.4.1-.5.3-.1.1-.2.3-.1.5 0 .2.1.3.3.4.3.2.7.2.9-.1.1-.1.2-.3.1-.5 0-.2-.1-.3-.3-.4-.1-.2-.2-.2-.4-.2z"/><path id="XMLID_9_" class="st9" d="M24.6 78.3c-.2.3-.6.3-.9.1-.3-.2-.3-.6-.1-.9.2-.3.6-.3.9-.1.2.2.3.7.1.9z"/><path class="st9" d="M27.6 81.7c-.3 0-.5-.1-.8-.3-.3-.2-.4-.5-.5-.8 0-.3 0-.7.2-.9.4-.5 1.2-.7 1.8-.2.3.2.4.5.5.8 0 .3 0 .7-.2.9-.2.3-.6.5-1 .5zm0-1.9c-.2 0-.4.1-.5.3-.1.1-.2.3-.1.5 0 .2.1.3.3.4.3.2.7.2.9-.1.1-.1.2-.3.1-.5 0-.2-.1-.3-.3-.4-.1-.2-.2-.2-.4-.2z"/><circle id="XMLID_6_" class="st9" cx="27.7" cy="80.7" r=".6"/><path id="XMLID_5_" class="st9" d="M24.8 81.7c-.3 0-.5-.1-.8-.4-.8-.7-.5-1.2-.5-1.3.1-.1.3-.2.4-.1.1.1.2.3.1.4 0 0 0 .2.4.4.3.3.5.2.5.2.1-.1.3-.1.4 0 .1.1.1.3 0 .4 0 .3-.2.4-.5.4.1 0 .1 0 0 0z"/><g><path id="XMLID_4_" class="st1" d="M47.8 64.1c-.1-2-.2-3.9-.5-4.5-.4-.9-1.7-.4-2 0-.2.4-.2.7-.3 1.3 0 .7.1 1.5.1 1.5-.9-1.9-2.6-3.6-3.4-3.1-.8.6-.3 1.1-.2 1.5.2.9 1.2 2.1 1.2 2.1-.9-.4-3.4-1.3-3.9-.4-.5 1 1.1 1.9 2.3 2.6-.6 0-2-.3-3 0-.7.2-1.6 1.1-.3 1.6s2.2.5 3 .8c-1.6 0-2.9-.2-3.1.9-.1 1 2.9 1.5 4.5 1.7 1.6.2 2.3.8 2.3.8.9-1.4 3.4-4.6 4.1-4.7.1.1-.7-1.4-.8-2.1z"/><path id="XMLID_3_" d="M40.7 70.6c1-2.8 5.5-7.1 7.5-7.5 2.4 1.8 6.4 5.7 6.8 7.5.4 1.8 1.2 4-1.3 6.1-2.2 1.8-5.9 3.9-9.5-.9-1.2-1.6-2.4-2.7-3.5-5.2z"/></g><g><path id="XMLID_2_" class="st1" d="M20.2 61.8c1-1.7 1.8-3.5 2.3-3.9.8-.7 1.7.4 1.8.9 0 .5-.1.7-.3 1.3-.2.6-.7 1.3-.7 1.3 1.6-1.4 3.9-2.2 4.4-1.4.5.9-.2 1.2-.4 1.5-.6.7-1.9 1.4-1.9 1.4 1 0 3.7.2 3.7 1.3s-1.8 1.2-3.2 1.4c.5.2 1.9.5 2.8 1.3.5.5 1 1.7-.4 1.6-1.4-.1-2.2-.4-3.1-.5 1.5.7 2.7 1.1 2.4 2.1-.3 1-3.3.1-4.8-.3-1.6-.5-2.5-.2-2.5-.2-.3-1.6-1.2-5.6-1.8-6 0-.2 1.3-1.2 1.7-1.8z"/><path id="XMLID_1_" d="M23.9 70.7c.3-3-2-8.8-3.7-10-2.9.6-8.2 2.5-9.3 4-1.1 1.5-2.8 3.1-1.4 6.1 1.2 2.6 3.7 6 9 3.2 1.8-1 3.4-1.6 5.4-3.3z"/></g></svg>