<svg id="レイヤー_1" xmlns="http://www.w3.org/2000/svg" viewBox="0 0 72 140"><style>.st0{fill:#d7d7d8}.st1{fill:#b0b1b2}.st2{fill:#f8d6c0}.st3{fill:#542f1d}.st4{fill:#cda652}.st5{fill:url(#XMLID_52_)}.st6{fill:#a43f00}</style><path id="XMLID_25_" class="st0" d="M54 59.1c1.3.8 4.8 8.7 6.3 12.3 1.5 3.7 3.7 12.3 3.6 16-.1 3.6-.2 9.4-4.2 11.4-.6-3.3-3.4-33.7-5.7-39.7z"/><path id="XMLID_24_" class="st1" d="M39.7 52c2.4.1 6.1 1 8.5 2.4 2.4 1.4 5.9 3.1 6.6 5.8.7 2.7 5.5 17.6 6.1 22.6.4 3 .4 11.8.3 13.2-.1 1.4.6 3.4-3 5.1-3.7 1.7-7.4 4.2-13.1 2.8-5.7-1.4-15.6-15.9-15.6-22.7 0-6.7-2.4-29.5 10.2-29.2z"/><path id="XMLID_23_" class="st2" d="M20.5 85.5c2 .2 3.9.4 4.5.7.9.5.3 1.8-.1 2-.4.2-.7.2-1.3.2-.7 0-1.5-.1-1.5-.1 1.9 1 3.5 2.8 2.9 3.6-.6.8-1.2.3-1.5.2-.9-.3-2-1.3-2-1.3.4.9 1.2 3.5.2 3.9-1 .4-1.8-1.2-2.5-2.4 0 .6.3 2-.1 3.1-.2.7-1.2 1.5-1.7.2s-.4-2.2-.7-3.1c-.1 1.6 0 2.9-1 3-1 .1-1.4-3-1.5-4.6-.1-1.6-.7-2.4-.7-2.4 1.4-.9 4.7-3.2 4.9-3.9-.1 0 1.4.9 2.1.9z"/><path id="XMLID_22_" d="M14 75.9c2.4 4 3.9 5.5 6.7 8.7-.4.8-6.4 6.8-8.8 6.6C7.6 87.1 1.7 79 .3 76.7c-1.7-2.8 4.2-8.6 5.6-10.5 2-2.9 10.3-9.1 12.3-10.9 3.1.5 6.6 9.2 6.6 9.2-2.8 4.1-9.6 9.7-10.8 11.4z"/><path id="XMLID_21_" class="st0" d="M16.8 55.7c-1 2.4-3.6 21.2 1.2 25.1.7.5 1.5-.1 1.5-.1-.2-1.8-1.3-7.6-.9-13.4.4-5.8 2.3-11.4 2.6-12.4.3-1.2-3.8-.8-4.4.8z"/><path id="XMLID_20_" class="st3" d="M38.9 123c0-3-.6-4.5-1-6 1.1.3 9 2.1 11.8.1.4 2.5 1.1 5.8 1.4 6.7 1.2 3.9 1.4 6.1 3.6 7.6s3.3 4.8 2.2 5.9c-1 1.1-6 4-9.1 2-2.5-1.6-6.9-4.3-8.2-6.4-.9-1.5-1.3-4-.9-6 0-.8.2-2.2.2-3.9z"/><path id="XMLID_19_" class="st4" d="M31.8 94.5c.5 1.8 6.2 32.3 6.2 32.3 3.3 2.5 11.9 4.4 14.7.1-1.5-9.7-4.8-31.6-5.1-36.7"/><path id="XMLID_18_" class="st3" d="M24.3 122.5c.2-3 .9-4.4 1.4-5.9-1.2.3-9.1 1.5-11.8-.7-.6 2.5-1.5 5.7-1.8 6.6-1.4 3.8-1.8 6-4.1 7.3-2.3 1.3-3.6 4.6-2.6 5.8 1 1.1 5.7 4.4 9 2.6 2.6-1.5 7.2-3.8 8.6-5.9 1-1.4 1.5-3.9 1.3-5.9 0-.9-.1-2.2 0-3.9z"/><path id="XMLID_17_" class="st4" d="M33.2 94.5c-.7 1.8-8.3 31.8-8.3 31.8-3.5 2.3-12.2 3.6-14.7-.9 2.1-9.6 6.8-31.3 7.4-36.3"/><path id="XMLID_16_" d="M20.6 59.1c-1.1 2-2.4 11.4-3 16.6-.7 6.6-1.1 11.2-1.2 18.1 3.1 1.9 11.4 3.3 15.4 2.7 4-.6 15.2-.8 16.8-1.9.1-5.1-1.3-24.4-3.6-34.4"/><path id="XMLID_15_" class="st2" d="M60.9 32.4c-.8-1.8-1.6-3.6-1.6-4.2 0-1 1.4-1.1 1.8-.9.4.3.5.5.8 1 .4.6.6 1.3.6 1.3-.1-2.1.6-4.4 1.6-4.3 1 .1.8.9.9 1.2.2.9-.1 2.4-.1 2.4.6-.8 2.4-2.8 3.3-2.1.9.7-.1 2.2-.8 3.4.5-.3 1.6-1.2 2.7-1.4.7-.1 1.9.3 1 1.3-.9 1.1-1.7 1.5-2.3 2.1 1.4-.8 2.5-1.5 3.1-.7.6.8-1.9 2.7-3.2 3.6-1.4.9-1.7 1.8-1.7 1.8-1.5-.8-5.2-2.5-5.8-2.2 0 .1 0-1.6-.3-2.3z"/><path id="XMLID_14_" d="M51.8 51.3c2.3-4.1 7-14.5 8.2-18.6.9-.1 9.1 2.1 10.1 4.3-1.4 5.8-7 20.1-7.7 21.8-.7 1.8-2.3 3.8-4.2 5-1.9 1.2-13 9.3-14.7 9.9-1.1-3-4.1-16.1-4.1-16.1 4.2-1.6 10.5-5 11.3-5.4.8-.3.8-.3 1.1-.9z"/><linearGradient id="XMLID_52_" gradientUnits="userSpaceOnUse" x1="-2.065" y1="258.981" x2="-4.201" y2="253.64" gradientTransform="rotate(22.16 518.078 243.824)"><stop offset="0" stop-color="#fbdccb"/><stop offset="1" stop-color="#fac5a0"/></linearGradient><path id="XMLID_13_" class="st5" d="M34.2 51.1c0 1.5.3 3.3.4 3.8.1 1.1.5 2.7 1.3 3.5.5 1.5-.1 4.5-2.9 5.7-7.4.6-8-3.3-7.7-5.8.9-.5 1.6-1.5 2.1-2.5.2-1.6.1-2.6.1-3.3 1.4.1 6-.6 6.7-1.4z"/><path id="XMLID_12_" d="M27.3 55.2c-.4 1.5-.7 2.1.2 4.4 1 2.5 2.5 4.2 2.8 5.5.1.7.2 1.2-.9.9-2-.5-2.1-.5-4.8-2.3-1.7-1.1-4.4-4-4.5-6.7.2-2.1.3-2.6 2.5-3.2 2.2-.6 4.5-1 5.2-.7.2 0-.2 1-.5 2.1z"/><path id="XMLID_11_" d="M34.3 55.9c-.2 1.5-.3 1.9-1.5 4-1.4 2.3-3.1 3.8-3.6 5-.3.7-.4 1.2.7 1.1 2-.2 1.8-.4 4.8-1.8 1.8-.9 5-1.6 6.1-4.8.7-2.7 2.1-4.9 0-5.9-2-1-5.5-1.9-6.3-1.7-.3.2 0 2.9-.2 4.1z"/><path id="XMLID_10_" class="st0" d="M41.2 54.6c-.5 2.6 1 22.4 6.5 25.2.8.4 1.4-.4 1.4-.4-.6-1.8-2.9-7.2-3.7-12.9-.9-5.7-.2-11.1-.2-12.2.2-1.2-4.2-1-4 .3z"/><path id="XMLID_9_" d="M46.3 3.4C39-1.7 25.7-.1 22.7 2c-.1.1-.2.2-.4.3-1.4.7-3.1 1.7-2.7 4 .6 3 10.9 15 17.5 16.8 6.1 1.7 10 13.1 9.2 19.2-.5 2.1-1 4-1.4 5.1 4-1.6 5.4-4.5 6.1-7-.2 1.3-.5 2.5-.8 3.2 2.9-2.3 3.8-6.8 4.1-9.9.3 1 .3 2.4.5 4.3 5.4-17.9-1.2-29.6-8.5-34.6z"/><path id="XMLID_8_" d="M24.4 2.7l-.3-.6c-1.7-.7-5.3-1.1-10.5 2.3C8.5 7.8 2.9 17 3.3 26.6c.3 8.1 3.3 10.3 4.4 11.6-.4-.9-.5-2.4-.5-4.1.8 2.5 2.5 4.8 6 6.3-.4-1.1-.4-4-.2-7.2 1.3-6.4 4.1-11 8.3-14.6 4.4-3.8 5-7.3 5.4-11.3.4-2.5-.8-3.9-2.3-4.6z"/><path id="XMLID_7_" class="st2" d="M28.6 55.9c1.6 0 2.4-.2 4-.6 8.4-2.2 11.8-5.8 13.8-8.9 2-3.1 4.5-14.4 5-18.5.7-6 2.4-14.7-7.3-18.7-4.6-1.9-9.1-3.4-11.9-3.6-2.6-.2-5.4 0-12.3 1.6C9.6 9.6 9.8 18.3 9.5 24.4c-.2 4.1.4 15.7 1.9 19.1 1.5 3.4 4.4 7.3 12.3 10.8 2.4 1.1 3.5 1.6 4.9 1.6z"/><ellipse id="XMLID_6_" transform="rotate(6.066 16.8 35.982)" cx="16.8" cy="36" rx="3" ry="3"/><path id="XMLID_5_" d="M19.8 35.4c-.2 0-.4-.1-.5-.3-.5-1-1.2-1.6-2.2-1.6-1.4-.1-2.9.8-3.5 1.6-.2.3-.6.4-.8.2-.3-.2-.4-.6-.2-.8.7-1.2 2.7-2.3 4.6-2.2 1 .1 2.4.5 3.2 2.3.1.3 0 .7-.3.8-.2-.1-.3 0-.3 0z"/><ellipse id="XMLID_4_" transform="rotate(6.066 41.414 35.977)" cx="41.4" cy="36" rx="3" ry="3"/><path id="XMLID_3_" d="M44.4 35.4c-.2 0-.4-.1-.5-.3-.5-1-1.2-1.6-2.2-1.6-1.4-.1-2.9.8-3.5 1.6-.2.3-.6.4-.8.2-.3-.2-.4-.6-.2-.8.7-1.2 2.7-2.3 4.6-2.2 1 .1 2.4.5 3.2 2.3.1.3 0 .7-.3.8-.2-.1-.2 0-.3 0z"/><path id="XMLID_2_" class="st6" d="M29.7 49.5c-.5 0-1.1 0-1.7-.1-1-.1-2.3-.3-3.2-1.5-.2-.3-.7-1-.4-1.2.3-.2.7 0 .8.3.3.7 1.1 1.1 3 1.3 1.7.2 4.1.2 4.9-1.8.1-.3.4-.7.7-.5.2.2 0 .8-.1 1.1-.8 1.6-1.6 2.4-4 2.4z"/><path id="XMLID_1_" d="M53 15.7C49.4 8.1 41.1 4.8 38.3 4c-3.1-.9-14.5-1-18.5 0-3.6.9-7.7 5.1-7.7 5.1-7 6.7-4.2 19.4-1.7 22.4.1-5.2 2.9-10.8 5.2-14.4-1.9 4.4-3.2 9.8-2.6 13.4C14.6 26 18 17.9 23.6 13c.2 4.7 1.8 12.1 7.5 15.5-.5-3-.8-6.7-.2-10.7 1.1 4.7 3.8 11.5 8.4 13.5-1.2-2.1-1.8-5.2-2-8.3 1.3 3.3 3.7 6.9 7.5 8.2-2.5-4.1-3-7-2.9-9.8 1.5 4.5 5.3 14 9.2 14.9 2.3-4.3 4.4-13.4 1.9-20.6z"/></svg>