<svg id="レイヤー_1" xmlns="http://www.w3.org/2000/svg" viewBox="0 0 87 157"><style>.st0{fill:#352114}.st1{fill:#909257}.st2{fill:#f8d6c0}.st3{fill:#1d3e2e}.st4{fill:#f9bb00}.st5{fill:url(#XMLID_61_)}.st6{opacity:.9;fill:#fff}.st7{fill:url(#XMLID_62_)}.st8,.st9{fill:#fff}.st9{opacity:.6}.st10{fill:url(#XMLID_63_)}.st11{fill:#ffd462}.st12{fill:url(#XMLID_64_)}.st13{fill:url(#XMLID_65_)}.st14{fill:url(#XMLID_66_)}.st15{fill:#dc0045}.st16{fill:#fbe0ec}</style><g id="XMLID_2_"><g id="XMLID_53_"><g id="XMLID_57_"><path id="XMLID_59_" class="st0" d="M73.3 138c-.5-2.9-.2-4.5-.1-6.1-1.1.5-8.4 3.8-11.6 2.3 0 2.5 0 5.9-.1 6.8-.4 4.1-.2 6.2-2.1 8.1-1.8 1.9-2.3 5.4-1.1 6.2 1.2.9 6.6 2.8 9.3.3 2.2-2.1 6-5.5 6.9-7.9.6-1.6.5-4.1-.2-6-.3-.7-.7-1.9-1-3.7z"/><path id="XMLID_58_" class="st1" d="M75.4 112.5c-.1 1.5-.8-1.9-.6 29.6-2.8 3.1-11.8 7.5-15.3 3.7-.4-9.8-1.2-32-1.9-37"/></g><g id="XMLID_54_"><path id="XMLID_56_" class="st0" d="M55.9 137.2c-.5-2.9-.2-4.5-.1-6.1-1.1.6-8.4 3.8-11.6 2.3 0 2.5 0 5.9-.1 6.8-.4 4.1-.2 6.2-2.1 8.1-1.8 1.9-2.3 5.4-1.1 6.2 1.2.9 6.6 2.8 9.3.3 2.2-2.1 6-5.5 6.9-7.9.6-1.6.5-4.1-.2-6-.3-.7-.7-2-1-3.7z"/><path id="XMLID_55_" class="st1" d="M58.3 111.8c-.1 1.5-.8-1.9-.6 29.6-2.8 3.1-11.8 7.5-15.3 3.7-.4-9.8-1.2-32-1.9-37"/></g></g><g id="XMLID_50_"><path id="XMLID_52_" class="st2" d="M15.9 83.1c-1.5-1.3-2.9-2.7-3.5-2.9-1-.4-1.5.9-1.4 1.4.1.5.3.7.7 1.1.4.5 1.1 1 1.1 1-2-.8-4.4-.9-4.6.1-.2 1 .6 1.1.9 1.3.8.5 2.3.7 2.3.7-.9.3-3.4 1.4-3.1 2.4.3 1 2.1.6 3.4.3-.4.4-1.7 1.1-2.2 2.1-.4.6-.4 1.9.9 1.4s2-1.1 2.8-1.5c-1.2 1.1-2.2 1.9-1.6 2.7.6.8 3.1-.9 4.5-1.9 1.3-1 2.3-1 2.3-1-.3-1.6-.7-5.7-.2-6.2-.1 0-1.8-.5-2.3-1z"/><path id="XMLID_51_" class="st3" d="M14.5 81.1c4.8-1.1 15.1-3.8 17.3-5.5 2.9-2.8 6.8-7.9 9.1-11.3 2.5-2.5 6.6 3.3 8.3 7.3 1.7 4 .1 10.1-2.1 12.7-1.6 1.8-3.1 3-6.6 4.9-3.2 1.7-4.3 1.6-7 2.4-2.7.9-14.5 2.1-16 1.8-1.9-2.9-4.6-7.8-3-12.3z"/></g><path id="XMLID_49_" class="st3" d="M65.3 63.3c2.7 2.8 7.5 6.8 10.2 19.8 1.8 8.7 1.6 23.1 1.1 30.3-4 2.9-15.2 7.5-23 4.7-7.8-2.9-18-5.8-18.5-8.5.5-10.6 8.4-41 11.8-46.6"/><path id="XMLID_48_" class="st4" d="M61.5 63.7c-1.4 4-4.4 17.3-4.6 22.2-.2 4.8-1.8 13.3-1.6 12.1-2.4-8.9-5.6-22-4.8-31.6"/><linearGradient id="XMLID_61_" gradientUnits="userSpaceOnUse" x1="57.203" y1="68.727" x2="56.118" y2="66.014"><stop offset="0" stop-color="#fbdccb"/><stop offset="1" stop-color="#fac5a0"/></linearGradient><path id="XMLID_47_" class="st5" d="M51.4 65.3c.3 1.5.7 4.2 2.6 4.6 2 .3 3.3 1 5-1.3 1.7-2.2 1.1-2.9.9-5.4-1.7.7-7.3 2.6-8.5 2.1z"/><g id="XMLID_23_"><path id="XMLID_46_" class="st6" d="M50.5 143.9c-8.9 2.8-12.4 1.6-14.5 1.1-2.2-.5-3.8-4.5-4.4-6-.6-1.5-11.5-31.2-15.7-42.5-4.2-11.2-5-16.6-5.3-22.1-.4-5.4-.9-20.4-1.7-26.6C8 41.7 4.3 30.7 3.5 28c-.8-2.6-2.3-5.8-2.4-6.5-.1-.7-.4-.9-.5-1.2-.1-.3 0-.5-.1-.8-.2-.3-.5-.5-.5-.8 0-1.2 3.9-2.4 5.6-2.9 1.7-.5 5.5-2.2 6.2-1.3.2.2 0 .6.1.9.1.3.3.4.4.7.1.3 0 .7.4 1.3.4.6 1.2 4 2.2 6.6 1 2.6 5 13.5 8.2 18.8 3.2 5.4 12.1 17.3 15.3 21.8 3.2 4.5 5.9 9.2 9.6 20.6 3.7 11.4 13.8 41.4 14.3 43 .5 1.6 1.6 5.6.3 7.4-1.2 1.7-3.6 5.7-12.1 8.3z"/><linearGradient id="XMLID_62_" gradientUnits="userSpaceOnUse" y1="79.979" x2="63.392" y2="79.979"><stop offset="0" stop-color="#d5d5d5"/><stop offset=".17" stop-color="#fff"/><stop offset=".582" stop-color="#fff"/><stop offset="1" stop-color="#c4c4c4"/></linearGradient><path id="XMLID_45_" class="st7" d="M50.5 143.9c-8.9 2.8-12.4 1.6-14.5 1.1-2.2-.5-3.8-4.5-4.4-6-.6-1.5-11.5-31.2-15.7-42.5-4.2-11.2-5-16.6-5.3-22.1-.4-5.4-.9-20.4-1.7-26.6C8 41.7 4.3 30.7 3.5 28c-.8-2.6-2.3-5.8-2.4-6.5-.1-.7-.4-.9-.5-1.2-.1-.3 0-.5-.1-.8-.2-.3-.5-.5-.5-.8 0-1.2 3.9-2.4 5.6-2.9 1.7-.5 5.5-2.2 6.2-1.3.2.2 0 .6.1.9.1.3.3.4.4.7.1.3 0 .7.4 1.3.4.6 1.2 4 2.2 6.6 1 2.6 5 13.5 8.2 18.8 3.2 5.4 12.1 17.3 15.3 21.8 3.2 4.5 5.9 9.2 9.6 20.6 3.7 11.4 13.8 41.4 14.3 43 .5 1.6 1.6 5.6.3 7.4-1.2 1.7-3.6 5.7-12.1 8.3z"/><ellipse id="XMLID_44_" class="st8" cx="21.8" cy="58.4" rx="11.2" ry="2"/><path id="XMLID_43_" class="st9" d="M3.3 21.6c2.1 5.9 6 16.6 6.5 18.6 1.3 5.3 2.1 14.5 3 24.5.9 10 1.5 16.3 2.4 20.9.9 4.5 14.9 44 17 48.8 2.1 4.8 3.9 8.5 5.1 9.1 1.2.6 2.1.2.9-1.7C37 140 20 93.7 18.2 87.1c-1.8-6.7-2.7-19.1-3.3-23.6-.4-3.2-1.2-15.1-4.1-24.5-.8-2.5-3.9-12.1-6.2-17.8-.5-1.2-.8-.5-.9-.5-.2.1-.8-.3-.4.9z"/><linearGradient id="XMLID_63_" gradientUnits="userSpaceOnUse" x1="14.613" y1="112.246" x2="63.116" y2="112.246"><stop offset="0"/><stop offset=".25" stop-color="#0a0a0a"/><stop offset="1"/></linearGradient><path id="XMLID_42_" class="st10" d="M14.6 94.3c1.6.6 5.4 0 17.4-3.6 12-3.5 14.7-6.5 15.6-7.9 0 0 13.2 40 15.5 47.8-.2.8-2.4 5.9-13.9 9.1-11.5 3.2-16.4 1.8-17.1 1.3.5.9-14.8-39.3-17.5-46.7z"/><path id="XMLID_41_" class="st11" d="M49.3 88c-.3-1-.6-1.8-.8-2.5-7.4 7.3-22.1 10.1-22.2 10.2-3.2.6-8.6 1.5-10.7 1.3.3.7.5 1.6.8 2.5 3.6 0 9.5-1.2 10.3-1.4.7-.2 14.5-2.9 22.6-10.1z"/><path id="XMLID_40_" class="st11" d="M42.3 138.5c6.1-1.5 10.5-2.6 15-5.4 2.4-1.5 4-3.2 5.2-4.6-.2-.8-.5-1.8-.8-2.9-1.1 1.4-2.8 3.6-5.7 5.4-4.1 2.7-8.4 3.7-14.2 5.1-3.7.9-8.3.5-11.4.1.4 1 .8 1.9 1 2.6 1.4.2 3 .3 4.7.3 2 .1 4.2-.1 6.2-.6z"/><path id="XMLID_33_" class="st11" d="M38.6 128.3c-.2.8-.7 1.4-1.6 1.7-1.1.4-2.4.1-3.8-.7-1.4-.9-2.4-2.1-2.9-3.7-.4-1-.5-2-.4-2.9.1-.9.3-1.8.9-2.7.3-.6-.1-1-1-1.4-2.1-.9-3.3-1.7-3.5-2.5-.2-.9.3-2.5 1.6-4.7.3-.5.3-.9 0-1.1-.8-.6-1.7-1.1-2.7-1.6-.6-.2-1-.5-1.1-.8-.1-.4 0-.9.2-1.4.2-.6.6-1 1.2-1.1 1.3-.3 2.7-.1 4.5.8.8.4 1.5.9 1.9 1.4v-.3c.1-.2.3-.4.6-.5.3-.1.7-.3 1.1-.8 1.4-1.6 2.7-3 4.1-4.2 1.4-1.3 2.7-2.2 4.1-2.7 1.8-.6 3.6-.8 5.2-.4 1.3.4 2.1 1 2.5 2 .3.8.2 1.4-.3 2-.6.6-1.4.9-2.5.7-1.7-.3-2.9-.1-3.6.5.1.2.3.4.4.6.1.4.3.8.5 1.3 0-.1.1-.1.1-.1.7-.3 1.5-.6 2.2-.7 1.5-.1 2.7.3 3.8 1.2.8.7 1.4 1.9 2 3.5.6 2 1.1 3.5 1.6 4.7.7 1.8 1.3 3.6 2 5.4.3.8.5 1.5.5 2 .1.4.1.8-.1 1.2-.4.5-1.3.8-2.5.9-.8.1-1.8.4-2.9.9-1.1.5-2.4 1.1-3.9 2-2.3 1.2-4.2 1.5-5.6.9-1.1-.5-1.8-1.3-2.3-2.5-.9-1.9-1.5-3.9-1.8-5.7-.2-.8-.7-2.5-1.5-4.9-.1-.5-.4-1-.8-1.3-.5-.6-.8-1.2-.6-1.7.2-.6.6-.8 1.2-.9.7 0 1.3.2 1.9.7h.1c.4-.2.8-.5 1.2-.9 0 0 0-.1.1-.1-.2-.4-.3-.8-.4-1.1-.2-.4-.4-.6-.5-.7-.1-.1-.2-.1-.2-.1h-.3c-.6.3-1.1.5-1.5.6-.9.3-1.6.3-2.3 0-.2-.1-.4-.2-.5-.2 0 .1 0 .1.1.2.2.7 0 1.4-.4 2 .5 1.5.9 2.8 1.3 4.1.4.2.6.5.8.8.1.3 0 .7-.2 1.3.8 2.8 1.7 5.1 2.9 7 .7 1.7 1.2 3.1 1.1 4zm-9.3-14.7c.3.4 1.2.7 2.7.9h.2c-.2-.9-.5-1.9-.7-2.9-.1 0-.1 0-.2.1-.8.4-1.4.9-1.8 1.2-.2.2-.3.4-.2.7zm4 9.9c.2.3.4.6.8.8.3.1.5.2.6.1.2-.1.3-.3.2-.7-.5-1.4-.9-2.9-1.4-4.5-.6 1.8-.7 3.2-.2 4.3zm11.3-4.7c1-.8 1.6-1.3 2-1.5 1.2-.6 2.2-.8 3-.5.1 0 .1 0 .2.1-.2-.5-.4-1.1-.6-1.7-.6.3-1.3.7-2 1-.6.2-1.3.2-1.9-.1-.6-.2-1.1-.9-1.5-2.1l-.9-2.7c-.4.3-.7.6-.9.9.1.2.2.5.3.7.5 1.7.9 3.2 1 4.6 0 .7-.1 1.3-.3 1.7-.2.3-.4.5-.6.6-.2.2-.6.2-1 .3-.6 0-.9 0-1-.1-.1-.1-.1-.2 0-.5.2-.7.4-1.3.4-1.9 0-.6 0-1.3-.2-2.1-.1-.5-.3-1.1-.5-1.6-.5.1-1.1.2-1.7.3 1 4.3 1.8 7.3 2.4 8.9.4 1.3.9 1.9 1.6 2.1.3 0 .7-.2 1.2-.5.9-.6 2.3-1.5 4.1-2.4 1.3-.7 2.4-1.3 3.2-1.6.1 0 .1-.1.2-.1-.2-.5-.4-1-.6-1.4-.1 0-.2.1-.3.1-.4.2-1.1.5-1.9.9-1 .6-1.8 1.1-2.5 1.6-.4.3-.8.6-1.1.8-.6.5-1.3.7-2 .8-.6 0-1-.1-1.2-.3-.2-.2-.3-.4-.3-.6 0-.2.1-.3.3-.4l.5-.5c.6-1.1 1.5-1.9 2.6-2.8zm-5.2-12.1c.3.3.7.8 1.1 1.5.3-.3.6-.5.9-.8l.2-.2c-.2-.6-.4-1.2-.6-1.7-.6.5-1.1.9-1.6 1.2zm8.6 5c0-.1 0-.2-.1-.3-.1-.3-.2-.8-.4-1.4-.2-.5-.4-.7-.5-.8-.1 0-.3 0-.7.1-.4.1-.8.3-1.1.5 0 .1.1.2.1.3.4 1.3.7 2.1.9 2.4.2.1.3.1.6 0 .5-.5.9-.7 1.2-.8z"/><linearGradient id="XMLID_64_" gradientUnits="userSpaceOnUse" x1="15.603" y1="92.453" x2="49.327" y2="92.453"><stop offset="0" stop-color="#965a50"/><stop offset=".25" stop-color="#fff"/><stop offset="1" stop-color="#965a50"/></linearGradient><path id="XMLID_32_" class="st12" d="M49.3 88c-.3-1-.6-1.8-.8-2.5-7.4 7.3-22.1 10.1-22.2 10.2-3.2.6-8.6 1.5-10.7 1.3.3.7.5 1.6.8 2.5 3.6 0 9.5-1.2 10.3-1.4.7-.2 14.5-2.9 22.6-10.1z"/><linearGradient id="XMLID_65_" gradientUnits="userSpaceOnUse" x1="30.353" y1="132.426" x2="62.514" y2="132.426"><stop offset="0" stop-color="#965a50"/><stop offset=".25" stop-color="#fff"/><stop offset="1" stop-color="#965a50"/></linearGradient><path id="XMLID_31_" class="st13" d="M42.3 138.5c6.1-1.5 10.5-2.6 15-5.4 2.4-1.5 4-3.2 5.2-4.6-.2-.8-.5-1.8-.8-2.9-1.1 1.4-2.8 3.6-5.7 5.4-4.1 2.7-8.4 3.7-14.2 5.1-3.7.9-8.3.5-11.4.1.4 1 .8 1.9 1 2.6 1.4.2 3 .3 4.7.3 2 .1 4.2-.1 6.2-.6z"/><linearGradient id="XMLID_66_" gradientUnits="userSpaceOnUse" x1="24.079" y1="114.227" x2="56.174" y2="114.227"><stop offset="0" stop-color="#965a50"/><stop offset=".25" stop-color="#fff"/><stop offset="1" stop-color="#965a50"/></linearGradient><path id="XMLID_24_" class="st14" d="M38.6 128.3c-.2.8-.7 1.4-1.6 1.7-1.1.4-2.4.1-3.8-.7-1.4-.9-2.4-2.1-2.9-3.7-.4-1-.5-2-.4-2.9.1-.9.3-1.8.9-2.7.3-.6-.1-1-1-1.4-2.1-.9-3.3-1.7-3.5-2.5-.2-.9.3-2.5 1.6-4.7.3-.5.3-.9 0-1.1-.8-.6-1.7-1.1-2.7-1.6-.6-.2-1-.5-1.1-.8-.1-.4 0-.9.2-1.4.2-.6.6-1 1.2-1.1 1.3-.3 2.7-.1 4.5.8.8.4 1.5.9 1.9 1.4v-.3c.1-.2.3-.4.6-.5.3-.1.7-.3 1.1-.8 1.4-1.6 2.7-3 4.1-4.2 1.4-1.3 2.7-2.2 4.1-2.7 1.8-.6 3.6-.8 5.2-.4 1.3.4 2.1 1 2.5 2 .3.8.2 1.4-.3 2-.6.6-1.4.9-2.5.7-1.7-.3-2.9-.1-3.6.5.1.2.3.4.4.6.1.4.3.8.5 1.3 0-.1.1-.1.1-.1.7-.3 1.5-.6 2.2-.7 1.5-.1 2.7.3 3.8 1.2.8.7 1.4 1.9 2 3.5.6 2 1.1 3.5 1.6 4.7.7 1.8 1.3 3.6 2 5.4.3.8.5 1.5.5 2 .1.4.1.8-.1 1.2-.4.5-1.3.8-2.5.9-.8.1-1.8.4-2.9.9-1.1.5-2.4 1.1-3.9 2-2.3 1.2-4.2 1.5-5.6.9-1.1-.5-1.8-1.3-2.3-2.5-.9-1.9-1.5-3.9-1.8-5.7-.2-.8-.7-2.5-1.5-4.9-.1-.5-.4-1-.8-1.3-.5-.6-.8-1.2-.6-1.7.2-.6.6-.8 1.2-.9.7 0 1.3.2 1.9.7h.1c.4-.2.8-.5 1.2-.9 0 0 0-.1.1-.1-.2-.4-.3-.8-.4-1.1-.2-.4-.4-.6-.5-.7-.1-.1-.2-.1-.2-.1h-.3c-.6.3-1.1.5-1.5.6-.9.3-1.6.3-2.3 0-.2-.1-.4-.2-.5-.2 0 .1 0 .1.1.2.2.7 0 1.4-.4 2 .5 1.5.9 2.8 1.3 4.1.4.2.6.5.8.8.1.3 0 .7-.2 1.3.8 2.8 1.7 5.1 2.9 7 .7 1.7 1.2 3.1 1.1 4zm-9.3-14.7c.3.4 1.2.7 2.7.9h.2c-.2-.9-.5-1.9-.7-2.9-.1 0-.1 0-.2.1-.8.4-1.4.9-1.8 1.2-.2.2-.3.4-.2.7zm4 9.9c.2.3.4.6.8.8.3.1.5.2.6.1.2-.1.3-.3.2-.7-.5-1.4-.9-2.9-1.4-4.5-.6 1.8-.7 3.2-.2 4.3zm11.3-4.7c1-.8 1.6-1.3 2-1.5 1.2-.6 2.2-.8 3-.5.1 0 .1 0 .2.1-.2-.5-.4-1.1-.6-1.7-.6.3-1.3.7-2 1-.6.2-1.3.2-1.9-.1-.6-.2-1.1-.9-1.5-2.1l-.9-2.7c-.4.3-.7.6-.9.9.1.2.2.5.3.7.5 1.7.9 3.2 1 4.6 0 .7-.1 1.3-.3 1.7-.2.3-.4.5-.6.6-.2.2-.6.2-1 .3-.6 0-.9 0-1-.1-.1-.1-.1-.2 0-.5.2-.7.4-1.3.4-1.9 0-.6 0-1.3-.2-2.1-.1-.5-.3-1.1-.5-1.6-.5.1-1.1.2-1.7.3 1 4.3 1.8 7.3 2.4 8.9.4 1.3.9 1.9 1.6 2.1.3 0 .7-.2 1.2-.5.9-.6 2.3-1.5 4.1-2.4 1.3-.7 2.4-1.3 3.2-1.6.1 0 .1-.1.2-.1-.2-.5-.4-1-.6-1.4-.1 0-.2.1-.3.1-.4.2-1.1.5-1.9.9-1 .6-1.8 1.1-2.5 1.6-.4.3-.8.6-1.1.8-.6.5-1.3.7-2 .8-.6 0-1-.1-1.2-.3-.2-.2-.3-.4-.3-.6 0-.2.1-.3.3-.4l.5-.5c.6-1.1 1.5-1.9 2.6-2.8zm-5.2-12.1c.3.3.7.8 1.1 1.5.3-.3.6-.5.9-.8l.2-.2c-.2-.6-.4-1.2-.6-1.7-.6.5-1.1.9-1.6 1.2zm8.6 5c0-.1 0-.2-.1-.3-.1-.3-.2-.8-.4-1.4-.2-.5-.4-.7-.5-.8-.1 0-.3 0-.7.1-.4.1-.8.3-1.1.5 0 .1.1.2.1.3.4 1.3.7 2.1.9 2.4.2.1.3.1.6 0 .5-.5.9-.7 1.2-.8z"/></g><g id="XMLID_20_"><path id="XMLID_22_" class="st2" d="M44.1 90.5c-1.5-1.3-2.8-2.7-3.5-2.9-1-.4-1.5.9-1.4 1.4.1.5.3.7.7 1.1.4.5 1.1 1 1.1 1-2-.8-4.4-.9-4.6.1-.2 1 .6 1.1.9 1.3.8.5 2.3.7 2.3.7-.9.3-3.4 1.4-3.1 2.4.3 1 2.1.6 3.4.3-.4.4-1.7 1.1-2.2 2.1-.3.6-.4 1.9.9 1.4s2-1.1 2.8-1.5c-1.2 1.1-2.2 1.9-1.6 2.7.6.8 3.1-.9 4.5-1.9 1.3-1 2.3-1 2.3-1-.3-1.6-.7-5.7-.2-6.2-.2 0-1.8-.6-2.3-1z"/><path id="XMLID_21_" class="st3" d="M42.7 88.5c4.8-1.1 13.7-4.9 15.8-6.6 2.5-3.6 3.9-7.9 6.3-11.4 2.5-2.5 6.7 2 8.5 5.9 1.7 4 .8 10.3-.4 12.4-1.2 2.1-2.8 3.6-5.7 6.2-2.5 2.3-2.6 2.4-5.3 3.2-2.7.9-14.5 2.7-16 2.4-2.2-2.7-4.8-7.6-3.2-12.1z"/></g><path id="XMLID_19_" d="M67.1 2.7c-8.2-4.4-22.3-2.8-25.9.4-1.5 1.3-2.5 6.5-.5 8.9 2.1 2.5 15.6 5 20.1 5.9 4.5.8 13.7 8.6 15.1 12.7.6 1.7.7 5 .7 8.5-.5.6-.5 7.7-2.6 10.9-1.4 1.3-3.9 4.1-4.7 5.8-1.1 2.1-2.7 6 2.2 4.9 1.9-.4 3.1-1.2 3.8-2.1l-.3 1.8c1.2.2 2.8-2.8 4.2-8.5.1.8-.5 3.9-1 6 2-.9 2.9-3.1 4.4-9.9.3 1.2-.4 3.2-.7 6.5 4.5-4.3 4.5-12.2 3.3-19.9 1 1.5 1.4 4.7 1.7 6.7C89.3 21.9 75.3 7.1 67.1 2.7z"/><path id="XMLID_18_" d="M44.2 3.9C41 1.3 34.8 1.7 29.6 5.3c-10.2 7.1-8 14.3-12.5 18.5-1.6 1.5-4.9 4.3-6.9 4.7 1 1.4 4.8.7 7.5-.6-2 1.6-6.4 4.3-7.8 4.7 1.9 1.1 5.3.4 7.6-1.8-3.4 3.4-3 7.8-2.5 10.7.5-2.4 1.6-2.5 2-3.1-.5 2.6.1 10.7 3.2 13.4-.4-2 0-4.3.4-6.1.4 2.6 1.7 5.4 4 7.2 1.3-2.7 1.9-7 1.9-10.1.6-2.8 2.1-9.1 3.5-13.9 2.9-4.6 6-9.7 6-9.7 2-2.1 14.8-9.8 8.2-15.3z"/><path id="XMLID_17_" class="st2" d="M22.1 36.1c-.4 3 0 14.5 1.7 19.4 1.7 4.9 4.4 7.3 10.7 9.3 6.3 1.9 16.8 4.3 24.1 2s15.1-2.4 19.3-17.1C82.1 34.9 80 21.6 75 15.1s-33.5-14-45.2-2.4c-7 6.9-6.9 17.4-7.7 23.4z"/><path id="XMLID_16_" d="M28.5 45.2c-.1 0-.3 0-.4-.1-.3-.2-.3-.6-.1-.9.6-.8 2.1-1.6 3.8-1.7 1.5-.1 2.8.4 3.8 1.4.2.2.2.6 0 .9-.2.2-.6.2-.9 0-1-.9-2.1-1.1-2.9-1-1.3.1-2.5.7-2.9 1.3-.1.1-.2.1-.4.1z"/><path id="XMLID_15_" d="M63.2 46.8c-.2 0-.4-.1-.5-.3-.4-.6-1.5-1.3-2.8-1.5-.8-.1-1.9 0-2.9.8-.3.2-.6.2-.8-.1-.2-.3-.2-.6.1-.9 1.1-.9 2.4-1.3 3.9-1.1 1.7.2 3.1 1.2 3.7 2 .2.3.1.7-.2.8-.3.3-.4.3-.5.3z"/><path id="XMLID_14_" class="st15" d="M43.2 59.3c2.8.1 13.1-.7 13.1-.7-.4 2.4-2.3 4.8-5.5 4.7-3.3-.1-6.1-1.1-7.6-4z"/><path id="XMLID_13_" class="st16" d="M30.4 56.4c-2.8-1.4-2.7-3.5.3-4.4 3-.9 5.4-1.1 6.2-.3.8.8 1.5 3.3.1 3.8-1.4.6-4.5 2-6.6.9z"/><path id="XMLID_12_" class="st16" d="M66.2 57.9c2.9-1.2 2.9-3.4-.1-4.4-3-1.1-5.4-1.3-6.2-.5-.8.8-1.7 3.2-.3 3.8 1.4.6 4.4 2.1 6.6 1.1z"/><path id="XMLID_9_" d="M33.6 53.9h-1.4c-5.5-.3-10.5-.9-11.5-4.7-.7-2.7-2.2-10.9.5-13.1 1.9-1.5 3.5-2.1 6.1-2.1 1.1 0 2.3.1 3.8.3 5.1.7 10.8 3 11.1 6.6.4 3.9-.1 6.2-1 9-.7 2.7-3.2 4-7.6 4zm-6.3-18.7c-2.6 0-3.9.7-5.3 1.8-1.8 1.4-1.2 7.8-.1 11.8.8 3 5.4 3.5 10.4 3.8 4.6.3 7.1-.8 7.8-3.2.8-2.7 1.3-4.8.9-8.5-.2-2.4-4.6-4.7-10.1-5.5-1.4-.1-2.6-.2-3.6-.2z"/><path id="XMLID_6_" d="M63.3 55.5c-1.7 0-3.6-.2-5.4-.6-5.2-1-7.5-2.7-8-5.8l-.1-.8c-.4-2.4-.7-4.6 0-7.6s5.1-5 11.2-5c4.9 0 8.8 1.7 10.7 4.7 1.7 2.6 1.4 7.9-.6 11.9-1 2.1-3.7 3.2-7.8 3.2zm-2.4-18.6c-5.5 0-9.5 1.6-10.1 4-.6 2.8-.3 4.9.1 7.2l.1.8c.3 2.1 1.6 3.7 7 4.8 1.8.4 3.6.5 5.2.5 3.5 0 5.9-.9 6.7-2.5 1.8-3.6 2.1-8.5.6-10.7-.7-1.2-3.2-4.1-9.6-4.1z"/><path id="XMLID_5_" d="M49.6 43.9c-2.5-2.5-7.6-.2-7.6-.2l-.5-1.1c.1 0 5.8-2.6 9 .4l-.9.9z"/><path id="XMLID_4_" class="st8" d="M43.1 59.2c.1.2.2.5.3.7 1.4.5 3.7.8 6.2.8s4.8-.4 6.2-.9c.2-.4.4-1 .5-1.4.1 0-10.4.9-13.2.8z"/><path id="XMLID_3_" d="M82.4 24.8c-1.5-5.7-5.8-16.3-15.3-19.6-4-1.4-6.2-2-8-2.2-3.6-.5-7.4-.2-9.8.2l-7.4 1.4c-1.6-.2-4.7-.3-7.6.8-5.4 2-6.8 3.8-10.4 8.9-4.4 6.1-2.4 17.5-2.2 19.8 0-.1.1-.3.1-.4.1 1.9.6 3.6 1.5 4.9.1-2 1.7-6.9 4-11-.9 3.3-1.5 6.9-.9 8.8.5-1.6 2.5-6.1 4.9-9.2-1.6 4.6-2.6 10.4.1 12.8.1-3.2 3.8-11.5 7.8-17.2-2.2 5.9-4.1 14.2-.6 17.8.1-3.4 2.1-10.1 5-15.1-1.7 4.8-2.9 10.7-.6 14.4 0-5.2 3.5-15.1 9.8-20.4-2 4.9-5.2 14.6-1.8 20.1.1-2.5 3.2-10.1 6.4-15.4-1.2 5.1-1.9 11.7 1.3 15-.2-1.6 1.5-9.6 4-14.6-.9 6-1.6 16 3 18.9-1-3 0-8.3 1.7-12.8.2 5.6 1.2 13.8 5.1 16.3-.3-2.9-.4-7.6.4-11.9-.1 5.7 2 12 3.6 13.3.1-1 .3-2.7.5-4.5 0 4.9.1 9.5.6 10.1 2-3.5 4-8.7 4.8-13.9 0 0 0 .1.1.2.1-.7.1-1.4.2-2.1.1-2.5 1.2-7.6-.3-13.4z"/></g></svg>