<?xml version="1.0" encoding="utf-8"?>
<!-- Generator: Adobe Illustrator 19.0.0, SVG Export Plug-In . SVG Version: 6.00 Build 0)  -->
<svg version="1.1" id="レイヤー_1" xmlns="http://www.w3.org/2000/svg" xmlns:xlink="http://www.w3.org/1999/xlink" x="0px"
	 y="0px" viewBox="0 0 259 53" style="enable-background:new 0 0 259 53;" xml:space="preserve">
<style type="text/css">
	.st0{fill:#3DB6D1;}
	.st1{fill:#FFFFFF;}
</style>
<g>
	<g>
		<polygon id="XMLID_40_" class="st0" points="132.5,43.7 129.5,53 126.5,43.7 		"/>
		<polygon id="XMLID_39_" class="st0" points="109,52.6 108.3,43.2 114,44.5 		"/>
		<polygon id="XMLID_38_" class="st0" points="88.6,51.6 90.1,42.1 95.4,44.7 		"/>
		<polygon id="XMLID_37_" class="st0" points="68.2,49.5 72.1,39.8 77,43.9 		"/>
		<polygon id="XMLID_36_" class="st0" points="56.6,42.7 45.9,47.2 52,37.3 		"/>
	</g>
	<g>
		<polygon id="XMLID_35_" class="st0" points="150,52.6 150.7,43.2 145,44.5 		"/>
		<polygon id="XMLID_34_" class="st0" points="170.4,51.6 168.9,42.1 163.6,44.7 		"/>
		<polygon id="XMLID_33_" class="st0" points="190.8,49.5 186.9,39.8 182,43.9 		"/>
		<polygon id="XMLID_32_" class="st0" points="202.4,42.7 213.1,47.2 207,37.3 		"/>
	</g>
	<path id="XMLID_31_" class="st0" d="M250.3,11.3C233.4,2.3,194,0.1,149.5,0c0,0,0,0,0,0c-3.6-0.1-11.7-0.1-20,0c-8.3,0-16.4,0-20,0
		c0,0,0,0,0,0C65,0.1,25.6,2.3,8.7,11.3C3.1,14.2,0,17.9,0,22.5c0,4.7,3.1,8.4,8.7,11.3C25.6,42.7,65,45,109.5,45c0,0,0,0,0,0
		c3.6,0.1,11.7,0.1,20,0c8.3,0,16.4,0,20,0c0,0,0,0,0,0c44.5,0,83.9-2.3,100.8-11.2c5.6-2.9,8.7-6.6,8.7-11.3
		C259,17.9,255.9,14.2,250.3,11.3z"/>
</g>
<g>
	<path class="st1" d="M34.9,16.6c-0.2,0.3-0.3,0.4-0.5,1c-1,2.4-1.5,3.4-2.3,4.6c1.4,1.1,2.4,2.1,3.7,3.4l-0.9,1
		c-0.8-1.1-1.9-2.1-3.5-3.4c-1.7,2.3-3.6,4-6.4,5.5c-0.3-0.5-0.4-0.6-0.8-1c2.6-1.2,4.6-3,6.4-5.3c-1.5-1.2-3-2.1-4.3-2.9l0.8-0.8
		c1.6,0.9,2.4,1.5,4.2,2.8c0.8-1.2,1.3-2.3,1.9-3.7c0.4-1,0.5-1.2,0.6-1.7L34.9,16.6z"/>
	<path class="st1" d="M38.4,27c1.2,0,3.2-0.5,4.6-1.2c3.1-1.4,5.2-3.7,6.5-7.1c0.4,0.5,0.5,0.6,1,0.9c-1.3,2.8-2.8,4.6-4.9,6.1
		c-1.6,1.1-3.3,1.8-6,2.4c-0.4,0.1-0.6,0.1-1,0.3L38.4,27z M39.4,17.2c1.7,1.1,2.7,1.9,3.8,3l-0.8,1c-1.2-1.2-2.4-2.3-3.8-3.1
		L39.4,17.2z"/>
	<path class="st1" d="M56.1,17.1c-0.1,0.2-0.1,0.3-0.2,1.1c-0.7,4.5-1.9,7.5-4.2,9.9c-0.4-0.4-0.6-0.6-1-0.8c1-0.9,1.6-1.8,2.3-3.1
		c0.8-1.6,1.3-3.4,1.6-5.5c0.1-0.6,0.2-1.2,0.2-1.5c0,0,0-0.1,0-0.3L56.1,17.1z M60.5,16.9c0,0.8,0.3,2.4,0.7,3.8
		c0.8,2.8,2,5,3.6,6.6c-0.4,0.3-0.6,0.4-1,0.9C62.8,27,62,25.7,61.2,24c-0.8-1.7-1.3-3.7-1.7-5.8c-0.1-0.6-0.1-0.8-0.2-1L60.5,16.9z
		 M62.4,16.7c0.6,0.9,0.9,1.5,1.3,2.4l-0.9,0.4c-0.4-1-0.8-1.7-1.3-2.5L62.4,16.7z M64,16.1c0.6,0.9,0.9,1.5,1.3,2.4l-0.9,0.3
		c-0.4-1-0.8-1.7-1.3-2.5L64,16.1z"/>
	<path class="st1" d="M65.6,21.7c0.5,0.1,0.9,0.1,2,0.1h9.3c1.2,0,1.4,0,1.9-0.1V23c-0.5,0-0.9-0.1-1.9-0.1h-9.3c-1.2,0-1.5,0-2,0.1
		V21.7z"/>
	<path class="st1" d="M94.8,22.8c-0.6-0.1-1.1-0.1-2.1-0.1h-9.8c-0.9,0-1.6,0-2.1,0.1v-1.3c0.5,0.1,1.2,0.1,2.1,0.1h9.8
		c0.9,0,1.6,0,2.1-0.1V22.8z"/>
	<path class="st1" d="M97.1,17.3c0-0.6,0-1-0.1-1.4c0.4,0,0.9,0.1,1.5,0.1h9.9c0.6,0,1.1,0,1.5-0.1c0,0.4-0.1,0.8-0.1,1.4v10.8
		c0,1-0.3,1.1-1.9,1.1c-0.6,0-1.3,0-2.1-0.1c0-0.4-0.1-0.7-0.2-1c1,0.1,1.7,0.2,2.5,0.2c0.6,0,0.8-0.1,0.8-0.4V16.9H98.2v11
		c0,0.8,0,1.2,0.1,1.7H97c0.1-0.5,0.1-1,0.1-1.7V17.3z M99.3,18.5c0.3,0.1,0.6,0.1,1.3,0.1h5.9c0.7,0,0.9,0,1.3-0.1v1.1
		c-0.4-0.1-0.7-0.1-1.3-0.1h-6c-0.6,0-0.9,0-1.3,0.1V18.5z M106.6,25.2c0,0.4,0,0.7,0,0.9c-0.3,0-0.6,0-1,0h-4.2v1.4h-1
		c0-0.4,0.1-0.8,0.1-1.5v-3.8c0-0.3,0-0.7,0-1c0.3,0,0.7,0,1.1,0h4c0.5,0,0.8,0,1.2,0c0,0.3,0,0.4,0,1V25.2z M101.4,25.2h4.2v-3.1
		h-4.2V25.2z"/>
	<path class="st1" d="M113,25.2c1.3,1,2.1,1.9,3.2,3.4l-0.9,0.8c-1-1.5-1.9-2.5-3.1-3.5L113,25.2z"/>
	<path class="st1" d="M136.8,19c-0.2,0-0.3,0-0.5,0.1c-1.3,0.3-2.1,0.4-2.8,0.5v2.7c1.4-0.4,2.4-0.6,3.4-0.6c1.1,0,2.1,0.2,2.8,0.7
		c1.1,0.6,1.6,1.6,1.6,2.8c0,1.9-1.4,3.3-3.3,3.3c-1.3,0-2.2-0.7-2.5-1.8c-0.1-0.5-0.2-1-0.2-1.8c0.5-0.1,0.7-0.2,1.1-0.4
		c0,0.3,0,0.4,0,0.6c0,1.7,0.5,2.3,1.6,2.3c1.2,0,2.1-0.9,2.1-2.2c0-1.6-1.3-2.5-3.4-2.5c-1,0-2,0.2-3.4,0.6v4
		c0,0.9-0.4,1.3-1.2,1.3c-0.9,0-1.9-0.4-2.6-1c-0.5-0.4-0.7-0.9-0.7-1.5c0-0.7,0.4-1.4,1.3-2.1c0.6-0.5,1.2-0.9,2.3-1.3v-3
		c-0.1,0-0.1,0-0.6,0c-0.3,0-0.6,0-1,0c-0.2,0-0.7,0-0.8,0c-0.2,0-0.3,0-0.4,0c-0.1,0-0.2,0-0.3,0v-1c0.5,0.1,0.9,0.1,1.6,0.1
		c0.4,0,1.1,0,1.5,0v-1.6c0-0.6,0-1-0.1-1.5h1.2c-0.1,0.4-0.1,0.7-0.1,1.5v1.5c1.4-0.2,2.4-0.4,3.3-0.7L136.8,19z M132.5,23.7
		c-1.6,0.8-2.5,1.6-2.5,2.4c0,0.3,0.2,0.7,0.7,1c0.4,0.3,1,0.5,1.4,0.5c0.3,0,0.4-0.1,0.4-0.8V23.7z M141.3,20.7
		c-0.8-1.2-2-2.3-3.2-3.1l0.8-0.6c1.5,1,2.3,1.8,3.2,3L141.3,20.7z"/>
	<path class="st1" d="M145.3,24c0-0.7,0-1.1,0-1.8c-0.5,0.7-0.8,1-1.6,1.6c-0.3-0.5-0.3-0.5-0.6-0.9c1.6-1.2,3.2-3,3.6-4.3l0.9,0.6
		c-0.1,0.2-0.2,0.3-0.4,0.7c-0.3,0.5-0.3,0.5-1,1.4v6.5c0,0.8,0,1.4,0.1,1.9h-1.2c0-0.4,0.1-1.1,0.1-1.9V24z M147.7,15.7
		c-0.1,0.1-0.1,0.1-0.6,0.7c-0.9,1.1-1.9,2-3.1,2.8c-0.2-0.3-0.4-0.6-0.6-0.8c1.6-1,2.9-2.2,3.5-3.3L147.7,15.7z M149.9,17.9
		c-0.6,0-1,0-1.5,0.1v-1c0.4,0.1,0.8,0.1,1.5,0.1h2.1v-0.6c0-0.5,0-0.9-0.1-1.3h1.2c-0.1,0.4-0.1,0.8-0.1,1.3v0.6h2.4
		c0.7,0,1.1,0,1.5-0.1v1c-0.5-0.1-0.9-0.1-1.5-0.1H153V20h3c0.7,0,1.2,0,1.6-0.1V21c-0.5-0.1-0.9-0.1-1.6-0.1h-0.7v1.9h0.7
		c0.7,0,1.2,0,1.6-0.1v1.1c-0.4-0.1-0.9-0.1-1.6-0.1h-0.7v4.5c0,0.6-0.2,0.9-0.5,1c-0.3,0.1-0.8,0.2-1.4,0.2c-0.4,0-0.9,0-1.5-0.1
		c0-0.4-0.1-0.7-0.3-1.1c0.6,0.1,1.4,0.2,1.7,0.2c0.9,0,1,0,1-0.4v-4.4h-5.1c-0.6,0-1.1,0-1.6,0.1v-1.1c0.4,0.1,0.9,0.1,1.5,0.1h5.1
		v-1.9h-5c-0.6,0-1.1,0-1.5,0.1v-1.1c0.4,0.1,0.9,0.1,1.5,0.1h2.7v-2.1H149.9z M151.3,27.6c-0.8-1.2-1.4-1.8-2.4-2.7l0.8-0.6
		c1,0.9,1.6,1.5,2.5,2.7L151.3,27.6z"/>
	<path class="st1" d="M159.6,18.1c0.8,0.2,1.8,0.3,3.5,0.3c0.3-1.2,0.5-2.1,0.5-2.8l1.3,0.1c-0.1,0.2-0.1,0.2-0.3,1
		c-0.2,0.9-0.3,1.1-0.4,1.7c3.1-0.1,5.3-0.3,6.3-0.7l0.1,1.1c-0.3,0-0.4,0-0.7,0.1c-2.2,0.3-3.5,0.4-5.9,0.5
		c-0.4,1.5-1.2,3.4-1.6,4.1l0,0c1.1-0.8,2.9-1.3,4.6-1.3c2.5,0,4.1,1.1,4.1,2.9c0,2.2-2.1,3.6-5.4,3.6c-1.4,0-2.7-0.2-3.9-0.6
		c0-0.1,0-0.2,0-0.3c0-0.1,0-0.1,0-0.1c0-0.1,0-0.4-0.1-0.9c1.2,0.5,2.5,0.8,4,0.8c2.5,0,4.2-1,4.2-2.5c0-1.2-1.2-1.9-3.1-1.9
		c-1.2,0-2.6,0.3-3.7,0.9c-0.7,0.3-1,0.6-1.3,1l-1.2-0.5c0.7-1.1,1.6-3.3,2.1-5.2c-1,0-1.7,0-2.7-0.1c-0.2,0-0.4,0-0.4,0
		c0,0-0.1,0-0.1,0L159.6,18.1z"/>
	<path class="st1" d="M176.5,16c-0.1,0.5-0.2,1.4-0.2,3.4c-0.1,1.9-0.1,4.1-0.1,4.8c0,0.2,0,0.6,0,1c0.1,1,0.3,1.5,0.8,1.9
		c0.4,0.4,1.2,0.6,2,0.6c1.9,0,3.4-1,4.3-2.8c0.4-0.8,0.6-1.4,0.8-2.5c0.4,0.4,0.6,0.5,1.2,0.8c-0.6,1.9-1.1,2.8-1.8,3.6
		c-1.1,1.3-2.6,2-4.5,2c-1.4,0-2.4-0.4-3-1.1c-0.7-0.7-0.9-1.6-0.9-3.3c0-1.1,0-1.5,0.1-6.5c0-0.5,0-0.8,0-1c0-0.3,0-0.5-0.1-0.8
		H176.5z"/>
	<path class="st1" d="M186,17.9c0.3,0,0.5,0,0.6,0c0.2,0,0.4,0,0.9,0c1.9-0.1,7-0.4,9.1-0.5c0.9,0,1.6-0.1,1.9-0.2l0.1,1.2
		c-0.6,0-1.2,0.1-1.8,0.2c-1.1,0.3-2.2,0.9-3.1,1.6c-1.3,1.1-2,2.4-2,3.7c0,1.3,0.8,2.4,2.2,2.9c0.8,0.3,1.8,0.5,2.4,0.5
		c0,0,0.1,0,0.2,0l-0.2,1.3c-0.2,0-0.2,0-0.5-0.1c-1.6-0.3-2.5-0.6-3.5-1.2c-1.1-0.8-1.8-1.9-1.8-3.2c0-1.8,1.1-3.6,3-4.9
		c0.5-0.3,0.9-0.6,1.5-0.8c-0.9,0.2-1.7,0.2-3.5,0.3c-3.3,0.2-4.7,0.3-5.5,0.5L186,17.9z"/>
	<path class="st1" d="M212.5,28.3c-0.7-0.8-1.9-1.6-3.3-2.3c-0.3-0.1-0.6-0.3-1.1-0.5c0,0.4,0,0.4,0,0.6c0,0.8-0.1,1.4-0.4,1.7
		c-0.5,0.7-1.4,1-2.7,1c-1.1,0-1.9-0.2-2.5-0.6c-0.5-0.4-0.9-1-0.9-1.7c0-1,0.8-1.9,2.2-2.2c0.5-0.1,1-0.2,1.7-0.2
		c0.5,0,0.8,0,1.4,0.1c0,0,0,0,0-0.2c0,0,0-0.1,0-0.2c0-0.1,0-0.5,0-0.9c0-0.2,0-0.5,0-0.9c-0.6,0-1.4,0-1.9,0c-1,0-1.7,0-2.7-0.1
		c-0.2,0-0.3,0-0.4,0c0,0-0.1,0-0.1,0l0-1c0.7,0.2,2,0.3,3.7,0.3c0.4,0,1,0,1.4,0l0-2.2c-0.5,0-0.7,0-1.1,0c-1.2,0-2.5,0-3.9-0.2
		c-0.1,0-0.2,0-0.3,0c0,0-0.1,0-0.2,0l0-1.1c0.7,0.2,2.3,0.3,4.1,0.3c0.3,0,0.9,0,1.4,0c0-1.9,0-1.9-0.1-2.3h1.2
		c-0.1,0.3-0.1,1.1-0.1,2.2c2.2-0.1,3.8-0.4,4.7-0.7l0.1,1.1c-0.3,0-0.3,0-1.1,0.1c-1.5,0.2-1.9,0.3-3.7,0.4c0,1.3,0,1.3,0,2.1
		c2.2-0.2,3.5-0.3,4.4-0.7l0.1,1.1c-0.2,0-0.4,0-0.9,0.1c-1.1,0.2-2.4,0.3-3.5,0.4c0,0.9,0,0.9,0.1,2.4c1.4,0.4,2.8,1.1,4.5,2.3
		c0.3,0.2,0.3,0.2,0.5,0.4L212.5,28.3z M207.1,25.2c-0.6-0.1-0.9-0.2-1.6-0.2c-1.6,0-2.6,0.6-2.6,1.4c0,0.8,0.8,1.3,2.2,1.3
		c0.8,0,1.5-0.2,1.8-0.5c0.2-0.2,0.3-0.7,0.3-1.4L207.1,25.2z"/>
	<path class="st1" d="M222.9,16.6c0-0.4,0-0.6-0.1-0.9h1.2c-0.1,0.5-0.1,0.7-0.1,2v0.2c3,0,4.2,0,4.8-0.1v1.1
		c-0.6-0.1-1.2-0.1-3.1-0.1c-0.2,0-0.4,0-1.7,0v3.1c0.3,0.7,0.4,1.2,0.4,1.9c0,1.7-0.8,3.1-2.1,4.1c-0.7,0.5-1.4,0.8-2.5,1.3
		c-0.3-0.5-0.4-0.7-0.7-1c1.2-0.4,1.9-0.7,2.6-1.2c1.2-0.9,1.7-1.9,1.8-3.4c-0.1,0.4-0.2,0.6-0.4,0.8c-0.5,0.6-1.2,0.9-2,0.9
		c-1.5,0-2.6-1-2.6-2.5c0-1.5,1.2-2.6,2.8-2.6c0.8,0,1.4,0.3,1.9,0.7c0-0.2,0-0.3,0-0.9c0-0.1,0-0.2,0-0.4c0-0.2,0-0.2,0-0.8
		c-3.2,0.1-6.4,0.2-7.5,0.4l0-1.2c0.3,0,0.4,0,0.6,0c0.5,0,0.5,0,3-0.1c1.5-0.1,2.8-0.1,3.9-0.1L222.9,16.6z M222.2,21.4
		c-0.3-0.2-0.6-0.3-1.1-0.3c-1,0-1.8,0.7-1.8,1.7c0,0.9,0.7,1.6,1.6,1.6c1.1,0,1.9-0.8,1.9-1.9C222.9,21.9,222.7,21.6,222.2,21.4z"
		/>
	<path class="st1" d="M233.9,25.4c0-0.5,0-0.6,0-1.1v-0.6l-0.1-5.7c0-0.7,0-1.1-0.1-1.7h1.6c0,0.6-0.1,1.1-0.1,1.7l-0.1,5.7
		c0,0.7,0,0.7,0,0.7c0,0.3,0,0.6,0,1H233.9z M233.8,28.4v-1.5h1.5v1.5H233.8z"/>
</g>
</svg>
