<?xml version="1.0" encoding="utf-8"?>
<!-- Generator: Adobe Illustrator 19.0.0, SVG Export Plug-In . SVG Version: 6.00 Build 0)  -->
<svg version="1.1" id="レイヤー_1" xmlns="http://www.w3.org/2000/svg" xmlns:xlink="http://www.w3.org/1999/xlink" x="0px"
	 y="0px" viewBox="0 0 50 27" style="enable-background:new 0 0 50 27;" xml:space="preserve">
<style type="text/css">
	.st0{fill:#3DB6D1;}
	.st1{fill:none;}
</style>
<g id="XMLID_1_">
	<g>
		<path class="st0" d="M18.4,20.1c4.2-0.2,6.1-2.1,6.1-4.4c0-2-1.4-3.7-4.5-4.2c0-0.7,0-1.5,0-2.1H0c0,4.4,0,10.8,4,13.8
			c-2.4,0.2-4,0.5-4,0.8c0,0.6,4.5,1,10,1c5.5,0,10-0.5,10-1c0-0.3-1.6-0.6-4-0.8C17,22.4,17.8,21.4,18.4,20.1L18.4,20.1z
			 M19.8,13.5c1.8,0.4,2.1,1.2,2,2.3c0,1.2-0.4,2.1-2.8,2.4C19.5,16.7,19.7,15.1,19.8,13.5L19.8,13.5z M2.4,10.9h3.1
			c-1.4,4.1,1,10.5,1,10.5C1.4,17.6,2.4,10.9,2.4,10.9L2.4,10.9z M2.4,10.9"/>
		<path class="st0" d="M11.6,6.8C12,3.2,19.9,5,18.3,0.4C18-0.3,16.9,0,17.1,0.7c0.7,2-2,2.3-3.4,2.7C12,4,10.6,4.9,10.4,6.8
			C10.3,7.5,11.5,7.5,11.6,6.8L11.6,6.8z M11.6,6.8"/>
		<rect id="XMLID_15_" class="st1" width="24.5" height="25.4"/>
		<path class="st0" d="M17.2,4.3c-1.5,0.4-3,1-3.4,2.6c-0.2,0.7,0.9,1,1.1,0.3c0.5-1.8,2.9-1.8,4.4-2.2c1.6-0.5,2.5-1.6,2.3-3.3
			c-0.1-0.7-1.3-0.7-1.2,0C20.7,3.8,18.8,3.9,17.2,4.3L17.2,4.3z M17.2,4.3"/>
	</g>
	<g>
		<path class="st0" d="M39.4,9.9c-5.9,0.1-10.6,2.8-10.6,6.2V17c0,0,0.1,3,0.1,4.3c0,3.3,5,5.6,10.5,5.7c5.5-0.1,10.5-2.4,10.5-5.7
			C49.9,20,50,17,50,17v-0.9C50,12.7,45.3,9.9,39.4,9.9L39.4,9.9z M45.4,15.7l1.1-0.8c0.2-0.1,0.5-0.1,0.6,0.1
			c0.1,0.2,0.1,0.5-0.1,0.6L46,16.4c-0.1,0.1-0.2,0.1-0.3,0.1c-0.1,0-0.3-0.1-0.4-0.2C45.2,16.1,45.2,15.9,45.4,15.7L45.4,15.7z
			 M42,12.1l1.1-0.8c0.2-0.1,0.5-0.1,0.6,0.1c0.1,0.2,0.1,0.5-0.1,0.6l-1.1,0.8c-0.1,0.1-0.2,0.1-0.3,0.1c-0.1,0-0.3-0.1-0.4-0.2
			C41.7,12.6,41.8,12.3,42,12.1L42,12.1z M39.4,13.3c2.1,0,3.8,0.8,3.8,1.7c0,0.9-1.7,1.7-3.8,1.7c-2.1,0-3.8-0.8-3.8-1.7
			C35.6,14.1,37.3,13.4,39.4,13.3L39.4,13.3z M42.2,18.6l-1.1,0.8c-0.1,0.1-0.2,0.1-0.3,0.1c-0.1,0-0.3-0.1-0.4-0.2
			c-0.1-0.2-0.1-0.5,0.1-0.6l1.1-0.8c0.2-0.1,0.5-0.1,0.6,0.1C42.4,18.2,42.4,18.4,42.2,18.6L42.2,18.6z M35.2,12.1l1.1-0.8
			c0.2-0.1,0.5-0.1,0.6,0.1c0.1,0.2,0.1,0.5-0.1,0.6l-1.1,0.8c-0.1,0.1-0.2,0.1-0.3,0.1c-0.1,0-0.3-0.1-0.4-0.2
			C34.9,12.6,35,12.3,35.2,12.1L35.2,12.1z M34.1,17.6l1.1-0.8c0.2-0.1,0.5-0.1,0.6,0.1c0.1,0.2,0.1,0.5-0.1,0.6l-1.1,0.8
			c-0.1,0.1-0.2,0.1-0.3,0.1c-0.1,0-0.3-0.1-0.4-0.2C33.8,18,33.9,17.7,34.1,17.6L34.1,17.6z M31.8,16.1l1.1-0.8
			c0.2-0.1,0.5-0.1,0.6,0.1c0.1,0.2,0.1,0.5-0.1,0.6l-1.1,0.8c-0.1,0.1-0.2,0.1-0.3,0.1c-0.1,0-0.3-0.1-0.4-0.2
			C31.6,16.5,31.6,16.3,31.8,16.1L31.8,16.1z M48.4,21.4c0,2.5-4.4,4.1-9,4.3c-4.6-0.1-9-1.8-9-4.3l0-2.2l0.3,0.3
			c0.5,0.4,1.1,0.8,1.8,1.2v0.7c0,0.5,0.4,0.9,0.9,0.9c0.3,0,0.5-0.1,0.7-0.3v1.4c0,0.5,0.4,0.9,0.9,0.9c0.5,0,0.9-0.4,0.9-0.9v-1.6
			c0.1,0,0.1,0,0.2,0v0.4c0,0.5,0.4,0.9,0.9,0.9c0.4,0,0.7-0.2,0.8-0.6v1.8c0,0.5,0.4,0.9,0.9,0.9c0.5,0,0.9-0.4,0.9-0.9v-2.1
			c0.5,0,0.9,0,1.4-0.1v0.1c0,0.5,0.4,0.9,0.9,0.9c0.5,0,0.9-0.4,0.9-0.9v-0.4c0.6-0.1,1.2-0.3,1.8-0.5c0,0.5,0.4,0.9,0.9,0.9
			c0.5,0,0.9-0.4,0.9-0.9v-0.7c0.7-0.4,1.3-0.7,1.8-1.2l0.3-0.3L48.4,21.4z M48.4,21.4"/>
		<rect id="XMLID_2_" x="28.8" y="9.9" class="st1" width="21.2" height="17.1"/>
	</g>
</g>
</svg>
