<?xml version="1.0" encoding="utf-8"?>
<!-- Generator: Adobe Illustrator 19.0.0, SVG Export Plug-In . SVG Version: 6.00 Build 0)  -->
<svg version="1.1" id="レイヤー_1" xmlns="http://www.w3.org/2000/svg" xmlns:xlink="http://www.w3.org/1999/xlink" x="0px"
	 y="0px" viewBox="0 0 56 27" style="enable-background:new 0 0 56 27;" xml:space="preserve">
<style type="text/css">
	.st0{fill:#3DB6D1;}
</style>
<g>
	<g>
		<path class="st0" d="M7.6,19.1c0,0.3-0.2,0.5-0.5,0.5H7c-0.3,0-0.5-0.2-0.5-0.5c0-0.3,0.2-0.5,0.5-0.5h0.1
			C7.4,18.7,7.6,18.9,7.6,19.1L7.6,19.1z M4.7,14.8H4.5c-0.3,0-0.5,0.2-0.5,0.5c0,0.3,0.2,0.5,0.5,0.5h0.1c0.3,0,0.5-0.2,0.5-0.5
			C5.2,15,4.9,14.8,4.7,14.8L4.7,14.8z M9.3,11H9.2c-0.3,0-0.5,0.2-0.5,0.5c0,0.3,0.2,0.5,0.5,0.5h0.1c0.3,0,0.5-0.2,0.5-0.5
			C9.8,11.2,9.6,11,9.3,11L9.3,11z M12.3,4.8h-0.1c-0.3,0-0.5,0.2-0.5,0.5c0,0.3,0.2,0.5,0.5,0.5h0.1c0.3,0,0.5-0.2,0.5-0.5
			C12.8,5,12.6,4.8,12.3,4.8L12.3,4.8z M18.3,10.1c0-0.8,0.7-1.5,1.5-1.5c0.9,0,1.5,0.7,1.5,1.5c0,0.8-0.7,1.5-1.5,1.5
			C19,11.6,18.3,10.9,18.3,10.1L18.3,10.1z M19.3,10.1c0,0.3,0.3,0.6,0.6,0.6c0.3,0,0.6-0.3,0.6-0.6c0-0.3-0.3-0.6-0.6-0.6
			C19.5,9.5,19.3,9.7,19.3,10.1L19.3,10.1z M8.9,8.7c0,0.8-0.7,1.5-1.5,1.5c-0.9,0-1.5-0.7-1.5-1.5c0-0.8,0.7-1.5,1.5-1.5
			C8.2,7.2,8.9,7.9,8.9,8.7L8.9,8.7z M7.9,8.7c0-0.3-0.3-0.6-0.6-0.6C7,8.2,6.7,8.4,6.7,8.7c0,0.3,0.3,0.6,0.6,0.6
			C7.6,9.3,7.9,9.1,7.9,8.7L7.9,8.7z M5.2,11H5.1c-0.3,0-0.5,0.2-0.5,0.5c0,0.3,0.2,0.5,0.5,0.5h0.1c0.3,0,0.5-0.2,0.5-0.5
			C5.7,11.2,5.5,11,5.2,11L5.2,11z M14.7,5.7h0.1c0.3,0,0.5-0.2,0.5-0.5c0-0.3-0.2-0.5-0.5-0.5h-0.1c-0.3,0-0.5,0.2-0.5,0.5
			C14.2,5.5,14.4,5.7,14.7,5.7L14.7,5.7z M25,18.7c0.1,0,0.1,0.1,0.2,0.1c0.2,0,0.3-0.1,0.4-0.3l0.1-0.1c0.1-0.2,0-0.5-0.2-0.6
			c-0.2-0.1-0.5,0-0.7,0.2L24.8,18C24.7,18.3,24.8,18.5,25,18.7L25,18.7z M20.4,24.1c0.1,0.2,0.1,0.5-0.1,0.6c0,0,0,0,0,0
			c-2,1.1-4.4,1.8-6.7,1.8c-2.4,0-4.7-0.6-6.7-1.8c0,0,0,0,0,0c0,0,0,0,0,0C2.7,22.4,0,18.1,0,13.2C0,8.4,2.7,4.1,6.7,1.8
			c0,0,0,0,0,0c0,0,0,0,0,0c2-1.1,4.3-1.8,6.7-1.8c2.4,0,4.7,0.6,6.7,1.8c0,0,0,0,0,0c0,0,0,0,0,0c4,2.3,6.7,6.6,6.7,11.4l0,0
			c0,0.3-0.2,0.5-0.5,0.5h-11c0,0,0,0,0,0h-1.2l0.6,1c0,0,0,0,0,0L20.4,24.1z M19.3,24.1l-6.2-10.7c-0.1-0.1-0.1-0.3,0-0.5
			c0.1-0.1,0.2-0.2,0.4-0.2H24c-0.1-2.8-1.4-5.5-3.6-7.4c-0.2-0.2-0.2-0.5,0-0.7c0.2-0.2,0.5-0.2,0.7,0c2.4,2,3.9,5,4,8.1h1
			c-0.2-4.2-2.5-7.8-5.8-9.9l-5.2,8.9c-0.1,0.2-0.4,0.3-0.7,0.2c-0.2-0.1-0.3-0.4-0.2-0.6L18.4,4c-1.5-0.8-3.2-1.2-4.9-1.2
			c-1.3,0-2.5,0.2-3.7,0.6c-0.3,0.1-0.5,0-0.6-0.3C9.1,3,9.3,2.7,9.5,2.6c1.3-0.5,2.6-0.7,4-0.7c1.9,0,3.7,0.4,5.3,1.3l0.5-0.9
			c-1.7-0.9-3.7-1.4-5.8-1.4c-2.1,0-4.1,0.5-5.8,1.4l5.2,8.9c0.1,0.2,0.1,0.5-0.2,0.6c-0.2,0.1-0.5,0.1-0.7-0.2L7.8,4.5
			c-2.5,1.6-4.3,4.2-4.7,7.1C3,11.9,2.8,12,2.5,12c-0.3,0-0.4-0.3-0.4-0.5c0.5-3.2,2.4-6,5.2-7.8L6.8,2.8C3.4,4.9,1.1,8.6,1,12.8
			h10.5c0.3,0,0.5,0.2,0.5,0.5c0,0.3-0.2,0.5-0.5,0.5H3c0.1,2.9,1.5,5.6,3.7,7.4c0.2,0.2,0.2,0.5,0.1,0.7C6.6,22,6.3,22,6.1,21.9
			c-2.5-2.1-3.9-5-4.1-8.2H1c0.2,4.2,2.5,7.8,5.8,9.9l5.2-8.9c0.1-0.2,0.4-0.3,0.7-0.2c0.2,0.1,0.3,0.4,0.2,0.6l-4.3,7.2
			c1.5,0.8,3.2,1.2,4.9,1.2c1.3,0,2.5-0.2,3.7-0.6c0.3-0.1,0.5,0,0.6,0.3c0.1,0.2,0,0.5-0.3,0.6c-1.3,0.5-2.6,0.7-4,0.7
			c-1.9,0-3.7-0.4-5.3-1.3l-0.5,0.9c1.7,0.9,3.7,1.4,5.8,1.4C15.5,25.5,17.5,25.1,19.3,24.1L19.3,24.1z M23.9,20.9
			c0.1,0,0.1,0.1,0.2,0.1c0.2,0,0.3-0.1,0.4-0.3l0.1-0.1c0.1-0.2,0-0.5-0.2-0.6c-0.2-0.1-0.5,0-0.6,0.2l-0.1,0.1
			C23.5,20.4,23.6,20.7,23.9,20.9L23.9,20.9z M22.1,18.6c0.1,0,0.1,0.1,0.2,0.1c0.2,0,0.3-0.1,0.4-0.3l0.1-0.1
			c0.1-0.2,0-0.5-0.2-0.6c-0.2-0.1-0.5,0-0.7,0.2l-0.1,0.1C21.8,18.2,21.8,18.5,22.1,18.6L22.1,18.6z M31,15.5
			c0,2.4-0.6,4.7-1.9,6.7c-1.2,2-2.9,3.6-4.9,4.8c-0.1,0-0.2,0.1-0.4,0c-0.1,0-0.2-0.1-0.3-0.2l-6.5-11.1c-0.1-0.1-0.1-0.3,0-0.5
			c0.1-0.1,0.2-0.2,0.4-0.2h13C30.8,15,31,15.2,31,15.5L31,15.5z M30,15.9H18.3l4.8,8.3c2.5-1.6,4.2-4,4.7-6.9
			c0-0.3,0.3-0.4,0.6-0.4c0.3,0,0.4,0.3,0.4,0.6c-0.6,3.1-2.5,5.8-5.2,7.5l0.5,0.9C27.6,23.7,29.8,20,30,15.9L30,15.9z M15.2,21.3
			h0.1c0.3,0,0.5-0.2,0.5-0.5c0-0.3-0.2-0.5-0.5-0.5h-0.1c-0.3,0-0.5,0.2-0.5,0.5C14.8,21.1,15,21.3,15.2,21.3L15.2,21.3z M13.8,21
			c0,0.8-0.7,1.5-1.5,1.5c-0.9,0-1.5-0.7-1.5-1.5c0-0.8,0.7-1.5,1.5-1.5C13.1,19.5,13.8,20.2,13.8,21L13.8,21z M12.8,21
			c0-0.3-0.3-0.6-0.6-0.6c-0.3,0-0.6,0.3-0.6,0.6c0,0.3,0.3,0.6,0.6,0.6C12.5,21.6,12.8,21.3,12.8,21L12.8,21z M12.9,17.2
			c0,0.3,0.2,0.5,0.5,0.5h0.1c0.3,0,0.5-0.2,0.5-0.5c0-0.3-0.2-0.5-0.5-0.5h-0.1C13.1,16.7,12.9,17,12.9,17.2L12.9,17.2z M13.4,8.3
			h0.1c0.3,0,0.5-0.2,0.5-0.5c0-0.3-0.2-0.5-0.5-0.5h-0.1c-0.3,0-0.5,0.2-0.5,0.5C13,8.1,13.2,8.3,13.4,8.3L13.4,8.3z M9.6,16
			c0,0.8-0.7,1.5-1.5,1.5c-0.9,0-1.5-0.7-1.5-1.5c0-0.8,0.7-1.5,1.5-1.5C8.9,14.5,9.6,15.2,9.6,16L9.6,16z M8.6,16
			c0-0.3-0.3-0.6-0.6-0.6c-0.3,0-0.6,0.3-0.6,0.6c0,0.3,0.3,0.6,0.6,0.6C8.4,16.6,8.6,16.4,8.6,16L8.6,16z M8.6,16"/>
	</g>
	<g>
		<path class="st0" d="M52,11.3h-1.2c-0.2,0-0.5,0-0.7,0.1V8.6c0-0.1,0-0.3,0-0.4c0.8-0.6,1.3-1.5,1.3-2.6c0-2-1.8-3.5-3.9-3.1
			c-0.7-0.7-1.6-1.1-2.6-1C44.2,0.6,43.1,0,42,0c-0.9,0-1.8,0.4-2.4,1c-0.2-0.1-0.3-0.1-0.5-0.2l-0.2,0c-0.2,0-0.3,0-0.5,0
			c-0.3,0-0.5,0-0.7,0h-0.1v0c-1.4,0.1-2.7,1-3.1,2.1c-1.4,0.3-2.5,1.5-2.5,3c0,1,0.5,1.9,1.3,2.5c0,0.1,0,0.2,0,0.3v16.2
			c0,1.2,1,2.2,2.2,2.2h12.4c1.2,0,2.2-1,2.2-2.2v-3.3c0.2,0,0.5,0.1,0.7,0.1H52c2.2,0,4-1.8,4-4v-2.4C56,13,54.2,11.3,52,11.3
			L52,11.3z M48.5,24.8c0,0.4-0.3,0.7-0.7,0.7H35.4c-0.4,0-0.7-0.3-0.7-0.7V8.6c0-0.4,0.3-0.7,0.7-0.7h12.4c0.4,0,0.7,0.3,0.7,0.7
			V24.8z M49.2,7L49.2,7c-0.4-0.3-0.9-0.5-1.4-0.5H35.4c-0.6,0-1.1,0.2-1.5,0.6c-0.3-0.3-0.6-0.7-0.6-1.2c0-0.9,0.7-1.6,1.6-1.6h0.6
			l0.1-0.6c0.1-0.7,0.9-1.4,2-1.5h0.8c0.3,0,0.6,0.1,0.9,0.3L40,2.9l0.4-0.6c0.4-0.5,1-0.8,1.6-0.8c0.7,0,1.4,0.4,1.7,1.1L44,3
			l0.6-0.1c0.8-0.1,1.6,0.2,2,0.8l0.3,0.5L47.4,4c0.2-0.1,0.4-0.1,0.6-0.1c1,0,1.8,0.8,1.8,1.8C49.8,6.2,49.6,6.6,49.2,7L49.2,7z
			 M53.8,17.6c0,1-0.8,1.8-1.8,1.8h-1.2c-0.3,0-0.5-0.1-0.7-0.2v-5.7c0.2-0.1,0.5-0.1,0.7-0.1H52c1,0,1.8,0.8,1.8,1.8V17.6z
			 M53.8,17.6"/>
		<rect id="XMLID_1_" x="35.4" y="10.5" class="st0" width="12.4" height="14.3"/>
	</g>
</g>
</svg>
