<svg id="レイヤー_1" xmlns="http://www.w3.org/2000/svg" viewBox="0 0 259 53"><style>.st0{fill:#3db6d1}.st1{fill:#fff}</style><path id="XMLID_40_" class="st0" d="M132.5 43.7l-3 9.3-3-9.3z"/><path id="XMLID_39_" class="st0" d="M109 52.6l-.7-9.4 5.7 1.3z"/><path id="XMLID_38_" class="st0" d="M88.6 51.6l1.5-9.5 5.3 2.6z"/><path id="XMLID_37_" class="st0" d="M68.2 49.5l3.9-9.7 4.9 4.1z"/><path id="XMLID_36_" class="st0" d="M56.6 42.7l-10.7 4.5 6.1-9.9z"/><g><path id="XMLID_35_" class="st0" d="M150 52.6l.7-9.4-5.7 1.3z"/><path id="XMLID_34_" class="st0" d="M170.4 51.6l-1.5-9.5-5.3 2.6z"/><path id="XMLID_33_" class="st0" d="M190.8 49.5l-3.9-9.7-4.9 4.1z"/><path id="XMLID_32_" class="st0" d="M202.4 42.7l10.7 4.5-6.1-9.9z"/></g><path id="XMLID_31_" class="st0" d="M250.3 11.3C233.4 2.3 194 .1 149.5 0c-3.6-.1-11.7-.1-20 0h-20C65 .1 25.6 2.3 8.7 11.3 3.1 14.2 0 17.9 0 22.5c0 4.7 3.1 8.4 8.7 11.3C25.6 42.7 65 45 109.5 45c3.6.1 11.7.1 20 0h20c44.5 0 83.9-2.3 100.8-11.2 5.6-2.9 8.7-6.6 8.7-11.3 0-4.6-3.1-8.3-8.7-11.2z"/><g><path class="st1" d="M34.9 16.6c-.2.3-.3.4-.5 1-1 2.4-1.5 3.4-2.3 4.6 1.4 1.1 2.4 2.1 3.7 3.4l-.9 1c-.8-1.1-1.9-2.1-3.5-3.4-1.7 2.3-3.6 4-6.4 5.5-.3-.5-.4-.6-.8-1 2.6-1.2 4.6-3 6.4-5.3-1.5-1.2-3-2.1-4.3-2.9l.8-.8c1.6.9 2.4 1.5 4.2 2.8.8-1.2 1.3-2.3 1.9-3.7.4-1 .5-1.2.6-1.7l1.1.5zM38.4 27c1.2 0 3.2-.5 4.6-1.2 3.1-1.4 5.2-3.7 6.5-7.1.4.5.5.6 1 .9-1.3 2.8-2.8 4.6-4.9 6.1-1.6 1.1-3.3 1.8-6 2.4-.4.1-.6.1-1 .3l-.2-1.4zm1-9.8c1.7 1.1 2.7 1.9 3.8 3l-.8 1c-1.2-1.2-2.4-2.3-3.8-3.1l.8-.9zM56.1 17.1c-.1.2-.1.3-.2 1.1-.7 4.5-1.9 7.5-4.2 9.9-.4-.4-.6-.6-1-.8 1-.9 1.6-1.8 2.3-3.1.8-1.6 1.3-3.4 1.6-5.5.1-.6.2-1.2.2-1.5v-.3l1.3.2zm4.4-.2c0 .8.3 2.4.7 3.8.8 2.8 2 5 3.6 6.6-.4.3-.6.4-1 .9-1-1.2-1.8-2.5-2.6-4.2-.8-1.7-1.3-3.7-1.7-5.8-.1-.6-.1-.8-.2-1l1.2-.3zm1.9-.2c.6.9.9 1.5 1.3 2.4l-.9.4c-.4-1-.8-1.7-1.3-2.5l.9-.3zm1.6-.6c.6.9.9 1.5 1.3 2.4l-.9.3c-.4-1-.8-1.7-1.3-2.5l.9-.2zM65.6 21.7c.5.1.9.1 2 .1h9.3c1.2 0 1.4 0 1.9-.1V23c-.5 0-.9-.1-1.9-.1h-9.3c-1.2 0-1.5 0-2 .1v-1.3zM94.8 22.8c-.6-.1-1.1-.1-2.1-.1h-9.8c-.9 0-1.6 0-2.1.1v-1.3c.5.1 1.2.1 2.1.1h9.8c.9 0 1.6 0 2.1-.1v1.3zM97.1 17.3c0-.6 0-1-.1-1.4.4 0 .9.1 1.5.1h9.9c.6 0 1.1 0 1.5-.1 0 .4-.1.8-.1 1.4v10.8c0 1-.3 1.1-1.9 1.1-.6 0-1.3 0-2.1-.1 0-.4-.1-.7-.2-1 1 .1 1.7.2 2.5.2.6 0 .8-.1.8-.4v-11H98.2v11c0 .8 0 1.2.1 1.7H97c.1-.5.1-1 .1-1.7V17.3zm2.2 1.2c.3.1.6.1 1.3.1h5.9c.7 0 .9 0 1.3-.1v1.1c-.4-.1-.7-.1-1.3-.1h-6c-.6 0-.9 0-1.3.1v-1.1zm7.3 6.7v.9h-5.2v1.4h-1c0-.4.1-.8.1-1.5v-3.8-1h6.3v4zm-5.2 0h4.2v-3.1h-4.2v3.1zM113 25.2c1.3 1 2.1 1.9 3.2 3.4l-.9.8c-1-1.5-1.9-2.5-3.1-3.5l.8-.7zM136.8 19c-.2 0-.3 0-.5.1-1.3.3-2.1.4-2.8.5v2.7c1.4-.4 2.4-.6 3.4-.6 1.1 0 2.1.2 2.8.7 1.1.6 1.6 1.6 1.6 2.8 0 1.9-1.4 3.3-3.3 3.3-1.3 0-2.2-.7-2.5-1.8-.1-.5-.2-1-.2-1.8.5-.1.7-.2 1.1-.4v.6c0 1.7.5 2.3 1.6 2.3 1.2 0 2.1-.9 2.1-2.2 0-1.6-1.3-2.5-3.4-2.5-1 0-2 .2-3.4.6v4c0 .9-.4 1.3-1.2 1.3-.9 0-1.9-.4-2.6-1-.5-.4-.7-.9-.7-1.5 0-.7.4-1.4 1.3-2.1.6-.5 1.2-.9 2.3-1.3v-3h-3.1v-1c.5.1.9.1 1.6.1h1.5v-1.6c0-.6 0-1-.1-1.5h1.2c-.1.4-.1.7-.1 1.5v1.5c1.4-.2 2.4-.4 3.3-.7l.1 1zm-4.3 4.7c-1.6.8-2.5 1.6-2.5 2.4 0 .3.2.7.7 1 .4.3 1 .5 1.4.5.3 0 .4-.1.4-.8v-3.1zm8.8-3c-.8-1.2-2-2.3-3.2-3.1l.8-.6c1.5 1 2.3 1.8 3.2 3l-.8.7zM145.3 24v-1.8c-.5.7-.8 1-1.6 1.6-.3-.5-.3-.5-.6-.9 1.6-1.2 3.2-3 3.6-4.3l.9.6c-.1.2-.2.3-.4.7-.3.5-.3.5-1 1.4v6.5c0 .8 0 1.4.1 1.9h-1.2c0-.4.1-1.1.1-1.9V24zm2.4-8.3c-.1.1-.1.1-.6.7-.9 1.1-1.9 2-3.1 2.8-.2-.3-.4-.6-.6-.8 1.6-1 2.9-2.2 3.5-3.3l.8.6zm2.2 2.2c-.6 0-1 0-1.5.1v-1c.4.1.8.1 1.5.1h2.1v-.6c0-.5 0-.9-.1-1.3h1.2c-.1.4-.1.8-.1 1.3v.6h2.4c.7 0 1.1 0 1.5-.1v1c-.5-.1-.9-.1-1.5-.1H153V20h3c.7 0 1.2 0 1.6-.1V21c-.5-.1-.9-.1-1.6-.1h-.7v1.9h.7c.7 0 1.2 0 1.6-.1v1.1c-.4-.1-.9-.1-1.6-.1h-.7v4.5c0 .6-.2.9-.5 1-.3.1-.8.2-1.4.2-.4 0-.9 0-1.5-.1 0-.4-.1-.7-.3-1.1.6.1 1.4.2 1.7.2.9 0 1 0 1-.4v-4.4h-5.1c-.6 0-1.1 0-1.6.1v-1.1c.4.1.9.1 1.5.1h5.1v-1.9h-5c-.6 0-1.1 0-1.5.1v-1.1c.4.1.9.1 1.5.1h2.7v-2.1h-2zm1.4 9.7c-.8-1.2-1.4-1.8-2.4-2.7l.8-.6c1 .9 1.6 1.5 2.5 2.7l-.9.6zM159.6 18.1c.8.2 1.8.3 3.5.3.3-1.2.5-2.1.5-2.8l1.3.1c-.1.2-.1.2-.3 1-.2.9-.3 1.1-.4 1.7 3.1-.1 5.3-.3 6.3-.7l.1 1.1c-.3 0-.4 0-.7.1-2.2.3-3.5.4-5.9.5-.4 1.5-1.2 3.4-1.6 4.1 1.1-.8 2.9-1.3 4.6-1.3 2.5 0 4.1 1.1 4.1 2.9 0 2.2-2.1 3.6-5.4 3.6-1.4 0-2.7-.2-3.9-.6v-.3-.1c0-.1 0-.4-.1-.9 1.2.5 2.5.8 4 .8 2.5 0 4.2-1 4.2-2.5 0-1.2-1.2-1.9-3.1-1.9-1.2 0-2.6.3-3.7.9-.7.3-1 .6-1.3 1l-1.2-.5c.7-1.1 1.6-3.3 2.1-5.2-1 0-1.7 0-2.7-.1h-.4-.1l.1-1.2zM176.5 16c-.1.5-.2 1.4-.2 3.4-.1 1.9-.1 4.1-.1 4.8v1c.1 1 .3 1.5.8 1.9.4.4 1.2.6 2 .6 1.9 0 3.4-1 4.3-2.8.4-.8.6-1.4.8-2.5.4.4.6.5 1.2.8-.6 1.9-1.1 2.8-1.8 3.6-1.1 1.3-2.6 2-4.5 2-1.4 0-2.4-.4-3-1.1-.7-.7-.9-1.6-.9-3.3 0-1.1 0-1.5.1-6.5v-1c0-.3 0-.5-.1-.8h1.4zM186 17.9h1.5c1.9-.1 7-.4 9.1-.5.9 0 1.6-.1 1.9-.2l.1 1.2c-.6 0-1.2.1-1.8.2-1.1.3-2.2.9-3.1 1.6-1.3 1.1-2 2.4-2 3.7 0 1.3.8 2.4 2.2 2.9.8.3 1.8.5 2.4.5h.2l-.2 1.3c-.2 0-.2 0-.5-.1-1.6-.3-2.5-.6-3.5-1.2-1.1-.8-1.8-1.9-1.8-3.2 0-1.8 1.1-3.6 3-4.9.5-.3.9-.6 1.5-.8-.9.2-1.7.2-3.5.3-3.3.2-4.7.3-5.5.5v-1.3zM212.5 28.3c-.7-.8-1.9-1.6-3.3-2.3-.3-.1-.6-.3-1.1-.5v.6c0 .8-.1 1.4-.4 1.7-.5.7-1.4 1-2.7 1-1.1 0-1.9-.2-2.5-.6-.5-.4-.9-1-.9-1.7 0-1 .8-1.9 2.2-2.2.5-.1 1-.2 1.7-.2.5 0 .8 0 1.4.1V24v-.2-.9-.9H205c-1 0-1.7 0-2.7-.1h-.4-.1v-1c.7.2 2 .3 3.7.3h1.4V19h-1.1c-1.2 0-2.5 0-3.9-.2h-.3-.2v-1.1c.7.2 2.3.3 4.1.3h1.4c0-1.9 0-1.9-.1-2.3h1.2c-.1.3-.1 1.1-.1 2.2 2.2-.1 3.8-.4 4.7-.7l.1 1.1c-.3 0-.3 0-1.1.1-1.5.2-1.9.3-3.7.4v2.1c2.2-.2 3.5-.3 4.4-.7l.1 1.1c-.2 0-.4 0-.9.1-1.1.2-2.4.3-3.5.4 0 .9 0 .9.1 2.4 1.4.4 2.8 1.1 4.5 2.3.3.2.3.2.5.4l-.6 1.4zm-5.4-3.1c-.6-.1-.9-.2-1.6-.2-1.6 0-2.6.6-2.6 1.4 0 .8.8 1.3 2.2 1.3.8 0 1.5-.2 1.8-.5.2-.2.3-.7.3-1.4l-.1-.6zM222.9 16.6c0-.4 0-.6-.1-.9h1.2c-.1.5-.1.7-.1 2v.2c3 0 4.2 0 4.8-.1v1.1c-.6-.1-1.2-.1-3.1-.1h-1.7v3.1c.3.7.4 1.2.4 1.9 0 1.7-.8 3.1-2.1 4.1-.7.5-1.4.8-2.5 1.3-.3-.5-.4-.7-.7-1 1.2-.4 1.9-.7 2.6-1.2 1.2-.9 1.7-1.9 1.8-3.4-.1.4-.2.6-.4.8-.5.6-1.2.9-2 .9-1.5 0-2.6-1-2.6-2.5s1.2-2.6 2.8-2.6c.8 0 1.4.3 1.9.7V20v-.4-.8c-3.2.1-6.4.2-7.5.4V18h.6c.5 0 .5 0 3-.1 1.5-.1 2.8-.1 3.9-.1l-.2-1.2zm-.7 4.8c-.3-.2-.6-.3-1.1-.3-1 0-1.8.7-1.8 1.7 0 .9.7 1.6 1.6 1.6 1.1 0 1.9-.8 1.9-1.9.1-.6-.1-.9-.6-1.1zM233.9 25.4V23.7l-.1-5.7c0-.7 0-1.1-.1-1.7h1.6c0 .6-.1 1.1-.1 1.7l-.1 5.7v1.7h-1.2zm-.1 3v-1.5h1.5v1.5h-1.5z"/></g></svg>