<?xml version="1.0" encoding="utf-8"?>
<!-- Generator: Adobe Illustrator 19.0.0, SVG Export Plug-In . SVG Version: 6.00 Build 0)  -->
<svg version="1.1" id="レイヤー_1" xmlns="http://www.w3.org/2000/svg" xmlns:xlink="http://www.w3.org/1999/xlink" x="0px"
	 y="0px" viewBox="0 0 80 80" style="enable-background:new 0 0 80 80;" xml:space="preserve">
<style type="text/css">
	.st0{fill:#FFFFFF;}
</style>
<g>
	<g>
		<path class="st0" d="M57.1,30h-1.7v-1.7c0.7-1.1,1-2.4,1-3.7c0-3.7-2.7-6.7-6.3-7.1c-0.7-3.3-3.6-5.8-7-5.8c-2,0-3.9,0.8-5.3,2.3
			c-0.7-0.2-1.4-0.3-2.1-0.3c-2.7,0-5.1,1.5-6.4,3.8c-0.4-0.1-0.8-0.1-1.2-0.1c-4,0-7.2,3.2-7.2,7.2c0,1.4,0.4,2.6,1,3.7v27.1
			c0,4.9,4,8.9,8.9,8.9h15.6c4.5,0,8.2-3.4,8.8-7.8h1.8c3.3,0,5.9-2.6,5.9-5.9V35.9C63,32.6,60.4,30,57.1,30L57.1,30z M28.2,20.4
			c0.5,0,1,0.1,1.5,0.3c0.4,0.2,0.8,0.1,1.2-0.1c0.4-0.2,0.6-0.5,0.8-0.9c0.5-1.8,2.2-3.1,4.1-3.1c0.7,0,1.3,0.2,1.9,0.5
			c0.7,0.3,1.5,0.1,1.9-0.5c0.8-1.2,2.1-1.9,3.5-1.9c2.3,0,4.2,1.9,4.2,4.2c0,0,0,0,0,0c0,0.4,0.2,0.8,0.5,1.1
			c0.3,0.3,0.7,0.4,1.1,0.4c0.1,0,0.2,0,0.3,0c2.3,0,4.2,1.9,4.2,4.2s-1.9,4.2-4.2,4.2H36.7c-0.8,0-1.5,0.7-1.5,1.5v5.4
			c0,0.8-0.7,1.5-1.5,1.5c-0.8,0-1.5-0.7-1.5-1.5v-5.4c0-0.8-0.7-1.5-1.5-1.5h-2.6c-2.3,0-4.2-1.9-4.2-4.2S25.9,20.4,28.2,20.4
			L28.2,20.4z M52.4,55.4c0,3.3-2.6,5.9-5.9,5.9H30.9c-3.3,0-5.9-2.6-5.9-5.9V31c1,0.5,2.1,0.8,3.2,0.8h1.2v3.9c0,2.4,2,4.4,4.4,4.4
			c2.4,0,4.4-2,4.4-4.4v-3.9h11.1c1.1,0,2.2-0.3,3.2-0.8V55.4z M60,50.7c0,1.6-1.3,2.9-2.9,2.9h-1.7V32.9h1.7c1.6,0,2.9,1.3,2.9,2.9
			V50.7z M60,50.7"/>
	</g>
</g>
<g>
	<path class="st0" d="M50.5,37.5l-3,16.7c-0.1,0.3-0.2,0.6-0.4,0.9c-0.2,0.2-0.5,0.4-0.8,0.5c-0.3,0.1-0.7,0-1-0.1
		c-0.3-0.1-0.5-0.3-0.7-0.6L38.7,45l-5.9,9.7c-0.1,0.2-0.3,0.4-0.6,0.6c-0.2,0.1-0.5,0.2-0.8,0.2c-0.4,0-0.7-0.1-1-0.4
		c-0.3-0.2-0.5-0.6-0.5-1l-3-16.7h3.3l2.1,11.8l5.1-8.1c0.1-0.2,0.3-0.4,0.6-0.6c0.2-0.1,0.5-0.2,0.8-0.2c0.3,0,0.5,0.1,0.8,0.2
		c0.2,0.1,0.4,0.3,0.6,0.6l5.1,8.1l2.1-11.8H50.5z"/>
</g>
</svg>
