<?xml version="1.0" encoding="utf-8"?>
<!-- Generator: Adobe Illustrator 14.0.0, SVG Export Plug-In  -->
<!DOCTYPE svg PUBLIC "-//W3C//DTD SVG 1.1//EN" "http://www.w3.org/Graphics/SVG/1.1/DTD/svg11.dtd" [
	<!ENTITY ns_flows "http://ns.adobe.com/Flows/1.0/">
]>
<svg version="1.1"
	 xmlns="http://www.w3.org/2000/svg" xmlns:xlink="http://www.w3.org/1999/xlink" xmlns:a="http://ns.adobe.com/AdobeSVGViewerExtensions/3.0/"
	 x="0px" y="0px" width="400px" height="400px" viewBox="-94.993 -68.5 400 400" enable-background="new -94.993 -68.5 400 400"
	 xml:space="preserve">
<defs>
</defs>
<path fill="#FFFFFF" d="M181,91.5h-8.5V83c3.5-5.5,5-12,5-18.5C177.5,46,164,31,146,29c-3.5-16.5-18-29-35-29
	c-10,0-19.5,4-26.5,11.5c-3.5-1-7-1.5-10.5-1.5c-13.5,0-25.5,7.5-32,19c-2-0.5-4-0.5-6-0.5c-20,0-36,16-36,36c0,7,2,13,5,18.5v135.5
	C5,243,25,263,49.5,263h78c22.5,0,41-17,44-39h9c16.5,0,29.5-13,29.5-29.5V121C210.5,104.5,197.5,91.5,181,91.5L181,91.5z
	 M36.5,43.5c2.5,0,5,0.5,7.5,1.5c2,1,4,0.5,6-0.5s3-2.5,4-4.5c2.5-9,11-15.5,20.5-15.5c3.5,0,6.5,1,9.5,2.5c3.5,1.5,7.5,0.5,9.5-2.5
	c4-6,10.5-9.5,17.5-9.5c11.5,0,21,9.5,21,21l0,0c0,2,1,4,2.5,5.5s3.5,2,5.5,2c0.5,0,1,0,1.5,0c11.5,0,21,9.5,21,21s-9.5,21-21,21H79
	c-4,0-7.5,3.5-7.5,7.5v27c0,4-3.5,7.5-7.5,7.5s-7.5-3.5-7.5-7.5V93c0-4-3.5-7.5-7.5-7.5H36c-11.5,0-21-9.5-21-21S25,43.5,36.5,43.5
	L36.5,43.5z M157.5,218.5c0,16.5-13,29.5-29.5,29.5H50c-16.5,0-29.5-13-29.5-29.5v-122c5,2.5,10.5,4,16,4h6V120c0,12,10,22,22,22
	s22-10,22-22v-19.5H142c5.5,0,11-1.5,16-4v122H157.5z M195.5,195c0,8-6.5,14.5-14.5,14.5h-8.5V106h8.5c8,0,14.5,6.5,14.5,14.5V195z"
	/>
<path fill="#FFFFFF" d="M148,129l-15,83.5c-0.5,1.5-1,3-2,4.5c-1,1-2.5,2-4,2.5s-3.5,0-5-0.5s-2.5-1.5-3.5-3L89,166.5L59.5,215
	c-0.5,1-1.5,2-3,3c-1,0.5-2.5,1-4,1c-2,0-3.5-0.5-5-2c-1.5-1-2.5-3-2.5-5l-15-83.5h16.5l10.5,59L82.5,147c0.5-1,1.5-2,3-3
	c1-0.5,2.5-1,4-1s2.5,0.5,4,1c1,0.5,2,1.5,3,3l25.5,40.5l10.5-59H148V129z"/>
</svg>
