<?xml version="1.0" encoding="utf-8"?>
<!-- Generator: Adobe Illustrator 14.0.0, SVG Export Plug-In  -->
<!DOCTYPE svg PUBLIC "-//W3C//DTD SVG 1.1//EN" "http://www.w3.org/Graphics/SVG/1.1/DTD/svg11.dtd" [
	<!ENTITY ns_flows "http://ns.adobe.com/Flows/1.0/">
]>
<svg version="1.1"
	 xmlns="http://www.w3.org/2000/svg" xmlns:xlink="http://www.w3.org/1999/xlink" xmlns:a="http://ns.adobe.com/AdobeSVGViewerExtensions/3.0/"
	 x="0px" y="0px" width="400px" height="400px" viewBox="-85.243 -111.235 400 400"
	 enable-background="new -85.243 -111.235 400 400" xml:space="preserve">
<defs>
</defs>
<path fill="#FFFFFF" d="M202.825,0H27.135C11.958,0,0,11.958,0,26.676v124.179c0,14.717,12.418,26.675,27.135,26.675h175.231
	c15.178,0,27.135-11.958,27.135-26.675V26.676C229.961,11.958,217.544,0,202.825,0L202.825,0z M202.825,154.074H27.135
	c-2.299,0-4.139-1.38-4.139-3.219V43.233l79.107,68.068c1.839,1.38,3.679,2.3,5.979,2.3h13.337c2.3,0,4.14-0.92,5.979-2.3
	l79.566-68.068v107.622C206.965,152.694,204.665,154.074,202.825,154.074L202.825,154.074z M114.98,90.145L37.714,23.456h154.073
	L114.98,90.145z"/>
</svg>
