<?xml version="1.0" encoding="utf-8"?>
<!-- Generator: Adobe Illustrator 19.0.0, SVG Export Plug-In . SVG Version: 6.00 Build 0)  -->
<svg version="1.1" id="レイヤー_1" xmlns="http://www.w3.org/2000/svg" xmlns:xlink="http://www.w3.org/1999/xlink" x="0px"
	 y="0px" viewBox="0 0 80 80" style="enable-background:new 0 0 80 80;" xml:space="preserve">
<style type="text/css">
	.st0{fill:#FFFFFF;}
</style>
<g id="XMLID_2_">
	<path id="XMLID_39_" class="st0" d="M56.4,18H23.6c-2.5,0-4.6,2-4.6,4.5v32.9c0,2.5,2.1,4.6,4.6,4.6h32.9c2.5,0,4.6-2.1,4.6-4.6
		V22.5C61,20,58.9,18,56.4,18L56.4,18z M57.6,56.1H22.4V27.4h35.1V56.1z M57.6,56.1"/>
	<path id="XMLID_36_" class="st0" d="M34,33.7c0,1.9-1.5,3.4-3.4,3.4c-1.9,0-3.4-1.5-3.4-3.4c0-1.9,1.5-3.4,3.4-3.4
		C32.5,30.3,34,31.8,34,33.7L34,33.7z M34,33.7"/>
	<rect id="XMLID_35_" x="36.8" y="32.2" class="st0" width="15" height="2.9"/>
	<path id="XMLID_1_" class="st0" d="M34,42c0,1.9-1.5,3.4-3.4,3.4c-1.9,0-3.4-1.5-3.4-3.4c0-1.9,1.5-3.4,3.4-3.4
		C32.5,38.6,34,40.1,34,42L34,42z M34,42"/>
	<rect id="XMLID_7_" x="36.8" y="40.6" class="st0" width="15" height="2.8"/>
	<path id="XMLID_4_" class="st0" d="M34,50.4c0,1.9-1.5,3.4-3.4,3.4c-1.9,0-3.4-1.5-3.4-3.4c0-1.9,1.5-3.4,3.4-3.4
		C32.5,47,34,48.5,34,50.4L34,50.4z M34,50.4"/>
	<rect id="XMLID_3_" x="36.8" y="48.9" class="st0" width="15" height="2.8"/>
</g>
</svg>
