<?xml version="1.0" encoding="utf-8"?>
<!-- Generator: Adobe Illustrator 19.0.0, SVG Export Plug-In . SVG Version: 6.00 Build 0)  -->
<svg version="1.1" id="レイヤー_1" xmlns="http://www.w3.org/2000/svg" xmlns:xlink="http://www.w3.org/1999/xlink" x="0px"
	 y="0px" viewBox="0 0 80 80" style="enable-background:new 0 0 80 80;" xml:space="preserve">
<style type="text/css">
	.st0{fill:#FFFFFF;}
</style>
<g id="XMLID_2_">
	<path id="XMLID_4_" class="st0" d="M35.5,25.1c3.6,0,6.6,2.9,6.6,6.6v6.1c1,0.1,1.9,0.4,2.7,0.8c1.5-2,2.4-4.4,2.4-7
		C47.2,25.2,42,20,35.5,20c-6.4,0-11.7,5.2-11.7,11.7c0,4,2,7.5,5.1,9.6v-9.6C29,28.1,31.9,25.1,35.5,25.1z"/>
	<path id="XMLID_3_" class="st0" d="M56.9,58.1V49c0-1.7-1.4-3.1-3.1-3.1c-1.5,0-2.8,1.2-3,2.6v-2.6c0-1.6-1.4-3.1-3.1-3.1
		c-1.5,0-2.8,1.2-3,2.6v-1.1c0-1.7-1.4-3.1-3.1-3.1c-1.5,0-2.8,1.2-3,2.6V31.7c0-1.7-1.4-3.1-3.1-3.1c-1.7,0-3.1,1.4-3.1,3.1v18.1
		c-2.1-3.7-5.5-5.4-7.1-5.4c-0.6,0-1.2,0.2-1.6,0.7c-1.6,1.6,0.1,4.2,3.4,9.3c0.8,1.2,1.5,3.4,2.2,5.7h27.4
		C56.9,59.4,56.9,58.8,56.9,58.1z"/>
</g>
</svg>
