<?xml version="1.0" encoding="utf-8"?>
<!-- Generator: Adobe Illustrator 14.0.0, SVG Export Plug-In  -->
<!DOCTYPE svg PUBLIC "-//W3C//DTD SVG 1.1//EN" "http://www.w3.org/Graphics/SVG/1.1/DTD/svg11.dtd" [
	<!ENTITY ns_flows "http://ns.adobe.com/Flows/1.0/">
]>
<svg version="1.1"
	 xmlns="http://www.w3.org/2000/svg" xmlns:xlink="http://www.w3.org/1999/xlink" xmlns:a="http://ns.adobe.com/AdobeSVGViewerExtensions/3.0/"
	 x="0px" y="0px" width="400px" height="400px" viewBox="-88.288 -67.5 400 400" enable-background="new -88.288 -67.5 400 400"
	 xml:space="preserve">
<defs>
</defs>
<path id="XMLID_3_" fill="#FFFFFF" d="M82.002,33.703c23.791,0,43.616,19.165,43.616,43.616v40.312
	c6.608,0.661,12.557,2.643,17.843,5.286c9.913-13.217,15.86-29.077,15.86-46.259C159.322,34.364,124.958,0,82.002,0
	C39.708,0,4.683,34.364,4.683,77.319c0,26.434,13.217,49.563,33.704,63.441V77.319C39.048,53.528,58.212,33.703,82.002,33.703z"/>
<path id="XMLID_2_" fill="#FFFFFF" d="M223.424,251.783v-60.137c0-11.235-9.252-20.487-20.486-20.487
	c-9.912,0-18.504,7.931-19.826,17.183v-17.183c0-10.572-9.251-20.486-20.486-20.486c-9.912,0-18.503,7.931-19.825,17.183v-7.269
	c0-11.235-9.251-20.486-20.486-20.486c-9.912,0-18.503,7.929-19.825,17.182V77.319c0-11.234-9.251-20.486-20.486-20.486
	c-11.234,0-20.486,9.252-20.486,20.486v119.613c-13.877-24.451-36.346-35.687-46.92-35.687c-3.965,0-7.93,1.322-10.574,4.627
	c-10.574,10.573,0.661,27.756,22.469,61.459c5.286,7.931,9.913,22.469,14.538,37.668h181.072
	C223.424,260.374,223.424,256.408,223.424,251.783z"/>
</svg>
