<?xml version="1.0" encoding="utf-8"?>
<!-- Generator: Adobe Illustrator 14.0.0, SVG Export Plug-In  -->
<!DOCTYPE svg PUBLIC "-//W3C//DTD SVG 1.1//EN" "http://www.w3.org/Graphics/SVG/1.1/DTD/svg11.dtd" [
	<!ENTITY ns_flows "http://ns.adobe.com/Flows/1.0/">
]>
<svg version="1.1"
	 xmlns="http://www.w3.org/2000/svg" xmlns:xlink="http://www.w3.org/1999/xlink" xmlns:a="http://ns.adobe.com/AdobeSVGViewerExtensions/3.0/"
	 x="0px" y="0px" width="400px" height="400px" viewBox="-112.25 -75.25 400 400" enable-background="new -112.25 -75.25 400 400"
	 xml:space="preserve">
<defs>
</defs>
<path id="XMLID_1_" fill="#FFFFFF" d="M87.5,0C39,0,0,39,0,87.5c0,4,0.5,7.5,1,11c7.5,68.5,81,147,81,147c1.5,1.5,2.5,2.5,4,3l0,0
	l2.5,1l2.5-1l0,0c1-0.5,2.5-1.5,4-3c0,0,72.5-79,80-147c0.5-3.5,0.5-7,0.5-11C175,39,136,0,87.5,0L87.5,0z M87.5,143.5
	c-31,0-56-25.5-56-56.5s25-56,56-56S144,56,144,87C144,118.5,118.5,143.5,87.5,143.5L87.5,143.5z"/>
</svg>
