<?xml version="1.0" encoding="utf-8"?>
<!-- Generator: Adobe Illustrator 14.0.0, SVG Export Plug-In  -->
<!DOCTYPE svg PUBLIC "-//W3C//DTD SVG 1.1//EN" "http://www.w3.org/Graphics/SVG/1.1/DTD/svg11.dtd" [
	<!ENTITY ns_flows "http://ns.adobe.com/Flows/1.0/">
]>
<svg version="1.1"
	 xmlns="http://www.w3.org/2000/svg" xmlns:xlink="http://www.w3.org/1999/xlink" xmlns:a="http://ns.adobe.com/AdobeSVGViewerExtensions/3.0/"
	 x="0px" y="0px" width="400px" height="400px" viewBox="-75.781 -76.286 400 400" enable-background="new -75.781 -76.286 400 400"
	 xml:space="preserve">
<defs>
</defs>
<path id="XMLID_2_" fill="#FFFFFF" d="M226.269,22.236c-29.647-29.648-77.624-29.648-107.272,0
	c-14.555,14.555-22.101,33.422-22.101,53.367c0,5.93,0.539,11.32,1.617,16.711l-86.788,86.249
	c-15.633,15.633-15.633,41.508,0,57.141c15.632,15.632,41.507,15.632,57.14,0l86.788-86.788c24.258,5.391,51.21-1.078,70.077-20.484
	C255.917,99.861,255.917,51.885,226.269,22.236L226.269,22.236z M61.317,195.273l-4.312,4.312c-2.156,2.156-5.93,2.156-8.086,0
	s-2.156-5.93,0-8.086l3.773-3.773c2.156-2.156,5.93-2.156,8.086,0C63.474,189.883,63.474,193.117,61.317,195.273L61.317,195.273z
	 M92.044,165.086l-17.25,17.25c-2.156,2.156-5.93,2.156-8.086,0s-2.156-5.93,0-8.086l17.25-17.249c2.156-2.156,5.93-2.156,8.086,0
	S94.2,162.392,92.044,165.086L92.044,165.086z M219.8,110.642l-81.937-81.937c15.633-11.859,36.117-14.554,53.906-8.086
	L180.988,31.4c-3.234,3.234-3.234,8.625,0,12.398c3.234,3.234,8.625,3.234,12.398,0l14.554-14.555
	c2.156,1.617,4.312,3.773,6.469,5.391c2.156,2.156,3.773,4.312,5.391,6.469l-14.554,14.016c-3.234,3.234-3.234,8.625,0,12.398
	c3.233,3.234,8.624,3.234,12.397,0l10.781-10.781C233.815,74.525,231.12,95.009,219.8,110.642L219.8,110.642z"/>
</svg>
