<?xml version="1.0" encoding="utf-8"?>
<!-- Generator: Adobe Illustrator 14.0.0, SVG Export Plug-In  -->
<!DOCTYPE svg PUBLIC "-//W3C//DTD SVG 1.1//EN" "http://www.w3.org/Graphics/SVG/1.1/DTD/svg11.dtd" [
	<!ENTITY ns_flows "http://ns.adobe.com/Flows/1.0/">
]>
<svg version="1.1"
	 xmlns="http://www.w3.org/2000/svg" xmlns:xlink="http://www.w3.org/1999/xlink" xmlns:a="http://ns.adobe.com/AdobeSVGViewerExtensions/3.0/"
	 x="0px" y="0px" width="400px" height="400px" viewBox="-75.781 -76.286 400 400" enable-background="new -75.781 -76.286 400 400"
	 xml:space="preserve">
<defs>
</defs>
<path id="XMLID_1_" fill="#FFFFFF" d="M226.27,22.236c-29.647-29.647-77.625-29.647-107.273,0
	c-14.555,14.556-22.101,33.423-22.101,53.367c0,5.931,0.539,11.32,1.617,16.711l-86.788,86.249
	c-15.633,15.633-15.633,41.508,0,57.142c15.632,15.632,41.507,15.632,57.14,0l86.788-86.788
	c24.259,5.391,51.211-1.078,70.078-20.484C255.917,99.861,255.917,51.885,226.27,22.236L226.27,22.236z M61.317,195.274
	l-4.312,4.312c-2.156,2.156-5.93,2.156-8.086,0c-2.156-2.155-2.156-5.931,0-8.086l3.773-3.772c2.156-2.156,5.93-2.156,8.086,0
	C63.474,189.883,63.474,193.118,61.317,195.274L61.317,195.274z M92.044,165.086l-17.25,17.25c-2.156,2.156-5.93,2.156-8.086,0
	s-2.156-5.93,0-8.086l17.25-17.249c2.156-2.155,5.93-2.155,8.086,0C94.2,159.158,94.2,162.393,92.044,165.086L92.044,165.086z
	 M219.8,110.642l-81.938-81.937c15.634-11.859,36.118-14.555,53.907-8.086L180.989,31.4c-3.234,3.234-3.234,8.625,0,12.398
	c3.234,3.234,8.625,3.234,12.398,0l14.553-14.555c2.156,1.616,4.312,3.772,6.47,5.391c2.155,2.156,3.772,4.312,5.391,6.469
	L205.247,55.12c-3.234,3.233-3.234,8.625,0,12.397c3.232,3.234,8.624,3.234,12.396,0l10.781-10.781
	C233.815,74.525,231.121,95.009,219.8,110.642L219.8,110.642z"/>
</svg>
