<?xml version="1.0" encoding="utf-8"?>
<!-- Generator: Adobe Illustrator 14.0.0, SVG Export Plug-In  -->
<!DOCTYPE svg PUBLIC "-//W3C//DTD SVG 1.1//EN" "http://www.w3.org/Graphics/SVG/1.1/DTD/svg11.dtd" [
	<!ENTITY ns_flows "http://ns.adobe.com/Flows/1.0/">
]>
<svg version="1.1"
	 xmlns="http://www.w3.org/2000/svg" xmlns:xlink="http://www.w3.org/1999/xlink" xmlns:a="http://ns.adobe.com/AdobeSVGViewerExtensions/3.0/"
	 x="0px" y="0px" width="400px" height="400px" viewBox="-85.5 -85 400 400" enable-background="new -85.5 -85 400 400"
	 xml:space="preserve">
<defs>
</defs>
<path id="XMLID_4_" fill="#FFFFFF" d="M248.5,97c-1-2-2.5-3-5-3H228c-9.5-53.5-56.5-94-113-94C51.5,0,0,51.5,0,115s51.5,115,115,115
	c41,0,79-22,99.5-57.5c3-5,1-11.5-4-14.5s-11.5-1-14.5,4c-17,29-48,47-81.5,47c-52,0-94-42-94-94s42-94,94-94
	c44.5,0,82,31.5,91.5,73h-15.5c-2,0-4,1-4.5,3c-1,2-0.5,4,0.5,5.5l26,31.5c1,1,2.5,2,4,2s3-0.5,4-2l26-31.5
	C249,101,249.5,99,248.5,97L248.5,97z"/>
<path id="XMLID_1_" fill="#FFFFFF" d="M115,26c-6,0-10.5,4.5-10.5,10.5V100c-4.5,3.5-8,9-8,15c0,10,8,18.5,18.5,18.5
	c3,0,5.5-0.5,7.5-2l36.5,21c1.5,1,3.5,1.5,5,1.5c3.5,0,7-2,9-5.5c3-5,1-11.5-4-14.5l-36.5-21c-0.5-5.5-3.5-10.5-7.5-13.5v-63
	C125.5,31,121,26,115,26L115,26z M115,123c-4.5,0-8-3.5-8-8s3.5-8,8-8s8,3.5,8,8S119.5,123,115,123L115,123z"/>
</svg>
