<?xml version="1.0" encoding="utf-8"?>
<!-- Generator: Adobe Illustrator 19.0.0, SVG Export Plug-In . SVG Version: 6.00 Build 0)  -->
<svg version="1.1" id="レイヤー_1" xmlns="http://www.w3.org/2000/svg" xmlns:xlink="http://www.w3.org/1999/xlink" x="0px"
	 y="0px" viewBox="0 0 80 80" style="enable-background:new 0 0 80 80;" xml:space="preserve">
<style type="text/css">
	.st0{fill:#FFFFFF;}
</style>
<g id="XMLID_2_">
	<path id="XMLID_7_" class="st0" d="M67.8,36.4c-0.2-0.4-0.5-0.6-1-0.6h-3.1C61.8,25.1,52.4,17,41.1,17c-12.7,0-23,10.3-23,23
		c0,12.7,10.3,23,23,23c8.2,0,15.8-4.4,19.9-11.5c0.6-1,0.2-2.3-0.8-2.9c-1-0.6-2.3-0.2-2.9,0.8c-3.4,5.8-9.6,9.4-16.3,9.4
		c-10.4,0-18.8-8.4-18.8-18.8c0-10.4,8.4-18.8,18.8-18.8c8.9,0,16.4,6.3,18.3,14.6h-3.1c-0.4,0-0.8,0.2-0.9,0.6
		c-0.2,0.4-0.1,0.8,0.1,1.1l5.2,6.3c0.2,0.2,0.5,0.4,0.8,0.4c0.3,0,0.6-0.1,0.8-0.4l5.2-6.3C67.9,37.2,68,36.8,67.8,36.4L67.8,36.4z
		 M67.8,36.4"/>
	<path id="XMLID_3_" class="st0" d="M41.1,22.2c-1.2,0-2.1,0.9-2.1,2.1V37c-0.9,0.7-1.6,1.8-1.6,3c0,2,1.6,3.7,3.7,3.7
		c0.6,0,1.1-0.1,1.5-0.4l7.3,4.2c0.3,0.2,0.7,0.3,1,0.3c0.7,0,1.4-0.4,1.8-1.1c0.6-1,0.2-2.3-0.8-2.9l-7.3-4.2
		c-0.1-1.1-0.7-2.1-1.5-2.7V24.3C43.2,23.2,42.3,22.2,41.1,22.2L41.1,22.2z M41.1,41.6c-0.9,0-1.6-0.7-1.6-1.6
		c0-0.9,0.7-1.6,1.6-1.6c0.9,0,1.6,0.7,1.6,1.6C42.7,40.9,42,41.6,41.1,41.6L41.1,41.6z M41.1,41.6"/>
</g>
</svg>
