<?xml version="1.0" encoding="utf-8"?>
<!-- Generator: Adobe Illustrator 18.1.0, SVG Export Plug-In . SVG Version: 6.00 Build 0)  -->
<!DOCTYPE svg PUBLIC "-//W3C//DTD SVG 1.1//EN" "http://www.w3.org/Graphics/SVG/1.1/DTD/svg11.dtd">
<svg version="1.1" id="_x39_9_x5F_Wapuu_x5F_Pagetop"
	 xmlns="http://www.w3.org/2000/svg" xmlns:xlink="http://www.w3.org/1999/xlink" x="0px" y="0px" viewBox="0 0 127 146"
	 enable-background="new 0 0 127 146" xml:space="preserve">
<g>
	<g>
		<g>
			<path fill="none" stroke="#231815" stroke-width="4.7749" d="M30.8,30.6c-2.3-1.1-8.2-1.1-7.9,5.1c0.3,6.2,6.5,9.5,10.6,10.6
				c2.2,0.6,2.4-2,3.5-3C39.9,40.7,33,31.7,30.8,30.6z"/>
		</g>
		<g>
			<g>
				<g>
					<g>
						<defs>
							<path id="XMLID_13_" d="M85.6,47.8H23.2c0,0-7,12.3-4.6,32.3c2.4,20,10.8,28,10.8,28s6.9,8.4,24.8,8.4
								c17.8,0,25.1-8.4,25.1-8.4s9.1-7.7,10.8-28C91.9,59.8,85.6,47.8,85.6,47.8z"/>
						</defs>
						<clipPath id="XMLID_6_">
							<use xlink:href="#XMLID_13_"  overflow="visible"/>
						</clipPath>
						<path clip-path="url(#XMLID_6_)" fill="none" stroke="#231815" stroke-width="4.7749" d="M38.5,56.1c0,0-4.5,33.8,5.5,56.5"/>
						<path clip-path="url(#XMLID_6_)" fill="none" stroke="#231815" stroke-width="4.7749" d="M26.6,54.6
							c-7,13.8-2.6,42.7,9.3,56.7"/>
						<path clip-path="url(#XMLID_6_)" fill="none" stroke="#231815" stroke-width="4.7749" d="M69.1,56.1c0,0,4.5,33.8-5.5,56.5"/>
						<path clip-path="url(#XMLID_6_)" fill="none" stroke="#231815" stroke-width="4.7749" d="M81,54.6c7,13.8,2.6,42.7-9.3,56.7"
							/>
						
							<line clip-path="url(#XMLID_6_)" fill="none" stroke="#231815" stroke-width="4.7749" x1="53.8" y1="113.2" x2="53.8" y2="58.2"/>
						
							<ellipse clip-path="url(#XMLID_6_)" fill="none" stroke="#231815" stroke-width="4.7749" cx="54.4" cy="51.9" rx="33.9" ry="15.3"/>
						<g clip-path="url(#XMLID_6_)">
							<g>
								<path fill="none" stroke="#231815" stroke-width="4.7749" d="M87.4,95.2c-1.9,8.5-16.5,16.7-33,16.7
									c-17.1,0-31.2-8.6-32.1-17.4c-2.6,2.1-4,4.6-4,7.1c0,8.6,16.2,15.6,36.1,15.6c19.9,0,36.1-7,36.1-15.6
									C90.5,99.3,89.4,97.1,87.4,95.2z"/>
							</g>
							<g>
								<path fill="none" stroke="#231815" stroke-width="4.7749" d="M87.4,95.2c-1.9,8.5-16.5,16.7-33,16.7
									c-17.1,0-31.2-8.6-32.1-17.4c-2.6,2.1-4,4.6-4,7.1c0,8.6,16.2,15.6,36.1,15.6c19.9,0,36.1-7,36.1-15.6
									C90.5,99.3,89.4,97.1,87.4,95.2z"/>
							</g>
							<g>
								<path fill="none" stroke="#231815" stroke-width="4.7749" d="M87.4,95.2c-1.9,8.5-16.5,16.7-33,16.7
									c-17.1,0-31.2-8.6-32.1-17.4c-2.6,2.1-4,4.6-4,7.1c0,8.6,16.2,15.6,36.1,15.6c19.9,0,36.1-7,36.1-15.6
									C90.5,99.3,89.4,97.1,87.4,95.2z"/>
							</g>
						</g>
					</g>
					<path fill="none" stroke="#231815" stroke-width="4.7749" d="M40.7,68.1C26,65.7,14.9,83.7,27,97.5c12.3,13.9,29.6,3.9,30-9.1
						C57.4,78.2,48.9,69.7,40.7,68.1 M26.5,74.2c4.9-5.2,13.9-8.3,22.7,0.2c-0.1,0-6-1.2-2.2,5.7c2.1,3.7,2,6.3-0.2,11
						c-0.9,2.4-1.1,3.1-1.9,5.6c-2.4-7-4.3-12.8-5.5-20.1c1.6,0.2,3.5,0.4,2.6-0.8c-0.1-0.2-8.7-1.4-8.7-1.4
						c-0.7-0.1-0.8,0.6-0.8,0.6c-0.1,0.5,0,0.6,1.8,0.9c0.3,2.5,0.4,3.7,1.4,7.5c-1.1,3.1-2.3,6.3-2.8,11.6
						c-3.3-8-4.5-13.3-4.3-19.6c0.6-0.2,1.3,0.1,1.8-0.2c0.4-0.2,0.6-0.9,0.2-1.1C29.1,73.6,27.9,74.3,26.5,74.2 M45.1,101.2
						c2.1-5.8,5.1-11.2,7.1-17c0.4-1.1,0.8-2.9,0.5-5.1C56.8,86.7,55.5,96.8,45.1,101.2 M31.6,99.8c-9.5-6.5-10.6-16.7-6.7-23.5
						C24.5,83.9,26.3,90.2,31.6,99.8 M37.4,102.1c-1.3-0.2-2.3-0.5-3.5-1.1c-0.1-3.6,0-8,2.5-15.1c2.8,9.1,6.1,16,6.1,16
						C41.8,102.1,39.8,102.5,37.4,102.1"/>
					<path fill="none" stroke="#231815" stroke-width="4.7749" d="M85.6,47.8c0,7.8-14,14-31.2,14c-17.2,0-31.2-6.3-31.2-14
						c0-7.8,14-14,31.2-14C71.6,33.7,85.6,40,85.6,47.8z"/>
					<g>
						<defs>
							<path id="SVGID_1_" d="M81.8,48.9c0,6.1-12.3,11.1-27.4,11.1c-15.1,0-27.4-5-27.4-11.1c0-6.1,12.3-11.1,27.4-11.1
								C69.5,37.8,81.8,42.8,81.8,48.9z"/>
						</defs>
						<clipPath id="SVGID_2_">
							<use xlink:href="#SVGID_1_"  overflow="visible"/>
						</clipPath>
						<g clip-path="url(#SVGID_2_)">
							<line fill="none" stroke="#231815" stroke-width="4.7749" x1="26.4" y1="49.8" x2="55" y2="36.8"/>
							<line fill="none" stroke="#231815" stroke-width="4.7749" x1="31.2" y1="54.9" x2="68" y2="38.5"/>
							<line fill="none" stroke="#231815" stroke-width="4.7749" x1="40.2" y1="59.2" x2="78" y2="42.4"/>
							<line fill="none" stroke="#231815" stroke-width="4.7749" x1="53.8" y1="61.1" x2="83.3" y2="48.1"/>
						</g>
					</g>
				</g>
				<g>
					<g>
						<defs>
							<path id="XMLID_12_" d="M85.6,47.8H23.2c0,0-7,12.3-4.6,32.3c2.4,20,10.8,28,10.8,28s6.9,8.4,24.8,8.4
								c17.8,0,25.1-8.4,25.1-8.4s9.1-7.7,10.8-28C91.9,59.8,85.6,47.8,85.6,47.8z"/>
						</defs>
						<clipPath id="XMLID_7_">
							<use xlink:href="#XMLID_12_"  overflow="visible"/>
						</clipPath>
						<path clip-path="url(#XMLID_7_)" fill="none" stroke="#231815" stroke-width="4.7749" d="M38.5,56.1c0,0-4.5,33.8,5.5,56.5"/>
						<path clip-path="url(#XMLID_7_)" fill="none" stroke="#231815" stroke-width="4.7749" d="M26.6,54.6
							c-7,13.8-2.6,42.7,9.3,56.7"/>
						<path clip-path="url(#XMLID_7_)" fill="none" stroke="#231815" stroke-width="4.7749" d="M69.1,56.1c0,0,4.5,33.8-5.5,56.5"/>
						<path clip-path="url(#XMLID_7_)" fill="none" stroke="#231815" stroke-width="4.7749" d="M81,54.6c7,13.8,2.6,42.7-9.3,56.7"
							/>
						
							<line clip-path="url(#XMLID_7_)" fill="none" stroke="#231815" stroke-width="4.7749" x1="53.8" y1="113.2" x2="53.8" y2="58.2"/>
						
							<ellipse clip-path="url(#XMLID_7_)" fill="none" stroke="#231815" stroke-width="4.7749" cx="54.4" cy="51.9" rx="33.9" ry="15.3"/>
						<g clip-path="url(#XMLID_7_)">
							<g>
								<path fill="none" stroke="#231815" stroke-width="4.7749" d="M87.4,95.2c-1.9,8.5-16.5,16.7-33,16.7
									c-17.1,0-31.2-8.6-32.1-17.4c-2.6,2.1-4,4.6-4,7.1c0,8.6,16.2,15.6,36.1,15.6c19.9,0,36.1-7,36.1-15.6
									C90.5,99.3,89.4,97.1,87.4,95.2z"/>
							</g>
							<g>
								<path fill="none" stroke="#231815" stroke-width="4.7749" d="M87.4,95.2c-1.9,8.5-16.5,16.7-33,16.7
									c-17.1,0-31.2-8.6-32.1-17.4c-2.6,2.1-4,4.6-4,7.1c0,8.6,16.2,15.6,36.1,15.6c19.9,0,36.1-7,36.1-15.6
									C90.5,99.3,89.4,97.1,87.4,95.2z"/>
							</g>
							<g>
								<path fill="none" stroke="#231815" stroke-width="4.7749" d="M87.4,95.2c-1.9,8.5-16.5,16.7-33,16.7
									c-17.1,0-31.2-8.6-32.1-17.4c-2.6,2.1-4,4.6-4,7.1c0,8.6,16.2,15.6,36.1,15.6c19.9,0,36.1-7,36.1-15.6
									C90.5,99.3,89.4,97.1,87.4,95.2z"/>
							</g>
						</g>
					</g>
					<path fill="none" stroke="#231815" stroke-width="4.7749" d="M40.7,68.1C26,65.7,14.9,83.7,27,97.5c12.3,13.9,29.6,3.9,30-9.1
						C57.4,78.2,48.9,69.7,40.7,68.1 M26.5,74.2c4.9-5.2,13.9-8.3,22.7,0.2c-0.1,0-6-1.2-2.2,5.7c2.1,3.7,2,6.3-0.2,11
						c-0.9,2.4-1.1,3.1-1.9,5.6c-2.4-7-4.3-12.8-5.5-20.1c1.6,0.2,3.5,0.4,2.6-0.8c-0.1-0.2-8.7-1.4-8.7-1.4
						c-0.7-0.1-0.8,0.6-0.8,0.6c-0.1,0.5,0,0.6,1.8,0.9c0.3,2.5,0.4,3.7,1.4,7.5c-1.1,3.1-2.3,6.3-2.8,11.6
						c-3.3-8-4.5-13.3-4.3-19.6c0.6-0.2,1.3,0.1,1.8-0.2c0.4-0.2,0.6-0.9,0.2-1.1C29.1,73.6,27.9,74.3,26.5,74.2 M45.1,101.2
						c2.1-5.8,5.1-11.2,7.1-17c0.4-1.1,0.8-2.9,0.5-5.1C56.8,86.7,55.5,96.8,45.1,101.2 M31.6,99.8c-9.5-6.5-10.6-16.7-6.7-23.5
						C24.5,83.9,26.3,90.2,31.6,99.8 M37.4,102.1c-1.3-0.2-2.3-0.5-3.5-1.1c-0.1-3.6,0-8,2.5-15.1c2.8,9.1,6.1,16,6.1,16
						C41.8,102.1,39.8,102.5,37.4,102.1"/>
					<path fill="none" stroke="#231815" stroke-width="4.7749" d="M85.6,47.8c0,7.8-14,14-31.2,14c-17.2,0-31.2-6.3-31.2-14
						c0-7.8,14-14,31.2-14C71.6,33.7,85.6,40,85.6,47.8z"/>
					<g>
						<defs>
							<path id="SVGID_3_" d="M81.8,48.9c0,6.1-12.3,11.1-27.4,11.1c-15.1,0-27.4-5-27.4-11.1c0-6.1,12.3-11.1,27.4-11.1
								C69.5,37.8,81.8,42.8,81.8,48.9z"/>
						</defs>
						<clipPath id="SVGID_4_">
							<use xlink:href="#SVGID_3_"  overflow="visible"/>
						</clipPath>
						<g clip-path="url(#SVGID_4_)">
							<line fill="none" stroke="#231815" stroke-width="4.7749" x1="26.4" y1="49.8" x2="55" y2="36.8"/>
							<line fill="none" stroke="#231815" stroke-width="4.7749" x1="31.2" y1="54.9" x2="68" y2="38.5"/>
							<line fill="none" stroke="#231815" stroke-width="4.7749" x1="40.2" y1="59.2" x2="78" y2="42.4"/>
							<line fill="none" stroke="#231815" stroke-width="4.7749" x1="53.8" y1="61.1" x2="83.3" y2="48.1"/>
						</g>
					</g>
				</g>
				<g>
					<g>
						<defs>
							<path id="XMLID_11_" d="M85.6,47.8H23.2c0,0-7,12.3-4.6,32.3c2.4,20,10.8,28,10.8,28s6.9,8.4,24.8,8.4
								c17.8,0,25.1-8.4,25.1-8.4s9.1-7.7,10.8-28C91.9,59.8,85.6,47.8,85.6,47.8z"/>
						</defs>
						<clipPath id="XMLID_8_">
							<use xlink:href="#XMLID_11_"  overflow="visible"/>
						</clipPath>
						<path clip-path="url(#XMLID_8_)" fill="none" stroke="#231815" stroke-width="4.7749" d="M38.5,56.1c0,0-4.5,33.8,5.5,56.5"/>
						<path clip-path="url(#XMLID_8_)" fill="none" stroke="#231815" stroke-width="4.7749" d="M26.6,54.6
							c-7,13.8-2.6,42.7,9.3,56.7"/>
						<path clip-path="url(#XMLID_8_)" fill="none" stroke="#231815" stroke-width="4.7749" d="M69.1,56.1c0,0,4.5,33.8-5.5,56.5"/>
						<path clip-path="url(#XMLID_8_)" fill="none" stroke="#231815" stroke-width="4.7749" d="M81,54.6c7,13.8,2.6,42.7-9.3,56.7"
							/>
						
							<line clip-path="url(#XMLID_8_)" fill="none" stroke="#231815" stroke-width="4.7749" x1="53.8" y1="113.2" x2="53.8" y2="58.2"/>
						
							<ellipse clip-path="url(#XMLID_8_)" fill="none" stroke="#231815" stroke-width="4.7749" cx="54.4" cy="51.9" rx="33.9" ry="15.3"/>
						<g clip-path="url(#XMLID_8_)">
							<g>
								<path fill="none" stroke="#231815" stroke-width="4.7749" d="M87.4,95.2c-1.9,8.5-16.5,16.7-33,16.7
									c-17.1,0-31.2-8.6-32.1-17.4c-2.6,2.1-4,4.6-4,7.1c0,8.6,16.2,15.6,36.1,15.6c19.9,0,36.1-7,36.1-15.6
									C90.5,99.3,89.4,97.1,87.4,95.2z"/>
							</g>
							<g>
								<path fill="none" stroke="#231815" stroke-width="4.7749" d="M87.4,95.2c-1.9,8.5-16.5,16.7-33,16.7
									c-17.1,0-31.2-8.6-32.1-17.4c-2.6,2.1-4,4.6-4,7.1c0,8.6,16.2,15.6,36.1,15.6c19.9,0,36.1-7,36.1-15.6
									C90.5,99.3,89.4,97.1,87.4,95.2z"/>
							</g>
							<g>
								<path fill="none" stroke="#231815" stroke-width="4.7749" d="M87.4,95.2c-1.9,8.5-16.5,16.7-33,16.7
									c-17.1,0-31.2-8.6-32.1-17.4c-2.6,2.1-4,4.6-4,7.1c0,8.6,16.2,15.6,36.1,15.6c19.9,0,36.1-7,36.1-15.6
									C90.5,99.3,89.4,97.1,87.4,95.2z"/>
							</g>
						</g>
					</g>
					<path fill="none" stroke="#231815" stroke-width="4.7749" d="M40.7,68.1C26,65.7,14.9,83.7,27,97.5c12.3,13.9,29.6,3.9,30-9.1
						C57.4,78.2,48.9,69.7,40.7,68.1 M26.5,74.2c4.9-5.2,13.9-8.3,22.7,0.2c-0.1,0-6-1.2-2.2,5.7c2.1,3.7,2,6.3-0.2,11
						c-0.9,2.4-1.1,3.1-1.9,5.6c-2.4-7-4.3-12.8-5.5-20.1c1.6,0.2,3.5,0.4,2.6-0.8c-0.1-0.2-8.7-1.4-8.7-1.4
						c-0.7-0.1-0.8,0.6-0.8,0.6c-0.1,0.5,0,0.6,1.8,0.9c0.3,2.5,0.4,3.7,1.4,7.5c-1.1,3.1-2.3,6.3-2.8,11.6
						c-3.3-8-4.5-13.3-4.3-19.6c0.6-0.2,1.3,0.1,1.8-0.2c0.4-0.2,0.6-0.9,0.2-1.1C29.1,73.6,27.9,74.3,26.5,74.2 M45.1,101.2
						c2.1-5.8,5.1-11.2,7.1-17c0.4-1.1,0.8-2.9,0.5-5.1C56.8,86.7,55.5,96.8,45.1,101.2 M31.6,99.8c-9.5-6.5-10.6-16.7-6.7-23.5
						C24.5,83.9,26.3,90.2,31.6,99.8 M37.4,102.1c-1.3-0.2-2.3-0.5-3.5-1.1c-0.1-3.6,0-8,2.5-15.1c2.8,9.1,6.1,16,6.1,16
						C41.8,102.1,39.8,102.5,37.4,102.1"/>
					<path fill="none" stroke="#231815" stroke-width="4.7749" d="M85.6,47.8c0,7.8-14,14-31.2,14c-17.2,0-31.2-6.3-31.2-14
						c0-7.8,14-14,31.2-14C71.6,33.7,85.6,40,85.6,47.8z"/>
					<g>
						<defs>
							<path id="SVGID_5_" d="M81.8,48.9c0,6.1-12.3,11.1-27.4,11.1c-15.1,0-27.4-5-27.4-11.1c0-6.1,12.3-11.1,27.4-11.1
								C69.5,37.8,81.8,42.8,81.8,48.9z"/>
						</defs>
						<clipPath id="SVGID_6_">
							<use xlink:href="#SVGID_5_"  overflow="visible"/>
						</clipPath>
						<g clip-path="url(#SVGID_6_)">
							<line fill="none" stroke="#231815" stroke-width="4.7749" x1="26.4" y1="49.8" x2="55" y2="36.8"/>
							<line fill="none" stroke="#231815" stroke-width="4.7749" x1="31.2" y1="54.9" x2="68" y2="38.5"/>
							<line fill="none" stroke="#231815" stroke-width="4.7749" x1="40.2" y1="59.2" x2="78" y2="42.4"/>
							<line fill="none" stroke="#231815" stroke-width="4.7749" x1="53.8" y1="61.1" x2="83.3" y2="48.1"/>
						</g>
					</g>
				</g>
			</g>
			<g>
				<path fill="none" stroke="#231815" stroke-width="4.7749" d="M88.5,110.1c-5.1,15.2-22.1,28.8-40.4,31.9
					c-15.8,2.6-32.2-10.6-31.5-17.9c0.8-8.3,11.2-7.1,15.9,2c7.1,14,35.2,6.5,46.7-11.6L88.5,110.1z"/>
			</g>
			<g>
				<path fill="none" stroke="#231815" stroke-width="4.7749" d="M34,44.2c-0.1,0.1-0.2,0.1-0.3,0.2c0.2,0,0.3-0.1,0.5-0.1
					C34.1,44.2,34,44.2,34,44.2z"/>
			</g>
			<g>
				<path fill="none" stroke="#231815" stroke-width="4.7749" d="M44.5,43.3c-0.2,0-0.3,0-0.5,0c-3.4-0.2-6.8,0.1-9.9,1
					C37.9,46.5,41.4,45.2,44.5,43.3z"/>
			</g>
			<g>
				<path fill="none" stroke="#231815" stroke-width="4.7749" d="M62.2,115.7c5.8,0.9,15.4,0.5,25.5-5.5
					c18.2-10.8,19.1-47.9,14.7-63.7c-4.4-15.8-15.1-27.1-30.8-28.7c-15.7-1.6-29.2,4.4-36.9,14.9c-5.2,7.1-2,11.3,0.1,12.4
					c2.1,1.1,11.4-1.8,14.3-6.4c5.9,4.2,12.9,3,19,1.6l11.2,4.1c-8.8-4.2-20.4-2.8-26.7,2c-6.3,4.8-2.5,8.9,2,9.7
					c4.5,0.8,13.6-2.6,20.4-0.7c6.8,1.9,8.7,4.6,15.7,11.7c0,0,1.8,15.6-2.7,21.6c-6.7-4.5-18.6,0-22.9,8.4L62.2,115.7z"/>
			</g>
			<g>
				<path fill="none" stroke="#231815" stroke-width="4.7749" d="M88.3,89.8c-0.1,0-0.2,0-0.3-0.1c-0.6-0.2-0.8-0.8-0.6-1.4
					c1.2-3.3,2-6.8,2.2-10.4c0.3-4-0.1-7.9-1.1-11.8c-0.1-0.6,0.2-1.2,0.8-1.3c0.6-0.2,1.2,0.2,1.3,0.8c1,4,1.4,8.2,1.1,12.4
					c-0.3,3.8-1.1,7.5-2.4,11C89.3,89.5,88.8,89.8,88.3,89.8z"/>
			</g>
			<g>
				<path fill="none" stroke="#231815" stroke-width="4.7749" d="M66.2,97.5c-0.2,0-0.3-0.1-0.5-0.1c-0.5-0.3-0.7-1-0.4-1.5
					c3.3-5.7,8.9-9,15.6-9.2c5.5-0.2,10.7,1.9,12.8,5c0.3,0.5,0.2,1.2-0.3,1.5c-0.5,0.3-1.2,0.2-1.5-0.3c-1.7-2.5-6.3-4.2-11-4.1
					c-3.4,0.1-9.8,1.3-13.8,8.2C67,97.3,66.6,97.5,66.2,97.5z"/>
			</g>
			<g>
				<path fill="none" stroke="#231815" stroke-width="4.7749" d="M65.6,116.9c-1.1-0.1-2-0.2-2.7-0.3c-0.6-0.1-1-0.6-0.9-1.2
					c0.1-0.6,0.7-1,1.2-0.9c3.7,0.6,13.6,1.3,24.8-5.3c17.5-10.4,18.6-46.8,14.2-62.5c-4.5-16.3-15.4-26.4-29.8-27.9
					c-14.8-1.5-28.2,3.9-35.9,14.5c-2.1,2.9-2.9,5.6-2.4,7.8c0.4,1.6,1.4,2.7,2.2,3.1c1.3,0.7,10.1-1.7,12.9-6.1
					c0.2-0.2,0.4-0.4,0.7-0.5c0.3-0.1,0.6,0,0.8,0.2c5.6,4,12.3,2.8,18.1,1.4c0.6-0.1,1.2,0.2,1.3,0.8c0.1,0.6-0.2,1.2-0.8,1.3
					c-6.4,1.6-13.2,2.5-19-1.1c-3.7,4.5-12.5,7.3-15.1,5.9c-1.2-0.7-2.7-2.2-3.3-4.5c-0.5-2-0.3-5.2,2.8-9.5
					C42.9,20.8,57,15.1,72.6,16.7c15.4,1.5,26.9,12.3,31.7,29.4c2.1,7.4,3.2,20.9,1.2,34.2c-1.6,10.6-5.8,24.5-16.3,30.7
					C79.4,116.8,70.6,117.3,65.6,116.9z"/>
			</g>
			<g>
				<path fill="none" stroke="#231815" stroke-width="4.7749" d="M90.5,25.7c-4.3-0.6-1.2,2.8,0.2,4.1c1.3,1.3,10.9,11.3,20.6,9.1
					c9.7-2.2,13.1-9.8,11.2-10.5C120.7,27.8,99.3,27,90.5,25.7z"/>
			</g>
			<g>
				<path fill="none" stroke="#231815" stroke-width="4.7749" d="M89.6,26.7c0.3,0.5,0.9,1.3,1.9,2.3l0.3,0.2
					c7,6.9,12.5,8.6,15.9,8.8l0,0c1.2,0.1,2.4,0,3.5-0.3c5.3-1.2,8.8-4.2,10.2-6.6c0.5-0.9,0.7-1.5,0.7-1.8
					c-0.7-0.1-2.6-0.3-5.5-0.5c-1.6-0.1-3.4-0.2-5.3-0.3c-2.2-0.1-4.5-0.3-6.8-0.4c-4.3-0.3-10.4-0.8-14.1-1.3
					C90.1,26.7,89.8,26.7,89.6,26.7z M107.5,40.2L107.5,40.2c-3.7-0.3-9.8-2.1-17.2-9.4L90,30.5c-3.3-3.2-2.7-4.5-2.5-4.9
					c0.4-0.8,1.2-1.2,2.6-1.1c0.2,0,0.4,0,0.7,0.1c3.7,0.6,9.7,1,14,1.3c2.3,0.2,4.6,0.3,6.8,0.4c1.9,0.1,3.7,0.2,5.3,0.3
					c4.5,0.3,5.8,0.5,6.3,0.6c0.8,0.3,1.3,1,1.2,2.1c-0.1,2.6-4,8.5-12.6,10.5C110.3,40.2,108.9,40.3,107.5,40.2z"/>
			</g>
			<g>
				<path fill="none" stroke="#231815" stroke-width="4.7749" d="M48.5,32.3c-1.8,1.2-1.4,2.8,0.5,3.1c1.9,0.4,2,0.5,3.9-0.7
					c2-1.3,2.4-3.7,0.2-3.6C51,31.3,49.5,31.7,48.5,32.3z"/>
			</g>
			<g>
				<path fill="none" stroke="#231815" stroke-width="4.7749" d="M43.4,32.9c-0.1,1.2-1.1,2.1-2.3,2c-1.2-0.1-2.1-1.1-2-2.3
					c0.1-1.2,1.1-2.1,2.3-2C42.6,30.7,43.5,31.7,43.4,32.9z"/>
			</g>
			<g>
				<path fill="none" stroke="#231815" stroke-width="4.7749" d="M68.6,28.7c-0.1,1.2-1.1,2.1-2.3,2c-1.2-0.1-2.1-1.1-2-2.3
					c0.1-1.2,1.1-2.1,2.3-2C67.8,26.5,68.7,27.5,68.6,28.7z"/>
			</g>
			<g>
				<path fill="none" stroke="#231815" stroke-width="4.7749" d="M42,143.3c-8.3-0.6-16.2-4.7-21.1-9.3c-3.7-3.5-5.7-7.2-5.4-10.1
					c0.4-3.5,2.3-5.9,5.3-6.4c3.9-0.7,9.4,1.8,12.6,8.1c2.6,5.1,7.9,6.5,11.8,6.7c11.8,0.6,25.9-7.3,33-18.3c0.3-0.5,1-0.6,1.5-0.3
					c0.5,0.3,0.6,1,0.3,1.5c-7.4,11.6-22.4,20-34.9,19.3c-6.4-0.3-11.2-3.1-13.6-7.8c-2.7-5.3-7.2-7.5-10.3-6.9
					c-2.1,0.4-3.3,2-3.6,4.5c-0.2,2.2,1.5,5.3,4.7,8.3c5.7,5.4,15.8,10.1,25.5,8.5c17.9-2.9,34.5-16,39.6-31.1
					c0.2-0.6,0.8-0.9,1.4-0.7c0.6,0.2,0.9,0.8,0.7,1.4C84.2,126.3,66.9,140,48.3,143C46.2,143.4,44.1,143.5,42,143.3z"/>
			</g>
			<g>
				<path fill="none" stroke="#231815" stroke-width="4.7749" d="M93.7,70c-0.3,0-0.5-0.1-0.7-0.3l-0.8-0.8
					C85.7,62.1,81.8,58,75.5,56.3c-3.8-1.1-8.4-0.4-12.5,0.3C60,57,57.3,57.4,55.3,57c-3.1-0.5-5.5-2.4-6.1-4.7
					c-0.4-1.6-0.1-4.1,3.6-6.9c6.9-5.3,19.1-6.2,27.8-2.1c0.5,0.3,0.8,0.9,0.5,1.4c-0.3,0.5-0.9,0.8-1.4,0.5c-8-3.8-19.2-3-25.5,1.9
					c-2.2,1.7-3.2,3.3-2.8,4.7c0.4,1.4,2.1,2.7,4.3,3c1.7,0.3,4.3-0.1,7.1-0.5c4.3-0.6,9.2-1.4,13.4-0.2c6.8,1.9,11.1,6.4,17.6,13.1
					l0.8,0.8c0.4,0.4,0.4,1.1,0,1.5C94.3,69.9,94,70,93.7,70z"/>
			</g>
			<g>
				<path fill="none" stroke="#231815" stroke-width="4.7749" d="M16.5,83.9C11,79,4.2,82.5,5.1,89.5c0.8,5.7,9.6,16.9,16.4,19
					c5.8,1.8,5.1-4.7,4.3-6.9C24.4,97.8,19.4,86.5,16.5,83.9z"/>
			</g>
			<g>
				<path fill="none" stroke="#231815" stroke-width="4.7749" d="M11.5,82.7c-1.5-0.1-2.9,0.4-3.9,1.5c-1.2,1.3-1.7,3.1-1.4,5.2
					c0.7,5.3,9.4,16.2,15.6,18.2c0.5,0.2,0.9,0.2,1.3,0.3c1,0.1,1.4-0.3,1.6-0.6c0.9-1.1,0.6-3.7,0.1-5.2c-1.5-4.1-6.3-15-9-17.4
					C14.5,83.5,13,82.8,11.5,82.7z M23,110L23,110c-0.5,0-1.2-0.2-1.8-0.4C14,107.4,4.9,95.8,4.1,89.7c-0.4-2.7,0.3-5.2,1.9-6.9
					c1.4-1.5,3.5-2.3,5.7-2.2c1.9,0.1,3.9,1,5.6,2.5c3.3,3,8.5,15.2,9.6,18.3c0.5,1.3,1.3,5-0.4,7.2C25.9,109.3,24.8,110.1,23,110z"
					/>
			</g>
			<g>
				<path fill="none" stroke="#231815" stroke-width="4.7749" d="M65.2,111.9c0,0-2,8.2-9.9,7.7c-7.8-0.5-3.9-9.8-4.4-16.1
					c-0.5-6.2-3.8-14.6,2.2-18c6-3.4,12.1,8.2,13,12.6C67.5,103.9,67,107.4,65.2,111.9z"/>
			</g>
			<g>
				<path fill="none" stroke="#231815" stroke-width="4.7749" d="M55.6,86.3c-0.6,0-1.2,0.1-1.7,0.4c-3.5,2-3.1,6.1-2.1,12.2
					c0.3,1.5,0.5,3,0.6,4.5c0.2,1.9-0.1,3.9-0.3,5.9c-0.3,3.1-0.6,6.3,0.6,7.8c0.5,0.6,1.4,1,2.7,1.1c6.5,0.5,8.3-6.3,8.4-6.6
					c0-0.1,0-0.1,0.1-0.2c1.5-3.9,2.2-7.2,0.9-13C64,94.5,59.5,86.5,55.6,86.3z M55.3,121c-2.1-0.1-3.7-0.8-4.7-2.1
					c-2-2.4-1.6-6.2-1.3-9.9c0.2-1.9,0.4-3.8,0.3-5.4c-0.1-1.3-0.3-2.7-0.6-4.2c-0.9-5.6-2-12,3.5-15.1c1.1-0.6,2.2-0.9,3.3-0.8
					c6.2,0.4,11,10.6,11.8,14.4c1.4,6.4,0.7,10.2-1,14.5C65.8,115.6,62.4,121.5,55.3,121z"/>
			</g>
		</g>
		<path fill="none" stroke="#231815" stroke-width="4.7749" d="M34,43c-0.1,0.1-0.2,0.1-0.3,0.2c0.2,0,0.3-0.1,0.5-0.1
			C34.1,43.1,34,43.1,34,43z"/>
		<path fill="none" stroke="#231815" stroke-width="4.7749" d="M27,45.7c-0.1,0.1-0.2,0.2-0.4,0.3c0.2-0.1,0.4-0.1,0.5-0.2
			C27.1,45.8,27.1,45.8,27,45.7z"/>
		<path fill="none" stroke="#231815" stroke-width="4.7749" d="M19.4,78.1"/>
		<g>
			<path fill="none" stroke="#231815" stroke-width="4.7749" d="M7.2,10.7c-8,9.6-3,21-0.9,24.4c1.5,2.3,1.5,4.6,0.4,6.4
				c-0.7,1-0.2,2.4,1,2.7l8.6,2.1c1.2,0.3,2.2-0.7,2.1-1.8c-0.2-1.7,0.4-3.9,3.2-6c5.4-4,11.7-8.9,10-22.2L7.2,10.7z"/>
			<path fill="none" stroke="#231815" stroke-width="4.7749" d="M8.4,13c-4.6,5.7-3.8,21,4.4,23.4c8.2,2.4,16.5-5.3,16.9-17.4
				C30.2,7,8.4,13,8.4,13z"/>
			<path fill="none" stroke="#231815" stroke-width="4.7749" d="M26.1,6.4C8.3-0.3,6.4,3.1,5.8,7.2c-0.6,4.1,6.7,11.9,12.9,5.5
				c4.6,6.5,16.9,9.6,17.5,2.5c5.8,1.5,8.8-0.8,6.2-3.8C39.8,8.3,26.1,6.4,26.1,6.4z"/>
			<path fill="none" stroke="#231815" stroke-width="4.7749" d="M51.4,7.4c-2.6,0.1-2.6,5.3,1.2,4.5C56.4,11.2,54,7.3,51.4,7.4z"/>
		</g>
	</g>
	<g>
		<g>
			
				<path fill="#FFD200" stroke="#000000" stroke-width="2.7775" stroke-linecap="round" stroke-linejoin="round" stroke-miterlimit="10" d="
				M30.8,30.6c-2.3-1.1-8.2-1.1-7.9,5.1c0.3,6.2,6.5,9.5,10.6,10.6c2.2,0.6,2.4-2,3.5-3C39.9,40.7,33,31.7,30.8,30.6z"/>
		</g>
		<g>
			<g>
				<g>
					<g>
						<defs>
							<path id="XMLID_10_" d="M85.6,47.8H23.2c0,0-7,12.3-4.6,32.3c2.4,20,10.8,28,10.8,28s6.9,8.4,24.8,8.4
								c17.8,0,25.1-8.4,25.1-8.4s9.1-7.7,10.8-28C91.9,59.8,85.6,47.8,85.6,47.8z"/>
						</defs>
						<clipPath id="XMLID_14_">
							<use xlink:href="#XMLID_10_"  overflow="visible"/>
						</clipPath>
					</g>
					<g>
						<defs>
							<path id="SVGID_7_" d="M81.8,48.9c0,6.1-12.3,11.1-27.4,11.1c-15.1,0-27.4-5-27.4-11.1c0-6.1,12.3-11.1,27.4-11.1
								C69.5,37.8,81.8,42.8,81.8,48.9z"/>
						</defs>
						<clipPath id="SVGID_8_">
							<use xlink:href="#SVGID_7_"  overflow="visible"/>
						</clipPath>
					</g>
				</g>
				<g>
					<g>
						<defs>
							<path id="XMLID_9_" d="M85.6,47.8H23.2c0,0-7,12.3-4.6,32.3c2.4,20,10.8,28,10.8,28s6.9,8.4,24.8,8.4
								c17.8,0,25.1-8.4,25.1-8.4s9.1-7.7,10.8-28C91.9,59.8,85.6,47.8,85.6,47.8z"/>
						</defs>
						<use xlink:href="#XMLID_9_"  overflow="visible" fill="#A06323"/>
						<clipPath id="XMLID_15_">
							<use xlink:href="#XMLID_9_"  overflow="visible"/>
						</clipPath>
						
							<path clip-path="url(#XMLID_15_)" fill="none" stroke="#7E4D18" stroke-width="2.0299" stroke-linecap="round" stroke-linejoin="round" stroke-miterlimit="10" d="
							M38.5,56.1c0,0-4.5,33.8,5.5,56.5"/>
						
							<path clip-path="url(#XMLID_15_)" fill="none" stroke="#7E4D18" stroke-width="2.0299" stroke-linecap="round" stroke-linejoin="round" stroke-miterlimit="10" d="
							M26.6,54.6c-7,13.8-2.6,42.7,9.3,56.7"/>
						
							<path clip-path="url(#XMLID_15_)" fill="none" stroke="#7E4D18" stroke-width="2.0299" stroke-linecap="round" stroke-linejoin="round" stroke-miterlimit="10" d="
							M69.1,56.1c0,0,4.5,33.8-5.5,56.5"/>
						
							<path clip-path="url(#XMLID_15_)" fill="none" stroke="#7E4D18" stroke-width="2.0299" stroke-linecap="round" stroke-linejoin="round" stroke-miterlimit="10" d="
							M81,54.6c7,13.8,2.6,42.7-9.3,56.7"/>
						
							<line clip-path="url(#XMLID_15_)" fill="#A06323" stroke="#7E4D18" stroke-width="2.0299" stroke-linecap="round" stroke-linejoin="round" stroke-miterlimit="10" x1="53.8" y1="113.2" x2="53.8" y2="58.2"/>
						
							<ellipse clip-path="url(#XMLID_15_)" fill="#7E4D18" stroke="#000000" stroke-width="2.0299" stroke-linecap="round" stroke-linejoin="round" stroke-miterlimit="10" cx="54.4" cy="51.9" rx="33.9" ry="15.3"/>
						<g clip-path="url(#XMLID_15_)">
							<g>
								<path fill="#7E4D18" d="M87.4,95.2c-1.9,8.5-16.5,16.7-33,16.7c-17.1,0-31.2-8.6-32.1-17.4c-2.6,2.1-4,4.6-4,7.1
									c0,8.6,16.2,15.6,36.1,15.6c19.9,0,36.1-7,36.1-15.6C90.5,99.3,89.4,97.1,87.4,95.2z"/>
							</g>
							<g>
								
									<path fill="none" stroke="#000000" stroke-width="2.2082" stroke-linecap="round" stroke-linejoin="round" stroke-miterlimit="10" d="
									M87.4,95.2c-1.9,8.5-16.5,16.7-33,16.7c-17.1,0-31.2-8.6-32.1-17.4c-2.6,2.1-4,4.6-4,7.1c0,8.6,16.2,15.6,36.1,15.6
									c19.9,0,36.1-7,36.1-15.6C90.5,99.3,89.4,97.1,87.4,95.2z"/>
							</g>
						</g>
						
							<use xlink:href="#XMLID_9_"  overflow="visible" fill="none" stroke="#000000" stroke-width="3.1833" stroke-linecap="round" stroke-linejoin="round" stroke-miterlimit="10"/>
					</g>
					<path fill="#FFFFFF" d="M40.7,68.1C26,65.7,14.9,83.7,27,97.5c12.3,13.9,29.6,3.9,30-9.1C57.4,78.2,48.9,69.7,40.7,68.1
						 M26.5,74.2c4.9-5.2,13.9-8.3,22.7,0.2c-0.1,0-6-1.2-2.2,5.7c2.1,3.7,2,6.3-0.2,11c-0.9,2.4-1.1,3.1-1.9,5.6
						c-2.4-7-4.3-12.8-5.5-20.1c1.6,0.2,3.5,0.4,2.6-0.8c-0.1-0.2-8.7-1.4-8.7-1.4c-0.7-0.1-0.8,0.6-0.8,0.6c-0.1,0.5,0,0.6,1.8,0.9
						c0.3,2.5,0.4,3.7,1.4,7.5c-1.1,3.1-2.3,6.3-2.8,11.6c-3.3-8-4.5-13.3-4.3-19.6c0.6-0.2,1.3,0.1,1.8-0.2
						c0.4-0.2,0.6-0.9,0.2-1.1C29.1,73.6,27.9,74.3,26.5,74.2 M45.1,101.2c2.1-5.8,5.1-11.2,7.1-17c0.4-1.1,0.8-2.9,0.5-5.1
						C56.8,86.7,55.5,96.8,45.1,101.2 M31.6,99.8c-9.5-6.5-10.6-16.7-6.7-23.5C24.5,83.9,26.3,90.2,31.6,99.8 M37.4,102.1
						c-1.3-0.2-2.3-0.5-3.5-1.1c-0.1-3.6,0-8,2.5-15.1c2.8,9.1,6.1,16,6.1,16C41.8,102.1,39.8,102.5,37.4,102.1"/>
					
						<path fill="#A06323" stroke="#000000" stroke-width="3.1833" stroke-linecap="round" stroke-linejoin="round" stroke-miterlimit="10" d="
						M85.6,47.8c0,7.8-14,14-31.2,14c-17.2,0-31.2-6.3-31.2-14c0-7.8,14-14,31.2-14C71.6,33.7,85.6,40,85.6,47.8z"/>
					<g>
						<defs>
							<path id="SVGID_9_" d="M81.8,48.9c0,6.1-12.3,11.1-27.4,11.1c-15.1,0-27.4-5-27.4-11.1c0-6.1,12.3-11.1,27.4-11.1
								C69.5,37.8,81.8,42.8,81.8,48.9z"/>
						</defs>
						<use xlink:href="#SVGID_9_"  overflow="visible" fill="#7E4D18"/>
						<clipPath id="SVGID_10_">
							<use xlink:href="#SVGID_9_"  overflow="visible"/>
						</clipPath>
						<g clip-path="url(#SVGID_10_)">
							
								<line fill="none" stroke="#A06323" stroke-width="2.0299" stroke-linecap="round" stroke-linejoin="round" stroke-miterlimit="10" x1="26.4" y1="49.8" x2="55" y2="36.8"/>
							
								<line fill="none" stroke="#A06323" stroke-width="2.0299" stroke-linecap="round" stroke-linejoin="round" stroke-miterlimit="10" x1="31.2" y1="54.9" x2="68" y2="38.5"/>
							
								<line fill="none" stroke="#A06323" stroke-width="2.0299" stroke-linecap="round" stroke-linejoin="round" stroke-miterlimit="10" x1="40.2" y1="59.2" x2="78" y2="42.4"/>
							
								<line fill="none" stroke="#A06323" stroke-width="2.0299" stroke-linecap="round" stroke-linejoin="round" stroke-miterlimit="10" x1="53.8" y1="61.1" x2="83.3" y2="48.1"/>
						</g>
					</g>
				</g>
				<g>
					<g>
						<defs>
							<path id="XMLID_4_" d="M85.6,47.8H23.2c0,0-7,12.3-4.6,32.3c2.4,20,10.8,28,10.8,28s6.9,8.4,24.8,8.4
								c17.8,0,25.1-8.4,25.1-8.4s9.1-7.7,10.8-28C91.9,59.8,85.6,47.8,85.6,47.8z"/>
						</defs>
						<clipPath id="XMLID_16_">
							<use xlink:href="#XMLID_4_"  overflow="visible"/>
						</clipPath>
					</g>
					<g>
						<defs>
							<path id="SVGID_11_" d="M81.8,48.9c0,6.1-12.3,11.1-27.4,11.1c-15.1,0-27.4-5-27.4-11.1c0-6.1,12.3-11.1,27.4-11.1
								C69.5,37.8,81.8,42.8,81.8,48.9z"/>
						</defs>
						<clipPath id="SVGID_12_">
							<use xlink:href="#SVGID_11_"  overflow="visible"/>
						</clipPath>
					</g>
				</g>
			</g>
			<g>
				<path fill="#FF8800" d="M88.5,110.1c-5.1,15.2-22.1,28.8-40.4,31.9c-15.8,2.6-32.2-10.6-31.5-17.9c0.8-8.3,11.2-7.1,15.9,2
					c7.1,14,35.2,6.5,46.7-11.6L88.5,110.1z"/>
			</g>
			<g>
				<path fill="#57A1BE" d="M34,44.2c-0.1,0.1-0.2,0.1-0.3,0.2c0.2,0,0.3-0.1,0.5-0.1C34.1,44.2,34,44.2,34,44.2z"/>
			</g>
			<g>
				<path fill="#57A1BE" d="M44.5,43.3c-0.2,0-0.3,0-0.5,0c-3.4-0.2-6.8,0.1-9.9,1C37.9,46.5,41.4,45.2,44.5,43.3z"/>
			</g>
			<g>
				<path fill="#FFD200" d="M62.2,115.7c5.8,0.9,15.4,0.5,25.5-5.5c18.2-10.8,19.1-47.9,14.7-63.7c-4.4-15.8-15.1-27.1-30.8-28.7
					c-15.7-1.6-29.2,4.4-36.9,14.9c-5.2,7.1-2,11.3,0.1,12.4c2.1,1.1,11.4-1.8,14.3-6.4c5.9,4.2,12.9,3,19,1.6l11.2,4.1
					c-8.8-4.2-20.4-2.8-26.7,2c-6.3,4.8-2.5,8.9,2,9.7c4.5,0.8,13.6-2.6,20.4-0.7c6.8,1.9,8.7,4.6,15.7,11.7c0,0,1.8,15.6-2.7,21.6
					c-6.7-4.5-18.6,0-22.9,8.4L62.2,115.7z"/>
			</g>
			<g>
				<path d="M88.3,89.8c-0.1,0-0.2,0-0.3-0.1c-0.6-0.2-0.8-0.8-0.6-1.4c1.2-3.3,2-6.8,2.2-10.4c0.3-4-0.1-7.9-1.1-11.8
					c-0.1-0.6,0.2-1.2,0.8-1.3c0.6-0.2,1.2,0.2,1.3,0.8c1,4,1.4,8.2,1.1,12.4c-0.3,3.8-1.1,7.5-2.4,11
					C89.3,89.5,88.8,89.8,88.3,89.8z"/>
			</g>
			<g>
				<path d="M66.2,97.5c-0.2,0-0.3-0.1-0.5-0.1c-0.5-0.3-0.7-1-0.4-1.5c3.3-5.7,8.9-9,15.6-9.2c5.5-0.2,10.7,1.9,12.8,5
					c0.3,0.5,0.2,1.2-0.3,1.5c-0.5,0.3-1.2,0.2-1.5-0.3c-1.7-2.5-6.3-4.2-11-4.1c-3.4,0.1-9.8,1.3-13.8,8.2
					C67,97.3,66.6,97.5,66.2,97.5z"/>
			</g>
			<g>
				<path d="M65.6,116.9c-1.1-0.1-2-0.2-2.7-0.3c-0.6-0.1-1-0.6-0.9-1.2c0.1-0.6,0.7-1,1.2-0.9c3.7,0.6,13.6,1.3,24.8-5.3
					c17.5-10.4,18.6-46.8,14.2-62.5c-4.5-16.3-15.4-26.4-29.8-27.9c-14.8-1.5-28.2,3.9-35.9,14.5c-2.1,2.9-2.9,5.6-2.4,7.8
					c0.4,1.6,1.4,2.7,2.2,3.1c1.3,0.7,10.1-1.7,12.9-6.1c0.2-0.2,0.4-0.4,0.7-0.5c0.3-0.1,0.6,0,0.8,0.2c5.6,4,12.3,2.8,18.1,1.4
					c0.6-0.1,1.2,0.2,1.3,0.8c0.1,0.6-0.2,1.2-0.8,1.3c-6.4,1.6-13.2,2.5-19-1.1c-3.7,4.5-12.5,7.3-15.1,5.9
					c-1.2-0.7-2.7-2.2-3.3-4.5c-0.5-2-0.3-5.2,2.8-9.5C42.9,20.8,57,15.1,72.6,16.7c15.4,1.5,26.9,12.3,31.7,29.4
					c2.1,7.4,3.2,20.9,1.2,34.2c-1.6,10.6-5.8,24.5-16.3,30.7C79.4,116.8,70.6,117.3,65.6,116.9z"/>
			</g>
			<g>
				<path fill="#FF8800" d="M90.5,25.7c-4.3-0.6-1.2,2.8,0.2,4.1c1.3,1.3,10.9,11.3,20.6,9.1c9.7-2.2,13.1-9.8,11.2-10.5
					C120.7,27.8,99.3,27,90.5,25.7z"/>
			</g>
			<g>
				<path d="M89.6,26.7c0.3,0.5,0.9,1.3,1.9,2.3l0.3,0.2c7,6.9,12.5,8.6,15.9,8.8l0,0c1.2,0.1,2.4,0,3.5-0.3
					c5.3-1.2,8.8-4.2,10.2-6.6c0.5-0.9,0.7-1.5,0.7-1.8c-0.7-0.1-2.6-0.3-5.5-0.5c-1.6-0.1-3.4-0.2-5.3-0.3
					c-2.2-0.1-4.5-0.3-6.8-0.4c-4.3-0.3-10.4-0.8-14.1-1.3C90.1,26.7,89.8,26.7,89.6,26.7z M107.5,40.2L107.5,40.2
					c-3.7-0.3-9.8-2.1-17.2-9.4L90,30.5c-3.3-3.2-2.7-4.5-2.5-4.9c0.4-0.8,1.2-1.2,2.6-1.1c0.2,0,0.4,0,0.7,0.1
					c3.7,0.6,9.7,1,14,1.3c2.3,0.2,4.6,0.3,6.8,0.4c1.9,0.1,3.7,0.2,5.3,0.3c4.5,0.3,5.8,0.5,6.3,0.6c0.8,0.3,1.3,1,1.2,2.1
					c-0.1,2.6-4,8.5-12.6,10.5C110.3,40.2,108.9,40.3,107.5,40.2z"/>
			</g>
			<g>
				<path d="M48.5,32.3c-1.8,1.2-1.4,2.8,0.5,3.1c1.9,0.4,2,0.5,3.9-0.7c2-1.3,2.4-3.7,0.2-3.6C51,31.3,49.5,31.7,48.5,32.3z"/>
			</g>
			<g>
				<path d="M43.4,32.9c-0.1,1.2-1.1,2.1-2.3,2c-1.2-0.1-2.1-1.1-2-2.3c0.1-1.2,1.1-2.1,2.3-2C42.6,30.7,43.5,31.7,43.4,32.9z"/>
			</g>
			<g>
				<path d="M68.6,28.7c-0.1,1.2-1.1,2.1-2.3,2c-1.2-0.1-2.1-1.1-2-2.3c0.1-1.2,1.1-2.1,2.3-2C67.8,26.5,68.7,27.5,68.6,28.7z"/>
			</g>
			<g>
				<path d="M42,143.3c-8.3-0.6-16.2-4.7-21.1-9.3c-3.7-3.5-5.7-7.2-5.4-10.1c0.4-3.5,2.3-5.9,5.3-6.4c3.9-0.7,9.4,1.8,12.6,8.1
					c2.6,5.1,7.9,6.5,11.8,6.7c11.8,0.6,25.9-7.3,33-18.3c0.3-0.5,1-0.6,1.5-0.3c0.5,0.3,0.6,1,0.3,1.5c-7.4,11.6-22.4,20-34.9,19.3
					c-6.4-0.3-11.2-3.1-13.6-7.8c-2.7-5.3-7.2-7.5-10.3-6.9c-2.1,0.4-3.3,2-3.6,4.5c-0.2,2.2,1.5,5.3,4.7,8.3
					c5.7,5.4,15.8,10.1,25.5,8.5c17.9-2.9,34.5-16,39.6-31.1c0.2-0.6,0.8-0.9,1.4-0.7c0.6,0.2,0.9,0.8,0.7,1.4
					C84.2,126.3,66.9,140,48.3,143C46.2,143.4,44.1,143.5,42,143.3z"/>
			</g>
			<g>
				<path d="M93.7,70c-0.3,0-0.5-0.1-0.7-0.3l-0.8-0.8C85.7,62.1,81.8,58,75.5,56.3c-3.8-1.1-8.4-0.4-12.5,0.3
					C60,57,57.3,57.4,55.3,57c-3.1-0.5-5.5-2.4-6.1-4.7c-0.4-1.6-0.1-4.1,3.6-6.9c6.9-5.3,19.1-6.2,27.8-2.1
					c0.5,0.3,0.8,0.9,0.5,1.4c-0.3,0.5-0.9,0.8-1.4,0.5c-8-3.8-19.2-3-25.5,1.9c-2.2,1.7-3.2,3.3-2.8,4.7c0.4,1.4,2.1,2.7,4.3,3
					c1.7,0.3,4.3-0.1,7.1-0.5c4.3-0.6,9.2-1.4,13.4-0.2c6.8,1.9,11.1,6.4,17.6,13.1l0.8,0.8c0.4,0.4,0.4,1.1,0,1.5
					C94.3,69.9,94,70,93.7,70z"/>
			</g>
			<g>
				<path fill="#FFD200" d="M16.5,83.9C11,79,4.2,82.5,5.1,89.5c0.8,5.7,9.6,16.9,16.4,19c5.8,1.8,5.1-4.7,4.3-6.9
					C24.4,97.8,19.4,86.5,16.5,83.9z"/>
			</g>
			<g>
				<path d="M11.5,82.7c-1.5-0.1-2.9,0.4-3.9,1.5c-1.2,1.3-1.7,3.1-1.4,5.2c0.7,5.3,9.4,16.2,15.6,18.2c0.5,0.2,0.9,0.2,1.3,0.3
					c1,0.1,1.4-0.3,1.6-0.6c0.9-1.1,0.6-3.7,0.1-5.2c-1.5-4.1-6.3-15-9-17.4C14.5,83.5,13,82.8,11.5,82.7z M23,110L23,110
					c-0.5,0-1.2-0.2-1.8-0.4C14,107.4,4.9,95.8,4.1,89.7c-0.4-2.7,0.3-5.2,1.9-6.9c1.4-1.5,3.5-2.3,5.7-2.2c1.9,0.1,3.9,1,5.6,2.5
					c3.3,3,8.5,15.2,9.6,18.3c0.5,1.3,1.3,5-0.4,7.2C25.9,109.3,24.8,110.1,23,110z"/>
			</g>
			<g>
				<path fill="#FFD200" d="M65.2,111.9c0,0-2,8.2-9.9,7.7c-7.8-0.5-3.9-9.8-4.4-16.1c-0.5-6.2-3.8-14.6,2.2-18
					c6-3.4,12.1,8.2,13,12.6C67.5,103.9,67,107.4,65.2,111.9z"/>
			</g>
			<g>
				<path d="M55.6,86.3c-0.6,0-1.2,0.1-1.7,0.4c-3.5,2-3.1,6.1-2.1,12.2c0.3,1.5,0.5,3,0.6,4.5c0.2,1.9-0.1,3.9-0.3,5.9
					c-0.3,3.1-0.6,6.3,0.6,7.8c0.5,0.6,1.4,1,2.7,1.1c6.5,0.5,8.3-6.3,8.4-6.6c0-0.1,0-0.1,0.1-0.2c1.5-3.9,2.2-7.2,0.9-13
					C64,94.5,59.5,86.5,55.6,86.3z M55.3,121c-2.1-0.1-3.7-0.8-4.7-2.1c-2-2.4-1.6-6.2-1.3-9.9c0.2-1.9,0.4-3.8,0.3-5.4
					c-0.1-1.3-0.3-2.7-0.6-4.2c-0.9-5.6-2-12,3.5-15.1c1.1-0.6,2.2-0.9,3.3-0.8c6.2,0.4,11,10.6,11.8,14.4c1.4,6.4,0.7,10.2-1,14.5
					C65.8,115.6,62.4,121.5,55.3,121z"/>
			</g>
		</g>
		
			<path fill="#FFD200" stroke="#000000" stroke-width="2.7775" stroke-linecap="round" stroke-linejoin="round" stroke-miterlimit="10" d="
			M19.4,78.1"/>
		<g>
			
				<path fill="#FFFFFF" stroke="#000000" stroke-width="1.8516" stroke-linecap="round" stroke-linejoin="round" stroke-miterlimit="10" d="
				M7.2,10.7c-8,9.6-3,21-0.9,24.4c1.5,2.3,1.5,4.6,0.4,6.4c-0.7,1-0.2,2.4,1,2.7l8.6,2.1c1.2,0.3,2.2-0.7,2.1-1.8
				c-0.2-1.7,0.4-3.9,3.2-6c5.4-4,11.7-8.9,10-22.2L7.2,10.7z"/>
			<path fill="#FFD200" d="M8.4,13c-4.6,5.7-3.8,21,4.4,23.4c8.2,2.4,16.5-5.3,16.9-17.4C30.2,7,8.4,13,8.4,13z"/>
			
				<path fill="#FFFFFF" stroke="#000000" stroke-width="1.8516" stroke-linecap="round" stroke-linejoin="round" stroke-miterlimit="10" d="
				M26.1,6.4C8.3-0.3,6.4,3.1,5.8,7.2c-0.6,4.1,6.7,11.9,12.9,5.5c4.6,6.5,16.9,9.6,17.5,2.5c5.8,1.5,8.8-0.8,6.2-3.8
				C39.8,8.3,26.1,6.4,26.1,6.4z"/>
			
				<path fill="#FFFFFF" stroke="#000000" stroke-width="1.8516" stroke-linecap="round" stroke-linejoin="round" stroke-miterlimit="10" d="
				M51.4,7.4c-2.6,0.1-2.6,5.3,1.2,4.5C56.4,11.2,54,7.3,51.4,7.4z"/>
		</g>
	</g>
	<g>
		<g>
			<g>
				<defs>
					<path id="XMLID_3_" d="M85.6,47.8H23.2c0,0-7,12.3-4.6,32.3c2.4,20,10.8,28,10.8,28s6.9,8.4,24.8,8.4c17.8,0,25.1-8.4,25.1-8.4
						s9.1-7.7,10.8-28C91.9,59.8,85.6,47.8,85.6,47.8z"/>
				</defs>
				<clipPath id="XMLID_17_">
					<use xlink:href="#XMLID_3_"  overflow="visible"/>
				</clipPath>
			</g>
			<g>
				<defs>
					<path id="SVGID_13_" d="M81.8,48.9c0,6.1-12.3,11.1-27.4,11.1c-15.1,0-27.4-5-27.4-11.1c0-6.1,12.3-11.1,27.4-11.1
						C69.5,37.8,81.8,42.8,81.8,48.9z"/>
				</defs>
				<clipPath id="SVGID_14_">
					<use xlink:href="#SVGID_13_"  overflow="visible"/>
				</clipPath>
			</g>
		</g>
		<g>
			<g>
				<defs>
					<path id="XMLID_2_" d="M85.6,47.8H23.2c0,0-7,12.3-4.6,32.3c2.4,20,10.8,28,10.8,28s6.9,8.4,24.8,8.4c17.8,0,25.1-8.4,25.1-8.4
						s9.1-7.7,10.8-28C91.9,59.8,85.6,47.8,85.6,47.8z"/>
				</defs>
				<clipPath id="XMLID_18_">
					<use xlink:href="#XMLID_2_"  overflow="visible"/>
				</clipPath>
			</g>
			<g>
				<defs>
					<path id="SVGID_15_" d="M81.8,48.9c0,6.1-12.3,11.1-27.4,11.1c-15.1,0-27.4-5-27.4-11.1c0-6.1,12.3-11.1,27.4-11.1
						C69.5,37.8,81.8,42.8,81.8,48.9z"/>
				</defs>
				<clipPath id="SVGID_16_">
					<use xlink:href="#SVGID_15_"  overflow="visible"/>
				</clipPath>
			</g>
		</g>
		<g>
			<g>
				<defs>
					<path id="XMLID_1_" d="M85.6,47.8H23.2c0,0-7,12.3-4.6,32.3c2.4,20,10.8,28,10.8,28s6.9,8.4,24.8,8.4c17.8,0,25.1-8.4,25.1-8.4
						s9.1-7.7,10.8-28C91.9,59.8,85.6,47.8,85.6,47.8z"/>
				</defs>
				<clipPath id="XMLID_19_">
					<use xlink:href="#XMLID_1_"  overflow="visible"/>
				</clipPath>
			</g>
			<g>
				<defs>
					<path id="SVGID_17_" d="M81.8,48.9c0,6.1-12.3,11.1-27.4,11.1c-15.1,0-27.4-5-27.4-11.1c0-6.1,12.3-11.1,27.4-11.1
						C69.5,37.8,81.8,42.8,81.8,48.9z"/>
				</defs>
				<clipPath id="SVGID_18_">
					<use xlink:href="#SVGID_17_"  overflow="visible"/>
				</clipPath>
			</g>
		</g>
	</g>
</g>
</svg>
