<?xml version="1.0" encoding="utf-8"?>
<!-- Generator: Adobe Illustrator 14.0.0, SVG Export Plug-In  -->
<!DOCTYPE svg PUBLIC "-//W3C//DTD SVG 1.1//EN" "http://www.w3.org/Graphics/SVG/1.1/DTD/svg11.dtd" [
	<!ENTITY ns_flows "http://ns.adobe.com/Flows/1.0/">
]>
<svg version="1.1"
	 xmlns="http://www.w3.org/2000/svg" xmlns:xlink="http://www.w3.org/1999/xlink" xmlns:a="http://ns.adobe.com/AdobeSVGViewerExtensions/3.0/"
	 x="0px" y="0px" width="127px" height="147px" viewBox="-0.433 85.019 127 147" enable-background="new -0.433 85.019 127 147"
	 xml:space="preserve">
<defs>
</defs>
<path fill="none" stroke="#000000" stroke-width="4.7749" d="M30.333,116.38c-2.31-1.115-8.197-1.124-7.946,5.106
	c0.257,6.23,6.522,9.479,10.551,10.602c2.2,0.612,2.445-2.023,3.524-2.962C39.513,126.47,32.573,117.459,30.333,116.38z"/>
<g>
	<defs>
		<path id="XMLID_18_" d="M85.121,133.522H22.793c0,0-6.989,12.346-4.591,32.35c2.398,20.008,10.824,27.97,10.824,27.97
			s6.941,8.355,24.789,8.355c17.846,0,25.073-8.355,25.073-8.355s9.065-7.747,10.824-27.987
			C91.473,145.611,85.121,133.522,85.121,133.522z"/>
	</defs>
	<clipPath id="XMLID_19_">
		<use xlink:href="#XMLID_18_"  overflow="visible"/>
	</clipPath>
	<path clip-path="url(#XMLID_19_)" fill="none" stroke="#000000" stroke-width="4.7749" d="M38.092,141.9
		c0,0-4.532,33.811,5.477,56.474"/>
	<path clip-path="url(#XMLID_19_)" fill="none" stroke="#000000" stroke-width="4.7749" d="M26.193,140.391
		c-6.989,13.787-2.644,42.684,9.254,56.66"/>
	<path clip-path="url(#XMLID_19_)" fill="none" stroke="#000000" stroke-width="4.7749" d="M68.689,141.9
		c0,0,4.533,33.811-5.478,56.474"/>
	<path clip-path="url(#XMLID_19_)" fill="none" stroke="#000000" stroke-width="4.7749" d="M80.588,140.391
		c6.986,13.787,2.643,42.684-9.256,56.66"/>
	
		<line clip-path="url(#XMLID_19_)" fill="none" stroke="#000000" stroke-width="4.7749" x1="53.39" y1="198.94" x2="53.39" y2="143.979"/>
	
		<ellipse clip-path="url(#XMLID_19_)" fill="none" stroke="#000000" stroke-width="4.7749" cx="53.955" cy="137.623" rx="33.855" ry="15.258"/>
	<g clip-path="url(#XMLID_19_)">
		<g>
			<path fill="none" stroke="#000000" stroke-width="4.7749" d="M86.924,180.952c-1.899,8.532-16.486,16.652-32.967,16.652
				c-17.093,0-31.2-8.556-32.12-17.411c-2.553,2.137-4.002,4.556-4.002,7.124c0,8.601,16.174,15.574,36.122,15.574
				c19.948,0,36.122-6.974,36.122-15.574C90.079,185.047,88.946,182.897,86.924,180.952z"/>
		</g>
		<g>
			<path fill="none" stroke="#000000" stroke-width="4.7749" d="M86.924,180.952c-1.899,8.532-16.486,16.652-32.967,16.652
				c-17.093,0-31.2-8.556-32.12-17.411c-2.553,2.137-4.002,4.556-4.002,7.124c0,8.601,16.174,15.574,36.122,15.574
				c19.948,0,36.122-6.974,36.122-15.574C90.079,185.047,88.946,182.897,86.924,180.952z"/>
		</g>
		<g>
			<path fill="none" stroke="#000000" stroke-width="4.7749" d="M86.924,180.952c-1.899,8.532-16.486,16.652-32.967,16.652
				c-17.093,0-31.2-8.556-32.12-17.411c-2.553,2.137-4.002,4.556-4.002,7.124c0,8.601,16.174,15.574,36.122,15.574
				c19.948,0,36.122-6.974,36.122-15.574C90.079,185.047,88.946,182.897,86.924,180.952z"/>
		</g>
	</g>
</g>
<path fill="none" stroke="#000000" stroke-width="4.7749" d="M40.282,153.886c-14.72-2.418-25.816,15.607-13.713,29.359
	c12.271,13.933,29.562,3.921,30.018-9.13C56.938,163.994,48.442,155.484,40.282,153.886 M26.112,159.978
	c4.946-5.242,13.864-8.324,22.713,0.234c-0.063-0.02-6.011-1.195-2.165,5.718c2.079,3.731,2.029,6.316-0.22,11.046
	c-0.863,2.397-1.127,3.118-1.928,5.604c-2.352-6.95-4.253-12.837-5.548-20.095c1.623,0.169,3.47,0.362,2.61-0.815
	c-0.109-0.152-8.657-1.419-8.736-1.427c-0.662-0.055-0.831,0.624-0.835,0.632c-0.111,0.54,0.001,0.559,1.846,0.901
	c0.299,2.522,0.431,3.674,1.354,7.479c-1.128,3.104-2.294,6.316-2.831,11.594c-3.311-8.025-4.472-13.322-4.279-19.552
	c0.57-0.174,1.295,0.123,1.814-0.221c0.357-0.232,0.572-0.894,0.169-1.079C28.634,159.355,27.443,160.041,26.112,159.978
	 M44.698,186.996c2.052-5.838,5.119-11.152,7.139-17.002c0.39-1.134,0.794-2.945,0.496-5.143
	C56.375,172.513,55.05,182.577,44.698,186.996 M31.203,185.614c-9.538-6.507-10.575-16.732-6.677-23.472
	C24.066,169.632,25.876,175.989,31.203,185.614 M36.917,187.884c-1.266-0.229-2.284-0.544-3.521-1.083
	c-0.105-3.563-0.007-7.958,2.483-15.058c2.802,9.059,6.124,16.007,6.148,16.045C41.359,187.916,39.326,188.307,36.917,187.884"/>
<path fill="none" stroke="#000000" stroke-width="4.7749" d="M85.121,133.522c0,7.758-13.953,14.045-31.164,14.045
	c-17.213,0-31.164-6.287-31.164-14.045c0-7.753,13.951-14.042,31.164-14.042C71.167,119.48,85.121,125.77,85.121,133.522z"/>
<g>
	<defs>
		<path id="SVGID_9_" d="M81.329,134.711c0,6.138-12.254,11.113-27.372,11.113c-15.117,0-27.372-4.976-27.372-11.113
			c0-6.141,12.255-11.115,27.372-11.115C69.075,123.596,81.329,128.57,81.329,134.711z"/>
	</defs>
	<clipPath id="SVGID_10_">
		<use xlink:href="#SVGID_9_"  overflow="visible"/>
	</clipPath>
	<g clip-path="url(#SVGID_10_)">
		<line fill="none" stroke="#000000" stroke-width="4.7749" x1="26.004" y1="135.562" x2="54.522" y2="122.527"/>
		<line fill="none" stroke="#000000" stroke-width="4.7749" x1="30.727" y1="140.658" x2="67.555" y2="124.229"/>
		<line fill="none" stroke="#000000" stroke-width="4.7749" x1="39.791" y1="145.007" x2="77.566" y2="128.194"/>
		<line fill="none" stroke="#000000" stroke-width="4.7749" x1="53.39" y1="146.894" x2="82.855" y2="133.862"/>
	</g>
</g>
<g>
	<defs>
		<path id="XMLID_17_" d="M85.121,133.522H22.793c0,0-6.989,12.346-4.591,32.35c2.398,20.008,10.824,27.97,10.824,27.97
			s6.941,8.355,24.789,8.355c17.846,0,25.073-8.355,25.073-8.355s9.065-7.747,10.824-27.987
			C91.473,145.611,85.121,133.522,85.121,133.522z"/>
	</defs>
	<clipPath id="XMLID_20_">
		<use xlink:href="#XMLID_17_"  overflow="visible"/>
	</clipPath>
	<path clip-path="url(#XMLID_20_)" fill="none" stroke="#000000" stroke-width="4.7749" d="M38.092,141.9
		c0,0-4.532,33.811,5.477,56.474"/>
	<path clip-path="url(#XMLID_20_)" fill="none" stroke="#000000" stroke-width="4.7749" d="M26.193,140.391
		c-6.989,13.787-2.644,42.684,9.254,56.66"/>
	<path clip-path="url(#XMLID_20_)" fill="none" stroke="#000000" stroke-width="4.7749" d="M68.689,141.9
		c0,0,4.533,33.811-5.478,56.474"/>
	<path clip-path="url(#XMLID_20_)" fill="none" stroke="#000000" stroke-width="4.7749" d="M80.588,140.391
		c6.986,13.787,2.643,42.684-9.256,56.66"/>
	
		<line clip-path="url(#XMLID_20_)" fill="none" stroke="#000000" stroke-width="4.7749" x1="53.39" y1="198.94" x2="53.39" y2="143.979"/>
	
		<ellipse clip-path="url(#XMLID_20_)" fill="none" stroke="#000000" stroke-width="4.7749" cx="53.955" cy="137.623" rx="33.855" ry="15.258"/>
	<g clip-path="url(#XMLID_20_)">
		<g>
			<path fill="none" stroke="#000000" stroke-width="4.7749" d="M86.924,180.952c-1.899,8.532-16.486,16.652-32.967,16.652
				c-17.093,0-31.2-8.556-32.12-17.411c-2.553,2.137-4.002,4.556-4.002,7.124c0,8.601,16.174,15.574,36.122,15.574
				c19.948,0,36.122-6.974,36.122-15.574C90.079,185.047,88.946,182.897,86.924,180.952z"/>
		</g>
		<g>
			<path fill="none" stroke="#000000" stroke-width="4.7749" d="M86.924,180.952c-1.899,8.532-16.486,16.652-32.967,16.652
				c-17.093,0-31.2-8.556-32.12-17.411c-2.553,2.137-4.002,4.556-4.002,7.124c0,8.601,16.174,15.574,36.122,15.574
				c19.948,0,36.122-6.974,36.122-15.574C90.079,185.047,88.946,182.897,86.924,180.952z"/>
		</g>
		<g>
			<path fill="none" stroke="#000000" stroke-width="4.7749" d="M86.924,180.952c-1.899,8.532-16.486,16.652-32.967,16.652
				c-17.093,0-31.2-8.556-32.12-17.411c-2.553,2.137-4.002,4.556-4.002,7.124c0,8.601,16.174,15.574,36.122,15.574
				c19.948,0,36.122-6.974,36.122-15.574C90.079,185.047,88.946,182.897,86.924,180.952z"/>
		</g>
	</g>
</g>
<path fill="none" stroke="#000000" stroke-width="4.7749" d="M40.282,153.886c-14.72-2.418-25.816,15.607-13.713,29.359
	c12.271,13.933,29.562,3.921,30.018-9.13C56.938,163.994,48.442,155.484,40.282,153.886 M26.112,159.978
	c4.946-5.242,13.864-8.324,22.713,0.234c-0.063-0.02-6.011-1.195-2.165,5.718c2.079,3.731,2.029,6.316-0.22,11.046
	c-0.863,2.397-1.127,3.118-1.928,5.604c-2.352-6.95-4.253-12.837-5.548-20.095c1.623,0.169,3.47,0.362,2.61-0.815
	c-0.109-0.152-8.657-1.419-8.736-1.427c-0.662-0.055-0.831,0.624-0.835,0.632c-0.111,0.54,0.001,0.559,1.846,0.901
	c0.299,2.522,0.431,3.674,1.354,7.479c-1.128,3.104-2.294,6.316-2.831,11.594c-3.311-8.025-4.472-13.322-4.279-19.552
	c0.57-0.174,1.295,0.123,1.814-0.221c0.357-0.232,0.572-0.894,0.169-1.079C28.634,159.355,27.443,160.041,26.112,159.978
	 M44.698,186.996c2.052-5.838,5.119-11.152,7.139-17.002c0.39-1.134,0.794-2.945,0.496-5.143
	C56.375,172.513,55.05,182.577,44.698,186.996 M31.203,185.614c-9.538-6.507-10.575-16.732-6.677-23.472
	C24.066,169.632,25.876,175.989,31.203,185.614 M36.917,187.884c-1.266-0.229-2.284-0.544-3.521-1.083
	c-0.105-3.563-0.007-7.958,2.483-15.058c2.802,9.059,6.124,16.007,6.148,16.045C41.359,187.916,39.326,188.307,36.917,187.884"/>
<path fill="none" stroke="#000000" stroke-width="4.7749" d="M85.121,133.522c0,7.758-13.953,14.045-31.164,14.045
	c-17.213,0-31.164-6.287-31.164-14.045c0-7.753,13.951-14.042,31.164-14.042C71.167,119.48,85.121,125.77,85.121,133.522z"/>
<g>
	<defs>
		<path id="SVGID_8_" d="M81.329,134.711c0,6.138-12.254,11.113-27.372,11.113c-15.117,0-27.372-4.976-27.372-11.113
			c0-6.141,12.255-11.115,27.372-11.115C69.075,123.596,81.329,128.57,81.329,134.711z"/>
	</defs>
	<clipPath id="SVGID_11_">
		<use xlink:href="#SVGID_8_"  overflow="visible"/>
	</clipPath>
	<g clip-path="url(#SVGID_11_)">
		<line fill="none" stroke="#000000" stroke-width="4.7749" x1="26.004" y1="135.562" x2="54.522" y2="122.527"/>
		<line fill="none" stroke="#000000" stroke-width="4.7749" x1="30.727" y1="140.658" x2="67.555" y2="124.229"/>
		<line fill="none" stroke="#000000" stroke-width="4.7749" x1="39.791" y1="145.007" x2="77.566" y2="128.194"/>
		<line fill="none" stroke="#000000" stroke-width="4.7749" x1="53.39" y1="146.894" x2="82.855" y2="133.862"/>
	</g>
</g>
<g>
	<defs>
		<path id="XMLID_16_" d="M85.121,133.522H22.793c0,0-6.989,12.346-4.591,32.35c2.398,20.008,10.824,27.97,10.824,27.97
			s6.941,8.355,24.789,8.355c17.846,0,25.073-8.355,25.073-8.355s9.065-7.747,10.824-27.987
			C91.473,145.611,85.121,133.522,85.121,133.522z"/>
	</defs>
	<clipPath id="XMLID_21_">
		<use xlink:href="#XMLID_16_"  overflow="visible"/>
	</clipPath>
	<path clip-path="url(#XMLID_21_)" fill="none" stroke="#000000" stroke-width="4.7749" d="M38.092,141.9
		c0,0-4.532,33.811,5.477,56.474"/>
	<path clip-path="url(#XMLID_21_)" fill="none" stroke="#000000" stroke-width="4.7749" d="M26.193,140.391
		c-6.989,13.787-2.644,42.684,9.254,56.66"/>
	<path clip-path="url(#XMLID_21_)" fill="none" stroke="#000000" stroke-width="4.7749" d="M68.689,141.9
		c0,0,4.533,33.811-5.478,56.474"/>
	<path clip-path="url(#XMLID_21_)" fill="none" stroke="#000000" stroke-width="4.7749" d="M80.588,140.391
		c6.986,13.787,2.643,42.684-9.256,56.66"/>
	
		<line clip-path="url(#XMLID_21_)" fill="none" stroke="#000000" stroke-width="4.7749" x1="53.39" y1="198.94" x2="53.39" y2="143.979"/>
	
		<ellipse clip-path="url(#XMLID_21_)" fill="none" stroke="#000000" stroke-width="4.7749" cx="53.955" cy="137.623" rx="33.855" ry="15.258"/>
	<g clip-path="url(#XMLID_21_)">
		<g>
			<path fill="none" stroke="#000000" stroke-width="4.7749" d="M86.924,180.952c-1.899,8.532-16.486,16.652-32.967,16.652
				c-17.093,0-31.2-8.556-32.12-17.411c-2.553,2.137-4.002,4.556-4.002,7.124c0,8.601,16.174,15.574,36.122,15.574
				c19.948,0,36.122-6.974,36.122-15.574C90.079,185.047,88.946,182.897,86.924,180.952z"/>
		</g>
		<g>
			<path fill="none" stroke="#000000" stroke-width="4.7749" d="M86.924,180.952c-1.899,8.532-16.486,16.652-32.967,16.652
				c-17.093,0-31.2-8.556-32.12-17.411c-2.553,2.137-4.002,4.556-4.002,7.124c0,8.601,16.174,15.574,36.122,15.574
				c19.948,0,36.122-6.974,36.122-15.574C90.079,185.047,88.946,182.897,86.924,180.952z"/>
		</g>
		<g>
			<path fill="none" stroke="#000000" stroke-width="4.7749" d="M86.924,180.952c-1.899,8.532-16.486,16.652-32.967,16.652
				c-17.093,0-31.2-8.556-32.12-17.411c-2.553,2.137-4.002,4.556-4.002,7.124c0,8.601,16.174,15.574,36.122,15.574
				c19.948,0,36.122-6.974,36.122-15.574C90.079,185.047,88.946,182.897,86.924,180.952z"/>
		</g>
	</g>
</g>
<path fill="none" stroke="#000000" stroke-width="4.7749" d="M40.282,153.886c-14.72-2.418-25.816,15.607-13.713,29.359
	c12.271,13.933,29.562,3.921,30.018-9.13C56.938,163.994,48.442,155.484,40.282,153.886 M26.112,159.978
	c4.946-5.242,13.864-8.324,22.713,0.234c-0.063-0.02-6.011-1.195-2.165,5.718c2.079,3.731,2.029,6.316-0.22,11.046
	c-0.863,2.397-1.127,3.118-1.928,5.604c-2.352-6.95-4.253-12.837-5.548-20.095c1.623,0.169,3.47,0.362,2.61-0.815
	c-0.109-0.152-8.657-1.419-8.736-1.427c-0.662-0.055-0.831,0.624-0.835,0.632c-0.111,0.54,0.001,0.559,1.846,0.901
	c0.299,2.522,0.431,3.674,1.354,7.479c-1.128,3.104-2.294,6.316-2.831,11.594c-3.311-8.025-4.472-13.322-4.279-19.552
	c0.57-0.174,1.295,0.123,1.814-0.221c0.357-0.232,0.572-0.894,0.169-1.079C28.634,159.355,27.443,160.041,26.112,159.978
	 M44.698,186.996c2.052-5.838,5.119-11.152,7.139-17.002c0.39-1.134,0.794-2.945,0.496-5.143
	C56.375,172.513,55.05,182.577,44.698,186.996 M31.203,185.614c-9.538-6.507-10.575-16.732-6.677-23.472
	C24.066,169.632,25.876,175.989,31.203,185.614 M36.917,187.884c-1.266-0.229-2.284-0.544-3.521-1.083
	c-0.105-3.563-0.007-7.958,2.483-15.058c2.802,9.059,6.124,16.007,6.148,16.045C41.359,187.916,39.326,188.307,36.917,187.884"/>
<path fill="none" stroke="#000000" stroke-width="4.7749" d="M85.121,133.522c0,7.758-13.953,14.045-31.164,14.045
	c-17.213,0-31.164-6.287-31.164-14.045c0-7.753,13.951-14.042,31.164-14.042C71.167,119.48,85.121,125.77,85.121,133.522z"/>
<g>
	<defs>
		<path id="SVGID_7_" d="M81.329,134.711c0,6.138-12.254,11.113-27.372,11.113c-15.117,0-27.372-4.976-27.372-11.113
			c0-6.141,12.255-11.115,27.372-11.115C69.075,123.596,81.329,128.57,81.329,134.711z"/>
	</defs>
	<clipPath id="SVGID_12_">
		<use xlink:href="#SVGID_7_"  overflow="visible"/>
	</clipPath>
	<g clip-path="url(#SVGID_12_)">
		<line fill="none" stroke="#000000" stroke-width="4.7749" x1="26.004" y1="135.562" x2="54.522" y2="122.527"/>
		<line fill="none" stroke="#000000" stroke-width="4.7749" x1="30.727" y1="140.658" x2="67.555" y2="124.229"/>
		<line fill="none" stroke="#000000" stroke-width="4.7749" x1="39.791" y1="145.007" x2="77.566" y2="128.194"/>
		<line fill="none" stroke="#000000" stroke-width="4.7749" x1="53.39" y1="146.894" x2="82.855" y2="133.862"/>
	</g>
</g>
<path fill="none" stroke="#000000" stroke-width="4.7749" d="M88.098,195.89c-5.116,15.18-22.067,28.825-40.434,31.859
	c-15.806,2.604-32.245-10.59-31.499-17.948c0.846-8.286,11.243-7.111,15.866,2.05c7.085,14.034,35.161,6.49,46.683-11.591
	L88.098,195.89z"/>
<path fill="none" stroke="#000000" stroke-width="4.7749" d="M33.535,129.943c-0.11,0.069-0.219,0.146-0.329,0.222
	c0.158-0.049,0.32-0.089,0.479-0.136C33.636,129.997,33.584,129.977,33.535,129.943z"/>
<path fill="none" stroke="#000000" stroke-width="4.7749" d="M44.093,129.059c-0.161-0.01-0.316-0.032-0.478-0.043
	c-3.441-0.237-6.788,0.134-9.931,1.014C37.464,132.245,40.975,130.99,44.093,129.059z"/>
<path fill="none" stroke="#000000" stroke-width="4.7749" d="M61.76,201.441c5.766,0.918,15.373,0.502,25.473-5.468
	c18.22-10.776,19.081-47.901,14.681-63.742c-4.405-15.837-15.099-27.09-30.759-28.653c-15.663-1.556-29.222,4.436-36.875,14.901
	c-5.159,7.057-1.979,11.33,0.097,12.428c2.073,1.104,11.356-1.842,14.306-6.419c5.918,4.231,12.928,3.045,19.006,1.556l11.188,4.119
	c-8.795-4.196-20.356-2.843-26.665,1.976c-6.308,4.822-2.525,8.912,1.962,9.696c4.485,0.787,13.557-2.649,20.362-0.744
	c6.796,1.903,8.739,4.577,15.653,11.746c0,0,1.785,15.642-2.687,21.566c-6.729-4.53-18.584-0.014-22.947,8.356L61.76,201.441z"/>
<path fill="none" stroke="#000000" stroke-width="4.7749" d="M87.915,175.545c-0.103-0.009-0.196-0.031-0.302-0.066
	c-0.552-0.206-0.833-0.828-0.625-1.381c1.24-3.318,1.998-6.819,2.244-10.392c0.275-3.977-0.089-7.93-1.072-11.753
	c-0.147-0.575,0.192-1.157,0.771-1.306c0.571-0.15,1.159,0.195,1.306,0.769c1.045,4.047,1.428,8.229,1.135,12.437
	c-0.26,3.781-1.061,7.485-2.376,10.996C88.824,175.309,88.376,175.575,87.915,175.545z"/>
<path fill="none" stroke="#000000" stroke-width="4.7749" d="M65.795,183.238c-0.164-0.01-0.322-0.057-0.466-0.141
	c-0.513-0.297-0.688-0.955-0.39-1.468c3.275-5.661,8.948-9.027,15.558-9.24c5.453-0.173,10.73,1.903,12.833,5.044
	c0.33,0.498,0.195,1.163-0.297,1.489c-0.497,0.329-1.164,0.199-1.486-0.293c-1.688-2.523-6.294-4.242-10.983-4.098
	c-3.437,0.116-9.801,1.318-13.767,8.173C66.58,183.072,66.182,183.267,65.795,183.238z"/>
<path fill="none" stroke="#000000" stroke-width="4.7749" d="M65.121,202.718c-1.074-0.075-1.966-0.188-2.66-0.303
	c-0.583-0.09-0.985-0.638-0.894-1.222c0.093-0.59,0.658-0.984,1.231-0.891c3.731,0.585,13.606,1.256,24.755-5.336
	c17.546-10.369,18.58-46.751,14.193-62.527c-4.525-16.276-15.402-26.438-29.834-27.875c-14.78-1.473-28.2,3.938-35.903,14.463
	c-2.103,2.881-2.945,5.569-2.438,7.785c0.366,1.61,1.404,2.658,2.177,3.065c1.303,0.696,10.091-1.691,12.897-6.051
	c0.16-0.25,0.41-0.417,0.695-0.472c0.295-0.055,0.591,0.007,0.826,0.178c5.605,4.01,12.305,2.818,18.132,1.389
	c0.577-0.142,1.156,0.204,1.3,0.783c0.141,0.576-0.214,1.158-0.789,1.298c-6.427,1.578-13.163,2.509-19.013-1.135
	c-3.696,4.458-12.5,7.261-15.055,5.904c-1.228-0.65-2.731-2.164-3.265-4.48c-0.454-1.982-0.338-5.239,2.804-9.527
	c8.154-11.149,22.298-16.885,37.845-15.331c15.359,1.53,26.914,12.254,31.683,29.431c2.067,7.422,3.225,20.88,1.173,34.218
	c-1.629,10.576-5.785,24.499-16.337,30.736C78.958,202.546,70.136,203.064,65.121,202.718z"/>
<path fill="none" stroke="#000000" stroke-width="4.7749" d="M90.113,111.438c-4.253-0.641-1.152,2.788,0.192,4.079
	c1.344,1.286,10.931,11.269,20.644,9.072c9.712-2.197,13.106-9.846,11.234-10.454C120.313,113.525,98.864,112.761,90.113,111.438z"
	/>
<path fill="none" stroke="#000000" stroke-width="4.7749" d="M89.141,112.435c0.252,0.475,0.875,1.32,1.904,2.307l0.26,0.249
	c7,6.858,12.503,8.574,15.892,8.808l0,0c1.21,0.084,2.388-0.003,3.517-0.254c5.33-1.204,8.758-4.224,10.19-6.641
	c0.537-0.907,0.679-1.516,0.699-1.801c-0.709-0.126-2.555-0.286-5.502-0.491c-1.57-0.11-3.355-0.221-5.257-0.347
	c-2.157-0.138-4.466-0.287-6.768-0.445c-4.26-0.294-10.365-0.751-14.124-1.316C89.62,112.449,89.333,112.43,89.141,112.435z
	 M107.049,125.938L107.049,125.938c-3.746-0.259-9.777-2.106-17.244-9.414l-0.241-0.229c-3.304-3.169-2.729-4.47-2.538-4.896
	c0.357-0.82,1.228-1.188,2.562-1.097c0.209,0.015,0.432,0.04,0.683,0.077c3.687,0.555,9.728,1.007,13.954,1.301
	c2.296,0.156,4.598,0.304,6.756,0.447c1.908,0.12,3.697,0.234,5.269,0.341c4.53,0.314,5.758,0.479,6.265,0.647
	c0.816,0.267,1.277,1.037,1.229,2.057c-0.115,2.604-4.035,8.535-12.56,10.461C109.853,125.936,108.464,126.037,107.049,125.938z"/>
<path fill="none" stroke="#000000" stroke-width="4.7749" d="M48.072,118.093c-1.793,1.16-1.384,2.771,0.499,3.141
	c1.887,0.373,2.025,0.503,3.87-0.689c2.004-1.294,2.403-3.654,0.247-3.567C50.532,117.07,49.07,117.442,48.072,118.093z"/>
<path fill="none" stroke="#000000" stroke-width="4.7749" d="M43.01,118.696c-0.081,1.186-1.103,2.076-2.282,1.993
	c-1.188-0.081-2.077-1.103-1.994-2.288c0.081-1.181,1.103-2.07,2.289-1.988C42.203,116.494,43.09,117.517,43.01,118.696z"/>
<path fill="none" stroke="#000000" stroke-width="4.7749" d="M68.158,114.461c-0.08,1.184-1.109,2.074-2.289,1.992
	c-1.184-0.081-2.076-1.102-1.993-2.288c0.082-1.183,1.103-2.07,2.289-1.988C67.345,112.259,68.238,113.28,68.158,114.461z"/>
<path fill="none" stroke="#000000" stroke-width="4.7749" d="M41.604,229.081c-8.322-0.573-16.245-4.701-21.127-9.296
	c-3.712-3.487-5.673-7.167-5.379-10.099c0.358-3.511,2.301-5.851,5.333-6.411c3.852-0.714,9.408,1.838,12.557,8.091
	c2.603,5.148,7.882,6.481,11.832,6.666c11.77,0.587,25.95-7.297,32.99-18.347c0.321-0.5,0.985-0.646,1.484-0.325
	c0.498,0.317,0.643,0.98,0.325,1.479c-7.419,11.648-22.43,19.963-34.91,19.338c-6.429-0.338-11.238-3.108-13.631-7.842
	c-2.682-5.315-7.189-7.517-10.259-6.949c-2.056,0.38-3.33,1.985-3.585,4.52c-0.229,2.229,1.534,5.331,4.711,8.322
	c5.712,5.368,15.826,10.062,25.542,8.464c17.86-2.948,34.514-16.046,39.592-31.143c0.19-0.561,0.796-0.866,1.36-0.677
	c0.56,0.189,0.864,0.801,0.675,1.36c-5.32,15.809-22.681,29.504-41.277,32.575C45.763,229.148,43.668,229.225,41.604,229.081z"/>
<path fill="none" stroke="#000000" stroke-width="4.7749" d="M93.261,155.748c-0.254-0.02-0.507-0.129-0.702-0.328l-0.794-0.824
	c-6.484-6.733-10.401-10.805-16.653-12.554c-3.762-1.053-8.385-0.355-12.462,0.256c-3.099,0.469-5.763,0.872-7.796,0.513
	c-3.12-0.547-5.499-2.375-6.052-4.652c-0.394-1.606-0.082-4.115,3.625-6.948c6.928-5.299,19.132-6.219,27.779-2.1
	c0.536,0.255,0.756,0.896,0.506,1.427c-0.256,0.54-0.896,0.767-1.434,0.509c-7.979-3.807-19.2-2.987-25.544,1.866
	c-2.176,1.661-3.188,3.345-2.85,4.736c0.352,1.431,2.096,2.654,4.339,3.048c1.693,0.296,4.323-0.102,7.104-0.521
	c4.293-0.647,9.164-1.381,13.367-0.199c6.813,1.911,11.115,6.372,17.621,13.133l0.795,0.823c0.409,0.422,0.397,1.104-0.031,1.513
	C93.851,155.665,93.555,155.766,93.261,155.748z"/>
<path fill="none" stroke="#000000" stroke-width="4.7749" d="M16.074,169.646c-5.502-4.867-12.333-1.329-11.388,5.667
	c0.783,5.746,9.632,16.934,16.368,19.049c5.849,1.838,5.087-4.655,4.297-6.867C23.952,183.574,18.999,172.238,16.074,169.646z"/>
<path fill="none" stroke="#000000" stroke-width="4.7749" d="M11.067,168.479c-1.536-0.106-2.937,0.427-3.942,1.496
	c-1.166,1.252-1.659,3.097-1.376,5.193c0.728,5.347,9.387,16.211,15.624,18.174c0.482,0.15,0.915,0.236,1.296,0.262
	c0.99,0.07,1.385-0.29,1.595-0.571c0.858-1.126,0.595-3.733,0.081-5.176c-1.478-4.138-6.324-15.044-8.979-17.411
	C14.021,169.265,12.537,168.581,11.067,168.479z M22.521,195.748L22.521,195.748c-0.547-0.038-1.15-0.161-1.786-0.359
	c-7.12-2.24-16.273-13.792-17.11-19.934c-0.369-2.743,0.32-5.21,1.938-6.943c1.436-1.527,3.49-2.32,5.655-2.173
	c1.943,0.135,3.87,1.003,5.568,2.507c3.334,2.956,8.489,15.247,9.581,18.285c0.45,1.262,1.259,5.019-0.39,7.202
	C25.433,195.048,24.393,195.878,22.521,195.748z"/>
<path fill="none" stroke="#000000" stroke-width="4.7749" d="M64.799,197.629c0,0-2.002,8.224-9.855,7.682
	c-7.844-0.543-3.859-9.827-4.38-16.074c-0.525-6.248-3.771-14.598,2.196-18.007c5.974-3.411,12.096,8.243,12.992,12.603
	C67.022,189.657,66.539,193.209,64.799,197.629z"/>
<path fill="none" stroke="#000000" stroke-width="4.7749" d="M55.197,172.046c-0.594-0.043-1.155,0.098-1.723,0.425
	c-3.528,2.01-3.13,6.125-2.115,12.171c0.252,1.492,0.508,3.036,0.629,4.472c0.16,1.87-0.053,3.931-0.258,5.915
	c-0.318,3.098-0.645,6.289,0.597,7.765c0.54,0.643,1.435,1.003,2.715,1.09c6.528,0.45,8.298-6.31,8.37-6.6
	c0.014-0.056,0.03-0.119,0.053-0.178c1.549-3.943,2.156-7.176,0.889-12.965C63.561,180.248,59.041,172.312,55.197,172.046z
	 M54.846,206.737c-2.069-0.143-3.658-0.849-4.71-2.103c-2.021-2.399-1.631-6.212-1.256-9.895c0.193-1.86,0.39-3.783,0.257-5.388
	c-0.109-1.315-0.347-2.737-0.596-4.241c-0.941-5.611-2.008-11.973,3.515-15.13c1.061-0.603,2.181-0.864,3.34-0.786
	c6.199,0.429,10.983,10.567,11.757,14.352c1.396,6.415,0.702,10.192-0.989,14.517C65.33,201.337,61.938,207.227,54.846,206.737z"/>
<path fill="none" stroke="#000000" stroke-width="4.7749" d="M33.535,128.79c-0.11,0.071-0.219,0.147-0.329,0.222
	c0.158-0.047,0.32-0.088,0.479-0.135C33.636,128.845,33.584,128.823,33.535,128.79z"/>
<path fill="none" stroke="#000000" stroke-width="4.7749" d="M26.577,131.501c-0.115,0.087-0.234,0.185-0.352,0.273
	c0.176-0.064,0.352-0.122,0.531-0.187C26.696,131.554,26.638,131.535,26.577,131.501z"/>
<path fill="none" stroke="#000000" stroke-width="4.7749" d="M6.756,96.489c-7.993,9.642-2.974,21.045-0.891,24.396
	c1.458,2.346,1.536,4.629,0.397,6.379c-0.664,1.02-0.193,2.38,0.991,2.664l8.637,2.086c1.157,0.281,2.245-0.653,2.139-1.841
	c-0.152-1.661,0.363-3.893,3.187-5.977c5.41-4,11.684-8.944,10.043-22.172L6.756,96.489z"/>
<path fill="none" stroke="#000000" stroke-width="4.7749" d="M7.935,98.807c-4.637,5.688-3.814,21.007,4.428,23.438
	c8.24,2.433,16.476-5.35,16.932-17.418C29.75,92.756,7.935,98.807,7.935,98.807z"/>
<path fill="none" stroke="#000000" stroke-width="4.7749" d="M25.71,92.12C7.823,85.459,5.99,88.892,5.388,92.941
	c-0.606,4.052,6.671,11.854,12.861,5.462c4.565,6.545,16.861,9.649,17.475,2.522c5.765,1.521,8.782-0.784,6.225-3.823
	C39.389,94.064,25.71,92.12,25.71,92.12z"/>
<path fill="none" stroke="#000000" stroke-width="4.7749" d="M50.975,93.164c-2.568,0.121-2.564,5.257,1.225,4.52
	C55.987,96.947,53.542,93.04,50.975,93.164z"/>
<path fill="#FFD200" stroke="#000000" stroke-width="2.7775" stroke-linecap="round" stroke-linejoin="round" stroke-miterlimit="10" d="
	M30.333,116.38c-2.31-1.115-8.197-1.124-7.946,5.106c0.257,6.23,6.522,9.479,10.551,10.602c2.2,0.612,2.445-2.023,3.524-2.962
	C39.513,126.47,32.573,117.459,30.333,116.38z"/>
<g>
	<defs>
		<path id="XMLID_15_" d="M85.121,133.522H22.793c0,0-6.989,12.346-4.591,32.35c2.398,20.008,10.824,27.97,10.824,27.97
			s6.941,8.355,24.789,8.355c17.846,0,25.073-8.355,25.073-8.355s9.065-7.747,10.824-27.987
			C91.473,145.611,85.121,133.522,85.121,133.522z"/>
	</defs>
	<clipPath id="XMLID_22_">
		<use xlink:href="#XMLID_15_"  overflow="visible"/>
	</clipPath>
</g>
<g>
	<defs>
		<path id="SVGID_6_" d="M81.329,134.711c0,6.138-12.254,11.113-27.372,11.113c-15.117,0-27.372-4.976-27.372-11.113
			c0-6.141,12.255-11.115,27.372-11.115C69.075,123.596,81.329,128.57,81.329,134.711z"/>
	</defs>
	<clipPath id="SVGID_13_">
		<use xlink:href="#SVGID_6_"  overflow="visible"/>
	</clipPath>
</g>
<g>
	<defs>
		<path id="XMLID_14_" d="M85.121,133.522H22.793c0,0-6.989,12.346-4.591,32.35c2.398,20.008,10.824,27.97,10.824,27.97
			s6.941,8.355,24.789,8.355c17.846,0,25.073-8.355,25.073-8.355s9.065-7.747,10.824-27.987
			C91.473,145.611,85.121,133.522,85.121,133.522z"/>
	</defs>
	<use xlink:href="#XMLID_14_"  overflow="visible" fill="#A06323"/>
	<clipPath id="XMLID_23_">
		<use xlink:href="#XMLID_14_"  overflow="visible"/>
	</clipPath>
	
		<path clip-path="url(#XMLID_23_)" fill="none" stroke="#7E4D18" stroke-width="2.0299" stroke-linecap="round" stroke-linejoin="round" stroke-miterlimit="10" d="
		M38.092,141.9c0,0-4.532,33.811,5.477,56.474"/>
	
		<path clip-path="url(#XMLID_23_)" fill="none" stroke="#7E4D18" stroke-width="2.0299" stroke-linecap="round" stroke-linejoin="round" stroke-miterlimit="10" d="
		M26.193,140.391c-6.989,13.787-2.644,42.684,9.254,56.66"/>
	
		<path clip-path="url(#XMLID_23_)" fill="none" stroke="#7E4D18" stroke-width="2.0299" stroke-linecap="round" stroke-linejoin="round" stroke-miterlimit="10" d="
		M68.689,141.9c0,0,4.533,33.811-5.478,56.474"/>
	
		<path clip-path="url(#XMLID_23_)" fill="none" stroke="#7E4D18" stroke-width="2.0299" stroke-linecap="round" stroke-linejoin="round" stroke-miterlimit="10" d="
		M80.588,140.391c6.986,13.787,2.643,42.684-9.256,56.66"/>
	
		<line clip-path="url(#XMLID_23_)" fill="#A06323" stroke="#7E4D18" stroke-width="2.0299" stroke-linecap="round" stroke-linejoin="round" stroke-miterlimit="10" x1="53.39" y1="198.94" x2="53.39" y2="143.979"/>
	
		<ellipse clip-path="url(#XMLID_23_)" fill="#7E4D18" stroke="#000000" stroke-width="2.0299" stroke-linecap="round" stroke-linejoin="round" stroke-miterlimit="10" cx="53.955" cy="137.623" rx="33.855" ry="15.258"/>
	<g clip-path="url(#XMLID_23_)">
		<g>
			<path fill="#7E4D18" d="M86.924,180.952c-1.899,8.532-16.486,16.652-32.967,16.652c-17.093,0-31.2-8.556-32.12-17.411
				c-2.553,2.137-4.002,4.556-4.002,7.124c0,8.601,16.174,15.574,36.122,15.574c19.948,0,36.122-6.974,36.122-15.574
				C90.079,185.047,88.946,182.897,86.924,180.952z"/>
		</g>
		<g>
			
				<path fill="none" stroke="#000000" stroke-width="2.2082" stroke-linecap="round" stroke-linejoin="round" stroke-miterlimit="10" d="
				M86.924,180.952c-1.899,8.532-16.486,16.652-32.967,16.652c-17.093,0-31.2-8.556-32.12-17.411
				c-2.553,2.137-4.002,4.556-4.002,7.124c0,8.601,16.174,15.574,36.122,15.574c19.948,0,36.122-6.974,36.122-15.574
				C90.079,185.047,88.946,182.897,86.924,180.952z"/>
		</g>
	</g>
	
		<use xlink:href="#XMLID_14_"  overflow="visible" fill="none" stroke="#000000" stroke-width="3.1833" stroke-linecap="round" stroke-linejoin="round" stroke-miterlimit="10"/>
</g>
<path fill="#FFFFFF" d="M40.282,153.886c-14.72-2.418-25.816,15.607-13.713,29.359c12.271,13.933,29.562,3.921,30.018-9.13
	C56.938,163.994,48.442,155.484,40.282,153.886 M26.112,159.978c4.946-5.242,13.864-8.324,22.713,0.234
	c-0.063-0.02-6.011-1.195-2.165,5.718c2.079,3.731,2.029,6.316-0.22,11.046c-0.863,2.397-1.127,3.118-1.928,5.604
	c-2.352-6.95-4.253-12.837-5.548-20.095c1.623,0.169,3.47,0.362,2.61-0.815c-0.109-0.152-8.657-1.419-8.736-1.427
	c-0.662-0.055-0.831,0.624-0.835,0.632c-0.111,0.54,0.001,0.559,1.846,0.901c0.299,2.522,0.431,3.674,1.354,7.479
	c-1.128,3.104-2.294,6.316-2.831,11.594c-3.311-8.025-4.472-13.322-4.279-19.552c0.57-0.174,1.295,0.123,1.814-0.221
	c0.357-0.232,0.572-0.894,0.169-1.079C28.634,159.355,27.443,160.041,26.112,159.978 M44.698,186.996
	c2.052-5.838,5.119-11.152,7.139-17.002c0.39-1.134,0.794-2.945,0.496-5.143C56.375,172.513,55.05,182.577,44.698,186.996
	 M31.203,185.614c-9.538-6.507-10.575-16.732-6.677-23.472C24.066,169.632,25.876,175.989,31.203,185.614 M36.917,187.884
	c-1.266-0.229-2.284-0.544-3.521-1.083c-0.105-3.563-0.007-7.958,2.483-15.058c2.802,9.059,6.124,16.007,6.148,16.045
	C41.359,187.916,39.326,188.307,36.917,187.884"/>
<path fill="#A06323" stroke="#000000" stroke-width="3.1833" stroke-linecap="round" stroke-linejoin="round" stroke-miterlimit="10" d="
	M85.121,133.522c0,7.758-13.953,14.045-31.164,14.045c-17.213,0-31.164-6.287-31.164-14.045c0-7.753,13.951-14.042,31.164-14.042
	C71.167,119.48,85.121,125.77,85.121,133.522z"/>
<g>
	<defs>
		<path id="SVGID_5_" d="M81.329,134.711c0,6.138-12.254,11.113-27.372,11.113c-15.117,0-27.372-4.976-27.372-11.113
			c0-6.141,12.255-11.115,27.372-11.115C69.075,123.596,81.329,128.57,81.329,134.711z"/>
	</defs>
	<use xlink:href="#SVGID_5_"  overflow="visible" fill="#7E4D18"/>
	<clipPath id="SVGID_14_">
		<use xlink:href="#SVGID_5_"  overflow="visible"/>
	</clipPath>
	<g clip-path="url(#SVGID_14_)">
		
			<line fill="none" stroke="#A06323" stroke-width="2.0299" stroke-linecap="round" stroke-linejoin="round" stroke-miterlimit="10" x1="26.004" y1="135.562" x2="54.522" y2="122.527"/>
		
			<line fill="none" stroke="#A06323" stroke-width="2.0299" stroke-linecap="round" stroke-linejoin="round" stroke-miterlimit="10" x1="30.727" y1="140.658" x2="67.555" y2="124.229"/>
		
			<line fill="none" stroke="#A06323" stroke-width="2.0299" stroke-linecap="round" stroke-linejoin="round" stroke-miterlimit="10" x1="39.791" y1="145.007" x2="77.566" y2="128.194"/>
		
			<line fill="none" stroke="#A06323" stroke-width="2.0299" stroke-linecap="round" stroke-linejoin="round" stroke-miterlimit="10" x1="53.39" y1="146.894" x2="82.855" y2="133.862"/>
	</g>
</g>
<g>
	<defs>
		<path id="XMLID_8_" d="M85.121,133.522H22.793c0,0-6.989,12.346-4.591,32.35c2.398,20.008,10.824,27.97,10.824,27.97
			s6.941,8.355,24.789,8.355c17.846,0,25.073-8.355,25.073-8.355s9.065-7.747,10.824-27.987
			C91.473,145.611,85.121,133.522,85.121,133.522z"/>
	</defs>
	<clipPath id="XMLID_24_">
		<use xlink:href="#XMLID_8_"  overflow="visible"/>
	</clipPath>
</g>
<g>
	<defs>
		<path id="SVGID_4_" d="M81.329,134.711c0,6.138-12.254,11.113-27.372,11.113c-15.117,0-27.372-4.976-27.372-11.113
			c0-6.141,12.255-11.115,27.372-11.115C69.075,123.596,81.329,128.57,81.329,134.711z"/>
	</defs>
	<clipPath id="SVGID_15_">
		<use xlink:href="#SVGID_4_"  overflow="visible"/>
	</clipPath>
</g>
<path fill="#FF8800" d="M88.098,195.89c-5.116,15.18-22.067,28.825-40.434,31.859c-15.806,2.604-32.245-10.59-31.499-17.948
	c0.846-8.286,11.243-7.111,15.866,2.05c7.085,14.034,35.161,6.49,46.683-11.591L88.098,195.89z"/>
<path fill="#57A1BE" d="M33.535,129.943c-0.11,0.069-0.219,0.146-0.329,0.222c0.158-0.049,0.32-0.089,0.479-0.136
	C33.636,129.997,33.584,129.977,33.535,129.943z"/>
<path fill="#57A1BE" d="M44.093,129.059c-0.161-0.01-0.316-0.032-0.478-0.043c-3.441-0.237-6.788,0.134-9.931,1.014
	C37.464,132.245,40.975,130.99,44.093,129.059z"/>
<path fill="#FFD200" d="M61.76,201.441c5.766,0.918,15.373,0.502,25.473-5.468c18.22-10.776,19.081-47.901,14.681-63.742
	c-4.405-15.837-15.099-27.09-30.759-28.653c-15.663-1.556-29.222,4.436-36.875,14.901c-5.159,7.057-1.979,11.33,0.097,12.428
	c2.073,1.104,11.356-1.842,14.306-6.419c5.918,4.231,12.928,3.045,19.006,1.556l11.188,4.119
	c-8.795-4.196-20.356-2.843-26.665,1.976c-6.308,4.822-2.525,8.912,1.962,9.696c4.485,0.787,13.557-2.649,20.362-0.744
	c6.796,1.903,8.739,4.577,15.653,11.746c0,0,1.785,15.642-2.687,21.566c-6.729-4.53-18.584-0.014-22.947,8.356L61.76,201.441z"/>
<path d="M87.915,175.545c-0.103-0.009-0.196-0.031-0.302-0.066c-0.552-0.206-0.833-0.828-0.625-1.381
	c1.24-3.318,1.998-6.819,2.244-10.392c0.275-3.977-0.089-7.93-1.072-11.753c-0.147-0.575,0.192-1.157,0.771-1.306
	c0.571-0.15,1.159,0.195,1.306,0.769c1.045,4.047,1.428,8.229,1.135,12.437c-0.26,3.781-1.061,7.485-2.376,10.996
	C88.824,175.309,88.376,175.575,87.915,175.545z"/>
<path d="M65.795,183.238c-0.164-0.01-0.322-0.057-0.466-0.141c-0.513-0.297-0.688-0.955-0.39-1.468
	c3.275-5.661,8.948-9.027,15.558-9.24c5.453-0.173,10.73,1.903,12.833,5.044c0.33,0.498,0.195,1.163-0.297,1.489
	c-0.497,0.329-1.164,0.199-1.486-0.293c-1.688-2.523-6.294-4.242-10.983-4.098c-3.437,0.116-9.801,1.318-13.767,8.173
	C66.58,183.072,66.182,183.267,65.795,183.238z"/>
<path d="M65.121,202.718c-1.074-0.075-1.966-0.188-2.66-0.303c-0.583-0.09-0.985-0.638-0.894-1.222
	c0.093-0.59,0.658-0.984,1.231-0.891c3.731,0.585,13.606,1.256,24.755-5.336c17.546-10.369,18.58-46.751,14.193-62.527
	c-4.525-16.276-15.402-26.438-29.834-27.875c-14.78-1.473-28.2,3.938-35.903,14.463c-2.103,2.881-2.945,5.569-2.438,7.785
	c0.366,1.61,1.404,2.658,2.177,3.065c1.303,0.696,10.091-1.691,12.897-6.051c0.16-0.25,0.41-0.417,0.695-0.472
	c0.295-0.055,0.591,0.007,0.826,0.178c5.605,4.01,12.305,2.818,18.132,1.389c0.577-0.142,1.156,0.204,1.3,0.783
	c0.141,0.576-0.214,1.158-0.789,1.298c-6.427,1.578-13.163,2.509-19.013-1.135c-3.696,4.458-12.5,7.261-15.055,5.904
	c-1.228-0.65-2.731-2.164-3.265-4.48c-0.454-1.982-0.338-5.239,2.804-9.527c8.154-11.149,22.298-16.885,37.845-15.331
	c15.359,1.53,26.914,12.254,31.683,29.431c2.067,7.422,3.225,20.88,1.173,34.218c-1.629,10.576-5.785,24.499-16.337,30.736
	C78.958,202.546,70.136,203.064,65.121,202.718z"/>
<path fill="#FF8800" d="M90.113,111.438c-4.253-0.641-1.152,2.788,0.192,4.079c1.344,1.286,10.931,11.269,20.644,9.072
	c9.712-2.197,13.106-9.846,11.234-10.454C120.313,113.525,98.864,112.761,90.113,111.438z"/>
<path d="M89.141,112.435c0.252,0.475,0.875,1.32,1.904,2.307l0.26,0.249c7,6.858,12.503,8.574,15.892,8.808l0,0
	c1.21,0.084,2.388-0.003,3.517-0.254c5.33-1.204,8.758-4.224,10.19-6.641c0.537-0.907,0.679-1.516,0.699-1.801
	c-0.709-0.126-2.555-0.286-5.502-0.491c-1.57-0.11-3.355-0.221-5.257-0.347c-2.157-0.138-4.466-0.287-6.768-0.445
	c-4.26-0.294-10.365-0.751-14.124-1.316C89.62,112.449,89.333,112.43,89.141,112.435z M107.049,125.938L107.049,125.938
	c-3.746-0.259-9.777-2.106-17.244-9.414l-0.241-0.229c-3.304-3.169-2.729-4.47-2.538-4.896c0.357-0.82,1.228-1.188,2.562-1.097
	c0.209,0.015,0.432,0.04,0.683,0.077c3.687,0.555,9.728,1.007,13.954,1.301c2.296,0.156,4.598,0.304,6.756,0.447
	c1.908,0.12,3.697,0.234,5.269,0.341c4.53,0.314,5.758,0.479,6.265,0.647c0.816,0.267,1.277,1.037,1.229,2.057
	c-0.115,2.604-4.035,8.535-12.56,10.461C109.853,125.936,108.464,126.037,107.049,125.938z"/>
<path d="M48.072,118.093c-1.793,1.16-1.384,2.771,0.499,3.141c1.887,0.373,2.025,0.503,3.87-0.689
	c2.004-1.294,2.403-3.654,0.247-3.567C50.532,117.07,49.07,117.442,48.072,118.093z"/>
<path d="M43.01,118.696c-0.081,1.186-1.103,2.076-2.282,1.993c-1.188-0.081-2.077-1.103-1.994-2.288
	c0.081-1.181,1.103-2.07,2.289-1.988C42.203,116.494,43.09,117.517,43.01,118.696z"/>
<path d="M68.158,114.461c-0.08,1.184-1.109,2.074-2.289,1.992c-1.184-0.081-2.076-1.102-1.993-2.288
	c0.082-1.183,1.103-2.07,2.289-1.988C67.345,112.259,68.238,113.28,68.158,114.461z"/>
<path d="M41.604,229.081c-8.322-0.573-16.245-4.701-21.127-9.296c-3.712-3.487-5.673-7.167-5.379-10.099
	c0.358-3.511,2.301-5.851,5.333-6.411c3.852-0.714,9.408,1.838,12.557,8.091c2.603,5.148,7.882,6.481,11.832,6.666
	c11.77,0.587,25.95-7.297,32.99-18.347c0.321-0.5,0.985-0.646,1.484-0.325c0.498,0.317,0.643,0.98,0.325,1.479
	c-7.419,11.648-22.43,19.963-34.91,19.338c-6.429-0.338-11.238-3.108-13.631-7.842c-2.682-5.315-7.189-7.517-10.259-6.949
	c-2.056,0.38-3.33,1.985-3.585,4.52c-0.229,2.229,1.534,5.331,4.711,8.322c5.712,5.368,15.826,10.062,25.542,8.464
	c17.86-2.948,34.514-16.046,39.592-31.143c0.19-0.561,0.796-0.866,1.36-0.677c0.56,0.189,0.864,0.801,0.675,1.36
	c-5.32,15.809-22.681,29.504-41.277,32.575C45.763,229.148,43.668,229.225,41.604,229.081z"/>
<path d="M93.261,155.748c-0.254-0.02-0.507-0.129-0.702-0.328l-0.794-0.824c-6.484-6.733-10.401-10.805-16.653-12.554
	c-3.762-1.053-8.385-0.355-12.462,0.256c-3.099,0.469-5.763,0.872-7.796,0.513c-3.12-0.547-5.499-2.375-6.052-4.652
	c-0.394-1.606-0.082-4.115,3.625-6.948c6.928-5.299,19.132-6.219,27.779-2.1c0.536,0.255,0.756,0.896,0.506,1.427
	c-0.256,0.54-0.896,0.767-1.434,0.509c-7.979-3.807-19.2-2.987-25.544,1.866c-2.176,1.661-3.188,3.345-2.85,4.736
	c0.352,1.431,2.096,2.654,4.339,3.048c1.693,0.296,4.323-0.102,7.104-0.521c4.293-0.647,9.164-1.381,13.367-0.199
	c6.813,1.911,11.115,6.372,17.621,13.133l0.795,0.823c0.409,0.422,0.397,1.104-0.031,1.513
	C93.851,155.665,93.555,155.766,93.261,155.748z"/>
<path fill="#FFD200" d="M16.074,169.646c-5.502-4.867-12.333-1.329-11.388,5.667c0.783,5.746,9.632,16.934,16.368,19.049
	c5.849,1.838,5.087-4.655,4.297-6.867C23.952,183.574,18.999,172.238,16.074,169.646z"/>
<path d="M11.067,168.479c-1.536-0.106-2.937,0.427-3.942,1.496c-1.166,1.252-1.659,3.097-1.376,5.193
	c0.728,5.347,9.387,16.211,15.624,18.174c0.482,0.15,0.915,0.236,1.296,0.262c0.99,0.07,1.385-0.29,1.595-0.571
	c0.858-1.126,0.595-3.733,0.081-5.176c-1.478-4.138-6.324-15.044-8.979-17.411C14.021,169.265,12.537,168.581,11.067,168.479z
	 M22.521,195.748L22.521,195.748c-0.547-0.038-1.15-0.161-1.786-0.359c-7.12-2.24-16.273-13.792-17.11-19.934
	c-0.369-2.743,0.32-5.21,1.938-6.943c1.436-1.527,3.49-2.32,5.655-2.173c1.943,0.135,3.87,1.003,5.568,2.507
	c3.334,2.956,8.489,15.247,9.581,18.285c0.45,1.262,1.259,5.019-0.39,7.202C25.433,195.048,24.393,195.878,22.521,195.748z"/>
<path fill="#FFD200" d="M64.799,197.629c0,0-2.002,8.224-9.855,7.682c-7.844-0.543-3.859-9.827-4.38-16.074
	c-0.525-6.248-3.771-14.598,2.196-18.007c5.974-3.411,12.096,8.243,12.992,12.603C67.022,189.657,66.539,193.209,64.799,197.629z"/>
<path d="M55.197,172.046c-0.594-0.043-1.155,0.098-1.723,0.425c-3.528,2.01-3.13,6.125-2.115,12.171
	c0.252,1.492,0.508,3.036,0.629,4.472c0.16,1.87-0.053,3.931-0.258,5.915c-0.318,3.098-0.645,6.289,0.597,7.765
	c0.54,0.643,1.435,1.003,2.715,1.09c6.528,0.45,8.298-6.31,8.37-6.6c0.014-0.056,0.03-0.119,0.053-0.178
	c1.549-3.943,2.156-7.176,0.889-12.965C63.561,180.248,59.041,172.312,55.197,172.046z M54.846,206.737
	c-2.069-0.143-3.658-0.849-4.71-2.103c-2.021-2.399-1.631-6.212-1.256-9.895c0.193-1.86,0.39-3.783,0.257-5.388
	c-0.109-1.315-0.347-2.737-0.596-4.241c-0.941-5.611-2.008-11.973,3.515-15.13c1.061-0.603,2.181-0.864,3.34-0.786
	c6.199,0.429,10.983,10.567,11.757,14.352c1.396,6.415,0.702,10.192-0.989,14.517C65.33,201.337,61.938,207.227,54.846,206.737z"/>
<path fill="#FFFFFF" stroke="#000000" stroke-width="1.8516" stroke-linecap="round" stroke-linejoin="round" stroke-miterlimit="10" d="
	M6.756,96.489c-7.993,9.642-2.974,21.045-0.891,24.396c1.458,2.346,1.536,4.629,0.397,6.379c-0.664,1.02-0.193,2.38,0.991,2.664
	l8.637,2.086c1.157,0.281,2.245-0.653,2.139-1.841c-0.152-1.661,0.363-3.893,3.187-5.977c5.41-4,11.684-8.944,10.043-22.172
	L6.756,96.489z"/>
<path fill="#FFD200" d="M7.935,98.807c-4.637,5.688-3.814,21.007,4.428,23.438c8.24,2.433,16.476-5.35,16.932-17.418
	C29.75,92.756,7.935,98.807,7.935,98.807z"/>
<path fill="#FFFFFF" stroke="#000000" stroke-width="1.8516" stroke-linecap="round" stroke-linejoin="round" stroke-miterlimit="10" d="
	M25.71,92.12C7.823,85.459,5.99,88.892,5.388,92.941c-0.606,4.052,6.671,11.854,12.861,5.462c4.565,6.545,16.861,9.649,17.475,2.522
	c5.765,1.521,8.782-0.784,6.225-3.823C39.389,94.064,25.71,92.12,25.71,92.12z"/>
<path fill="#FFFFFF" stroke="#000000" stroke-width="1.8516" stroke-linecap="round" stroke-linejoin="round" stroke-miterlimit="10" d="
	M50.975,93.164c-2.568,0.121-2.564,5.257,1.225,4.52C55.987,96.947,53.542,93.04,50.975,93.164z"/>
<g>
	<defs>
		<path id="XMLID_7_" d="M85.121,133.522H22.793c0,0-6.989,12.346-4.591,32.35c2.398,20.008,10.824,27.97,10.824,27.97
			s6.941,8.355,24.789,8.355c17.846,0,25.073-8.355,25.073-8.355s9.065-7.747,10.824-27.987
			C91.473,145.611,85.121,133.522,85.121,133.522z"/>
	</defs>
	<clipPath id="XMLID_25_">
		<use xlink:href="#XMLID_7_"  overflow="visible"/>
	</clipPath>
</g>
<g>
	<defs>
		<path id="SVGID_3_" d="M81.329,134.711c0,6.138-12.254,11.113-27.372,11.113c-15.117,0-27.372-4.976-27.372-11.113
			c0-6.141,12.255-11.115,27.372-11.115C69.075,123.596,81.329,128.57,81.329,134.711z"/>
	</defs>
	<clipPath id="SVGID_16_">
		<use xlink:href="#SVGID_3_"  overflow="visible"/>
	</clipPath>
</g>
<g>
	<defs>
		<path id="XMLID_6_" d="M85.121,133.522H22.793c0,0-6.989,12.346-4.591,32.35c2.398,20.008,10.824,27.97,10.824,27.97
			s6.941,8.355,24.789,8.355c17.846,0,25.073-8.355,25.073-8.355s9.065-7.747,10.824-27.987
			C91.473,145.611,85.121,133.522,85.121,133.522z"/>
	</defs>
	<clipPath id="XMLID_26_">
		<use xlink:href="#XMLID_6_"  overflow="visible"/>
	</clipPath>
</g>
<g>
	<defs>
		<path id="SVGID_2_" d="M81.329,134.711c0,6.138-12.254,11.113-27.372,11.113c-15.117,0-27.372-4.976-27.372-11.113
			c0-6.141,12.255-11.115,27.372-11.115C69.075,123.596,81.329,128.57,81.329,134.711z"/>
	</defs>
	<clipPath id="SVGID_17_">
		<use xlink:href="#SVGID_2_"  overflow="visible"/>
	</clipPath>
</g>
<g>
	<defs>
		<path id="XMLID_5_" d="M85.121,133.522H22.793c0,0-6.989,12.346-4.591,32.35c2.398,20.008,10.824,27.97,10.824,27.97
			s6.941,8.355,24.789,8.355c17.846,0,25.073-8.355,25.073-8.355s9.065-7.747,10.824-27.987
			C91.473,145.611,85.121,133.522,85.121,133.522z"/>
	</defs>
	<clipPath id="XMLID_27_">
		<use xlink:href="#XMLID_5_"  overflow="visible"/>
	</clipPath>
</g>
<g>
	<defs>
		<path id="SVGID_1_" d="M81.329,134.711c0,6.138-12.254,11.113-27.372,11.113c-15.117,0-27.372-4.976-27.372-11.113
			c0-6.141,12.255-11.115,27.372-11.115C69.075,123.596,81.329,128.57,81.329,134.711z"/>
	</defs>
	<clipPath id="SVGID_18_">
		<use xlink:href="#SVGID_1_"  overflow="visible"/>
	</clipPath>
</g>
<g display="none">
	<g display="inline">
		<path fill="#FFFFFF" d="M108.401,42.768c0-23.344-18.924-42.268-42.268-42.268c-23.343,0-42.267,18.924-42.267,42.268
			c0,22.211,17.136,40.408,38.907,42.123l3.36,7.917l3.36-7.917C91.264,83.176,108.401,64.979,108.401,42.768z"/>
	</g>
	<g display="inline">
		<path fill="none" stroke="#A8A8A8" d="M108.401,42.768c0-23.344-18.924-42.268-42.268-42.268
			c-23.343,0-42.267,18.924-42.267,42.268c0,22.211,17.136,40.408,38.907,42.123l3.36,7.917l3.36-7.917
			C91.264,83.176,108.401,64.979,108.401,42.768z"/>
	</g>
</g>
</svg>
