<?xml version="1.0" encoding="UTF-8" standalone="no"?>
<svg width="127px" height="146px" viewBox="0 0 127 146" version="1.1" xmlns="http://www.w3.org/2000/svg" xmlns:xlink="http://www.w3.org/1999/xlink" xmlns:sketch="http://www.bohemiancoding.com/sketch/ns">
    <!-- Generator: Sketch 3.2.2 (9983) - http://www.bohemiancoding.com/sketch -->
    <title>wapuu</title>
    <desc>Created with Sketch.</desc>
    <defs>
        <path id="path-1" d="M67.6,0.8 L5.2,0.8 C5.2,0.8 -1.8,13.1 0.6,33.1 C3,53.1 11.4,61.1 11.4,61.1 C11.4,61.1 18.3,69.5 36.2,69.5 C54,69.5 61.3,61.1 61.3,61.1 C61.3,61.1 70.4,53.4 72.1,33.1 C73.9,12.8 67.6,0.8 67.6,0.8 L67.6,0.8 Z"></path>
        <path id="path-3" d="M54.8,11.9 C54.8,18 42.5,23 27.4,23 C12.3,23 0,18 0,11.9 C0,5.8 12.3,0.8 27.4,0.8 C42.5,0.8 54.8,5.8 54.8,11.9 L54.8,11.9 Z"></path>
    </defs>
    <g id="Page-1" stroke="none" stroke-width="1" fill="none" fill-rule="evenodd" sketch:type="MSPage">
        <g id="wapuu" sketch:type="MSLayerGroup">
            <g id="Outline" fill="#231815" sketch:type="MSShapeGroup">
                <g id="Group" transform="translate(1.000000, 14.000000)">
                    <path d="M53.4,45.41255 C37.3838817,45.41255 24.58745,39.66548 24.58745,33.8 C24.58745,27.8723162 37.3080416,22.18745 53.4,22.18745 C69.4290383,22.0942983 82.21255,27.8355657 82.21255,33.8 C82.21255,39.7276838 69.4919584,45.41255 53.4,45.41255 Z M53.3861197,17.4125903 C34.9652257,17.41255 19.81255,24.184321 19.81255,33.8 C19.81255,43.3469094 35.0437045,50.18745 53.4,50.18745 C71.8347743,50.18745 86.98745,43.415679 86.98745,33.8 C86.98745,24.1520449 71.743728,17.3058601 53.3861197,17.4125903 Z" id="Shape"></path>
                    <path d="M4.83343007,68.5940273 C3.12719521,70.4423467 2.44115101,72.9698779 2.83654508,75.7376364 C3.69165752,82.2130799 13.265566,93.6781309 20.0670462,95.8721567 L20.8,93.6 L19.9133233,95.8166917 C20.3984799,96.0107543 20.7111636,96.0811081 21.3141344,96.1788872 C21.4420818,96.1996354 21.4920533,96.2089405 21.5209583,96.2161667 L21.6895362,96.2583112 L21.8624398,96.2756015 C23.5954103,96.4488986 24.907433,95.7928872 25.6864785,94.624319 L23.7,93.3 L25.5477844,94.8118236 C27.0066771,93.0287324 26.9272749,89.9320449 26.0649339,87.345022 C23.6188098,80.6560322 19.0472594,71.2810411 16.3861354,68.9155976 C14.7333419,67.3893693 12.7278389,66.455773 10.6588108,66.3178378 C8.41902166,66.1685185 6.31750668,66.9615431 4.83343007,68.5940273 Z M13.1806402,72.4543065 C15.0433851,74.1106429 19.4334195,83.1133946 21.5578911,88.9202837 C21.7292525,89.4375372 21.8708539,90.2294564 21.8883344,90.9111966 C21.8968788,91.2444263 21.8754217,91.528137 21.831424,91.732954 C21.8104621,91.8305349 21.7782839,91.8785375 21.7782839,91.8785375 L21.7135215,91.975681 C21.892567,91.7071128 22.2712564,91.5177681 22.3375602,91.5243985 L22.1,93.9 L22.6790417,91.5838333 C22.4821208,91.5346031 22.3329397,91.5068245 22.0784582,91.4655572 C21.8061602,91.4214008 21.7507264,91.4089282 21.6866767,91.3833083 L21.5329538,91.3278433 C16.4847298,89.6993839 8.18388205,79.7588625 7.56689527,75.0873912 C7.36278988,73.6577083 7.65661592,72.5751913 8.35430648,71.8193598 C8.84332883,71.2815379 9.51723896,71.0272322 10.3411892,71.0821622 C11.2678384,71.1439388 12.26289,71.6071525 13.1806402,72.4543065 Z M20.954978,93.3350661 C14.9679967,91.5049177 6.19781016,80.9606095 5.46717943,75.3895502 C5.16612927,73.3551968 5.65508019,71.5874511 6.73854107,70.436274 C7.64999572,69.4597459 9.064806,68.9155881 10.5915915,68.9849874 C11.9000025,69.0539125 13.3996149,69.7247917 14.7204114,70.8902004 C16.9473546,72.9150493 21.7084799,82.7268278 23.6500009,88.1983868 C24.2701004,89.8129271 24.3567775,92.1748774 23.6108466,93.1401997 L25.5,94.6 L23.6873128,93.0462681 C23.3499272,93.4398847 22.8928791,93.6584729 22.1324319,93.6162258 L22,93.61255 C21.9025619,93.61255 21.4913759,93.5138654 20.954978,93.3350661 Z M22,96 L21.8675681,98.3837742 C24.1939987,98.5130203 26.052178,97.6243259 27.3126872,96.1537319 L27.3891534,96.0598003 C29.4091164,93.4457305 29.2641795,89.4962007 28.128316,86.5429554 C25.932396,80.3520043 20.9643254,70.1137507 17.9059727,67.3334301 C15.7882855,65.4645322 13.2866641,64.3453858 10.8254816,64.2158499 C7.91730782,64.0835989 5.13880428,65.1522541 3.2546421,67.1709993 C1.13286708,69.4253549 0.236839191,72.6648403 0.738326194,76.0498776 C1.70481947,83.4219413 11.7670707,95.5196862 19.5023429,97.8832416 C20.4514812,98.2004203 21.2307715,98.38745 22,98.38745 L22,96 Z" id="Shape"></path>
                    <path d="M46.7012494,125.646085 C40.0698584,126.7373 32.671505,124.791339 26.4626037,120.760089 C21.1053445,117.281786 17.7358486,112.838048 17.9765489,110.327888 C18.224373,107.756716 19.5978779,106.677138 21.7991384,106.944972 C24.5037008,107.274044 27.5092933,109.575957 29.3787692,113.195581 C37.4577937,129.126196 67.7562012,121.389571 80.215116,101.780322 L79.2210371,102.658101 L88.5210371,98.2581012 L85.2365596,95.3405562 C80.3996776,109.756361 64.0648342,122.704713 46.7012494,125.646085 Z M91.5468481,91.5441897 L86.4789629,93.9418988 L77.1789629,98.3418988 L76.5550366,98.6370897 L76.184884,99.2196777 C65.3975216,116.198048 39.5964018,122.786302 33.6292819,111.02015 C31.0608824,106.047149 26.7371141,102.735675 22.3758616,102.205028 C17.5330035,101.615783 13.7312212,104.603995 13.2235632,109.870946 C12.7685221,114.616372 17.1679708,120.418425 23.8623963,124.764911 C31.0075195,129.40402 39.5758373,131.657712 47.4876579,130.355767 C66.5355935,127.129095 84.3434637,113.0131 89.7634404,96.8594438 L91.5468481,91.5441897 Z" id="Shape"></path>
                    <path d="M87.9193553,98.2525814 C96.9800258,92.87592 102.581757,81.4685106 104.884362,66.5901394 C106.762239,54.4561696 106.178848,40.761069 103.699933,31.8595123 C98.8635757,14.4925919 87.0158962,3.07314179 70.8420533,1.42485207 C54.7104752,-0.219130417 40.201116,5.79764747 31.7747484,17.2881488 C26.661688,24.269442 27.9457448,30.7286367 32.6922065,33.2148785 C36.4275304,35.1714767 46.9298416,31.0328541 50.1196051,25.9732293 L46.715443,26.6449729 C52.3991486,30.6910005 58.2485924,30.780992 67.6340544,28.6269515 L66.2792857,28.5419513 L77.4792857,32.6419513 L79.3283454,28.2453716 C70.0592628,23.8214914 57.4508227,24.9407785 50.1531021,30.5009465 C46.4675486,33.3089873 45.0568716,36.6005669 46.3490417,39.6750405 C47.3991775,42.1736395 50.0888226,43.9006748 53.1821167,44.4505938 C55.1984682,44.8090563 56.5859534,44.676358 62.0153249,43.8814813 C64.1643096,43.5668633 65.4903467,43.4007335 66.8706614,43.295335 C69.4901818,43.0953129 71.602852,43.2091026 73.3575264,43.6993793 C76.2911431,44.5190663 78.1798336,45.4666096 80.1440929,47.0510377 C81.0906882,47.8145887 82.0875805,48.7457305 83.4791006,50.1485057 C84.1149433,50.7894912 87.1024483,53.865907 87.9998877,54.776167 L87.3282858,53.3736593 C87.337606,53.4544343 87.3553736,53.622521 87.3788223,53.8691669 C87.4186832,54.2884444 87.4587293,54.7689976 87.4962076,55.3020221 C87.7175721,58.4503178 87.7486388,61.768697 87.4701147,64.840902 C87.121855,68.6823123 86.3127735,71.6372187 85.09004,73.26753 L88.3311375,72.7180842 C80.3826179,67.3795262 66.9084815,72.3742492 61.9748156,82.012108 L61.8001131,82.3533874 L61.7410499,82.7322067 L58.8410499,101.332207 L58.4729902,103.692865 L60.8339148,104.059216 C69.0402419,105.332611 78.7482072,103.700788 87.9193553,98.2525814 Z M63.5589501,102.067793 L66.4589501,83.4677933 L66.2251844,84.187892 C69.9476173,76.9161624 80.3025691,73.0776889 85.6688625,76.6819158 L87.5501913,77.9454949 L88.90996,76.13247 C90.7892674,73.6267269 91.8040925,69.9204088 92.2255121,65.2720232 C92.5304833,61.9080981 92.4971671,58.3494302 92.259348,54.9671137 C92.2190485,54.3939653 92.1757613,53.8745186 92.1322888,53.4172528 C92.1057375,53.1379729 92.0846162,52.9381583 92.0717142,52.8263407 L91.9774544,52.0094229 L91.4001123,51.423833 C90.5216476,50.5328189 87.5272479,47.4493032 86.8690369,46.7857684 C85.3640605,45.2686193 84.2520822,44.229982 83.1419471,43.3345151 C80.6585176,41.3313094 78.1853686,40.0905473 74.6424736,39.1006207 C72.2690623,38.4374617 69.6339664,38.2955337 66.5071164,38.5342946 C64.9887666,38.6502333 63.5742884,38.8274432 61.3236383,39.1569453 C56.6081308,39.8473102 55.282009,39.9741397 54.0178833,39.7494062 C52.3799431,39.4582169 51.0890172,38.6293066 50.7509583,37.8249595 C50.4304455,37.0623599 50.9203302,35.9192955 53.0468979,34.2990535 C58.8991957,29.8401598 69.5948099,28.8906797 77.2716546,32.5546284 L79.1207143,28.1580487 L67.9207143,24.0580487 L67.255932,23.8146909 L66.5659456,23.9730485 C58.4115518,25.8445487 53.7232775,25.7724214 49.484557,22.7550271 L47.4271962,21.2904652 L46.0803949,23.4267707 C45.0725321,25.0254497 42.671412,26.6747905 39.7746942,27.8162938 C38.4834009,28.3251508 37.1987004,28.6876404 36.1446748,28.8519924 C35.6757305,28.9251138 35.2786382,28.9544364 34.9863897,28.9436628 C32.8142936,27.8885263 32.1984669,24.7907311 35.6261137,20.1106748 C43.0222825,10.0249908 55.8672849,4.69839259 70.3579467,6.17514793 C84.4393121,7.61019154 94.7608146,17.5586276 99.1000667,33.1404877 C101.389066,41.3600749 101.94339,54.3728437 100.165638,65.8598606 C98.0595226,79.4686039 93.0599249,89.6498235 85.4816356,94.1468303 C77.3010081,99.0066087 68.7142028,100.449975 61.5660852,99.3407842 L63.5589501,102.067793 Z" id="Shape"></path>
                    <path d="M62.2376364,100.236545 C62.9498937,100.3546 63.479244,101.046828 63.3549662,101.792494 C63.233789,102.519557 62.5594057,103.006612 61.7317825,102.841087 C69.4447948,104.093469 78.690508,102.867812 88.21209,97.25688 C96.9731958,92.050299 102.416643,80.8804955 104.671884,66.3025007 C106.524481,54.3272127 105.959439,40.8354652 103.498876,32.0557289 C98.7654313,14.9100717 87.1199334,4.03712527 71.6473543,2.42539828 C56.017613,0.84129356 41.7843622,6.58656111 33.5683953,17.8968532 C31.1185483,21.2799707 30.0934148,24.6436903 30.7719191,27.6291093 C31.3083551,29.777129 32.657646,31.5480732 34.2322999,32.3354002 C37.2548635,33.9641785 47.2421664,30.0521014 50.2141996,25.3817634 L48.2,24.1 L49.8881821,25.7881821 C49.8993386,25.7584165 49.7892363,25.8201812 49.654978,25.8649339 C49.0502525,26.0665091 48.4176046,25.8939688 48.0118179,25.4881821 L48.3123229,25.742748 C53.7575725,29.632212 59.4236019,29.6779058 68.3601925,27.5207977 L67.8,25.2 L68.1924944,27.5549662 C67.6128275,27.6515773 66.8846149,27.2299805 66.7450338,26.3924944 C66.6484227,25.8128275 67.0700195,25.0846149 67.9075056,24.9450338 C60.0419862,26.9035763 54.896424,26.8636882 50.5590525,24.1715266 L48.7832693,23.0693164 L47.4558728,24.6837176 C46.0330371,26.4141935 43.409634,28.0674993 40.5208519,29.1190644 C38.0482073,30.0191484 35.8215776,30.2615974 35.3318896,29.9979193 C34.4523164,29.483225 33.5713558,28.3820242 33.2101379,26.9973553 C32.7534769,25.170199 33.3418974,22.6792188 35.636643,19.4961845 C43.3015609,8.93357348 56.5527145,3.55666308 71.3564112,5.07499095 C85.676223,6.46980913 96.436517,16.4828605 101.001391,32.7452236 C103.277213,40.7648216 103.920229,54.1004286 102.139094,65.9449766 C100.101115,79.4465885 95.2097318,90.0883289 86.9860939,94.9441913 C79.2035155,99.5502057 71.5539233,101.061236 64.7903877,100.520153 C63.7535555,100.425755 62.8920416,100.330032 62.2376364,100.236545 Z M89.4159782,99.0545838 C99.1858279,93.2857215 104.628528,81.4445311 106.860708,66.6563333 C108.739744,54.1607508 108.063762,40.1414682 105.596758,31.4482174 C100.526016,13.3836633 88.205418,1.9186624 71.8314485,0.323795235 C55.4052931,-1.36096999 40.4764844,4.69668124 31.7677052,16.6978038 C28.6849254,20.9738979 27.7606932,24.8864812 28.5838333,28.1790417 C29.2834829,30.8615242 30.9851836,32.98865 32.9970331,34.1622289 C37.0564655,36.3496566 47.0309711,32.7187696 51.1441272,27.7162824 L48.0409475,28.2284734 C53.7492367,31.7715494 60.0617732,31.8204838 68.8790417,29.6161667 L68.3,27.3 L68.6924944,29.6549662 C70.6775533,29.324123 71.7621655,27.4507019 71.4549662,25.6075056 C71.124123,23.6224467 69.2507019,22.5378345 67.4075056,22.8450338 C59.5490848,24.7355837 55.0667342,24.6994357 51.0876771,21.857252 L49.7,23.8 L51.3881821,22.1118179 C50.5573954,21.2810312 49.3197475,20.9434909 48.145022,21.3350661 C47.4336356,21.5721949 47.0637596,21.8598762 46.5118179,22.4118179 L46.1858004,22.8182366 C45.2497212,24.2892182 43.0458755,25.7704915 40.3167423,26.8395068 C39.1530348,27.295337 37.9844097,27.6371698 37.0343346,27.8136325 C36.6298122,27.8887667 36.293943,27.9278967 36.0661382,27.9323399 C36.087682,27.9493771 36.2351898,27.992004 36.4318896,28.0979193 C36.0808155,27.9211575 35.6125751,27.306592 35.4161667,26.5209583 C35.0968212,25.1133479 35.7209192,23.0655266 37.4336963,20.7002629 C44.6064649,10.8260665 57.1647139,5.75691525 71.159262,7.17528161 C84.5727787,8.57253225 94.6631729,17.9935391 98.8986407,33.3353446 C101.169173,41.4370843 101.70556,54.2446119 99.9531162,65.5724993 C97.8941709,78.881629 93.0461512,88.8296319 85.7803014,93.1476226 C77.3156666,98.135692 69.1831915,99.2137723 62.5821619,98.143335 C60.8044497,97.7861591 58.9598952,99.1183374 58.6450338,101.007506 C58.3239139,102.934225 59.6298816,104.642029 61.5075056,104.954966 C62.3079584,105.069968 63.2464445,105.174245 64.3838504,105.277645 C72.1078205,105.895703 80.7368679,104.1912 89.4159782,99.0545838 Z" id="Shape"></path>
                    <path d="M88.8118179,16.6881821 L88.9789809,16.8553451 L89.175681,16.9864785 L89.475681,17.1864785 L90.8,15.2 L89.1240065,16.9002833 C95.5074298,23.1925148 101.39093,26.0792787 106.559804,26.3833302 C107.9807,26.5024505 109.459535,26.3765922 110.82818,26.0033254 L110.2,23.7 L110.72721,26.0285117 C116.078532,24.8168917 120.448845,21.754483 122.462229,18.3029669 C123.132306,17.0979104 123.48745,16.1508586 123.48745,15.3 L123.48745,13.2293756 L121.437636,12.9365451 C120.459339,12.7967883 118.32183,12.5945915 115.764262,12.4182075 C114.254234,12.3237812 112.522648,12.226227 110.425482,12.1158499 C109.522035,12.0747229 108.866033,12.0345222 107.094573,11.9177226 C105.43362,11.8082092 104.592903,11.757812 103.603704,11.7148034 C98.2880012,11.3431188 92.8821293,10.8614074 89.7197223,10.4340551 L89.4,12.8 L90.154978,10.5350661 C89.5977737,10.3493313 89.1931793,10.31255 88.6,10.31255 L84.3833088,10.31255 L86.5527785,13.9283329 C87.0260709,14.7171535 87.7980773,15.6744415 88.8118179,16.6881821 Z M88.6,12.7 L88.6,15.08745 C88.7068207,15.08745 88.8579029,15.1358942 88.8579029,15.1358942 L89.0802777,15.1659449 C92.3713591,15.6106856 97.8596179,16.0997384 103.333838,16.4816607 C104.338932,16.5261808 105.154005,16.5750408 106.780427,16.6822774 C108.586105,16.8013331 109.260765,16.8426771 110.191591,16.8849874 C112.257352,16.993773 113.974337,17.0905045 115.451075,17.1828006 C117.887261,17.350863 119.920661,17.5432117 120.762364,17.6634549 L121.1,15.3 L118.71255,15.3 C118.71255,15.118325 118.718661,15.092444 118.702061,15.1367103 C118.628479,15.3329287 118.498268,15.6070572 118.312993,15.9405518 C117.011032,18.171443 113.767287,20.4444324 109.67279,21.3714883 L109.57182,21.3966746 C108.751806,21.620315 107.831931,21.6986022 106.898267,21.6207968 C102.896594,21.3846933 98.0754451,19.0191761 92.4759935,13.4997167 L92.3138061,13.3398463 L92.124319,13.2135215 L91.824319,13.0135215 L90.5,15 L92.1881821,13.3118179 C91.435256,12.5588918 90.9051791,11.9015965 90.6472215,11.4716671 L88.6,12.7 Z M90.9766591,15.100373 L90.6881821,14.8118179 C89.4513593,13.6120811 88.8657341,12.7754737 88.7201692,12.3004723 C88.7264754,12.3210505 88.6932592,12.5519821 88.6354002,12.6677001 C88.5943565,12.7497875 88.4877906,12.8530912 88.3886708,12.8968205 C88.4261757,12.8802742 88.599977,12.8578168 88.9299012,12.8813828 L89.1,12.88745 C89.1657499,12.88745 89.2277302,12.9258367 89.2277302,12.9258367 L89.4178381,12.956665 C91.4076024,13.2793294 94.0678256,13.5590037 97.5123929,13.8354349 C99.2265149,13.9729956 99.8454998,14.017358 103.633838,14.2816607 C105.525985,14.446545 106.867653,14.520263 110.491591,14.6849874 C112.557352,14.793773 114.274337,14.8905045 115.751075,14.9828006 C117.762195,15.1168959 119.252095,15.2390189 120.30007,15.349332 C121.039829,15.4272014 121.468662,15.4884633 121.731783,15.5410873 L122.2,13.2 L121.36171,15.4354391 C121.189703,15.3709365 121.021449,15.093812 121.022355,15.0838504 L121.014314,15.2082428 C121.004102,15.4737559 120.836307,15.9961143 120.49869,16.6200379 C120.066891,17.4180138 119.423422,18.2676926 118.604457,19.0816945 C116.581776,21.0921166 113.753019,22.6620909 110.25921,23.4746045 C109.010181,23.8064057 107.883177,23.9052657 106.670099,23.8186172 C102.151597,23.4521419 96.8685652,20.9126588 90.9766591,15.100373 Z M111.415157,28.1068376 C119.580685,26.2091407 125.599732,20.2265734 125.785686,15.3917572 L123.4,15.3 L125.777645,15.5161496 C125.968783,13.4136299 124.907407,11.6654797 123.03829,10.9645609 L122.857525,10.8967742 L122.668217,10.8589127 C121.705349,10.6663389 119.838204,10.4697974 116.058811,10.2178378 C114.554234,10.1237812 112.822648,10.026227 110.725482,9.91584986 C107.153399,9.75342123 105.850134,9.68181325 104.006824,9.52152541 C100.198351,9.2554688 99.5846228,9.21148306 97.8943571,9.07583693 C94.5687253,8.80895042 92.0136055,8.54032588 90.1821619,8.24333503 L89.8,10.6 L90.554978,8.33506606 C90.0140197,8.15474662 89.6342501,8.11255 89.1,8.11255 L89.1,10.5 L89.2700988,8.11861723 C87.0311111,7.95868954 85.2609221,8.73965526 84.3645998,10.5322999 C83.3248287,12.611842 84.0706719,15.0456461 87.3379866,18.2139513 L87.6118179,18.4881821 C94.2930218,25.079177 100.615137,28.1181338 106.307056,28.5796408 C108.06013,28.7049705 109.71727,28.5596074 111.415157,28.1068376 Z" id="Shape"></path>
                    <path d="M21.5340565,118.259375 C18.309637,115.209224 16.6677153,112.147262 16.8747769,110.145667 C17.1634709,107.6208 18.3580996,106.160699 20.1924944,105.854966 C23.4850886,105.264176 27.7822976,107.780773 30.2714,112.681194 C32.9533319,117.941912 38.0951692,120.377519 44.0777273,120.684317 C56.717882,121.327037 71.6300503,113.031945 79.2058982,101.294716 C78.8213591,101.938104 78.0297005,102.082041 77.4716671,101.747221 C76.7618964,101.321359 76.6179585,100.5297 76.9527785,99.9716671 C69.9997837,110.869287 55.7799098,118.762884 44.2334881,118.116285 C38.6593742,117.854899 34.6266913,115.531723 32.6262755,111.614242 C29.6907643,105.85194 24.3461969,102.565753 19.7463322,103.45605 C16.5775305,104.05962 14.6503764,106.508712 14.2295562,110.015547 C13.9382741,113.208738 16.0268056,116.928934 19.6671248,120.341734 C26.6963762,127.001069 37.5874016,131.039315 47.1885557,129.455619 C65.8887663,126.425986 83.2572257,112.766095 88.6619202,96.7639598 C88.4479711,97.4058665 87.6959105,97.7818968 87.045022,97.5649339 C86.3941335,97.3479711 86.0181032,96.5959105 86.2350661,95.945022 C81.2124074,110.728573 64.5999177,123.791386 46.9198405,126.643011 C44.9742799,127.01262 43.1008738,127.10183 41.226352,126.923304 C34.0128903,126.401228 26.5177753,122.937968 21.5340565,118.259375 Z M47.7467208,131.345284 C67.0455609,128.233537 85.1428183,114.003215 90.7605492,97.4680071 C91.3818968,95.6040895 90.4058665,93.6520289 88.554978,93.0350661 C86.7040895,92.4181032 84.7520289,93.3941335 84.1350661,95.245022 C79.3223154,109.49448 63.4399984,121.985555 46.4181848,124.743279 C38.3953011,126.066631 28.9600341,122.568161 22.941956,116.866824 C20.2583796,114.350927 18.8561024,111.853121 18.9776452,110.51615 C19.1602431,109.002792 19.691891,108.327157 20.6467208,108.145284 C22.9550433,107.698523 26.3297481,109.77351 28.3726878,113.783725 C31.1984725,119.317556 36.806351,122.548182 43.988211,122.884831 C57.3000681,123.630394 73.1277721,114.844274 81.0127694,102.484008 C82.0029717,100.835416 81.6074913,98.6602736 79.9283329,97.6527785 C78.3354158,96.6970283 76.1602736,97.0925087 75.1527785,98.7716671 C68.5128641,109.056497 55.1887448,116.468215 44.3212391,115.91563 C39.8757573,115.687657 36.3002736,113.994007 34.5269939,110.51565 C31.1389857,103.845503 24.8572369,100.166689 19.3782234,101.150102 C15.3155846,101.827021 12.6468612,105.088794 12.1279904,109.628913 C11.7348628,113.427816 14.0580101,117.760172 18.2593447,121.734407 C24.0254783,127.147536 32.540723,131.082166 40.8278624,131.681236 C43.0991262,131.89817 45.4257201,131.78738 47.7467208,131.345284 Z" id="Shape"></path>
                    <path d="M93.6881821,56.0118179 L92.8881821,55.2118179 C88.0764984,50.1771779 86.329892,48.4527686 83.9474451,46.5677662 C81.1104774,44.3231451 78.3498509,42.8660055 75.1219857,41.9949943 C71.5166421,40.9509302 67.9735562,41.1581282 61.5982006,42.2466036 L62,42.21255 C57.3211741,42.8152652 56.0419783,42.9136648 54.7682175,42.6589127 C52.4820745,42.2884814 50.8568905,41.0265737 50.5101379,39.6973553 C50.2229819,38.548219 50.8040408,37.147718 53.2406892,35.3037679 C59.4094262,30.5655403 70.6518869,29.7223558 78.5822356,33.4596465 L79.6,31.3 L78.3716671,33.3472215 C77.8838469,33.0545294 77.5715326,32.2737436 78.0527785,31.4716671 C78.3454706,30.9838469 79.1262564,30.6715326 79.9283329,31.1527785 L79.7243517,31.0434701 C70.9154,26.8592181 58.7564532,27.7537455 51.7342475,33.215461 C48.8176123,35.4692096 47.3668493,37.8744219 48.1044097,40.455883 C48.8061401,42.9119397 51.3804801,44.7568833 54.377424,45.1655575 C56.06073,45.4644687 57.401071,45.3401071 62.1376364,44.6634549 C62.3940797,44.6276849 63.3351314,44.4949914 63.3189136,44.4972708 C65.5213609,44.1877198 66.8056865,44.0339529 68.1738981,43.9394959 C70.7223704,43.7635574 72.7876029,43.8937292 74.544117,44.3955903 C77.622876,45.255874 80.2330254,46.719895 83.1091223,49.1136315 C85.158945,50.8196712 86.6633688,52.3032511 91.0864361,56.8624128 L91.9118179,57.6881821 C91.3794607,57.1558249 91.3794607,56.3441751 91.9118179,55.8118179 L91.7918425,55.9317933 L91.69004,56.06753 C91.8709204,55.8263561 92.2985327,55.61255 92.7,55.61255 C93.068897,55.61255 93.4649279,55.7885638 93.6881821,56.0118179 Z M95.50996,58.93247 L93.6,57.5 L95.2881821,59.1881821 C96.6205393,57.8558249 96.6205393,55.6441751 95.2881821,54.3118179 L94.4881821,53.5118179 C89.958633,48.8425046 88.395859,47.301383 86.1636708,45.4435629 C82.7994695,42.6435837 79.6053359,40.8520087 75.8424736,39.8006207 C73.4892821,39.128238 70.8999532,38.9650324 67.8450368,39.1759342 C66.3339021,39.2802582 64.9618149,39.4445323 62.6543396,39.7688449 C62.6674922,39.7669963 61.7301739,39.8991634 61.4700639,39.9354578 C57.4283408,40.5128341 56.1496303,40.6314773 55.1149038,40.4488785 C53.760251,40.2623073 52.8232012,39.5907549 52.6955903,39.144117 C52.6947503,39.141177 52.7106087,39.0587825 52.8693527,38.7956016 C53.1693126,38.2982997 53.7684839,37.6778979 54.6598003,36.9891534 C60.2094969,32.6727377 70.4408896,31.9200195 77.6756483,35.3565299 L78.7,33.2 L77.4716671,35.2472215 C79.2137436,36.2924674 81.207161,35.4951004 82.1472215,33.9283329 C83.1924674,32.1862564 82.3951004,30.192839 80.8283329,29.2527785 L80.6177644,29.1403535 C71.1206538,24.6647037 57.9689324,25.6510828 50.3456725,31.5066302 C46.4706029,34.4390381 45.0998181,37.742981 45.8838333,40.8790417 C46.7550402,44.2191607 49.9772098,46.7210806 53.9198405,47.3569888 C55.8635772,47.7474463 57.2697349,47.6392803 62.3155343,46.9665071 L62,46.98745 C68.0659609,45.9863445 71.1220133,45.8076279 73.8361502,46.5932992 C76.447468,47.2983503 78.6340489,48.4524918 80.9847149,50.312349 C83.1250224,52.0057696 84.7946666,53.6541947 89.4741776,58.5496832 L90.3118179,59.3881821 C90.9550721,60.0314362 91.756103,60.38745 92.7,60.38745 C93.8014673,60.38745 94.7890796,59.8936439 95.50996,58.93247 Z" id="Shape"></path>
                </g>
                <g id="Group">
                    <path d="M0.590554553,25.4966474 C1.06235099,29.6162358 2.55531177,33.5804299 4.26876232,36.354588 C5.25531739,37.8686289 5.31590459,39.1864004 4.66283229,40.2550642 L6.7,41.5 L4.74412475,40.1308873 C3.08494007,42.5011512 4.2954143,45.8097807 7.12095832,46.5161667 L15.7336581,48.6193047 C18.5053962,49.3122762 21.0276675,47.0340956 20.7776452,44.2838504 C20.631227,43.0321485 21.2145491,41.7734007 23.03247,40.40996 C27.2660343,37.2740391 29.3995286,35.2916778 31.308388,32.1180526 C33.8654037,27.866818 34.8175206,22.6421188 33.9681829,15.9972999 L33.7570557,14.3455406 L32.1340544,13.9730485 L7.73405445,8.37304849 L6.30473075,8.04500698 L5.36591011,9.17159176 C1.33366477,14.0102862 -0.0820649839,19.6235304 0.590554553,25.4966474 Z M6.66594555,13.0269515 L31.0659456,18.6269515 L29.2318171,16.6027001 C29.9502147,22.2231044 29.1948916,26.3679058 27.216612,29.6569474 C25.7223941,32.1411993 23.9493753,33.7886205 20.178924,36.5815474 C17.0284415,38.9443563 15.6838348,41.8458762 16.0289026,44.7789526 C15.9804626,44.2553353 16.4106877,43.8667448 16.8790417,43.9838333 L8.26634185,41.8806953 C8.71800852,41.993575 8.90705078,42.5102905 8.65587525,42.8691127 L8.73716771,42.7449358 C10.3824433,40.0526666 10.2309151,36.7569275 8.29975342,33.795813 C6.96700845,31.6366599 5.72092657,28.3279926 5.33444545,24.9533526 C4.8027798,20.3110038 5.88962203,16.0017697 9.03408989,12.2284082 L6.66594555,13.0269515 Z" id="Shape"></path>
                    <path d="M12.1293683,38.6913251 C22.2485316,41.6530314 31.649434,32.2894341 32.0861465,19.0788809 C32.3800848,12.0264817 27.0597875,9.06311472 19.0393358,9.11317059 C16.5745921,9.12855312 13.9690902,9.42257614 11.3659671,9.90204624 C10.4344431,10.0736239 9.56778961,10.2575943 8.78671236,10.4421613 C8.31098607,10.5545744 7.96387676,10.6438083 7.76646134,10.6981429 L7.0250355,10.902205 L6.54209169,11.5006354 C0.446865133,19.0534161 2.7153254,35.9359955 12.1293683,38.6913251 Z M9.03353866,15.3018571 C9.17674824,15.2624417 9.46782252,15.1876131 9.88477202,15.0890887 C10.5914877,14.9220932 11.3809865,14.7545011 12.2309079,14.5979538 C14.5796528,14.1653377 16.9185567,13.9013994 19.0691355,13.8879776 C24.7344242,13.8526204 27.4616589,15.3716703 27.3146197,18.9006092 C26.9699501,29.3241952 20.191491,36.0757557 13.4706317,34.1086749 C7.79189758,32.4466064 6.0765674,19.6805914 10.2579083,14.4993646 L9.03353866,15.3018571 Z" id="Shape"></path>
                    <path d="M3.43771118,6.8542992 C2.98354341,9.95777898 5.18492792,13.7731831 8.38709296,15.8815393 C12.2353836,18.4153148 16.7856392,18.1073682 20.4147626,14.3611763 L16.7511933,14.0791555 C19.3279939,17.7202869 24.0109649,20.5510983 28.5090696,21.3963797 C33.8289772,22.3960939 38.1571907,20.3921001 38.5789705,15.4010398 L35.6022235,17.5114023 C38.9439301,18.3756368 41.876248,18.2324911 43.7693237,16.9772996 C46.2944107,15.3030571 46.3251425,12.2836621 44.2041699,9.83638609 C42.7406338,8.09091397 39.6351092,6.84997939 35.0387602,5.70481533 C33.1491679,5.2340301 31.1366056,4.82153065 29.1256981,4.46860384 C28.4230864,4.3452911 27.7701757,4.2380982 27.1830312,4.14740423 C26.8275035,4.09248723 26.570423,4.05494058 26.4279672,4.03518393 L26.9410403,4.16559434 C10.6152626,-1.97950178 4.56289536,-0.834459336 3.43771118,6.8542992 Z M25.5082222,8.72822919 L25.7720328,8.76481607 C25.8908764,8.78129802 26.1237322,8.81530664 26.4541153,8.86633966 C27.0101555,8.95222907 27.6310793,9.05417046 28.3002892,9.17162098 C30.2088723,9.50658921 32.1158005,9.89743765 33.8843993,10.3380778 C37.4350107,11.2227 39.9923738,12.2445951 40.570756,12.9342046 C40.8771198,13.288179 40.9562325,13.4647911 40.9564237,13.446014 C40.9586186,13.2303576 41.0740351,13.035256 41.1306763,12.9977004 C40.5729876,13.3674722 38.9548586,13.4464637 36.7977765,12.8885977 L34.0592219,12.1803508 L33.8210295,14.9989602 C33.6861852,16.5946185 32.278709,17.2462901 29.3909304,16.7036203 C26.0694166,16.0794432 22.4815765,13.9106279 20.6488067,11.3208445 L18.9869381,8.97255196 L16.9852374,11.0388237 C15.0140086,13.0736405 13.0112216,13.2091827 11.012907,11.8934607 C9.23198609,10.7208742 8.00806146,8.59958775 8.16228882,7.5457008 C8.42017675,5.78346658 8.73384528,5.32474902 9.94380706,5.09583733 C12.4136478,4.62857017 17.3345063,5.65160581 25.2589597,8.63440566 L25.5082222,8.72822919 Z" id="Shape"></path>
                    <path d="M47.2306123,10.2806201 C47.5737766,13.0545314 49.9817523,14.8909939 53.0918397,14.2362387 C56.2221122,13.6603882 57.7315237,11.0627962 56.5944128,8.40953737 C55.7380169,6.41128032 53.5636123,4.92756893 51.3082428,5.01431391 C48.520642,5.12152933 46.9104775,7.69286346 47.2306123,10.2806201 Z M52.2055872,10.2904626 C52.1639969,10.1934185 52.1632757,9.9525533 52.3170005,9.68800366 C52.3902116,9.56201242 52.4739124,9.48025098 52.5298672,9.44712573 C52.4848695,9.47376438 52.3664463,9.51540369 52.1674838,9.55205468 C51.8625482,9.61546911 51.8409906,9.61151219 51.8915527,9.65007378 C51.9603259,9.70252419 51.973515,9.72774191 51.9693877,9.69437987 C51.959245,9.61239322 51.9757756,9.53118947 51.9797132,9.5249013 C51.9015526,9.649719 51.6956175,9.77784531 51.4917572,9.78568609 C51.7017361,9.77760998 52.1031945,10.0515463 52.2055872,10.2904626 Z" id="Shape"></path>
                </g>
            </g>
            <g id="Group" transform="translate(1.000000, 1.000000)">
                <g id="Hand" transform="translate(19.000000, 26.000000)" sketch:type="MSShapeGroup">
                    <path d="M10.8,3.6 C8.5,2.5 2.6,2.5 2.9,8.7 C3.2,14.9 9.4,18.2 13.5,19.3 C15.7,19.9 15.9,17.3 17,16.3 C19.9,13.7 13,4.7 10.8,3.6 L10.8,3.6 Z" id="Shape" fill="#FFD200"></path>
                    <path d="M5.04739012,1.17308503 C2.06396472,2.27565529 0.330025521,4.98555455 0.515339983,8.81538677 C0.830995493,15.338934 6.25759353,19.8287978 12.8813435,21.6059015 C14.2982982,21.9923648 15.633104,21.7166734 16.6775307,20.8381836 C17.3237249,20.2946558 17.6567192,19.7906645 18.1966285,18.7838067 C18.2255638,18.7298128 18.2255638,18.7298128 18.2533616,18.6779339 C18.4868225,18.2424694 18.5921441,18.0791413 18.6059727,18.0665699 C21.1281366,15.805396 20.3391739,12.2663347 17.8563897,8.15363111 C16.0725422,5.19870822 13.5256246,2.29356207 11.8677001,1.4645998 C9.94395504,0.544140642 7.23524301,0.364530705 5.04739012,1.17308503 Z M9.7322999,5.7354002 C10.3836123,6.06105641 12.4131264,8.37602526 13.7686103,10.6213689 C14.5262262,11.8763509 15.0405526,13.0260022 15.2338145,13.8929195 C15.3123886,14.2453806 15.3277543,14.5059193 15.3028173,14.6524892 C15.3026729,14.6533381 15.3394782,14.5822597 15.4062697,14.5223777 C14.8333695,15.0431191 14.5419296,15.4950712 14.0450926,16.4217996 C14.0162912,16.4755512 14.0162912,16.4755512 13.9885567,16.5273044 C13.7381526,16.9942743 13.6238083,17.167336 13.6039508,17.1840386 C13.7770078,17.0384766 14.0640626,16.9791881 14.1281797,16.9966746 C9.26964615,15.6931445 5.47677528,12.5549954 5.28466002,8.58461323 C5.19867505,6.80759056 5.70137986,6.02193476 6.70260988,5.65191497 C7.64570086,5.30338134 9.01846221,5.39440674 9.76992157,5.75380035 L9.7322999,5.7354002 Z" id="Shape" fill="#231815"></path>
                </g>
                <g id="Barrel" transform="translate(15.000000, 31.000000)">
                    <g id="body" transform="translate(0.000000, 14.000000)">
                        <path d="M69.6,1.8 L7.2,1.8 C7.2,1.8 0.2,14.1 2.6,34.1 C5,54.1 13.4,62.1 13.4,62.1 C13.4,62.1 20.3,70.5 38.2,70.5 C56,70.5 63.3,62.1 63.3,62.1 C63.3,62.1 72.4,54.4 74.1,34.1 C75.9,13.8 69.6,1.8 69.6,1.8 L69.6,1.8 Z" id="XMLID_9_" fill="#A06323" sketch:type="MSShapeGroup"></path>
                        <g id="Clipped" transform="translate(2.000000, 1.000000)">
                            <mask id="mask-2" sketch:name="XMLID_9_" fill="white">
                                <use xlink:href="#path-1"></use>
                            </mask>
                            <g id="XMLID_9_"></g>
                            <g id="Lines" mask="url(#mask-2)" sketch:type="MSShapeGroup">
                                <g transform="translate(4.000000, 7.000000)" id="Shape">
                                    <path d="M31.8,59.2 L31.8,4.2" stroke="#7E4D18" stroke-width="2.0299" fill="#A06323"></path>
                                    <path d="M15.4490456,2.32399538 C15.414022,2.61281857 15.3750757,2.95161702 15.3331936,3.33806652 C15.2138315,4.439432 15.0945843,5.70343856 14.9833543,7.11150603 C14.1282722,17.9360453 14.2314175,29.5964176 15.952303,40.5651295 C17.0329226,47.4528655 18.7131396,53.6564145 21.0711821,59.0091709 L22.9288179,58.1908291 C20.6481185,53.0136415 19.0128385,46.9760049 17.9576724,40.2505063 C16.2651504,29.4625802 16.1633207,17.9509223 17.0069504,7.27135955 C17.1165912,5.88340878 17.2339913,4.63898128 17.3512766,3.55677921 C17.3922211,3.17898007 17.4301851,2.84872737 17.4641837,2.56835722 C17.4844094,2.40156497 17.4987008,2.28931569 17.5060727,2.23394459 L15.4939273,1.96605541 C15.4855227,2.02918327 15.4702332,2.14927162 15.4490456,2.32399538 Z" stroke="none" fill="#7E4D18"></path>
                                    <path d="M13.1266697,57.9573308 L14.6733303,56.6426692 C3.16706126,43.1058821 -1.38758021,14.6476843 5.50516006,1.05913916 L3.69483994,0.140860839 C-3.58372113,14.4900241 1.11056319,43.8207349 13.1266697,57.9573308 Z" stroke="none" fill="#7E4D18"></path>
                                    <path d="M46.1358163,2.56835722 C46.1698149,2.84872737 46.2077789,3.17898007 46.2487234,3.55677921 C46.3660087,4.63898128 46.4834088,5.88340878 46.5930496,7.27135955 C47.4366793,17.9509223 47.3348496,29.4625802 45.6423276,40.2505063 C44.5871615,46.9760049 42.9518815,53.0136415 40.6711821,58.1908291 L42.5288179,59.0091709 C44.8868604,53.6564145 46.5670774,47.4528655 47.647697,40.5651295 C49.3685825,29.5964176 49.4717278,17.9360453 48.6166457,7.11150603 C48.5054157,5.70343856 48.3861685,4.439432 48.2668064,3.33806652 C48.2249243,2.95161702 48.185978,2.61281857 48.1509544,2.32399538 C48.1297668,2.14927162 48.1144773,2.02918327 48.1060727,1.96605541 L46.0939273,2.23394459 C46.1012992,2.28931569 46.1155906,2.40156497 46.1358163,2.56835722 Z" stroke="none" fill="#7E4D18"></path>
                                    <path d="M48.9266697,56.6426692 L50.4733303,57.9573308 C62.4894368,43.8207349 67.1837211,14.4900241 59.9051601,0.140860839 L58.0948399,1.05913916 C64.9875802,14.6476843 60.4329387,43.1058821 48.9266697,56.6426692 Z" stroke="none" fill="#7E4D18"></path>
                                </g>
                            </g>
                            <ellipse id="Oval" fill="#7E4D18" sketch:type="MSShapeGroup" mask="url(#mask-2)" cx="36.4" cy="4.9" rx="33.9" ry="15.3"></ellipse>
                            <path d="M71.31495,4.9 C71.31495,-4.33108859 55.6193355,-11.41495 36.4,-11.41495 C17.1806645,-11.41495 1.48505,-4.33108859 1.48505,4.9 C1.48505,14.1310886 17.1806645,21.21495 36.4,21.21495 C55.6193355,21.21495 71.31495,14.1310886 71.31495,4.9 Z M3.51495,4.9 C3.51495,-2.76882476 18.1744295,-9.38505 36.4,-9.38505 C54.6255705,-9.38505 69.28505,-2.76882476 69.28505,4.9 C69.28505,12.5688248 54.6255705,19.18505 36.4,19.18505 C18.1744295,19.18505 3.51495,12.5688248 3.51495,4.9 Z" id="Oval-2" fill="#000000" sketch:type="MSShapeGroup" mask="url(#mask-2)"></path>
                            <path d="M69.4,48.2 C67.5,56.7 52.9,64.9 36.4,64.9 C19.3,64.9 5.2,56.3 4.3,47.5 C1.7,49.6 0.3,52.1 0.3,54.6 C0.3,63.2 16.5,70.2 36.4,70.2 C56.3,70.2 72.5,63.2 72.5,54.6 C72.5,52.3 71.4,50.1 69.4,48.2 L69.4,48.2 Z" id="Shape" fill="#7E4D18" sketch:type="MSShapeGroup" mask="url(#mask-2)"></path>
                            <path d="M36.4,63.7959 C20.3872115,63.7959 6.2635848,55.8475386 5.39837062,47.3876666 L5.19109866,45.3610075 L3.606253,46.6410751 C0.770093515,48.9318193 -0.8041,51.7303856 -0.8041,54.6 C-0.8041,64.0628678 15.9532647,71.3041 36.4,71.3041 C56.8467353,71.3041 73.6041,64.0628678 73.6041,54.6 C73.6041,52.0020553 72.3914224,49.5189536 70.1604483,47.3995281 L68.7476035,46.0573256 L68.322491,47.959145 C66.4876647,56.1675782 51.9050094,63.7959 36.4,63.7959 Z M68.6395517,49.0004719 C70.4562999,50.7263827 71.3959,52.6503257 71.3959,54.6 C71.3959,62.3367497 55.7541496,69.0959 36.4,69.0959 C17.0458504,69.0959 1.4041,62.3367497 1.4041,54.6 C1.4041,52.4585033 2.64136023,50.2589296 4.993747,48.3589249 L3.20162938,47.6123334 C4.20857304,57.4580047 19.3943269,66.0041 36.4,66.0041 C52.8194886,66.0041 68.3699243,57.8695233 70.477509,48.440855 L68.6395517,49.0004719 Z" id="Shape" fill="#000000" sketch:type="MSShapeGroup" mask="url(#mask-2)"></path>
                        </g>
                        <path d="M7.2,0.20835 L6.27446394,0.20835 L5.81667874,1.012744 C5.63182999,1.33754966 5.32908349,1.9333831 4.94854838,2.78934402 C4.32575968,4.19022077 3.70575426,5.82897934 3.12882961,7.69463705 C0.77793813,15.296945 -0.186609252,24.2371639 1.01968758,34.2896375 C1.93517496,41.918699 3.76141443,48.4007218 6.23633728,53.8023391 C7.53251055,56.6312887 8.92748228,58.9894552 10.3304233,60.9008696 C11.1910537,62.0734216 11.878518,62.8489624 12.3023103,63.2525741 C12.4443465,63.4441601 12.9577158,63.9714286 13.7270423,64.6252912 C14.9713791,65.6828726 16.5045353,66.7324661 18.3421751,67.7063572 C23.5247642,70.4529659 30.1087627,72.09165 38.2,72.09165 C46.2441823,72.09165 52.8702314,70.4546261 58.1576638,67.7129945 C60.0295197,66.7424026 61.6025614,65.6970267 62.8891429,64.6443691 C63.6827739,63.9950347 64.2157489,63.4727192 64.5013757,63.1440527 L64.328114,63.3150438 C64.7472499,62.9603903 65.4217673,62.2794938 66.2638326,61.2461156 C67.6332697,59.5655492 68.9941265,57.4806783 70.2579538,54.9665754 C73.0578876,49.3967304 74.9922052,42.5187223 75.686098,34.2328259 C76.5732061,24.2284342 75.6432202,15.407777 73.543828,7.94951941 C72.9997671,6.01669994 72.4150192,4.32475976 71.8276333,2.88329455 C71.4687639,2.00261656 71.1833263,1.39173337 71.0092436,1.06014712 L70.5620501,0.20835 L69.6,0.20835 L7.2,0.20835 Z M68.1907564,2.53985288 C68.2171232,2.59007538 68.2768509,2.7104037 68.3652553,2.89960367 C68.5189608,3.22855878 68.6919983,3.62395403 68.8796909,4.08455824 C69.4227982,5.41736213 69.9685434,6.99645008 70.4796095,8.81205285 C72.4776782,15.9103505 73.3670283,24.3455892 72.5145704,33.95942 C71.8539141,41.8482051 70.0307442,48.3309964 67.4137964,53.5368314 C66.2556783,55.8406496 65.0215938,57.7313017 63.7960894,59.2352345 C63.3748577,59.752168 62.9876182,60.1819851 62.6449884,60.5278551 C62.4511771,60.7234994 62.3232515,60.8414931 62.271886,60.8849562 L62.0986243,61.0559473 C62.0690629,61.0899631 61.9825122,61.1820694 61.8375212,61.3241606 C61.5780514,61.578441 61.2571555,61.8666139 60.8733571,62.1806309 C59.7536886,63.0967233 58.3642303,64.0200974 56.6923362,64.8870055 C51.8547686,67.3953739 45.7308177,68.90835 38.2,68.90835 C30.6287373,68.90835 24.5564858,67.3970341 19.8328249,64.8936428 C18.2032772,64.0300339 16.8606522,63.1108774 15.7885827,62.1997088 C15.4218641,61.8880289 15.1169233,61.6023186 14.8718422,61.3506021 C14.7358149,61.210892 14.6557987,61.121234 14.6299097,61.089717 C14.4404778,60.8929384 14.3041655,60.7519381 14.0997898,60.5213783 C13.7411033,60.1167376 13.3363935,59.6164095 12.89666,59.0173017 C11.6199136,57.2778191 10.3351978,55.1060377 9.13032939,52.4763646 C6.79275224,47.3745097 5.0564917,41.2118565 4.18031242,33.9103625 C3.02961937,24.3212537 3.94605057,15.8270152 6.17004011,8.63508249 C6.70898771,6.89223485 7.2845597,5.37091986 7.85734841,4.08251117 C8.05528445,3.63728152 8.23774814,3.25448922 8.39979524,2.93556537 C8.49291189,2.75230308 8.55573871,2.63572248 8.58332126,2.587256 L7.2,3.39165 L69.6,3.39165 L68.1907564,2.53985288 Z" id="XMLID_9_" fill="#000000" sketch:type="MSShapeGroup"></path>
                        <path d="M24.7,22.1 C10,19.7 -1.1,37.7 11,51.5 C23.3,65.4 40.6,55.4 41,42.4 C41.4,32.2 32.9,23.7 24.7,22.1 M10.5,28.2 C15.4,23 24.4,19.9 33.2,28.4 C33.1,28.4 27.2,27.2 31,34.1 C33.1,37.8 33,40.4 30.8,45.1 C29.9,47.5 29.7,48.2 28.9,50.7 C26.5,43.7 24.6,37.9 23.4,30.6 C25,30.8 26.9,31 26,29.8 C25.9,29.6 17.3,28.4 17.3,28.4 C16.6,28.3 16.5,29 16.5,29 C16.4,29.5 16.5,29.6 18.3,29.9 C18.6,32.4 18.7,33.6 19.7,37.4 C18.6,40.5 17.4,43.7 16.9,49 C13.6,41 12.4,35.7 12.6,29.4 C13.2,29.2 13.9,29.5 14.4,29.2 C14.8,29 15,28.3 14.6,28.1 C13.1,27.6 11.9,28.3 10.5,28.2 M29.1,55.2 C31.2,49.4 34.2,44 36.2,38.2 C36.6,37.1 37,35.3 36.7,33.1 C40.8,40.7 39.5,50.8 29.1,55.2 M15.6,53.8 C6.1,47.3 5,37.1 8.9,30.3 C8.5,37.9 10.3,44.2 15.6,53.8 M21.4,56.1 C20.1,55.9 19.1,55.6 17.9,55 C17.8,51.4 17.9,47 20.4,39.9 C23.2,49 26.5,55.9 26.5,55.9 C25.8,56.1 23.8,56.5 21.4,56.1" id="Shape" fill="#FFFFFF" sketch:type="MSShapeGroup"></path>
                    </g>
                    <g id="rid" transform="translate(5.000000, 0.000000)">
                        <path d="M64.6,15.8 C64.6,23.6 50.6,29.8 33.4,29.8 C16.2,29.8 2.2,23.5 2.2,15.8 C2.2,8 16.2,1.8 33.4,1.8 C50.6,1.7 64.6,8 64.6,15.8 L64.6,15.8 Z" id="Shape" fill="#A06323" sketch:type="MSShapeGroup"></path>
                        <path d="M60.8,16.9 C60.8,23 48.5,28 33.4,28 C18.3,28 6,23 6,16.9 C6,10.8 18.3,5.8 33.4,5.8 C48.5,5.8 60.8,10.8 60.8,16.9 L60.8,16.9 Z" id="SVGID_9_" fill="#7E4D18" sketch:type="MSShapeGroup"></path>
                        <g id="Clipped" transform="translate(6.000000, 5.000000)">
                            <mask id="mask-4" sketch:name="SVGID_9_" fill="white">
                                <use xlink:href="#path-3"></use>
                            </mask>
                            <g id="SVGID_9_"></g>
                            <path d="M28.4199893,0.723976456 L27.5800107,-1.12397646 L-1.0199893,11.8760235 L-0.180010702,13.7239765 L28.4199893,0.723976456 Z" id="Shape" fill="#A06323" sketch:type="MSShapeGroup" mask="url(#mask-4)"></path>
                            <path d="M41.413145,2.42705703 L40.586855,0.572942974 L3.78685502,16.972943 L4.61314498,18.827057 L41.413145,2.42705703 Z" id="Shape" fill="#A06323" sketch:type="MSShapeGroup" mask="url(#mask-4)"></path>
                            <path d="M51.4122102,6.32747303 L50.5877898,4.47252697 L12.7877898,21.272527 L13.6122102,23.127473 L51.4122102,6.32747303 Z" id="Shape" fill="#A06323" sketch:type="MSShapeGroup" mask="url(#mask-4)"></path>
                            <path d="M56.709287,12.0287667 L55.890713,10.1712333 L26.390713,23.1712333 L27.209287,25.0287667 L56.709287,12.0287667 Z" id="Shape" fill="#A06323" sketch:type="MSShapeGroup" mask="url(#mask-4)"></path>
                        </g>
                        <path d="M33.4,28.20835 C16.9938603,28.20835 3.79165,22.2790387 3.79165,15.8 C3.79165,9.25766318 16.9175805,3.39165 33.4,3.39165 C49.8148118,3.29624195 63.00835,9.22165842 63.00835,15.8 C63.00835,22.3423368 49.8824195,28.20835 33.4,28.20835 Z M33.3907464,0.2083769 C15.3556868,0.20835 0.60835,6.79897399 0.60835,15.8 C0.60835,24.7333507 15.4337259,31.39165 33.4,31.39165 C51.4443132,31.39165 66.19165,24.801026 66.19165,15.8 C66.19165,6.7659522 51.3579545,0.103916387 33.3907464,0.2083769 Z" id="Shape-2" fill="#000000" sketch:type="MSShapeGroup"></path>
                    </g>
                </g>
                <g id="Wapuu" transform="translate(2.000000, 15.000000)" sketch:type="MSShapeGroup">
                    <path d="M85.5,94.1 C80.4,109.3 63.4,122.9 45.1,126 C29.3,128.6 12.9,115.4 13.6,108.1 C14.4,99.8 24.8,101 29.5,110.1 C36.6,124.1 64.7,116.6 76.2,98.5 L85.5,94.1 L85.5,94.1 Z" id="Shape" fill="#FF8800"></path>
                    <path id="Shape" fill="#57A1BE" d="M31,28.2 C30.9,28.3 30.8,28.3 30.7,28.4 C30.9,28.4 31,28.3 31.2,28.3 C31.1,28.2 31,28.2 31,28.2 L31,28.2 Z"></path>
                    <path d="M41.5,27.3 L41,27.3 C37.6,27.1 34.2,27.4 31.1,28.3 C34.9,30.5 38.4,29.2 41.5,27.3 L41.5,27.3 Z" id="Shape" fill="#57A1BE"></path>
                    <path d="M84.7,94.2 C102.9,83.4 103.8,46.3 99.4,30.5 C95,14.7 84.3,3.4 68.6,1.8 C52.9,0.2 39.4,6.2 31.7,16.7 C26.5,23.8 29.7,28 31.8,29.1 C33.9,30.2 43.2,27.3 46.1,22.7 C52,26.9 59,25.7 65.1,24.3 L76.3,28.4 C67.5,24.2 55.9,25.6 49.6,30.4 C43.3,35.2 47.1,39.3 51.6,40.1 C56.1,40.9 65.2,37.5 72,39.4 C78.8,41.3 80.7,44 87.7,51.1 C87.7,51.1 89.5,66.7 85,72.7 C78.3,68.2 66.4,72.7 62.1,81.1 L59.2,99.7 C65,100.6 74.6,100.2 84.7,94.2 Z" id="Shape" fill="#FFD200"></path>
                    <path d="M85.3,73.8 C85.2,73.8 85.1,73.8 85,73.7 C84.4,73.5 84.2,72.9 84.4,72.3 C85.6,69 86.4,65.5 86.6,61.9 C86.9,57.9 86.5,54 85.5,50.1 C85.4,49.5 85.7,48.9 86.3,48.8 C86.9,48.6 87.5,49 87.6,49.6 C88.6,53.6 89,57.8 88.7,62 C88.4,65.8 87.6,69.5 86.3,73 C86.3,73.5 85.8,73.8 85.3,73.8 L85.3,73.8 Z" id="Shape" fill="#000000"></path>
                    <path d="M63.2,81.5 C63,81.5 62.9,81.4 62.7,81.4 C62.2,81.1 62,80.4 62.3,79.9 C65.6,74.2 71.2,70.9 77.9,70.7 C83.4,70.5 88.6,72.6 90.7,75.7 C91,76.2 90.9,76.9 90.4,77.2 C89.9,77.5 89.2,77.4 88.9,76.9 C87.2,74.4 82.6,72.7 77.9,72.8 C74.5,72.9 68.1,74.1 64.1,81 C64,81.3 63.6,81.5 63.2,81.5 L63.2,81.5 Z" id="Shape" fill="#000000"></path>
                    <path d="M62.6,100.9 C61.5,100.8 60.6,100.7 59.9,100.6 C59.3,100.5 58.9,100 59,99.4 C59.1,98.8 59.7,98.4 60.2,98.5 C63.9,99.1 73.8,99.8 85,93.2 C102.5,82.8 103.6,46.4 99.2,30.7 C94.7,14.4 83.8,4.3 69.4,2.8 C54.6,1.3 41.2,6.7 33.5,17.3 C31.4,20.2 30.6,22.9 31.1,25.1 C31.5,26.7 32.5,27.8 33.3,28.2 C34.6,28.9 43.4,26.5 46.2,22.1 C46.4,21.9 46.6,21.7 46.9,21.6 C47.2,21.5 47.5,21.6 47.7,21.8 C53.3,25.8 60,24.6 65.8,23.2 C66.4,23.1 67,23.4 67.1,24 C67.2,24.6 66.9,25.2 66.3,25.3 C59.9,26.9 53.1,27.8 47.3,24.2 C43.6,28.7 34.8,31.5 32.2,30.1 C31,29.4 29.5,27.9 28.9,25.6 C28.4,23.6 28.6,20.4 31.7,16.1 C39.9,4.8 54,-0.9 69.6,0.7 C85,2.2 96.5,13 101.3,30.1 C103.4,37.5 104.5,51 102.5,64.3 C100.9,74.9 96.7,88.8 86.2,95 C76.4,100.8 67.6,101.3 62.6,100.9 L62.6,100.9 Z" id="Shape" fill="#000000"></path>
                    <path d="M87.5,9.7 C83.2,9.1 86.3,12.5 87.7,13.8 C89,15.1 98.6,25.1 108.3,22.9 C118,20.7 121.4,13.1 119.5,12.4 C117.7,11.8 96.3,11 87.5,9.7 L87.5,9.7 Z" id="Shape" fill="#FF8800"></path>
                    <path d="M86.6,10.7 C86.9,11.2 87.5,12 88.5,13 L88.8,13.2 C95.8,20.1 101.3,21.8 104.7,22 L104.7,22 C105.9,22.1 107.1,22 108.2,21.7 C113.5,20.5 117,17.5 118.4,15.1 C118.9,14.2 119.1,13.6 119.1,13.3 C118.4,13.2 116.5,13 113.6,12.8 C112,12.7 110.2,12.6 108.3,12.5 C106.1,12.4 103.8,12.2 101.5,12.1 C97.2,11.8 91.1,11.3 87.4,10.8 C87.1,10.7 86.8,10.7 86.6,10.7 L86.6,10.7 Z M104.5,24.2 L104.5,24.2 C100.8,23.9 94.7,22.1 87.3,14.8 L87,14.5 C83.7,11.3 84.3,10 84.5,9.6 C84.9,8.8 85.7,8.4 87.1,8.5 C87.3,8.5 87.5,8.5 87.8,8.6 C91.5,9.2 97.5,9.6 101.8,9.9 C104.1,10.1 106.4,10.2 108.6,10.3 C110.5,10.4 112.3,10.5 113.9,10.6 C118.4,10.9 119.7,11.1 120.2,11.2 C121,11.5 121.5,12.2 121.4,13.3 C121.3,15.9 117.4,21.8 108.8,23.8 C107.3,24.2 105.9,24.3 104.5,24.2 L104.5,24.2 Z" id="Shape" fill="#000000"></path>
                    <path d="M45.5,16.3 C43.7,17.5 44.1,19.1 46,19.4 C47.9,19.8 48,19.9 49.9,18.7 C51.9,17.4 52.3,15 50.1,15.1 C48,15.3 46.5,15.7 45.5,16.3 L45.5,16.3 Z" id="Shape" fill="#000000"></path>
                    <path d="M40.4,16.9 C40.3,18.1 39.3,19 38.1,18.9 C36.9,18.8 36,17.8 36.1,16.6 C36.2,15.4 37.2,14.5 38.4,14.6 C39.6,14.7 40.5,15.7 40.4,16.9 L40.4,16.9 Z" id="Shape" fill="#000000"></path>
                    <path d="M65.6,12.7 C65.5,13.9 64.5,14.8 63.3,14.7 C62.1,14.6 61.2,13.6 61.3,12.4 C61.4,11.2 62.4,10.3 63.6,10.4 C64.8,10.5 65.7,11.5 65.6,12.7 L65.6,12.7 Z" id="Shape" fill="#000000"></path>
                    <path d="M39,127.3 C30.7,126.7 22.8,122.6 17.9,118 C14.2,114.5 12.2,110.8 12.5,107.9 C12.9,104.4 14.8,102 17.8,101.5 C21.7,100.8 27.2,103.3 30.4,109.6 C33,114.7 38.3,116.1 42.2,116.3 C54,116.9 68.1,109 75.2,98 C75.5,97.5 76.2,97.4 76.7,97.7 C77.2,98 77.3,98.7 77,99.2 C69.6,110.8 54.6,119.2 42.1,118.5 C35.7,118.2 30.9,115.4 28.5,110.7 C25.8,105.4 21.3,103.2 18.2,103.8 C16.1,104.2 14.9,105.8 14.6,108.3 C14.4,110.5 16.1,113.6 19.3,116.6 C25,122 35.1,126.7 44.8,125.1 C62.7,122.2 79.3,109.1 84.4,94 C84.6,93.4 85.2,93.1 85.8,93.3 C86.4,93.5 86.7,94.1 86.5,94.7 C81.2,110.3 63.9,124 45.3,127 C43.2,127.4 41.1,127.5 39,127.3 L39,127.3 Z" id="Shape" fill="#000000"></path>
                    <path d="M90.7,54 C90.4,54 90.2,53.9 90,53.7 L89.2,52.9 C82.7,46.1 78.8,42 72.5,40.3 C68.7,39.2 64.1,39.9 60,40.6 C57,41 54.3,41.4 52.3,41 C49.2,40.5 46.8,38.6 46.2,36.3 C45.8,34.7 46.1,32.2 49.8,29.4 C56.7,24.1 68.9,23.2 77.6,27.3 C78.1,27.6 78.4,28.2 78.1,28.7 C77.8,29.2 77.2,29.5 76.7,29.2 C68.7,25.4 57.5,26.2 51.2,31.1 C49,32.8 48,34.4 48.4,35.8 C48.8,37.2 50.5,38.5 52.7,38.8 C54.4,39.1 57,38.7 59.8,38.3 C64.1,37.7 69,36.9 73.2,38.1 C80,40 84.3,44.5 90.8,51.2 L91.6,52 C92,52.4 92,53.1 91.6,53.5 C91.3,53.9 91,54 90.7,54 L90.7,54 Z" id="Shape" fill="#000000"></path>
                    <path d="M13.5,67.9 C8,63 1.2,66.5 2.1,73.5 C2.9,79.2 11.7,90.4 18.5,92.5 C24.3,94.3 23.6,87.8 22.8,85.6 C21.4,81.8 16.4,70.5 13.5,67.9 L13.5,67.9 Z" id="Shape" fill="#FFD200"></path>
                    <path d="M8.5,66.7 C7,66.6 5.6,67.1 4.6,68.2 C3.4,69.5 2.9,71.3 3.2,73.4 C3.9,78.7 12.6,89.6 18.8,91.6 C19.3,91.8 19.7,91.8 20.1,91.9 C21.1,92 21.5,91.6 21.7,91.3 C22.6,90.2 22.3,87.6 21.8,86.1 C20.3,82 15.5,71.1 12.8,68.7 C11.5,67.5 10,66.8 8.5,66.7 L8.5,66.7 Z M20,94 L20,94 C19.5,94 18.8,93.8 18.2,93.6 C11,91.4 1.9,79.8 1.1,73.7 C0.7,71 1.4,68.5 3,66.8 C4.4,65.3 6.5,64.5 8.7,64.6 C10.6,64.7 12.6,65.6 14.3,67.1 C17.6,70.1 22.8,82.3 23.9,85.4 C24.4,86.7 25.2,90.4 23.5,92.6 C22.9,93.3 21.8,94.1 20,94 L20,94 Z" id="Shape" fill="#000000"></path>
                    <path d="M62.2,95.9 C62.2,95.9 60.2,104.1 52.3,103.6 C44.5,103.1 48.4,93.8 47.9,87.5 C47.4,81.3 44.1,72.9 50.1,69.5 C56.1,66.1 62.2,77.7 63.1,82.1 C64.5,87.9 64,91.4 62.2,95.9 L62.2,95.9 Z" id="Shape" fill="#FFD200"></path>
                    <path d="M52.6,70.3 C52,70.3 51.4,70.4 50.9,70.7 C47.4,72.7 47.8,76.8 48.8,82.9 C49.1,84.4 49.3,85.9 49.4,87.4 C49.6,89.3 49.3,91.3 49.1,93.3 C48.8,96.4 48.5,99.6 49.7,101.1 C50.2,101.7 51.1,102.1 52.4,102.2 C58.9,102.7 60.7,95.9 60.8,95.6 C60.8,95.5 60.8,95.5 60.9,95.4 C62.4,91.5 63.1,88.2 61.8,82.4 C61,78.5 56.5,70.5 52.6,70.3 L52.6,70.3 Z M52.3,105 C50.2,104.9 48.6,104.2 47.6,102.9 C45.6,100.5 46,96.7 46.3,93 C46.5,91.1 46.7,89.2 46.6,87.6 C46.5,86.3 46.3,84.9 46,83.4 C45.1,77.8 44,71.4 49.5,68.3 C50.6,67.7 51.7,67.4 52.8,67.5 C59,67.9 63.8,78.1 64.6,81.9 C66,88.3 65.3,92.1 63.6,96.4 C62.8,99.6 59.4,105.5 52.3,105 L52.3,105 Z" id="Shape" fill="#000000"></path>
                </g>
                <g id="Beer" sketch:type="MSShapeGroup">
                    <path d="M6.2,9.7 C-1.8,19.3 3.2,30.7 5.3,34.1 C6.8,36.4 6.8,38.7 5.7,40.5 C5,41.5 5.5,42.9 6.7,43.2 L15.3,45.3 C16.5,45.6 17.5,44.6 17.4,43.5 C17.2,41.8 17.8,39.6 20.6,37.5 C26,33.5 32.3,28.6 30.6,15.3 L6.2,9.7 L6.2,9.7 Z" id="Shape" fill="#FFFFFF"></path>
                    <path d="M1.04271232,24.3303388 C1.48839279,28.2218902 2.9057812,31.9854203 4.51233121,34.5865013 C5.77840319,36.5283248 5.86682845,38.4515741 4.91003168,40.0172416 C3.86715292,41.5039488 4.64921958,43.6415977 6.47546052,44.0981579 L15.0803852,46.1993748 C16.8641826,46.6453385 18.4826619,45.1834862 18.3219979,43.416182 C18.1167752,41.6690173 18.933135,39.9073987 21.15548,38.24064 C25.2507681,35.2071137 27.2739168,33.3272813 29.0558499,30.3646809 C31.435708,26.4079843 32.3275841,21.5138538 31.5183286,15.1826196 L31.4364582,14.5421041 L30.8070944,14.39766 L6.40709443,8.79765997 L5.8528345,8.67045277 L5.48878074,9.10731728 C1.72829396,13.6199014 0.413240337,18.8339737 1.04271232,24.3303388 Z M5.99290557,10.60234 L30.3929056,16.20234 L29.6816714,15.4173804 C30.4401512,21.3513694 29.6245873,25.8267395 27.4691501,29.4103191 C25.8480058,32.1055958 23.9646415,33.8555459 20.0489383,36.7560668 C17.3098556,38.8103583 16.1982865,41.2090073 16.4805412,43.6081716 C16.5254681,44.1059447 16.0519013,44.5336825 15.5245395,44.4018421 L6.91961477,42.3006252 C6.36420324,42.161758 6.12483793,41.5074928 6.45844491,41.0309114 C7.83151946,38.7874929 7.70782929,36.0972317 6.07545989,33.5942653 C4.61653903,31.2316696 3.29488477,27.7223382 2.88228768,24.1196612 C2.30747448,19.1005606 3.49499284,14.3921544 6.91121926,10.2926827 L5.99290557,10.60234 Z" id="Shape" fill="#000000"></path>
                    <path d="M7.4,12 C2.8,17.7 3.6,33 11.8,35.4 C20,37.8 28.3,30.1 28.7,18 C29.2,6 7.4,12 7.4,12 L7.4,12 Z" id="Shape" fill="#FFD200"></path>
                    <path d="M25.1,5.4 C7.3,-1.3 5.4,2.1 4.8,6.2 C4.2,10.3 11.5,18.1 17.7,11.7 C22.3,18.2 34.6,21.3 35.2,14.2 C41,15.7 44,13.4 41.4,10.4 C38.8,7.3 25.1,5.4 25.1,5.4 L25.1,5.4 Z" id="Shape" fill="#FFFFFF"></path>
                    <path d="M3.88395695,6.06594492 C3.52160427,8.54202154 5.42377744,11.8388374 8.19088386,13.6607441 C11.4728762,15.8216598 15.2433234,15.5664881 18.3649468,12.3441672 L16.9442961,12.2348058 C19.2933406,15.5541079 23.6410799,18.1822749 27.779017,18.9598739 C32.3544228,19.8196817 35.7885662,18.2296487 36.1225118,14.2779587 L34.9681956,15.0963104 C37.9472755,15.8667621 40.4773055,15.7432547 41.9616044,14.7591 C43.6714954,13.625368 43.6917964,11.6307954 42.099617,9.79366531 C40.8993609,8.36240197 37.9616345,7.18851781 33.6853975,6.1231085 C31.8328426,5.66155102 29.8526161,5.25567918 27.8730313,4.9082497 C27.1806442,4.78673144 26.5375251,4.68114609 25.9599019,4.59192286 C25.6120713,4.53819478 25.3624062,4.50173116 25.2271784,4.48297694 L25.4261367,4.53354719 C9.84341141,-1.33186065 4.82769644,-0.382941606 3.88395695,6.06594492 Z M24.9728216,6.31702306 C25.0988932,6.33450744 25.3391644,6.36959909 25.6772446,6.42182104 C26.2428062,6.50918118 26.8735215,6.61273011 27.5529561,6.73197512 C29.4928618,7.07244067 31.4321257,7.46991673 33.237762,7.91978461 C37.1084853,8.8841616 39.8336468,9.97310711 40.6906599,10.9949304 C41.6226939,12.0705395 41.6156064,12.7668798 40.9383956,13.2159 C39.9719301,13.8567086 37.9515133,13.9553384 35.4318044,13.3036896 L34.3698539,13.0290472 L34.2774882,14.1220413 C34.0548097,16.7570698 31.7532633,17.8227023 28.120983,17.1401261 C24.4393016,16.4482665 20.5162298,14.0768069 18.4557039,11.1651942 L17.8112682,10.2545786 L17.0350532,11.0558328 C14.5563244,13.6145205 11.7737289,13.8028376 9.20911614,12.1142559 C6.99313657,10.6552199 5.4700006,8.01534519 5.71604305,6.33405508 C6.05448349,4.02137879 6.73502429,3.02613703 8.67209851,2.65966353 C11.4820923,2.12804308 16.6134764,3.19484651 24.7738633,6.26645281 L24.9728216,6.31702306 Z" id="Shape" fill="#000000"></path>
                    <path d="M50.4,6.4 C47.8,6.5 47.8,11.7 51.6,10.9 C55.4,10.2 53,6.3 50.4,6.4 L50.4,6.4 Z" id="Shape" fill="#FFFFFF"></path>
                </g>
            </g>
        </g>
    </g>
</svg>