<?xml version="1.0" encoding="utf-8"?>
<!-- Generator: Adobe Illustrator 18.1.0, SVG Export Plug-In . SVG Version: 6.00 Build 0)  -->
<!DOCTYPE svg PUBLIC "-//W3C//DTD SVG 1.1//EN" "http://www.w3.org/Graphics/SVG/1.1/DTD/svg11.dtd">
<svg version="1.1" id="レイヤー_1" xmlns="http://www.w3.org/2000/svg" xmlns:xlink="http://www.w3.org/1999/xlink" x="0px"
	 y="0px" viewBox="0 0 150 150" enable-background="new 0 0 150 150" xml:space="preserve">
<g>
	<g>
		<g>
			<g>
				<path fill="#683500" d="M130.7,105.6c0.2-4.6,1.6-13.4,1.1-23.7c-0.2-5.7-1-11.8-2.9-17.9c0,0,0,0,0,0
					c-1.2-6.8-8-18.1-14.4-23.4c-8.5-7.1-17.2-10.6-25.2-11.6c-1.6-0.2-3.2-0.3-4.7-0.2l0,0h0c-1.5,0-3,0.1-4.5,0.4
					c-1.4,0.2-2.9,0.5-4.2,0.9c-1.4-0.4-2.8-0.7-4.2-0.9c-1.5-0.2-2.9-0.3-4.5-0.4h0l0,0c-1.5,0-3.1,0.1-4.7,0.2
					c-8,0.9-16.7,4.5-25.2,11.6C30.8,45.9,24,57.1,22.8,64c0,0,0,0,0,0c-1.9,6.1-2.6,12.2-2.9,17.9c-0.4,10.3,0.9,19.2,1.1,23.7
					c0.7,13.7-3.9,16.5-3.7,25.2c0,0,0,0,0,0c0.4,5.4,2.8,9.9,11.1,12.7c0.3,0.1,0.6,0.2,0.9,0.3c-2.8-3.2-3.2-7.5-2.1-10.9
					c0,0,0,0,0,0c0,0,0,0,0,0c-0.4,4.1,1.2,11.9,13.1,13c4.1,0.4,8.9,0.7,14.5,0.7c1.9,0,40.4,0,42.3,0c5.6,0,10.4-0.2,14.5-0.7
					c11.8-1.1,13.5-9,13.1-13c0,0,0,0,0,0c0,0,0,0,0,0c1.1,3.4,0.8,7.7-2.1,10.9c0.3-0.1,0.6-0.2,0.9-0.3
					c8.2-2.8,10.7-7.3,11.1-12.7c0,0,0,0,0,0C134.6,122.1,130,119.4,130.7,105.6z"/>
				<g>
					<linearGradient id="SVGID_1_" gradientUnits="userSpaceOnUse" x1="30.2754" y1="107.6281" x2="44.3186" y2="107.6281">
						<stop  offset="0" style="stop-color:#FBDCCB"/>
						<stop  offset="1" style="stop-color:#FAC5A0"/>
					</linearGradient>
					<path fill="url(#SVGID_1_)" d="M37.6,99.5c-3.3-0.6-9.2,1.8-6.8,9.8c1.4,4.9,5.3,6.6,9.9,6.6C44.5,116.4,47.6,101.4,37.6,99.5z
						"/>
					<linearGradient id="SVGID_2_" gradientUnits="userSpaceOnUse" x1="107.3774" y1="107.6281" x2="121.4199" y2="107.6281">
						<stop  offset="0" style="stop-color:#FAC5A0"/>
						<stop  offset="1" style="stop-color:#FBDCCB"/>
					</linearGradient>
					<path fill="url(#SVGID_2_)" d="M114.1,99.5c3.3-0.6,9.2,1.8,6.8,9.8c-1.4,4.9-5.3,6.6-9.9,6.6
						C107.2,116.4,104.1,101.4,114.1,99.5z"/>
				</g>
				<g>
					<path fill="#FF868D" d="M75.8,116.8c-8.8,0-16.2,22.2-19,33.2h37.9C92.1,139.1,84.6,116.8,75.8,116.8z"/>
					<g>
						<path fill="#FFFFFF" d="M76.2,134.2c0,2.2-1.8,4-4,4c-2.2,0-4-1.8-4-4c0-2.2,1.8-4,4-4C74.4,130.2,76.2,132,76.2,134.2z"/>
						<circle fill="#FFFFFF" cx="79.5" cy="134.2" r="4"/>
					</g>
					<g>
						<circle fill="#FFFFFF" cx="82.9" cy="128.9" r="4"/>
						<circle fill="#FFFFFF" cx="68.8" cy="128.9" r="4"/>
					</g>
					<linearGradient id="SVGID_3_" gradientUnits="userSpaceOnUse" x1="75.8487" y1="133.2272" x2="75.8487" y2="127.5642">
						<stop  offset="0" style="stop-color:#FBDCCB"/>
						<stop  offset="1" style="stop-color:#FAC5A0"/>
					</linearGradient>
					<ellipse fill="url(#SVGID_3_)" cx="75.8" cy="128.9" rx="4.3" ry="3.4"/>
				</g>
				<path fill="#FBDCCB" d="M118.6,89c0.2-1.9,0.4-3.8,0.4-5.5c-0.6-22.1-15.2-28.1-36.8-29.1c-1.8-0.1-3.7-0.1-5.5-0.1
					c-0.3,0-0.6,0-0.9,0c-0.3,0-0.6,0-0.9,0c-1.9,0-3.7,0.1-5.5,0.1c-21.6,0.9-36.2,6.9-36.8,29.1c0.1,1.7,0.2,3.6,0.4,5.5
					c3.8,33.3,16.2,41,42.8,41.6C102.4,130,114.8,122.3,118.6,89z"/>
				<g>
					<ellipse fill="#5E2D1F" cx="47.5" cy="100.1" rx="5.4" ry="6.6"/>
					<ellipse fill="#5E2D1F" cx="104.2" cy="100.1" rx="5.4" ry="6.6"/>
				</g>
				<path fill="none" stroke="#942300" stroke-width="1.4286" stroke-linecap="round" stroke-linejoin="round" d="M81.4,120
					c0,1.2-2.5,2.2-5.6,2.2c-3.1,0-5.6-1-5.6-2.2"/>
				<path fill="#683500" d="M123.3,61.7C118,42.3,98,31.8,81.5,31.4c-25.1-0.5-50.5,12-53.6,30.4c-3.1,18.3,1.2,28.8,5.5,31.1
					c0.8-4.1,2.5-10.9,5.4-17.5c0.8,4.1,3,8.1,7.3,12c-0.5-7.1,1.4-17.4,4.6-23.8c0.4,9.8,4,21.7,19,24.6
					c-3.3-5.1-5.7-17.9-4.3-27.9c4.5,20.3,14.8,25.6,25.4,28.3c-2.3-4.9-5.9-13.1-5.1-23.4c5.1,19.5,13.8,21.1,19.9,22.2
					c-0.4-2.5-2.9-6.4-2.5-17.6c2,8.4,6,19.5,15.4,23C123.3,85.7,128,79.2,123.3,61.7z"/>
			</g>
			<rect x="9.8" y="17.5" fill="none" width="132.4" height="132.5"/>
		</g>
	</g>
</g>
</svg>
