<?xml version="1.0" encoding="utf-8"?>
<!-- Generator: Adobe Illustrator 18.1.0, SVG Export Plug-In . SVG Version: 6.00 Build 0)  -->
<!DOCTYPE svg PUBLIC "-//W3C//DTD SVG 1.1//EN" "http://www.w3.org/Graphics/SVG/1.1/DTD/svg11.dtd">
<svg version="1.1" id="レイヤー_1" xmlns="http://www.w3.org/2000/svg" xmlns:xlink="http://www.w3.org/1999/xlink" x="0px"
	 y="0px" viewBox="0 0 150 150" enable-background="new 0 0 150 150" xml:space="preserve">
<g>
	<g>
		<g>
			<g>
				<path fill="#3F1C12" d="M43.7,110.4c-2.2-0.5-6.6-3.1-10.8-8.8c-3.2-4.3-6.1-9.3-8.8-16.9c-2.1-6-2.7-10.8-2.3-13.4
					c0.7-4.5,2.8-7.3,4.3-9.5c1.3-1.8,7.3-2.4,10.6,13.1C40,90.5,43.7,103.4,43.7,110.4z"/>
				<path fill="#3F1C12" d="M94.7,33.3c3.2-0.9,8,0.4,14.1,3.7c6.1,3.3,10.4,7.1,12.1,9.4c1.7,2.2,5.5,5.8,6.5,12.8
					c1,7,1.2,13.3-1.2,24c-1.3,5.9-5.8,22.5-19.4,27.2c-5.3-7.8-21.6-38.3-21.9-51.9C84.6,44.9,86.9,35.2,94.7,33.3z"/>
				<g>
					<path fill="#79CAE6" d="M84.4,121H66.5c-5.6,7.7-9.1,20.5-10.6,29H95C93.6,141.5,90,128.6,84.4,121z"/>
					<linearGradient id="SVGID_1_" gradientUnits="userSpaceOnUse" x1="67.3584" y1="125.9988" x2="83.6084" y2="125.9988">
						<stop  offset="0" style="stop-color:#FBDCCB"/>
						<stop  offset="1" style="stop-color:#FAC5A0"/>
					</linearGradient>
					<rect x="67.4" y="118.4" fill="url(#SVGID_1_)" width="16.2" height="15.2"/>
					<path fill="#FFFFFF" d="M87.8,125.6c-0.2-0.3-4.3-6.4-4.4-6.1c-1.9,6.1-4.8,10.8-8,13.4c-3.2-2.6-6.1-7.3-8-13.4
						c-0.1-0.3-4.1,5.8-4.4,6.1c0.5,3.7,2.4,9.9,7.3,16.3c0.8-1.4,3.6-5.8,5-7.7c1.4,1.9,4.3,6.3,5,7.7
						C85.4,135.5,87.3,129.4,87.8,125.6z"/>
				</g>
				<g>
					
						<linearGradient id="SVGID_2_" gradientUnits="userSpaceOnUse" x1="29.5704" y1="98.5361" x2="41.1726" y2="98.5361" gradientTransform="matrix(0.9986 5.380000e-02 -5.380000e-02 0.9986 4.57 5.3136)">
						<stop  offset="0" style="stop-color:#FBDCCB"/>
						<stop  offset="1" style="stop-color:#FAC5A0"/>
					</linearGradient>
					<path fill="url(#SVGID_2_)" d="M35.9,97.2c-1.8-0.8-4.9-1.3-6.2,1.7c-1.3,2.9-0.8,9.4,2.5,13.1c2.4,2.6,4.8,3.4,7.8,2.4"/>
					
						<linearGradient id="SVGID_3_" gradientUnits="userSpaceOnUse" x1="-59.0855" y1="103.3125" x2="-47.4837" y2="103.3125" gradientTransform="matrix(-0.9986 5.380000e-02 5.380000e-02 0.9986 57.6077 5.3136)">
						<stop  offset="0" style="stop-color:#FBDCCB"/>
						<stop  offset="1" style="stop-color:#FAC5A0"/>
					</linearGradient>
					<path fill="url(#SVGID_3_)" d="M115.1,97.2c1.8-0.8,4.9-1.3,6.2,1.7c1.3,2.9,0.8,9.4-2.5,13.1c-2.3,2.6-4.8,3.4-7.8,2.4"/>
				</g>
				<path fill="#FBDCCB" d="M117.4,92.1c0.6-3.2,1-6.1,1-8.8c-0.3-11.9-4.6-19.1-11.8-23.4c-7.5-4.3-18.1-5.7-30-5.9
					c-0.4,0-0.8,0-1.1,0c-0.4,0-0.8,0-1.1,0c-11.9,0.2-22.5,1.6-30,5.9c-7.2,4.3-11.5,11.6-11.8,23.4c0.1,2.7,0.4,5.6,1,8.8
					c2,10.3,3.3,15.9,6.9,23.9c0.7,1.6,1.5,2.9,2.4,4.2c6.8,7.7,16.6,9.7,28.9,10c1.2,0,2.5,0,3.7,0c1.3,0,2.5,0,3.7,0
					c12.3-0.3,22.1-2.3,28.9-10c0.9-1.2,1.7-2.6,2.4-4.2C114.1,108,115.4,102.4,117.4,92.1z"/>
				<path fill="none" stroke="#770800" stroke-width="1.4286" stroke-linecap="round" stroke-linejoin="round" d="M81,118.5
					c0,1.2-2.5,2.2-5.6,2.2c-3.1,0-5.6-1-5.6-2.2"/>
				<g>
					<g>
						<ellipse fill="#3F1C12" cx="50.2" cy="101.2" rx="5.4" ry="6.5"/>
						<path fill="#3F1C12" d="M55.2,90.8c-1.8-1.8-7.9-5.2-10.3-5.9c-0.2,0.8,0.3,2.9,0.3,2.9c2.3,0.4,8.2,3.4,9.1,3.9
							C55.5,92.5,56.2,92,55.2,90.8z"/>
					</g>
					<g>
						<ellipse fill="#3F1C12" cx="100.7" cy="101.2" rx="5.4" ry="6.5"/>
						<path fill="#3F1C12" d="M95.7,90.8c1.8-1.8,7.9-5.2,10.3-5.9c0.2,0.8-0.3,2.9-0.3,2.9c-2.3,0.4-8.2,3.4-9.1,3.9
							C95.4,92.5,94.7,92,95.7,90.8z"/>
					</g>
				</g>
				<path fill="#3F1C12" d="M122.9,67.8c-2.8-14-13.8-21.9-22.7-24.9c-7.2-2.4-21.4-4.6-31-4c-9.6,0.7-21.2,3.8-28.7,8.8
					c-7.5,5-12.4,11.6-13.9,19.4c-1.1,5.5-0.3,13.6,5,18.2c-0.3-2.5,0-4.4,1-7.3c0.3,0.7,1,3,3.2,3.6c0.1-1.6-0.6-7,0.8-9
					c0.1,1,0.8,2.3,1.4,3c0.3-1.2,1.4-5.3,2.4-6c0.2,2.4,2,4.5,3.2,5.3c0.5-4.9,3-9,6.5-10.3c-0.3,1.4,0.3,3.8,1.2,4.7
					c0.6-1.9,1.7-4.5,3.7-5.9c0.5,1.7,1.2,4.2,4.2,5.2c-0.3-2.1-0.4-5.4,0.7-7.2c0.7,2.3,2.5,6.2,6.1,7.9c-0.6-2.2-0.6-6.1,0.3-9
					c1.3,4.8,5.3,11.8,12.1,13.5c-0.9-3.4-1.2-8.3-0.3-13.7c0.6,4.3,3.3,13.6,12.3,15.1c-0.8-1.8-1.7-5.4-1.6-8.9
					c1.3,3.1,3.7,6.1,7.5,7.5c-0.1-1.8-0.4-4.4,0-7.2c1,5,3.4,11.9,9.9,13.9c-0.6-1.7-0.8-4.5-0.5-7.5c1.1,3.3,3.5,5.7,6.2,8
					c-0.3-1.6,0.1-4.7,0.8-7.1c0.2,4.7,3.2,11.8,6.6,15.1c0.3-0.6,0.6-1.3,0.9-2c0,0.1,0.1,0.2,0.1,0.3
					C122.6,83.2,124.6,76,122.9,67.8z"/>
				<path fill="#3F1C12" d="M99,35.4c3.1-2,6.1-1.7,7.2-1.2c-0.9-3-9.2-4.2-13.6-2.5c2.2-1.9,4.9-1.8,5.2-1.8
					c-3.9-3.2-10.1-3-13.7-1.1c1.3-1.9,3.1-2.9,3.9-3c-3-1.8-7.3-0.5-10,1.7c0.5-1.4,1.1-2.5,1.6-2.7c-5.2-1.3-8.9,1.9-11,4.8
					c0.4-2.1,2.1-5.1,2.7-5.5c-5.3-1.6-10,2.8-11.9,6.3c0.4-2.5,2-5,2.6-5.8c-6.8-1.5-11.9,3.5-13.1,9c-0.4-2.1,0.2-4.5,0.7-5.6
					c-4.7-0.5-8.1,3.1-7.7,10.2c-3.2-1-7.5-0.9-9.8,1.5c1.7-0.2,4.5,1.4,5.4,2.5c-5.1-1.7-11.2,0.5-14.2,4.6
					c2.7,0.2,5.5,0.8,7.5,1.8c-2.8-0.1-6.9,0.5-9.4,4.1c2.1,0.1,4.5,0.8,6.5,1.6c-2.5,0.4-5.9,1.6-7.7,5.2c1.3-0.1,3.2,0.2,5.1,0.6
					c-1.9,0.6-4.6,2.2-5.6,5.9c1.4-0.7,4-1,6.6-0.5c0.7,1.4,0.4,3,3.1,2.7c3.3-0.4,4-2.1,8.8-9c4.8-7,13.1-11.4,19.7-12.7
					c6.6-1.3,17.3-2,21.4-1.5c9,1.2,15.8,4.1,19.8,5.1c2.6,0.7,5.6-1.5,3-4.6c-2.2-2.6-3.4-3.3-4-5.2C97.4,38.4,97.2,36.6,99,35.4z"
					/>
			</g>
			<rect x="9.8" y="17.5" fill="none" width="132.4" height="132.5"/>
		</g>
	</g>
</g>
</svg>
