<?xml version="1.0" encoding="utf-8"?>
<!-- Generator: Adobe Illustrator 18.1.0, SVG Export Plug-In . SVG Version: 6.00 Build 0)  -->
<!DOCTYPE svg PUBLIC "-//W3C//DTD SVG 1.1//EN" "http://www.w3.org/Graphics/SVG/1.1/DTD/svg11.dtd">
<svg version="1.1" id="レイヤー_1" xmlns="http://www.w3.org/2000/svg" xmlns:xlink="http://www.w3.org/1999/xlink" x="0px"
	 y="0px" viewBox="0 0 150 150" enable-background="new 0 0 150 150" xml:space="preserve">
<g>
	<g>
		<g>
			<g>
				<path fill="#205997" d="M83.1,121H68c-5.6,7.7-9.9,20.5-12.1,29h39.3C93,141.5,88.7,128.6,83.1,121z"/>
				<linearGradient id="SVGID_1_" gradientUnits="userSpaceOnUse" x1="68.8184" y1="128.7757" x2="83.4102" y2="128.7757">
					<stop  offset="0" style="stop-color:#FBDCCB"/>
					<stop  offset="1" style="stop-color:#FAC5A0"/>
				</linearGradient>
				<ellipse fill="url(#SVGID_1_)" cx="76.1" cy="128.8" rx="7.3" ry="4.1"/>
				<path fill="#824E2A" d="M129.7,77.7c0.2,27.2-25.2,49.6-54.1,49.6c-28.8,0-51.8-22.6-53.2-49.8c-1-18.7,9.8-35.2,21.9-38.9
					c7.1-7.2,19.6-9.8,31.3-9.9C110.3,28.6,129.5,49.2,129.7,77.7z"/>
				<g>
					<linearGradient id="SVGID_2_" gradientUnits="userSpaceOnUse" x1="28.7335" y1="104.7852" x2="40.3369" y2="104.7852">
						<stop  offset="0" style="stop-color:#FBDCCB"/>
						<stop  offset="1" style="stop-color:#FAC5A0"/>
					</linearGradient>
					<path fill="url(#SVGID_2_)" d="M35.4,96.3c-1.8-0.7-5-1-6.1,2c-1.2,3-0.3,9.4,3.2,12.9c2.5,2.5,5,3.2,8,2"/>
					
						<linearGradient id="SVGID_3_" gradientUnits="userSpaceOnUse" x1="382.0933" y1="104.7852" x2="393.6973" y2="104.7852" gradientTransform="matrix(-1 0 0 1 504.5078 0)">
						<stop  offset="0" style="stop-color:#FBDCCB"/>
						<stop  offset="1" style="stop-color:#FAC5A0"/>
					</linearGradient>
					<path fill="url(#SVGID_3_)" d="M115.8,96.3c1.8-0.7,5-1,6.1,2c1.2,3,0.3,9.4-3.1,12.9c-2.5,2.5-5,3.2-8,2"/>
				</g>
				<path fill="#FBDCCB" d="M77,53.7c-0.4,0-0.9,0-1.4,0c0,0,0,0-0.1,0c0,0,0,0,0,0c0,0,0,0,0,0c0,0,0,0-0.1,0c-0.5,0-0.9,0-1.4,0
					c-26.8,0.4-44.4,6.8-40.8,38.1c3.8,33.5,18.9,38.1,42.2,38.1c0,0,0,0,0,0c0,0,0,0,0,0c23.3,0,38.4-4.6,42.2-38.1
					C121.4,60.5,103.8,54.1,77,53.7z"/>
				<g>
					<ellipse fill="#5E2D1F" cx="51.2" cy="100.8" rx="5.4" ry="6.5"/>
					<ellipse fill="#5E2D1F" cx="99.9" cy="100.8" rx="5.4" ry="6.5"/>
				</g>
				<path fill="none" stroke="#942300" stroke-width="1.4286" stroke-linecap="round" stroke-linejoin="round" d="M81.1,121.8
					c0,1.2-2.5,2.2-5.6,2.2c-3.1,0-5.6-1-5.6-2.2"/>
				<path d="M117.8,89.7c-1.4-0.3-4.3-0.9-5.9-1.2c-1.6-0.3-6.8-1.2-8.5-1.2c-1.7,0-8.9-0.1-10.9,0.3c-2,0.3-5.6,0.8-7.4,1.5
					c-1.8,0.6-5.3,1.5-6.6,1.6c-1.3,0.1-2.4,0.1-2.9,0.1l0,0h0c-0.5,0-1.7,0-2.9-0.1c-1.3-0.1-4.8-1-6.6-1.6
					c-1.8-0.6-5.4-1.1-7.4-1.5c-2-0.3-9.2-0.3-10.9-0.3c-1.7,0-6.9,0.9-8.5,1.2c-1.6,0.3-4.5,0.9-5.9,1.2c-0.5,0.1-0.5,0.7-0.4,1.5
					c0.1,0.8,0,2.4,0.2,2.9c0.2,0.5-0.1,0.5,0.6,0.8c0.7,0.3,2,1,2.2,2.6c0.3,1.5,1.9,7.9,2.6,10.1c0.8,2.2,2.1,5,5,6.4
					c2.9,1.4,8.4,1.8,10.1,1.7c3.2-0.2,6.4-0.9,9.3-2.4c3.1-1.6,4.4-2.5,6.3-5.9c1.2-2.2,1.5-3.4,2.3-6c1-3.1,0.8-4.8,2-5.6
					c1-0.6,1.5-0.6,2-0.6c0.6,0,1,0,2,0.6c1.3,0.8,1,2.5,2,5.6c0.8,2.6,1.1,3.8,2.3,6c1.9,3.4,3.2,4.3,6.3,5.9
					c2.8,1.5,6.1,2.2,9.3,2.4c1.7,0.1,7.2-0.3,10.1-1.7c2.9-1.4,4.2-4.1,5-6.4c0.8-2.2,2.4-8.6,2.7-10.1c0.3-1.5,1.5-2.2,2.2-2.6
					c0.7-0.3,0.4-0.3,0.6-0.8c0.2-0.5,0.1-2.2,0.2-2.9C118.3,90.4,118.2,89.8,117.8,89.7z M68.7,102.4c-1,4.5-1.5,6.2-6.2,9.3
					c-1.9,1.2-4,1.8-6.3,2.2c-2.3,0.4-7.2,0.3-10.5-0.7c-3.3-1-4.3-3.2-5.2-5.4c-0.9-2.2-1.3-7.7-1.4-10.1c-0.1-2.4,0.3-4.9,1.3-5.9
					c2.7-2.8,8.1-2.9,13.1-2.9c5.5,0.1,10.5,1.4,13.4,3.1C70.4,94.1,69.6,98.5,68.7,102.4z M112,97.7c-0.1,2.4-0.5,7.8-1.4,10.1
					c-0.9,2.2-1.9,4.5-5.2,5.4c-3.3,1-8.2,1.1-10.5,0.7c-2.3-0.4-4.5-1-6.3-2.2c-4.7-3.1-5.2-4.8-6.2-9.3c-0.9-3.9-1.6-8.3,1.8-10.4
					c2.9-1.7,7.9-3,13.4-3.1c5-0.1,10.4,0.1,13.1,2.9C111.7,92.8,112.1,95.3,112,97.7z"/>
				<path fill="#824E2A" d="M120.3,88c-0.8-1.1-0.6-3.6-1.3-4.8c0.4-2.4,0.4-5.7,0.5-8.6c0.2-4.1-1.7-10.1-4.3-14.6
					c-2.7-4.5-14.9-10.6-24-12.9c-9.1-2.3-21.2-2.2-38,0.5c-16.7,2.7-19.9,9.9-22.4,14.8c-3.1,5.9-2.6,11.6-2.3,15.2
					c-0.2,4.2,0.9,8.8,3.6,10c0.7-3.1,1.9-6.2,3.6-8.8c0.5,1.5,1.3,3,2.5,4.3c0.1-3,1.2-7.1,3-10.5c0.3,5,2.8,8.8,4.5,10
					c0.2-4.4,1.1-7.7,2.3-10.2c0.9,4.6,3.4,7.5,5.5,9.1c-0.4-3.8,0-7.9,1.7-13.1c0,0.2,0,0.4,0,0.6c0,5.6,2.8,12.4,9.9,14
					c-1.2-3.3-1.8-8.4-1-12.7c1.1,7.1,4.9,10.8,9.4,11.8c-1.5-4-1.9-7.2-1.8-9.9c1.8,5.2,5.1,6.9,8.5,8c-1-2.7-1.7-5.7-1.9-9.4
					c1.3,4.8,5.1,8.5,9.4,10c-2-5.2-2.1-8.8-1.5-11.6C87,76.2,91,80,95.4,81.8c-0.6-2-1-4.1-1.2-6.5c1.8,5.6,6.3,8.9,8.7,9.4
					c-1-3.2-1.5-6.3-1.6-9.2c1.5,5.2,4.8,8,7.3,9.4c-0.6-2.4-1-4.9-1-7.8C111,85.2,116.6,87.5,120.3,88z"/>
			</g>
		</g>
	</g>
</g>
</svg>
