<?xml version="1.0" encoding="utf-8"?>
<!-- Generator: Adobe Illustrator 19.0.0, SVG Export Plug-In . SVG Version: 6.00 Build 0)  -->
<svg version="1.1" id="レイヤー_1" xmlns="http://www.w3.org/2000/svg" xmlns:xlink="http://www.w3.org/1999/xlink" x="0px"
	 y="0px" viewBox="0 0 67 159" style="enable-background:new 0 0 67 159;" xml:space="preserve">
<style type="text/css">
	.st0{fill:#C7D9F0;}
	.st1{fill:#F8D6C0;}
	.st2{fill:url(#XMLID_27_);}
	.st3{fill:#666666;}
	.st4{opacity:0.53;fill:#FFFFFF;}
	.st5{fill:#A43F00;}
	.st6{fill:url(#XMLID_28_);}
</style>
<g id="XMLID_60_">
	<path id="XMLID_87_" class="st0" d="M21.7,58.1C16.5,60.6,11.4,69,9,72.8c-2.4,3.8,1.5,6.8,4,9.8c2.5,3.1,17.3,11.2,22.5,8.5
		c5.1-2.8,10.5-6,10.1-10.9c-0.6-6.5-0.8-10.1-3.3-16.4C39.7,57.6,25.9,56.2,21.7,58.1z"/>
	<path id="XMLID_86_" class="st1" d="M37.9,110.8c-1.4,1.8-2.9,3.5-3.2,4.2c-0.4,1.1,1.2,1.7,1.7,1.6c0.5-0.2,0.7-0.4,1.3-0.9
		c0.6-0.6,1.1-1.3,1.1-1.3c-0.8,2.4-0.7,5.2,0.4,5.3c1.2,0.2,1.2-0.7,1.4-1.1c0.5-0.9,0.7-2.7,0.7-2.7c0.4,1.1,1.8,3.9,3,3.4
		c1.2-0.5,0.5-2.5,0.1-4.1c0.5,0.5,1.4,1.9,2.6,2.5c0.7,0.4,2.2,0.3,1.5-1.2c-0.7-1.5-1.4-2.2-1.9-3.1c1.3,1.3,2.3,2.5,3.3,1.7
		c0.9-0.7-1.2-3.6-2.5-5.1c-1.2-1.5-1.3-2.6-1.3-2.6c-1.9,0.4-6.5,1.1-7.2,0.7C38.9,108.1,38.4,110.1,37.9,110.8z"/>
	<path id="XMLID_85_" class="st0" d="M43,65.5c1.5,4.1,6.6,20.5,7,26.2c0.3,5.7-1.1,17.6-1.1,17.6c-3.6,1.9-9.9,2.3-11.8,1.1
		c-0.3-8.8-2.4-20.7-4.1-25.8c-1.7-5.1-3.1-14.6-1.5-18.3"/>
	<path id="XMLID_84_" d="M66.8,25.9C67.7,20.2,66,12.9,62,9c-4-3.9-13.6-8.9-18.6-8.9c-4.9,0-8.8-0.9-12.6,3.5
		c3.6,3.7,14.4,8.8,17.3,10c2.9,1.2,14.7,9.6,15.8,10.4C65.1,24.9,66.4,26,66.8,25.9z"/>
	<path id="XMLID_83_" d="M33.1,2.1c-2.7-1.1-7-0.9-12.2,2.1c-5.2,3-7.2,5.5-9.6,10.1C8.9,19,7.2,25.9,8.9,30.7
		c0.9,2.3,2.7,7.6,5,5.6c2.3-2.1,14.1-12.4,16.6-17.3C33.1,14.1,40.2,3.9,33.1,2.1z"/>
	
		<linearGradient id="XMLID_27_" gradientUnits="userSpaceOnUse" x1="-609.1591" y1="188.2586" x2="-610.4059" y2="185.1416" gradientTransform="matrix(-0.9929 0.1187 0.1187 0.9929 -595.7299 -48.258)">
		<stop  offset="0" style="stop-color:#FBDCCB"/>
		<stop  offset="1" style="stop-color:#FAC5A0"/>
	</linearGradient>
	<path id="XMLID_82_" class="st2" d="M28.5,64.1c0.6,2.4,2.4,4,4,4c1.6,0,2.1-1.3,2.2-2.2c0.5-1.6,1.4-3.7,1.4-3.7l-5.4-2.3
		C30.7,59.8,28.8,63.8,28.5,64.1z"/>
	<path id="XMLID_81_" d="M9.6,137.6c0.4-3.4-0.1-5.3-0.3-7.1c1.3,0.6,10.1,3.7,13.5,1.7c0.2,3,0.5,6.9,0.7,8
		c0.8,4.7,0.7,7.2,3.1,9.3c2.3,2,3.1,6.1,1.7,7.2c-1.3,1.1-7.4,3.9-10.8,1.1c-2.7-2.2-7.3-5.9-8.6-8.6c-0.9-1.9-0.9-4.8-0.2-7.1
		C8.9,141.2,9.3,139.7,9.6,137.6z"/>
	<path id="XMLID_80_" class="st3" d="M5.4,103.7c0.4,2.2,2.7,38.3,2.7,38.3c3.5,3.4,13.1,6.8,16.9,2.1c-0.4-11.5,0-35.6,0.4-41.5"/>
	<path id="XMLID_79_" d="M27.7,136.1c0.4-3.4-0.1-5.3-0.3-7.1c1.3,0.6,10.1,3.7,13.5,1.7c0.2,3,0.5,6.9,0.7,8
		c0.8,4.7,0.7,7.2,3.1,9.3c2.3,2,3.1,6.1,1.7,7.2c-1.3,1.1-7.4,3.9-10.8,1.1c-2.7-2.2-7.3-5.9-8.6-8.6c-0.9-1.9-0.9-4.8-0.2-7.1
		C27.1,139.7,27.5,138.2,27.7,136.1z"/>
	<path id="XMLID_78_" class="st3" d="M23,107.2c0.4,2.2,3.2,33.3,3.2,33.3c3.5,3.4,13.1,6.8,16.9,2.1c-0.4-11.5-1.2-37.3-0.8-43.2"
		/>
	<path id="XMLID_77_" class="st1" d="M65.6,31.9C65.3,35,62.5,48.8,60.5,54c-2,5.3-8.4,10.8-17.6,11.1c-9.1,0.3-20.9-3.5-24-7.7
		c-5.3-7.3-7.7-18.4-6.8-26.2c0.9-7.8,3.4-19.8,11.5-24.5C31.8,2,56.2,8.4,60.2,14C64.3,19.6,66.3,26.2,65.6,31.9z"/>
	<path id="XMLID_76_" d="M39.4,1.2c4.7,0.5,23.1,7.5,25.8,15.6c2.7,8,1.2,12.1,0.2,14.2c0.1-2.2-2.4-6-2.7-6.9
		c0.9,2.5,0.2,6.3-0.1,7.4c-0.9-4.5-7.4-10.6-9.1-12c1.8,3.2,1,8.8,0.6,10.5c-1.7-6-6.7-10.3-7.3-11.5c0.2,3.6-0.7,7.1-1.2,7.9
		c-0.6-3.5-2.5-5.9-3.4-7.1c-0.2,3.6-3.3,8.8-4,9.6c-0.9-4.7-3.5-7.9-4.3-9.4c-0.2,3-1.8,6.4-2.7,7.5c-0.1-4.6-2.7-6-3.2-7.4
		c-0.2,3-2.9,6.7-3.6,7.8c-0.1-2.6-1.4-5.6-1.8-6.6c-0.4,3.2-2.2,6.4-2.9,7.1c-0.1-2.8-1.5-2.6-2.1-4.3c-1.2,3.5-3.4,4.8-5.5,6.4
		c-1.2-4.8,2.1-15.2,4.1-18.6C18.4,7.9,29.3,0,39.4,1.2z"/>
	<path id="XMLID_75_" class="st4" d="M64,38c-1.2-0.4-5.8-1.5-8.4-1.6s-4.9,0-5.8,0.9c-0.9,0.9-1.5,3.8-1.9,5.2
		c-0.4,1.4-0.1,6.3,2.2,7.6c2.3,1.3,6.4,1.8,9.2,1.5c2.2-0.3,4.9-3,5.5-6.1C65.2,43,66.1,38.7,64,38z"/>
	<path id="XMLID_74_" class="st4" d="M43,37c0.4,1.7-1.1,6.8-1.9,8.3c-0.8,1.5-1.6,4-5.4,4.1c-3.7,0.1-7-0.5-9-1.5
		c-2.1-1-3.7-1.5-3.6-5.7c0.1-4,1.7-8.3,3.6-8.8c1.9-0.4,7.5-0.4,10.7,0.3C38.7,33.9,42.5,34.7,43,37z"/>
	<path id="XMLID_73_" d="M23.6,37.6c-0.1,0-0.1,0-0.2,0c-1.7-0.6-9-2.9-9.5-3c-0.3-0.1-0.5-0.4-0.5-0.7c0.1-0.3,0.4-0.5,0.7-0.5
		c0.7,0.1,8.1,2.5,9.6,3.1c0.3,0.1,0.5,0.5,0.4,0.8C24,37.4,23.8,37.6,23.6,37.6L23.6,37.6z"/>
	<path id="XMLID_72_" d="M47.9,42.2c-0.1,0-0.1,0-0.2,0c-1.5-0.5-3-1-4.9-0.8c-0.3,0-0.6-0.2-0.7-0.5c0-0.3,0.2-0.6,0.5-0.7
		c2.1-0.3,3.9,0.3,5.4,0.8c0.3,0.1,0.5,0.5,0.4,0.8C48.4,42,48.1,42.2,47.9,42.2L47.9,42.2z"/>
	<path id="XMLID_71_" class="st5" d="M42.3,60c0.3,0,0.6-0.3,0.6-0.6c0-0.4-0.2-0.7-0.6-0.8c-1.9-0.2-6.6-1.1-7.9-1.7
		c-0.4-0.1-0.8,0-0.9,0.4c-0.2,0.4,0,0.8,0.4,0.9c1.6,0.7,6.5,1.6,8.3,1.8C42.2,60,42.2,60,42.3,60L42.3,60z"/>
	<path id="XMLID_70_" class="st1" d="M3.2,112.8c-1.4,1.8-2.9,3.5-3.2,4.2c-0.4,1.1,1.2,1.7,1.7,1.6c0.5-0.2,0.7-0.4,1.2-0.9
		c0.6-0.6,1.1-1.3,1.1-1.3c-0.8,2.4-0.7,5.2,0.4,5.3c1.2,0.2,1.2-0.7,1.4-1.1c0.5-0.9,0.7-2.7,0.7-2.7c0.4,1.1,1.8,3.9,3,3.4
		c1.2-0.5,0.5-2.5,0.1-4.1c0.5,0.5,1.4,1.9,2.5,2.5c0.7,0.4,2.2,0.3,1.5-1.2c-0.7-1.5-1.4-2.2-1.9-3.1c1.3,1.3,2.3,2.5,3.3,1.7
		c0.9-0.7-1.2-3.6-2.5-5.1c-1.2-1.5-1.3-2.6-1.3-2.6c-1.9,0.4-6.5,1.1-7.2,0.7C4.2,110.2,3.7,112.1,3.2,112.8z"/>
	<path id="XMLID_69_" class="st0" d="M17.9,64.8c-2.9,1.6-7,4.9-9.3,8.9C6.3,77.8,2.9,88.1,2,95c-0.9,6.9-1.1,15.8-0.9,16.5
		c2.2,1,10.2,2.9,12.8,1.1c2.2-5.6,4.6-19.2,6.3-22.3c1.7-3.1,7.7-9.1,8.4-12.4C29.3,74.6,21.9,62.6,17.9,64.8z"/>
	<path id="XMLID_68_" class="st0" d="M40.6,78.4c0.2,2.1,3.1,26.3,3.3,29.3c-1.8,1.5-9.6,3.3-15.6,3.5c-6,0.2-15.9-0.7-18.2-2.2
		c0.8-12.5,1.7-25.8,5.2-32.1"/>
	
		<linearGradient id="XMLID_28_" gradientUnits="userSpaceOnUse" x1="-577.8835" y1="117.0301" x2="-580.4526" y2="111.0025" gradientTransform="matrix(-0.9974 7.170000e-02 7.170000e-02 0.9974 -575.5294 -27.7357)">
		<stop  offset="0" style="stop-color:#FBDCCB"/>
		<stop  offset="1" style="stop-color:#FAC5A0"/>
	</linearGradient>
	<path id="XMLID_67_" class="st6" d="M13.7,34.4c-0.8-3.4-3.2-4.1-4.7-1.6c-1.5,2.6-0.2,11.5,1.4,13c1.5,1.5,2.5,2.3,4.1,2.6"/>
	<path id="XMLID_64_" d="M57.5,52.3c-2.9,0-5.9-0.7-7.7-1.7c-2.7-1.5-2.9-6.8-2.5-8.3c0.1-0.2,0.2-0.5,0.2-0.9
		c0.6-2.1,1.1-3.8,1.9-4.6c0.7-0.8,2.2-1.1,4.8-1.1c0.5,0,0.9,0,1.4,0c2.6,0.1,7.4,1.2,8.6,1.6c2.4,0.9,1.7,5,1.2,7.7l-0.1,0.5
		c-0.6,3.6-3.6,6.4-6,6.6C58.8,52.3,58.2,52.3,57.5,52.3L57.5,52.3z M54.2,37c-2.1,0-3.5,0.3-4,0.7c-0.6,0.6-1.2,2.7-1.6,4.1
		c-0.1,0.3-0.2,0.6-0.2,0.9c-0.4,1.2-0.1,5.8,1.9,6.9c1.6,0.9,4.4,1.5,7.1,1.5c0.6,0,1.2,0,1.7-0.1c1.9-0.2,4.4-2.7,4.9-5.6l0.1-0.5
		c0.4-2,1-5.8-0.4-6.3c-1.1-0.4-5.7-1.5-8.2-1.5C55.1,37,54.7,37,54.2,37L54.2,37z"/>
	<path id="XMLID_61_" d="M35.2,50c-3.5,0-6.7-0.6-8.8-1.6l-0.4-0.2c-2-1-3.7-1.8-3.6-6.1c0.1-4.1,1.8-8.8,4.1-9.3
		c0.8-0.2,2.3-0.3,4.1-0.3c2.6,0,5.1,0.2,6.8,0.6l0.2,0c1.6,0.3,5.3,1.2,5.9,3.7c0.5,2-1.2,7.2-2,8.7c-0.1,0.2-0.2,0.3-0.3,0.5
		c-0.8,1.5-1.9,3.8-5.6,3.9L35.2,50L35.2,50z M30.7,33.7c-1.7,0-3.1,0.1-3.8,0.3c-1.4,0.3-3,4-3.1,8.2c-0.1,3.5,1,4.1,2.9,5l0.4,0.2
		c1.9,0.9,4.9,1.5,8.2,1.5l0.5,0c3,0,3.8-1.7,4.6-3.2c0.1-0.2,0.2-0.4,0.3-0.5c0.8-1.5,2.2-6.4,1.9-7.9c-0.4-1.8-3.7-2.6-5-2.8
		l-0.2,0C35.6,33.9,33.2,33.7,30.7,33.7L30.7,33.7z"/>
</g>
</svg>
