<?xml version="1.0" encoding="utf-8"?>
<!-- Generator: Adobe Illustrator 19.0.0, SVG Export Plug-In . SVG Version: 6.00 Build 0)  -->
<svg version="1.1" id="レイヤー_1" xmlns="http://www.w3.org/2000/svg" xmlns:xlink="http://www.w3.org/1999/xlink" x="0px"
	 y="0px" viewBox="0 0 96 170" style="enable-background:new 0 0 96 170;" xml:space="preserve">
<style type="text/css">
	.st0{fill:#542F1D;}
	.st1{fill:#ADADAD;}
	.st2{fill:url(#XMLID_105_);}
	.st3{fill:url(#XMLID_106_);}
	.st4{fill:#3A3939;}
	.st5{fill:#383838;}
	.st6{fill:#F8D6C0;}
	.st7{fill:url(#XMLID_107_);}
	.st8{fill:#777777;}
	.st9{fill:#D40038;}
	.st10{fill:url(#XMLID_108_);}
	.st11{fill:url(#XMLID_109_);}
	.st12{fill:url(#XMLID_110_);}
	.st13{fill:#DC0045;}
	.st14{fill:none;}
	.st15{fill:#FFFFFF;}
	.st16{opacity:0.3;fill:#FFFFFF;}
	.st17{fill:#595959;}
	.st18{fill:#484848;}
	.st19{fill:#333333;}
	.st20{fill:#8DFF1F;}
	.st21{fill:#EB60FF;}
	.st22{fill:#0FD2EB;}
</style>
<g>
	<g>
		<path id="XMLID_78_" class="st0" d="M26.1,142.4c0-3,0.7-4.4,1.1-5.9c-1.1,0.3-9,2-11.7-0.1c-0.5,2.5-1.2,5.7-1.4,6.7
			c-1.2,3.9-1.4,6-3.7,7.5c-2.2,1.4-3.3,4.8-2.3,5.9c1,1.1,5.9,4.1,9.1,2.1c2.6-1.6,6.9-4.2,8.3-6.3c0.9-1.5,1.3-3.9,1-5.9
			C26.3,145.4,26.1,144.1,26.1,142.4z"/>
		<path id="XMLID_77_" d="M35.8,105.3c-0.6,1.8-8.8,42.3-8.8,42.3c-3.4,2.5-11.9,4.3-14.6-0.1c1.6-9.7,7.1-40.3,7.4-45.4"/>
	</g>
	<g>
		<path id="XMLID_76_" class="st0" d="M42.7,140.5c-0.2-3-0.8-4.4-1.3-5.9c1.2,0.3,9.1,1.6,11.7-0.5c0.6,2.5,1.4,5.7,1.7,6.6
			c1.4,3.8,1.7,6,4,7.3c2.2,1.4,3.5,4.6,2.5,5.8c-1,1.1-5.7,4.3-9,2.5c-2.6-1.5-7.1-3.9-8.5-5.9c-1-1.4-1.5-3.9-1.2-5.9
			C42.6,143.5,42.8,142.2,42.7,140.5z"/>
		<path id="XMLID_75_" d="M34.5,102.3c0.6,1.8,7.5,42,7.5,42c3.5,2.3,12.1,3.8,14.6-0.7c-2-9.6-4.6-41-5.1-46"/>
	</g>
	<path id="XMLID_74_" d="M88.7,162.9c0,0,0.6,0.6,1.6,0.8c1.1,0.2,1.8-0.8,1.8-0.8l0-39.3l-3.5,0L88.7,162.9z"/>
	<path id="XMLID_73_" d="M18.4,169.2c0,0,0.4,0.7,1.8,0.8c1.3,0.1,2-0.8,2-0.8l0-39.3l-3.8,0L18.4,169.2z"/>
	<path id="XMLID_72_" d="M2.9,153.7c0,0,0.6,0.8,1.7,0.8c1.1,0,1.9-0.8,1.9-0.8l-0.1-44.8l-3.6,0L2.9,153.7z"/>
	<path id="XMLID_71_" d="M74.4,152.5c0,0,0.3,0.8,1.6,0.8c1.3,0,1.8-0.8,1.8-0.8l0-44.8l-3.5,0L74.4,152.5z"/>
	<path id="XMLID_70_" class="st1" d="M29.3,57.9c5-0.1,12.2-1.1,17.3,0.2c2.2,0.6,3.5,2,4.5,4.7c1.1,2.8,2.5,15.7,2.9,22.2
		c0.5,7.4,0.5,11.4,0.6,17.1c-6.5,5-24.8,6.1-36,1.3c1.6-20.5,3-35.3,5.5-41C25.7,59,24.7,58,29.3,57.9z"/>
	
		<linearGradient id="XMLID_105_" gradientUnits="userSpaceOnUse" x1="-2234.127" y1="102.365" x2="-2342.0806" y2="114.6601" gradientTransform="matrix(-1 0 0 1 -2254.1406 0)">
		<stop  offset="0" style="stop-color:#0B0B0B"/>
		<stop  offset="1" style="stop-color:#585858"/>
	</linearGradient>
	<polygon id="XMLID_69_" class="st2" points="15.1,127.1 56.9,124.2 96,119.2 77,92.7 0,97.6 	"/>
	
		<linearGradient id="XMLID_106_" gradientUnits="userSpaceOnUse" x1="-2240.4663" y1="97.7305" x2="-2336.2905" y2="108.6442" gradientTransform="matrix(-1 0 0 1 -2254.1406 0)">
		<stop  offset="0" style="stop-color:#000000"/>
		<stop  offset="1" style="stop-color:#464646"/>
	</linearGradient>
	<polygon id="XMLID_68_" class="st3" points="17.3,118.6 52.2,116.6 89.4,112 74,90.3 4.1,93.5 	"/>
	<path id="XMLID_67_" d="M16,106.3c0.2,5.8,6.6,9.8,14.1,9.6c7.5-0.2,13.5-4.8,13.3-10.6C43.3,99.5,37,94.8,29.5,95
		C22,95.2,15.8,100.5,16,106.3z"/>
	<path id="XMLID_66_" d="M51.2,104c0.2,5.8,6.6,9.7,14.1,9.5c7.5-0.2,13.5-4.6,13.3-10.4c-0.2-5.8-6.4-10.7-13.9-10.5
		C57.3,92.8,51.1,98.2,51.2,104z"/>
	<g>
		
			<ellipse id="XMLID_65_" transform="matrix(-0.9995 -3.090626e-02 3.090626e-02 -0.9995 115.9281 72.0684)" class="st4" cx="58.5" cy="35.1" rx="5" ry="10.7"/>
		
			<ellipse id="XMLID_64_" transform="matrix(-0.9995 -3.100078e-02 3.100078e-02 -0.9995 113.7132 72.6389)" cx="57.4" cy="35.4" rx="5" ry="10.7"/>
		<path id="XMLID_63_" class="st4" d="M57.8,37.9c0.2,1.1,0.3,1.4,0.2,2.3c-0.2,1,0.1,1.6-0.2,2.2c-0.4,0.6-0.3,1.1-0.6,1.8
			c-0.3,0.8,0,1.2-0.8,1.2c-0.8,0-0.8,1-1.9-0.2c-1.1-1.2-1.2-1.5-1.5-4.1c-0.3-2.6-0.2-3.8,0.5-4.9c0.7-1.1,1.7-2.1,2.9-1.5
			C57.6,35.3,57.5,36.4,57.8,37.9z"/>
	</g>
	<path id="XMLID_62_" class="st5" d="M17.1,22.7c-1.5,3-2.4,7.3-2.5,8.5c0.7,0.1,1.4-0.1,1.9-0.1c0.1-0.9,0.5-2.3,1.1-4.3"/>
	<path id="XMLID_61_" d="M16.8,22.9c-1.5,3-2.4,7.3-2.5,8.5c0.7,0.1,1.4-0.1,1.9,0c0.2-0.9,0.5-2.3,1.1-4.3"/>
	<path id="XMLID_60_" d="M60.3,30.9c2.4-6.1,3.8-11.2,1.9-16.1c-1.9-4.9-4.3-8.7-8.5-10.7c-4.3-2-9.9-5-12.7-1.4
		c-2.8,3.5-5.4,5-4.6,8.4c0.8,3.4,2.7,5.9,6.8,6.4c4.1,0.5,8.9,15.2,9.9,16.1C54.2,34.5,58.9,33.9,60.3,30.9z"/>
	<path id="XMLID_59_" d="M44.4,1.1C43,0.7,36.7-0.7,33.3,0.4C29.9,1.6,23,4.1,19.5,9.1c-3.5,4.9-3.4,7.3-3.4,13.1
		c0,5.9,2.2,12.8,3.2,14.3c3.4-3.6,19.6-7.8,24.6-12c3.7-3.1,6.4-6.7,6.1-11.6C49.7,7.9,48.9,2.5,44.4,1.1z"/>
	<g>
		<path id="XMLID_58_" class="st6" d="M69,28.3c-0.8-1.8-1.7-3.5-1.8-4.1c-0.1-1,1.3-1.2,1.7-0.9c0.4,0.2,0.5,0.5,0.9,1
			c0.4,0.6,0.7,1.3,0.7,1.3c-0.2-2.1,0.4-4.4,1.4-4.3c1,0.1,0.8,0.8,0.9,1.2c0.3,0.9,0,2.4,0,2.4c0.6-0.8,2.3-2.9,3.2-2.2
			c0.9,0.6-0.1,2.2-0.7,3.4c0.5-0.3,1.5-1.3,2.6-1.5c0.7-0.2,1.9,0.2,1.1,1.3c-0.9,1.1-1.6,1.6-2.2,2.2c1.4-0.8,2.4-1.6,3.1-0.8
			c0.6,0.8-1.8,2.7-3.1,3.7c-1.3,1-1.6,1.9-1.6,1.9c-1.5-0.7-5.2-2.3-5.8-2C69.4,30.6,69.3,28.9,69,28.3z"/>
		<path id="XMLID_57_" class="st1" d="M79.2,31.9c-2.1-1.8-9.4-4.3-11.4-3.6c-2.1,6.7-8.4,18.4-8.4,18.4
			c-4.1,4.6-18.4,11.7-19.8,12.6c-2.1,1-5.7,6.2-1.3,12.7c4.4,6.5,6.2,6.4,6.2,6.4c6.7-3.4,20.8-14.3,23.4-16.5
			c2.6-2.2,3.2-3.6,4.9-6.3C74.6,52.8,78.3,37.6,79.2,31.9z"/>
	</g>
	
		<linearGradient id="XMLID_107_" gradientUnits="userSpaceOnUse" x1="-2285.0942" y1="96.0343" x2="-2282.2856" y2="114.0917" gradientTransform="matrix(-1 0 0 1 -2254.1406 0)">
		<stop  offset="0" style="stop-color:#000000"/>
		<stop  offset="0.3939" style="stop-color:#464646"/>
		<stop  offset="1" style="stop-color:#000000"/>
	</linearGradient>
	<path id="XMLID_56_" class="st7" d="M16,105c0.2,5.8,6.4,10.3,13.9,10c7.5-0.2,13.5-5.1,13.3-10.8c-0.2-5.8-6.4-10.3-13.9-10
		C21.8,94.4,15.9,99.3,16,105z"/>
	<path class="st8" d="M29.5,112.6c-5.6,0-10.1-3.4-10.2-7.7c-0.1-2.1,1-4.2,2.9-5.7c1.9-1.6,4.5-2.4,7.2-2.5l0.4,0
		c5.6,0,10.1,3.4,10.2,7.7c0.1,2.1-1,4.2-2.9,5.7c-1.9,1.6-4.5,2.5-7.2,2.5L29.5,112.6L29.5,112.6z M29.8,97l-0.4,0
		c-2.7,0.1-5.2,1-7.1,2.5c-1.8,1.5-2.8,3.5-2.8,5.5c0.1,4.1,4.5,7.4,9.9,7.4l0.4,0c2.7-0.1,5.2-1,7.1-2.5c1.8-1.5,2.8-3.5,2.8-5.5
		C39.5,100.2,35.2,97,29.8,97L29.8,97z"/>
	<path class="st8" d="M29.5,110.2c-3.9,0-7-2.4-7.1-5.4c0-1.5,0.7-2.9,2-4c1.3-1.1,3.1-1.7,5.1-1.8l0.3,0c3.9,0,7,2.4,7.1,5.4
		c0.1,3.1-3.1,5.7-7.1,5.8L29.5,110.2L29.5,110.2z M29.7,99.3l-0.3,0c-1.9,0.1-3.6,0.7-4.9,1.7c-1.3,1-1.9,2.4-1.9,3.8
		c0.1,2.9,3.1,5.1,6.8,5.1l0.3,0c3.8-0.1,6.9-2.6,6.8-5.5C36.5,101.6,33.5,99.3,29.7,99.3L29.7,99.3z"/>
	<path id="XMLID_51_" d="M26.9,104.3c0,1.3,1.5,2.4,3.2,2.3c1.7,0,3.1-1.2,3.1-2.5c0-1.3-1.5-2.4-3.2-2.3
		C28.2,101.9,26.8,103,26.9,104.3z"/>
	
		<ellipse id="XMLID_50_" transform="matrix(-0.9996 2.826420e-02 -2.826420e-02 -0.9996 62.9445 207.554)" class="st9" cx="30" cy="104.2" rx="2.3" ry="1.8"/>
	
		<linearGradient id="XMLID_108_" gradientUnits="userSpaceOnUse" x1="-2320.4775" y1="93.0234" x2="-2317.6687" y2="110.6811" gradientTransform="matrix(-1 0 0 1 -2254.1406 0)">
		<stop  offset="0" style="stop-color:#000000"/>
		<stop  offset="0.3939" style="stop-color:#464646"/>
		<stop  offset="1" style="stop-color:#000000"/>
	</linearGradient>
	<path id="XMLID_49_" class="st10" d="M51.3,102.6c0.2,5.8,6.4,10.3,13.9,10c7.5-0.2,13.5-5.1,13.3-10.8c-0.2-5.8-6.4-10.3-13.9-10
		C57.1,92,51.1,96.9,51.3,102.6z"/>
	<path class="st8" d="M64.7,109.8c-5.3,0-9.5-3.2-9.6-7.3c-0.1-2,0.9-4,2.7-5.4c1.8-1.5,4.2-2.3,6.9-2.4l0.4,0
		c5.3,0,9.5,3.2,9.6,7.3c0.1,4.2-4.2,7.7-9.6,7.8L64.7,109.8L64.7,109.8z M65,95l-0.4,0c-2.5,0.1-4.9,0.9-6.7,2.3
		c-1.7,1.4-2.7,3.3-2.6,5.2c0.1,3.9,4.2,7,9.3,7l0.4,0c5.2-0.1,9.4-3.5,9.3-7.5C74.3,98,70.2,95,65,95L65,95z"/>
	<path class="st8" d="M64.8,107.8c-3.9,0-7.1-2.4-7.1-5.4c0-1.5,0.7-2.9,2-4c1.3-1.1,3.1-1.7,5.1-1.8l0.3,0c3.9,0,7.1,2.4,7.1,5.4
		c0,1.5-0.7,2.9-2,4c-1.3,1.1-3.1,1.7-5.1,1.8L64.8,107.8L64.8,107.8z M65,96.9l-0.3,0c-1.9,0.1-3.6,0.7-4.9,1.7
		c-1.3,1-2,2.4-1.9,3.8c0.1,2.9,3.1,5.1,6.8,5.1l0.3,0c1.9-0.1,3.6-0.7,4.9-1.7c1.3-1,2-2.4,1.9-3.8C71.7,99.2,68.7,96.9,65,96.9
		L65,96.9z"/>
	
		<ellipse id="XMLID_44_" transform="matrix(-0.9996 2.801856e-02 -2.801856e-02 -0.9996 133.3518 201.768)" cx="65.3" cy="101.8" rx="3.1" ry="2.4"/>
	
		<ellipse id="XMLID_43_" transform="matrix(-0.9996 2.824955e-02 -2.824955e-02 -0.9996 133.3754 201.7533)" class="st9" cx="65.3" cy="101.8" rx="2.3" ry="1.8"/>
	<polygon id="XMLID_42_" points="0,103.5 15,132.1 15.1,127.1 0,97.6 	"/>
	<polygon id="XMLID_41_" points="4.1,99.3 17.2,123.7 17.3,118.6 4.1,93.5 	"/>
	
		<linearGradient id="XMLID_109_" gradientUnits="userSpaceOnUse" x1="-2290.9192" y1="61.6743" x2="-2292.5293" y2="57.6493" gradientTransform="matrix(-1 0 0 1 -2254.1406 0)">
		<stop  offset="0" style="stop-color:#FBDCCB"/>
		<stop  offset="1" style="stop-color:#FAC5A0"/>
	</linearGradient>
	<path id="XMLID_40_" class="st11" d="M34.1,53.3c0,1.5-0.3,2.8-0.3,3.4c-0.1,1.4-0.5,2.8-1.4,3.5c0.2,1.2,2.5,2.7,3.5,3.2
		c1.9,0.9,6-0.4,6.9-2c-0.9-0.6-1.1-2-1.5-3.1c-0.3-1.5,0.1-2.4,0.1-3.3C40.1,54.9,34.9,53.8,34.1,53.3z"/>
	
		<linearGradient id="XMLID_110_" gradientUnits="userSpaceOnUse" x1="-2272.5645" y1="42.9488" x2="-2274.2651" y2="38.959" gradientTransform="matrix(-1 0 0 1 -2254.1406 0)">
		<stop  offset="0" style="stop-color:#FBDCCB"/>
		<stop  offset="1" style="stop-color:#FAC5A0"/>
	</linearGradient>
	<path id="XMLID_39_" class="st12" d="M21,33.7c-1.1-2.5-2.9-2.7-3.8-0.6c-0.8,2.1,1.3,8.7,2.7,9.6c1.4,0.9,2.2,1.4,3.4,1.4"/>
	<path id="XMLID_38_" class="st6" d="M60.3,29c-1,4.5-2.7,11.2-3.1,13.6c-0.6,3.4-3.7,8.9-6.5,11.1c-2.8,2.1-5.5,2.7-8.5,3.4
		c-2.9,0.6-5.4,0.1-7.8-1.2c-2.5-1.3-5.7-2.8-8.5-6.8c-2.6-3.6-4.6-7.3-4.7-13.3c-0.1-6-0.3-7.1-0.2-8.6c0.3-4-0.9-8.6,5.8-13.1
		c6.7-4.5,18.8-5.7,23.9-2.9c5.1,2.8,9,6.4,9.8,10C61.4,24.8,60.8,26.9,60.3,29z"/>
	<path id="XMLID_37_" d="M48.4,37.6c0.2,0,0.4-0.1,0.5-0.3c0.5-1,1.3-1.5,2.3-1.7c1.5-0.2,2.9,0.7,3.3,1.1c0.2,0.2,0.6,0.3,0.8,0
		c0.2-0.2,0.3-0.6,0-0.8c-0.7-0.7-2.5-1.7-4.4-1.5c-1.4,0.2-2.5,0.9-3.2,2.3c-0.2,0.3-0.1,0.7,0.2,0.8
		C48.2,37.6,48.3,37.6,48.4,37.6L48.4,37.6z"/>
	<path id="XMLID_36_" d="M29.1,39.1c0.2,0,0.4-0.1,0.5-0.3c0.5-1,1.3-1.5,2.3-1.7c1.5-0.2,2.9,0.7,3.3,1.1c0.2,0.2,0.6,0.3,0.8,0
		c0.2-0.2,0.3-0.6,0-0.8c-0.7-0.7-2.5-1.7-4.4-1.5c-1.4,0.2-2.5,0.9-3.2,2.3c-0.2,0.3-0.1,0.7,0.2,0.8C28.9,39.1,29,39.1,29.1,39.1
		L29.1,39.1z"/>
	<path id="XMLID_35_" class="st13" d="M47.5,47.7c-1.7-0.3-10.8,0.8-12,1.4C37.1,52.1,44.2,53.8,47.5,47.7z"/>
	<path id="XMLID_34_" class="st14" d="M41.2,45.6c3.7-0.3,6.7,0.3,6.8,1.5c0,0.4-0.3,0.9-1,1.3c0.1-0.2,0.3-0.4,0.4-0.7
		c-1.7-0.3-10.8,0.8-12,1.4c0,0,0.1,0.1,0.1,0.1c-0.5-0.2-0.8-0.6-0.8-0.9C34.7,47.2,37.6,46,41.2,45.6z"/>
	<path id="XMLID_33_" class="st15" d="M47.5,47.7c-0.1,0.2-0.3,0.5-0.4,0.7c-1.1,0.7-3.2,1.2-5.5,1.4c-2.6,0.2-4.8,0-6-0.6
		c0,0-0.1-0.1-0.1-0.1C36.7,48.4,45.9,47.3,47.5,47.7z"/>
	<path id="XMLID_32_" d="M31.6,55.1c0.2,0,0.4-0.1,0.5-0.2l0.6-0.7c0.2-0.3,0.2-0.6-0.1-0.8c-0.3-0.2-0.5-0.1-0.7,0.2l-0.7,0.6
		c-0.2,0.3-0.2,0.6,0.1,0.8C31.4,55.1,31.5,55.1,31.6,55.1L31.6,55.1z"/>
	<path id="XMLID_31_" d="M32.7,56.2c0.2,0,0.5-0.2,0.6-0.4l0.3-1.1c0.1-0.3,0.1-0.7-0.2-0.8c-0.3-0.1-0.7,0.1-0.8,0.4l-0.4,1.2
		c-0.1,0.3,0.1,0.7,0.4,0.8C32.6,56.2,32.7,56.2,32.7,56.2L32.7,56.2z"/>
	<path id="XMLID_30_" d="M33.4,56.8c0.2,0,0.4-0.1,0.5-0.3l0.2-0.7c0.2-0.3,0.2-0.7-0.1-0.9c-0.3-0.2-0.7,0-0.8,0.2l-0.4,0.8
		c-0.2,0.3,0,0.7,0.2,0.8C33.2,56.7,33.3,56.8,33.4,56.8L33.4,56.8z"/>
	<path id="XMLID_29_" d="M34.6,56.7c0.3,0,0.5-0.2,0.6-0.5l0.2-1.1c0.1-0.3-0.2-0.6-0.5-0.7c-0.3-0.1-0.5,0.1-0.6,0.5L34,56
		c-0.1,0.3,0.2,0.6,0.5,0.7C34.5,56.7,34.5,56.7,34.6,56.7L34.6,56.7z"/>
	<path id="XMLID_28_" d="M35.6,57c0.2,0,0.5-0.1,0.6-0.4l0.4-1c0.1-0.3,0-0.6-0.3-0.7c-0.3-0.1-0.6,0.2-0.7,0.5l-0.5,0.9
		c-0.1,0.3,0,0.7,0.3,0.8C35.5,57,35.6,57,35.6,57L35.6,57z"/>
	<path id="XMLID_27_" d="M36.7,58.1c0.2,0,0.5-0.1,0.5-0.4l0.6-1.3c0.1-0.3,0-0.7-0.3-0.8c-0.3-0.1-0.6,0.1-0.7,0.4l-0.6,1.1
		c-0.1,0.3,0,0.7,0.3,0.8C36.5,58.1,36.6,58.1,36.7,58.1L36.7,58.1z"/>
	<path id="XMLID_26_" d="M39.2,58.3c0.3,0,0.5-0.2,0.6-0.4l0.4-1.2c0.1-0.3-0.1-0.7-0.4-0.7c-0.3-0.1-0.6,0.2-0.7,0.5l-0.4,1.1
		c-0.1,0.3,0.1,0.7,0.4,0.7C39.1,58.3,39.2,58.3,39.2,58.3L39.2,58.3z"/>
	<path id="XMLID_25_" d="M41,58.4c0.1,0,0.1,0,0.2,0c0.3-0.1,0.5-0.4,0.4-0.8l-0.4-1.1c-0.1-0.3-0.4-0.5-0.7-0.4
		c-0.3,0.1-0.4,0.4-0.3,0.7l0.3,1.1C40.5,58.3,40.8,58.4,41,58.4L41,58.4z"/>
	<path id="XMLID_24_" d="M43.3,57.9c0.3,0,0.6-0.2,0.6-0.6l0-1c0-0.3-0.2-0.5-0.5-0.6c-0.3,0-0.6,0.2-0.6,0.5l-0.1,0.9
		C42.7,57.6,43,57.9,43.3,57.9C43.3,57.9,43.3,57.9,43.3,57.9L43.3,57.9z"/>
	<path id="XMLID_23_" d="M44.6,57.3c0.1,0,0.1,0,0.2,0c0.3-0.1,0.5-0.4,0.4-0.8l-0.4-0.7c-0.1-0.3-0.4-0.4-0.7-0.3
		c-0.3,0.1-0.3,0.4-0.2,0.7l0.3,0.8C44.2,57.2,44.4,57.3,44.6,57.3L44.6,57.3z"/>
	<path id="XMLID_22_" d="M46.1,56.9c0,0,0.1,0,0.1,0c0.3-0.1,0.4-0.4,0.4-0.7l-0.2-0.8c-0.1-0.3-0.4-0.5-0.7-0.4
		c-0.2,0.1-0.3,0.3-0.3,0.6l0.1,0.9C45.4,56.1,45.5,56.9,46.1,56.9L46.1,56.9z"/>
	<path id="XMLID_21_" d="M41.8,58.1c0.1,0,0.1,0,0.2,0c0.3-0.1,0.5-0.4,0.4-0.7l-0.3-1C42,56.1,41.7,56,41.4,56
		C41,56.1,41,56.4,41,56.7l0.2,1C41.3,57.9,41.6,58.1,41.8,58.1L41.8,58.1z"/>
	<path id="XMLID_20_" d="M37.6,58c0.3,0,0.5-0.2,0.6-0.4l0.3-1c0.1-0.3-0.1-0.6-0.4-0.7c-0.3-0.1-0.7,0.1-0.8,0.4l-0.3,1
		c-0.1,0.3,0.1,0.7,0.4,0.8C37.5,58,37.6,58,37.6,58L37.6,58z"/>
	<path id="XMLID_19_" d="M23.6,9.4c2.1-2.3,9.8-5,13.5-5.7c3.7-0.7,7.4,0,11,0.9c1.5,0.4,3.1,0.9,4.9,1.9c2.2,1,4.4,3.1,5.2,4.1
		c0.3,0.2,0.5,0.5,0.6,0.7c1.3,1.6,3.1,6.1,3.3,7.7c0.8,3.7-0.1,6.6-1.8,10.6c0.1-1.1,0.1-0.3,0-4.2c-0.1-3.2-1.4-5.4-2.1-6.7
		c0.4,2.3,0.6,5.4-0.2,7.9c-0.4-4.5-1.4-8.5-2.7-11.4c1,3.7,0.6,7.6-0.1,8.4c-0.3-3.7-0.9-5.4-1.7-6.9c-0.9-0.7-1.8-1.8-2.1-1.9
		c-0.2-0.1-0.5-0.3-0.9-0.6c0.6,2.9,0.7,6.4-0.1,7.9c-0.1-3.6-0.8-6-2-8.7c0,0-1.4-0.3-2-0.4c1.3,3,1.8,6.7,0.9,9
		c-0.4-3.9-0.9-5.8-2.1-8.1c1,3.9,1.4,9.6-0.1,10.9c0.1-5.7-1.7-9.8-2.7-12c-0.4,1-1.4,2-2,2.6c0.5,2.2,0.9,4.6,0.4,5.9
		c-0.4-2.6-1.5-5.1-2.6-7.4c0,2.3-0.7,5.5-1.6,6.9c0.3-2.1,0-4.3-0.5-6.1c-0.4,2.2-1.6,6-3.2,6.9c0.5-2,0.4-3.5,0.3-4.7
		c-0.5,2.1-2.5,3.7-4.2,4.8c-2.4,1.6-4.7,1.5-6.3,2.3c-1.4,0.6-1.1,7.6-1.4,10c-0.4-0.6-0.4-2.3-0.8-3.2
		C16.6,20.3,21.5,11.7,23.6,9.4z"/>
	<path id="XMLID_18_" class="st16" d="M59.9,34.4c-0.1,0.7-0.5,3-1,3.6c-0.9,1.3-3,2.2-4.5,2.4c-1.5,0.2-5.5,0-6.5-0.8
		c-1.3-0.9-1.7-2.1-1.8-3.8c-0.1-1.7,0.3-3.1,2.1-3.8c0.7-0.3,2.1-0.9,3.9-1c1.6-0.1,3.7,0.1,5,0.4c1.7,0.4,2,0.5,2.6,1.6
		C59.8,33.2,59.9,34,59.9,34.4z"/>
	<path id="XMLID_17_" class="st16" d="M39.1,34.2c0.4,0.3,0.5,2.3,0.1,3.9c-0.2,1.1-1.3,2.4-2,2.7c-0.8,0.3-3.3,1.3-5.7,1.1
		c-2.4-0.2-4.2-0.4-5-1.5c-0.9-1.2-1.3-3.8-0.7-5.3c0.6-1.5,3.1-2.2,4.6-2.4c1.5-0.2,3.7-0.3,5-0.1C36.7,32.9,38,33.3,39.1,34.2z"/>
	<path id="XMLID_16_" class="st1" d="M46.8,65.9c-0.4,2-6.2,5.4-9.3,5.1c-3.1-0.3-7.7-3.8-7.9-4.7c-0.2-1,1.4-4.9,2.6-6.5
		c3.2,3.4,5.5,2.4,7.1,2.3c1.6-0.1,3.3-1.8,3.7-2.6"/>
	<path id="XMLID_15_" d="M39.6,36.7c0.2-1.4,0.3-2.3-0.4-2.8c-0.5-0.4-1.7-1.1-3.3-1.4c-1.2-0.2-2.7-0.3-4.9-0.1
		c-1.3,0.1-3.3,0.8-4.1,1.1c-0.8,0.4-1.8,1.6-1.7,3.1c0,0.3,0,0.7,0.2,0.7c0.2,0,0.2-0.2,0.2-0.6c0-1.8,1-2.3,1.4-2.5
		c0.7-0.3,2.5-0.9,3.7-1c2.1-0.2,4-0.2,5.1,0c1.3,0.2,2.6,1,2.9,1.2c0.4,0.4,0.3,1.2,0.3,1.9c0,0.5-0.2,0.8,0.1,0.9
		C39.5,37.3,39.5,37,39.6,36.7z"/>
	<path id="XMLID_14_" d="M46.3,36.1c0-0.5-0.1-0.9,0-1.4c0.1-1.3,1-2.1,2.9-2.7c2.1-0.6,3.3-0.6,5.6-0.5l1.9,0.2
		c1,0.1,1.7,0.4,2.3,0.7c0.3,0.1,0.5,0.8,0.6,1.2c0,0.6-0.1,0.7,0.2,0.8c0.3,0.1,0.3-0.2,0.3-0.6c0-0.9,0-1.8-0.9-2.1
		c-0.7-0.3-1.3-0.5-2.4-0.7l-1.6-0.2c-2.6-0.2-4.6-0.2-6.7,0.7c-2.3,1-2.6,1.4-2.8,3.1c-0.1,0.5,0.1,1.4,0.1,1.6
		c0,0.3,0.1,0.4,0.3,0.3C46.3,36.5,46.4,36.4,46.3,36.1z"/>
	<path id="XMLID_13_" d="M46.1,33.7c-0.6-0.1-1.6-0.3-2.9-0.2c-1.3,0.1-3.1,0.6-3.8,1c0,0.5,0.1,1,0.1,1.3c0.8-0.8,2.4-1.5,3.6-1.6
		c1.2-0.2,2.5,0.6,2.9,1C46,34.7,46,34.1,46.1,33.7z"/>
	<path id="XMLID_12_" d="M15.2,30.8c0.6-0.2,2.1-0.3,3-0.3c1,0,1.8,0.4,2.1,0.6c0.3,0.2,0.2,0,0.8,0.6c0.5,0.6,0.6,0.9,1.3,1.7
		c0.7,0.8,0.9,0.7,1.1,1.3c0.2,0.6,0.4,0.6,0.7,1.4c0.3,0.8,0.2,1.4,0.3,2.1c0.1,0.7,0.1,0.5,0.3,1.2c0.2,0.8,0.2,1.5,0,2
		c-0.2,0.6-0.2,0.9-0.1,1.9c0,1,0.1,1.4-0.1,1.8c-0.3,0.4-0.1,0.7-0.3,1.4c-0.3,0.8-0.1,0.9-0.4,1.7c-0.3,0.8-0.5,0.9-0.6,1.3
		c-0.2,0.4,0,0.6-0.5,1.1c-0.5,0.5-0.8,1-1.2,1.3c-0.4,0.3-3.2,1.2-4.1,1.3c-3.1-2.1-8.1-7.9-6.2-13.9
		C12.9,32.9,13.1,32.1,15.2,30.8z"/>
	<path id="XMLID_11_" class="st4" d="M14.7,31.3c-2.3,1-3.4,5.5-3.3,10.7c0.2,5.3,1.6,9.9,4,10.6c0.3,0.1,1.1,0,1.3-0.1
		c2.8-0.1,4.9-4.9,4.7-10.8c-0.2-5.9-2.6-10.6-5.3-10.5C15.8,31.1,15,31.1,14.7,31.3z"/>
	
		<ellipse id="XMLID_10_" transform="matrix(-0.9996 2.829358e-02 -2.829358e-02 -0.9996 32.3157 83.2318)" class="st17" cx="15.6" cy="41.8" rx="5" ry="10.7"/>
	<path id="XMLID_9_" d="M14.1,38.8c-0.4,0.5-0.4,1.6-0.3,2.7c0,1.2,0.1,2.6,0.6,3c0.2,0.1,0.7,0,0.8-0.1c0.8,0,1.4-1.4,1.3-3
		c0-1.6-0.7-3-1.5-2.9C14.8,38.5,14.2,38.5,14.1,38.8z"/>
	
		<ellipse id="XMLID_8_" transform="matrix(-0.9996 2.837966e-02 -2.837966e-02 -0.9996 30.0072 82.6618)" class="st4" cx="14.4" cy="41.5" rx="1.4" ry="3"/>
	<g>
		<path id="XMLID_7_" class="st6" d="M17.3,47.7c1.8-0.8,3.6-1.6,4-2.1c0.7-0.7-0.3-1.8-0.7-1.8c-0.5-0.1-0.7,0-1.3,0.2
			c-0.7,0.2-1.3,0.6-1.3,0.6c1.5-1.5,2.5-3.7,1.7-4.3c-0.8-0.6-1.2,0.1-1.5,0.3c-0.7,0.5-1.5,1.8-1.5,1.8c0.1-1,0.1-3.7-1-3.7
			c-1.1-0.1-1.3,1.7-1.6,3.1c-0.2-0.5-0.4-2-1-2.9c-0.4-0.6-1.6-1.1-1.6,0.3c0,1.4,0.3,2.2,0.3,3.1c-0.5-1.5-0.9-2.8-1.9-2.6
			c-1,0.2-0.4,3.2,0,4.8c0.4,1.6,0.1,2.5,0.1,2.5c1.6,0.4,5.5,1.6,5.8,2.2C15.5,49.3,16.6,48,17.3,47.7z"/>
		<path id="XMLID_6_" class="st1" d="M18.7,48.2c-0.5-0.6-7.8-4.3-9.9-4.1C7,49.3,3.9,63.1,4,65.1c0.1,2-0.1,3.2,3.9,4.7
			c3.9,1.5,13.2,4,16,4.4c4.9-3.4,7.5-13.3,7.1-16c-4.9,0.1-13.7-1.4-13.7-1.4C17.4,55.1,17.7,51.6,18.7,48.2z"/>
	</g>
	<polygon id="XMLID_5_" class="st18" points="15,132.1 95.9,124.2 96,119.2 15.1,127.1 	"/>
	<polygon id="XMLID_4_" class="st19" points="17.2,123.7 89.3,117 89.4,112 17.3,118.6 	"/>
	<g>
		<polygon id="XMLID_3_" class="st20" points="49.6,93.3 51.8,95.5 49.5,95.6 47.2,93.4 		"/>
		<polygon id="XMLID_2_" class="st21" points="46,93.5 48.3,95.7 46,95.9 43.7,93.6 		"/>
		<polygon id="XMLID_1_" class="st22" points="42.4,93.7 44.7,96 42.4,96.1 40.1,93.8 		"/>
	</g>
</g>
</svg>
