<?xml version="1.0" encoding="utf-8"?>
<!-- Generator: Adobe Illustrator 19.0.0, SVG Export Plug-In . SVG Version: 6.00 Build 0)  -->
<svg version="1.1" id="レイヤー_1" xmlns="http://www.w3.org/2000/svg" xmlns:xlink="http://www.w3.org/1999/xlink" x="0px"
	 y="0px" viewBox="0 0 80 164" style="enable-background:new 0 0 80 164;" xml:space="preserve">
<style type="text/css">
	.st0{fill:#18517C;}
	.st1{fill:#D29E34;}
	.st2{fill:#CA8D27;}
	.st3{fill:#BB731B;}
	.st4{fill:url(#XMLID_59_);}
	.st5{fill:url(#XMLID_60_);}
	.st6{fill:#F8D6C0;}
	.st7{fill:url(#XMLID_61_);}
	.st8{fill:#A43F00;}
	.st9{fill:#FFFFFF;}
	.st10{fill:#125B9F;}
</style>
<g>
	<g>
		<path id="XMLID_32_" d="M44.1,2.1c3.1-0.2,7.5,0.1,10,2c3,2.3,6.6,6.4,7.8,10.1c0.8,2.3,1.7,7.8,1.1,9.8c-0.3-1.4-0.7-2.2-0.7-2.2
			c1.1,3.8,0,5.5-0.2,6.1c0.3-1.3-0.3-3.9-0.3-3.9c0.2,2,0.1,6.5-1.3,7.5c-3.4-2.1-20.1-4.2-21.8-6.6c-1.7-2.3-3.2-9-3.7-11.1
			C34.5,11.8,35.1,2,44.1,2.1z"/>
		<path id="XMLID_31_" d="M18.1,29.6c-0.2,0.8-0.1,0.9,0.1,2.2c-0.6-0.8-2.1-2.5-2.1-5.8C16,26.3,15.8,27,16,28.4
			c-0.7-1-1.7-2.8-1.3-6.6c0,0-0.4,0.5-0.7,2.2c-1.1-8.2,3.4-14.8,11.3-20.2C29,1.2,34.5-0.2,38.5,0C42,0.2,44.4,1.5,45,2.4
			c0.9,1.4,4.1,4.5-1.1,9.7c-5.1,5.2-15.4,5.3-17.8,7.3C23.7,21.5,19,25.3,18.1,29.6z"/>
	</g>
	<g>
		<path id="XMLID_30_" d="M11.6,139.2c-1.7,2-7,7.6-8.4,9.3c-1.5,1.7-2.6,2.9,0.4,5c2.9,2.1,8.4,1.8,11.9-0.3
			c4.1-2.5,5.9-3.2,6.5-4.8c0.9-1.7,1.9-3.1,1.5-6.1C19.2,142.4,13.8,140.2,11.6,139.2z"/>
		<path id="XMLID_29_" class="st0" d="M43.6,95.4c-0.8,1-4.8,2.4-7.1,3.2c-2.8,1.1-8.1,2.2-12.6,5.1c-1,0.6-6.7,3.5-8.2,6.8
			c-1.5,3.3-6.2,28.3-6.4,30.8c3.5,3.1,10.5,5.1,14.5,3.9c2.3-8.2,8.2-25.8,8.2-25.8c2.4-7.5,4.3-10,7.4-14.5c2-1.4,6.2-3.8,7.6-3.8
			C45,99.6,44,97.4,43.6,95.4z"/>
	</g>
	<polygon id="XMLID_28_" class="st1" points="48.7,164 29,157.1 29,112.6 48.7,119.5 	"/>
	<polygon id="XMLID_27_" class="st2" points="74.4,148.3 48.7,164 48.7,119.5 74.4,103.7 	"/>
	<polygon id="XMLID_26_" class="st3" points="48.7,119.5 29,112.6 55.7,97.2 75.9,103.1 	"/>
	<linearGradient id="XMLID_59_" gradientUnits="userSpaceOnUse" x1="19.2337" y1="42.7088" x2="21.0478" y2="37.7957">
		<stop  offset="0" style="stop-color:#FBDCCB"/>
		<stop  offset="1" style="stop-color:#FAC5A0"/>
	</linearGradient>
	<path id="XMLID_25_" class="st4" d="M20.6,34.3c-1.7-0.7-2.3-0.3-2.2,2c0.1,2.3,1.7,6.9,4.3,6.8"/>
	<linearGradient id="XMLID_60_" gradientUnits="userSpaceOnUse" x1="60.6936" y1="38.2623" x2="58.7282" y2="33.6513">
		<stop  offset="0" style="stop-color:#FBDCCB"/>
		<stop  offset="1" style="stop-color:#FAC5A0"/>
	</linearGradient>
	<path id="XMLID_24_" class="st5" d="M56.6,28.4c0.4-2.7,2.2-3.3,3.5-1.4c1.3,1.9,0.8,8.8-0.3,10c-1.1,1.2-1.8,1.9-3,2.2"/>
	<g>
		<path id="XMLID_23_" class="st6" d="M10.9,65.9c0.3-1.9,0.7-3.9,0.6-4.5c-0.2-1-1.6-0.8-1.9-0.4c-0.3,0.3-0.4,0.6-0.6,1.2
			c-0.2,0.7-0.3,1.5-0.3,1.5c-0.4-2.1-1.6-4.2-2.6-3.8c-0.9,0.4-0.6,1-0.6,1.4c0,0.9,0.6,2.3,0.6,2.3c-0.8-0.6-3-2.1-3.7-1.3
			c-0.7,0.8,0.6,2.1,1.6,3.1c-0.6-0.2-1.8-0.8-2.9-0.8c-0.7,0-1.8,0.7-0.7,1.5c1.1,0.8,2,1.1,2.7,1.5c-1.5-0.4-2.8-0.9-3.2,0.1
			c-0.4,0.9,2.4,2.2,4,2.8c1.5,0.6,2.1,1.4,2.1,1.4c1.2-1.1,4.4-3.6,5.1-3.5C11.2,68.3,10.7,66.6,10.9,65.9z"/>
		<path id="XMLID_22_" d="M49.2,70.8c-0.8,2.6-3.9,6.4-6,9.1c-1.4,1.3-7.7,9.3-9.5,11.3c-1.8,2-2.9,3.7-4.7,4.8
			c-1.8,1.1-4.8-0.7-6.5-2c-1.7-1.3-6.8-5.6-10.4-10.3c-1.2-1.6-5.9-7.8-7.4-9.9c0.3-1.3,5.6-5.7,6.9-7.1c2.4,2.7,8.8,9,10.4,10.4
			s3.2,2.3,3.6,2.4c1.3-2.2,6.4-10.4,7.4-12.1c1-1.7,4.7-6.9,6-8.5c2.6-3,4.2-5.1,8.3-5.3C47.5,56.5,49.5,61.4,49.2,70.8z"/>
	</g>
	<g>
		<path id="XMLID_21_" d="M60.5,146.4c-0.2,2.6-1.2,10.3-1.4,12.5c-0.2,2.2-0.4,3.8,3.2,3.8c3.6,0,7.9-3.5,9.4-7.3
			c1.9-4.5,2.9-6.1,2.5-7.7c-0.3-1.9-0.3-3.6-2.3-5.8C68.5,144.5,62.8,145.8,60.5,146.4z"/>
		<path id="XMLID_20_" class="st0" d="M52.3,107.7c-0.6,1-4,6.5-3.6,10.1c0.4,3.6,9.2,27.8,10.6,29.6c4.6,0.8,11.2-1,14-4
			c-2.2-8.3-5.8-23.8-5.8-23.8c5.8-5,9-11.1,11.2-15.9c-6-7.5-13.6-7.5-18.2-6.9C58.7,99.2,54.7,102.8,52.3,107.7z"/>
	</g>
	<path id="XMLID_19_" class="st0" d="M34.4,109.4c5.4,0,17.1,1.6,18.5,2c2.6-1.8,7.1-6.7,7.1-7.7c0-1-9.6-7.8-11.6-8.2
		C46.4,95.1,38.4,104.2,34.4,109.4z"/>
	<linearGradient id="XMLID_61_" gradientUnits="userSpaceOnUse" x1="50.8031" y1="58.5611" x2="49.1405" y2="54.4044">
		<stop  offset="0" style="stop-color:#FBDCCB"/>
		<stop  offset="1" style="stop-color:#FAC5A0"/>
	</linearGradient>
	<path id="XMLID_18_" class="st7" d="M51,49.6c0.6,1.4,1.5,3,1.8,3.3c0.6,1,1.5,2.3,2.5,2.7c0.2,1.2-1.7,3.2-2.6,4
		c-1.6,1.4-5.9,1.2-7.2-0.1c0.7-0.8,0.9-2,0.9-3.1c-0.4-1.6-0.8-2.4-1.1-3.1C46.7,52.9,50.7,50.6,51,49.6z"/>
	<path id="XMLID_17_" class="st6" d="M18.4,30.1c1.4,3.4,3.8,11.4,4.3,13.4c0.5,2,3.7,7.1,6.6,8.9c3,1.8,6.8,3.7,9.7,4
		c3,0.3,5.4-0.4,7.7-1.9c2.3-1.5,5.4-3.4,7.8-7.6c2.2-3.9,3.8-7.8,3.3-13.8c-0.5-6-0.4-7.1-0.7-8.6c-0.7-4,0-8.7-7.1-12.5
		C42.9,8,30.8,8,26,11.4c-4.8,3.3-8.3,7.3-8.8,11C16.7,26,17.5,28,18.4,30.1z"/>
	<path id="XMLID_16_" d="M22.3,31.2c1,0.4,6.5,3.7,6.9,4c0.2,0.2,0.1,0.6-0.1,0.6c-0.7-0.4-5.9-3.2-6.2-3.4
		C22.5,32.3,21.5,31.1,22.3,31.2z"/>
	<path id="XMLID_15_" d="M51.1,28.5c-1,0.4-6.5,3.7-6.9,4c-0.2,0.2-0.1,0.6,0.1,0.6c0.7-0.4,5.9-3.2,6.2-3.3
		C50.9,29.7,51.9,28.4,51.1,28.5z"/>
	<path id="XMLID_14_" d="M29,39.5c0,0.9-0.4,1.6-1.2,1.6c-0.9,0-1.9-0.7-1.9-1.6s0.5-1.8,1.3-1.8C28.1,37.7,29,38.6,29,39.5z"/>
	<path id="XMLID_13_" d="M44.4,36.8c0,0.9,0.4,1.6,1.2,1.6c0.9,0,1.9-0.7,1.9-1.6c0-0.9-0.5-1.8-1.3-1.8
		C45.3,35,44.4,35.9,44.4,36.8z"/>
	<path id="XMLID_12_" class="st8" d="M39.5,49.5c-0.4,0-0.6-0.1-0.8-0.2c-0.2-0.1-0.5-0.2-0.4-0.5c0.1-0.2,0.4-0.1,0.6,0
		c0.3,0.1,1,0.1,2.8-0.2c0.5-0.1,1.1-0.1,1.5-0.1c0.9-0.1,1.2-0.1,1.8-0.6c0.2-0.2,0.4-0.3,0.6-0.1c0.2,0.2-0.1,0.3-0.3,0.5
		c-0.8,0.6-1.4,0.8-2.3,0.9c-0.4,0-0.8,0.1-1.2,0.1C40.8,49.5,40,49.5,39.5,49.5L39.5,49.5z"/>
	<g>
		<path id="XMLID_11_" class="st9" d="M46,57.5c0.4,0.8,2.3,1.9,3.5,1.5c1.2-0.4,3.5-1,4.7-2.6c0.9,3.6,5.2,16.9,6.1,18.7
			C61.1,77,62.4,86,63,89c0.6,3,0.8,11.2,0.5,13.2c-0.3,2-1,3.4-1,3.4c-1.3-0.3-10.1-1.4-12.9-2.8c-2.8-1.4-8-4.5-8.5-5.4
			c3.5-4,4.7-9.1,4.7-11.2c0-2.1-1-12.1-1.3-15.6c-0.3-3.6-0.6-9-0.4-10.2C44.4,59.2,45.6,58.2,46,57.5z"/>
		<g>
			<path id="XMLID_10_" class="st10" d="M50.5,66.8c-1.9,0-7.1-0.2-9.2-1.3l0.6-3.6c1.2,0.6,7.1,1.3,9,1.2c2-0.1,4.8-0.9,6.3-1.7
				l0.7,3.6c-2,1-4.3,1.6-6.8,1.7C51,66.8,50.8,66.8,50.5,66.8L50.5,66.8z"/>
			<path id="XMLID_9_" class="st10" d="M51.2,75.4c-2.2,0-5.2-0.3-7.2-1.2l0.3-3.5c1.6,0.7,6,1.2,8.1,1.1l0.2,0
				c2-0.1,6.2-0.6,8.7-1.8l0.7,3.5c-3.1,1.5-6.9,1.7-9.2,1.9l-0.2,0C52.3,75.4,51.8,75.4,51.2,75.4L51.2,75.4z"/>
			<path id="XMLID_8_" class="st10" d="M52.4,83.8c-2.1,0-4.5-0.5-6.7-1.1l0.2-3.8c1.6,0.4,6,1.7,8.2,1.1c1.2-0.3,2.6-0.4,4.1-0.5
				c1.9-0.1,4.9-0.6,6.1-1.3l0.8,3.6c-1.9,0.9-4.4,1.1-6.6,1.3c-1.3,0.1-2.6,0.2-3.4,0.4C54.2,83.7,53.3,83.8,52.4,83.8L52.4,83.8z"
				/>
			<path id="XMLID_7_" class="st10" d="M63.8,92.2c-2.1-0.5-6.6-0.7-9.7-0.7c-3.2,0-5.5-0.7-8.5-1.9l0.2-3.9
				c2.6,1.1,5.7,2.2,8.3,2.2c1.2,0,7.4,0,10.6,0.8L63.8,92.2L63.8,92.2z"/>
			<path id="XMLID_6_" class="st10" d="M58.2,101.3c-1.4-0.5-2.7-0.7-4-0.9c-0.9-0.2-1.8-0.3-2.7-0.6c-2.3-0.6-6.4-2.9-8.3-4.3
				l2.1-2.9c1.8,1.3,5.4,3.3,7.1,3.7c0.7,0.2,1.5,0.3,2.4,0.5c1.3,0.2,2.7,0.5,4.4,1L58.2,101.3L58.2,101.3z"/>
		</g>
	</g>
	<path id="XMLID_5_" d="M46.4,56.3c0.1,2.6-0.1,5.5,0.1,9c0.2,3.5,0.3,8.4,0.4,12.1c0.1,3.7,0.4,6.4,0.1,9.2
		c-0.3,2.8,0.5,5.3-1.1,7.3c-1.6,2-1.2,2.3-2.8,3.3c-1.6,1-1.4,0.7-2.8,0.9c-1.4,0.2-2.6-0.2-3,0.1c1.2-0.9,1.6-0.7,2.8-2
		c1.2-1.3,3.8-5.6,3.9-6.3c0.1-0.8-0.2-4.3-0.6-5.7c-0.5-1.4-2.1-6-2.5-7.4c-0.4-1.4-1.5-7.6-1.5-8.7c0-1.1,0.9-8.4,0.9-8.4
		C41.7,58.5,46.4,56.3,46.4,56.3z"/>
	<path id="XMLID_4_" d="M52.8,52.6c-0.4,1.3,1.8,13.2,2.6,15.3c1.1,3.2,4.8,10.1,5.2,13.8c0.4,3.7,1.9,12.8,1.5,16.2
		c-0.4,3.4-0.6,7.1-0.8,8.5c-0.3,1.7-1,4.6-1.4,6.7c1.9,0.8,11.9,3.4,12.9,3.9c1.1,0.5,6.4,2.1,6.8,2.3c1.1-3.1-0.5-20.3-1-23.9
		s-2.1-21.5-5.9-26.9C69,62.9,65,56.5,62.6,54.8C60.2,53.2,55.3,52.4,52.8,52.6z"/>
	<g>
		<path id="XMLID_3_" class="st6" d="M49.5,102.7c-2-0.1-3.9-0.4-4.5-0.2c-1,0.3-0.6,1.7-0.3,2c0.4,0.3,0.6,0.3,1.2,0.5
			c0.7,0.2,1.5,0.2,1.5,0.2c-2,0.6-4,2-3.5,2.9c0.5,0.9,1.1,0.5,1.5,0.5c0.9-0.1,2.2-0.8,2.2-0.8c-0.5,0.8-1.8,3.2-0.9,3.8
			c0.9,0.6,2-0.8,2.9-1.9c-0.1,0.6-0.6,1.9-0.5,3c0.1,0.7,0.9,1.7,1.6,0.5c0.7-1.2,0.9-2.1,1.3-2.9c-0.3,1.6-0.6,2.9,0.4,3.2
			c1,0.3,1.9-2.6,2.4-4.2c0.5-1.6,1.2-2.2,1.2-2.2c-1.2-1.1-4-4.1-4-4.8C51.8,102.2,50.1,102.7,49.5,102.7z"/>
		<path id="XMLID_2_" d="M63,76.1c0.9,3.9,1.4,10.3,1.6,14.2c-1.6,1.6-7.5,5.3-9.2,6.3c-1.7,1-4.3,2.7-7.5,5.1
			c1,3.2,4.7,7.1,7.5,7.8c0.5-0.1,3.3-1.8,5.4-2.8c2.1-1,11.1-7.8,13.4-10c2.3-2.2,2.3-2.4,2.3-5.1c0-5.9-0.4-15-0.8-16.8
			C73,63.2,66.3,56.5,63.7,54c-2-1.9-8.7-1.3-10.7-1.5c-0.6,4,1.8,10.9,3.2,13.6C57.6,68.8,62.6,74.4,63,76.1z"/>
	</g>
	<path id="XMLID_1_" d="M24.7,18.8c0,1.2,0.3,2.7,0.6,3.1c1.1-3.1,3.5-6.6,4.5-7.5c1.2,2.2,4.8,5.9,8.3,6.7
		c-0.9-1.8-1.3-3.9-1.4-5.1c1.8,1.8,2.5,2.3,3.3,2.7c-0.6-1.6-0.3-3.1-0.2-3.6c1.4,2.7,5.9,6.5,9.4,6.9c-1.1-2.1-1.3-2.8-1.3-4
		c1.1,1.7,3.4,4.7,6.3,5.9c-0.8-1.8-0.6-2.3-0.7-2.8c0.8,1.2,2.1,3.4,3.9,4.1c0.4-3.6,0-7.5-1.2-9.9c-1.2-2.4-9-7.7-16.5-8.3
		c-5.8-0.5-10-1.4-16.5,3.5c-2.7,2-6.2,6.3-6.7,10.2c-0.3,2.4-0.4,5.7,0.6,8.1c0.8,1.9,1.4,2.7,2.2,3.2c-0.8-3,0.6-6.5,1.4-7.8
		c0.1,1,0.3,1.3,0.6,2c0.2-2,0.6-3.8,1-4.6c-0.1,1,0,1.2,0.4,2.3C22.8,21.7,23.7,19.5,24.7,18.8z"/>
</g>
</svg>
