<?xml version="1.0" encoding="utf-8"?>
<!-- Generator: Adobe Illustrator 19.0.0, SVG Export Plug-In . SVG Version: 6.00 Build 0)  -->
<svg version="1.1" id="レイヤー_1" xmlns="http://www.w3.org/2000/svg" xmlns:xlink="http://www.w3.org/1999/xlink" x="0px"
	 y="0px" viewBox="0 0 102 158" style="enable-background:new 0 0 102 158;" xml:space="preserve">
<style type="text/css">
	.st0{fill:#424141;}
	.st1{fill:#DEAC5B;}
	.st2{fill:#6E412C;}
	.st3{fill:#D20000;}
	.st4{fill:#F8D6C0;}
	.st5{fill:#FFFFFF;}
	.st6{fill:url(#XMLID_91_);}
	.st7{fill:#777777;}
	.st8{fill:#424242;}
	.st9{fill:url(#XMLID_92_);}
	.st10{fill:url(#XMLID_93_);}
	.st11{fill:#3D3D3D;}
</style>
<g>
	<g>
		<g>
			<path id="XMLID_64_" class="st0" d="M13.2,116.4c-0.5,0.5-3.2,4.5-3.2,6.2c0,1.7,0.2,1.2,0.8,2.1c0.6,0.9,3.2,2.7,3.5,2.8
				c0.2,0.1,1.3-0.6,1.7-1.2c0.4-0.6,3.8-5.3,4.1-6.4C20.3,118.8,15.3,114.3,13.2,116.4z"/>
			<path id="XMLID_63_" d="M16.8,120c-0.6,0.4-2.5,3.1-2.9,4.2c-0.4,1.1-0.5,3.1,0.7,3.6c1.1,0.5,2.8,0.1,3.7-1.2
				c0.9-1.3,2.5-3.5,2.5-4.6c0-1.1-0.8-2.1-1.3-2.4C19,119.3,18.1,119.2,16.8,120z"/>
		</g>
		<g>
			<path id="XMLID_62_" class="st0" d="M46.9,143.8c-0.5,0.5-3.2,4.5-3.2,6.2c0,1.7,0.2,1.2,0.8,2.1c0.6,0.9,3.2,2.7,3.5,2.8
				c0.2,0.1,1.3-0.6,1.7-1.2c0.4-0.6,3.8-5.3,4.1-6.4C54,146.2,49,141.7,46.9,143.8z"/>
			<path id="XMLID_61_" d="M50.5,147.4c-0.6,0.4-2.5,3.1-2.9,4.2c-0.4,1.1-0.5,3.1,0.7,3.6c1.1,0.5,2.8,0.1,3.7-1.2
				c0.9-1.3,2.5-3.5,2.5-4.6c0-1.1-0.8-2.1-1.3-2.4C52.7,146.7,51.8,146.5,50.5,147.4z"/>
		</g>
		<g>
			<path id="XMLID_60_" class="st1" d="M4.8,95.9c-1.1,0.9-2.6,4.5-3,6.9c-0.3,1.6,0.5,2.9,1.8,4.8c1.8,2.6,5.6,6.6,8.3,8.7
				c2.7,2.1,10.4,8.1,13,9.8c2.6,1.7,21,17.1,24.3,19.7c3.3,2.6,10.6,8.6,13,10.1c2.4,1.5,4.2,2.6,8.1,2c3.9-0.6,5.9-1.7,8.3-2.6
				c1.1-0.4,1.4-0.5,2.3-1.2c1.1-0.9,1.1-2,1.4-4c0.2-1.4-0.9-2.3-2.2-2.8c-2.5-1-5.7-2.2-9.3-3.7c-4.2-1.8-8.1-4.1-14.3-8.5
				c-6.2-4.4-30.6-22-33.8-26.2c-3.2-4.2-6.5-8.9-7.4-11.6c-0.9-2.7-2.7-3.9-5-4.2C8.1,92.8,6.5,94.5,4.8,95.9z"/>
			<path id="XMLID_59_" d="M24,122.6c3.5,2.3,12.4,9.6,14.3,11.1c2,1.5,11.6,9.6,13.6,11c2,1.4,10.4,8.1,11.9,9
				c1.5,0.9,4.2,2,6.8,1.2c2.6-0.8,4.5-1.3,6.2-2c1.7-0.8,3.5-1.3,4-2c0.3-0.5,0.9-1.6,1-2.7c-0.4-0.4-1-0.8-1.6-1
				c-2.5-1-5.7-2.2-9.3-3.7c-4.2-1.8-8.1-4.1-14.3-8.5c-6.2-4.4-30.6-22-33.8-26.2c-3.2-4.2-6.5-8.9-7.4-11.6
				c-0.9-2.7-2.7-3.9-5-4.2c-2.3-0.3-3.9,1.4-5.6,2.7C4,96.5,3,98.6,2.4,100.7c1.3,2.9,3.7,6.6,5.6,8.4
				C10.4,111.3,20.5,120.4,24,122.6z"/>
		</g>
	</g>
	<g>
		<path id="XMLID_58_" class="st2" d="M19.2,90.9C16.6,91,8.9,90.9,6.7,91c-2.2,0.1-3.8,0.1-3.4,3.6c0.4,3.6,4.4,7.4,8.3,8.5
			c4.6,1.3,6.4,2.1,7.9,1.6c1.8-0.5,3.6-0.7,5.5-3C22.1,98.6,20,93.1,19.2,90.9z"/>
		<path id="XMLID_57_" d="M69.4,101.1c-2.9,0.8-4.2,0.1-8.4-0.9c-3.4-0.9-7.8-3.2-10.7-3.8c-2.1-0.4-5-2-11-3
			c-5.1,3.6-14.7,9.9-15.2,10.2c-3.1-2-10.1-10.2-9-13.6c7.6-5.3,16.2-11.9,18.9-14c2.7-2.2,6.4-3.4,11.4-1.2
			c5.7,2.4,18.1,5.5,20.7,6.8C66.7,86.2,69.4,101.1,69.4,101.1z"/>
	</g>
	<g>
		<path id="XMLID_56_" class="st2" d="M63.2,134.9c0.3,2.6,0.7,10.3,0.9,12.5c0.2,2.2,0.3,3.8,3.9,3.2c3.6-0.7,7.1-4.9,8-8.8
			c1-4.7,1.8-6.5,1.1-8c-0.6-1.8-1-3.5-3.4-5.2C70.8,131.5,65.4,133.9,63.2,134.9z"/>
		<path id="XMLID_55_" d="M87.3,90.7c0,3,0.8,7.2-1.5,9.9c-2.3,2.7-6.9,7.4-8.4,9c-1.5,1.7-5,6.3-5,6.3c2.1,5.9,5,15.6,5.1,16.2
			c-2.7,2.4-12.5,6.9-15.5,5c-3-8.7-7.1-18.8-8.4-22c-1.4-3.2-1.8-7.5,2.3-11.1c4.1-3.6,11.2-12.9,13.1-15
			C73.6,89.7,87.3,90.7,87.3,90.7z"/>
	</g>
	<path id="XMLID_54_" class="st3" d="M60,45.3c1.4,0.5,8.1,1.7,10.1,2.3c2,0.6,6.7,1.7,8.4,3.2c1.7,8.4-1.8,15.7-2.8,16.8
		c-1.1,1.1-6.3,3.3-10.3,2.4c-3.9-0.9-12.4-4.1-14.2-6.9c-1.8-2.9-2.7-14.4-2.7-15.2c0-0.8,3.5-2.7,4.8-3
		C54.7,44.6,56.7,44.4,60,45.3z"/>
	<g>
		<path id="XMLID_53_" class="st4" d="M8,54.7c-1.3,1.4-2.6,2.9-3.2,3.2c-0.9,0.4-1.6-0.8-1.5-1.3c0.1-0.5,0.3-0.7,0.6-1.2
			c0.4-0.6,1-1.1,1-1.1c-1.9,0.9-4.3,1.2-4.6,0.3c-0.3-1,0.5-1.1,0.8-1.3c0.7-0.6,2.2-0.9,2.2-0.9c-1-0.3-3.5-1.1-3.2-2.1
			c0.3-1.1,2-0.7,3.4-0.6c-0.5-0.3-1.7-1-2.4-1.9c-0.4-0.6-0.5-1.9,0.8-1.5c1.3,0.4,2,0.9,2.9,1.2c-1.3-1-2.4-1.7-1.9-2.6
			c0.5-0.9,3.2,0.6,4.6,1.5c1.4,0.9,2.3,0.8,2.3,0.8C9.7,49,9.6,53,10.1,53.5C10.1,53.5,8.5,54.2,8,54.7z"/>
		<path id="XMLID_52_" class="st3" d="M6.9,43.8c4.4-0.1,7.8-1.1,11.5-0.9c3.6,0.2,6.3,0.3,8.1,0.3c1.8,0,4.1,0,7.5,0.6
			c3.5,0.6,16.1,3.6,16.6,3.9c0.5,0.3,4.5,14.7,4.4,16.1c-0.2,1.4-1.4,5.1-2.4,4.5c-1.1-0.6-1.4-2.1-4.5-3.2c-3.2-1.1-11-5-13-6.2
			c-2-1.2-7.1-2-8.1-2.4c-5.9,0.2-15.5,0.6-16.9,0.9C6.5,55.4,4.5,49.8,6.9,43.8z"/>
	</g>
	<g>
		<path id="XMLID_51_" class="st4" d="M91.4,93.2c-1.2,1.6-2.5,3.1-2.6,3.7c-0.3,1,1,1.4,1.5,1.3c0.5-0.1,0.6-0.4,1.1-0.8
			c0.5-0.5,0.9-1.1,0.9-1.1c-0.6,2-0.5,4.4,0.5,4.5c1,0.1,1-0.6,1.2-1c0.4-0.8,0.5-2.3,0.5-2.3c0.4,0.9,1.6,3.3,2.6,2.8
			c1-0.4,0.4-2.1,0-3.5c0.4,0.4,1.2,1.6,2.3,2.1c0.6,0.3,1.9,0.2,1.3-1c-0.6-1.3-1.3-1.9-1.7-2.6c1.2,1.1,2.1,2.1,2.9,1.4
			c0.8-0.7-1.2-3-2.2-4.3c-1.1-1.2-1.2-2.2-1.2-2.2c-1.6,0.4-5.6,1.1-6.2,0.7C92.2,91,91.8,92.7,91.4,93.2z"/>
		<path id="XMLID_50_" class="st3" d="M75.2,49.1c5.8,2,18.9,13.2,20.1,14.6c0.8,0.9,3,4.4,3.7,9c0.8,4.7,2.3,18.4,2.3,19.1
			c-2.6-0.1-11,0.6-12.2,1.8c-0.3-4.5-2.1-17.9-2.4-19.1c-4.2-3.2-8.3-4.5-10.7-5.3c-4.5-2.7-7.8-6.8-7.5-11.1
			c0.3-4.4,0.8-5.9,2.1-6.9C71.9,50.2,71.9,48,75.2,49.1z"/>
	</g>
	<g>
		<path id="XMLID_49_" class="st3" d="M50.2,65.2c0.4,2.8,0.9,6.6,2.1,9.2c1.2,2.6,2.6,4.8,1.8,7.1c-0.8,2.3-1.1,3,0,4.5
			c1.1,1.5,2.4,4.8,6.6,4.7c4.2-0.2,6.2-0.9,9.5,1.2c3.3,2.1,3,3.6,6.8,3.5c3.8-0.1,10.4-0.3,11.2-0.9c-0.2-5.4-1.5-14.6-2.3-16.8
			c-0.8-2.3-2.1-7.4-3.9-10.5c-1.8-3.2-1.5-5.9-7.2-9.3c-6.4-3.9-15.4-4.5-16.7-4.5C56.7,53.1,49,55.5,50.2,65.2z"/>
		<g>
			<path class="st5" d="M66,67.2c-0.1,0-0.2,0-0.5-0.1L64.6,67c-0.2,0-0.3,0-0.4,0c0-0.1,0.1-0.2,0.1-0.4l0.2-1.7c0-0.2,0-0.3,0-0.5
				c0.1,0,0.2,0,0.4,0.1l0.9,0.1c0.2,0,0.3,0,0.4,0l-0.1,0.6c-0.1,0-0.2,0-0.4-0.1L65,65l-0.1,0.5l0.6,0.1c0.2,0,0.3,0,0.4,0
				l-0.1,0.6c-0.1,0-0.2,0-0.4-0.1L64.9,66l-0.1,0.5l0.8,0.1c0.2,0,0.4,0,0.5,0L66,67.2z"/>
			<path class="st5" d="M67.5,67.4c0-0.1-0.1-0.2-0.1-0.3l-0.2-0.3L67,67c-0.1,0.1-0.1,0.2-0.2,0.3l-0.7-0.1
				c0.1-0.1,0.2-0.2,0.3-0.3l0.6-0.6l-0.4-0.7c0,0-0.1-0.1-0.2-0.3l0.7,0.1c0,0.1,0.1,0.2,0.1,0.3l0.1,0.2l0.2-0.2
				c0.1-0.1,0.1-0.2,0.2-0.2l0.7,0.1c-0.1,0.1-0.2,0.2-0.2,0.2l-0.5,0.6l0.4,0.7c0.1,0.1,0.1,0.2,0.2,0.3L67.5,67.4z"/>
			<path class="st5" d="M72,65.3c0,0.1-0.1,0.2-0.1,0.5l-0.1,1.1c-0.1,0.7-0.5,1.1-1.3,1c-0.4,0-0.7-0.2-0.8-0.4
				c-0.2-0.2-0.2-0.5-0.2-0.8l0.1-1.1c0-0.2,0-0.3,0-0.5l0.6,0.1c0,0.1,0,0.2-0.1,0.5l-0.1,1.1c0,0.4,0.1,0.6,0.5,0.6
				c0.4,0,0.5-0.1,0.6-0.5l0.1-1.1c0-0.2,0-0.3,0-0.5L72,65.3z"/>
			<path class="st5" d="M72,67.9c0-0.1,0.1-0.3,0.1-0.5l0.1-0.9c0-0.2,0-0.3,0-0.5l0.6,0.1l0,0.1c0,0,0,0.1,0,0.1
				c0.2-0.2,0.4-0.2,0.6-0.2c0.2,0,0.4,0.1,0.5,0.2c0.1,0.1,0.1,0.3,0.1,0.5l-0.1,0.8c0,0.2,0,0.3,0,0.5L73.3,68
				c0-0.1,0.1-0.3,0.1-0.5l0.1-0.6c0-0.1,0-0.2,0-0.2c0-0.1-0.1-0.1-0.2-0.1c-0.2,0-0.3,0.1-0.5,0.3l-0.1,0.6c0,0.2,0,0.3,0,0.5
				L72,67.9z"/>
			<path class="st5" d="M75,66.3c0,0.1-0.1,0.2-0.1,0.5l-0.1,0.9c0,0.2,0,0.3,0,0.5l-0.6-0.1c0-0.1,0.1-0.3,0.1-0.5l0.1-0.9
				c0-0.2,0-0.3,0-0.5L75,66.3z"/>
			<path class="st5" d="M75.6,66.3c0-0.2,0-0.3,0-0.4l0.6,0.1c0,0.1-0.1,0.3-0.1,0.4l0,0.1l0.1,0c0.1,0,0.2,0,0.3,0L76.5,67
				c-0.1,0-0.2,0-0.3,0l-0.1,0L76,67.7c0,0.1,0,0.1,0,0.2c0,0,0.1,0,0.1,0c0.1,0,0.1,0,0.2,0l0,0.5c-0.1,0-0.3,0-0.4,0
				c-0.2,0-0.3-0.1-0.4-0.2c-0.1-0.1-0.1-0.2-0.1-0.4l0.1-0.9l-0.1,0c-0.1,0-0.2,0-0.3,0l0.1-0.5c0.1,0,0.2,0,0.3,0L75.6,66.3
				L75.6,66.3z"/>
			<circle id="XMLID_42_" class="st5" cx="74.8" cy="65.7" r="0.4"/>
		</g>
	</g>
	<linearGradient id="XMLID_91_" gradientUnits="userSpaceOnUse" x1="59.344" y1="54.2988" x2="58.0837" y2="51.148">
		<stop  offset="0" style="stop-color:#FBDCCB"/>
		<stop  offset="1" style="stop-color:#FAC5A0"/>
	</linearGradient>
	<path id="XMLID_41_" class="st6" d="M54.2,50.8c0.4,1.2,1.8,2.9,1.8,4.5c1.5,0.9,2.2,0.9,4.1,0.3c2.3-0.8,2.3-4.4,1.5-5
		c-0.6-0.6-1.4-2-2.3-3C57.9,49,56.6,50.9,54.2,50.8z"/>
	<path id="XMLID_40_" class="st7" d="M61.6,10.4c0.7,0.9,4.1,8.6,3.3,10.8c-0.8,2.2-1.4,4.4-2.7,4.9c-1.3,0.5-6.2-2.7-6.5-4.4
		c-0.3-1.7-0.7-7.4-0.3-9C55.8,11,57,8.2,57,8.2S59.8,7.9,61.6,10.4z"/>
	<path id="XMLID_39_" class="st8" d="M61.7,12.3c1.1,2.5,1.7,6.4,1.8,7.8c-0.4,0.2-0.8,0.9-1.5,0.1c-1.4-1.6-3.3-5.7-3.3-6.1
		C58.6,13.5,61.5,11.7,61.7,12.3z"/>
	<path id="XMLID_38_" class="st8" d="M21,31.7c0.2,1.2,0.5,2.8,1.6,3.9c1.2,1.1,2.6,3.1,3.6,4.3c1.1,1.2,2.3,0.5,1.7-0.8
		c-0.6-1.3-2.9-7.2-3.4-8.7c-0.5-1.6-1.2-5.4-1.3-6c-0.1-0.6-2.9,1.9-2.2,7"/>
	<linearGradient id="XMLID_92_" gradientUnits="userSpaceOnUse" x1="66.3514" y1="32.3525" x2="64.1564" y2="27.2028">
		<stop  offset="0" style="stop-color:#FBDCCB"/>
		<stop  offset="1" style="stop-color:#FAC5A0"/>
	</linearGradient>
	<path id="XMLID_37_" class="st9" d="M60.6,20.1c1.8-1.4,3.7-1.9,4.9,0.6c1.2,2.5,3,11.7-2.9,12.2"/>
	<linearGradient id="XMLID_93_" gradientUnits="userSpaceOnUse" x1="32.7933" y1="50.9485" x2="30.6143" y2="45.8364">
		<stop  offset="0" style="stop-color:#FBDCCB"/>
		<stop  offset="1" style="stop-color:#FAC5A0"/>
	</linearGradient>
	<path id="XMLID_36_" class="st10" d="M27.8,38.5c-2.2,0.3-3.9,1.5-2.8,4c1.1,2.5,6.6,10.1,11,6.1"/>
	<path id="XMLID_35_" class="st4" d="M59.1,14.6c1.3,2.4,2.5,4,3.2,8.2c1,5.3,2,10.4,2.3,14.7c0.4,4.9-2.9,9-4.7,12
		c-2,3.4-5.6,6.1-8.1,6.6c-2.5,0.4-6.1,0.3-11.1-1.4c-4.3-1.5-5.4-4.2-6.9-5.4c-1.4-1.3-6.3-8.6-8.8-13.1c-2.4-4.3-5.6-11-4.6-14.9
		c0.9-3.9,9.5-12,14-13.7C39.1,6,46,3.4,49.6,4.9C53.2,6.4,57.4,11.5,59.1,14.6z"/>
	<path id="XMLID_34_" class="st8" d="M26.1,22.1c-0.4,1.4-1.8,3.7-1.7,6.4c0.1,2.7,0.1,4.8,0.7,6.7c0.6,1.9,1.2,3.3,1.2,3.3
		c-0.3,0-0.5,0-0.8-0.4c-0.3-0.4-0.7-1-1.1-1.6c-1.3-2.1-3.4-6.3-3.2-8.9c0.3-2.6,0.5-5.1,1.4-6.2c0.9-1.1,3.9-0.8,3.6,0.4"/>
	<path id="XMLID_33_" class="st8" d="M51.2,13.5c3.7,0.5,4.8,1.9,5.2,2.1c1,0.6,1.7,1,2.5,1.7c0.7,0.5,2.1,1.7,2.2,2.5
		c-0.2-3.9-0.1-5.2-0.8-6.1c-0.6-0.8-1.9-1.6-3.4-2.1C55.4,11.1,51.5,9.3,51.2,13.5z"/>
	<path id="XMLID_32_" class="st8" d="M58.3,15.7c1.5,1.2,3.8,6.3,4.2,8.2c0.3-1.8,0-5.1-0.3-6.5c-0.3-1.4-0.6-4.1-1.9-5
		c-1.3-0.9-3.1-1.3-4.3-0.7C54.8,12.3,56.8,14.5,58.3,15.7z"/>
	<path id="XMLID_31_" class="st7" d="M23.1,32.2c1-3.2,3-9,5.3-10.9c2.3-2,6.8-4,8.3-3.9c1.5,0.1,4.2-1.5,7.1-2.4
		c3.3-1,7.7-1.3,9.5-1.4c2.2-0.1,8.3,2.7,10.3,4.7c-0.1-0.9-0.4-5.5-1.8-7.8c-1.4-2.3-3-5.1-4.7-6.1c-1.7-1-3.5-2.8-5.3-3.7
		c-1.9-0.8-5.1-0.6-6.5-0.4c-1.5,0.3-1.8,0.9-5.8,0.8c-4.1-0.1-7.1,1.3-9.3,2c-2.2,0.7-5.6,2.5-7.3,4.6C20.9,9.7,21.4,8,18.8,12
		c-2.5,4-2.7,8.2-2.2,11c0.5,2.7,1.6,5.4,1.9,8c0.3,2.6,1.1,2.9,2.4,3.5C22.3,35.2,22.1,35.2,23.1,32.2z"/>
	<g>
		<path id="XMLID_30_" class="st11" d="M50.6,10.2c-0.8-1.1-4.2-5-4.9-5.6c-0.2-0.2-0.9-0.9-0.7-1.1c0.2-0.2,1.1,0.4,1.4,0.6
			c1.1,0.8,4.7,3.9,5.4,5.3c0.5,1,0.3,1-0.2,1.1C51.1,10.6,51,10.7,50.6,10.2z"/>
		<path id="XMLID_29_" class="st11" d="M24.9,18c-0.1-1.2-0.5-4.6-0.2-5.9c0.1-0.3,0.6-2.1,0.8-1.8c0.3,0.4,0.3,1.4,0.2,1.7
			c-0.1,1.1,0.2,4,0.5,5.3c0.3,2,0.4,2-0.4,2.4C25.2,20.2,25.1,19.7,24.9,18z"/>
		<path id="XMLID_28_" class="st11" d="M40.4,10.8c-0.8-1.6-3.8-4.9-4.3-5.4c-0.3-0.3-1-0.9-0.8-1.2c0.2-0.3,1.3,0.5,1.6,0.8
			c1.1,1,2.1,1.4,4.8,5.2c0.3,0.4,0.9,1.2,1,1.4c0.2,0.3,0.7,1,0.6,1.2c-0.2,0.4-0.7,0.5-1.1,0.5C41.8,13.1,41.2,12.3,40.4,10.8z"/>
	</g>
	<path id="XMLID_27_" class="st8" d="M27,35.7c-0.1-0.1,0.1-0.6,0.2-0.9c0.9-2,3.2-4.9,4.3-5.4c0.7-0.3,1.1-0.4,1.5-0.4
		c0.4,0,0.6,0.2,0.9,0.4c0.5,0.4,0.2,0.7-0.2,0.7c-0.7,0.1-1.8,0.4-2.7,1.1c-0.7,0.5-2.4,2.3-3,3.2C27.7,34.9,27.3,35.9,27,35.7z"/>
	<path id="XMLID_26_" class="st8" d="M56.7,23.3c0-0.1-0.5-0.3-0.8-0.4c-2.1-0.5-6.3-0.2-7.4,0.4c-0.7,0.4-1.2,0.9-1.4,1.2
		c-0.2,0.3-0.2,0.7-0.2,1c0,0.6,0.4,0.5,0.7,0.2c0.5-0.5,1.6-1.3,2.7-1.7c0.8-0.3,3.2-0.6,4.4-0.6C55.2,23.4,56.7,23.6,56.7,23.3z"
		/>
	<g>
		<path id="XMLID_25_" d="M37.4,36.6c0,0.9-0.5,1.2-1.3,1.3c-1.1,0.2-1.7-0.9-1.7-1.8c0-0.9,0.7-1.5,1.6-1.5
			C36.8,34.7,37.4,35.7,37.4,36.6z"/>
		<path id="XMLID_24_" d="M29.3,38.5c0.1-0.7,0.6-1.8,1.1-2.3c0.5-0.6,2.3-1.8,3.6-2.1c1.4-0.2,2.4,0,2.6,0.1
			c0.2,0.1,0.6,0.6,0.5,0.7c-0.1,0.1,0,0.4-0.5,0.2c-0.5-0.2-2.3,0-3.2,0.3c-0.8,0.3-2.3,1.2-2.6,1.6c-0.3,0.4-0.8,1.2-0.9,1.5
			C29.8,38.7,29.2,39,29.3,38.5z"/>
	</g>
	<g>
		<path id="XMLID_23_" d="M54.8,30.2c0.7,0.5,1.3,0.4,1.9-0.2c0.8-0.8,0.3-1.9-0.4-2.4c-0.7-0.5-1.7-0.4-2.2,0.3
			C53.6,28.6,54.1,29.7,54.8,30.2z"/>
		<path id="XMLID_22_" d="M48.7,30.9c0.1-0.7,0.6-1.8,1.1-2.3c0.5-0.6,2.3-1.8,3.6-2.1c1.4-0.2,2.4,0,2.6,0.1
			c0.2,0.1,0.6,0.6,0.5,0.7c-0.1,0.2,0,0.4-0.5,0.2c-0.5-0.1-2.3,0-3.2,0.3c-0.8,0.3-2.3,1.2-2.6,1.6c-0.3,0.4-0.8,1.2-0.9,1.5
			C49.2,31.1,48.6,31.4,48.7,30.9z"/>
	</g>
	<g>
		<path id="XMLID_21_" class="st8" d="M44.7,44.4c-0.2,0.1-0.1,0.4-0.3,1.4c-0.2,1-0.2,1.4,0.2,1.6c0.5,0.2,1-0.3,0.9-0.9
			c-0.1-0.6,0.2-1.6,0.1-1.8C45.3,44.5,45.1,44,44.7,44.4z"/>
		<path id="XMLID_20_" class="st8" d="M42,45.5c-0.2,0.1-0.1,0.4-0.2,1.4c-0.1,1-0.1,1.4,0.3,1.5c0.5,0.1,0.9-0.3,0.8-0.9
			c-0.1-0.6,0.1-1.6-0.1-1.8C42.7,45.6,42.5,45,42,45.5z"/>
		<path id="XMLID_19_" class="st8" d="M43.2,45.7c-0.1,0.2-0.1,0.4-0.1,1.6c0,1.1,0,1.5,0.4,1.6c0.6,0.2,0.9-0.4,0.7-1
			c-0.2-0.6,0-1.7-0.2-1.9C43.9,45.7,43.6,45.2,43.2,45.7z"/>
		<path id="XMLID_18_" class="st8" d="M54.4,40.2c0,0.2,0.2,0.4,0.7,1.2c0.5,0.8,0.7,1.1,1.2,0.9c0.5-0.2,0.6-0.9,0.1-1.2
			c-0.5-0.4-0.9-1.2-1.1-1.3C55,39.8,54.4,39.6,54.4,40.2z"/>
		<path id="XMLID_17_" class="st8" d="M52.1,41.1c0.2,0,0.4,0.2,1.3,0.9c0.9,0.7,1.1,0.9,1,1.4c-0.2,0.5-0.9,0.5-1.3-0.1
			c-0.4-0.5-1.3-1.1-1.3-1.4C51.7,41.7,51.5,41.1,52.1,41.1z"/>
		<path id="XMLID_16_" class="st8" d="M46.3,44.1c-0.1,0.2-0.5,1.8-0.5,2.2c0,0.4,0.1,0.6,0.6,0.6c0.4,0,0.5-0.1,0.7-0.8
			c0.2-0.7,0.3-2,0.2-2.3c-0.1-0.3-0.6-0.4-0.7-0.4C46.4,43.7,46.4,43.8,46.3,44.1z"/>
		<path id="XMLID_15_" class="st8" d="M48.9,43.2c0.1,0.1,1,1,1.3,1.2c0.3,0.1,0.5,0.1,0.7-0.3c0.2-0.3,0.2-0.5-0.2-0.9
			c-0.4-0.4-1.2-1-1.5-1c-0.3,0-0.6,0.3-0.6,0.5C48.7,43,48.7,43,48.9,43.2z"/>
		<path id="XMLID_14_" class="st8" d="M47.5,43.6c0,0.2,0.3,1.4,0.4,1.7c0.2,0.3,0.3,0.4,0.7,0.1c0.3-0.2,0.4-0.3,0.3-0.9
			c-0.1-0.6-0.5-1.5-0.7-1.6c-0.2-0.1-0.7,0-0.7,0.1C47.4,43.2,47.5,43.3,47.5,43.6z"/>
		<path id="XMLID_13_" class="st8" d="M52.9,41.2c0.1,0.1,1.2,1,1.6,1.1c0.3,0.1,0.5,0.1,0.7-0.3c0.1-0.4,0.2-0.5-0.3-0.9
			c-0.5-0.4-1.4-0.9-1.7-0.9c-0.3,0-0.6,0.4-0.5,0.5C52.6,40.9,52.6,41,52.9,41.2z"/>
		<path id="XMLID_12_" class="st8" d="M55.2,39.8c0.1,0.1,1,0.9,1.3,1c0.3,0.1,0.5,0.1,0.6-0.4c0.1-0.4,0.2-0.5-0.3-0.9
			c-0.4-0.4-1.2-0.8-1.5-0.8c-0.3,0-0.5,0.4-0.5,0.5C55,39.6,55,39.6,55.2,39.8z"/>
		<path id="XMLID_11_" class="st8" d="M51,41.9c0.2,0.1,1.4,0.9,1.7,1.2c0.2,0.3,0.3,0.5-0.1,0.8c-0.3,0.2-0.4,0.3-1,0
			c-0.6-0.4-1.4-1.1-1.5-1.4c-0.1-0.3,0.2-0.7,0.3-0.7C50.6,41.7,50.7,41.7,51,41.9z"/>
	</g>
	<g>
		<path id="XMLID_10_" class="st8" d="M48.3,54.5c-0.1,0.2-0.1,0.4-0.1,1.5c-0.1,1,0,1.4,0.4,1.5c0.5,0.2,0.9-0.4,0.7-1
			c-0.2-0.6,0-1.6-0.2-1.8C49,54.5,48.7,54,48.3,54.5z"/>
		<path id="XMLID_9_" class="st8" d="M49.6,54.7c-0.1,0.1-0.1,0.4-0.2,1.3c-0.1,0.9,0,1.1,0.4,1.3c0.5,0.2,0.9-0.4,0.7-0.9
			c-0.1-0.5,0-1.4-0.2-1.6C50.3,54.8,50,54.3,49.6,54.7z"/>
		<path id="XMLID_8_" class="st8" d="M50.8,54.5c-0.1,0.2,0,0.5,0.1,1.6c0.1,1.1,0.2,1.4,0.7,1.6c0.5,0.1,0.9-0.5,0.6-1.1
			c-0.2-0.6-0.2-1.7-0.4-1.8C51.5,54.5,51.2,54,50.8,54.5z"/>
		<path id="XMLID_7_" class="st8" d="M56.5,51.2c0.2,0,0.4,0.2,1.3,0.9c0.9,0.7,1.1,0.9,1,1.4c-0.2,0.5-0.9,0.5-1.3-0.1
			c-0.4-0.5-1.3-1.1-1.3-1.4C56.1,51.8,55.8,51.3,56.5,51.2z"/>
		<path id="XMLID_6_" class="st8" d="M53.8,53.2c0.2,0.1,0.4,0.4,1.1,1.5c0.7,1.1,0.9,1.4,0.6,1.8c-0.3,0.4-1.2,0-1.4-0.7
			c-0.2-0.7-1-1.7-1-1.9C53.1,53.6,53.1,52.9,53.8,53.2z"/>
		<path id="XMLID_5_" class="st8" d="M55.5,51.7c0.2,0,0.4,0.3,1.2,1c0.8,0.7,1,1,0.8,1.5c-0.2,0.4-1,0.4-1.3-0.2
			c-0.3-0.6-1.2-1.2-1.2-1.5C55,52.2,54.9,51.6,55.5,51.7z"/>
		<path id="XMLID_4_" class="st8" d="M47.3,54.8c-0.1,0.1-0.1,0.3-0.2,1.2c-0.1,0.8-0.1,1.1,0.4,1.2c0.5,0.2,0.9-0.3,0.8-0.8
			c-0.1-0.5,0-1.3-0.1-1.4C48,54.8,47.7,54.4,47.3,54.8z"/>
		<path id="XMLID_3_" class="st8" d="M57.4,50.9c0.1,0.1,0.9,1.2,1.2,1.3c0.3,0.2,0.5,0.2,0.7-0.2c0.2-0.3,0.2-0.5-0.1-0.9
			C58.8,50.6,58,50,57.7,50c-0.3,0-0.6,0.3-0.6,0.4C57.1,50.6,57.2,50.7,57.4,50.9z"/>
		<path id="XMLID_2_" class="st8" d="M54.3,53.8c0.1,0.2,1.2,1.4,1.5,1.6c0.3,0.2,0.5,0.2,0.7-0.2c0.2-0.3,0.3-0.3-0.1-0.9
			c-0.5-0.6-1.4-1.4-1.7-1.5c-0.3-0.1-0.7,0.2-0.7,0.4C54,53.5,54.1,53.5,54.3,53.8z"/>
		<path id="XMLID_1_" class="st8" d="M52.2,54.5c-0.1,0.3-0.1,0.7-0.1,1.1c0,0.6,0.1,1.1,0.2,1.3c0.1,0.3,0.2,0.5,0.6,0.4
			c0.4-0.1,0.7-0.3,0.6-0.8c-0.1-0.5-0.1-1.1-0.2-1.7c-0.2-0.7-0.3-1.1-0.6-1.1C52.3,53.8,52.3,53.9,52.2,54.5z"/>
	</g>
</g>
</svg>
