<?xml version="1.0" encoding="utf-8"?>
<!-- Generator: Adobe Illustrator 19.0.0, SVG Export Plug-In . SVG Version: 6.00 Build 0)  -->
<svg version="1.1" id="レイヤー_1" xmlns="http://www.w3.org/2000/svg" xmlns:xlink="http://www.w3.org/1999/xlink" x="0px"
	 y="0px" viewBox="0 0 57 163" style="enable-background:new 0 0 57 163;" xml:space="preserve">
<style type="text/css">
	.st0{fill:#005892;}
	.st1{fill:url(#XMLID_27_);}
	.st2{fill:url(#XMLID_28_);}
	.st3{fill:#542F1D;}
	.st4{fill:url(#XMLID_29_);}
	.st5{fill:#F8D6C0;}
	.st6{fill:#DC0045;}
	.st7{fill:#666464;}
	.st8{fill:#FFFFFF;}
</style>
<g id="XMLID_125_">
	<path id="XMLID_153_" class="st0" d="M24.3,54.9c-2-0.7-5.7-3.3-10.8,1.1c-5.3,4.6-7.6,8-9.5,11.1c3.4,4.1,21.3,9.5,27.4,9.2
		c6.1-0.4,11.8-3.6,13.4-4.6c-2.4-10.2-4.9-13-6.4-14.8C37.8,56.2,36.2,55,35,55c-2.6-0.1-3.4,0.5-6.4,0.8
		C26.5,56,25.7,55.4,24.3,54.9z"/>
	<linearGradient id="XMLID_27_" gradientUnits="userSpaceOnUse" x1="52.6249" y1="40.5609" x2="50.9255" y2="36.5738">
		<stop  offset="0" style="stop-color:#FBDCCB"/>
		<stop  offset="1" style="stop-color:#FAC5A0"/>
	</linearGradient>
	<path id="XMLID_152_" class="st1" d="M50.8,30.7c1.6-2.6,3.7-2.5,4.3,0c0.6,2.5-3,9.4-4.7,10.2c-1.7,0.8-2.6,1.2-4,1"/>
	<linearGradient id="XMLID_28_" gradientUnits="userSpaceOnUse" x1="12.8521" y1="39.5162" x2="10.3893" y2="33.7381">
		<stop  offset="0" style="stop-color:#FBDCCB"/>
		<stop  offset="1" style="stop-color:#FAC5A0"/>
	</linearGradient>
	<path id="XMLID_151_" class="st2" d="M11.2,27.2c-0.7-2.9-2.7-3.6-4.1-1.4c-1.4,2.2-0.3,9.8,1,11.1c1.3,1.3,2.1,2,3.5,2.3"/>
	<path id="XMLID_150_" class="st3" d="M8.8,144.4c-1.5,2.1-6.3,8.2-7.6,10c-1.3,1.8-2.3,3.1,0.8,4.9c3.1,1.8,8.6,1,11.8-1.4
		c3.9-2.9,5.6-3.8,6.1-5.3c0.7-1.7,1.6-3.3,0.9-6.2C16.7,146.9,11.1,145.1,8.8,144.4z"/>
	<path id="XMLID_149_" d="M8.8,98.7c-0.5,6-0.6,17.3-1,22.7c-0.4,5.4-1.6,25-1.6,25c2.7,2.2,12.9,5.4,15.6,3.7
		c1.3-15.9,2.2-24.9,2.5-28.9c0.2-3.9,2.5-15.8,3.2-23"/>
	<path id="XMLID_148_" class="st3" d="M46.6,147.4c1.8,1.9,7.3,7.3,8.8,8.9c1.5,1.6,2.7,2.8-0.2,5c-2.8,2.2-8.3,2.1-11.9,0.1
		c-4.2-2.4-6.1-3-6.7-4.5c-0.9-1.6-2-3-1.7-6C39.1,150.9,44.5,148.5,46.6,147.4z"/>
	<path id="XMLID_147_" d="M40.8,102.1c1.3,5.9,2.8,17,3.9,22.4c1.1,5.3,4.9,24.6,4.9,24.6c-2.4,2.5-12.1,7.1-15,5.7
		c-3.3-15.6-5.4-24.4-6.2-28.3c-0.7-3.9-4.5-15.3-6.1-22.4"/>
	<path id="XMLID_146_" class="st0" d="M38.2,61.2c1.2,4,2.8,11,3.2,18.3c0.4,6.5,1.4,15.8,2.2,28.3c-1.3,1.1-10.5,2-17.5,2.4
		c-7,0.4-16.1-3.6-18.9-5.4c0-3.3,1.9-15.2,2.4-20.6c0.5-5.4,3.5-16.1,4.3-23.6c0.2-1.8,5.7-2.4,7.5-2.2
		C23.2,58.6,36.9,56.8,38.2,61.2z"/>
	<linearGradient id="XMLID_29_" gradientUnits="userSpaceOnUse" x1="28.6092" y1="59.6593" x2="26.9871" y2="55.6042">
		<stop  offset="0" style="stop-color:#FBDCCB"/>
		<stop  offset="1" style="stop-color:#FAC5A0"/>
	</linearGradient>
	<path id="XMLID_145_" class="st4" d="M31.7,52.2c-0.2,1.5-0.2,3.3-0.1,3.8c0,1.1,0.1,2.7,0.8,3.6c-0.5,1.1-3.1,1.9-4.2,2.1
		c-2.1,0.4-5.7-2-6.2-3.8c1-0.4,1.8-1.2,2.4-2.2c0.4-1.6,0.5-2.5,0.6-3.2C26.3,52.8,30.9,52.9,31.7,52.2z"/>
	<g id="XMLID_142_">
		<path id="XMLID_144_" class="st5" d="M21,65.8c2.6-4.7,4.7-3.7,7.6-2.7c2.9,1,4.7,4.4,4.8,5.9c0.1,1.5,0,3.7,0,3.7
			s-1.9,2.7-6.7,0.2C21.8,70.4,21.6,67.6,21,65.8z"/>
		<path id="XMLID_143_" class="st0" d="M5.5,64.7c-1.2,1.7-4.9,7.3-5.2,9.7C-0.1,76.8,0,81.8,3.3,84c2.9,1.8,4.6,3.3,9.2,0.6
			c4.6-2.7,7.8-4.4,10.2-6.5c2.4-2.1,4.1-3.5,5.4-5c-1.9-4.2-4.3-8.8-5.9-9.9c-5.2,2-11.1,5.8-11.1,5.8C9.1,67.4,5.5,64.7,5.5,64.7z
			"/>
	</g>
	<path id="XMLID_141_" class="st0" d="M44.1,69.1c0.6,2,1.8,7.7,1.8,10.1c0,2.1-1.1,6.7-5.9,8.8c-3.7,1.7-4.9,2.5-10.4-0.8
		c-4.7-2.8-6.3-3.9-8.8-5.9c-2.4-1.9-4.2-3.2-5.9-4.9c2.9-3.5,7-8.8,8.9-9.4c5.2,3.5,9.8,4.9,9.8,4.9C35.8,71,44.1,69.1,44.1,69.1z"
		/>
	<path id="XMLID_140_" class="st5" d="M9.1,24.5c0.8,4,0.7,8.3,0.8,10.6c0.1,2.3,1.9,10.6,4.7,13.3c2.9,2.7,2.1,2.7,6.1,5.3
		c2.8,1.8,6.7,4,10.7,2.1c2.8-1.3,8.3-3.3,11.9-7.3c3.3-3.7,5.6-7.6,7.4-14.1c1.5-5.4,2.9-7.5,2.9-11.8c0-4.5,0.9-11.6-6.1-17.4
		c-6.9-5.8-19.2-5.9-25.3-3.6c-6.7,2.5-10,6.5-11.4,10.4C9.4,15.7,8.6,22.1,9.1,24.5z"/>
	<path id="XMLID_139_" d="M20.2,36.2c-0.2,0-0.5-0.1-0.6-0.4c-0.5-1.3-1.3-2-2.2-2.2c-1.1-0.2-2.3,0.5-2.8,1.1
		C14.4,35,14,35,13.8,34.8c-0.3-0.2-0.3-0.6-0.1-0.9c0.6-0.7,2.2-1.8,3.9-1.5c1,0.1,2.3,0.8,3.2,2.9c0.1,0.3,0,0.7-0.3,0.8
		C20.4,36.2,20.3,36.2,20.2,36.2L20.2,36.2z"/>
	<path id="XMLID_138_" d="M41.4,38.4c-0.2,0-0.5-0.1-0.6-0.4c-0.5-1.3-1.3-2-2.2-2.2c-1.1-0.2-2.3,0.5-2.8,1.1
		c-0.2,0.3-0.6,0.3-0.9,0.1c-0.3-0.2-0.3-0.6-0.1-0.9c0.6-0.7,2.2-1.8,3.9-1.5c1,0.1,2.3,0.8,3.2,2.9c0.1,0.3,0,0.7-0.3,0.8
		C41.6,38.4,41.5,38.4,41.4,38.4L41.4,38.4z"/>
	<path id="XMLID_137_" class="st6" d="M33.2,48.3c-2.5-1.3-9.9-1.7-12-1.7C23.8,50.3,29,51.1,33.2,48.3z"/>
	<path id="XMLID_134_" d="M18.8,40.9L18.8,40.9c-2.4,0-4.6-0.3-6.1-0.9c-2.2-0.8-3.6-1.4-3.9-3.6c-0.3-2.4-0.3-5.8,0.1-7.5
		c0.4-1.5,2.6-2.3,4.5-2.3c2.6-0.1,4.8,0,7.2,0.5c2.5,0.5,4.9,2.2,4.9,4.9c0,2.2-0.2,3.1-0.5,4.6l0,0.3
		C24.2,40.5,21.1,40.9,18.8,40.9L18.8,40.9z M14.9,27.8c-0.5,0-0.9,0-1.5,0c-1.7,0.1-3.2,0.7-3.4,1.4c-0.3,1.3-0.4,4.4-0.1,7
		c0.2,1.4,0.8,1.8,3.1,2.6c1.4,0.5,3.4,0.8,5.6,0.8l0,0.6v-0.6c3.1,0,4.5-0.9,4.9-3l0-0.3c0.3-1.5,0.4-2.4,0.5-4.4
		c0-2-1.9-3.3-3.9-3.7C18.5,28,16.7,27.8,14.9,27.8L14.9,27.8z"/>
	<path id="XMLID_131_" d="M39.9,43.7c-2.6,0-4.6-0.5-7.3-1.7c-1.1-0.5-3.8-1.7-3.3-5.2c0-0.3,0.1-0.7,0.1-1c0.1-1.3,0.3-2.5,0.8-4.2
		c0.7-2.6,2.5-2.9,4.4-2.9c0.3,0,0.6,0,0.9,0c3.1,0.2,5.9,0.7,7.8,1.5c1.3,0.6,4.4,1.9,3.9,4.8L47,35.7c-0.2,1.4-0.6,3.5-1.5,5.6
		C44.8,42.9,42.9,43.7,39.9,43.7L39.9,43.7z M34.5,30c-2,0-2.8,0.5-3.2,2c-0.5,1.7-0.6,2.8-0.7,4c0,0.3-0.1,0.7-0.1,1
		c-0.3,2.2,0.9,3.2,2.6,4c2.5,1.1,4.4,1.6,6.8,1.6c2.5,0,4-0.6,4.5-1.8c0.9-1.9,1.2-4,1.4-5.3l0.1-0.6c0.2-1.4-0.7-2.4-3.2-3.5
		c-1.7-0.7-4.4-1.2-7.4-1.4C35.1,30,34.8,30,34.5,30L34.5,30z"/>
	<path id="XMLID_130_" class="st7" d="M47.5,5c-6.9-5.8-19.2-5.9-25.4-3.6c-6.7,2.5-10.1,6.5-11.5,10.4c-0.7,2.1-1.4,5.3-1.5,7.4
		c1.8-6.9,4.3-10.1,6.6-11.1c2.5-1.1,5.5-0.2,11.4,0.8c5.9,0.9,14.7,0.7,18.1,3.1c1.1,0.8,3.2,4.7,3.2,8.6c0,3.9,0.6,6.5,0.6,7.7
		c0,0.7,0.9,1.2,1.4,1.3c0.5,0.1,0.7,1.4,1,2.2c1.2-3.1,2.2-6.2,2.2-9.5C53.6,17.9,54.4,10.9,47.5,5z"/>
	<path id="XMLID_129_" d="M11.9,25.5c1.2-0.4,6.8-1.6,10.2,0.1c-0.1-0.9-2.5-1.5-5.5-1.7c-3-0.2-5.1,0.4-5.5,0.9
		C10.7,25.3,11.5,25.6,11.9,25.5z"/>
	<path id="XMLID_128_" d="M44.9,29.3c-1.1-0.6-6.3-3.1-9.9-2.3c0-1,2.5-1,5.5-0.6c3,0.5,5.1,1.8,5.4,2.3
		C46.1,29.4,45.3,29.5,44.9,29.3z"/>
	<path id="XMLID_127_" d="M29.5,34.6c-0.3-0.3-2.4-0.9-3.7-0.6c-0.2,0.1-0.5,0.2-0.5,0.3L24.1,34c0.1-0.5,0.6-1.3,2.4-1.3
		c1.2,0,3.8,0.5,4.1,1.5L29.5,34.6C29.5,34.6,29.5,34.6,29.5,34.6L29.5,34.6z"/>
	<path id="XMLID_126_" class="st8" d="M27.4,48.6c2.2,0.2,4.3,0,5.4-0.5c-2.3-1-8.8-1.6-11.2-1.5C22.4,47.5,24.7,48.4,27.4,48.6z"/>
</g>
</svg>
