<?xml version="1.0" encoding="utf-8"?>
<!-- Generator: Adobe Illustrator 19.0.0, SVG Export Plug-In . SVG Version: 6.00 Build 0)  -->
<svg version="1.1" id="レイヤー_1" xmlns="http://www.w3.org/2000/svg" xmlns:xlink="http://www.w3.org/1999/xlink" x="0px"
	 y="0px" viewBox="0 0 78 146" style="enable-background:new 0 0 78 146;" xml:space="preserve">
<style type="text/css">
	.st0{fill:#683500;}
	.st1{fill:#FCE3CA;}
	.st2{fill:#4E210A;}
	.st3{fill:#572F0A;}
	.st4{fill:#F4AEB2;}
	.st5{fill:#FFFFFF;}
	.st6{fill:url(#XMLID_27_);}
	.st7{fill:#FFE249;}
	.st8{fill:#FFFAC4;}
	.st9{fill:#A43F00;}
	.st10{fill:#EA551C;}
	.st11{fill:#231815;}
	.st12{fill:#F7B65D;}
	.st13{fill:#B77F30;}
</style>
<g id="XMLID_88_">
	<path id="XMLID_124_" class="st0" d="M77.9,46.3c1.3-6.4-6.7-13.3-10.3-16.8C64,26.1,54.2,10.5,47.1,3.9
		c-7.1-6.6-21.8-3.3-25.8-0.6c-12.5,8.4,7.2,40.6,12.9,48c10.3,13.5,22,12.1,29.7,10.6c6.2-2.7,5.3-10.2,4.2-14.6
		c2.1,3.4,2.6,6.7,2.3,8.5c3.3-2.7,2.6-7.4,1-10.9c1.7,2.1,2.8,4.6,3.3,5.9c3.1-4.9-1.8-11.1-5.3-14.8
		C73.9,39.4,76.5,43.8,77.9,46.3z"/>
	<path id="XMLID_123_" class="st0" d="M47.1,44.7c-1.4-9.2-9.8-43.4-24.8-42.1C17,3,4.3,15.6,3.9,25.4C3.3,39.5,8.1,45.4,8.1,50.4
		c0,5-2.1,16.2,3.4,19.7c-0.8-2.4-0.7-6.4,0.4-10.8c0.4,4.7,1.6,12.7,7.6,13.5c-0.7-1.1-1.8-3.8-2.1-6.4c1.4,4,5,8.8,9.9,7.8
		c-1.7-1-4.2-4-5.4-8.3c2.4,3.8,7.6,9.8,14,7.2C41,69.5,49.7,62,47.1,44.7z"/>
	<g id="XMLID_120_">
		<path id="XMLID_122_" class="st1" d="M45.9,108.3c-0.4,1.9-2,15.5-2.3,16.7c-1.6,1.5-10.3,2.4-10.7,1.5c0.4-4,1.1-20.1,1.3-22.3
			C36.4,105.8,42.8,108.3,45.9,108.3z"/>
		<path id="XMLID_121_" class="st2" d="M44.1,127.1c-0.3-3,0.1-4.5,0.4-6c-1.1,0.5-8.7,3-11.7,1.3c-0.2,2.5-0.5,5.9-0.7,6.8
			c-0.8,4-0.7,6.2-2.8,7.9c-2,1.7-2.7,5.1-1.6,6.1c1.1,1,6.3,3.4,9.2,1.1c2.4-1.9,6.4-4.9,7.5-7.2c0.8-1.6,0.9-4.1,0.3-6
			C44.5,130.1,44.2,128.9,44.1,127.1z"/>
	</g>
	<g id="XMLID_117_">
		<path id="XMLID_119_" class="st1" d="M59.9,109.1c-0.4,1.9-2,15.5-2.3,16.7c-1.6,1.5-10.3,2.4-10.7,1.5c0.4-4,1.1-20.1,1.3-22.3
			C50.5,106.6,56.8,109.1,59.9,109.1z"/>
		<path id="XMLID_118_" class="st2" d="M58.1,127.9c-0.3-3,0.1-4.5,0.4-6c-1.1,0.5-8.7,3-11.7,1.3c-0.2,2.5-0.5,5.9-0.7,6.8
			c-0.8,4-0.7,6.2-2.8,7.9c-2,1.7-2.7,5.1-1.6,6.1c1.1,1,6.3,3.4,9.2,1.1c2.4-1.9,6.4-4.9,7.5-7.2c0.8-1.6,0.9-4.1,0.3-6
			C58.6,130.9,58.2,129.7,58.1,127.9z"/>
	</g>
	<path id="XMLID_116_" class="st3" d="M62.1,77.8c2.3,2.7,12.2,25,13.7,30.2c0.3,1.1-0.8,2.1-1.8,2.9c-1.1,0.8-2,0.3-2.7,2.4
		c-0.8,2.1-1.5,2.9-5.1,3.8c-3.6,0.9-3.2,3.5-7.4,2.6s-3-2.9-5.9-1.7c-2.9,1.2-4.1,3.2-7.4,1.7c-3.3-1.5-2.6-3-5.9-2.1
		c-3.3,0.9-1.8-0.6-4.5-1.7c-2.7-1.1-3.6,1.4-6.3-0.3c-2.7-1.7-2.4-0.8-1.8-4.5c0.6-3.8,3.8-16.4,4.8-20.2
		c1.1-3.8,3.8-10.9,5.4-13.6C39,74.5,62.1,77.8,62.1,77.8z"/>
	<path id="XMLID_115_" class="st4" d="M34.3,56.7c-1.2,1.2-6,7.4-8.3,10.9c-2.3,3.5,3.3,15.5,3.9,16.4c0.6,0.9,6.6,2.3,8.7,0.5
		c2.1-1.8,5.7-16.9,5.3-19c-0.4-2.1-2.1-10.6-3.3-11.2C39.4,53.7,37.5,53.7,34.3,56.7z"/>
	<path id="XMLID_114_" class="st5" d="M47.7,50.5c2.5,0.3,7.4,2,8.9,3.3c1.5,1.4,7.7,14.5,8,16.1c0.3,1.7,1.5,8.4-1.8,10.3
		c-3.3,1.8-17.1,8.1-21,6.8c-3.9-1.4-8.3-10.9-8.7-12.1c-0.4-1.2,1.1-14,2-16.3c0.9-2.3,5.9-7.8,7.2-8C43.5,50.5,45,50.2,47.7,50.5z
		"/>
	<linearGradient id="XMLID_27_" gradientUnits="userSpaceOnUse" x1="45.5733" y1="61.0728" x2="43.5032" y2="55.8975">
		<stop  offset="0" style="stop-color:#FBDCCB"/>
		<stop  offset="1" style="stop-color:#FAC5A0"/>
	</linearGradient>
	<path id="XMLID_113_" class="st6" d="M46.1,49.9c0.4,1.4,1,3.2,1.3,3.6c0.4,1,1.1,2.5,2.1,3c0.8,1.3,0.9,4.4-1.4,6.2
		c-7,2.3-8.5-1.3-8.8-3.8c0.8-0.7,1.2-1.8,1.4-2.9c-0.2-1.6-0.5-2.5-0.7-3.2C41.3,52.5,45.6,50.8,46.1,49.9z"/>
	<path id="XMLID_112_" class="st5" d="M39,57c0.6,1.5,3.3,3,5.7,1.8c2.4-1.2,4.2-2.7,5.1-4.5c2.1,2.1,2.7,14.2-1.2,14.8
		c-3.9,0.6-11.7,0.3-12.3-3.6C35.6,61.6,38.1,59.4,39,57z"/>
	<path id="XMLID_111_" class="st0" d="M9.6,22.9c-0.6,3,1.2,8.2,2.8,8.2c1.6,0,4-1.2,4.8-3.8c0.8-2.6,5.2-6.4,5.2-6.4
		c2.4-0.6,7.4-2.4,9.2-2.6c1.8-0.2,4.2-0.8,7.4-2c3.2-1.2,7.4-2.2,3.8-5.6c-3.6-3.4-17.4-1.2-21-0.2C18.2,11.5,11,16.5,9.6,22.9z"/>
	<path id="XMLID_110_" class="st7" d="M49.8,91.7c2.8,1.8,7.8,6.7,10.3,9.5c2.5,2.9,3.3,6.3,1.1,7c-2.2,0.6-8.1-3.3-9.8-7.1
		c3.3,4.9,3.8,8.9,1.7,9.4c-3.1-2.4-5.4-4.7-5.4-8.9"/>
	<path id="XMLID_109_" class="st7" d="M45.8,101.1c-0.5,2.3-0.9,4.8-0.1,6.7c0.8,1.8,3.7,3.2,3.8-2.8c0.1-3.9-0.8-4.7-1.3-6.1"/>
	<path id="XMLID_108_" class="st8" d="M9.8,85c-0.4,1.2-3,13,1.7,17.4c4.7,4.4,11.6,7.6,18.6,7.4c7-0.1,17-4.9,18.9-9.1
		c1.9-4.2,3.6-11-0.2-15.9C45,79.9,26,75,21.4,75.8C16.8,76.6,12.2,77.3,9.8,85z"/>
	<path id="XMLID_107_" class="st1" d="M53.9,95.8c0,2,0.1,3.9-0.1,4.5c-0.4,1-1.7,0.5-2,0.1c-0.3-0.4-0.3-0.7-0.4-1.3
		c-0.1-0.7-0.1-1.5-0.1-1.5c-0.7,2-2.2,3.9-3.1,3.3c-0.9-0.5-0.4-1.1-0.4-1.5c0.1-0.9,1-2.2,1-2.2C48,97.9,45.6,99,45,98.1
		c-0.5-0.9,1-1.9,2.1-2.8c-0.6,0.1-1.9,0.5-3,0.3c-0.7-0.1-1.7-1-0.4-1.6c1.2-0.6,2.1-0.7,2.9-1.1c-1.6,0.2-2.9,0.4-3.1-0.6
		c-0.2-1,2.7-1.7,4.4-2.1c1.6-0.3,2.2-1,2.2-1c1,1.3,3.8,4.3,4.5,4.3C54.5,93.5,53.8,95.1,53.9,95.8z"/>
	<path id="XMLID_106_" class="st5" d="M55,52.9c3.3,2.3,8.5,10.1,11.3,13.9c2.8,3.8,2.8,8.8,1.4,12.6c-0.7,1.8-7.1,11.3-11.1,15.8
		c-2.4,0.4-8.8-5-9.3-5.8c2.6-3.3,7.5-11,9.6-15.2c-1.2-1.1-3.9-4.8-5-5.9c-1.1-1.1-2.4-3.2-2.4-3.2C51.6,61.6,55,52.9,55,52.9z"/>
	<path id="XMLID_105_" class="st1" d="M47.6,52.2c6.1-6.4,7.3-9.3,7.6-13c0.3-3.7-2.8-15.1-4.3-19C48.7,14.5,46.1,6,35.5,7
		c-5,0.5-9.7,1.3-12.3,2.4c-2.4,1-4.9,2.6-10.2,7.3c-8,7-4.2,15.3-1.6,20.8c1.8,3.8,8.4,13.4,11.3,15.7c2.9,2.3,6,3.4,14.8,3
		C41.2,56.2,45.3,54.7,47.6,52.2z"/>
	<path id="XMLID_104_" d="M25.7,43.5c0.4,1-0.1,2-1,2.4c-0.9,0.4-2-0.1-2.4-1c-0.4-1,0.1-2,1-2.4C24.3,42.1,25.4,42.5,25.7,43.5z"/>
	<path id="XMLID_103_" d="M47.2,35c0.4,1-0.1,2.2-1.1,2.6c-1,0.4-2.2-0.1-2.6-1.1c-0.4-1,0.1-2.2,1.1-2.6
		C45.6,33.4,46.8,33.9,47.2,35z"/>
	<path id="XMLID_102_" class="st9" d="M37.5,52.3c-0.3,0-0.7-0.1-1.1-0.6c-0.2-0.2-0.6-0.6-0.4-0.9c0.2-0.2,0.5-0.2,0.7,0
		c0.4,0.6,1,0.5,2.6,0c1.4-0.4,3.7-1.4,3.6-3.3c0-0.3,0.2-0.6,0.4-0.7c0.3-0.1,0.3,0.7,0.2,1.1c-0.3,2.1-1,3.2-4,4.1
		c-1,0.3-0.6,0.4-1.3,0.2L37.5,52.3z"/>
	<path id="XMLID_101_" class="st0" d="M54.8,28.2c-0.4-5.7-5.1-19.3-11.4-21.5c-4.9-1.7-13.4-1.8-24,3.1C8.9,14.7,6.8,24,6.4,28.4
		c-0.4,4.4,6.4,16,8.7,17.6c-0.3-0.8-0.6-2.2-1-3.7c1.2,1.8,2.5,3.1,3.9,3.5c-2.1-3-2.1-7.4-1.6-11c1.4,2.9,3.6,5.6,6.4,6.3
		c-1.1-1.9-2.4-9.1-1.9-15.2c2,5,6.1,10.8,11,7.9c-1.2-0.9-3.6-5.8-4-10.9c2.2,4,7,9.9,13.7,7.9c-2.1-0.6-4.3-4-5.8-7.5
		c2.7,3.2,6.8,6.3,11.5,5.5c-2.1-1.7-5-6-5.8-10.4C43.7,22.4,48.6,29,54.8,28.2z"/>
	<path id="XMLID_100_" class="st0" d="M49.8,22.3c0.6,4.8,3.2,18.9,6.6,24.9c3.5,6,4.1,13.9,3.5,16.7c3.4-2.1,5.4-6.8,4.4-10.6
		c-1.1-3.8-4.8-14.9-5.1-18.3c-0.3-3.3,0.3-7.8-0.8-11"/>
	<g id="XMLID_90_">
		<path id="XMLID_99_" class="st8" d="M2.3,71.5C2.1,67.8,3,60.9,7.4,57.4c4.8-3.8,8.4-4.2,12.9-4c4.5,0.2,9.6,3.1,12.5,6.6
			c2.9,3.6,6.4,13.9,0.8,21.5C27.8,89,3.5,95.5,2.3,71.5z"/>
		<path id="XMLID_98_" class="st10" d="M29.9,77.3c-0.5,2.3-2.9,3.8-5.2,3.2c-2.3-0.5-3.8-2.9-3.2-5.2c0.5-2.3,2.9-3.8,5.2-3.2
			C29,72.7,30.4,75,29.9,77.3z"/>
		<path id="XMLID_97_" class="st11" d="M18.8,73.3c-0.3,1.2-1.5,2-2.8,1.7c-1.2-0.3-2-1.5-1.7-2.8c0.3-1.2,1.5-2,2.8-1.7
			C18.3,70.8,19.1,72.1,18.8,73.3z"/>
		<path id="XMLID_96_" class="st12" d="M2.9,72.5c-1.1,0.6-2.8,4-2.8,5.6c-0.1,1.6,0.4,0.9,1.3,0.7c0.9-0.2,1.9,0.7,2.6,1.4
			C4.7,81,5.5,80.9,6.2,80c0.6-1,1.8-3.2,1.1-4.8C6.6,73.6,5.1,71.2,2.9,72.5z"/>
		<path id="XMLID_95_" class="st13" d="M2.2,79.2c0,0-0.1,0-0.1,0c-0.3,0-0.6-0.3-0.6-0.6c0-0.3,0.3-0.6,0.6-0.6
			c0.2,0,0.5,0,0.9-0.1c0.9-0.1,1.9-0.2,2.5,0c0.3,0.1,0.5,0.5,0.4,0.8c-0.1,0.3-0.5,0.5-0.8,0.4c-0.4-0.1-1.3,0-1.9,0
			C2.7,79.2,2.4,79.2,2.2,79.2L2.2,79.2z"/>
		<g id="XMLID_91_">
			<path id="XMLID_94_" class="st7" d="M22.6,53.6c4.1-0.1,6,0.5,8-0.6c2-1.1,3.3-1.1,2,0.9c-1.4,1.9-2.6,3.6-7.2,2.4"/>
			<path id="XMLID_93_" class="st7" d="M26.5,55.8c2,0.2,5.6,0.3,8-0.8c2.4-1.1,4.4-1,2.4,1c-1.9,2-2.2,4.7-9.7,2.2"/>
			<path id="XMLID_92_" class="st7" d="M22.9,53.7c-1-0.1-9.3-1.3-11.7,2.2c-0.6,1.1,0.7,3.1,4.3,2.9c3.5-0.2,11.6,1,14.7,2.1
				c4.7,1.5,4.9,2.2,6.8,1.5c1.8-0.7,2-2.8,0.3-2.5c-1.7,0.3-6.9-1.5-8.1-1.9"/>
		</g>
	</g>
	<path id="XMLID_89_" class="st7" d="M41.8,86.9c3.8,4.1,9,3.6,10.7,2.7c3.6-1.9,2.2-3.4,0.2-4c4.2-1.1,4.6-5.2,0.9-4.9
		c10.1-3.6,1.7-7.4-6.1-8.4c-7.8-1-12.5,3.1-14.3,6.8c-0.8,1.6-1.2,2.5,0.7,3.7C35.9,83.8,41.1,86.1,41.8,86.9z"/>
</g>
</svg>
