<?xml version="1.0" encoding="utf-8"?>
<!-- Generator: Adobe Illustrator 19.0.0, SVG Export Plug-In . SVG Version: 6.00 Build 0)  -->
<svg version="1.1" id="レイヤー_1" xmlns="http://www.w3.org/2000/svg" xmlns:xlink="http://www.w3.org/1999/xlink" x="0px"
	 y="0px" viewBox="0 0 64 137" style="enable-background:new 0 0 64 137;" xml:space="preserve">
<style type="text/css">
	.st0{fill:#3D0000;}
	.st1{fill:#F8D6C0;}
	.st2{fill:#4E210A;}
	.st3{fill:url(#XMLID_77_);}
	.st4{fill:#F5268D;}
	.st5{fill:#1D0000;}
	.st6{fill:#DC0045;}
	.st7{fill:#FFFFFF;}
	.st8{fill:#FBEFBF;}
	.st9{fill:#D92F15;}
</style>
<g>
	<path id="XMLID_50_" class="st0" d="M18.5,49.3c0,2.1-0.7,3-1.7,4.1c-1.1,1.1-2.5,1.8-4.2,1.8c1-1,2.4-3.8,1.5-5.5
		c0.3,3.3-1.7,5.3-4.2,5c1.2-1,1.6-2.2,1.6-3.7c-0.3,2.1-1.8,2.9-3.6,2c1.1-0.4,2-2.3,1.9-3.9c-0.1-3-4.5-3.9-5.3-11.5
		c-0.7-7.3-0.5-13.6,4.3-22.7C13.6,6,23.4,0.1,33.5,0C43.6-0.1,47,3.8,48.7,6.3c5.2,14.1,0.5,38.1-5.5,43.3
		c-8.8,7.7-21.7,14.2-28,7.7C16.8,57.2,18.8,53.1,18.5,49.3z"/>
	<path id="XMLID_49_" class="st0" d="M47.3,5c2,0.9,3.6,1.6,5.1,2.8c5.4,4.3,6.9,11,7.5,19c0.7,10.2-3.9,21.4-6.4,25.2
		c-3.2,4.8-6.9,3.1-8.2,5.5c-0.8,1.4-0.6,3.5,0.2,4.3c-2,0.1-3.1-1.3-2.5-3.3c-0.6,1.4-0.7,2.7,0,4.1c-2.4-0.7-3.4-3.4-1.8-6.3
		c-1.5,1.3-1.4,4.4-0.9,5.7c-1.5-0.7-2.6-1.9-3.1-3.4c-0.5-1.5-0.4-3.8,0.5-5.8"/>
	<path id="XMLID_48_" d="M21.5,51c-1,0.1-3.9-0.5-8.5,4.9c-4.6,5.4-6.4,16.3-0.3,17.6C16,70,26.9,60.8,27.2,58
		C27.5,55.2,27.1,50.4,21.5,51z"/>
	<g>
		<path id="XMLID_47_" class="st1" d="M30.5,102c0.6,1.8,4.1,15.1,4.5,16.2c1.8,1.3,10.5,1,10.8,0c-0.9-3.9-3.8-19.8-4.3-21.9
			C39.5,98.3,33.5,101.6,30.5,102z"/>
		<path id="XMLID_46_" class="st2" d="M34.8,120.4c-0.1-3-0.7-4.4-1.2-5.9c1.2,0.3,9.1,1.8,11.8-0.3c0.5,2.5,1.3,5.7,1.6,6.6
			c1.3,3.9,1.6,6,3.8,7.4c2.2,1.4,3.4,4.7,2.4,5.8c-1,1.1-5.8,4.2-9,2.3c-2.6-1.5-7-4-8.4-6.1c-1-1.5-1.4-3.9-1.1-5.9
			C34.7,123.5,34.8,122.2,34.8,120.4z"/>
	</g>
	<g>
		<path id="XMLID_45_" class="st1" d="M25.9,102c-0.6,1.8-4.1,15.1-4.5,16.2c-1.8,1.3-10.5,1-10.8,0c0.9-3.9,3.8-19.8,4.3-21.9
			C16.8,98.3,22.8,101.6,25.9,102z"/>
		<path id="XMLID_44_" class="st2" d="M21.5,120.4c0.1-3,0.7-4.4,1.2-5.9c-1.2,0.3-9.1,1.8-11.8-0.3c-0.5,2.5-1.3,5.7-1.6,6.6
			c-1.3,3.9-1.6,6-3.8,7.4c-2.2,1.4-3.4,4.7-2.4,5.8c1,1.1,5.8,4.2,9,2.3c2.6-1.5,7-4,8.4-6.1c1-1.5,1.4-3.9,1.1-5.9
			C21.6,123.5,21.5,122.2,21.5,120.4z"/>
	</g>
	
		<linearGradient id="XMLID_77_" gradientUnits="userSpaceOnUse" x1="875.9072" y1="-58.2608" x2="874.2475" y2="-62.4098" gradientTransform="matrix(-0.9627 0.2705 0.2705 0.9627 885.9426 -122.7877)">
		<stop  offset="0" style="stop-color:#FBDCCB"/>
		<stop  offset="1" style="stop-color:#FAC5A0"/>
	</linearGradient>
	<path id="XMLID_43_" class="st3" d="M24.3,49.5c-0.2,1.5-0.6,3.3-0.8,3.7c-0.3,1.1-0.8,2.6-1.7,3.3c0.2,1.2,2.5,2.6,3.5,3.2
		c1.9,0.9,6-0.5,6.9-2c-0.9-0.6-1.4-1.6-1.8-2.7c0-1.6,0.1-2.5,0.2-3.3C29.4,51.6,24.9,50.4,24.3,49.5z"/>
	<path id="XMLID_42_" class="st4" d="M8.7,77.6c-1.7,1.8-4.1,7.2-5.1,10c-0.9,2.4-1.4,4.5-2,7.6c0.1,0.9,1.6,0.5,2.7,0.6
		c1.1,0.1,3.7,1.7,4.8,2.6c1.1,0.9,4.1,3,7,2.8c2.9-0.2,5.1,1.3,7.9,2.1c2.8,0.9,4.2,1.2,6.3,0c2.1-1.1,1.2-1.4,3.6-0.8
		c2.4,0.6,4.7,1.6,7.1-1.6c2.4-3.1,2.5-3.1,4.6-3.3c2.1-0.1,3.4,0.2,4.3-0.9c0.9-1.1,1-0.9,0.3-3.3c-0.7-2.4-4.6-12-7.4-16.5
		c-2.3-3.8-8.3-4.6-11.9-4.5C27.4,72.3,15.4,70.4,8.7,77.6z"/>
	<path id="XMLID_41_" class="st1" d="M26.3,54.6c1.5,0.2,2.2,0.1,3.7-0.1c8-1.1,11.5-4,13.7-6.7c2.2-2.6,5.8-12.7,6.7-16.5
		c1.3-5.5,3.9-13.2-4.6-18c-4-2.3-7.9-4.1-10.5-4.7c-2.4-0.5-5-0.6-11.5,0.1c-9.7,1-10.5,9.1-11.5,14.6c-0.7,3.8-1.4,14.5-0.4,17.8
		c1,3.3,3.2,7.2,10.1,11.4C24.1,53.8,25,54.4,26.3,54.6z"/>
	<path id="XMLID_40_" class="st5" d="M22.2,33.5c-0.2,0-0.5-0.1-0.6-0.4c-0.6-1.4-1.4-2.1-2.5-2.2c-1.5-0.2-3.3,1.1-3.8,1.8
		c-0.2,0.3-0.6,0.3-0.8,0.1c-0.3-0.2-0.3-0.6-0.1-0.8c0.6-0.9,2.7-2.5,4.9-2.3c1,0.1,2.5,0.7,3.5,2.9c0.1,0.3,0,0.7-0.3,0.8
		C22.4,33.5,22.3,33.5,22.2,33.5L22.2,33.5z"/>
	<path id="XMLID_39_" class="st5" d="M44.4,39.2c-0.3,0-0.5-0.2-0.6-0.5c-0.2-0.9-1.3-2.7-2.7-3.2c-1-0.3-2.1,0-3.2,1
		c-0.2,0.2-0.6,0.2-0.8,0c-0.2-0.2-0.2-0.6,0-0.9c1.8-1.7,3.4-1.6,4.3-1.3c2,0.7,3.3,3,3.5,4.1c0.1,0.3-0.1,0.6-0.5,0.7
		C44.5,39.2,44.4,39.2,44.4,39.2L44.4,39.2z"/>
	<path id="XMLID_38_" class="st6" d="M27.8,44.5c2.3,0.4,4.4,0.7,5.1,1.1c0.7,0.4,0.1,1.2-1.3,1.9c-1.4,0.7-3,1.4-4.6,1
		c-1.6-0.3-2.9-1.7-3.9-3c-1-1.2-1.2-2.1-0.4-2.1C23.5,43.4,25.8,44.2,27.8,44.5z"/>
	<path id="XMLID_37_" class="st0" d="M50.7,12.9c-1.9-2.1-11.1-6.5-17.2-7.6C27.5,4.2,22.7,5.3,18,8c-4.8,2.7-6.9,12.5-7.1,16.9
		c1.9-0.4,4.5-1.2,7.4-2.3c-1.7,1.5-3.5,2.9-4.6,3.4c1.7,0.5,7.3,0.1,14-6.4c-2.9,3.8-6.7,6.8-8.7,7.8c7.2,0.7,12.4-4.1,15.3-8.1
		c-2.2,5-5.3,8.6-7.2,10.2c9.3-0.8,14.3-9.3,16-13.2c-0.5,8.7,1.4,12.9,3.2,17c-0.3-1.5,0.5-7.7,1-10.1c-0.3,8.4,0.2,11.6,1,15.5
		c1-2.4,2.4-3.1,4.3-12C54.5,17.7,52.6,15,50.7,12.9z"/>
	<path id="XMLID_36_" class="st7" d="M33.1,45.8c0-0.1-0.3-0.2-0.4-0.3c-0.7-0.4-2.8-0.7-5-1.1c-2-0.3-4.1-1-4.9-1
		c-0.1,0-0.2,0.1-0.3,0.1c0.7,0.7,2.5,1.9,4.3,2.2C28.8,46.1,31.3,46.5,33.1,45.8z"/>
	<path id="XMLID_35_" d="M22.3,55c0.2,0.8,2.3,3.8,5.7,3.6c-2.7,3.5-6.5,6.6-6.5,6.6c-1.2-2.3-3.8-6.9-3.8-6.9
		C19.2,57.3,21.6,55.7,22.3,55z"/>
	<g>
		<path id="XMLID_34_" class="st8" d="M41.4,83.6c2.9-5.5,9.5-22,11.1-26.4c1.7-4.5,4.6-9.1,6.5-12c-1.2-1.1-2.4-2.2-3.5-3.2
			l0.1-0.1c-0.3-0.3-0.7-0.5-1.1-0.8c-0.4-0.3-0.7-0.6-1.1-0.9l-0.1,0.1c-1.2-0.8-2.6-1.6-4-2.5c-2.2,2.6-5.9,6.7-9.8,9.5
			c-3.8,2.8-17.8,13.6-22.4,17.9C12.6,69.5,4.2,76.7,0.4,88c-0.4,1.7-0.7,2.6-0.1,3.8c0.5,1.1,4.5,5.6,9,8.9c4.5,3.5,9.9,6.1,11,6.3
			c1.3,0.2,2.1-0.3,3.6-1.1C33.8,99.2,38.5,89.1,41.4,83.6z"/>
		<path id="XMLID_33_" class="st9" d="M59.5,44.9c0.3-0.4,3.3-4.6,3.8-5.2c0.5-0.7,0.9-1.3,0.4-2.2c-0.4-0.6-1.1-1.4-1.9-2.1l0,0
			c-0.5-0.5-1.2-1-1.8-1.5c-0.6-0.5-1.3-1-1.9-1.3l0,0c-1-0.6-1.9-1.1-2.6-1.3c-1-0.3-1.5,0.2-2,0.9c-0.5,0.7-3.7,4.7-4,5.1
			c-0.3,0.4-1,1.4-1,1.4c0.7,0.3,2.6,1.5,4.2,2.7l0,0c0.3,0.2,0.6,0.4,1,0.7c0,0,0.1,0,0.1,0.1c0,0,0.1,0,0.1,0.1
			c0.4,0.3,0.7,0.5,0.9,0.7l0,0c1.5,1.2,3.3,2.8,3.7,3.4C58.5,46.2,59.3,45.2,59.5,44.9z"/>
		<g>
			<path id="XMLID_32_" class="st9" d="M19.8,79.6c-0.5-0.5-0.5-1-0.4-1.4c0.2-0.6,0.7-1.2,1.1-1.3c0.4-0.1,0.8-0.1,1.1,0.1
				c0.2,0.1,0.4,0.3,0.4,0.5l-0.6,0.2c0,0-0.1-0.1-0.1-0.1c-0.2-0.1-0.4-0.1-0.6,0c-0.2,0.1-0.6,0.4-0.7,0.9c-0.1,0.3,0,0.6,0.3,0.8
				L19.8,79.6L19.8,79.6z"/>
			<path id="XMLID_31_" class="st9" d="M27.6,85.1c-0.2,0-0.5-0.1-0.8-0.2l0.3-0.5c0.3,0.2,0.6,0.2,0.9,0c0.4-0.2,0.6-0.7,0.6-0.9
				c0-0.2-0.1-0.5-0.2-0.6c-0.1-0.1-0.1-0.1-0.1-0.1l0-0.6c0.2,0,0.4,0.1,0.6,0.3c0.2,0.3,0.4,0.7,0.4,1c0,0.4-0.4,1.1-0.9,1.4
				C28.1,85,27.9,85.1,27.6,85.1L27.6,85.1z"/>
			<g>
				<path id="XMLID_30_" class="st8" d="M22,81.4c-0.3-0.2-1.8-3.1-2-3.6c-0.2-0.4-0.3-0.9-0.4-1.2c-0.1-0.4-0.6-0.1-0.7,0.1
					c-0.2-0.7-0.9-1-1.5-0.5c-0.6,0.5-0.9,0.9,0,2.4c0.7,1.2,1.9,3.9,2,4.2"/>
				<path id="XMLID_29_" class="st9" d="M19.4,83.1c-0.1,0-0.2-0.1-0.3-0.2c-0.1-0.2-1.3-3-2-4.1c-0.9-1.5-0.7-2.1,0.1-2.8
					c0.3-0.3,0.7-0.4,1.1-0.3c0.3,0.1,0.5,0.3,0.7,0.5c0.1-0.1,0.3-0.1,0.5-0.1c0.2,0,0.4,0.2,0.4,0.4c0,0.1,0.1,0.3,0.1,0.4
					c0.1,0.3,0.1,0.5,0.3,0.8l0.1,0.2c1.4,2.7,1.7,3.2,1.8,3.3c0.1,0.1,0.1,0.3,0,0.4c-0.1,0.1-0.3,0.1-0.4,0
					c-0.1-0.1-0.5-0.6-1.9-3.4l-0.1-0.2c-0.2-0.3-0.3-0.6-0.3-0.9c0-0.1-0.1-0.2-0.1-0.3c0,0-0.1,0.1-0.2,0.2
					C19.1,77,18.9,77,18.8,77c-0.1,0-0.2-0.1-0.2-0.2c-0.1-0.2-0.2-0.4-0.4-0.5c-0.2-0.1-0.4,0-0.6,0.1c-0.5,0.4-0.8,0.7,0.1,2
					c0.7,1.2,1.9,4,2,4.2C19.7,82.9,19.6,83.1,19.4,83.1C19.4,83.1,19.4,83.1,19.4,83.1L19.4,83.1z"/>
			</g>
			<g>
				<path id="XMLID_28_" class="st8" d="M24.5,83.3c0.3,0.2,3.5,0.9,4,1c0.5,0.1,0.9,0,1.3,0.1c0.4,0,0.2,0.5,0.1,0.7
					c0.7,0,1.2,0.6,0.9,1.3c-0.3,0.7-0.6,1.2-2.3,0.7c-1.3-0.4-4.3-0.8-4.5-0.8"/>
				<path id="XMLID_27_" class="st9" d="M29.6,87.6c-0.3,0-0.7-0.1-1.3-0.2C27,87,24,86.6,23.8,86.6c-0.2,0-0.3-0.2-0.3-0.3
					c0-0.2,0.1-0.3,0.3-0.3c0.3,0,3.2,0.4,4.6,0.8c1.5,0.4,1.7,0.1,2-0.5c0.1-0.2,0.1-0.4,0-0.6c-0.1-0.2-0.3-0.3-0.6-0.3
					c-0.1,0-0.2-0.1-0.3-0.2c-0.1-0.1,0-0.2,0-0.3c0.1-0.1,0.1-0.3,0.1-0.3c-0.1,0.1-0.3,0-0.5,0c-0.2,0-0.5,0-0.8-0.1l-0.2,0
					c-3.1-0.7-3.7-0.9-3.8-0.9c-0.1-0.1-0.2-0.3-0.1-0.4c0.1-0.1,0.3-0.2,0.4-0.1c0.1,0.1,0.7,0.2,3.7,0.9l0.2,0
					c0.3,0.1,0.6,0.1,0.8,0.1c0.1,0,0.3,0,0.4,0c0.2,0,0.4,0.1,0.5,0.3c0.1,0.2,0.1,0.3,0,0.5c0.3,0.1,0.5,0.3,0.7,0.5
					c0.2,0.3,0.2,0.8,0,1.2C30.7,87.2,30.3,87.6,29.6,87.6L29.6,87.6z"/>
			</g>
			<g>
				<path id="XMLID_26_" class="st8" d="M14.9,93.4c-0.4-0.3-1.8-1.9-1.8-2.4c0-0.5,0.6-0.2,0.8-0.3c0.2-0.1,0.4-0.2,0.5-0.6
					c0.1-0.4,0.5-1.6,0.9-2.3c0.4-0.9,1.3-2.4,1.7-2.4c0.4,0,0.6,0.8,0.7,0.9c0.2,0.1,1.3,1.9,1.3,1.9"/>
				<path id="XMLID_25_" class="st9" d="M14.9,93.7c-0.1,0-0.1,0-0.2-0.1c-0.2-0.2-2-1.9-1.9-2.6c0.1-0.6,0.6-0.6,0.9-0.6
					c0.1,0,0.1,0,0.2,0c0.2-0.1,0.3-0.2,0.3-0.4c0.1-0.4,0.5-1.6,0.9-2.4c0.6-1.1,1.4-2.5,1.9-2.6c0.5-0.1,0.7,0.5,0.9,0.9
					c0,0.1,0,0.1,0.1,0.1c0.1,0.1,0.8,1.1,1.3,1.9c0.1,0.1,0,0.3-0.1,0.4c-0.1,0.1-0.3,0-0.4-0.1c-0.5-0.8-1.1-1.7-1.2-1.8
					c-0.1-0.1-0.1-0.2-0.2-0.3c0-0.1-0.2-0.4-0.3-0.5c-0.1,0.1-0.8,1-1.4,2.3c-0.4,0.7-0.8,1.8-0.8,2.2c-0.1,0.5-0.4,0.7-0.6,0.8
					C14,91,13.8,91,13.7,91c-0.1,0-0.2,0-0.2,0c0,0.4,1.3,1.8,1.7,2.1c0.1,0.1,0.2,0.3,0.1,0.4C15.1,93.6,15,93.7,14.9,93.7
					L14.9,93.7z"/>
			</g>
			<g>
				<path id="XMLID_24_" class="st8" d="M14.9,93.4c0.4,0.3,2.3,1.3,2.7,1.1c0.5-0.2,0-0.7,0.1-0.9c0.1-0.2,0.1-0.4,0.5-0.6
					c0.4-0.2,1.4-0.9,2-1.4c0.7-0.7,1.9-1.9,1.9-2.3c-0.1-0.4-0.9-0.3-1-0.4c-0.2-0.1-2.2-0.7-2.2-0.7"/>
				<path id="XMLID_23_" class="st9" d="M17.6,94.8c-0.8,0-2.6-1-2.8-1.2c-0.1-0.1-0.2-0.3-0.1-0.4c0.1-0.1,0.3-0.2,0.4-0.1
					c0.4,0.3,2.1,1.1,2.5,1c0,0,0-0.1,0-0.2c-0.1-0.1-0.1-0.3-0.1-0.5c0.1-0.3,0.1-0.6,0.6-0.8c0.4-0.2,1.3-0.9,1.9-1.4
					c1.1-1,1.7-1.8,1.8-2c-0.1,0-0.4-0.1-0.5-0.1c-0.2,0-0.3,0-0.4-0.1c-0.1-0.1-1.2-0.4-2.1-0.7c-0.2,0-0.3-0.2-0.2-0.4
					c0-0.2,0.2-0.3,0.4-0.2c0.9,0.3,2.1,0.6,2.3,0.8c0,0,0,0,0.1,0c0.4,0,1,0.1,1.1,0.6c0.1,0.5-1,1.7-2,2.5c-0.6,0.6-1.6,1.3-2,1.5
					c-0.2,0.1-0.3,0.2-0.3,0.4c0,0,0,0.1,0,0.2c0.1,0.2,0.3,0.8-0.3,1C17.7,94.8,17.6,94.8,17.6,94.8L17.6,94.8z"/>
			</g>
			<path id="XMLID_22_" class="st9" d="M15.2,93.6l-0.5-0.4l4.3-5.7c0.1-0.1,0.3-0.2,0.4-0.1c0.1,0.1,0.2,0.3,0.1,0.4L15.2,93.6
				L15.2,93.6z"/>
			<g>
				<path id="XMLID_21_" class="st8" d="M23.8,89C23.8,89,23.9,89,23.8,89c0.2-0.2,0.3-0.3,0.4-0.4c0-0.1,0.1-0.1,0.1-0.2
					c1.3-1.8,1.5-4.9,1.4-5.4c0-0.3,0.1-1.4-1-2.4c0,0,0,0,0,0c0,0-0.1-0.1-0.1-0.1c0,0-0.1-0.1-0.1-0.1c0,0,0,0,0,0
					c-1.2-0.8-2.3-0.3-2.5-0.3c-0.5,0.1-3.4,1.1-4.8,2.9c0,0.1-0.1,0.1-0.1,0.2c-0.1,0.1-0.2,0.2-0.2,0.4c0,0,0,0.1-0.1,0.1
					c-0.9,1.7-0.4,3.7,1.6,5.3C20.4,90.5,22.4,90.4,23.8,89z"/>
				<path class="st9" d="M21.3,90.4L21.3,90.4c-1,0-2.1-0.4-3.2-1.2c-2.1-1.6-2.7-3.8-1.7-5.7l0.1-0.1c0.1-0.1,0.2-0.3,0.3-0.4
					l0.1-0.1c1.5-1.8,4.5-2.9,5.1-3c0,0,0.1,0,0.1,0c0.2-0.1,0.5-0.1,1-0.1c0.6,0,1.1,0.2,1.6,0.5l0.3,0.2c1.1,0.9,1.1,2,1.1,2.4
					c0,0.1,0,0.1,0,0.1c0.1,0.6-0.2,3.8-1.5,5.6l-0.1,0.2c-0.1,0.1-0.2,0.2-0.3,0.4L24,89.2C23.3,90,22.3,90.4,21.3,90.4L21.3,90.4z
					 M23,80.3c-0.3,0-0.6,0.1-0.8,0.1c-0.1,0-0.2,0-0.2,0c-0.5,0.1-3.3,1.1-4.6,2.7l-0.1,0.1c-0.1,0.1-0.2,0.2-0.2,0.4
					c-0.9,1.7-0.4,3.5,1.5,5c0.9,0.7,1.9,1.1,2.8,1.1l0,0c0.9,0,1.6-0.3,2.3-1c0.2-0.2,0.2-0.3,0.3-0.4l0.1-0.2
					c1.2-1.7,1.5-4.7,1.4-5.2c0,0,0-0.1,0-0.2c0-0.4,0-1.3-0.8-2l0.1-0.3l-0.2,0.2l-0.2-0.1C23.9,80.4,23.5,80.3,23,80.3L23,80.3z"
					/>
			</g>
			<polygon id="XMLID_18_" class="st9" points="20.6,86.4 20.6,86.1 20.4,86.2 20.4,86 20.1,86 20.1,86.2 19.9,86.2 19.9,86.5 
				20.1,86.5 20.2,86.7 20.5,86.7 20.4,86.5 			"/>
			<g>
				<path id="XMLID_17_" class="st8" d="M23.2,82.4c0.4,0.2,0.4,0.3,0.7,0.3c0.3,0,0.7,0.1,1.5,0.5c0.8,0.4,2.9-0.4,3.2-0.8
					c1.5,1,2.5-1,2.6-1.2c0-0.2,0.1-0.8-0.4-0.9c2.3-2.7,0.7-5.6-0.8-6.9c-1.4-1.3-4.9-1.8-6.8,1.1c-0.3-0.4-0.8-0.2-1-0.1
					c-0.2,0.1-1.9,1.6-0.5,2.8c-0.3,0.5-0.5,2.6,0.1,3.3c0.6,0.7,0.7,1,0.9,1.3C22.9,82.1,22.9,82.2,23.2,82.4z"/>
				<path class="st9" d="M26,83.6L26,83.6c-0.3,0-0.5,0-0.7-0.1c-0.8-0.4-1.1-0.4-1.4-0.5c-0.4-0.1-0.5-0.1-0.8-0.3
					c-0.4-0.3-0.5-0.4-0.6-0.7l0-0.1c-0.1-0.3-0.3-0.6-0.8-1.2c-0.6-0.7-0.5-2.6-0.2-3.4c-0.5-0.5-0.5-1-0.5-1.3
					c0.1-0.9,1-1.7,1.2-1.8c0.2-0.1,0.8-0.2,1.1-0.1c1-1.3,2.4-2,4-2c1.2,0,2.4,0.4,3.1,1.1c1.4,1.3,3.2,4.2,1,7.1
					c0.2,0.2,0.3,0.6,0.2,1.1c-0.1,0.3-0.8,1.8-2,1.8c-0.3,0-0.5-0.1-0.8-0.2C28.2,83.2,26.9,83.6,26,83.6L26,83.6z M22.7,74.5
					c-0.2,0-0.3,0.1-0.4,0.1c-0.1,0.1-0.8,0.7-0.9,1.4c0,0.3,0.1,0.6,0.4,0.9l0.2,0.2L22,77.3c-0.2,0.4-0.4,2.4,0.1,3
					c0.6,0.7,0.8,1,0.9,1.4l0.1,0.1c0.1,0.2,0.1,0.2,0.3,0.4c0.4,0.2,0.4,0.2,0.6,0.3c0.4,0.1,0.8,0.2,1.6,0.5
					c0.1,0,0.3,0.1,0.4,0.1c0.9,0,2.2-0.6,2.4-0.8l0.2-0.2l0.2,0.1c0.2,0.2,0.5,0.2,0.7,0.2c0.8,0,1.4-1.1,1.4-1.3
					c0-0.1,0.1-0.5-0.2-0.6l-0.4-0.1l0.3-0.3c2.2-2.6,0.6-5.3-0.7-6.5c-0.7-0.6-1.7-1-2.7-1c-1.5,0-2.8,0.7-3.7,2L23.2,75L23,74.6
					C22.9,74.5,22.9,74.5,22.7,74.5L22.7,74.5z"/>
			</g>
			<g>
				<path id="XMLID_14_" class="st8" d="M29.6,74.8c-0.3-0.1-0.3-0.2-0.7-0.5c-0.4-0.3-0.4-0.9-0.3-1.3c0.1-0.3,0.4-0.6,0.6-0.6
					c0.2,0,1.3-0.1,1.5-0.2c0.1-0.1,0.3,0,0.3,0.3c0,0.3,0,1.1,0.1,1.3c0.2,0.2,0,0.6-0.2,0.8C30.8,74.9,30.1,75.1,29.6,74.8z"/>
				<path class="st9" d="M30.1,75.2c-0.3,0-0.5-0.1-0.7-0.2c-0.3-0.2-0.4-0.2-0.8-0.5c-0.5-0.4-0.5-1.1-0.4-1.6
					c0.1-0.4,0.5-0.8,0.9-0.8c0.1,0,0.3,0,0.5,0c0.3,0,0.8-0.1,1-0.1c0.2-0.1,0.5-0.1,0.6,0.1c0.1,0.1,0.2,0.2,0.1,0.5
					c0,0.3,0,1,0.1,1.1c0.2,0.4,0.1,0.9-0.2,1.2C31,75.1,30.6,75.2,30.1,75.2L30.1,75.2z M30.7,72.5c-0.2,0-0.5,0.1-1,0.1
					c-0.2,0-0.3,0-0.4,0c-0.1,0-0.3,0.2-0.4,0.4c-0.1,0.3-0.1,0.8,0.2,1c0.3,0.3,0.4,0.3,0.6,0.4c0.5,0.3,1,0,1.1-0.1
					c0.1-0.1,0.2-0.4,0.1-0.5C30.6,73.7,30.6,72.8,30.7,72.5L30.7,72.5z"/>
			</g>
			<path class="st9" d="M23.9,78.9c-0.3,0-0.5-0.1-0.8-0.3c-0.6-0.4-0.7-1.2-0.2-1.8c0.4-0.5,1.2-0.7,1.8-0.2
				c0.3,0.2,0.4,0.5,0.5,0.8c0,0.3,0,0.7-0.2,0.9C24.7,78.7,24.3,78.9,23.9,78.9L23.9,78.9z M23.9,77c-0.2,0-0.4,0.1-0.5,0.3
				c-0.1,0.1-0.2,0.3-0.1,0.5c0,0.2,0.1,0.3,0.3,0.4c0.3,0.2,0.7,0.2,0.9-0.1c0.1-0.1,0.2-0.3,0.1-0.5c0-0.2-0.1-0.3-0.3-0.4
				C24.2,77,24.1,77,23.9,77L23.9,77z"/>
			<path id="XMLID_9_" class="st9" d="M24.6,78.3c-0.2,0.3-0.6,0.3-0.9,0.1c-0.3-0.2-0.3-0.6-0.1-0.9c0.2-0.3,0.6-0.3,0.9-0.1
				C24.7,77.6,24.8,78.1,24.6,78.3z"/>
			<path class="st9" d="M27.6,81.7c-0.3,0-0.5-0.1-0.8-0.3c-0.3-0.2-0.4-0.5-0.5-0.8c0-0.3,0-0.7,0.2-0.9c0.4-0.5,1.2-0.7,1.8-0.2
				c0.3,0.2,0.4,0.5,0.5,0.8c0,0.3,0,0.7-0.2,0.9C28.4,81.5,28,81.7,27.6,81.7L27.6,81.7z M27.6,79.8c-0.2,0-0.4,0.1-0.5,0.3
				c-0.1,0.1-0.2,0.3-0.1,0.5c0,0.2,0.1,0.3,0.3,0.4c0.3,0.2,0.7,0.2,0.9-0.1c0.1-0.1,0.2-0.3,0.1-0.5c0-0.2-0.1-0.3-0.3-0.4
				C27.9,79.8,27.8,79.8,27.6,79.8L27.6,79.8z"/>
			<circle id="XMLID_6_" class="st9" cx="27.7" cy="80.7" r="0.6"/>
			<path id="XMLID_5_" class="st9" d="M24.8,81.7c-0.3,0-0.5-0.1-0.8-0.4c-0.8-0.7-0.5-1.2-0.5-1.3c0.1-0.1,0.3-0.2,0.4-0.1
				c0.1,0.1,0.2,0.3,0.1,0.4c0,0,0,0.2,0.4,0.4c0.3,0.3,0.5,0.2,0.5,0.2c0.1-0.1,0.3-0.1,0.4,0c0.1,0.1,0.1,0.3,0,0.4
				C25.3,81.6,25.1,81.7,24.8,81.7C24.9,81.7,24.9,81.7,24.8,81.7L24.8,81.7z"/>
		</g>
	</g>
	<g>
		<path id="XMLID_4_" class="st1" d="M47.8,64.1c-0.1-2-0.2-3.9-0.5-4.5c-0.4-0.9-1.7-0.4-2,0c-0.2,0.4-0.2,0.7-0.3,1.3
			c0,0.7,0.1,1.5,0.1,1.5c-0.9-1.9-2.6-3.6-3.4-3.1c-0.8,0.6-0.3,1.1-0.2,1.5c0.2,0.9,1.2,2.1,1.2,2.1c-0.9-0.4-3.4-1.3-3.9-0.4
			c-0.5,1,1.1,1.9,2.3,2.6c-0.6,0-2-0.3-3,0c-0.7,0.2-1.6,1.1-0.3,1.6c1.3,0.5,2.2,0.5,3,0.8c-1.6,0-2.9-0.2-3.1,0.9
			c-0.1,1,2.9,1.5,4.5,1.7c1.6,0.2,2.3,0.8,2.3,0.8c0.9-1.4,3.4-4.6,4.1-4.7C48.7,66.3,47.9,64.8,47.8,64.1z"/>
		<path id="XMLID_3_" d="M40.7,70.6c1-2.8,5.5-7.1,7.5-7.5c2.4,1.8,6.4,5.7,6.8,7.5c0.4,1.8,1.2,4-1.3,6.1c-2.2,1.8-5.9,3.9-9.5-0.9
			C43,74.2,41.8,73.1,40.7,70.6z"/>
	</g>
	<g>
		<path id="XMLID_2_" class="st1" d="M20.2,61.8c1-1.7,1.8-3.5,2.3-3.9c0.8-0.7,1.7,0.4,1.8,0.9c0,0.5-0.1,0.7-0.3,1.3
			c-0.2,0.6-0.7,1.3-0.7,1.3c1.6-1.4,3.9-2.2,4.4-1.4c0.5,0.9-0.2,1.2-0.4,1.5c-0.6,0.7-1.9,1.4-1.9,1.4c1,0,3.7,0.2,3.7,1.3
			c0,1.1-1.8,1.2-3.2,1.4c0.5,0.2,1.9,0.5,2.8,1.3c0.5,0.5,1,1.7-0.4,1.6c-1.4-0.1-2.2-0.4-3.1-0.5c1.5,0.7,2.7,1.1,2.4,2.1
			c-0.3,1-3.3,0.1-4.8-0.3c-1.6-0.5-2.5-0.2-2.5-0.2c-0.3-1.6-1.2-5.6-1.8-6C18.5,63.4,19.8,62.4,20.2,61.8z"/>
		<path id="XMLID_1_" d="M23.9,70.7c0.3-3-2-8.8-3.7-10c-2.9,0.6-8.2,2.5-9.3,4c-1.1,1.5-2.8,3.1-1.4,6.1c1.2,2.6,3.7,6,9,3.2
			C20.3,73,21.9,72.4,23.9,70.7z"/>
	</g>
</g>
</svg>
