<?xml version="1.0" encoding="utf-8"?>
<!-- Generator: Adobe Illustrator 19.0.0, SVG Export Plug-In . SVG Version: 6.00 Build 0)  -->
<svg version="1.1" id="レイヤー_1" xmlns="http://www.w3.org/2000/svg" xmlns:xlink="http://www.w3.org/1999/xlink" x="0px"
	 y="0px" viewBox="0 0 72 140" style="enable-background:new 0 0 72 140;" xml:space="preserve">
<style type="text/css">
	.st0{fill:#D7D7D8;}
	.st1{fill:#B0B1B2;}
	.st2{fill:#F8D6C0;}
	.st3{fill:#542F1D;}
	.st4{fill:#CDA652;}
	.st5{fill:url(#XMLID_52_);}
	.st6{fill:#A43F00;}
</style>
<g>
	<path id="XMLID_25_" class="st0" d="M54,59.1c1.3,0.8,4.8,8.7,6.3,12.3c1.5,3.7,3.7,12.3,3.6,16c-0.1,3.6-0.2,9.4-4.2,11.4
		C59.1,95.5,56.3,65.1,54,59.1z"/>
	<path id="XMLID_24_" class="st1" d="M39.7,52c2.4,0.1,6.1,1,8.5,2.4c2.4,1.4,5.9,3.1,6.6,5.8c0.7,2.7,5.5,17.6,6.1,22.6
		c0.4,3,0.4,11.8,0.3,13.2c-0.1,1.4,0.6,3.4-3,5.1c-3.7,1.7-7.4,4.2-13.1,2.8c-5.7-1.4-15.6-15.9-15.6-22.7
		C29.5,74.5,27.1,51.7,39.7,52z"/>
	<g>
		<path id="XMLID_23_" class="st2" d="M20.5,85.5c2,0.2,3.9,0.4,4.5,0.7c0.9,0.5,0.3,1.8-0.1,2c-0.4,0.2-0.7,0.2-1.3,0.2
			c-0.7,0-1.5-0.1-1.5-0.1c1.9,1,3.5,2.8,2.9,3.6c-0.6,0.8-1.2,0.3-1.5,0.2c-0.9-0.3-2-1.3-2-1.3c0.4,0.9,1.2,3.5,0.2,3.9
			c-1,0.4-1.8-1.2-2.5-2.4c0,0.6,0.3,2-0.1,3.1c-0.2,0.7-1.2,1.5-1.7,0.2c-0.5-1.3-0.4-2.2-0.7-3.1c-0.1,1.6,0,2.9-1,3
			c-1,0.1-1.4-3-1.5-4.6c-0.1-1.6-0.7-2.4-0.7-2.4c1.4-0.9,4.7-3.2,4.9-3.9C18.3,84.6,19.8,85.5,20.5,85.5z"/>
		<path id="XMLID_22_" d="M14,75.9c2.4,4,3.9,5.5,6.7,8.7c-0.4,0.8-6.4,6.8-8.8,6.6C7.6,87.1,1.7,79,0.3,76.7
			c-1.7-2.8,4.2-8.6,5.6-10.5c2-2.9,10.3-9.1,12.3-10.9c3.1,0.5,6.6,9.2,6.6,9.2C22,68.6,15.2,74.2,14,75.9z"/>
	</g>
	<path id="XMLID_21_" class="st0" d="M16.8,55.7c-1,2.4-3.6,21.2,1.2,25.1c0.7,0.5,1.5-0.1,1.5-0.1c-0.2-1.8-1.3-7.6-0.9-13.4
		c0.4-5.8,2.3-11.4,2.6-12.4C21.5,53.7,17.4,54.1,16.8,55.7z"/>
	<g>
		<g>
			<path id="XMLID_20_" class="st3" d="M38.9,123c0-3-0.6-4.5-1-6c1.1,0.3,9,2.1,11.8,0.1c0.4,2.5,1.1,5.8,1.4,6.7
				c1.2,3.9,1.4,6.1,3.6,7.6c2.2,1.5,3.3,4.8,2.2,5.9c-1,1.1-6,4-9.1,2c-2.5-1.6-6.9-4.3-8.2-6.4c-0.9-1.5-1.3-4-0.9-6
				C38.7,126.1,38.9,124.7,38.9,123z"/>
			<path id="XMLID_19_" class="st4" d="M31.8,94.5c0.5,1.8,6.2,32.3,6.2,32.3c3.3,2.5,11.9,4.4,14.7,0.1c-1.5-9.7-4.8-31.6-5.1-36.7
				"/>
		</g>
		<g>
			<path id="XMLID_18_" class="st3" d="M24.3,122.5c0.2-3,0.9-4.4,1.4-5.9c-1.2,0.3-9.1,1.5-11.8-0.7c-0.6,2.5-1.5,5.7-1.8,6.6
				c-1.4,3.8-1.8,6-4.1,7.3c-2.3,1.3-3.6,4.6-2.6,5.8c1,1.1,5.7,4.4,9,2.6c2.6-1.5,7.2-3.8,8.6-5.9c1-1.4,1.5-3.9,1.3-5.9
				C24.3,125.5,24.2,124.2,24.3,122.5z"/>
			<path id="XMLID_17_" class="st4" d="M33.2,94.5c-0.7,1.8-8.3,31.8-8.3,31.8c-3.5,2.3-12.2,3.6-14.7-0.9
				c2.1-9.6,6.8-31.3,7.4-36.3"/>
		</g>
	</g>
	<path id="XMLID_16_" d="M20.6,59.1c-1.1,2-2.4,11.4-3,16.6c-0.7,6.6-1.1,11.2-1.2,18.1c3.1,1.9,11.4,3.3,15.4,2.7
		c4-0.6,15.2-0.8,16.8-1.9c0.1-5.1-1.3-24.4-3.6-34.4"/>
	<g>
		<path id="XMLID_15_" class="st2" d="M60.9,32.4c-0.8-1.8-1.6-3.6-1.6-4.2c0-1,1.4-1.1,1.8-0.9c0.4,0.3,0.5,0.5,0.8,1
			c0.4,0.6,0.6,1.3,0.6,1.3c-0.1-2.1,0.6-4.4,1.6-4.3c1,0.1,0.8,0.9,0.9,1.2c0.2,0.9-0.1,2.4-0.1,2.4c0.6-0.8,2.4-2.8,3.3-2.1
			c0.9,0.7-0.1,2.2-0.8,3.4c0.5-0.3,1.6-1.2,2.7-1.4c0.7-0.1,1.9,0.3,1,1.3c-0.9,1.1-1.7,1.5-2.3,2.1c1.4-0.8,2.5-1.5,3.1-0.7
			c0.6,0.8-1.9,2.7-3.2,3.6c-1.4,0.9-1.7,1.8-1.7,1.8c-1.5-0.8-5.2-2.5-5.8-2.2C61.2,34.8,61.2,33.1,60.9,32.4z"/>
		<path id="XMLID_14_" d="M51.8,51.3c2.3-4.1,7-14.5,8.2-18.6c0.9-0.1,9.1,2.1,10.1,4.3c-1.4,5.8-7,20.1-7.7,21.8
			c-0.7,1.8-2.3,3.8-4.2,5c-1.9,1.2-13,9.3-14.7,9.9c-1.1-3-4.1-16.1-4.1-16.1c4.2-1.6,10.5-5,11.3-5.4
			C51.5,51.9,51.5,51.9,51.8,51.3z"/>
	</g>
	
		<linearGradient id="XMLID_52_" gradientUnits="userSpaceOnUse" x1="-2.065" y1="258.9805" x2="-4.2013" y2="253.6398" gradientTransform="matrix(0.9261 0.3772 -0.3772 0.9261 130.2412 -177.4075)">
		<stop  offset="0" style="stop-color:#FBDCCB"/>
		<stop  offset="1" style="stop-color:#FAC5A0"/>
	</linearGradient>
	<path id="XMLID_13_" class="st5" d="M34.2,51.1c0,1.5,0.3,3.3,0.4,3.8c0.1,1.1,0.5,2.7,1.3,3.5c0.5,1.5-0.1,4.5-2.9,5.7
		c-7.4,0.6-8-3.3-7.7-5.8c0.9-0.5,1.6-1.5,2.1-2.5c0.2-1.6,0.1-2.6,0.1-3.3C28.9,52.6,33.5,51.9,34.2,51.1z"/>
	<path id="XMLID_12_" d="M27.3,55.2c-0.4,1.5-0.7,2.1,0.2,4.4c1,2.5,2.5,4.2,2.8,5.5c0.1,0.7,0.2,1.2-0.9,0.9
		c-2-0.5-2.1-0.5-4.8-2.3c-1.7-1.1-4.4-4-4.5-6.7c0.2-2.1,0.3-2.6,2.5-3.2c2.2-0.6,4.5-1,5.2-0.7C28,53.1,27.6,54.1,27.3,55.2z"/>
	<path id="XMLID_11_" d="M34.3,55.9c-0.2,1.5-0.3,1.9-1.5,4c-1.4,2.3-3.1,3.8-3.6,5c-0.3,0.7-0.4,1.2,0.7,1.1c2-0.2,1.8-0.4,4.8-1.8
		c1.8-0.9,5-1.6,6.1-4.8c0.7-2.7,2.1-4.9,0-5.9c-2-1-5.5-1.9-6.3-1.7C34.2,52,34.5,54.7,34.3,55.9z"/>
	<path id="XMLID_10_" class="st0" d="M41.2,54.6c-0.5,2.6,1,22.4,6.5,25.2c0.8,0.4,1.4-0.4,1.4-0.4c-0.6-1.8-2.9-7.2-3.7-12.9
		c-0.9-5.7-0.2-11.1-0.2-12.2C45.4,53.1,41,53.3,41.2,54.6z"/>
	<path id="XMLID_9_" d="M46.3,3.4C39-1.7,25.7-0.1,22.7,2c-0.1,0.1-0.2,0.2-0.4,0.3c-1.4,0.7-3.1,1.7-2.7,4c0.6,3,10.9,15,17.5,16.8
		c6.1,1.7,10,13.1,9.2,19.2c-0.5,2.1-1,4-1.4,5.1c4-1.6,5.4-4.5,6.1-7c-0.2,1.3-0.5,2.5-0.8,3.2c2.9-2.3,3.8-6.8,4.1-9.9
		c0.3,1,0.3,2.4,0.5,4.3C60.2,20.1,53.6,8.4,46.3,3.4z"/>
	<path id="XMLID_8_" d="M24.4,2.7l-0.3-0.6c-1.7-0.7-5.3-1.1-10.5,2.3C8.5,7.8,2.9,17,3.3,26.6c0.3,8.1,3.3,10.3,4.4,11.6
		c-0.4-0.9-0.5-2.4-0.5-4.1c0.8,2.5,2.5,4.8,6,6.3c-0.4-1.1-0.4-4-0.2-7.2c1.3-6.4,4.1-11,8.3-14.6c4.4-3.8,5-7.3,5.4-11.3
		C27.1,4.8,25.9,3.4,24.4,2.7z"/>
	<path id="XMLID_7_" class="st2" d="M28.6,55.9c1.6,0,2.4-0.2,4-0.6c8.4-2.2,11.8-5.8,13.8-8.9c2-3.1,4.5-14.4,5-18.5
		c0.7-6,2.4-14.7-7.3-18.7c-4.6-1.9-9.1-3.4-11.9-3.6c-2.6-0.2-5.4,0-12.3,1.6C9.6,9.6,9.8,18.3,9.5,24.4
		c-0.2,4.1,0.4,15.7,1.9,19.1c1.5,3.4,4.4,7.3,12.3,10.8C26.1,55.4,27.2,55.9,28.6,55.9z"/>
	<ellipse id="XMLID_6_" transform="matrix(0.9944 0.1057 -0.1057 0.9944 3.8974 -1.5743)" cx="16.8" cy="36" rx="3" ry="3"/>
	<path id="XMLID_5_" d="M19.8,35.4c-0.2,0-0.4-0.1-0.5-0.3c-0.5-1-1.2-1.6-2.2-1.6c-1.4-0.1-2.9,0.8-3.5,1.6
		c-0.2,0.3-0.6,0.4-0.8,0.2c-0.3-0.2-0.4-0.6-0.2-0.8c0.7-1.2,2.7-2.3,4.6-2.2c1,0.1,2.4,0.5,3.2,2.3c0.1,0.3,0,0.7-0.3,0.8
		C19.9,35.3,19.8,35.4,19.8,35.4L19.8,35.4z"/>
	<ellipse id="XMLID_4_" transform="matrix(0.9944 0.1057 -0.1057 0.9944 4.0347 -4.176)" cx="41.4" cy="36" rx="3" ry="3"/>
	<path id="XMLID_3_" d="M44.4,35.4c-0.2,0-0.4-0.1-0.5-0.3c-0.5-1-1.2-1.6-2.2-1.6c-1.4-0.1-2.9,0.8-3.5,1.6
		c-0.2,0.3-0.6,0.4-0.8,0.2c-0.3-0.2-0.4-0.6-0.2-0.8c0.7-1.2,2.7-2.3,4.6-2.2c1,0.1,2.4,0.5,3.2,2.3c0.1,0.3,0,0.7-0.3,0.8
		C44.5,35.3,44.5,35.4,44.4,35.4L44.4,35.4z"/>
	<path id="XMLID_2_" class="st6" d="M29.7,49.5c-0.5,0-1.1,0-1.7-0.1c-1-0.1-2.3-0.3-3.2-1.5c-0.2-0.3-0.7-1-0.4-1.2
		c0.3-0.2,0.7,0,0.8,0.3c0.3,0.7,1.1,1.1,3,1.3c1.7,0.2,4.1,0.2,4.9-1.8c0.1-0.3,0.4-0.7,0.7-0.5c0.2,0.2,0,0.8-0.1,1.1
		C32.9,48.7,32.1,49.5,29.7,49.5L29.7,49.5z"/>
	<path id="XMLID_1_" d="M53,15.7C49.4,8.1,41.1,4.8,38.3,4C35.2,3.1,23.8,3,19.8,4c-3.6,0.9-7.7,5.1-7.7,5.1
		c-7,6.7-4.2,19.4-1.7,22.4c0.1-5.2,2.9-10.8,5.2-14.4c-1.9,4.4-3.2,9.8-2.6,13.4c1.6-4.5,5-12.6,10.6-17.5
		c0.2,4.7,1.8,12.1,7.5,15.5c-0.5-3-0.8-6.7-0.2-10.7c1.1,4.7,3.8,11.5,8.4,13.5c-1.2-2.1-1.8-5.2-2-8.3c1.3,3.3,3.7,6.9,7.5,8.2
		c-2.5-4.1-3-7-2.9-9.8c1.5,4.5,5.3,14,9.2,14.9C53.4,32,55.5,22.9,53,15.7z"/>
</g>
</svg>
