<?xml version="1.0" encoding="utf-8"?>
<!-- Generator: Adobe Illustrator 19.0.0, SVG Export Plug-In . SVG Version: 6.00 Build 0)  -->
<svg version="1.1" id="レイヤー_1" xmlns="http://www.w3.org/2000/svg" xmlns:xlink="http://www.w3.org/1999/xlink" x="0px"
	 y="0px" viewBox="0 0 87 157" style="enable-background:new 0 0 87 157;" xml:space="preserve">
<style type="text/css">
	.st0{fill:#352114;}
	.st1{fill:#909257;}
	.st2{fill:#F8D6C0;}
	.st3{fill:#1D3E2E;}
	.st4{fill:#F9BB00;}
	.st5{fill:url(#XMLID_61_);}
	.st6{opacity:0.9;fill:#FFFFFF;}
	.st7{fill:url(#XMLID_62_);}
	.st8{fill:#FFFFFF;}
	.st9{opacity:0.6;fill:#FFFFFF;}
	.st10{fill:url(#XMLID_63_);}
	.st11{fill:#FFD462;}
	.st12{fill:url(#XMLID_64_);}
	.st13{fill:url(#XMLID_65_);}
	.st14{fill:url(#XMLID_66_);}
	.st15{fill:#DC0045;}
	.st16{fill:#FBE0EC;}
</style>
<g id="XMLID_2_">
	<g id="XMLID_53_">
		<g id="XMLID_57_">
			<path id="XMLID_59_" class="st0" d="M73.3,138c-0.5-2.9-0.2-4.5-0.1-6.1c-1.1,0.5-8.4,3.8-11.6,2.3c0,2.5,0,5.9-0.1,6.8
				c-0.4,4.1-0.2,6.2-2.1,8.1c-1.8,1.9-2.3,5.4-1.1,6.2c1.2,0.9,6.6,2.8,9.3,0.3c2.2-2.1,6-5.5,6.9-7.9c0.6-1.6,0.5-4.1-0.2-6
				C74,141,73.6,139.8,73.3,138z"/>
			<path id="XMLID_58_" class="st1" d="M75.4,112.5c-0.1,1.5-0.8-1.9-0.6,29.6c-2.8,3.1-11.8,7.5-15.3,3.7c-0.4-9.8-1.2-32-1.9-37"
				/>
		</g>
		<g id="XMLID_54_">
			<path id="XMLID_56_" class="st0" d="M55.9,137.2c-0.5-2.9-0.2-4.5-0.1-6.1c-1.1,0.6-8.4,3.8-11.6,2.3c0,2.5,0,5.9-0.1,6.8
				c-0.4,4.1-0.2,6.2-2.1,8.1c-1.8,1.9-2.3,5.4-1.1,6.2c1.2,0.9,6.6,2.8,9.3,0.3c2.2-2.1,6-5.5,6.9-7.9c0.6-1.6,0.5-4.1-0.2-6
				C56.6,140.2,56.2,138.9,55.9,137.2z"/>
			<path id="XMLID_55_" class="st1" d="M58.3,111.8c-0.1,1.5-0.8-1.9-0.6,29.6c-2.8,3.1-11.8,7.5-15.3,3.7c-0.4-9.8-1.2-32-1.9-37"
				/>
		</g>
	</g>
	<g id="XMLID_50_">
		<path id="XMLID_52_" class="st2" d="M15.9,83.1c-1.5-1.3-2.9-2.7-3.5-2.9c-1-0.4-1.5,0.9-1.4,1.4c0.1,0.5,0.3,0.7,0.7,1.1
			c0.4,0.5,1.1,1,1.1,1c-2-0.8-4.4-0.9-4.6,0.1c-0.2,1,0.6,1.1,0.9,1.3c0.8,0.5,2.3,0.7,2.3,0.7c-0.9,0.3-3.4,1.4-3.1,2.4
			c0.3,1,2.1,0.6,3.4,0.3c-0.4,0.4-1.7,1.1-2.2,2.1c-0.4,0.6-0.4,1.9,0.9,1.4c1.3-0.5,2-1.1,2.8-1.5c-1.2,1.1-2.2,1.9-1.6,2.7
			c0.6,0.8,3.1-0.9,4.5-1.9c1.3-1,2.3-1,2.3-1c-0.3-1.6-0.7-5.7-0.2-6.2C18.1,84.1,16.4,83.6,15.9,83.1z"/>
		<path id="XMLID_51_" class="st3" d="M14.5,81.1c4.8-1.1,15.1-3.8,17.3-5.5c2.9-2.8,6.8-7.9,9.1-11.3c2.5-2.5,6.6,3.3,8.3,7.3
			c1.7,4,0.1,10.1-2.1,12.7c-1.6,1.8-3.1,3-6.6,4.9c-3.2,1.7-4.3,1.6-7,2.4c-2.7,0.9-14.5,2.1-16,1.8C15.6,90.5,12.9,85.6,14.5,81.1
			z"/>
	</g>
	<path id="XMLID_49_" class="st3" d="M65.3,63.3c2.7,2.8,7.5,6.8,10.2,19.8c1.8,8.7,1.6,23.1,1.1,30.3c-4,2.9-15.2,7.5-23,4.7
		c-7.8-2.9-18-5.8-18.5-8.5c0.5-10.6,8.4-41,11.8-46.6"/>
	<path id="XMLID_48_" class="st4" d="M61.5,63.7c-1.4,4-4.4,17.3-4.6,22.2c-0.2,4.8-1.8,13.3-1.6,12.1c-2.4-8.9-5.6-22-4.8-31.6"/>
	<linearGradient id="XMLID_61_" gradientUnits="userSpaceOnUse" x1="57.2028" y1="68.7268" x2="56.1179" y2="66.0145">
		<stop  offset="0" style="stop-color:#FBDCCB"/>
		<stop  offset="1" style="stop-color:#FAC5A0"/>
	</linearGradient>
	<path id="XMLID_47_" class="st5" d="M51.4,65.3c0.3,1.5,0.7,4.2,2.6,4.6c2,0.3,3.3,1,5-1.3c1.7-2.2,1.1-2.9,0.9-5.4
		C58.2,63.9,52.6,65.8,51.4,65.3z"/>
	<g id="XMLID_23_">
		<path id="XMLID_46_" class="st6" d="M50.5,143.9c-8.9,2.8-12.4,1.6-14.5,1.1c-2.2-0.5-3.8-4.5-4.4-6c-0.6-1.5-11.5-31.2-15.7-42.5
			c-4.2-11.2-5-16.6-5.3-22.1C10.2,69,9.7,54,8.9,47.8C8,41.7,4.3,30.7,3.5,28c-0.8-2.6-2.3-5.8-2.4-6.5c-0.1-0.7-0.4-0.9-0.5-1.2
			c-0.1-0.3,0-0.5-0.1-0.8C0.3,19.2,0,19,0,18.7c0-1.2,3.9-2.4,5.6-2.9c1.7-0.5,5.5-2.2,6.2-1.3c0.2,0.2,0,0.6,0.1,0.9
			c0.1,0.3,0.3,0.4,0.4,0.7c0.1,0.3,0,0.7,0.4,1.3c0.4,0.6,1.2,4,2.2,6.6c1,2.6,5,13.5,8.2,18.8c3.2,5.4,12.1,17.3,15.3,21.8
			c3.2,4.5,5.9,9.2,9.6,20.6c3.7,11.4,13.8,41.4,14.3,43c0.5,1.6,1.6,5.6,0.3,7.4C61.4,137.3,59,141.3,50.5,143.9z"/>
		<linearGradient id="XMLID_62_" gradientUnits="userSpaceOnUse" x1="0" y1="79.9789" x2="63.3921" y2="79.9789">
			<stop  offset="0" style="stop-color:#D5D5D5"/>
			<stop  offset="0.1697" style="stop-color:#FFFFFF"/>
			<stop  offset="0.5818" style="stop-color:#FFFFFF"/>
			<stop  offset="1" style="stop-color:#C4C4C4"/>
		</linearGradient>
		<path id="XMLID_45_" class="st7" d="M50.5,143.9c-8.9,2.8-12.4,1.6-14.5,1.1c-2.2-0.5-3.8-4.5-4.4-6c-0.6-1.5-11.5-31.2-15.7-42.5
			c-4.2-11.2-5-16.6-5.3-22.1C10.2,69,9.7,54,8.9,47.8C8,41.7,4.3,30.7,3.5,28c-0.8-2.6-2.3-5.8-2.4-6.5c-0.1-0.7-0.4-0.9-0.5-1.2
			c-0.1-0.3,0-0.5-0.1-0.8C0.3,19.2,0,19,0,18.7c0-1.2,3.9-2.4,5.6-2.9c1.7-0.5,5.5-2.2,6.2-1.3c0.2,0.2,0,0.6,0.1,0.9
			c0.1,0.3,0.3,0.4,0.4,0.7c0.1,0.3,0,0.7,0.4,1.3c0.4,0.6,1.2,4,2.2,6.6c1,2.6,5,13.5,8.2,18.8c3.2,5.4,12.1,17.3,15.3,21.8
			c3.2,4.5,5.9,9.2,9.6,20.6c3.7,11.4,13.8,41.4,14.3,43c0.5,1.6,1.6,5.6,0.3,7.4C61.4,137.3,59,141.3,50.5,143.9z"/>
		<ellipse id="XMLID_44_" class="st8" cx="21.8" cy="58.4" rx="11.2" ry="2"/>
		<path id="XMLID_43_" class="st9" d="M3.3,21.6c2.1,5.9,6,16.6,6.5,18.6c1.3,5.3,2.1,14.5,3,24.5c0.9,10,1.5,16.3,2.4,20.9
			c0.9,4.5,14.9,44,17,48.8c2.1,4.8,3.9,8.5,5.1,9.1c1.2,0.6,2.1,0.2,0.9-1.7c-1.2-1.8-18.2-48.1-20-54.7
			c-1.8-6.7-2.7-19.1-3.3-23.6c-0.4-3.2-1.2-15.1-4.1-24.5c-0.8-2.5-3.9-12.1-6.2-17.8c-0.5-1.2-0.8-0.5-0.9-0.5
			C3.5,20.8,2.9,20.4,3.3,21.6z"/>
		<linearGradient id="XMLID_63_" gradientUnits="userSpaceOnUse" x1="14.6125" y1="112.2457" x2="63.1164" y2="112.2457">
			<stop  offset="0" style="stop-color:#000000"/>
			<stop  offset="0.25" style="stop-color:#0A0A0A"/>
			<stop  offset="1" style="stop-color:#000000"/>
		</linearGradient>
		<path id="XMLID_42_" class="st10" d="M14.6,94.3c1.6,0.6,5.4,0,17.4-3.6c12-3.5,14.7-6.5,15.6-7.9c0,0,13.2,40,15.5,47.8
			c-0.2,0.8-2.4,5.9-13.9,9.1c-11.5,3.2-16.4,1.8-17.1,1.3C32.6,141.9,17.3,101.7,14.6,94.3z"/>
		<path id="XMLID_41_" class="st11" d="M49.3,88c-0.3-1-0.6-1.8-0.8-2.5c-7.4,7.3-22.1,10.1-22.2,10.2c-3.2,0.6-8.6,1.5-10.7,1.3
			c0.3,0.7,0.5,1.6,0.8,2.5c3.6,0,9.5-1.2,10.3-1.4C27.4,97.9,41.2,95.2,49.3,88z"/>
		<path id="XMLID_40_" class="st11" d="M42.3,138.5c6.1-1.5,10.5-2.6,15-5.4c2.4-1.5,4-3.2,5.2-4.6c-0.2-0.8-0.5-1.8-0.8-2.9
			c-1.1,1.4-2.8,3.6-5.7,5.4c-4.1,2.7-8.4,3.7-14.2,5.1c-3.7,0.9-8.3,0.5-11.4,0.1c0.4,1,0.8,1.9,1,2.6c1.4,0.2,3,0.3,4.7,0.3
			C38.1,139.2,40.3,139,42.3,138.5z"/>
		<path id="XMLID_33_" class="st11" d="M38.6,128.3c-0.2,0.8-0.7,1.4-1.6,1.7c-1.1,0.4-2.4,0.1-3.8-0.7c-1.4-0.9-2.4-2.1-2.9-3.7
			c-0.4-1-0.5-2-0.4-2.9c0.1-0.9,0.3-1.8,0.9-2.7c0.3-0.6-0.1-1-1-1.4c-2.1-0.9-3.3-1.7-3.5-2.5c-0.2-0.9,0.3-2.5,1.6-4.7
			c0.3-0.5,0.3-0.9,0-1.1c-0.8-0.6-1.7-1.1-2.7-1.6c-0.6-0.2-1-0.5-1.1-0.8c-0.1-0.4,0-0.9,0.2-1.4c0.2-0.6,0.6-1,1.2-1.1
			c1.3-0.3,2.7-0.1,4.5,0.8c0.8,0.4,1.5,0.9,1.9,1.4c0-0.1,0-0.2,0-0.3c0.1-0.2,0.3-0.4,0.6-0.5c0.3-0.1,0.7-0.3,1.1-0.8
			c1.4-1.6,2.7-3,4.1-4.2c1.4-1.3,2.7-2.2,4.1-2.7c1.8-0.6,3.6-0.8,5.2-0.4c1.3,0.4,2.1,1,2.5,2c0.3,0.8,0.2,1.4-0.3,2
			c-0.6,0.6-1.4,0.9-2.5,0.7c-1.7-0.3-2.9-0.1-3.6,0.5c0.1,0.2,0.3,0.4,0.4,0.6c0.1,0.4,0.3,0.8,0.5,1.3c0-0.1,0.1-0.1,0.1-0.1
			c0.7-0.3,1.5-0.6,2.2-0.7c1.5-0.1,2.7,0.3,3.8,1.2c0.8,0.7,1.4,1.9,2,3.5c0.6,2,1.1,3.5,1.6,4.7c0.7,1.8,1.3,3.6,2,5.4
			c0.3,0.8,0.5,1.5,0.5,2c0.1,0.4,0.1,0.8-0.1,1.2c-0.4,0.5-1.3,0.8-2.5,0.9c-0.8,0.1-1.8,0.4-2.9,0.9c-1.1,0.5-2.4,1.1-3.9,2
			c-2.3,1.2-4.2,1.5-5.6,0.9c-1.1-0.5-1.8-1.3-2.3-2.5c-0.9-1.9-1.5-3.9-1.8-5.7c-0.2-0.8-0.7-2.5-1.5-4.9c-0.1-0.5-0.4-1-0.8-1.3
			c-0.5-0.6-0.8-1.2-0.6-1.7c0.2-0.6,0.6-0.8,1.2-0.9c0.7,0,1.3,0.2,1.9,0.7c0,0,0.1,0,0.1,0c0.4-0.2,0.8-0.5,1.2-0.9
			c0,0,0-0.1,0.1-0.1c-0.2-0.4-0.3-0.8-0.4-1.1c-0.2-0.4-0.4-0.6-0.5-0.7c-0.1-0.1-0.2-0.1-0.2-0.1c-0.1,0-0.2,0-0.3,0
			c-0.6,0.3-1.1,0.5-1.5,0.6c-0.9,0.3-1.6,0.3-2.3,0c-0.2-0.1-0.4-0.2-0.5-0.2c0,0.1,0,0.1,0.1,0.2c0.2,0.7,0,1.4-0.4,2
			c0.5,1.5,0.9,2.8,1.3,4.1c0.4,0.2,0.6,0.5,0.8,0.8c0.1,0.3,0,0.7-0.2,1.3c0.8,2.8,1.7,5.1,2.9,7C38.2,126,38.7,127.4,38.6,128.3z
			 M29.3,113.6c0.3,0.4,1.2,0.7,2.7,0.9c0.1,0,0.1,0,0.2,0c-0.2-0.9-0.5-1.9-0.7-2.9c-0.1,0-0.1,0-0.2,0.1c-0.8,0.4-1.4,0.9-1.8,1.2
			C29.3,113.1,29.2,113.3,29.3,113.6z M33.3,123.5c0.2,0.3,0.4,0.6,0.8,0.8c0.3,0.1,0.5,0.2,0.6,0.1c0.2-0.1,0.3-0.3,0.2-0.7
			c-0.5-1.4-0.9-2.9-1.4-4.5C32.9,121,32.8,122.4,33.3,123.5z M44.6,118.8c1-0.8,1.6-1.3,2-1.5c1.2-0.6,2.2-0.8,3-0.5
			c0.1,0,0.1,0,0.2,0.1c-0.2-0.5-0.4-1.1-0.6-1.7c-0.6,0.3-1.3,0.7-2,1c-0.6,0.2-1.3,0.2-1.9-0.1c-0.6-0.2-1.1-0.9-1.5-2.1
			c-0.3-0.9-0.6-1.8-0.9-2.7c-0.4,0.3-0.7,0.6-0.9,0.9c0.1,0.2,0.2,0.5,0.3,0.7c0.5,1.7,0.9,3.2,1,4.6c0,0.7-0.1,1.3-0.3,1.7
			c-0.2,0.3-0.4,0.5-0.6,0.6c-0.2,0.2-0.6,0.2-1,0.3c-0.6,0-0.9,0-1-0.1c-0.1-0.1-0.1-0.2,0-0.5c0.2-0.7,0.4-1.3,0.4-1.9
			c0-0.6,0-1.3-0.2-2.1c-0.1-0.5-0.3-1.1-0.5-1.6c-0.5,0.1-1.1,0.2-1.7,0.3c1,4.3,1.8,7.3,2.4,8.9c0.4,1.3,0.9,1.9,1.6,2.1
			c0.3,0,0.7-0.2,1.2-0.5c0.9-0.6,2.3-1.5,4.1-2.4c1.3-0.7,2.4-1.3,3.2-1.6c0.1,0,0.1-0.1,0.2-0.1c-0.2-0.5-0.4-1-0.6-1.4
			c-0.1,0-0.2,0.1-0.3,0.1c-0.4,0.2-1.1,0.5-1.9,0.9c-1,0.6-1.8,1.1-2.5,1.6c-0.4,0.3-0.8,0.6-1.1,0.8c-0.6,0.5-1.3,0.7-2,0.8
			c-0.6,0-1-0.1-1.2-0.3c-0.2-0.2-0.3-0.4-0.3-0.6c0-0.2,0.1-0.3,0.3-0.4c0.1-0.1,0.3-0.3,0.5-0.5C42.6,120.5,43.5,119.7,44.6,118.8
			z M39.4,106.7c0.3,0.3,0.7,0.8,1.1,1.5c0.3-0.3,0.6-0.5,0.9-0.8c0.1-0.1,0.2-0.2,0.2-0.2c-0.2-0.6-0.4-1.2-0.6-1.7
			C40.4,106,39.9,106.4,39.4,106.7z M48,111.7c0-0.1,0-0.2-0.1-0.3c-0.1-0.3-0.2-0.8-0.4-1.4c-0.2-0.5-0.4-0.7-0.5-0.8
			c-0.1,0-0.3,0-0.7,0.1c-0.4,0.1-0.8,0.3-1.1,0.5c0,0.1,0.1,0.2,0.1,0.3c0.4,1.3,0.7,2.1,0.9,2.4c0.2,0.1,0.3,0.1,0.6,0
			C47.3,112,47.7,111.8,48,111.7z"/>
		<linearGradient id="XMLID_64_" gradientUnits="userSpaceOnUse" x1="15.6026" y1="92.4532" x2="49.3268" y2="92.4532">
			<stop  offset="0" style="stop-color:#965A50"/>
			<stop  offset="0.25" style="stop-color:#FFFFFF"/>
			<stop  offset="1" style="stop-color:#965A50"/>
		</linearGradient>
		<path id="XMLID_32_" class="st12" d="M49.3,88c-0.3-1-0.6-1.8-0.8-2.5c-7.4,7.3-22.1,10.1-22.2,10.2c-3.2,0.6-8.6,1.5-10.7,1.3
			c0.3,0.7,0.5,1.6,0.8,2.5c3.6,0,9.5-1.2,10.3-1.4C27.4,97.9,41.2,95.2,49.3,88z"/>
		<linearGradient id="XMLID_65_" gradientUnits="userSpaceOnUse" x1="30.3531" y1="132.4263" x2="62.5144" y2="132.4263">
			<stop  offset="0" style="stop-color:#965A50"/>
			<stop  offset="0.25" style="stop-color:#FFFFFF"/>
			<stop  offset="1" style="stop-color:#965A50"/>
		</linearGradient>
		<path id="XMLID_31_" class="st13" d="M42.3,138.5c6.1-1.5,10.5-2.6,15-5.4c2.4-1.5,4-3.2,5.2-4.6c-0.2-0.8-0.5-1.8-0.8-2.9
			c-1.1,1.4-2.8,3.6-5.7,5.4c-4.1,2.7-8.4,3.7-14.2,5.1c-3.7,0.9-8.3,0.5-11.4,0.1c0.4,1,0.8,1.9,1,2.6c1.4,0.2,3,0.3,4.7,0.3
			C38.1,139.2,40.3,139,42.3,138.5z"/>
		<linearGradient id="XMLID_66_" gradientUnits="userSpaceOnUse" x1="24.0786" y1="114.2268" x2="56.1743" y2="114.2268">
			<stop  offset="0" style="stop-color:#965A50"/>
			<stop  offset="0.25" style="stop-color:#FFFFFF"/>
			<stop  offset="1" style="stop-color:#965A50"/>
		</linearGradient>
		<path id="XMLID_24_" class="st14" d="M38.6,128.3c-0.2,0.8-0.7,1.4-1.6,1.7c-1.1,0.4-2.4,0.1-3.8-0.7c-1.4-0.9-2.4-2.1-2.9-3.7
			c-0.4-1-0.5-2-0.4-2.9c0.1-0.9,0.3-1.8,0.9-2.7c0.3-0.6-0.1-1-1-1.4c-2.1-0.9-3.3-1.7-3.5-2.5c-0.2-0.9,0.3-2.5,1.6-4.7
			c0.3-0.5,0.3-0.9,0-1.1c-0.8-0.6-1.7-1.1-2.7-1.6c-0.6-0.2-1-0.5-1.1-0.8c-0.1-0.4,0-0.9,0.2-1.4c0.2-0.6,0.6-1,1.2-1.1
			c1.3-0.3,2.7-0.1,4.5,0.8c0.8,0.4,1.5,0.9,1.9,1.4c0-0.1,0-0.2,0-0.3c0.1-0.2,0.3-0.4,0.6-0.5c0.3-0.1,0.7-0.3,1.1-0.8
			c1.4-1.6,2.7-3,4.1-4.2c1.4-1.3,2.7-2.2,4.1-2.7c1.8-0.6,3.6-0.8,5.2-0.4c1.3,0.4,2.1,1,2.5,2c0.3,0.8,0.2,1.4-0.3,2
			c-0.6,0.6-1.4,0.9-2.5,0.7c-1.7-0.3-2.9-0.1-3.6,0.5c0.1,0.2,0.3,0.4,0.4,0.6c0.1,0.4,0.3,0.8,0.5,1.3c0-0.1,0.1-0.1,0.1-0.1
			c0.7-0.3,1.5-0.6,2.2-0.7c1.5-0.1,2.7,0.3,3.8,1.2c0.8,0.7,1.4,1.9,2,3.5c0.6,2,1.1,3.5,1.6,4.7c0.7,1.8,1.3,3.6,2,5.4
			c0.3,0.8,0.5,1.5,0.5,2c0.1,0.4,0.1,0.8-0.1,1.2c-0.4,0.5-1.3,0.8-2.5,0.9c-0.8,0.1-1.8,0.4-2.9,0.9c-1.1,0.5-2.4,1.1-3.9,2
			c-2.3,1.2-4.2,1.5-5.6,0.9c-1.1-0.5-1.8-1.3-2.3-2.5c-0.9-1.9-1.5-3.9-1.8-5.7c-0.2-0.8-0.7-2.5-1.5-4.9c-0.1-0.5-0.4-1-0.8-1.3
			c-0.5-0.6-0.8-1.2-0.6-1.7c0.2-0.6,0.6-0.8,1.2-0.9c0.7,0,1.3,0.2,1.9,0.7c0,0,0.1,0,0.1,0c0.4-0.2,0.8-0.5,1.2-0.9
			c0,0,0-0.1,0.1-0.1c-0.2-0.4-0.3-0.8-0.4-1.1c-0.2-0.4-0.4-0.6-0.5-0.7c-0.1-0.1-0.2-0.1-0.2-0.1c-0.1,0-0.2,0-0.3,0
			c-0.6,0.3-1.1,0.5-1.5,0.6c-0.9,0.3-1.6,0.3-2.3,0c-0.2-0.1-0.4-0.2-0.5-0.2c0,0.1,0,0.1,0.1,0.2c0.2,0.7,0,1.4-0.4,2
			c0.5,1.5,0.9,2.8,1.3,4.1c0.4,0.2,0.6,0.5,0.8,0.8c0.1,0.3,0,0.7-0.2,1.3c0.8,2.8,1.7,5.1,2.9,7C38.2,126,38.7,127.4,38.6,128.3z
			 M29.3,113.6c0.3,0.4,1.2,0.7,2.7,0.9c0.1,0,0.1,0,0.2,0c-0.2-0.9-0.5-1.9-0.7-2.9c-0.1,0-0.1,0-0.2,0.1c-0.8,0.4-1.4,0.9-1.8,1.2
			C29.3,113.1,29.2,113.3,29.3,113.6z M33.3,123.5c0.2,0.3,0.4,0.6,0.8,0.8c0.3,0.1,0.5,0.2,0.6,0.1c0.2-0.1,0.3-0.3,0.2-0.7
			c-0.5-1.4-0.9-2.9-1.4-4.5C32.9,121,32.8,122.4,33.3,123.5z M44.6,118.8c1-0.8,1.6-1.3,2-1.5c1.2-0.6,2.2-0.8,3-0.5
			c0.1,0,0.1,0,0.2,0.1c-0.2-0.5-0.4-1.1-0.6-1.7c-0.6,0.3-1.3,0.7-2,1c-0.6,0.2-1.3,0.2-1.9-0.1c-0.6-0.2-1.1-0.9-1.5-2.1
			c-0.3-0.9-0.6-1.8-0.9-2.7c-0.4,0.3-0.7,0.6-0.9,0.9c0.1,0.2,0.2,0.5,0.3,0.7c0.5,1.7,0.9,3.2,1,4.6c0,0.7-0.1,1.3-0.3,1.7
			c-0.2,0.3-0.4,0.5-0.6,0.6c-0.2,0.2-0.6,0.2-1,0.3c-0.6,0-0.9,0-1-0.1c-0.1-0.1-0.1-0.2,0-0.5c0.2-0.7,0.4-1.3,0.4-1.9
			c0-0.6,0-1.3-0.2-2.1c-0.1-0.5-0.3-1.1-0.5-1.6c-0.5,0.1-1.1,0.2-1.7,0.3c1,4.3,1.8,7.3,2.4,8.9c0.4,1.3,0.9,1.9,1.6,2.1
			c0.3,0,0.7-0.2,1.2-0.5c0.9-0.6,2.3-1.5,4.1-2.4c1.3-0.7,2.4-1.3,3.2-1.6c0.1,0,0.1-0.1,0.2-0.1c-0.2-0.5-0.4-1-0.6-1.4
			c-0.1,0-0.2,0.1-0.3,0.1c-0.4,0.2-1.1,0.5-1.9,0.9c-1,0.6-1.8,1.1-2.5,1.6c-0.4,0.3-0.8,0.6-1.1,0.8c-0.6,0.5-1.3,0.7-2,0.8
			c-0.6,0-1-0.1-1.2-0.3c-0.2-0.2-0.3-0.4-0.3-0.6c0-0.2,0.1-0.3,0.3-0.4c0.1-0.1,0.3-0.3,0.5-0.5C42.6,120.5,43.5,119.7,44.6,118.8
			z M39.4,106.7c0.3,0.3,0.7,0.8,1.1,1.5c0.3-0.3,0.6-0.5,0.9-0.8c0.1-0.1,0.2-0.2,0.2-0.2c-0.2-0.6-0.4-1.2-0.6-1.7
			C40.4,106,39.9,106.4,39.4,106.7z M48,111.7c0-0.1,0-0.2-0.1-0.3c-0.1-0.3-0.2-0.8-0.4-1.4c-0.2-0.5-0.4-0.7-0.5-0.8
			c-0.1,0-0.3,0-0.7,0.1c-0.4,0.1-0.8,0.3-1.1,0.5c0,0.1,0.1,0.2,0.1,0.3c0.4,1.3,0.7,2.1,0.9,2.4c0.2,0.1,0.3,0.1,0.6,0
			C47.3,112,47.7,111.8,48,111.7z"/>
	</g>
	<g id="XMLID_20_">
		<path id="XMLID_22_" class="st2" d="M44.1,90.5c-1.5-1.3-2.8-2.7-3.5-2.9c-1-0.4-1.5,0.9-1.4,1.4c0.1,0.5,0.3,0.7,0.7,1.1
			c0.4,0.5,1.1,1,1.1,1c-2-0.8-4.4-0.9-4.6,0.1c-0.2,1,0.6,1.1,0.9,1.3c0.8,0.5,2.3,0.7,2.3,0.7c-0.9,0.3-3.4,1.4-3.1,2.4
			c0.3,1,2.1,0.6,3.4,0.3c-0.4,0.4-1.7,1.1-2.2,2.1c-0.3,0.6-0.4,1.9,0.9,1.4c1.3-0.5,2-1.1,2.8-1.5c-1.2,1.1-2.2,1.9-1.6,2.7
			c0.6,0.8,3.1-0.9,4.5-1.9c1.3-1,2.3-1,2.3-1c-0.3-1.6-0.7-5.7-0.2-6.2C46.2,91.5,44.6,90.9,44.1,90.5z"/>
		<path id="XMLID_21_" class="st3" d="M42.7,88.5c4.8-1.1,13.7-4.9,15.8-6.6c2.5-3.6,3.9-7.9,6.3-11.4c2.5-2.5,6.7,2,8.5,5.9
			c1.7,4,0.8,10.3-0.4,12.4c-1.2,2.1-2.8,3.6-5.7,6.2c-2.5,2.3-2.6,2.4-5.3,3.2c-2.7,0.9-14.5,2.7-16,2.4
			C43.7,97.9,41.1,93,42.7,88.5z"/>
	</g>
	<path id="XMLID_19_" d="M67.1,2.7c-8.2-4.4-22.3-2.8-25.9,0.4c-1.5,1.3-2.5,6.5-0.5,8.9c2.1,2.5,15.6,5,20.1,5.9
		c4.5,0.8,13.7,8.6,15.1,12.7c0.6,1.7,0.7,5,0.7,8.5c-0.5,0.6-0.5,7.7-2.6,10.9c-1.4,1.3-3.9,4.1-4.7,5.8c-1.1,2.1-2.7,6,2.2,4.9
		c1.9-0.4,3.1-1.2,3.8-2.1c-0.1,0.6-0.2,1.2-0.3,1.8c1.2,0.2,2.8-2.8,4.2-8.5c0.1,0.8-0.5,3.9-1,6c2-0.9,2.9-3.1,4.4-9.9
		c0.3,1.2-0.4,3.2-0.7,6.5c4.5-4.3,4.5-12.2,3.3-19.9c1,1.5,1.4,4.7,1.7,6.7C89.3,21.9,75.3,7.1,67.1,2.7z"/>
	<path id="XMLID_18_" d="M44.2,3.9C41,1.3,34.8,1.7,29.6,5.3c-10.2,7.1-8,14.3-12.5,18.5c-1.6,1.5-4.9,4.3-6.9,4.7
		c1,1.4,4.8,0.7,7.5-0.6c-2,1.6-6.4,4.3-7.8,4.7c1.9,1.1,5.3,0.4,7.6-1.8c-3.4,3.4-3,7.8-2.5,10.7c0.5-2.4,1.6-2.5,2-3.1
		c-0.5,2.6,0.1,10.7,3.2,13.4c-0.4-2,0-4.3,0.4-6.1c0.4,2.6,1.7,5.4,4,7.2c1.3-2.7,1.9-7,1.9-10.1c0.6-2.8,2.1-9.1,3.5-13.9
		c2.9-4.6,6-9.7,6-9.7C38,17.1,50.8,9.4,44.2,3.9z"/>
	<path id="XMLID_17_" class="st2" d="M22.1,36.1c-0.4,3,0,14.5,1.7,19.4c1.7,4.9,4.4,7.3,10.7,9.3c6.3,1.9,16.8,4.3,24.1,2
		s15.1-2.4,19.3-17.1C82.1,34.9,80,21.6,75,15.1c-5-6.5-33.5-14-45.2-2.4C22.8,19.6,22.9,30.1,22.1,36.1z"/>
	<path id="XMLID_16_" d="M28.5,45.2c-0.1,0-0.3,0-0.4-0.1c-0.3-0.2-0.3-0.6-0.1-0.9c0.6-0.8,2.1-1.6,3.8-1.7
		c1.5-0.1,2.8,0.4,3.8,1.4c0.2,0.2,0.2,0.6,0,0.9c-0.2,0.2-0.6,0.2-0.9,0c-1-0.9-2.1-1.1-2.9-1c-1.3,0.1-2.5,0.7-2.9,1.3
		C28.8,45.2,28.7,45.2,28.5,45.2L28.5,45.2z"/>
	<path id="XMLID_15_" d="M63.2,46.8c-0.2,0-0.4-0.1-0.5-0.3c-0.4-0.6-1.5-1.3-2.8-1.5c-0.8-0.1-1.9,0-2.9,0.8
		c-0.3,0.2-0.6,0.2-0.8-0.1c-0.2-0.3-0.2-0.6,0.1-0.9c1.1-0.9,2.4-1.3,3.9-1.1c1.7,0.2,3.1,1.2,3.7,2c0.2,0.3,0.1,0.7-0.2,0.8
		C63.4,46.8,63.3,46.8,63.2,46.8L63.2,46.8z"/>
	<path id="XMLID_14_" class="st15" d="M43.2,59.3c2.8,0.1,13.1-0.7,13.1-0.7c-0.4,2.4-2.3,4.8-5.5,4.7
		C47.5,63.2,44.7,62.2,43.2,59.3z"/>
	<path id="XMLID_13_" class="st16" d="M30.4,56.4c-2.8-1.4-2.7-3.5,0.3-4.4c3-0.9,5.4-1.1,6.2-0.3c0.8,0.8,1.5,3.3,0.1,3.8
		C35.6,56.1,32.5,57.5,30.4,56.4z"/>
	<path id="XMLID_12_" class="st16" d="M66.2,57.9c2.9-1.2,2.9-3.4-0.1-4.4c-3-1.1-5.4-1.3-6.2-0.5c-0.8,0.8-1.7,3.2-0.3,3.8
		C61,57.4,64,58.9,66.2,57.9z"/>
	<path id="XMLID_9_" d="M33.6,53.9c-0.4,0-0.9,0-1.4,0c-5.5-0.3-10.5-0.9-11.5-4.7c-0.7-2.7-2.2-10.9,0.5-13.1
		c1.9-1.5,3.5-2.1,6.1-2.1c1.1,0,2.3,0.1,3.8,0.3c5.1,0.7,10.8,3,11.1,6.6c0.4,3.9-0.1,6.2-1,9C40.5,52.6,38,53.9,33.6,53.9
		L33.6,53.9z M27.3,35.2c-2.6,0-3.9,0.7-5.3,1.8c-1.8,1.4-1.2,7.8-0.1,11.8c0.8,3,5.4,3.5,10.4,3.8c4.6,0.3,7.1-0.8,7.8-3.2
		c0.8-2.7,1.3-4.8,0.9-8.5c-0.2-2.4-4.6-4.7-10.1-5.5C29.5,35.3,28.3,35.2,27.3,35.2L27.3,35.2z"/>
	<path id="XMLID_6_" d="M63.3,55.5L63.3,55.5c-1.7,0-3.6-0.2-5.4-0.6c-5.2-1-7.5-2.7-8-5.8l-0.1-0.8c-0.4-2.4-0.7-4.6,0-7.6
		c0.7-3,5.1-5,11.2-5c4.9,0,8.8,1.7,10.7,4.7c1.7,2.6,1.4,7.9-0.6,11.9C70.1,54.4,67.4,55.5,63.3,55.5L63.3,55.5z M60.9,36.9
		c-5.5,0-9.5,1.6-10.1,4c-0.6,2.8-0.3,4.9,0.1,7.2l0.1,0.8c0.3,2.1,1.6,3.7,7,4.8c1.8,0.4,3.6,0.5,5.2,0.5c3.5,0,5.9-0.9,6.7-2.5
		c1.8-3.6,2.1-8.5,0.6-10.7C69.8,39.8,67.3,36.9,60.9,36.9L60.9,36.9z"/>
	<path id="XMLID_5_" d="M49.6,43.9c-2.5-2.5-7.6-0.2-7.6-0.2l-0.5-1.1c0.1,0,5.8-2.6,9,0.4L49.6,43.9L49.6,43.9z"/>
	<path id="XMLID_4_" class="st8" d="M43.1,59.2c0.1,0.2,0.2,0.5,0.3,0.7c1.4,0.5,3.7,0.8,6.2,0.8c2.5,0,4.8-0.4,6.2-0.9
		c0.2-0.4,0.4-1,0.5-1.4C56.4,58.4,45.9,59.3,43.1,59.2z"/>
	<path id="XMLID_3_" d="M82.4,24.8c-1.5-5.7-5.8-16.3-15.3-19.6c-4-1.4-6.2-2-8-2.2c-3.6-0.5-7.4-0.2-9.8,0.2l-7.4,1.4
		c-1.6-0.2-4.7-0.3-7.6,0.8c-5.4,2-6.8,3.8-10.4,8.9c-4.4,6.1-2.4,17.5-2.2,19.8c0-0.1,0.1-0.3,0.1-0.4c0.1,1.9,0.6,3.6,1.5,4.9
		c0.1-2,1.7-6.9,4-11c-0.9,3.3-1.5,6.9-0.9,8.8c0.5-1.6,2.5-6.1,4.9-9.2c-1.6,4.6-2.6,10.4,0.1,12.8c0.1-3.2,3.8-11.5,7.8-17.2
		c-2.2,5.9-4.1,14.2-0.6,17.8c0.1-3.4,2.1-10.1,5-15.1c-1.7,4.8-2.9,10.7-0.6,14.4c0-5.2,3.5-15.1,9.8-20.4c0,0,0,0,0,0
		c-2,4.9-5.2,14.6-1.8,20.1c0.1-2.5,3.2-10.1,6.4-15.4c-1.2,5.1-1.9,11.7,1.3,15c-0.2-1.6,1.5-9.6,4-14.6c-0.9,6-1.6,16,3,18.9
		c-1-3,0-8.3,1.7-12.8c0.2,5.6,1.2,13.8,5.1,16.3c-0.3-2.9-0.4-7.6,0.4-11.9c-0.1,5.7,2,12,3.6,13.3c0.1-1,0.3-2.7,0.5-4.5
		c0,4.9,0.1,9.5,0.6,10.1c2-3.5,4-8.7,4.8-13.9c0,0,0,0.1,0.1,0.2c0.1-0.7,0.1-1.4,0.2-2.1C82.8,35.7,83.9,30.6,82.4,24.8z"/>
</g>
</svg>
