<?xml version="1.0" encoding="utf-8"?>
<!-- Generator: Adobe Illustrator 19.0.0, SVG Export Plug-In . SVG Version: 6.00 Build 0)  -->
<svg version="1.1" id="レイヤー_1" xmlns="http://www.w3.org/2000/svg" xmlns:xlink="http://www.w3.org/1999/xlink" x="0px"
	 y="0px" viewBox="0 0 80 80" style="enable-background:new 0 0 80 80;" xml:space="preserve">
<style type="text/css">
	.st0{fill:#FFFFFF;}
</style>
<g>
	<path class="st0" d="M59.1,20.7H20.9c-3.3,0-5.9,2.6-5.9,5.8v27c0,3.2,2.7,5.8,5.9,5.8h38.1c3.3,0,5.9-2.6,5.9-5.8v-27
		C65,23.3,62.3,20.7,59.1,20.7L59.1,20.7z M59.1,54.2H20.9c-0.5,0-0.9-0.3-0.9-0.7V30.1l17.2,14.8c0.4,0.3,0.8,0.5,1.3,0.5l2.9,0
		c0.5,0,0.9-0.2,1.3-0.5L60,30.1v23.4C60,53.9,59.5,54.2,59.1,54.2L59.1,54.2z M40,40.3L23.2,25.8h33.5L40,40.3z M40,40.3"/>
</g>
</svg>
