<?xml version="1.0" encoding="utf-8"?>
<!-- Generator: Adobe Illustrator 19.0.0, SVG Export Plug-In . SVG Version: 6.00 Build 0)  -->
<svg version="1.1" id="レイヤー_1" xmlns="http://www.w3.org/2000/svg" xmlns:xlink="http://www.w3.org/1999/xlink" x="0px"
	 y="0px" viewBox="0 0 80 80" style="enable-background:new 0 0 80 80;" xml:space="preserve">
<style type="text/css">
	.st0{fill:#FFFFFF;}
</style>
<g id="XMLID_1_">
	<path id="XMLID_2_" class="st0" d="M40,15.1c-9.7,0-17.5,7.8-17.5,17.5c0,0.8,0.1,1.5,0.2,2.2c1.5,13.7,16.2,29.4,16.2,29.4
		c0.3,0.3,0.5,0.5,0.8,0.6h0l0.5,0.2l0.5-0.2h0c0.2-0.1,0.5-0.3,0.8-0.6c0,0,14.5-15.8,16-29.4c0.1-0.7,0.1-1.4,0.1-2.2
		C57.5,22.9,49.7,15.1,40,15.1L40,15.1z M40,43.8c-6.2,0-11.2-5.1-11.2-11.3c0-6.2,5-11.2,11.2-11.2c6.2,0,11.3,5,11.3,11.2
		C51.3,38.8,46.2,43.8,40,43.8L40,43.8z M40,43.8"/>
</g>
</svg>
