<?xml version="1.0" encoding="utf-8"?>
<!-- Generator: Adobe Illustrator 19.0.0, SVG Export Plug-In . SVG Version: 6.00 Build 0)  -->
<svg version="1.1" id="レイヤー_1" xmlns="http://www.w3.org/2000/svg" xmlns:xlink="http://www.w3.org/1999/xlink" x="0px"
	 y="0px" viewBox="0 0 80 80" style="enable-background:new 0 0 80 80;" xml:space="preserve">
<style type="text/css">
	.st0{fill:#FFFFFF;}
</style>
<path id="XMLID_2_" class="st0" d="M59.9,20.1c-5.5-5.5-14.4-5.5-19.9,0c-2.7,2.7-4.1,6.2-4.1,9.9c0,1.1,0.1,2.1,0.3,3.1l-16.1,16
	c-2.9,2.9-2.9,7.7,0,10.6c2.9,2.9,7.7,2.9,10.6,0l16.1-16.1c4.5,1,9.5-0.2,13-3.8C65.4,34.5,65.4,25.6,59.9,20.1L59.9,20.1z
	 M29.3,52.2L28.5,53c-0.4,0.4-1.1,0.4-1.5,0c-0.4-0.4-0.4-1.1,0-1.5l0.7-0.7c0.4-0.4,1.1-0.4,1.5,0C29.7,51.2,29.7,51.8,29.3,52.2
	L29.3,52.2z M35,46.6l-3.2,3.2c-0.4,0.4-1.1,0.4-1.5,0c-0.4-0.4-0.4-1.1,0-1.5l3.2-3.2c0.4-0.4,1.1-0.4,1.5,0
	C35.4,45.5,35.4,46.1,35,46.6L35,46.6z M58.7,36.5L43.5,21.3c2.9-2.2,6.7-2.7,10-1.5l-2,2c-0.6,0.6-0.6,1.6,0,2.3
	c0.6,0.6,1.6,0.6,2.3,0l2.7-2.7c0.4,0.3,0.8,0.7,1.2,1c0.4,0.4,0.7,0.8,1,1.2L56,26.2c-0.6,0.6-0.6,1.6,0,2.3c0.6,0.6,1.6,0.6,2.3,0
	l2-2C61.3,29.8,60.8,33.6,58.7,36.5L58.7,36.5z M58.7,36.5"/>
</svg>
